<svg width="76" height="11" viewBox="0 0 76 11" fill="none" xmlns="http://www.w3.org/2000/svg">
<g clip-path="url(#clip0_1_3297)">
<path d="M71.619 0L76 2.53045V7.58842L71.619 10.1174L67.2365 7.58842V2.53045L71.619 0Z" fill="#065B6D"/>
<path d="M57.2128 6.25342H56.9081V6.4732H57.2128V6.25342Z" fill="#595A5C"/>
<path d="M53.5849 7.37178H53.2303C53.1395 7.37178 53.0648 7.37178 53.0648 7.2824C53.0648 7.22233 53.1161 7.18716 53.1805 7.18716H53.5849V7.37178ZM53.5849 6.99082H53.1717C52.9021 6.99082 52.7527 7.09486 52.7527 7.2912C52.7527 7.48754 52.9183 7.58424 53.1278 7.58424H53.8912V7.03478C53.8912 6.75932 53.7959 6.6084 53.415 6.6084H52.8289V6.81646H53.3446C53.5219 6.81646 53.5791 6.8487 53.5791 6.99082" fill="#595A5C"/>
<path d="M54.4743 6.6084V7.23698C54.4743 7.33222 54.5197 7.37032 54.6326 7.37032H54.911V6.6084H55.2172V7.57838H54.593C54.3 7.57838 54.1696 7.46116 54.1696 7.20475V6.6084H54.4743Z" fill="#595A5C"/>
<path d="M56.3191 7.37139H56.1007C56.0624 7.37681 56.0233 7.37351 55.9864 7.36176C55.9495 7.35 55.9157 7.33008 55.8876 7.30347C55.8594 7.27687 55.8376 7.24426 55.8238 7.20808C55.81 7.17189 55.8045 7.13306 55.8077 7.09446C55.8077 6.92156 55.9059 6.81607 56.111 6.81607H56.3205V7.37139M56.3205 6.25342V6.608H56.0407C55.7095 6.608 55.5015 6.79409 55.5015 7.08127C55.5015 7.41974 55.7095 7.57799 56.07 7.57799H56.6282V6.25928L56.3205 6.25342Z" fill="#595A5C"/>
<path d="M52.0845 7.57798H51.2405V7.34208H51.9365C52.1431 7.34208 52.2295 7.29666 52.2295 7.18237C52.2295 7.06808 52.1709 7.03585 52.0112 7.02706H51.6742C51.3518 7.02706 51.2009 6.8483 51.2009 6.64903C51.2009 6.48492 51.3225 6.25781 51.7108 6.25781H52.4815V6.49225H51.8266C51.6801 6.49225 51.5203 6.48053 51.5203 6.63877C51.5203 6.79702 51.6757 6.78529 51.7987 6.78529H52.0625C52.4434 6.78529 52.5695 6.95673 52.5695 7.18384C52.5695 7.37139 52.4449 7.57652 52.0845 7.57652" fill="#595A5C"/>
<path d="M57.2128 6.6084H56.9081V7.57692H57.2128V6.6084Z" fill="#595A5C"/>
<path d="M61.6729 7.37178H61.3184C61.229 7.37178 61.1528 7.37178 61.1528 7.2824C61.1528 7.22233 61.2041 7.18863 61.27 7.18863H61.6729V7.37178ZM61.6729 6.98936H61.2583C60.9916 6.98936 60.8392 7.09632 60.8392 7.29119C60.8392 7.48607 61.0063 7.58424 61.2173 7.58424H61.9806V7.03478C61.9806 6.76078 61.8825 6.61133 61.5044 6.61133H60.9184V6.81646H61.4356C61.6114 6.81646 61.6686 6.85016 61.6686 6.98936" fill="#595A5C"/>
<path d="M62.9624 7.57838V6.95273C62.9624 6.85602 62.9184 6.81646 62.807 6.81646H62.5228V7.57838H62.2151V6.61133H62.8393C63.1323 6.61133 63.2627 6.72708 63.2627 6.98496V7.57105L62.9624 7.57838Z" fill="#595A5C"/>
<path d="M58.5667 7.04503V7.57838H58.2443V6.84576C58.2329 6.7594 58.2429 6.67154 58.2736 6.59C58.3043 6.50846 58.3546 6.43576 58.4202 6.37835C58.5802 6.27992 58.7679 6.23621 58.955 6.25381H59.4605V6.48971H58.9491C58.6722 6.48971 58.574 6.56151 58.574 6.72268V6.81646H59.4151V7.04503H58.5667Z" fill="#595A5C"/>
<path d="M60.3103 7.0465C60.3103 6.89998 60.3103 6.81646 60.1155 6.81646H59.9968V7.57838H59.692V6.61133H60.1946C60.5316 6.61133 60.6049 6.72415 60.6049 6.94247V7.0465H60.3103Z" fill="#595A5C"/>
<path d="M63.5001 6.89119C63.5001 6.74466 63.6071 6.61133 63.8635 6.61133H64.5272V6.81646H63.9617C63.8386 6.81646 63.7917 6.83404 63.7917 6.90144C63.7917 6.99668 63.9104 6.98789 63.9895 6.99375H64.1961C64.4071 6.99375 64.5785 7.06994 64.5785 7.26922C64.5785 7.43918 64.4716 7.57545 64.1639 7.57545H63.5177V7.37032H64.0789C64.2664 7.37032 64.3045 7.34541 64.3045 7.27654C64.3045 7.20768 64.2005 7.19742 64.114 7.19449H63.8576C63.6071 7.19449 63.5001 7.05676 63.5001 6.90144" fill="#595A5C"/>
<path d="M65.1192 6.61133H64.813V7.57691H65.1192V6.61133Z" fill="#595A5C"/>
<path d="M65.1192 6.25342H64.813V6.47467H65.1192V6.25342Z" fill="#595A5C"/>
<path d="M65.1207 4.91162H43.3401V5.20467H65.1207V4.91162Z" fill="#EB2030"/>
<path d="M47.2258 7.37178H46.8727C46.7818 7.37178 46.7056 7.37178 46.7056 7.2824C46.7056 7.22233 46.7569 7.18716 46.8214 7.18716H47.2258V7.37178ZM47.2258 6.99082H46.8111C46.5459 6.99082 46.395 7.09486 46.395 7.2912C46.395 7.48754 46.5591 7.58424 46.7701 7.58424H47.5306V7.03478C47.5306 6.75932 47.4353 6.6084 47.0588 6.6084H46.4727V6.81646H46.9914C47.1687 6.81646 47.2243 6.8487 47.2243 6.99082" fill="#595A5C"/>
<path d="M45.0866 6.25488H44.7892V7.57652H45.0866V6.25488Z" fill="#595A5C"/>
<path d="M45.6302 6.25488H45.3313V7.57652H45.6302V6.25488Z" fill="#595A5C"/>
<path d="M48.5064 7.57838V6.94394C48.5064 6.84723 48.461 6.80914 48.3467 6.80914H48.0698V7.57252H47.7621V6.6084H48.3877C48.6808 6.6084 48.8141 6.72562 48.8141 6.98203V7.57838H48.5064Z" fill="#595A5C"/>
<path d="M50.1241 6.89265C50.1241 6.74613 50.0186 6.61426 49.7622 6.61426H49.0999V6.81939H49.664C49.7871 6.81939 49.8354 6.83697 49.8354 6.90291C49.8354 6.99815 49.7153 6.98936 49.6361 6.99522H49.4295C49.2171 6.99522 49.0471 7.06994 49.0471 7.26922C49.0471 7.44211 49.157 7.57545 49.4618 7.57545H50.1079V7.37178H49.5468C49.3607 7.37178 49.3226 7.34687 49.3226 7.27654C49.3226 7.20621 49.4251 7.19888 49.5101 7.19742H49.768C50.0186 7.19742 50.1241 7.06115 50.1241 6.90437" fill="#595A5C"/>
<path d="M43.9452 6.24323C43.7971 6.2323 43.6507 6.28039 43.5378 6.37701C43.425 6.47363 43.355 6.61094 43.343 6.75899V6.82492V7.57805H43.6624V7.02566H44.2266V7.57805H44.5474V6.75899C44.5351 6.61135 44.4652 6.47451 44.3528 6.378C44.2403 6.2815 44.0945 6.23309 43.9467 6.24323M44.228 6.80001H43.6654V6.71503C43.6752 6.6474 43.709 6.58556 43.7606 6.54083C43.8123 6.4961 43.8784 6.47149 43.9467 6.47149C44.015 6.47149 44.0811 6.4961 44.1327 6.54083C44.1844 6.58556 44.2182 6.6474 44.228 6.71503V6.80001Z" fill="#595A5C"/>
<path d="M46.1694 6.62305H45.8719V7.57838H46.1694V6.62305Z" fill="#595A5C"/>
<path d="M46.1694 6.25488H45.8719V6.48932H46.1694V6.25488Z" fill="#595A5C"/>
<path d="M65.0929 2.25195H64.7881V3.55601H65.0929V2.25195Z" fill="#595A5C"/>
<path d="M63.6247 3.70996H63.3214V3.93121H63.6247V3.70996Z" fill="#595A5C"/>
<path d="M63.2628 3.70996H62.9565V3.93121H63.2628V3.70996Z" fill="#595A5C"/>
<path d="M62.2122 2.25049H61.9089V2.47027H62.2122V2.25049Z" fill="#595A5C"/>
<path d="M61.2172 2.25049H60.9095V2.47027H61.2172V2.25049Z" fill="#595A5C"/>
<path d="M61.6437 3.53688H61.2349V3.55886C61.2349 3.81527 61.1045 3.93102 60.81 3.93102H60.599V3.72003H60.7646C60.8759 3.72003 60.9228 3.68047 60.9228 3.58523V2.55957H61.2291V3.31856H61.6847" fill="#595A5C"/>
<path d="M61.3887 3.33028H61.9088V2.57275H62.2121V3.33028C62.2121 3.4768 62.1652 3.53688 62.0055 3.53688H61.4312" fill="#595A5C"/>
<path d="M62.7998 3.34062H63.1573C63.2701 3.34062 63.3156 3.30399 63.3156 3.20582V2.58163H63.6218V3.34062H64.0746C64.1888 3.34062 64.2328 3.30399 64.2328 3.20582V2.25488H64.539V3.34355C64.539 3.49007 64.4951 3.55161 64.3354 3.55161H62.7998" fill="#595A5C"/>
<path d="M63.1089 3.34062H62.7338V2.25488H62.4276V3.33915C62.4276 3.48568 62.4745 3.54722 62.6342 3.54722H63.0108" fill="#595A5C"/>
<path d="M64.8071 2.13927V2.03231H65.0284V2.02206C65.0284 1.98982 65.0181 1.97224 64.9903 1.97224H64.8145V1.96198L64.9419 1.70703H65.0313V1.72168L64.9654 1.86821H65.0137C65.0958 1.86821 65.1207 1.92535 65.1207 2.02499V2.1422L64.8071 2.13927Z" fill="#595A5C"/>
<path d="M52.2428 3.70557H51.9438V3.92096H52.2428V3.70557Z" fill="#595A5C"/>
<path d="M52.675 3.70557H52.3761V3.92096H52.675V3.70557Z" fill="#595A5C"/>
<path d="M51.7388 3.54712V3.34492H53.1776V3.1984C53.1776 3.13832 53.1425 3.10462 53.056 3.10462H51.9454V3.08118L52.3571 2.60205H52.6619V2.62696L52.4333 2.90242H53.1278C53.3989 2.90242 53.4795 3.01231 53.4795 3.19547V3.54419L51.7388 3.54712Z" fill="#595A5C"/>
<path d="M60.1169 2.25488H59.8195V3.54722H60.1169V2.25488Z" fill="#595A5C"/>
<path d="M53.6362 3.54712H54.2003C54.5242 3.54712 54.7278 3.36544 54.7278 3.08704C54.7278 2.7559 54.5505 2.60205 54.1989 2.60205H53.6362V2.80425H54.1417C54.1796 2.7973 54.2185 2.7992 54.2555 2.80982C54.2925 2.82044 54.3265 2.83949 54.3549 2.86547C54.3833 2.89145 54.4053 2.92365 54.4192 2.95955C54.433 2.99545 54.4384 3.03407 54.4348 3.07239C54.4348 3.24382 54.3395 3.34492 54.1417 3.34492H53.6465L53.6362 3.54712Z" fill="#595A5C"/>
<path d="M59.2641 2.25488V3.34501H58.8949V2.60214H58.6018V3.21314C58.6018 3.30838 58.5579 3.34501 58.448 3.34501H58.382V2.60214H58.089V3.21314C58.089 3.30838 58.045 3.34501 57.9351 3.34501H57.8692V2.60214H57.5762V3.21314C57.5762 3.30838 57.5322 3.34501 57.4223 3.34501H56.7717C56.571 3.34501 56.4787 3.24391 56.4787 3.07248C56.4757 3.03496 56.4811 2.99723 56.4947 2.96211C56.5082 2.92698 56.5295 2.89536 56.557 2.8696C56.5844 2.84384 56.6173 2.82459 56.6533 2.81329C56.6892 2.802 56.7272 2.79894 56.7644 2.80434H57.2479V2.60214H56.7117C56.36 2.60214 56.1593 2.75599 56.1593 3.0886C56.1561 3.17944 56.1812 3.26902 56.2311 3.34501H55.9512C55.9161 3.12816 55.7417 2.96552 55.3959 2.96552C55.0076 2.96552 54.8362 3.17651 54.8362 3.43586V3.54722H55.645C55.6377 3.69374 55.5146 3.72304 55.3607 3.72304H54.8362V3.92671H55.4486C55.7563 3.92671 55.9175 3.78019 55.9512 3.54722H59.3593C59.5147 3.54722 59.5601 3.48275 59.5601 3.34208V2.25488H59.2641ZM55.1512 3.34501C55.1615 3.219 55.2523 3.17212 55.3988 3.17212C55.5454 3.17212 55.6362 3.219 55.6465 3.34501H55.1512Z" fill="#595A5C"/>
<path d="M47.8339 2.25488H47.535V2.46881H47.8339V2.25488Z" fill="#595A5C"/>
<path d="M49.5672 2.25488H49.2683V2.46881H49.5672V2.25488Z" fill="#595A5C"/>
<path d="M43.9188 3.70557H43.6199V3.92096H43.9188V3.70557Z" fill="#595A5C"/>
<path d="M44.3496 3.70557H44.0521V3.92096H44.3496V3.70557Z" fill="#595A5C"/>
<path d="M51.2669 2.25488H50.968V3.54722H51.2669V2.25488Z" fill="#595A5C"/>
<path d="M50.4112 2.25488V3.34501H49.9335C49.9839 3.26912 50.01 3.17968 50.0083 3.0886C50.0083 2.74427 49.787 2.59042 49.4222 2.59042C49.0573 2.59042 48.8288 2.74427 48.8288 3.0886C48.8272 3.17944 48.8527 3.26869 48.902 3.34501H48.4244V2.60214H48.1313V3.5985C48.1313 3.69227 48.0874 3.73037 47.976 3.73037H47.809V3.93111H48.0141C48.3071 3.93111 48.4288 3.81682 48.4288 3.56773V3.54722H50.5079C50.6647 3.54722 50.7101 3.48275 50.7101 3.34208V2.25488H50.4112ZM49.4178 3.34501C49.3646 3.3413 49.3136 3.32214 49.2711 3.28987C49.2286 3.25759 49.1965 3.21362 49.1786 3.16334C49.1608 3.11306 49.158 3.05867 49.1706 3.00683C49.1832 2.955 49.2107 2.90798 49.2497 2.87154C49.2887 2.8351 49.3374 2.81083 49.39 2.80171C49.4426 2.79259 49.4967 2.79902 49.5456 2.8202C49.5946 2.84138 49.6363 2.8764 49.6656 2.92096C49.695 2.96551 49.7107 3.01766 49.7108 3.07102C49.7136 3.10938 49.7078 3.14788 49.6937 3.1837C49.6797 3.21951 49.6578 3.25173 49.6297 3.278C49.6017 3.30427 49.568 3.32393 49.5314 3.33552C49.4947 3.34712 49.4559 3.35036 49.4178 3.34501Z" fill="#595A5C"/>
<path d="M44.1971 3.34492C44.307 3.34492 44.351 3.30829 44.351 3.21305V2.96543C44.351 2.71634 44.4785 2.60205 44.7671 2.60205H45.444V3.34492H45.6726C45.7825 3.34492 45.8191 3.30829 45.8191 3.21305V2.60205H46.1195V3.34492H46.184C46.2924 3.34492 46.3305 3.30829 46.3305 3.21305V2.60205H46.6309V3.34492H46.6968C46.8052 3.34492 46.8507 3.30829 46.8507 3.21305V2.60205H47.1437V3.34492H47.5203V2.60205H47.8133V3.34199C47.8133 3.48851 47.7679 3.54712 47.6126 3.54712H45.1217V2.80425H44.7803C44.6704 2.80425 44.625 2.84088 44.625 2.93612V3.18228C44.625 3.43137 44.499 3.54712 44.2132 3.54712H43.3165V3.34492H44.1971Z" fill="#595A5C"/>
<path fill-rule="evenodd" clip-rule="evenodd" d="M1.61322 8.11578L2.08942 6.50403H3.97956L4.42792 8.11578H6.17887L4.43818 2.00431C4.40888 1.84541 4.32124 1.70321 4.19247 1.60561C4.0637 1.50802 3.9031 1.46208 3.7422 1.47682H1.26303V2.05412H1.47402C1.7319 2.05412 1.8711 2.15376 1.8711 2.34717C1.8581 2.53278 1.81454 2.71497 1.74216 2.88638L0 8.11578H1.61322ZM3.7422 5.42708H2.33851L3.08431 2.98748L3.7422 5.42708Z" fill="#004987"/>
<path d="M8.19792 8.11604V1.98405C8.20435 1.91651 8.1959 1.84838 8.17317 1.78445C8.15044 1.72052 8.11398 1.66235 8.06635 1.61403C8.01872 1.5657 7.96109 1.5284 7.8975 1.50474C7.83391 1.48108 7.76591 1.47164 7.69828 1.47708H6.16711V2.05438H6.26675C6.52463 2.05438 6.63306 2.16281 6.63306 2.42216V8.11604H8.19792Z" fill="#004987"/>
<path d="M10.85 8.11591V1.98393C10.8565 1.91725 10.8485 1.84996 10.8264 1.7867C10.8044 1.72344 10.7688 1.66571 10.7223 1.61752C10.6758 1.56932 10.6193 1.53179 10.5569 1.50752C10.4945 1.48325 10.4275 1.47282 10.3606 1.47696H8.81921V2.05426H8.92031C9.17819 2.05426 9.28809 2.16268 9.28809 2.42203V8.11591H10.85Z" fill="#004987"/>
<path fill-rule="evenodd" clip-rule="evenodd" d="M13.5431 8.11603V3.64562C13.5505 3.57794 13.5428 3.50948 13.5206 3.44511C13.4984 3.38075 13.4624 3.32206 13.4149 3.27323C13.3675 3.2244 13.3099 3.18663 13.2462 3.16261C13.1825 3.13858 13.1143 3.1289 13.0464 3.13425H11.5328V3.69983H11.6222C11.8801 3.69983 11.99 3.81998 11.99 4.07933V8.11603H13.5431ZM13.5739 2.08661C13.5739 1.64705 13.2442 1.37012 12.6786 1.37012C12.1131 1.37012 11.7834 1.63972 11.7834 2.08661C11.7834 2.53351 12.1219 2.80458 12.6786 2.80458C13.2354 2.80458 13.5739 2.53351 13.5739 2.08661Z" fill="#004987"/>
<path fill-rule="evenodd" clip-rule="evenodd" d="M14.8648 4.56143C15.3421 4.32407 15.8647 4.19167 16.3974 4.17314C16.8135 4.17314 16.963 4.31966 16.963 4.75923V4.86913C16.3271 4.96876 16.1278 5.00832 15.7703 5.08891C15.5701 5.13513 15.374 5.19786 15.1842 5.27646C14.5571 5.52555 14.2582 6.00907 14.2582 6.76074C14.2582 7.70581 14.6655 8.1615 15.5124 8.1615C15.7983 8.16217 16.0818 8.10847 16.3476 8.00325C16.5888 7.89208 16.8133 7.74757 17.0143 7.57394V7.64427C17.0056 7.70776 17.0117 7.77239 17.0321 7.83313C17.0525 7.89388 17.0866 7.94909 17.1319 7.99447C17.1771 8.03985 17.2322 8.07417 17.2929 8.09475C17.3536 8.11534 17.4182 8.12163 17.4817 8.11314H18.9044V7.57394H18.8356C18.566 7.57394 18.4678 7.45672 18.4678 7.13437V4.76949C18.4678 3.50646 18.0282 3.06982 16.7652 3.06982C16.3637 3.07104 15.9637 3.11724 15.5725 3.20756C15.2045 3.2923 14.8496 3.42636 14.5175 3.6061L14.8648 4.56143ZM16.963 5.72629V6.68894C16.7472 6.93592 16.4443 7.08978 16.1176 7.11825C15.8392 7.11825 15.7381 6.97173 15.7381 6.61128C15.7381 6.25084 15.8186 6.07354 16.0985 5.96365C16.3766 5.85159 16.6667 5.77194 16.963 5.72629Z" fill="#004987"/>
<path fill-rule="evenodd" clip-rule="evenodd" d="M21.1681 8.11579V4.74576C21.2675 4.61807 21.3943 4.51427 21.5391 4.442C21.6838 4.36974 21.843 4.33084 22.0048 4.32817C22.3315 4.32817 22.4121 4.45565 22.4121 4.95529V8.11579H23.9638V4.72965C23.9638 3.94428 23.9052 3.69519 23.6546 3.42706C23.5327 3.30609 23.3864 3.21245 23.2254 3.15232C23.0645 3.0922 22.8927 3.06698 22.7213 3.07833C22.1132 3.07833 21.6854 3.26881 21.1095 3.81095V3.60582C21.1095 3.29812 20.9498 3.13841 20.6319 3.13841H19.1666V3.70399H19.256C19.5154 3.70399 19.6238 3.82413 19.6238 4.08348V8.11579H21.1681Z" fill="#004987"/>
<path d="M28.569 7.06695H26.4005L28.4679 4.15994V3.13428H25.2254C24.8576 3.13428 24.6891 3.30278 24.6891 3.67202V4.57606H25.2649V4.48668C25.2649 4.25811 25.3851 4.14968 25.6327 4.14968H26.7477L24.6583 7.0904V8.11606H28.569V7.06695Z" fill="#004987"/>
<path fill-rule="evenodd" clip-rule="evenodd" d="M41.0719 5.12829C41.0719 2.21395 38.8931 0.0336914 35.9773 0.0336914C33.0615 0.0336914 30.8842 2.21395 30.8842 5.12829C30.8842 8.04264 33.0629 10.2214 35.9773 10.2214C38.8916 10.2214 41.0719 8.0441 41.0719 5.12829ZM40.2059 5.12829C40.2059 7.60453 38.4242 9.40676 35.9773 9.40676C33.5304 9.40676 31.753 7.60453 31.753 5.12829C31.753 2.65206 33.5333 0.849824 35.9802 0.849824C38.4272 0.849824 40.2089 2.66085 40.2089 5.12829M34.597 7.98256V3.00811H33.7326C33.3032 3.00811 33.1347 3.16782 33.1347 3.60592V7.98256H34.597ZM37.3634 7.98256H38.8286V3.60592C38.8286 3.16635 38.6601 3.00811 38.2323 3.00811H37.3663L37.3634 7.98256ZM36.7158 7.98256V2.36194C36.7158 1.91358 36.5575 1.76559 36.1194 1.76559H34.8007V2.39271H34.8798C35.1729 2.39271 35.2388 2.46158 35.2388 2.81909V7.98256H36.7158Z" fill="#004987"/>
<path d="M75.6381 2.48352L74.5597 1.8608C74.4454 1.92234 73.2058 2.61392 72.3999 4.84547C72.7619 2.73847 74.0278 1.69523 74.1333 1.62196L73.2659 1.12085C73.1707 1.19412 72.4293 1.82123 71.9399 3.84618C72.063 1.78753 72.7692 0.96261 72.8454 0.877627L71.6161 0.174316L70.3853 0.877627C70.4614 0.96261 71.1662 1.78753 71.2937 3.84618C70.8014 1.82123 70.06 1.19412 69.9647 1.12085L69.0988 1.62196C69.2028 1.70255 70.4702 2.74579 70.8322 4.84547C70.0248 2.61392 68.7808 1.91501 68.6709 1.8608L67.594 2.48352C67.701 2.55678 71.4153 5.06672 71.6161 9.70124C71.8168 5.06672 75.5311 2.55678 75.6381 2.48352Z" fill="#77CCD8"/>
</g>
<defs>
<clipPath id="clip0_1_3297">
<rect width="76" height="10.2214" fill="white"/>
</clipPath>
</defs>
</svg>
