<svg width="76" height="33" viewBox="0 0 76 33" fill="none" xmlns="http://www.w3.org/2000/svg">
<g clip-path="url(#clip0_1_2368)">
<path d="M25.4383 32.172L25.0839 32.428L24.6901 32.684H23.9065C23.6938 32.2744 23.4812 32.2744 23.2686 32.684H22.8748L22.7133 32.4516L22.4889 32.684H21.6107C21.2681 32.2902 20.9295 32.2902 20.5869 32.684H17.1413C17.0665 32.6013 16.968 32.4398 16.9208 32.4556C16.8735 32.4713 16.7278 32.6013 16.6333 32.684H16.1214C15.9648 32.5873 15.8001 32.5043 15.6292 32.4359C15.4109 32.375 15.1885 32.3303 14.9637 32.302L14.7117 31.9082C14.907 31.85 15.1074 31.8104 15.3102 31.7901C16.2002 31.7901 17.0901 31.7901 17.9801 31.7901L23.1307 31.8334L24.5169 31.9121L25.0524 31.7861H25.2965L25.4383 32.172Z" fill="#F9FAFB"/>
<path d="M14.9637 32.3019C15.1858 32.3306 15.4056 32.3754 15.6213 32.4358C15.7922 32.5042 15.9569 32.5872 16.1135 32.6839H11.4196C11.5811 32.5973 11.7425 32.4476 11.9119 32.4397H13.7587C13.9597 32.4142 14.1585 32.3734 14.3533 32.3177L14.9637 32.3019ZM1.31519 32.6839C1.49633 32.1405 1.96099 32.2901 2.32721 32.2901C2.91394 32.2901 3.50855 32.3571 4.07954 32.4201C4.18586 32.4201 4.28037 32.5815 4.37881 32.6642L1.31519 32.6839ZM20.5869 32.6839C20.9295 32.2901 21.2681 32.2901 21.6107 32.6839H20.5869ZM23.2686 32.6839C23.4812 32.2744 23.6938 32.2744 23.9065 32.6839H23.2686ZM16.6333 32.6839C16.7278 32.6012 16.8145 32.487 16.9208 32.4555C17.0271 32.424 17.0665 32.6012 17.1413 32.6839H16.6333ZM22.5007 32.6839L22.7251 32.4516L22.8866 32.6839H22.5007Z" fill="white"/>
<path d="M20.1971 0.00390625C20.378 0.0906013 20.5484 0.197612 20.7051 0.32287L28.1869 7.80473C28.4832 8.12002 28.6577 8.53037 28.6792 8.96246V19.4213C28.67 19.7127 28.5584 19.9915 28.3641 20.2089C25.7783 22.821 23.1767 25.4199 20.5594 28.0058C20.445 28.0912 20.3207 28.1626 20.1892 28.2184V28.0885V24.7649V24.5208V22.5164C20.1892 22.3314 20.0199 22.1542 19.9254 21.977L18.6535 21.9218C18.6115 20.3467 18.5695 18.7584 18.5275 17.1571C18.8862 17.1262 19.2465 17.117 19.6064 17.1295C20.0908 17.1689 20.2207 16.9799 20.2089 16.5113V12.9672C20.2089 11.4472 20.2089 11.4472 18.6574 11.3921L18.7755 9.7067L18.6574 6.79271L18.7598 6.62339H19.0394H20.1814L20.1971 0.00390625ZM25.7652 19.9805V8.33634H22.7055V19.9805H25.7652Z" fill="#3A6895"/>
<path d="M0.0511475 19.2836C0.0511475 16.0074 0.0511475 12.7259 0.0511475 9.43908C0.315339 9.25347 0.561842 9.04388 0.787521 8.81297C0.980474 8.5767 1.03167 8.21442 1.24431 8.0254L3.31167 6.13919C3.63221 5.87144 3.98878 5.65007 4.37094 5.48157C5.25496 5.06159 6.16212 4.69215 7.08804 4.37504C7.36762 4.28447 7.75747 4.53255 8.09612 4.62312C8.03814 4.79751 7.96433 4.96623 7.8756 5.12717L6.53674 7.15908C5.85156 7.44261 5.05612 7.58831 4.50089 8.03722C3.26084 8.97324 2.32402 10.2538 1.80742 11.7191C1.34275 13.1288 0.980474 14.5071 1.41363 15.9759C1.90565 17.8311 2.96926 19.4844 4.45363 20.7013C5.11913 21.1895 5.75312 21.7881 6.69426 21.4455H6.81239C6.84221 21.5835 6.89265 21.7163 6.96203 21.8393L9.11996 24.6351L9.28141 25.7102C9.07664 25.5251 8.88762 25.4266 8.81281 25.2731C8.39146 24.5328 7.74566 24.3319 6.92659 24.2217C6.1088 24.1213 5.32053 23.8532 4.61115 23.4341C3.0209 22.4561 1.65275 21.1564 0.594567 19.6184C0.476432 19.4648 0.232287 19.3939 0.0511475 19.2836Z" fill="#51A1D9"/>
<path d="M44.4974 4.94585V9.43497C44.4974 11.6205 44.8911 11.9827 47.0648 11.9827H59.1815L59.9179 11.9473C59.784 10.8368 59.6068 9.82088 58.9728 8.95062C58.39 8.16305 57.6576 7.94647 56.6534 8.36782C55.921 8.67891 55.2437 9.11994 54.4955 9.52948L53.8694 8.84823C54.9287 7.88347 56.1021 7.13528 57.567 7.09197C58.8822 7.05652 59.9494 7.98979 60.4849 9.54917C60.7054 10.1871 60.796 10.8683 60.985 11.5181C61.0362 11.6953 61.2331 11.9473 61.3788 11.9591C62.1427 12.0182 62.9067 12.0142 63.6706 12.0182C63.782 12.0322 63.8951 12.0223 64.0023 11.989C64.1095 11.9558 64.2084 11.9 64.2923 11.8254C64.3762 11.7509 64.4432 11.6592 64.4888 11.5566C64.5344 11.454 64.5575 11.3429 64.5566 11.2306C64.6039 10.321 64.6196 9.41134 64.6393 8.49777C64.6393 8.26937 64.6039 8.03704 64.5763 7.7102L65.6041 7.52119C65.8167 9.11994 65.9979 10.6714 65.3599 12.1796C65.0567 12.8884 64.3597 13.0696 63.6509 13.0814H60.5282H46.7459C46.4709 13.0795 46.1962 13.0637 45.9229 13.0341C44.517 12.8766 43.5877 12.0969 43.4972 10.6714C43.4026 8.86916 43.4026 7.06316 43.4972 5.26088C43.5405 4.57963 44.1666 5.06005 44.4974 4.94585Z" fill="#68696C"/>
<path d="M20.205 28.0884V28.2184H16.1215C15.4316 28.0463 14.7541 27.8279 14.0935 27.5647L10.7582 25.7887C10.8409 25.328 10.9787 24.9224 11.5457 24.883L13.0736 24.7413C13.1746 24.7215 13.27 24.6798 13.3532 24.6192L14.6133 23.8316L15.2355 23.4024L16.8382 22.4495C17.0032 22.3044 17.1477 22.1375 17.2674 21.9533L18.6732 21.9021L19.9451 21.9572L20.0751 23.6544C20.1026 23.938 20.1617 24.2175 20.209 24.5011V24.7452C20.1392 24.9851 20.0969 25.2321 20.0829 25.4816L20.205 28.0884Z" fill="#88B2DF"/>
<path d="M20.1971 0.00390625V6.58795H19.0551C18.7913 6.40287 18.4842 6.02484 18.2676 6.07209C17.6375 6.21385 17.2949 5.85551 16.8578 5.5523C16.0731 4.95762 15.2392 4.43068 14.3652 3.97717C13.1563 3.418 11.8765 3.02028 10.6243 2.55562C11.1188 2.16955 11.6458 1.82699 12.1994 1.53178C13.3374 1.05137 14.5188 0.677274 15.6765 0.251989C15.7907 0.208673 15.8773 0.0866005 15.9758 0.00390625H20.1971Z" fill="#83AFDD"/>
<path d="M15.9915 0.0119082C15.8931 0.0946025 15.8065 0.216675 15.6923 0.259991L12.2152 1.53978C11.6616 1.83499 11.1346 2.17755 10.64 2.56362L8.10408 4.6231C7.76543 4.53253 7.37559 4.28445 7.096 4.37502C6.17451 4.68612 5.27132 5.04898 4.39072 5.46186C4.00856 5.63036 3.65198 5.85173 3.33144 6.11947L1.26408 8.00569C1.05144 8.2144 1.00025 8.57668 0.807296 8.79326C0.581078 9.02982 0.333228 9.24472 0.0669853 9.43512C-0.0413201 8.96345 -0.0149495 8.47083 0.143092 8.01342C0.301134 7.556 0.58449 7.15218 0.960871 6.84797C2.46906 5.48155 3.84336 3.96942 5.29248 2.51636L6.0446 1.76818C6.54864 1.28383 7.033 0.779784 7.56066 0.326934C7.77092 0.13277 8.03954 0.0136884 8.3246 -0.0117188L15.9915 0.0119082ZM10.7582 25.8047L14.0935 27.5806C14.7541 27.8438 15.4316 28.0622 16.1215 28.2343H8.54118C8.2414 28.1968 7.96348 28.0578 7.75362 27.8405L0.740353 20.8587C0.590716 20.7091 0.425327 20.5792 0.263877 20.4413L0.0276071 20.1814L0.051234 19.2836C0.232374 19.3939 0.476519 19.4648 0.586778 19.6262C1.64496 21.1642 3.01311 22.464 4.60336 23.442C5.31274 23.861 6.10101 24.1292 6.9188 24.2295C7.73787 24.3398 8.38367 24.5406 8.80502 25.2809C8.89165 25.4345 9.06885 25.5329 9.27362 25.718L9.11217 24.643L10.7582 25.8047Z" fill="#6B87BA"/>
<path d="M23.1386 31.8451L17.9879 31.8018C17.098 31.8018 16.208 31.8018 15.3181 31.8018C15.1153 31.8221 14.9149 31.8616 14.7195 31.9199H14.3258L9.8642 31.7584L10.0493 31.3647L8.94275 31.0969L9.86026 30.522H10.254C11.0928 30.7031 11.9316 30.8685 12.6837 30.2581L15.2315 30.0061L16.8814 30.077L17.7871 30.0061C18.0645 30.0679 18.3462 30.1088 18.6298 30.1282L21.4808 30.073L24.1546 30.1754V30.3881L23.8435 30.5141C23.8435 30.5495 23.8868 30.6125 23.8986 30.6086C23.9892 30.585 24.0758 30.5535 24.1664 30.522L24.5602 30.3999L24.8358 30.1754V30.1479L25.0642 30.1833L25.206 30.3054V30.522C25.1193 30.6204 24.9776 30.711 24.9579 30.8212C24.9362 31.0175 24.9362 31.2156 24.9579 31.4119L24.5641 31.6561V31.786L23.1386 31.8451Z" fill="#9F9F9F"/>
<path d="M67.6006 11.9435H69.92L67.4155 6.15098L68.3882 5.70994L70.995 11.6679L71.2273 11.7072C71.4405 11.4022 71.5991 11.0624 71.6959 10.7031C71.8023 9.12797 71.8338 7.52134 71.8889 5.93046V5.18227L72.96 5.10352V9.11222C72.96 9.506 72.9167 9.87222 72.8773 10.2542C72.6922 12.1404 71.9795 12.8532 70.1208 13.0107C69.5301 13.0579 68.9395 13.0815 68.3409 13.0855C67.3683 13.0855 67.3368 13.0185 67.6006 11.9435Z" fill="#68696C"/>
<path d="M34.4993 15.9089V28.2146C34.519 28.3834 34.519 28.5539 34.4993 28.7226C34.4993 28.8171 34.3417 28.9667 34.2827 28.9549C34.2195 28.943 34.1597 28.9169 34.1079 28.8788C34.0561 28.8406 34.0136 28.7913 33.9834 28.7344C33.9476 28.5689 33.9396 28.3985 33.9598 28.2304V3.48903C33.9379 3.34151 33.9379 3.19157 33.9598 3.04405C33.9952 2.93379 34.1252 2.8511 34.2118 2.75659C34.3063 2.84716 34.452 2.92198 34.4874 3.0283C34.5112 3.19679 34.5112 3.36779 34.4874 3.53628L34.4993 15.9089Z" fill="#6C757D"/>
<path d="M37.9725 7.17085C39.5201 6.99364 41.4811 8.20256 42.0954 9.72649C42.4744 10.6827 42.5594 11.7302 42.3395 12.735C42.3085 12.8229 42.2564 12.902 42.1877 12.9651C42.1191 13.0283 42.036 13.0736 41.9458 13.0973H36.547V12.0616H41.1936C41.6347 10.4865 40.7172 8.95468 39.1105 8.43095C38.9678 8.38559 38.8233 8.34618 38.6774 8.31281C37.8307 8.10805 37.8307 8.10805 37.9725 7.17085Z" fill="#6C6D71"/>
<path d="M71.4006 23.5599V18.1415C71.4006 18.0155 71.6172 17.8461 71.7668 17.7792C71.9332 17.7455 72.1046 17.7455 72.2709 17.7792C73.279 17.7792 74.3816 17.728 74.8895 18.803C75.1855 19.4194 75.3335 20.0963 75.3219 20.7799C75.3103 21.4635 75.1393 22.1349 74.8226 22.7409C74.5312 23.3237 73.9169 23.5284 73.3184 23.5639C72.7198 23.5993 72.1094 23.5599 71.4006 23.5599ZM72.4796 22.9693C73.5034 23.0165 73.9484 22.7409 74.0547 21.8312C74.1426 21.0311 74.1347 20.2234 74.0311 19.4252C73.9248 18.6061 73.3774 18.3108 72.456 18.4447L72.4796 22.9693Z" fill="#6C757D"/>
<path d="M64.3795 23.5087C63.3438 23.6465 63.3438 23.6465 63.3438 22.7487V21.1736C63.3438 20.8074 63.2021 20.6853 62.8555 20.701H61.6742V22.7408C61.6742 23.6583 61.6742 23.6583 60.6779 23.5284C60.6779 23.3394 60.6464 23.1346 60.6464 22.9338V18.2832C60.6464 17.8894 60.7685 17.7634 61.1583 17.7634C61.5482 17.7634 61.7057 17.8658 61.686 18.2714V19.9371C61.7805 20.0001 61.816 20.0356 61.8514 20.0395C63.3635 20.1694 63.3635 20.1694 63.3635 18.6494C63.3635 18.4171 63.2926 18.1139 63.4108 17.9721C63.6004 17.8305 63.8377 17.7684 64.0723 17.7989C64.1499 17.8251 64.2191 17.8713 64.273 17.9328C64.3269 17.9944 64.3637 18.069 64.3795 18.1493V23.5087ZM36.6454 23.5127L37.87 19.3307C37.9726 18.9189 38.1042 18.5149 38.2638 18.1218C38.3153 18.032 38.387 17.9555 38.473 17.8981C38.5591 17.8407 38.6574 17.804 38.76 17.791C38.8644 17.7981 38.9655 17.8309 39.0541 17.8866C39.1427 17.9423 39.2162 18.019 39.268 18.11L40.8707 23.4575C40.0437 23.7056 39.9413 23.678 39.776 22.9535C39.6814 22.5361 39.4846 22.3864 39.075 22.4337C38.8432 22.4554 38.6099 22.4554 38.378 22.4337C38.0197 22.3982 37.8543 22.5361 37.7637 22.8984C37.5747 23.6268 37.5511 23.6229 36.6454 23.5127ZM38.823 19.3661H38.6694L38.0906 21.7879H39.4176L38.823 19.3661ZM69.9948 23.4969C69.2899 23.7135 68.908 23.552 68.845 22.8708C68.8135 22.5361 68.6166 22.4022 68.2819 22.4337C68.0278 22.4573 67.772 22.4573 67.5179 22.4337C67.1241 22.3982 66.9076 22.5124 66.8721 22.9259C66.817 23.6072 66.4035 23.6899 65.7695 23.493L66.4626 21.1303L67.3604 18.1454C67.405 18.052 67.4705 17.9701 67.5517 17.9059C67.6329 17.8417 67.7278 17.797 67.829 17.7752C67.933 17.7756 68.0354 17.8012 68.1273 17.8499C68.2193 17.8986 68.298 17.969 68.3567 18.0548L69.9948 23.4969ZM68.5457 21.8076L67.9275 19.3386H67.7975L67.199 21.8076H68.5457ZM49.3291 23.5757V18.1887C49.3557 18.0949 49.4058 18.0095 49.4747 17.9406C49.5437 17.8716 49.6291 17.8215 49.7229 17.7949C50.401 17.7575 51.0807 17.7575 51.7588 17.7949C51.9045 17.7949 52.0344 18.0076 52.1722 18.1257C52.0344 18.2163 51.9045 18.3777 51.7784 18.3895C51.361 18.425 50.9357 18.3895 50.4002 18.3895L50.4199 20.0001C50.4199 20.1064 50.6522 20.26 50.794 20.2836C51.0657 20.3309 51.3532 20.26 51.617 20.3151C51.7745 20.3427 51.9045 20.516 52.0462 20.6262C51.9202 20.7247 51.8021 20.8861 51.6524 20.9137C51.2586 20.9924 50.5144 20.9452 50.4711 21.0751C50.388 21.7056 50.3696 22.3429 50.416 22.9771H51.8218C51.9517 22.9771 52.0698 23.1661 52.1959 23.2685C52.0895 23.367 51.9832 23.5442 51.8729 23.5481L49.3291 23.5757ZM55.287 18.3895V23.5087H54.2317V21.7879V19.0314C54.2514 18.5234 54.0978 18.3462 53.5859 18.3738C53.4048 18.3738 53.1921 18.1887 53.0228 18.0863C53.2079 17.98 53.389 17.7871 53.582 17.7792H56.0667C56.2242 17.7792 56.3739 17.9603 56.5275 18.0548C56.385 18.1885 56.2213 18.2977 56.0431 18.3777C55.7923 18.4094 55.5387 18.4134 55.287 18.3895Z" fill="#75767A"/>
<path d="M42.2371 23.5835V17.85C43.2451 17.665 43.2688 17.6846 43.2688 18.6061V22.3037C43.2688 22.7999 43.3948 23.0165 43.9106 22.9535C44.1846 22.9101 44.4636 22.9101 44.7376 22.9535C44.8715 22.981 44.9699 23.17 45.0841 23.2842C44.9778 23.3827 44.8754 23.5678 44.7651 23.5717L42.2371 23.5835Z" fill="#7D7D80"/>
<path d="M74.9171 5.17038C76 5.02468 76 5.02468 76 6.0052V12.5381C75.0628 12.8531 74.9132 12.7546 74.9132 11.8647C74.9132 9.87214 74.9132 7.87961 74.9132 5.88707L74.9171 5.17038Z" fill="#68696C"/>
<path d="M24.1507 30.1677L21.4769 30.0575L21.2485 29.4353L22.8237 29.6479L22.7764 29.7228C23.0776 29.6027 23.3946 29.527 23.7176 29.4983L30.6639 30.0181C31.1644 30.0941 31.6396 30.2885 32.05 30.5851C32.4871 30.8726 32.4438 31.2743 31.9437 31.4397C31.0436 31.7436 30.1222 31.9805 29.1872 32.1485C28.3121 32.2817 27.4297 32.3619 26.5449 32.3887C26.325 32.3547 26.1137 32.2785 25.9227 32.1642V31.8059H26.6827L27.0765 31.9279C27.4427 32.0658 27.8129 32.2627 28.1003 31.8019H28.4941H29.1321H29.3841C29.7605 31.781 30.1331 31.7162 30.4945 31.609C30.7855 31.4356 31.0506 31.2222 31.2821 30.975C31.0301 30.7781 30.8017 30.4591 30.5221 30.404C29.4274 30.1887 28.3261 30.022 27.2183 29.9039C26.5362 29.8685 25.8527 29.8685 25.1706 29.9039L24.7768 30.1677V30.1953L24.5012 30.1599L24.1507 30.1677Z" fill="#F9FAFB"/>
<path d="M58.8193 23.4932C57.823 23.69 57.7954 23.6704 57.7915 22.7371V18.3346C57.7915 17.9408 57.8427 17.7518 58.3034 17.7479C58.7641 17.7439 58.8705 17.9251 58.8665 18.3504C58.8429 19.9019 58.8665 21.4573 58.8665 23.0088C58.8508 23.1742 58.8272 23.3396 58.8193 23.4932Z" fill="#75767A"/>
<path d="M66.0018 4.72539C65.7262 5.11918 66.4389 5.82799 65.5293 5.93824C64.6196 6.0485 64.5212 5.9855 64.533 5.23731C64.5448 4.59151 64.5803 4.57182 66.0018 4.72539ZM61.9695 5.85949V4.70964H63.2335C63.5407 5.91068 63.2965 6.13907 61.9695 5.85949Z" fill="#68696C"/>
<path d="M47.0806 21.2761C47.3125 21.2564 47.5457 21.2564 47.7776 21.2761C47.8879 21.2761 47.9785 21.4297 48.0769 21.5163C47.9863 21.6108 47.8997 21.7802 47.8052 21.788C47.3185 21.8136 46.8309 21.8136 46.3443 21.788C46.2419 21.788 46.1513 21.6305 46.0529 21.5478C46.1631 21.4494 46.2616 21.2958 46.3836 21.2722C46.6156 21.2518 46.8489 21.2531 47.0806 21.2761Z" fill="#7D7D80"/>
<path d="M17.7833 29.9984L16.8776 30.0692L16.3302 29.6164C17.1571 29.3092 17.7203 29.4471 17.7833 29.9984Z" fill="#F9FAFB"/>
<path d="M25.9542 31.8137V32.1721H25.4383L25.3044 31.8177L25.5565 31.7822L25.9542 31.8137Z" fill="#E9F6F5"/>
<path d="M6.01702 1.7916L5.26489 2.53979C5.26383 2.4409 5.28259 2.34281 5.32006 2.2513C5.35753 2.15978 5.41295 2.0767 5.48306 2.00696C5.55317 1.93722 5.63654 1.88224 5.72824 1.84525C5.81995 1.80826 5.91814 1.79002 6.01702 1.7916ZM19.4056 29.5454L19.5119 29.5926C19.5119 29.6281 19.4883 29.6832 19.4607 29.6911C19.4332 29.699 19.3938 29.6675 19.3584 29.6517L19.4056 29.5454ZM20.0435 29.5454L20.1499 29.5926C20.1499 29.6281 20.1262 29.6832 20.1026 29.6911C20.079 29.699 20.0317 29.6675 19.9963 29.6517L20.0435 29.5454Z" fill="#F9FAFB"/>
<path d="M9.86817 30.5143L8.95066 31.0892L10.0572 31.357L9.87211 31.7507H8.3403C8.24973 31.1404 7.89926 31.357 7.55273 31.5105H6.9148C6.64309 31.0419 6.62734 30.6718 7.26921 30.5182C7.37947 30.4906 7.46216 30.3607 7.55667 30.2819L8.06465 30.2583L8.45843 30.3764L9.86817 30.5143Z" fill="#A7A6A6"/>
<path d="M5.51293 31.9199C5.0418 31.9974 4.56488 32.0343 4.08744 32.0302C3.20657 31.948 2.331 31.8166 1.46485 31.6364C1.13509 31.5183 0.822553 31.3568 0.535522 31.156C0.929305 30.3684 2.78402 29.8329 3.72516 30.1282V30.3881L2.70526 30.5181C2.53989 30.4883 2.37054 30.4883 2.20516 30.5181C1.98377 30.6302 1.77291 30.762 1.57511 30.9119C1.7405 31.0772 1.87438 31.3293 2.06734 31.3883C2.52993 31.5039 2.99951 31.5894 3.47314 31.6443L5.51293 31.9199Z" fill="#E9F6F5"/>
<path d="M2.72105 30.5182L3.74094 30.3882L4.63483 30.2583H5.39483H5.65866L5.09949 30.5024C4.62302 30.6757 4.00084 30.4394 3.52436 31.1286L4.72934 31.4003L6.15483 31.7744L5.89493 31.9161H5.51296L3.47317 31.6562L2.46509 31.0931L2.72105 30.5182Z" fill="#D4D4D4"/>
<path d="M12.6798 30.2503C11.9276 30.8607 11.1046 30.6953 10.2501 30.5141V30.1519L12.6798 30.2503Z" fill="#A7A6A6"/>
<path d="M7.57243 30.2936C7.47792 30.3723 7.39523 30.5023 7.28497 30.5298C6.6431 30.6834 6.65886 31.0536 6.93057 31.5222L7.18259 31.786H7.06839H6.80456L6.55647 31.7584L5.81616 31.0299L6.17057 30.3881H6.42259L6.93057 30.2542L7.44248 30.1282C7.48052 30.1301 7.51864 30.1301 7.55668 30.1282L7.57243 30.2936ZM10.2383 30.1518V30.5141H9.84456L8.43875 30.3881V30.1321L10.2383 30.1518Z" fill="#B5B5B5"/>
<path d="M7.44243 30.1323L6.93052 30.2583H6.42254V30.1165C6.71394 29.8291 7.01321 29.5731 7.44243 29.8881V30.1323ZM6.55642 31.7665L6.80451 31.7941V32.0461C6.47767 32.2115 6.15477 32.3454 5.90668 31.924L6.16658 31.7822L6.55642 31.7665ZM5.39477 30.2544H4.63477V30.1165C4.82772 29.6873 5.11518 29.8566 5.3987 29.9984L5.39477 30.2544Z" fill="#E9F6F5"/>
<path d="M7.56848 31.5341C7.89926 31.3805 8.24972 31.164 8.35605 31.7743H7.56848V31.5341Z" fill="#B5B5B5"/>
<path d="M14.3337 31.9199H14.7275L14.9795 32.3137H14.3337V31.9199Z" fill="#E9F6F5"/>
<path d="M4.63485 30.1203V30.2582L3.74097 30.3881V30.1282L4.63485 30.1203ZM5.39485 30.2542V30.0022L6.03672 30.1243V30.2621H5.64294L5.39485 30.2542Z" fill="#E1E2E1"/>
<path d="M7.56853 31.5342V31.7941H7.17475L6.92273 31.5303L7.56853 31.5342Z" fill="#C4C4C4"/>
<path d="M7.57246 30.2936V30.144L7.71422 29.9983L8.10801 30.1085V30.27L7.57246 30.2936ZM6.04065 30.2621V30.1243H6.43443V30.4118H6.18241L6.04065 30.2621Z" fill="#D4D4D4"/>
<path d="M8.08044 30.2701V30.1086L8.47423 30.1323V30.3882L8.08044 30.2701Z" fill="#C4C4C4"/>
<path d="M6.80457 32.0461V31.7941H7.0684L6.80457 32.0461ZM7.69845 29.9984L7.55669 30.1441C7.51865 30.1461 7.48053 30.1461 7.44249 30.1441V29.8882L7.69845 29.9984Z" fill="#E1E2E1"/>
<path d="M25.5565 31.7821L25.3045 31.8175H25.0604L24.5366 31.6325L24.9304 31.3883L25.6668 31.0418L25.1785 30.4984V30.2818V30.1479V30.1243L25.5447 30.1518C25.6156 30.266 25.6786 30.4629 25.7613 30.4747C26.5213 30.5811 26.5488 30.9709 26.1905 31.5143L25.5565 31.7821Z" fill="#B5B5B5"/>
<path d="M23.1387 31.8453L24.5445 31.7783V31.924L23.1387 31.8453Z" fill="#E9F6F5"/>
<path d="M24.5248 31.9238V31.7781V31.6482L25.0485 31.7978L24.5248 31.9238Z" fill="#D4D4D4"/>
<path d="M8.09221 4.62296L10.6321 2.56348C11.8843 3.02814 13.1641 3.42586 14.373 3.98503C15.247 4.43854 16.0809 4.96548 16.8657 5.56016C17.3028 5.86337 17.6532 6.22171 18.2754 6.07995C18.4881 6.0327 18.7952 6.41073 19.063 6.59581L18.7834 6.6155H15.8773L14.8535 6.65488H13.7036H9.23812C7.71812 6.65488 7.71812 6.65487 7.69449 8.19063C7.61573 8.1355 7.46216 8.06462 7.47003 8.0213C7.58423 7.23374 7.07625 7.25342 6.54858 7.29674V7.17073L7.88744 5.13881C7.97143 4.97353 8.03997 4.80084 8.09221 4.62296ZM18.6731 11.3724C20.2207 11.4275 20.2246 11.4275 20.2246 12.9475V16.4916C20.2246 16.9602 20.1065 17.1492 19.6222 17.1098C19.2623 17.0973 18.902 17.1065 18.5432 17.1374H17.0193L16.3774 17.0862L16.5034 15.7591C16.6176 14.5778 16.9759 13.3571 16.0545 12.1403L16.972 11.7465C17.1216 11.6543 17.2626 11.5489 17.3934 11.4315L18.6731 11.3724Z" fill="#88B2DF"/>
<path d="M17.0193 17.1532H18.5511C18.5905 18.7284 18.6325 20.3166 18.6771 21.918L17.2713 21.9692L17.1453 21.9219L17.0193 17.1532ZM18.6732 11.3725L17.3934 11.4316L17.2674 11.3764V9.80132L17.1414 6.78101H18.6732L18.7913 9.695C18.7992 10.2502 18.7165 10.8133 18.6732 11.3725Z" fill="#1C76BC"/>
<path d="M18.6731 6.77299H17.1413L15.8694 6.61548H18.7755L18.6731 6.77299Z" fill="#83AFDD"/>
<path d="M20.2049 28.0886L20.0868 25.4817C20.1023 25.2389 20.1445 24.9985 20.2128 24.765L20.2049 28.0886ZM20.2128 24.5209L20.0789 23.6743L19.949 21.9771C20.0435 22.1543 20.2049 22.3315 20.2128 22.5165V24.5209Z" fill="#88B2DF"/>
<path d="M17.2673 11.3765L17.3933 11.4316C17.2626 11.549 17.1216 11.6545 16.972 11.7466C16.6845 11.8963 16.3774 12.0144 16.0545 12.1404C16.9759 13.3572 16.6176 14.57 16.5034 15.7593L16.3774 17.0863L15.6174 17.1296H11.1479H9.74215H8.16702C7.80474 17.1296 7.69054 17.2635 7.69448 17.61V20.3232L7.21012 21.4494L6.81634 21.4731H6.69821L5.72557 19.2718C4.92915 17.1867 4.63637 14.9429 4.87106 12.7232C5.07584 10.8268 5.64973 8.9887 6.56038 7.31264C7.08805 7.24176 7.58422 7.21813 7.48183 8.0057C7.48183 8.04901 7.62753 8.11989 7.70629 8.17502V10.8252C7.70629 11.219 7.80867 11.404 8.2379 11.3804C8.738 11.3489 9.24598 11.3804 9.75002 11.3804H17.2673V11.3765Z" fill="#79D2F7"/>
<path d="M6.5486 7.28501C5.63796 8.96107 5.06406 10.7991 4.85928 12.6956C4.6246 14.9153 4.91738 17.159 5.71379 19.2442C5.98156 19.9963 6.35959 20.713 6.68643 21.4454C5.75316 21.7801 5.1113 21.1895 4.46943 20.6933C2.98506 19.4765 1.92145 17.8232 1.42943 15.9679C0.988398 14.4991 1.35068 13.1209 1.82322 11.7111C2.33982 10.2459 3.27664 8.96528 4.51669 8.02926C5.07192 7.58035 5.86736 7.43465 6.55254 7.15112C6.54467 7.21807 6.5486 7.24169 6.5486 7.28501Z" fill="#51A1D9"/>
<path d="M6.80457 21.4533L7.19835 21.4297L7.6827 20.3035C7.70633 21.981 7.70633 21.981 9.41928 21.9613H9.73037H13.4319L15.5899 21.8865L17.1335 21.9534L17.2595 22.0007C17.1397 22.1849 16.9953 22.3518 16.8303 22.4968L15.2276 23.4498C15.011 23.5797 14.8338 23.7451 14.6054 23.879L13.3453 24.6666C13.2621 24.7272 13.1667 24.7689 13.0657 24.7886L11.5378 24.9304C11.0259 24.9659 10.829 25.3754 10.7503 25.8361L9.10425 24.6548L6.94633 21.8589C6.87857 21.7318 6.83076 21.595 6.80457 21.4533Z" fill="#88B2DF"/>
<path d="M25.1745 30.5142L25.6628 31.0576L24.9264 31.4041C24.9047 31.2078 24.9047 31.0097 24.9264 30.8134C24.9461 30.7032 25.0878 30.6126 25.1745 30.5142Z" fill="#A7A6A6"/>
<path d="M24.1506 30.1678L24.5444 30.1323V30.3922L24.1506 30.5143V30.3804V30.1678Z" fill="#B5B5B5"/>
<path d="M24.1507 30.3804V30.5143L23.8829 30.6009L23.8278 30.5064L24.1507 30.3804Z" fill="#A7A6A6"/>
<path d="M24.8083 30.1401L25.2021 29.8762V30.1637H25.0446L24.8083 30.1401Z" fill="#E1E2E1"/>
<path d="M24.5444 30.3922V30.1323L24.8201 30.1678L24.5444 30.3922ZM25.0327 30.1756H25.1902V30.3095L25.0327 30.1756Z" fill="#C4C4C4"/>
<path d="M25.202 30.14V29.8762C25.8841 29.8407 26.5676 29.8407 27.2497 29.8762C28.3549 29.9943 29.4562 30.161 30.5535 30.3763C30.8331 30.4314 31.0615 30.7701 31.3135 30.9473C31.082 31.1945 30.8169 31.4079 30.526 31.5813C30.1646 31.6885 29.7919 31.7533 29.4155 31.7742L29.9944 31.3804C30.1794 31.2269 30.3409 31.1284 30.3881 30.963C30.4157 30.8725 30.2149 30.6204 30.0731 30.5693C29.6045 30.4275 29.1202 30.3409 28.6397 30.2345H28.1239H27.8876L26.0841 30.1046H25.5682L25.202 30.14Z" fill="#E9F6F5"/>
<path d="M28.624 30.2622L30.0574 30.5969C30.1992 30.6402 30.4 30.8923 30.3724 30.9907C30.3173 31.1561 30.1243 31.29 29.9786 31.4081C29.8329 31.5263 29.5849 31.668 29.3998 31.8019H29.1399L28.7461 31.5538C28.8383 31.5169 28.9278 31.4735 29.0139 31.4239L29.6242 30.9986L29.0375 30.5379C28.9154 30.4237 28.7658 30.3488 28.624 30.2622Z" fill="#E1E2E1"/>
<path d="M28.12 31.794C27.8326 32.2547 27.4624 32.0578 27.0962 31.92V31.668H27.2183H28.0058L28.12 31.794Z" fill="#E9F6F5"/>
<path d="M25.5565 31.7823L26.1984 31.5303L26.7142 31.6563V31.798H25.9542L25.5565 31.7823Z" fill="#D4D4D4"/>
<path d="M28.7461 31.5381L29.1399 31.7862H28.502V31.5342L28.7461 31.5381Z" fill="#E9F6F5"/>
<path d="M28.5058 31.5419V31.7939H28.1121L27.9821 31.664V31.5301H28.3759L28.5058 31.5419ZM26.7141 31.7978V31.6561H27.1079V31.9081L26.7141 31.7978ZM2.72098 30.5181L2.48077 31.0969L3.48885 31.66C3.01522 31.6051 2.54564 31.5196 2.08305 31.4041C1.89009 31.345 1.75621 31.093 1.59082 30.9276C1.78862 30.7777 1.99948 30.6459 2.22087 30.5338C2.38531 30.4989 2.55466 30.4935 2.72098 30.5181Z" fill="#E1E2E1"/>
<path d="M6.04062 30.2621L6.17057 30.3921L5.81616 31.0379L6.55647 31.7664H6.16269L4.7372 31.3923L3.53223 31.1206C3.99689 30.4315 4.61907 30.6677 5.10736 30.4945C5.30031 30.4275 5.48145 30.333 5.66653 30.2503L6.04062 30.2621ZM6.42259 30.3921V30.2464H6.93057L6.42259 30.3921ZM27.1001 31.6679H26.7063L26.1905 31.5419C26.5291 30.9985 26.5212 30.6087 25.7612 30.5023C25.6785 30.5023 25.6155 30.2936 25.5447 30.1794H26.0605C26.3755 30.4708 27.4742 30.6244 27.8168 30.4236C27.8443 30.4236 27.8483 30.3488 27.864 30.3094H28.1003L28.8446 30.9473L28.3523 31.5301H27.9585C27.6711 31.3962 27.3797 31.219 27.171 31.6601L27.1001 31.6679Z" fill="#C4C4C4"/>
<path d="M17.2673 11.3763H14.8456V6.65095L15.8694 6.61157L17.1413 6.76909L17.2673 9.7894V11.3763Z" fill="#416DA3"/>
<path d="M9.73827 11.3723H8.22614C7.79692 11.396 7.68272 11.2188 7.69454 10.8171V8.16696C7.71816 6.6312 7.71816 6.62727 9.23816 6.6312H9.73827V11.3723Z" fill="#6B87BA"/>
<path d="M9.73828 11.3724V6.64697H11.1441V8.61588V11.3724H9.73828Z" fill="#4B93C9"/>
<path d="M11.144 11.3724V8.61588V6.64697H12.5459C12.5065 8.2221 12.4645 9.79723 12.4199 11.3724H11.144Z" fill="#498BC2"/>
<path d="M12.4199 11.3724C12.4619 9.79723 12.5039 8.2221 12.5459 6.64697H13.6958V11.3724H12.4199Z" fill="#4882B8"/>
<path d="M13.6958 11.3724V6.64697H14.8456V11.3724H13.6958Z" fill="#467AB2"/>
<path d="M17.1453 21.9257L15.6017 21.8588C15.6713 21.3363 15.7134 20.8106 15.7277 20.2837L15.6174 17.1334L16.3774 17.0901L17.0193 17.1413C17.0639 18.74 17.1059 20.3349 17.1453 21.9257Z" fill="#416DA3"/>
<path d="M15.6174 17.1453L15.7277 20.2955C15.7134 20.8224 15.6713 21.3482 15.6017 21.8707L13.4437 21.9455V17.1453H15.6174Z" fill="#467AB2"/>
<path d="M9.74213 21.9455H9.43104C7.71808 21.9455 7.71808 21.9455 7.69446 20.2877V17.5746C7.69446 17.228 7.80472 17.0784 8.167 17.0941H9.74213C9.80476 17.5499 9.84419 18.0086 9.86026 18.4684L9.74213 21.9455Z" fill="#6B87BA"/>
<path d="M9.74219 21.9456L9.86032 18.5039C9.84425 18.0441 9.80482 17.5854 9.74219 17.1296H11.148L11.2622 18.5788L11.148 21.9377L9.74219 21.9456Z" fill="#4B93C9"/>
<path d="M11.1479 21.9416L11.2621 18.5827C11.2621 18.1022 11.1873 17.6179 11.1479 17.1335H12.4238V21.9377L11.1479 21.9416Z" fill="#498BC2"/>
<path d="M12.4238 21.9377V17.1375H13.4437V21.9337L12.4238 21.9377Z" fill="#4882B8"/>
<path d="M28.3523 31.5301L28.8367 30.9198L28.0924 30.2818H28.6083L29.0296 30.5417L29.6163 31.0025L29.006 31.4277C28.9199 31.4773 28.8304 31.5208 28.7382 31.5577H28.4901L28.3523 31.5301ZM27.8719 30.2779C27.8719 30.3173 27.8719 30.3763 27.8246 30.3921C27.482 30.5929 26.3834 30.4393 26.0684 30.1479L27.8719 30.2779ZM27.2221 31.6601C27.4112 31.219 27.7026 31.3962 28.0097 31.5301V31.664L27.2221 31.6601Z" fill="#D4D4D4"/>
</g>
<defs>
<clipPath id="clip0_1_2368">
<rect width="76" height="32.6839" fill="white"/>
</clipPath>
</defs>
</svg>
