<svg width="76" height="16" viewBox="0 0 76 16" fill="none" xmlns="http://www.w3.org/2000/svg">
<g clip-path="url(#clip0_1_2179)">
<path d="M17.7438 0.661474L17.7753 12.4041C17.5505 11.985 17.2517 11.6101 16.8933 11.2975C15.9871 10.5793 14.8506 10.2154 13.6958 10.2737C12.537 10.2229 11.3988 10.5921 10.4904 11.3133C9.9313 11.7993 9.51024 12.4241 9.26964 13.1247C9.04359 12.4279 8.6358 11.8039 8.08829 11.3172C7.18319 10.5999 6.04819 10.236 4.89472 10.2934C3.73593 10.2426 2.59774 10.6118 1.68933 11.333C1.30764 11.6655 0.991167 12.0661 0.756062 12.5143L0.72456 0.700853L17.7438 0.661474ZM0 0.114117L0.0393782 15.1605H0.756062C0.756062 14.9361 0.728498 12.8845 2.12643 11.6953C2.90932 11.0794 3.88791 10.7662 4.8829 10.8132C5.87692 10.7538 6.85805 11.0621 7.63938 11.6795C8.80104 12.6758 8.94674 14.5896 8.96249 15.1409H9.5886C9.61223 14.5856 9.78549 12.6718 10.955 11.6756C11.7378 11.0594 12.7165 10.7462 13.7115 10.7935C14.7055 10.7341 15.6867 11.0425 16.468 11.6598C17.9013 12.8884 17.7911 15.0975 17.7911 15.1212H18.5078L18.4645 0.0708008L0 0.114117ZM13.6682 11.3763C12.8356 11.3396 12.0186 11.61 11.3724 12.1363C10.1084 13.231 10.2383 15.1212 10.2383 15.1369H10.8487C10.8487 15.066 10.766 13.3846 11.8174 12.4789C12.3405 12.0597 12.9985 11.8455 13.6682 11.8764C14.3428 11.8442 15.0065 12.0552 15.5387 12.471C16.6334 13.3925 16.5743 15.1054 16.5743 15.1212H17.1886C17.1886 14.9282 17.2122 13.1523 15.9797 12.1245C15.3258 11.6024 14.504 11.3364 13.6682 11.3763ZM13.6367 12.4238C13.082 12.3988 12.5382 12.5829 12.1127 12.9396C11.2661 13.6878 11.3527 14.9912 11.3685 15.133H11.9631C11.9631 15.133 11.8528 13.8886 12.5538 13.2704C12.8577 13.0175 13.2457 12.8882 13.6406 12.9081C14.036 12.8884 14.4247 13.0161 14.7314 13.2664C15.393 13.8414 15.3575 14.9912 15.3575 15.1251H15.9561C15.9561 14.9794 16.0388 13.676 15.1685 12.9317C14.7396 12.5793 14.1952 12.3983 13.6406 12.4238M4.82777 11.396C3.99217 11.3633 3.17282 11.6331 2.52021 12.156C1.25223 13.2349 1.33886 15.0818 1.33886 15.1605H1.95316C1.95316 14.9873 1.95316 13.3846 2.97699 12.5064C3.50407 12.0857 4.16581 11.8702 4.83959 11.9C5.50908 11.8648 6.16847 12.0748 6.6943 12.4907C7.75358 13.3925 7.68269 15.0739 7.68269 15.1448H8.26943C8.26943 15.07 8.37969 13.231 7.11959 12.1481C6.4686 11.6291 5.65168 11.3633 4.8199 11.3999" fill="#004987"/>
<path d="M4.86315 12.4434C4.30831 12.4219 3.76524 12.6071 3.33921 12.9632C2.45714 13.7508 2.57528 15.1014 2.57921 15.1566H3.17383C3.17383 15.1093 3.09113 13.9004 3.77631 13.294C4.08085 13.0425 4.46876 12.9146 4.86315 12.9356C5.25739 12.9107 5.64622 13.0375 5.94999 13.29C6.61155 13.865 6.56429 15.0187 6.55248 15.1487H7.15103C7.15103 15.0936 7.26522 13.7271 6.39103 12.9593C5.96321 12.6044 5.41841 12.4219 4.86315 12.4473M27.5411 15.0463C27.6366 15.0201 27.7211 14.9638 27.7821 14.8858C27.8431 14.8078 27.8773 14.7122 27.8797 14.6131V9.7775C27.8807 9.7032 27.8899 9.62923 27.9073 9.55698L27.7892 9.7775L24.6743 15.1881L21.5241 9.94683L21.4296 9.68693V9.94683V14.6289C21.4296 14.8415 21.5713 14.9754 21.7919 15.0581H20.3664C20.4599 15.0291 20.5422 14.9719 20.6021 14.8944C20.662 14.8169 20.6966 14.7228 20.7011 14.625V8.95449C20.7011 8.76942 20.4924 8.60009 20.2837 8.52133H22.5676L25.1744 12.9278L27.671 8.50952H29.8486C29.7515 8.5327 29.6651 8.58818 29.6036 8.66687C29.542 8.74556 29.509 8.8428 29.51 8.94268V14.6131C29.5124 14.7122 29.5466 14.8078 29.6076 14.8858C29.6686 14.9638 29.7531 15.0201 29.8486 15.0463H27.5411ZM36.5233 15.0266H30.9434C31.1599 14.9282 31.3371 14.8219 31.3371 14.5935V8.92299C31.3371 8.69854 31.156 8.56465 30.9434 8.48983H36.161L36.2043 9.33646C36.0686 9.21093 35.908 9.11523 35.733 9.05554C35.558 8.99586 35.3725 8.97351 35.1883 8.98993H32.9832V11.1991H34.9521C35.0445 11.1916 35.1342 11.1637 35.2145 11.1174C35.2949 11.0711 35.3639 11.0075 35.4167 10.9313V11.9315C35.367 11.8517 35.2989 11.785 35.218 11.737C35.1371 11.689 35.0459 11.6612 34.9521 11.6558H32.9832V14.4832C33.243 14.5108 34.0346 14.5383 34.6725 14.5265C35.7987 14.495 36.3185 14.5265 36.795 13.9122L36.5233 15.0266ZM40.5595 15.0148H37.2242C37.3182 14.9859 37.4011 14.9289 37.4616 14.8515C37.5222 14.774 37.5575 14.6798 37.5628 14.5816V8.91118C37.5611 8.812 37.5271 8.71609 37.466 8.63794C37.4049 8.55979 37.32 8.50366 37.2242 8.47802H40.6777C44.9463 8.47802 45.7968 10.7068 45.7968 11.6283C45.7968 13.3019 44.0642 14.9991 40.5595 15.0069M40.3902 8.95056C40.0752 8.95056 39.39 8.95056 39.2089 8.97418V14.5108H40.2484C43.1821 14.5108 43.9933 13.042 43.9894 11.6401C43.9894 10.4863 43.0758 8.95056 40.3902 8.95449M55.0901 12.5576V13.9792C55.0924 14.0564 55.1124 14.1321 55.1486 14.2004C55.1848 14.2686 55.2362 14.3277 55.2988 14.3729C54.0231 14.8243 52.6825 15.065 51.3295 15.0857C48.7463 15.0857 46.4584 13.798 46.4505 11.7503C46.4505 10.0689 48.1438 8.35201 51.4673 8.34413C52.5068 8.35241 53.5384 8.52655 54.5231 8.85999L54.6176 10.3879C53.9481 9.06082 52.3021 8.85999 51.6918 8.85999C49.4866 8.85999 48.2186 10.0689 48.2225 11.6165C48.2225 12.9317 49.1125 14.5541 51.7981 14.5462C52.3644 14.5572 52.9266 14.4485 53.448 14.2272V12.5615C53.4452 12.4612 53.4104 12.3643 53.3489 12.285C53.2873 12.2057 53.202 12.1481 53.1054 12.1205H55.4287C55.3343 12.1505 55.2514 12.209 55.1915 12.288C55.1315 12.3669 55.0975 12.4625 55.094 12.5615M63.0366 8.85999L63.0051 12.7978C63.0051 14.4359 61.6978 15.0739 59.9336 15.0778C58.4136 15.0778 56.4801 14.5856 56.4762 12.8844V8.88361C56.4762 8.6631 56.2675 8.52921 56.0627 8.45439H58.5514C58.3427 8.53315 58.1577 8.66703 58.1577 8.88755V12.9159C58.1577 13.5893 58.4727 14.5383 60.162 14.5344C61.7056 14.5344 62.2609 13.7823 62.2569 12.8293L62.2176 8.85999C62.2138 8.75961 62.1776 8.66314 62.1144 8.58505C62.0513 8.50696 61.9645 8.45144 61.8671 8.42683H63.3753C63.2798 8.45304 63.1953 8.50933 63.1343 8.58735C63.0733 8.66537 63.039 8.76098 63.0366 8.85999ZM69.7624 14.9439H64.3007C64.4 14.9196 64.4888 14.8639 64.554 14.7852C64.6192 14.7065 64.6574 14.6089 64.6629 14.5068V8.83636C64.6595 8.73393 64.6214 8.63571 64.5549 8.55774C64.4883 8.47978 64.3973 8.42668 64.2967 8.40714H66.6594C66.563 8.43108 66.4775 8.48689 66.4167 8.5655C66.356 8.64412 66.3236 8.74095 66.3247 8.8403V14.3966L67.766 14.4438C69.2072 14.4123 69.66 14.3887 70.0617 13.8295L69.7624 14.9439ZM74.8737 8.91512C74.4799 8.91512 72.3693 8.88361 72.3693 8.88361V11.0927H74.3933C74.4891 11.0884 74.5825 11.0615 74.666 11.0143C74.7495 10.9671 74.8206 10.9009 74.8737 10.821V11.8409C74.8231 11.7585 74.7525 11.6901 74.6686 11.6419C74.5847 11.5938 74.49 11.5674 74.3933 11.5653H72.3771V14.5068C72.3771 14.7352 72.5071 14.8415 72.7709 14.936H70.357C70.6012 14.8376 70.7508 14.7313 70.7508 14.5029V8.83242C70.7508 8.60797 70.5933 8.47408 70.357 8.39926H75.87L75.9369 9.32859C75.7794 9.10019 75.5077 8.93481 74.8973 8.93481M30.4944 5.8633C30.5108 5.50162 30.6077 5.14815 30.778 4.82865C30.9483 4.50915 31.1878 4.23168 31.4789 4.01646C32.0326 3.63987 32.6919 3.44952 33.3612 3.47304V5.85543L30.4944 5.8633ZM49.963 5.81605H46.3284C46.0085 5.76079 45.717 5.59795 45.5022 5.35449C45.2874 5.11103 45.1621 4.80153 45.1471 4.47719C45.1649 4.23667 45.2618 4.00882 45.4229 3.82927C45.5839 3.64972 45.7999 3.52861 46.037 3.48486C46.8582 3.41795 47.6823 3.39297 48.5061 3.41004H49.9355L50.1914 2.3862C49.7425 2.73273 49.9906 2.66973 48.5376 2.69729H46.8797C46.3742 2.69422 45.8691 2.72448 45.3676 2.78786C44.8202 2.88237 43.6665 3.32341 43.5601 4.29999C43.5477 4.60255 43.6167 4.90291 43.7601 5.16962C43.9035 5.43634 44.116 5.6596 44.3753 5.81605H40.1382V0.377913C40.1382 0.165271 40.2799 0.0668252 40.532 -0.0158691H38.0984C38.3465 0.0747008 38.4922 0.173146 38.4922 0.377913V5.81605H34.8457V3.0832C34.8457 2.86662 34.9875 2.76817 35.2395 2.68942H34.0582C32.2192 2.68942 31.5498 2.94144 30.9079 3.33916C30.4884 3.61788 30.1368 3.98728 29.8792 4.42008C29.6216 4.85287 29.4644 5.33802 29.4194 5.83968H23.556C23.2145 5.87001 22.8705 5.82566 22.5479 5.70973C22.4527 5.66083 22.3709 5.58929 22.3098 5.50141C22.2487 5.41352 22.2101 5.31197 22.1975 5.20569V3.18164C22.1975 2.96506 22.3392 2.86662 22.5912 2.78786H20.1577C20.4057 2.87449 20.5514 2.97294 20.5514 3.18164V4.91429C20.5621 5.16466 20.6323 5.40889 20.7562 5.62668C20.8802 5.84447 21.0543 6.02954 21.2642 6.16651C21.6026 6.38906 21.9909 6.52435 22.3943 6.5603C22.6936 6.59968 23.4497 6.60361 23.4497 6.60361L49.1637 6.54455H51.991L52.2785 5.27657C51.8847 5.79636 51.4161 5.79636 49.963 5.82392M33.5226 1.7719C33.5226 2.08299 33.184 2.33501 32.7666 2.33501C32.3492 2.33501 32.0066 2.08693 32.0066 1.77584C32.0066 1.46475 32.3452 1.21667 32.7626 1.21667C33.18 1.21667 33.5226 1.46475 33.5226 1.7719Z" fill="#004987"/>
<path d="M48.6912 1.72474C48.6912 2.03189 48.3525 2.28391 47.9312 2.28785C47.5098 2.29179 47.1751 2.03583 47.1712 1.72868C47.1672 1.42153 47.5098 1.16951 47.9312 1.16557C48.3525 1.16163 48.6872 1.41759 48.6912 1.72474ZM66.6201 6.49739C67.0375 6.49739 67.3762 6.74941 67.3801 7.05656C67.384 7.36371 67.0414 7.61573 66.624 7.61967C66.2066 7.6236 65.864 7.36765 65.8601 7.06049C65.8561 6.75334 66.1987 6.49739 66.6201 6.49739ZM64.7733 6.49739C65.1946 6.49739 65.5332 6.74941 65.5332 7.05656C65.5332 7.36371 65.1985 7.61573 64.7772 7.61967C64.3558 7.6236 64.0172 7.37158 64.0172 7.06049C64.0172 6.74941 64.3558 6.50132 64.7733 6.49739ZM74.2004 5.76101H71.184V4.38277C71.184 3.17386 72.2236 3.0006 72.6843 3.0006C73.1451 3.0006 74.1965 3.16205 74.2004 4.35127V5.76101ZM75.6495 6.1548V4.57967C75.6495 3.09511 74.1098 2.42568 72.6843 2.42961C71.2588 2.43355 69.731 3.11086 69.7349 4.61904V5.77676H66.4271V3.02029C66.4271 2.80371 66.5728 2.7092 66.8209 2.62651H64.3873C64.6394 2.71707 64.7811 2.81158 64.7811 3.02029V5.77676H61.8474C61.5532 5.17062 61.2095 4.58979 60.8197 4.04018C59.9455 2.75645 58.3743 2.67376 57.8309 2.6777H57.1496C55.6966 2.6777 55.8935 2.70526 55.4918 2.37055L55.7556 3.33531H57.5473C57.86 3.30092 58.1763 3.34983 58.4639 3.47707C58.7516 3.60432 59.0006 3.80538 59.1855 4.05987C59.6043 4.58223 59.944 5.16338 60.1936 5.78464H54.9011C54.0821 5.7492 53.7198 5.64682 53.4166 5.24516L53.708 6.51314H53.7316H57.7994H63.9266C64.1724 6.31796 64.4771 6.21173 64.791 6.21173C65.1049 6.21173 65.4095 6.31796 65.6553 6.51314H65.7616C66.0081 6.31803 66.3136 6.2125 66.628 6.21386C66.9411 6.20841 67.2463 6.31291 67.4903 6.5092H74.6178H76C75.8149 6.42651 75.685 6.32806 75.6495 6.18236" fill="#004987"/>
</g>
<defs>
<clipPath id="clip0_1_2179">
<rect width="76" height="15.1882" fill="white"/>
</clipPath>
</defs>
</svg>
