<svg width="76" height="29" viewBox="0 0 76 29" fill="none" xmlns="http://www.w3.org/2000/svg">
<mask id="mask0_1_2029" style="mask-type:luminance" maskUnits="userSpaceOnUse" x="0" y="0" width="76" height="29">
<path d="M0 0H76V28.5689H0V0Z" fill="white"/>
</mask>
<g mask="url(#mask0_1_2029)">
<path d="M2.18551 18.0155L3.17784 19.6301C3.2716 19.7686 3.38731 19.891 3.52043 19.9923L3.34717 19.6812C3.22904 19.441 3.32748 19.4686 3.20541 19.2875C3.02427 19 3.16603 19.2048 3.10696 19.0827C3.0479 18.9606 2.99277 18.9094 2.87463 18.6889C2.7565 18.4684 2.68955 18.24 2.6108 18.1219C2.53204 18.0037 2.36665 17.8856 2.36665 17.9644C2.36665 18.0431 2.18551 18.0234 2.18551 18.0234M1.1538 16.1096C1.06066 15.9842 0.998578 15.8384 0.972663 15.6844C0.952974 15.4638 0.771834 14.9401 0.732456 14.755C0.693077 14.57 0.531627 14.2943 0.508 14.1132C0.484373 13.932 0.531627 13.5894 0.531627 13.4437C0.531627 13.298 0.32686 12.0301 0.346549 11.8292C0.366238 11.6284 0.346549 11.1992 0.346549 11.0771C0.346549 10.955 0.393803 10.5731 0.393803 10.4943V9.70674L0.472559 10.2344C0.515501 10.4074 0.541872 10.5841 0.551316 10.7621C0.551316 10.9038 0.63401 11.1244 0.657637 10.9629C0.681264 10.8015 0.657637 10.6558 0.693077 10.4549C0.728518 10.2541 0.775772 9.30115 0.795461 9.12001C0.825412 8.81952 0.879402 8.52192 0.956912 8.23006C1.07157 7.90451 1.20301 7.58512 1.35069 7.27317L1.50033 6.8085C1.46218 6.60405 1.49555 6.3927 1.59484 6.20995C1.77598 5.8713 1.81142 5.98944 2.01225 5.60353L2.4651 4.69389C2.55771 4.5154 2.69297 4.36255 2.85888 4.24892L3.18178 3.96539C3.31961 3.84726 3.31961 3.76457 3.48893 3.60311C3.65826 3.44166 3.78821 3.20933 3.66613 3.2999C3.48106 3.41659 3.3059 3.5483 3.1424 3.69368L2.53598 4.41824C2.53598 4.41824 2.53598 3.69368 4.1308 2.72498L6.69432 1.11441C7.71965 0.654525 8.7899 0.302175 9.8879 0.0630111C10.623 0.0342564 11.3592 0.0460879 12.0931 0.0984515C13.2615 0.197731 14.3969 0.536883 15.4284 1.09472C16.8567 2.02442 17.998 3.33339 18.7244 4.87503C19.2678 6.20995 19.5119 8.79317 19.5119 9.7028C19.5119 10.6124 18.8031 12.4593 18.4566 13.1799C17.946 14.153 17.2119 14.9911 16.3144 15.6253C15.547 16.1369 14.6494 16.4183 13.7273 16.4365C13.0252 16.4661 12.3298 16.2895 11.7269 15.9285C11.2996 15.671 10.9298 15.3284 10.6406 14.9219C10.3513 14.5155 10.1487 14.0539 10.0454 13.5658C9.82063 12.5983 9.76072 11.5999 9.86821 10.6124C10.0239 9.93486 10.2971 9.2898 10.6755 8.70653C10.906 8.36525 11.2188 8.08761 11.5851 7.89928C11.9333 7.77896 12.3119 7.77896 12.6601 7.89928C13.0027 8.04104 13.0815 8.22218 13.0539 8.45058C13.0538 8.54651 13.0221 8.63974 12.9637 8.71588C12.9054 8.79203 12.8236 8.84686 12.731 8.87192C12.5435 8.90666 12.36 8.96076 12.1836 9.03337C11.8655 9.303 11.634 9.66052 11.5182 10.0611C11.3521 10.6356 11.2439 11.2253 11.1953 11.8214C11.1714 12.4195 11.2609 13.0167 11.4591 13.5816C11.7096 14.0795 12.128 14.4728 12.6404 14.692C13.0603 14.8455 13.5048 14.9203 13.9517 14.9125C14.5159 14.8118 15.0566 14.6075 15.5465 14.3101C16.1514 13.8471 16.6722 13.2837 17.0862 12.6444C17.4933 11.7886 17.791 10.885 17.9722 9.95482C18.0672 9.10885 18.0817 8.25577 18.0156 7.40705C17.7879 6.39419 17.4471 5.41012 16.9996 4.47337C16.3687 3.57072 15.5992 2.77334 14.7196 2.11068C14.0932 1.7034 13.3938 1.42124 12.6601 1.2798C12.0093 1.17593 11.3498 1.13636 10.6912 1.16166C9.71965 1.20009 8.75605 1.35342 7.82054 1.61845C6.86356 2.02976 5.94169 2.51835 5.06406 3.07938C4.51303 3.47706 4.00376 3.9296 3.54406 4.43006C3.30779 4.77265 2.50054 5.78467 2.36271 6.10757C2.22489 6.43047 1.8193 7.17866 1.6736 7.58032C1.49388 8.00274 1.36181 8.44387 1.27981 8.89555C1.27981 9.25783 1.03961 10.0769 1.01598 10.3722C0.992352 10.6676 1.03961 11.2189 1.03961 11.5221C1.0245 11.7888 0.979595 12.0529 0.90572 12.3096V11.6796C0.90572 11.5811 0.952974 11.3567 0.952974 11.2858C0.935073 11.2058 0.900153 11.1306 0.85059 11.0653C0.86417 11.2067 0.86417 11.3491 0.85059 11.4906C0.830901 11.6914 0.708829 11.9119 0.708829 11.7544C0.708829 11.5969 0.708829 11.2464 0.649761 11.3606C0.611051 11.6214 0.591311 11.8846 0.590694 12.1482C0.590694 12.2348 0.567067 12.6168 0.567067 12.7152C0.608234 12.9416 0.66347 13.1652 0.732456 13.3847C0.778797 13.5349 0.797476 13.6924 0.787585 13.8493C0.787585 14.0502 0.563129 14.0305 0.626134 14.2116C0.68914 14.3928 0.846653 14.755 0.870279 14.8614C0.893906 14.9677 0.846653 14.4164 0.933285 14.6802C1.01992 14.944 1.05142 15.2039 1.1538 15.4678C1.25619 15.7316 1.3822 16.3459 1.3822 16.3459L1.1538 16.1096Z" fill="#035C67"/>
<path d="M1.52005 15.6253V15.5662C1.47762 15.4372 1.44342 15.3057 1.41767 15.1724C1.40424 15.0488 1.37649 14.9273 1.33497 14.8101C1.29559 14.6684 1.45704 14.8495 1.47673 14.9322C1.49642 15.0149 1.52005 14.3061 1.53974 14.6487C1.54238 14.8872 1.5701 15.1248 1.62243 15.3575C1.6815 15.6371 1.74451 16.023 1.69725 15.8852C1.6678 15.7899 1.61342 15.7042 1.53974 15.6371M1.23653 14.4557V14.4163C1.23653 14.3297 1.21684 14.1249 1.21684 14.0226C1.21684 13.9202 1.1814 13.7666 1.1814 13.6052V12.9594C1.20402 13.2166 1.24481 13.4718 1.30347 13.7233C1.35983 13.9558 1.39411 14.1931 1.40585 14.4321L1.23653 14.4557Z" fill="#035C67"/>
<path d="M12.9948 11.7032C12.9948 11.404 13.3216 11.1598 13.6209 11.1204C13.8407 11.0657 14.0425 10.9549 14.2068 10.7989C14.371 10.643 14.492 10.4471 14.5581 10.2305C14.7842 9.52856 14.9205 8.80084 14.9637 8.06468C14.9243 7.62364 14.7629 6.43048 14.3809 6.0682C14.0303 5.70044 13.5909 5.4292 13.105 5.28064C12.6163 5.19772 12.1171 5.19772 11.6284 5.28064C11.0745 5.46914 10.5566 5.75007 10.0965 6.11152C9.54365 6.6579 9.08582 7.29274 8.74194 7.98986C8.35551 8.97485 8.12307 10.0135 8.05282 11.0692C8.05282 11.8214 8.10795 13.4989 8.75769 14.8299C9.40743 16.1608 10.3525 17.4406 11.5693 18.0431C12.6908 18.6503 13.9528 18.9505 15.2275 18.9134C16.4089 18.8346 18.1336 18.6732 19.6103 17.7832C21.087 16.8933 22.6661 15.8773 23.5718 14.1053C24.2758 12.7443 24.7672 11.2835 25.0288 9.77369C25.1031 9.19901 25.1439 8.62048 25.1508 8.04105C25.1508 7.79691 25.1902 7.35193 25.1902 7.35193L25.2887 7.67483C25.332 7.7969 25.3517 7.99773 25.395 7.93473C25.4383 7.87172 25.4934 7.91504 25.4934 7.79691C25.4934 7.67877 25.3714 6.92665 25.3714 6.76913C25.3714 6.61162 25.332 6.21784 25.332 6.15877C25.3414 5.98301 25.3414 5.80687 25.332 5.6311C25.3084 5.55234 25.1075 5.35152 25.1075 5.23732C25.1075 5.12312 24.9264 5.08768 24.9264 5.08768C24.9264 5.08768 25.0485 4.94986 25.0051 4.89079C24.9618 4.83172 24.8083 4.76872 24.8083 4.67421C24.8083 4.5797 24.7728 4.67421 24.7531 4.78841C24.7427 4.82076 24.7237 4.84963 24.698 4.87186C24.6723 4.89409 24.6409 4.90881 24.6074 4.91442L24.5444 4.61121L24.5917 4.28437C24.5917 4.28437 24.7728 4.53245 24.7728 4.46944C24.7728 4.40644 24.8319 4.40644 24.8319 4.24893C24.8319 4.09141 24.8083 3.85514 24.8083 3.78032C24.8083 3.70551 24.7728 3.38654 24.7728 3.38654C24.7728 3.38654 24.95 4.01659 24.9894 4.23711C25.0288 4.45763 25.2769 4.96561 25.3162 5.27276C25.3556 5.57991 25.5171 5.89887 25.5171 5.99732C25.5171 6.09576 25.6194 6.58012 25.6194 6.78488C25.6194 6.98965 25.6982 7.46613 25.6982 7.60789C25.6982 7.74965 25.7573 9.22634 25.7218 9.3681C25.6864 9.50986 25.5801 9.3681 25.5801 9.4311C25.5801 9.49411 25.4974 8.86406 25.4974 9.03732C25.5049 9.30047 25.4918 9.5638 25.458 9.82488C25.4186 10.006 25.2335 10.8763 25.2335 11.0062C25.1582 11.4406 25.0449 11.8675 24.8949 12.2821C24.7783 12.5703 24.6822 12.8663 24.6074 13.1681C24.5567 13.3988 24.4923 13.6263 24.4145 13.8493C24.3383 14.0239 24.2361 14.1859 24.1113 14.3298C24.0522 14.4164 23.8474 14.8614 23.7687 14.9992C23.6859 15.2233 23.5509 15.4244 23.3749 15.5859C23.1737 15.728 22.9934 15.8977 22.8393 16.09C22.7645 16.212 22.418 16.5389 22.3353 16.6964C22.2604 16.8255 22.1646 16.9412 22.0518 17.039L22.5834 16.6452C22.7345 16.5354 22.8673 16.4025 22.9772 16.2514C23.0684 16.0862 23.1795 15.9328 23.3079 15.7946C23.434 15.6686 23.7372 15.2473 23.7372 15.2473C23.5743 15.576 23.3846 15.8908 23.1701 16.1884C22.988 16.435 22.7779 16.6597 22.544 16.8578C22.3196 16.9996 22.036 17.2516 21.6895 17.4603C21.343 17.669 20.2561 18.3542 19.9529 18.5905C19.2296 19.0487 18.45 19.4113 17.6335 19.6694C16.507 20.0114 15.3238 20.1265 14.1525 20.0081C12.8863 19.8481 11.66 19.4584 10.5336 18.8583C9.62795 18.3266 8.28909 16.9996 7.93074 16.2672C7.5724 15.5347 6.71396 13.7076 6.65489 12.6444C6.59582 11.5812 6.55251 9.30903 7.08017 8.11587C7.57814 6.95302 8.27656 5.88672 9.14359 4.96561C9.7067 4.48126 10.6951 3.78426 11.4827 3.71338C12.2702 3.6425 13.1641 3.55193 13.7705 3.77245C14.584 4.16334 15.2606 4.79052 15.7119 5.57203C16.0264 6.37274 16.2034 7.22078 16.2356 8.08043C16.2636 8.75998 16.188 9.43984 16.0112 10.0966C15.8423 10.7125 15.523 11.2768 15.0818 11.7387C14.6605 12.1324 14.6605 12.164 14.1131 12.227C13.5658 12.29 13.487 12.227 13.2429 12.0852C13.1726 12.0431 13.1124 11.986 13.0668 11.9179C13.0212 11.8498 12.9912 11.7725 12.979 11.6914M24.7492 5.48146L24.7886 6.20602C24.8083 6.34385 24.891 6.67463 24.9067 6.59981C24.9225 6.52499 25.0485 6.59981 25.0485 6.5368V6.2769C25.0485 6.19421 24.9697 6.2139 24.9264 6.07608L24.8437 5.73349C24.8206 5.64276 24.7889 5.55443 24.7492 5.46965M24.1191 2.40602L23.7569 1.85867C23.6151 1.63815 23.6151 1.25224 23.3631 0.968718L22.7133 0.220532C22.7133 0.220532 22.5991 0.181154 22.7133 0.381983C22.7921 0.545096 22.8857 0.700635 22.9929 0.846646C23.2078 1.10367 23.3976 1.38057 23.56 1.67359C23.5993 1.83504 23.623 2.02012 23.623 2.02012L24.1191 2.40602Z" fill="#757A4D"/>
<path d="M32.7902 4.32771C32.9251 4.32762 33.0557 4.28078 33.1599 4.19518C33.264 4.10958 33.3353 3.99051 33.3615 3.85826C33.3878 3.72601 33.3673 3.58875 33.3037 3.46988C33.2401 3.35101 33.1372 3.25788 33.0126 3.20635C32.888 3.15482 32.7494 3.14809 32.6204 3.18729C32.4914 3.2265 32.38 3.30922 32.3051 3.42137C32.2303 3.53351 32.1966 3.66814 32.2099 3.80231C32.2232 3.93649 32.2826 4.0619 32.378 4.1572C32.4321 4.2113 32.4964 4.25421 32.5671 4.28347C32.6379 4.31272 32.7137 4.32776 32.7902 4.32771ZM31.0694 4.32771C31.1847 4.32771 31.2974 4.29353 31.3932 4.22949C31.489 4.16545 31.5637 4.07443 31.6079 3.96793C31.652 3.86144 31.6635 3.74426 31.641 3.63121C31.6185 3.51816 31.563 3.41431 31.4815 3.33281C31.4 3.2513 31.2962 3.1958 31.1831 3.17331C31.0701 3.15082 30.9529 3.16236 30.8464 3.20647C30.7399 3.25058 30.6489 3.32528 30.5848 3.42112C30.5208 3.51696 30.4866 3.62964 30.4866 3.74491C30.4861 3.82159 30.5008 3.89761 30.5299 3.96855C30.559 4.0395 30.6019 4.10395 30.6562 4.15817C30.7104 4.2124 30.7748 4.25531 30.8458 4.28441C30.9167 4.31351 30.9927 4.32823 31.0694 4.32771ZM73.7042 5.55631V5.77682C73.7601 5.7695 73.8168 5.77424 73.8707 5.79072C73.9245 5.80721 73.9742 5.83505 74.0164 5.87237C74.0586 5.90969 74.0923 5.95563 74.1152 6.00708C74.1381 6.05853 74.1497 6.11429 74.1492 6.17061V8.70657C74.1428 8.77738 74.1224 8.84622 74.0891 8.90906C74.0558 8.9719 74.0104 9.02748 73.9554 9.07257C73.9004 9.11765 73.837 9.15134 73.7689 9.17166C73.7007 9.19198 73.6292 9.19852 73.5585 9.19092H71.6211C71.1565 9.19092 71.0777 9.01372 71.0777 8.69081V6.1076C71.0777 5.7847 71.5621 5.71382 71.5621 5.71382V5.55631H69.6168V5.76107C69.9239 5.80045 70.0854 5.85952 70.0854 6.08398V8.74988C70.0854 9.09641 69.8412 9.17517 69.4435 9.17517H67.4155C67.0533 9.17517 67.0218 9.03341 67.0218 8.6475V5.95009C67.0218 5.70988 67.4155 5.70988 67.4155 5.70988V5.55631H65.6002V5.77682C65.7577 5.77682 65.994 5.87921 65.994 6.04066V8.79714C65.994 9.04128 65.7144 9.19092 65.3718 9.19092H59.7132C59.6372 9.19739 59.5606 9.18824 59.4883 9.16404C59.416 9.13984 59.3494 9.1011 59.2926 9.0502C59.2358 8.99929 59.19 8.93731 59.158 8.86806C59.1261 8.79881 59.1086 8.72375 59.1067 8.6475V4.46553C59.1067 3.90636 60.1384 3.88273 60.1384 3.88273V3.6819H57.0984V3.86304C57.5434 3.86304 58.1105 4.18594 58.1105 4.46553V8.65144C58.1105 8.87589 57.9529 9.15942 57.7167 9.15942H55.9998C55.799 9.15942 55.6769 8.91527 55.6769 8.616V4.95382C55.6769 4.68999 56.1376 4.68999 56.1376 4.68999V4.54822H54.4207V4.68999C54.5227 4.6973 54.6187 4.74114 54.691 4.81346C54.7633 4.88578 54.8072 4.98175 54.8145 5.08377V8.80107C54.8145 9.02553 54.5152 9.16729 54.3301 9.16729H51.4004C51.1011 9.10822 50.9554 8.52149 50.9554 8.52149L50.731 8.60024L51.0381 9.78159H73.9366C74.2649 9.76203 74.5739 9.62018 74.8028 9.38401C75.0317 9.14784 75.1638 8.83449 75.173 8.50574V6.02491C75.173 5.70201 75.6141 5.74532 75.6141 5.74532V5.55631H73.7042ZM46.2261 9.40356C44.7967 9.40356 44.2572 7.8875 44.2572 7.26138C44.2869 6.72669 44.5139 6.22204 44.8944 5.84519C45.2749 5.46835 45.7817 5.24613 46.3167 5.22159C47.498 5.22159 48.3919 6.45807 48.3919 7.32833C48.3704 7.88961 48.1309 8.4204 47.7243 8.8079C47.3177 9.19541 46.776 9.4091 46.2143 9.40356M32.1011 9.40356C30.6756 9.40356 30.1322 7.8875 30.1322 7.26138C30.1619 6.72669 30.389 6.22204 30.7695 5.84519C31.1499 5.46835 31.6567 5.24613 32.1917 5.22159C33.373 5.22159 34.2709 6.45807 34.2709 7.32833C34.2484 7.88996 34.008 8.42076 33.6008 8.80816C33.1935 9.19557 32.6514 9.40913 32.0893 9.40356M46.3206 4.87506C43.2885 4.87506 43.2412 7.34408 43.2412 7.34408C43.2412 7.34408 43.1546 7.5646 43.001 7.92294C42.8475 8.28128 42.1859 9.10429 41.9811 9.10429C41.7764 9.10429 36.1453 9.15942 35.8342 9.10035C35.5231 9.04128 35.3026 8.59237 35.3026 8.38366V5.10739C35.3026 4.93413 35.5743 4.85144 35.5743 4.85144H34.4284C34.5081 4.88504 34.5774 4.9392 34.6293 5.00839C34.6812 5.07758 34.7138 5.15931 34.7237 5.24522V6.00916C34.7237 6.00916 34.1055 4.88294 32.2508 4.88294C30.1755 4.88294 29.1556 6.45807 29.1556 7.31651C29.1556 8.17496 29.6794 9.80128 31.9948 9.80128C34.3103 9.80128 34.7513 8.64356 34.7513 8.64356L34.9561 8.61206C35.0087 8.91282 35.1525 9.19013 35.368 9.40639C35.5836 9.62264 35.8604 9.76738 36.161 9.82097H41.9378C42.3316 9.82097 42.4655 9.58076 42.7529 9.27361C43.0114 8.90167 43.2181 8.4963 43.3672 8.06864C43.6031 8.61818 44.0016 9.08226 44.5093 9.39838C45.0169 9.7145 45.6092 9.86748 46.2064 9.83672C48.5927 9.83672 49.337 8.15133 49.337 7.38739C49.337 6.62346 48.7109 4.89869 46.3442 4.89869M70.0933 16.3578L71.2746 13.873L72.4559 16.3578H70.0933ZM74.5863 18.3582C74.4193 18.1668 74.2862 17.9484 74.1925 17.7124L71.6448 12.5932H71.4361L69.3057 17.0429C69.1236 17.4742 68.8938 17.8836 68.6205 18.2637C68.4625 18.4227 68.2499 18.5156 68.0259 18.5236V18.6889H70.0578V18.5236C69.8913 18.5161 69.7261 18.4896 69.5656 18.4448C69.5008 18.4205 69.4455 18.3759 69.4079 18.3178C69.3704 18.2597 69.3525 18.191 69.3569 18.1219C69.3654 18.0145 69.3921 17.9093 69.4356 17.8108C69.4868 17.6769 69.6522 17.3146 69.9279 16.72H72.6056L73.0191 17.5942C73.0745 17.7103 73.1218 17.83 73.1608 17.9526C73.1852 18.028 73.2011 18.1059 73.2081 18.1849C73.2081 18.3227 73.1648 18.4015 73.0781 18.4369C72.8879 18.4886 72.6923 18.5176 72.4953 18.5236V18.6889H75.0904V18.5236C74.9125 18.5109 74.7406 18.4541 74.5902 18.3582M62.7768 17.2123L60.4141 12.7153H58.39V12.8846C58.6634 12.87 58.9356 12.9299 59.1776 13.0579C59.2476 13.1472 59.299 13.2497 59.3287 13.3593C59.3585 13.4689 59.366 13.5833 59.3509 13.6958V17.3698C59.3892 17.6846 59.3257 18.0033 59.1697 18.2794C58.9312 18.4498 58.6438 18.5383 58.3507 18.5314V18.6968H60.7606V18.5314C60.5106 18.5335 60.265 18.4653 60.0518 18.3345C59.8499 18.0561 59.7625 17.7108 59.8077 17.3698V13.7627L62.383 18.6889H62.5248L65.1434 13.5462V17.6021C65.1434 17.9959 65.0962 18.2282 64.9859 18.3267C64.7507 18.4737 64.475 18.5426 64.1983 18.5236V18.6889H67.069V18.5236C66.8145 18.5284 66.5631 18.4659 66.3405 18.3424C66.2263 18.2479 66.1751 18.0353 66.1751 17.7084V13.6958C66.1593 13.585 66.1657 13.4723 66.1942 13.3641C66.2226 13.2558 66.2723 13.1544 66.3405 13.0657C66.5609 12.9367 66.8138 12.8738 67.069 12.8846V12.7153H65.0292L62.7768 17.2123ZM52.2234 16.3578L53.4048 13.873L54.5861 16.3578H52.2234ZM56.3109 17.7124L53.7631 12.5932H53.5544L51.4162 17.0429C51.2346 17.4721 51.0089 17.8812 50.7428 18.2637C50.5797 18.4222 50.3637 18.5147 50.1364 18.5236V18.6889H52.1722V18.5236C52.0044 18.5156 51.838 18.4892 51.6761 18.4448C51.6123 18.4193 51.5583 18.3744 51.5215 18.3164C51.4848 18.2585 51.4672 18.1904 51.4713 18.1219C51.4781 18.0147 51.5034 17.9094 51.5461 17.8108C51.5973 17.6769 51.7627 17.3146 52.0423 16.72H54.7357L55.1295 17.5942C55.1866 17.7096 55.234 17.8294 55.2713 17.9526C55.2963 18.028 55.3135 18.1059 55.3225 18.1849C55.3225 18.3227 55.2752 18.4015 55.1886 18.4369C54.9998 18.4891 54.8055 18.5182 54.6097 18.5236V18.6889H57.2048V18.5236C57.0266 18.5123 56.8544 18.4553 56.7047 18.3582C56.5363 18.1679 56.4029 17.9492 56.3109 17.7124ZM48.3407 18.1573C47.7409 18.3213 47.1187 18.3878 46.4978 18.3542H46.0213H45.7811C45.7338 18.3543 45.6869 18.3445 45.6436 18.3255C45.6002 18.3065 45.5612 18.2788 45.5291 18.244C45.4836 18.1739 45.4615 18.0912 45.4661 18.0077V13.6761C45.446 13.5605 45.4548 13.4417 45.492 13.3303C45.5291 13.219 45.5933 13.1186 45.6787 13.0382C45.9169 12.9242 46.1788 12.8688 46.4427 12.8767V12.7074H43.5444V12.8767C43.8002 12.8653 44.0536 12.9297 44.2729 13.0618C44.4111 13.2424 44.472 13.4704 44.4423 13.6958V17.7045C44.4584 17.818 44.4517 17.9336 44.4226 18.0444C44.3936 18.1553 44.3427 18.2593 44.2729 18.3503C44.0465 18.4627 43.7973 18.522 43.5444 18.5236V18.6889H49.0574L49.5496 17.1138H49.2937C49.1019 17.5586 48.7663 17.9261 48.3407 18.1573ZM37.1849 16.3696L38.3465 13.8848L39.5279 16.3696H37.1849ZM41.2841 17.7242L38.7364 12.605H38.5237L36.3894 17.0548C36.2079 17.4839 35.9822 17.893 35.7161 18.2755C35.5529 18.434 35.3369 18.5266 35.1096 18.5354V18.7008H37.1415V18.5354C36.9751 18.5271 36.81 18.5007 36.6493 18.4566C36.5856 18.4311 36.5315 18.3862 36.4948 18.3282C36.458 18.2703 36.4405 18.2022 36.4446 18.1337C36.4513 18.0265 36.4766 17.9212 36.5194 17.8226L37.0155 16.7318H39.6933L40.087 17.606C40.1441 17.7214 40.1915 17.8412 40.2288 17.9644C40.2539 18.0399 40.271 18.1177 40.28 18.1967C40.28 18.3345 40.2367 18.4133 40.1461 18.4487C39.9574 18.5013 39.763 18.5304 39.5672 18.5354V18.7008H42.1623V18.5354C41.9841 18.5241 41.8119 18.4671 41.6622 18.37C41.4966 18.1776 41.3636 17.9595 41.2684 17.7242M32.2586 15.4009L31.3529 14.9086C31.0791 14.772 30.8269 14.5955 30.6048 14.3849C30.5273 14.3067 30.4662 14.2138 30.425 14.1117C30.3837 14.0096 30.3632 13.9004 30.3646 13.7903C30.3605 13.6711 30.387 13.5528 30.4414 13.4467C30.4959 13.3406 30.5765 13.2501 30.6756 13.1839C30.8932 13.0378 31.1499 12.9609 31.412 12.9634C31.804 12.9745 32.1854 13.093 32.5146 13.3059C32.9203 13.6003 33.2012 14.0357 33.3022 14.5267H33.5502L33.3179 12.5971H33.121C33.0993 12.6768 33.0603 12.7508 33.0068 12.8137C32.9701 12.8433 32.9279 12.8651 32.8825 12.878C32.8372 12.8909 32.7897 12.8944 32.743 12.8885C32.5522 12.8546 32.364 12.8072 32.1799 12.7468C31.9048 12.6571 31.6185 12.6067 31.3293 12.5971C30.8371 12.5771 30.3539 12.7335 29.9668 13.0382C29.8025 13.1789 29.6713 13.3543 29.5828 13.5517C29.4943 13.7492 29.4506 13.9638 29.4549 14.1801C29.4594 14.3582 29.5001 14.5335 29.5746 14.6953C29.6491 14.8571 29.7557 15.0021 29.8881 15.1213C30.0785 15.2956 30.2902 15.4451 30.5181 15.5663L31.4002 16.0467C31.7494 16.2238 32.0827 16.4307 32.3965 16.6649C32.5114 16.7612 32.6036 16.8817 32.6662 17.0179C32.7289 17.1541 32.7605 17.3026 32.7587 17.4525C32.7655 17.5993 32.7364 17.7456 32.674 17.8787C32.6115 18.0118 32.5177 18.1277 32.4004 18.2164C32.1597 18.3991 31.8637 18.4936 31.5617 18.4842C31.2818 18.491 31.0035 18.4396 30.7446 18.3331C30.4856 18.2267 30.2516 18.0676 30.0574 17.8659C29.8004 17.5816 29.5964 17.2535 29.4549 16.8972H29.2108L29.5337 18.811H29.7581C29.7718 18.7336 29.8013 18.6599 29.8448 18.5944C29.8722 18.5577 29.9089 18.5289 29.9511 18.5109C29.9933 18.4929 30.0395 18.4864 30.085 18.4921C30.2842 18.5316 30.4803 18.5856 30.6717 18.6535C30.9906 18.753 31.3221 18.806 31.6562 18.811C32.2122 18.836 32.7595 18.666 33.2037 18.3306C33.3924 18.197 33.546 18.0198 33.6515 17.8142C33.7571 17.6085 33.8115 17.3804 33.8101 17.1493C33.8149 16.8132 33.6941 16.4875 33.4715 16.2357C33.1255 15.8943 32.7265 15.6111 32.2901 15.3969" fill="#035C67"/>
<path d="M1.3113 24.064H1.66176V24.4578H1.3113V24.064ZM0.787565 24.064H1.13803V24.4578H0.787565V24.064ZM2.61078 23.7017V22.1266C2.42176 22.1266 2.21699 22.1541 2.21699 22.7172V23.6702H0C0.0220244 23.3238 0.0909075 22.9821 0.204767 22.6542C0.271454 22.4093 0.422705 22.1958 0.631723 22.0516C0.840742 21.9075 1.09404 21.842 1.34674 21.8667V22.1817C1.18095 22.1606 1.01289 22.1961 0.869898 22.2827C0.726904 22.3692 0.61739 22.5015 0.559171 22.6582C0.479452 22.8786 0.423995 23.107 0.393782 23.3394H1.86259V22.6385C1.86259 21.78 2.35088 21.7367 2.95731 21.7446V23.3434H3.47316V23.6702L2.61078 23.7017Z" fill="#818285"/>
<path d="M3.34717 23.3395H4.02841V23.686H3.34717V23.3395Z" fill="#818285"/>
<path d="M3.92603 23.3395H4.60727V23.686H3.92603V23.3395Z" fill="#818285"/>
<path d="M4.50488 23.3395H5.18219V23.686H4.50488V23.3395Z" fill="#818285"/>
<path d="M5.08374 23.3395H5.76498V23.686H5.08374V23.3395Z" fill="#818285"/>
<path d="M5.65869 23.3395H6.33994V23.686H5.65869V23.3395Z" fill="#818285"/>
<path d="M6.23755 23.3395H6.91485V23.686H6.23755V23.3395Z" fill="#818285"/>
<path d="M6.82031 23.3395H7.49762V23.686H6.82031V23.3395Z" fill="#818285"/>
<path d="M7.39526 23.3395H8.07651V23.686H7.39526V23.3395Z" fill="#818285"/>
<path d="M7.97412 23.3395H8.65536V23.686H7.97412V23.3395Z" fill="#818285"/>
<path d="M8.55298 23.3395H9.23422V23.686H8.55298V23.3395Z" fill="#818285"/>
<path d="M9.13184 23.3395H9.80914V23.686H9.13184V23.3395Z" fill="#818285"/>
<path d="M9.71069 23.3395H10.3919V23.686H9.71069V23.3395Z" fill="#818285"/>
<path d="M10.9038 20.9925H11.2543V21.3863H10.9038V20.9925ZM10.447 23.6702H10.262V23.3276H10.447C10.766 23.3276 10.9117 23.1425 10.9117 22.8354V21.7407H11.2543V22.8827C11.264 22.99 11.2506 23.0981 11.2149 23.1998C11.1792 23.3014 11.1221 23.3942 11.0474 23.4719C10.9727 23.5496 10.8822 23.6103 10.782 23.6499C10.6819 23.6896 10.5743 23.7072 10.4667 23.7017M12.8176 22.0636H12.4238C12.0773 22.0636 12.03 22.5401 12.03 22.8C12.03 23.0599 12.0734 23.5678 12.4238 23.5678C12.7743 23.5678 12.8176 23.1032 12.8176 22.8275V22.0636ZM12.4238 24.5562V24.2333C12.731 24.2333 12.8176 23.875 12.8176 23.623C12.7816 23.71 12.7185 23.7831 12.6376 23.8313C12.5567 23.8796 12.4624 23.9004 12.3687 23.8907C11.908 23.8907 11.652 23.497 11.652 22.8118C11.652 22.1266 11.9277 21.7407 12.3766 21.7407H13.1641V23.7096C13.1774 23.8135 13.1687 23.9191 13.1386 24.0194C13.1085 24.1198 13.0576 24.2127 12.9893 24.2921C12.921 24.3715 12.8368 24.4357 12.7421 24.4806C12.6474 24.5254 12.5443 24.5498 12.4396 24.5523M13.5461 22.8827V20.9846H13.8966V22.8472C13.8885 22.9131 13.8954 22.98 13.9168 23.0428C13.9381 23.1057 13.9734 23.1629 14.02 23.2102C14.0665 23.2575 14.1232 23.2937 14.1857 23.3161C14.2482 23.3385 14.3149 23.3465 14.3809 23.3394V23.6702C14.2728 23.6804 14.1637 23.6673 14.061 23.632C13.9583 23.5967 13.8643 23.5398 13.7853 23.4653C13.7063 23.3908 13.6441 23.3003 13.6029 23.1998C13.5616 23.0993 13.5423 22.9912 13.5461 22.8827Z" fill="#818285"/>
<path d="M14.2747 23.3395H14.952V23.686H14.2747V23.3395Z" fill="#818285"/>
<path d="M14.8535 23.3395H15.5308V23.686H14.8535V23.3395Z" fill="#818285"/>
<path d="M15.4324 23.3395H16.1097V23.686H15.4324V23.3395Z" fill="#818285"/>
<path d="M16.0072 23.3395H16.6884V23.686H16.0072V23.3395Z" fill="#818285"/>
<path d="M16.5901 23.3395H17.2674V23.686H16.5901V23.3395Z" fill="#818285"/>
<path d="M17.1649 23.3395H17.8422V23.686H17.1649V23.3395Z" fill="#818285"/>
<path d="M17.7478 23.3395H18.4251V23.686H17.7478V23.3395Z" fill="#818285"/>
<path d="M19.6616 22.04C19.5766 22.0351 19.4916 22.0478 19.4117 22.0771C19.3318 22.1064 19.2588 22.1519 19.1971 22.2105C19.1355 22.2692 19.0866 22.3399 19.0533 22.4183C19.0201 22.4966 19.0033 22.581 19.004 22.6661L19.6616 23.2883L20.3192 22.6661C20.3151 22.4972 20.2446 22.3368 20.1229 22.2196C20.0013 22.1024 19.8384 22.0379 19.6695 22.04M20.0633 23.6821C19.9293 23.6812 19.7963 23.6586 19.6695 23.6151C19.5425 23.6576 19.4096 23.6802 19.2757 23.6821H18.3228V23.3395H19.26L18.6181 22.733C18.6181 22.4584 18.7272 22.1949 18.9214 22.0007C19.1156 21.8065 19.3791 21.6974 19.6537 21.6974C19.9284 21.6974 20.1918 21.8065 20.3861 22.0007C20.5803 22.1949 20.6894 22.4584 20.6894 22.733L20.0475 23.3395H20.9768V23.6702L20.0633 23.6821Z" fill="#818285"/>
<path d="M20.8586 23.3395H21.5359V23.686H20.8586V23.3395Z" fill="#818285"/>
<path d="M21.4336 23.3395H22.1109V23.686H21.4336V23.3395Z" fill="#818285"/>
<path d="M22.0125 23.3395H22.6898V23.686H22.0125V23.3395Z" fill="#818285"/>
<path d="M23.0599 20.9847H23.4065V21.3785H23.0599V20.9847ZM23.8751 23.6703C23.7586 23.677 23.6423 23.6566 23.535 23.6109C23.4278 23.5651 23.3325 23.4952 23.2568 23.4065C23.1846 23.4962 23.0917 23.567 22.9861 23.613C22.8804 23.6589 22.7653 23.6786 22.6504 23.6703H22.611V23.3277H22.6504C22.7041 23.3309 22.7578 23.3231 22.8084 23.3048C22.8589 23.2865 22.9051 23.258 22.9442 23.2211C22.9834 23.1842 23.0145 23.1397 23.0357 23.0903C23.057 23.0409 23.0679 22.9877 23.0678 22.9339V21.7526H23.4104V22.9576C23.4104 23.2096 23.5876 23.3513 23.8751 23.3513H23.9144V23.6703H23.8751ZM22.5126 20.9729H22.8591V21.3667H22.5126V20.9729Z" fill="#818285"/>
<path d="M23.8159 23.6702V23.3276C23.8824 23.3352 23.9497 23.3276 24.0128 23.3055C24.076 23.2835 24.1333 23.2474 24.1806 23.2001C24.2279 23.1528 24.264 23.0955 24.286 23.0323C24.3081 22.9692 24.3157 22.9019 24.3081 22.8354V20.9846H24.6547V22.8827C24.6549 22.9905 24.633 23.0973 24.5902 23.1963C24.5475 23.2954 24.4848 23.3846 24.4062 23.4585C24.3276 23.5323 24.2346 23.5892 24.133 23.6256C24.0315 23.6621 23.9236 23.6772 23.8159 23.6702ZM25.7455 20.9846H26.0959V23.686H25.7455V20.9846ZM28.4941 21.1343H28.8406V21.528H28.4941V21.1343ZM29.9274 23.6702C29.7678 23.6748 29.6103 23.6323 29.4746 23.5481V23.6033C29.4827 23.7064 29.4695 23.8101 29.4359 23.908C29.4023 24.0059 29.3489 24.0958 29.2792 24.1722C29.2094 24.2486 29.1247 24.3099 29.0303 24.3522C28.9359 24.3946 28.8338 24.4171 28.7303 24.4184H28.6319C28.5281 24.4171 28.4256 24.3945 28.3309 24.3519C28.2362 24.3093 28.1513 24.2477 28.0815 24.1708C28.0117 24.094 27.9584 24.0036 27.9251 23.9053C27.8917 23.8069 27.879 23.7028 27.8876 23.5993V21.7407H28.2342V23.5915C28.2342 23.8947 28.368 24.0876 28.6831 24.0876C28.9981 24.0876 29.1241 23.8947 29.1241 23.5915V21.7407H29.4746V22.9929C29.4746 23.2174 29.6636 23.3394 29.9274 23.3394H29.9904V23.6702H29.9274Z" fill="#818285"/>
<path d="M29.8645 23.3395H30.5457V23.686H29.8645V23.3395Z" fill="#818285"/>
<path d="M30.4434 23.3395H31.1207V23.686H30.4434V23.3395Z" fill="#818285"/>
<path d="M31.0182 23.3395H31.6955V23.686H31.0182V23.3395Z" fill="#818285"/>
<path d="M31.6011 23.3395H32.2784V23.686H31.6011V23.3395Z" fill="#818285"/>
<path d="M32.1759 23.3395H32.8571V23.686H32.1759V23.3395Z" fill="#818285"/>
<path d="M32.7588 23.3395H33.4361V23.686H32.7588V23.3395Z" fill="#818285"/>
<path d="M33.8141 24.0641H34.1606V24.4578H33.8141V24.0641ZM34.6017 23.7018C34.4846 23.7094 34.3673 23.6895 34.2593 23.6437C34.1513 23.5979 34.0554 23.5274 33.9795 23.4379C33.9077 23.5271 33.8154 23.5976 33.7105 23.6435C33.6056 23.6894 33.4913 23.7094 33.377 23.7018H33.318V23.3592H33.377C33.4815 23.3592 33.5816 23.3177 33.6555 23.2438C33.7293 23.17 33.7708 23.0698 33.7708 22.9654V21.7841H34.1173V22.989C34.1173 23.2411 34.2985 23.3828 34.582 23.3828H34.6411V23.6703L34.6017 23.7018ZM33.2471 24.0641H33.5936V24.4578H33.2471V24.0641Z" fill="#818285"/>
<path d="M35.7672 21.9101C35.4916 21.9101 35.3459 22.1581 35.3459 22.6504C35.3459 23.1426 35.4916 23.3749 35.7672 23.3749C36.0429 23.3749 36.2004 23.1347 36.2004 22.6622C36.2004 22.1896 36.0586 21.9101 35.7672 21.9101ZM35.7672 23.6821C35.6485 23.6866 35.5306 23.6603 35.4251 23.6058C35.3195 23.5513 35.2298 23.4704 35.1647 23.371C35.1013 23.4683 35.0142 23.548 34.9116 23.6024C34.8089 23.6568 34.6942 23.6842 34.578 23.6821V23.3395C34.6583 23.3362 34.7357 23.3084 34.7998 23.2598C34.8638 23.2112 34.9115 23.1442 34.9363 23.0678C34.9838 22.9137 34.9999 22.7517 34.9836 22.5913C34.9836 21.977 35.2907 21.6029 35.7712 21.6029C36.2516 21.6029 36.5587 21.9967 36.5587 22.6464C36.5587 23.2962 36.2673 23.6821 35.7712 23.6821M36.9486 22.8827V20.9847H37.2951V22.8473C37.2871 22.9128 37.294 22.9793 37.3151 23.0418C37.3363 23.1043 37.3712 23.1613 37.4173 23.2086C37.4634 23.2558 37.5195 23.2921 37.5815 23.3148C37.6435 23.3374 37.7098 23.3459 37.7755 23.3395V23.6703C37.668 23.6792 37.5598 23.6653 37.4581 23.6294C37.3563 23.5936 37.2633 23.5366 37.1852 23.4622C37.1071 23.3878 37.0456 23.2977 37.0048 23.1978C36.964 23.0979 36.9449 22.9905 36.9486 22.8827ZM36.6572 20.7799V20.583H36.8265V20.52C36.8265 20.4176 36.8541 20.1262 37.1494 20.1262C37.3227 20.1262 37.3935 20.2247 37.4566 20.3782H37.2518C37.2203 20.3349 37.2085 20.3113 37.1533 20.3113C37.0982 20.3113 37.0273 20.4334 37.0273 20.5279V20.5712H37.4841V20.7681L36.6572 20.7799Z" fill="#818285"/>
<path d="M37.6732 23.3395H38.3545V23.686H37.6732V23.3395Z" fill="#818285"/>
<path d="M38.2521 23.3395H38.9294V23.686H38.2521V23.3395Z" fill="#818285"/>
<path d="M38.8309 23.3395H39.5122V23.686H38.8309V23.3395Z" fill="#818285"/>
<path d="M39.4098 23.3395H40.0871V23.686H39.4098V23.3395Z" fill="#818285"/>
<path d="M39.9886 23.3395H40.666V23.686H39.9886V23.3395Z" fill="#818285"/>
<path d="M41.036 20.9846H41.3826V21.3784H41.036V20.9846ZM41.8512 23.682C41.7341 23.6896 41.6168 23.6697 41.5088 23.6239C41.4007 23.5781 41.3049 23.5077 41.229 23.4182C41.1567 23.5068 41.0644 23.577 40.9596 23.6229C40.8548 23.6687 40.7407 23.689 40.6265 23.682H40.5832V23.3394H40.6265C40.7309 23.3394 40.8311 23.298 40.9049 23.2241C40.9788 23.1503 41.0203 23.0501 41.0203 22.9457V21.7643H41.3708V22.9693C41.3708 23.2213 41.548 23.3631 41.8354 23.3631H41.8748V23.6702L41.8512 23.682ZM40.4847 20.9846H40.8313V21.3784H40.4847V20.9846Z" fill="#818285"/>
<path d="M43.0758 23.6703C42.9588 23.6776 42.8416 23.6575 42.7336 23.6117C42.6257 23.566 42.5298 23.4957 42.4537 23.4064C42.3814 23.4951 42.289 23.5652 42.1843 23.6111C42.0795 23.657 41.9653 23.6773 41.8512 23.6703H41.7921V23.3277H41.8512C41.9556 23.3277 42.0558 23.2862 42.1296 23.2123C42.2035 23.1385 42.245 23.0383 42.245 22.9339V20.9926H42.5954V22.9615C42.5954 23.2135 42.7726 23.3552 43.0601 23.3552H43.1192V23.6703H43.0758Z" fill="#818285"/>
<path d="M43.0168 23.6702V23.3276C43.083 23.3345 43.1499 23.3265 43.2125 23.3041C43.2752 23.2818 43.332 23.2456 43.3788 23.1984C43.4257 23.1512 43.4614 23.0941 43.4832 23.0312C43.5051 22.9684 43.5126 22.9015 43.5051 22.8354V20.9846H43.8517V22.8827C43.8563 22.9928 43.8377 23.1027 43.7972 23.2052C43.7567 23.3077 43.695 23.4006 43.6164 23.4778C43.5377 23.555 43.4436 23.6148 43.3404 23.6534C43.2371 23.692 43.1269 23.7084 43.0168 23.7017M46.805 20.9846H47.1516V21.3784H46.805V20.9846ZM46.2656 20.9846H46.6081V21.3784H46.2656V20.9846ZM46.809 22.0636H46.4152C46.0884 22.0636 46.0214 22.4889 46.0214 22.7409C46.0214 22.9929 46.1277 23.3394 46.4152 23.3394H46.809V22.0636ZM46.3916 23.6702C46.0765 23.6702 45.6473 23.4339 45.6473 22.7291C45.6473 22.0242 45.9348 21.7289 46.3916 21.7289H47.1791V23.3276H47.6477V23.6702H46.3916Z" fill="#818285"/>
<path d="M47.5099 23.3395H48.1872V23.686H47.5099V23.3395Z" fill="#818285"/>
<path d="M48.0887 23.3395H48.766V23.686H48.0887V23.3395Z" fill="#818285"/>
<path d="M48.6676 23.3395H49.3449V23.686H48.6676V23.3395Z" fill="#818285"/>
<path d="M49.2424 23.3395H49.9237V23.686H49.2424V23.3395Z" fill="#818285"/>
<path d="M49.8213 23.3395H50.5025V23.686H49.8213V23.3395Z" fill="#818285"/>
<path d="M51.6131 21.91C51.3335 21.91 51.1878 22.1581 51.1878 22.6504C51.1878 23.1426 51.3335 23.3749 51.6131 23.3749C51.8927 23.3749 52.0423 23.1347 52.0423 22.6622C52.0423 22.1896 51.9045 21.91 51.6131 21.91ZM51.6131 23.6821C51.4932 23.6868 51.3742 23.6606 51.2673 23.6062C51.1604 23.5517 51.0693 23.4707 51.0027 23.371C50.938 23.469 50.8486 23.5482 50.7435 23.6008C50.6385 23.6533 50.5214 23.6773 50.4042 23.6703V23.3277C50.4852 23.3252 50.5634 23.2977 50.6283 23.2491C50.6931 23.2005 50.7414 23.133 50.7665 23.056C50.8119 22.9015 50.828 22.7399 50.8137 22.5795C50.8137 21.9652 51.1209 21.5911 51.6013 21.5911C52.0817 21.5911 52.3888 21.9849 52.3888 22.6346C52.3888 23.2843 52.0974 23.6703 51.6013 23.6703M54.8657 23.6703H54.8067C54.6907 23.6775 54.5747 23.6575 54.468 23.6116C54.3613 23.5658 54.2669 23.4955 54.1924 23.4064C54.1288 23.4909 54.046 23.559 53.9508 23.6049C53.8555 23.6508 53.7507 23.6732 53.645 23.6703H52.7905V23.3277H53.137V20.965H53.4914V23.3277H53.6332C53.897 23.3277 54.027 23.0796 54.027 22.5834V20.9925H54.3735V22.8433C54.3786 22.9194 54.3786 22.9957 54.3735 23.0717C54.4247 23.2489 54.5704 23.3395 54.8145 23.3395H54.8736L54.8657 23.6703Z" fill="#818285"/>
<path d="M54.7437 23.3395H55.4249V23.686H54.7437V23.3395Z" fill="#818285"/>
<path d="M55.3225 23.3395H55.9998V23.686H55.3225V23.3395Z" fill="#818285"/>
<path d="M55.9014 23.3395H56.5826V23.686H55.9014V23.3395Z" fill="#818285"/>
<path d="M58.8744 23.6702H56.5117V23.3276H57.1733V21.7525H57.4922V23.3276H58.1499V21.7407H58.4964V23.3394H58.8626C59.0871 23.3394 59.1579 23.2528 59.1579 22.8472V21.7407H59.5045V23.0205C59.5159 23.1073 59.5078 23.1957 59.4807 23.279C59.4535 23.3623 59.4081 23.4385 59.3477 23.5019C59.2872 23.5654 59.2134 23.6145 59.1315 23.6457C59.0496 23.6768 58.9617 23.6893 58.8744 23.682M62.4578 20.9846H62.7965V21.3784H62.4578V20.9846ZM61.9105 20.9846H62.257V21.3784H61.9105V20.9846ZM62.4578 22.0636H62.0641C61.7412 22.0636 61.6703 22.4889 61.6703 22.7409C61.6703 22.9929 61.7766 23.3394 62.0641 23.3394H62.4578V22.0636ZM62.0404 23.6702C61.7293 23.6702 61.2883 23.4339 61.2883 22.7291C61.2883 22.0242 61.5797 21.7289 62.0404 21.7289H62.8044V23.3276H63.2769V23.6702H62.0404Z" fill="#818285"/>
<path d="M63.1588 23.3395H63.8361V23.686H63.1588V23.3395Z" fill="#818285"/>
<path d="M63.7377 23.3395H64.4189V23.686H63.7377V23.3395Z" fill="#818285"/>
<path d="M64.3125 23.3395H64.9898V23.686H64.3125V23.3395Z" fill="#818285"/>
<path d="M64.8954 23.3395H65.5727V23.686H64.8954V23.3395Z" fill="#818285"/>
<path d="M65.4702 23.3395H66.1475V23.686H65.4702V23.3395Z" fill="#818285"/>
<path d="M66.0531 23.3395H66.7304V23.686H66.0531V23.3395Z" fill="#818285"/>
<path d="M66.6279 23.3395H67.3052V23.686H66.6279V23.3395Z" fill="#818285"/>
<path d="M67.1832 23.6703V23.3277H68.8174V22.7213C68.8174 22.422 68.656 22.2684 68.337 22.2684H67.2817V21.662C67.2809 21.5667 67.3006 21.4723 67.3393 21.3852C67.378 21.298 67.4348 21.2202 67.506 21.1568C67.5772 21.0934 67.6611 21.046 67.7522 21.0177C67.8432 20.9893 67.9392 20.9808 68.0338 20.9926H68.7465V21.3312H68.0338C67.7739 21.3312 67.6124 21.4769 67.6124 21.6699V21.9179H68.337C68.4432 21.9068 68.5505 21.9195 68.6511 21.9552C68.7517 21.9908 68.8431 22.0485 68.9186 22.1239C68.9941 22.1994 69.0517 22.2908 69.0874 22.3914C69.123 22.492 69.1357 22.5994 69.1246 22.7055V23.6703H67.1832ZM70.4871 23.6703C70.3261 23.6754 70.1672 23.6329 70.0303 23.5482V23.5758C70.0412 23.6809 70.0302 23.7871 69.998 23.8877C69.9657 23.9883 69.913 24.0812 69.843 24.1604C69.7731 24.2396 69.6875 24.3034 69.5916 24.3478C69.4957 24.3923 69.3917 24.4163 69.286 24.4185V24.1034C69.3621 24.094 69.4341 24.0636 69.4939 24.0156C69.5537 23.9676 69.599 23.904 69.6247 23.8317C69.6762 23.6785 69.6963 23.5164 69.6837 23.3553V21.7407H70.0303V22.9693C70.0303 23.2096 70.2114 23.3395 70.4871 23.3395H70.5304V23.6703H70.4871Z" fill="#818285"/>
<path d="M70.4358 23.3395H71.117V23.686H70.4358V23.3395Z" fill="#818285"/>
<path d="M71.0187 23.3395H71.696V23.686H71.0187V23.3395Z" fill="#818285"/>
<path d="M71.5936 23.3395H72.2749V23.686H71.5936V23.3395Z" fill="#818285"/>
<path d="M72.1725 23.3395H72.8537V23.686H72.1725V23.3395Z" fill="#818285"/>
<path d="M74.6886 20.9925H75.0352V21.3863H74.6886V20.9925ZM74.4248 20.4333H74.7674V20.8271H74.4248V20.4333ZM74.1492 20.9925H74.4957V21.3863H74.1492V20.9925ZM75.1572 23.6821H72.7709V23.3395H73.4364V21.7643H73.7672V23.3395H74.4248V21.7407H74.7713V23.3395H75.1376C75.3581 23.3395 75.429 23.2528 75.429 22.8472V21.7407H75.7755V23.0205C75.7876 23.1071 75.7801 23.1954 75.7534 23.2788C75.7268 23.3621 75.6817 23.4384 75.6216 23.5019C75.5615 23.5655 75.4878 23.6147 75.406 23.6458C75.3243 23.677 75.2366 23.6894 75.1494 23.6821M0.102331 27.4978L0.251968 27.3757C0.354351 27.6383 0.472486 27.7695 0.606372 27.7695C0.664665 27.7687 0.72119 27.7494 0.767823 27.7144C0.819377 27.6738 0.859985 27.621 0.885958 27.5608C0.909465 27.4951 0.921455 27.4258 0.921398 27.356C0.923347 27.2726 0.904395 27.1901 0.866269 27.1158C0.785914 26.9719 0.686579 26.8395 0.570932 26.7221C0.468134 26.622 0.378185 26.5096 0.30316 26.3873C0.240602 26.2658 0.210747 26.1301 0.216528 25.9936C0.215551 25.8957 0.231539 25.7985 0.263782 25.7061C0.297118 25.625 0.349853 25.5533 0.417357 25.4974C0.478703 25.4514 0.553317 25.4265 0.629999 25.4265C0.711767 25.4255 0.791273 25.4534 0.854455 25.5053C0.949317 25.5953 1.02674 25.7021 1.08285 25.8203L0.941087 25.9739C0.900551 25.8847 0.844559 25.8034 0.775699 25.7337C0.734445 25.6968 0.681383 25.6758 0.626061 25.6746C0.592584 25.6747 0.559643 25.683 0.530123 25.6988C0.500603 25.7146 0.475405 25.7374 0.456735 25.7652C0.402115 25.843 0.379554 25.9389 0.39373 26.0329C0.386042 26.0825 0.386042 26.133 0.39373 26.1826C0.413218 26.2414 0.441069 26.2971 0.476424 26.348L0.70088 26.5921C0.824526 26.7128 0.928204 26.8523 1.00803 27.0056C1.06199 27.1215 1.0902 27.2478 1.09072 27.3757C1.09279 27.5403 1.04321 27.7015 0.948963 27.8365C0.912052 27.8945 0.861595 27.9428 0.801922 27.9771C0.74225 28.0114 0.675146 28.0307 0.606372 28.0333C0.498452 28.031 0.395557 27.9873 0.318911 27.9113C0.211132 27.7998 0.130311 27.6651 0.0826416 27.5175" fill="#818285"/>
<path d="M2.83917 26.3244C2.7456 26.3234 2.65529 26.3587 2.58714 26.4228C2.50292 26.4942 2.43907 26.5866 2.40207 26.6906C2.3557 26.8057 2.33293 26.9289 2.33512 27.0529C2.33365 27.1781 2.35638 27.3025 2.40207 27.4191C2.44004 27.5226 2.50373 27.6148 2.58714 27.6869C2.65472 27.7494 2.74317 27.7845 2.83523 27.7853C2.92959 27.7842 3.02042 27.7493 3.09119 27.6869C3.17505 27.6191 3.24013 27.531 3.2802 27.4309C3.32337 27.3043 3.34338 27.1709 3.33927 27.0371C3.34712 26.8534 3.29757 26.6717 3.19751 26.5174C3.16075 26.4544 3.10857 26.4018 3.04587 26.3646C2.98318 26.3274 2.91204 26.3068 2.83917 26.3047M3.49284 26.1275V27.935H3.33139V27.6239C3.27531 27.7296 3.19585 27.8212 3.09906 27.8917C3.01751 27.9496 2.91953 27.98 2.81948 27.9783C2.72597 27.9759 2.6347 27.9492 2.55462 27.9009C2.47454 27.8526 2.4084 27.7842 2.36269 27.7026C2.22748 27.5032 2.15858 27.2662 2.1658 27.0253C2.15919 26.7882 2.22815 26.5552 2.36269 26.3598C2.41006 26.2776 2.47757 26.2089 2.55886 26.16C2.64015 26.111 2.73254 26.0836 2.82735 26.0803C2.92959 26.0803 3.02908 26.1134 3.11087 26.1748C3.20473 26.2531 3.28004 26.3513 3.33139 26.4622V26.1275H3.49284ZM4.61512 25.4541H4.77657V27.9547H4.61512V25.4541ZM6.51315 26.3244C6.4188 26.3255 6.32796 26.3604 6.2572 26.4228C6.17543 26.4948 6.11428 26.5872 6.07999 26.6906C6.03238 26.8054 6.00828 26.9286 6.00911 27.0529C6.00899 27.1784 6.03306 27.3027 6.07999 27.4191C6.11815 27.5215 6.18026 27.6134 6.26113 27.6869C6.33088 27.7484 6.42016 27.7833 6.51315 27.7853C6.60615 27.7833 6.69543 27.7484 6.76518 27.6869C6.84773 27.6188 6.91145 27.5307 6.95025 27.4309C6.99619 27.3048 7.01887 27.1714 7.0172 27.0371C7.02388 26.8529 6.97295 26.6712 6.8715 26.5174C6.83474 26.4544 6.78256 26.4018 6.71986 26.3646C6.65717 26.3274 6.58603 26.3068 6.51315 26.3047M7.16683 26.1275V27.935H7.00538V27.6239C6.9493 27.7296 6.86984 27.8212 6.77305 27.8917C6.6915 27.9496 6.59352 27.98 6.49347 27.9783C6.39963 27.975 6.30815 27.9481 6.22757 27.8999C6.147 27.8516 6.07996 27.7838 6.03274 27.7026C5.90006 27.5024 5.83392 27.2654 5.84372 27.0253C5.83454 26.7891 5.90073 26.556 6.03274 26.3598C6.0804 26.2779 6.14797 26.2093 6.2292 26.1604C6.31043 26.1116 6.40268 26.084 6.4974 26.0803C6.59983 26.0791 6.69969 26.1124 6.78093 26.1748C6.87721 26.2517 6.95409 26.3502 7.00538 26.4622V26.1275H7.16683ZM8.31274 26.1472H8.47419V26.4583C8.51876 26.365 8.57866 26.2798 8.65139 26.2063C8.72202 26.1401 8.81454 26.1022 8.91129 26.0999C8.97552 26.1018 9.03808 26.1208 9.09243 26.1551C9.14693 26.1873 9.1918 26.2335 9.22238 26.289C9.26481 26.3653 9.29535 26.4476 9.31295 26.5331C9.35666 26.4117 9.42657 26.3015 9.51771 26.2102C9.58973 26.1408 9.68546 26.1014 9.78549 26.0999C9.87097 26.1008 9.95282 26.1346 10.0139 26.1945C10.0865 26.2674 10.1382 26.3585 10.1635 26.4583C10.2024 26.6247 10.2183 26.7956 10.2108 26.9663V27.9547H10.0454V26.9663C10.0485 26.8344 10.0393 26.7026 10.0178 26.5725C9.99798 26.5071 9.96442 26.4467 9.91937 26.3953C9.87304 26.353 9.81279 26.3291 9.75005 26.3283C9.7083 26.3297 9.66726 26.3395 9.62937 26.3571C9.59148 26.3747 9.55753 26.3997 9.52953 26.4307C9.46082 26.5053 9.41206 26.5961 9.38777 26.6946C9.35327 26.8775 9.33874 27.0637 9.34445 27.2498V27.9586H9.17512V27.0332C9.1808 26.8843 9.17157 26.7353 9.14756 26.5882C9.1344 26.5179 9.10004 26.4534 9.04911 26.4032C9.02752 26.3797 9.00135 26.361 8.97222 26.3482C8.9431 26.3353 8.91163 26.3285 8.87979 26.3283C8.7976 26.332 8.72 26.3673 8.66321 26.4268C8.59688 26.5037 8.54726 26.5935 8.51751 26.6906C8.48185 26.8562 8.46599 27.0254 8.47025 27.1947V27.9586H8.3088L8.31274 26.1472ZM11.9513 26.3244C11.8583 26.3264 11.769 26.3613 11.6993 26.4228C11.615 26.4934 11.5522 26.5862 11.5181 26.6906C11.4686 26.8048 11.4444 26.9284 11.4472 27.0529C11.4452 27.1786 11.4693 27.3033 11.5181 27.4191C11.5548 27.5223 11.6172 27.6144 11.6993 27.6869C11.7678 27.7506 11.8578 27.7859 11.9513 27.7859C12.0448 27.7859 12.1348 27.7506 12.2033 27.6869C12.2871 27.62 12.3511 27.5315 12.3884 27.4309C12.4364 27.3054 12.4592 27.1715 12.4553 27.0371C12.46 26.8532 12.4092 26.6721 12.3096 26.5174C12.2729 26.4544 12.2207 26.4018 12.158 26.3646C12.0953 26.3274 12.0242 26.3068 11.9513 26.3047M12.601 26.1275V27.935H12.4435V27.6239C12.3863 27.7277 12.3086 27.8188 12.2151 27.8917C12.1328 27.948 12.0353 27.9782 11.9355 27.9783C11.8409 27.9761 11.7485 27.9496 11.6671 27.9013C11.5857 27.853 11.5182 27.7846 11.4709 27.7026C11.3406 27.5013 11.2747 27.2651 11.2819 27.0253C11.2738 26.7886 11.3414 26.5555 11.4748 26.3598C11.5213 26.2777 11.588 26.2089 11.6687 26.1599C11.7494 26.111 11.8412 26.0835 11.9355 26.0803C12.038 26.0791 12.1378 26.1124 12.2191 26.1748C12.3153 26.2517 12.3922 26.3502 12.4435 26.4622V26.1275H12.601ZM16.8224 25.9621L16.6885 26.1118C16.6247 25.9874 16.5314 25.8806 16.4168 25.8007C16.3162 25.7274 16.1947 25.6887 16.0703 25.6904C15.9267 25.6873 15.7868 25.7362 15.6765 25.8282C15.5529 25.9334 15.4592 26.0692 15.4048 26.222C15.3363 26.3921 15.3029 26.5743 15.3063 26.7576C15.298 27.0223 15.3738 27.2829 15.5229 27.5018C15.5819 27.5931 15.663 27.6681 15.7587 27.7197C15.8544 27.7713 15.9615 27.798 16.0703 27.7971C16.1969 27.7921 16.3198 27.7528 16.4259 27.6835C16.532 27.6142 16.6173 27.5173 16.6727 27.4034L16.8066 27.5491C16.7314 27.6941 16.6202 27.8175 16.4837 27.9074C16.3573 27.9931 16.2072 28.0372 16.0545 28.0334C15.9106 28.033 15.7695 27.9931 15.6466 27.9182C15.5237 27.8432 15.4237 27.736 15.3575 27.6081C15.2082 27.3429 15.1334 27.0422 15.1409 26.7379C15.1306 26.4163 15.2246 26.1 15.4087 25.8361C15.465 25.748 15.5382 25.6721 15.6242 25.6126C15.7102 25.5531 15.8071 25.5114 15.9093 25.4897C16.0116 25.4681 16.1171 25.4671 16.2198 25.4866C16.3225 25.5062 16.4202 25.546 16.5074 25.6038C16.6433 25.707 16.7516 25.8423 16.8224 25.9976M18.5078 26.3244C18.4362 26.3274 18.3666 26.3489 18.3059 26.3869C18.2451 26.4249 18.1953 26.478 18.1612 26.541C18.0574 26.694 18.005 26.876 18.0116 27.0608C18.0113 27.1859 18.034 27.31 18.0785 27.427C18.1148 27.5271 18.1758 27.6165 18.2557 27.6869C18.3265 27.7458 18.4157 27.7781 18.5078 27.7781C18.5999 27.7781 18.689 27.7458 18.7598 27.6869C18.841 27.6176 18.9021 27.5279 18.937 27.427C18.9846 27.3108 19.0087 27.1863 19.0079 27.0608C19.012 26.8769 18.9613 26.6959 18.8622 26.541C18.8257 26.4783 18.7742 26.4257 18.7123 26.3879C18.6505 26.3501 18.5802 26.3283 18.5078 26.3244ZM18.5078 26.0999C18.6087 26.1028 18.7071 26.1324 18.7928 26.1856C18.8786 26.2389 18.9487 26.314 18.9961 26.4032C19.1147 26.602 19.1773 26.8292 19.1773 27.0608C19.1773 27.2923 19.1147 27.5195 18.9961 27.7184C18.9468 27.8045 18.8758 27.876 18.79 27.9258C18.7043 27.9756 18.6069 28.0018 18.5078 28.0019C18.4105 28.0001 18.3153 27.9735 18.2312 27.9245C18.1472 27.8756 18.077 27.806 18.0274 27.7223C17.9052 27.5236 17.8423 27.294 17.8462 27.0608C17.8476 26.8358 17.9131 26.6158 18.0352 26.4268C18.081 26.3369 18.1502 26.261 18.2354 26.2069C18.3206 26.1529 18.4187 26.1227 18.5196 26.1196M20.8705 26.3244C20.799 26.3278 20.7296 26.3495 20.6689 26.3874C20.6082 26.4253 20.5583 26.4782 20.5239 26.541C20.4215 26.6944 20.3705 26.8764 20.3782 27.0608C20.3767 27.1857 20.3981 27.3098 20.4412 27.427C20.4804 27.5256 20.541 27.6144 20.6184 27.6869C20.6893 27.7456 20.7785 27.7776 20.8705 27.7775C20.9615 27.7792 21.05 27.7469 21.1185 27.6869C21.2021 27.6189 21.2648 27.5289 21.2997 27.427C21.3473 27.3108 21.3714 27.1863 21.3706 27.0608C21.3753 26.8763 21.3231 26.6947 21.2209 26.541C21.1856 26.4781 21.135 26.4253 21.0737 26.3874C21.0124 26.3495 20.9424 26.3279 20.8705 26.3244ZM20.8705 26.0999C20.971 26.1023 21.0691 26.1317 21.1543 26.185C21.2395 26.2384 21.3088 26.3137 21.3548 26.4032C21.4791 26.5981 21.5422 26.8257 21.536 27.0568C21.5412 27.2908 21.4767 27.5211 21.3509 27.7184C21.302 27.803 21.2321 27.8736 21.1479 27.9233C21.0638 27.973 20.9682 28.0001 20.8705 28.0019C20.7735 28.001 20.6786 27.9746 20.595 27.9256C20.5114 27.8765 20.4421 27.8065 20.394 27.7223C20.2753 27.5242 20.2126 27.2976 20.2126 27.0667C20.2126 26.8357 20.2753 26.6091 20.394 26.411C20.4401 26.3214 20.5093 26.2457 20.5945 26.1917C20.6796 26.1377 20.7776 26.1074 20.8783 26.1039M23.2686 26.3244C23.1957 26.3265 23.1246 26.3471 23.0619 26.3843C22.9992 26.4215 22.947 26.4741 22.9103 26.537C22.812 26.6922 22.7627 26.8733 22.7685 27.0568C22.7634 27.191 22.7848 27.3248 22.8315 27.4506C22.8703 27.5504 22.934 27.6385 23.0166 27.7066C23.0873 27.769 23.1782 27.8039 23.2725 27.805C23.3642 27.8021 23.4519 27.7673 23.5206 27.7066C23.604 27.6352 23.6665 27.5427 23.7018 27.4388C23.7505 27.323 23.7747 27.1983 23.7726 27.0726C23.7748 26.9486 23.7521 26.8254 23.7057 26.7103C23.6687 26.6063 23.6048 26.5139 23.5206 26.4425C23.452 26.3791 23.362 26.3439 23.2686 26.3441M22.6189 26.1669H22.7803V26.5016C22.8305 26.3899 22.906 26.2915 23.0008 26.2141C23.0821 26.1517 23.1819 26.1185 23.2843 26.1196C23.3787 26.1229 23.4705 26.1503 23.5512 26.1993C23.6319 26.2482 23.6986 26.3171 23.7451 26.3992C23.8796 26.5946 23.9486 26.8276 23.942 27.0647C23.948 27.3048 23.8807 27.5411 23.749 27.742C23.7021 27.8234 23.6351 27.8915 23.5545 27.9397C23.4738 27.988 23.3822 28.0148 23.2883 28.0177C23.1882 28.0194 23.0903 27.989 23.0087 27.931C22.9142 27.8592 22.8363 27.7679 22.7803 27.6633V28.6359H22.6189V26.1669ZM26.096 26.8678C26.0806 26.7649 26.0487 26.6652 26.0014 26.5725C25.9614 26.4999 25.9047 26.4378 25.8361 26.3913C25.7505 26.3348 25.6463 26.3139 25.5455 26.333C25.4448 26.3521 25.3555 26.4098 25.2966 26.4937C25.2171 26.6117 25.1659 26.7465 25.1469 26.8875L26.096 26.8678ZM26.096 27.3561L26.2298 27.4585C26.1953 27.5664 26.1449 27.6686 26.0802 27.7617C26.0259 27.8352 25.9559 27.8957 25.8754 27.9389C25.7994 27.9801 25.7138 28.0004 25.6274 27.998C25.5274 27.9996 25.4289 27.9736 25.3428 27.9229C25.2566 27.8722 25.1861 27.7987 25.1391 27.7105C25.0218 27.5127 24.9606 27.2868 24.9619 27.0568C24.9585 26.8427 25.0101 26.6312 25.1115 26.4425C25.154 26.3435 25.2241 26.2589 25.3135 26.1988C25.403 26.1388 25.5078 26.1058 25.6155 26.1039C25.7261 26.1064 25.8337 26.1403 25.9258 26.2016C26.0178 26.263 26.0905 26.3493 26.1353 26.4504C26.2327 26.6416 26.2801 26.8542 26.2732 27.0687H25.1312C25.1273 27.2507 25.1766 27.43 25.2729 27.5845C25.3068 27.6448 25.3559 27.695 25.4154 27.7303C25.4748 27.7655 25.5425 27.7845 25.6116 27.7853C25.6765 27.7874 25.7407 27.7711 25.7967 27.7381C25.8591 27.7085 25.9143 27.6655 25.9581 27.6121C26.0149 27.533 26.0612 27.447 26.096 27.3561ZM27.3009 26.1472H27.4663V26.4268C27.5036 26.3401 27.5571 26.2612 27.6238 26.1945C27.6691 26.1466 27.7313 26.1183 27.7971 26.1157C27.8507 26.1177 27.9015 26.1403 27.9389 26.1787L27.8562 26.3717C27.8297 26.3555 27.8002 26.3448 27.7695 26.3402C27.7371 26.3441 27.706 26.3549 27.6781 26.3719C27.6503 26.3889 27.6264 26.4116 27.6081 26.4386C27.5513 26.5287 27.5125 26.629 27.4939 26.7339C27.4692 26.9417 27.46 27.151 27.4663 27.36V27.9704H27.3009V26.1472ZM29.4707 26.3244C29.3777 26.3264 29.2884 26.3613 29.2186 26.4228C29.1356 26.4945 29.0731 26.5869 29.0375 26.6906C28.9911 26.8057 28.9684 26.9289 28.9706 27.0529C28.9711 27.178 28.9937 27.302 29.0375 27.4191C29.0742 27.5223 29.1365 27.6144 29.2186 27.6869C29.2897 27.7469 29.3797 27.7798 29.4726 27.7798C29.5656 27.7798 29.6556 27.7469 29.7266 27.6869C29.8092 27.6188 29.8729 27.5307 29.9117 27.4309C29.9584 27.3051 29.9798 27.1713 29.9747 27.0371C29.9814 26.8529 29.9305 26.6712 29.829 26.5174C29.7923 26.4544 29.7401 26.4018 29.6774 26.3646C29.6147 26.3274 29.5435 26.3068 29.4707 26.3047M30.1283 26.1275V27.935H29.9668V27.6239C29.9095 27.7287 29.8302 27.8201 29.7345 27.8917C29.6526 27.9489 29.5549 27.9792 29.4549 27.9783C29.3609 27.9758 29.2691 27.9491 29.1884 27.9008C29.1077 27.8526 29.0408 27.7843 28.9942 27.7026C28.8604 27.5027 28.7929 27.2658 28.8012 27.0253C28.7932 26.7886 28.8608 26.5555 28.9942 26.3598C29.0419 26.2771 29.11 26.208 29.1921 26.159C29.2741 26.1101 29.3673 26.083 29.4628 26.0803C29.5637 26.0808 29.6618 26.114 29.7424 26.1748C29.8387 26.2517 29.9155 26.3502 29.9668 26.4622V26.1275H30.1283ZM31.416 25.4778H31.5813V26.1472H31.8412V26.348H31.5813V27.9547H31.416V26.348H31.1954V26.1472H31.416V25.4778ZM32.8414 26.1472H33.0029V27.9547H32.8414V26.1472ZM32.9241 25.403C32.9435 25.4043 32.9623 25.4103 32.9788 25.4206C32.9953 25.4309 33.009 25.4452 33.0186 25.462C33.0438 25.502 33.0562 25.5487 33.0541 25.5959C33.0554 25.643 33.0431 25.6895 33.0186 25.7298C33.0091 25.747 32.9951 25.7614 32.9782 25.7714C32.9612 25.7814 32.9419 25.7867 32.9222 25.7867C32.9025 25.7867 32.8831 25.7814 32.8662 25.7714C32.8492 25.7614 32.8352 25.747 32.8257 25.7298C32.8012 25.6895 32.7889 25.643 32.7903 25.5959C32.7882 25.5487 32.8005 25.502 32.8257 25.462C32.8357 25.4446 32.85 25.4301 32.8673 25.4197C32.8845 25.4094 32.9041 25.4036 32.9241 25.403ZM34.0031 26.1472H34.1764L34.6056 27.4624L35.0269 26.1472H35.2002L34.6174 27.9547H34.5898L34.0031 26.1472ZM37.2991 26.8678C37.2837 26.7649 37.2518 26.6652 37.2046 26.5725C37.1668 26.4983 37.1096 26.4357 37.0392 26.3913C36.9536 26.3348 36.8494 26.3139 36.7486 26.333C36.6479 26.3521 36.5586 26.4098 36.4997 26.4937C36.422 26.6127 36.3709 26.747 36.35 26.8875L37.2991 26.8678ZM37.2991 27.3561L37.4369 27.4585C37.4011 27.5667 37.3493 27.6689 37.2833 27.7617C37.2295 27.8342 37.1611 27.8945 37.0825 27.9389C37.004 27.9811 36.9156 28.0014 36.8265 27.998C36.7273 27.9985 36.6298 27.972 36.5445 27.9213C36.4592 27.8707 36.3893 27.7978 36.3422 27.7105C36.2263 27.5123 36.1664 27.2864 36.1689 27.0568C36.1636 26.8424 36.2152 26.6305 36.3185 26.4425C36.3607 26.3441 36.4303 26.2599 36.5189 26.1999C36.6076 26.1399 36.7116 26.1065 36.8186 26.1039C36.9292 26.1064 37.0369 26.1403 37.1289 26.2016C37.2209 26.263 37.2936 26.3493 37.3384 26.4504C37.4373 26.6412 37.4861 26.8539 37.4802 27.0687H36.3343C36.3297 27.2514 36.3805 27.4312 36.48 27.5845C36.5135 27.6442 36.562 27.6941 36.6207 27.7293C36.6794 27.7645 36.7463 27.7838 36.8147 27.7853C36.8809 27.7876 36.9464 27.7712 37.0037 27.7381C37.0643 27.7073 37.1179 27.6644 37.1612 27.6121C37.218 27.533 37.2643 27.447 37.2991 27.3561ZM40.0122 25.5132H40.1815V27.9547H40.0122V25.5132ZM41.3471 26.1472H41.5125V26.4701C41.5623 26.3626 41.6364 26.2682 41.7291 26.1945C41.8015 26.1326 41.8938 26.099 41.989 26.0999C42.0351 26.0997 42.0808 26.1086 42.1234 26.1261C42.166 26.1437 42.2046 26.1696 42.2371 26.2023C42.3174 26.2788 42.3759 26.3753 42.4064 26.4819C42.4478 26.6586 42.465 26.8401 42.4576 27.0214V27.9547H42.2922V27.0923C42.304 26.9534 42.304 26.8138 42.2922 26.6749C42.2669 26.5778 42.2118 26.491 42.1347 26.4268C42.1087 26.3963 42.0759 26.3723 42.039 26.3566C42.0021 26.3409 41.9621 26.3339 41.9221 26.3362C41.8706 26.3381 41.8202 26.3515 41.7746 26.3754C41.729 26.3992 41.6892 26.4329 41.6582 26.474C41.5772 26.5743 41.523 26.6936 41.5007 26.8206C41.4892 26.9844 41.4892 27.1489 41.5007 27.3128V27.9744H41.3471V26.1472ZM44.206 26.3441L44.0997 26.5016C44.0131 26.3756 43.9304 26.3165 43.8477 26.3165C43.8204 26.317 43.7936 26.324 43.7696 26.337C43.7456 26.35 43.7251 26.3687 43.7098 26.3913C43.6707 26.442 43.6499 26.5045 43.6508 26.5685C43.6498 26.6271 43.6662 26.6847 43.698 26.7339C43.7495 26.8102 43.8166 26.8746 43.8949 26.923C43.9958 26.9918 44.0805 27.0818 44.143 27.1868C44.1914 27.2914 44.2125 27.4067 44.2042 27.5217C44.196 27.6367 44.1586 27.7477 44.0957 27.8444C44.0671 27.8909 44.0272 27.9293 43.9797 27.9562C43.9322 27.9831 43.8786 27.9974 43.824 27.998C43.7479 27.9983 43.6736 27.9749 43.6114 27.931C43.5417 27.8841 43.4848 27.8205 43.446 27.746L43.5484 27.5766C43.635 27.7145 43.7256 27.7775 43.8162 27.7775C43.8487 27.7775 43.8807 27.7696 43.9095 27.7545C43.9383 27.7394 43.9631 27.7176 43.9816 27.6908C44.0286 27.63 44.0536 27.5551 44.0524 27.4782C44.0537 27.4158 44.0373 27.3544 44.0052 27.301C43.9486 27.2253 43.8793 27.1601 43.8004 27.108C43.7039 27.0455 43.6241 26.9604 43.5681 26.8599C43.5229 26.7737 43.4999 26.6777 43.5011 26.5804C43.4953 26.4591 43.5314 26.3394 43.6035 26.2417C43.6292 26.1988 43.6655 26.1632 43.709 26.1383C43.7524 26.1135 43.8016 26.1003 43.8516 26.0999C43.9256 26.1103 43.9962 26.1377 44.0577 26.1801C44.1192 26.2225 44.17 26.2786 44.206 26.3441ZM45.2535 26.1472H45.4189V26.9899C45.4129 27.1334 45.4208 27.2771 45.4425 27.4191C45.4583 27.5167 45.5052 27.6065 45.5764 27.6751C45.6065 27.7076 45.643 27.7335 45.6837 27.7512C45.7244 27.7688 45.7683 27.7778 45.8126 27.7775C45.8994 27.7773 45.9827 27.7434 46.045 27.683C46.1092 27.6125 46.1552 27.5273 46.1789 27.4349C46.1975 27.2873 46.2054 27.1386 46.2025 26.9899V26.1472H46.3679V27.0332C46.3758 27.223 46.3546 27.413 46.3049 27.5963C46.2733 27.7098 46.2105 27.8121 46.1237 27.8917C46.037 27.9648 45.926 28.0028 45.8126 27.998C45.6992 28.0035 45.5879 27.9655 45.5016 27.8917C45.4127 27.8115 45.3485 27.7077 45.3165 27.5924C45.2664 27.4051 45.2452 27.2112 45.2535 27.0175V26.1472ZM47.4468 26.1472H47.6162V26.4268C47.6535 26.3401 47.7069 26.2612 47.7737 26.1945C47.8177 26.1471 47.8785 26.1189 47.943 26.1157C47.9988 26.118 48.052 26.1404 48.0926 26.1787L48.0021 26.3717C47.9769 26.3557 47.9488 26.345 47.9194 26.3402C47.8875 26.3439 47.8568 26.3546 47.8295 26.3716C47.8023 26.3887 47.7792 26.4115 47.7619 26.4386C47.7 26.5261 47.6608 26.6276 47.6477 26.7339C47.621 26.9415 47.6105 27.1508 47.6162 27.36V27.9704H47.4468V26.1472ZM49.6166 26.3244C49.5222 26.3255 49.4314 26.3604 49.3606 26.4228C49.2788 26.4955 49.2165 26.5876 49.1795 26.6906C49.1337 26.806 49.1096 26.9288 49.1086 27.0529C49.1105 27.1782 49.1345 27.3022 49.1795 27.4191C49.2189 27.5219 49.2824 27.6137 49.3646 27.6869C49.4333 27.7476 49.521 27.7824 49.6126 27.7853C49.707 27.7842 49.7978 27.7493 49.8686 27.6869C49.9511 27.6188 50.0149 27.5307 50.0537 27.4309C50.1017 27.3054 50.1245 27.1715 50.1206 27.0371C50.1259 26.8526 50.0736 26.6709 49.971 26.5174C49.9355 26.4542 49.8841 26.4014 49.8219 26.3641C49.7598 26.3268 49.689 26.3063 49.6166 26.3047M50.2703 26.1275V27.935H50.1049V27.6239C50.0499 27.7292 49.9718 27.8208 49.8765 27.8917C49.7949 27.9496 49.6969 27.98 49.5969 27.9783C49.5029 27.9758 49.4111 27.9491 49.3304 27.9008C49.2497 27.8526 49.1828 27.7843 49.1362 27.7026C49.0023 27.5027 48.9348 27.2658 48.9432 27.0253C48.9352 26.7886 49.0028 26.5555 49.1362 26.3598C49.1841 26.2781 49.2517 26.2097 49.3329 26.1609C49.4141 26.1121 49.5062 26.0843 49.6008 26.0803C49.7033 26.0791 49.8031 26.1124 49.8843 26.1748C49.9805 26.2508 50.0563 26.3496 50.1049 26.4622V26.1275H50.2703ZM51.424 26.1472H51.5855V26.4701C51.6378 26.3642 51.7115 26.2703 51.8021 26.1945C51.8768 26.134 51.9698 26.1007 52.0659 26.0999C52.1599 26.1005 52.2502 26.1371 52.3179 26.2023C52.3959 26.2793 52.4516 26.3759 52.4794 26.4819C52.5225 26.6583 52.5411 26.8399 52.5345 27.0214V27.9547H52.3731V27.0923C52.3783 26.9528 52.3717 26.8132 52.3534 26.6749C52.345 26.5764 52.3065 26.4829 52.2431 26.4071C52.2187 26.3768 52.1873 26.3527 52.1517 26.337C52.1161 26.3212 52.0772 26.3142 52.0383 26.3165C51.9862 26.3176 51.9349 26.3306 51.8885 26.3544C51.8421 26.3783 51.8018 26.4125 51.7706 26.4544C51.6895 26.5546 51.6353 26.6739 51.6131 26.8009C51.5951 26.9643 51.5872 27.1287 51.5894 27.2931V27.9547H51.428L51.424 26.1472ZM54.8972 26.5213L54.7673 26.6394C54.7302 26.5469 54.6668 26.4674 54.5849 26.4107C54.5029 26.354 54.4061 26.3226 54.3065 26.3205C54.2286 26.3191 54.1516 26.3375 54.0827 26.374C54.0139 26.4105 53.9554 26.4639 53.9127 26.5292C53.806 26.6809 53.752 26.8635 53.7592 27.049C53.7587 27.1758 53.7828 27.3014 53.8301 27.4191C53.8668 27.5253 53.9339 27.6184 54.023 27.6869C54.1014 27.7522 54.2006 27.7871 54.3026 27.7853C54.4006 27.7807 54.4953 27.7483 54.5755 27.6918C54.6557 27.6353 54.7181 27.5571 54.7554 27.4664L54.8854 27.5924C54.8317 27.713 54.7459 27.8165 54.6373 27.8917C54.5368 27.9646 54.4149 28.002 54.2908 27.998C54.1917 27.9985 54.0941 27.9743 54.0067 27.9276C53.9194 27.8808 53.8451 27.813 53.7907 27.7302C53.6537 27.5358 53.5833 27.3024 53.5898 27.0647C53.5891 26.899 53.6198 26.7346 53.6804 26.5804C53.738 26.4434 53.827 26.322 53.9403 26.226C54.0435 26.1446 54.1711 26.1002 54.3026 26.0999C54.3875 26.1003 54.4711 26.1205 54.5467 26.159C54.6223 26.1909 54.6906 26.2378 54.7476 26.2968C54.8038 26.3649 54.8502 26.4404 54.8854 26.5213M57.063 26.8678C57.0465 26.7647 57.0132 26.6649 56.9646 26.5725C56.9268 26.4983 56.8697 26.4357 56.7992 26.3913C56.7351 26.3483 56.6598 26.325 56.5826 26.3244C56.5198 26.3251 56.458 26.3409 56.4026 26.3703C56.3471 26.3998 56.2994 26.4421 56.2636 26.4937C56.1806 26.6099 56.129 26.7455 56.114 26.8875L57.063 26.8678ZM57.063 27.3561L57.2008 27.4585C57.1639 27.5669 57.1108 27.6691 57.0433 27.7617C56.9904 27.835 56.9218 27.8955 56.8425 27.9389C56.7652 27.9806 56.6782 28.0009 56.5905 27.998C56.4912 27.9989 56.3935 27.9726 56.3081 27.9219C56.2228 27.8712 56.1529 27.7981 56.1061 27.7105C55.9872 27.5134 55.9258 27.287 55.9289 27.0568C55.9262 26.8432 55.9763 26.6322 56.0746 26.4425C56.1182 26.3435 56.1891 26.259 56.2791 26.199C56.3691 26.139 56.4744 26.106 56.5826 26.1039C56.6926 26.1066 56.7996 26.1407 56.891 26.2021C56.9823 26.2634 57.0543 26.3496 57.0984 26.4504C57.199 26.6405 57.2479 26.8537 57.2402 27.0687H56.0982C56.0932 27.2503 56.1411 27.4296 56.2361 27.5845C56.2699 27.6448 56.319 27.695 56.3785 27.7303C56.4379 27.7655 56.5056 27.7845 56.5747 27.7853C56.6409 27.7876 56.7064 27.7712 56.7637 27.7381C56.8243 27.7073 56.8779 27.6644 56.9212 27.6121C56.978 27.5324 57.0256 27.4465 57.063 27.3561ZM61.3985 25.9621L61.2568 26.1118C61.1977 25.9867 61.1067 25.8794 60.993 25.8007C60.892 25.7281 60.7707 25.6895 60.6464 25.6904C60.5028 25.6873 60.3629 25.7362 60.2526 25.8282C60.1278 25.9322 60.0339 26.0684 59.9809 26.222C59.9125 26.3921 59.879 26.5743 59.8825 26.7576C59.8727 27.0219 59.9472 27.2825 60.0951 27.5018C60.1538 27.5926 60.2342 27.6672 60.3292 27.7188C60.4241 27.7704 60.5305 27.7973 60.6386 27.7971C60.7654 27.793 60.8887 27.754 60.9949 27.6846C61.1012 27.6152 61.1863 27.5179 61.241 27.4034L61.3828 27.5491C61.3061 27.6944 61.1936 27.8177 61.056 27.9074C60.9306 27.9792 60.7866 28.0121 60.6425 28.0019C60.4965 28.0037 60.353 27.9648 60.2278 27.8897C60.1026 27.8146 60.0008 27.7062 59.9337 27.5766C59.7782 27.3136 59.7004 27.0118 59.7092 26.7064C59.6989 26.3848 59.7929 26.0685 59.977 25.8046C60.0485 25.6931 60.147 25.6015 60.2633 25.5382C60.3796 25.4749 60.51 25.4419 60.6425 25.4423C60.7955 25.4405 60.9454 25.4859 61.0717 25.5723C61.21 25.6751 61.3209 25.8103 61.3946 25.9661M63.0957 26.3244C63.0238 26.3279 62.9538 26.3495 62.8925 26.3874C62.8312 26.4253 62.7806 26.4781 62.7453 26.541C62.6445 26.6952 62.5937 26.8767 62.5996 27.0608C62.5974 27.1861 62.6202 27.3106 62.6665 27.427C62.7028 27.5271 62.7638 27.6165 62.8437 27.6869C62.9146 27.7456 63.0037 27.7776 63.0957 27.7775C63.1868 27.7792 63.2753 27.7469 63.3438 27.6869C63.425 27.6168 63.4873 27.5274 63.525 27.427C63.5707 27.3103 63.5948 27.1862 63.5959 27.0608C63.6006 26.8763 63.5483 26.6947 63.4462 26.541C63.4106 26.4784 63.3599 26.4257 63.2987 26.3879C63.2374 26.35 63.1676 26.3282 63.0957 26.3244ZM63.0957 26.0999C63.1966 26.1032 63.2948 26.1329 63.3805 26.1862C63.4662 26.2394 63.5364 26.3142 63.584 26.4032C63.7024 26.6003 63.7625 26.827 63.7573 27.0568C63.7625 27.2908 63.6981 27.5211 63.5722 27.7184C63.5245 27.8028 63.4553 27.873 63.3716 27.9218C63.2878 27.9706 63.1927 27.9964 63.0957 27.9964C62.9988 27.9964 62.9037 27.9706 62.8199 27.9218C62.7362 27.873 62.667 27.8028 62.6193 27.7184C62.492 27.5215 62.4262 27.2912 62.4303 27.0568C62.4325 26.8343 62.4951 26.6165 62.6114 26.4268C62.6588 26.3365 62.7294 26.2605 62.8159 26.2066C62.9024 26.1526 63.0017 26.1226 63.1036 26.1196M64.8402 26.1472H64.9977V26.4583C65.0423 26.365 65.1022 26.2798 65.1749 26.2063C65.2465 26.1392 65.3406 26.1013 65.4388 26.0999C65.5019 26.1006 65.5636 26.1198 65.616 26.1551C65.6708 26.1882 65.7168 26.2341 65.7498 26.289C65.7923 26.3653 65.8228 26.4476 65.8404 26.5331C65.8826 26.411 65.9528 26.3005 66.0452 26.2102C66.1162 26.1417 66.2104 26.1023 66.309 26.0999C66.3959 26.0997 66.4793 26.1337 66.5413 26.1945C66.6139 26.2674 66.6656 26.3585 66.691 26.4583C66.7296 26.6247 66.7468 26.7955 66.7422 26.9663V27.9547H66.5729V26.9663C66.5793 26.8342 66.5687 26.7019 66.5413 26.5725C66.5257 26.5062 66.4931 26.4452 66.4468 26.3953C66.3993 26.3524 66.3376 26.3286 66.2736 26.3283C66.2324 26.3298 66.192 26.3396 66.1547 26.3572C66.1175 26.3748 66.0843 26.3998 66.057 26.4307C65.9869 26.5044 65.938 26.5955 65.9152 26.6946C65.8751 26.8768 65.8579 27.0633 65.864 27.2498V27.9586H65.7065V27.0332C65.7115 26.8842 65.701 26.7351 65.675 26.5882C65.6634 26.5174 65.6288 26.4524 65.5766 26.4032C65.5554 26.3802 65.5299 26.3618 65.5015 26.3489C65.4731 26.3361 65.4424 26.3291 65.4112 26.3283C65.3289 26.3316 65.2512 26.3669 65.1946 26.4268C65.1268 26.5027 65.077 26.5928 65.0489 26.6906C65.0095 26.8556 64.9923 27.0251 64.9977 27.1947V27.9586H64.8402V26.1472ZM68.5181 26.3244C68.4457 26.326 68.3749 26.3465 68.3128 26.3838C68.2506 26.4211 68.1993 26.4739 68.1637 26.537C68.0594 26.6898 68.0069 26.872 68.0141 27.0568C68.0112 27.1908 68.0325 27.3242 68.0771 27.4506C68.1159 27.5514 68.1812 27.6399 68.2661 27.7066C68.3369 27.769 68.4277 27.8039 68.5221 27.805C68.6137 27.8021 68.7014 27.7673 68.7702 27.7066C68.8523 27.6341 68.9146 27.542 68.9513 27.4388C68.997 27.3222 69.0197 27.1978 69.0182 27.0726C69.0204 26.9486 68.9977 26.8254 68.9513 26.7103C68.9157 26.6066 68.8532 26.5142 68.7702 26.4425C68.7004 26.381 68.6111 26.3461 68.5181 26.3441M67.8605 26.1669H68.0298V26.5016C68.0789 26.3904 68.153 26.292 68.2464 26.2141C68.3282 26.1528 68.4277 26.1196 68.5299 26.1196C68.6247 26.1234 68.7169 26.1509 68.7981 26.1998C68.8794 26.2487 68.947 26.3173 68.9946 26.3992C69.128 26.5949 69.1956 26.828 69.1876 27.0647C69.1948 27.3044 69.1288 27.5407 68.9986 27.742C68.9507 27.8235 68.883 27.8915 68.8017 27.9397C68.7205 27.9879 68.6283 28.0147 68.5339 28.0177C68.4339 28.0186 68.3362 27.9883 68.2543 27.931C68.1604 27.8597 68.0837 27.7682 68.0298 27.6633V28.6359H67.8605V26.1669ZM70.8808 26.3244C70.7874 26.3242 70.6974 26.3594 70.6288 26.4228C70.5446 26.4942 70.4807 26.5866 70.4437 26.6906C70.3974 26.8057 70.3746 26.9289 70.3768 27.0529C70.3773 27.178 70.4 27.302 70.4437 27.4191C70.4831 27.5229 70.5481 27.615 70.6327 27.6869C70.7003 27.7494 70.7888 27.7845 70.8808 27.7853C70.9738 27.7833 71.0631 27.7484 71.1329 27.6869C71.2167 27.6191 71.2818 27.531 71.3219 27.4309C71.3665 27.3045 71.3878 27.1711 71.3849 27.0371C71.3895 26.8532 71.3388 26.6721 71.2392 26.5174C71.2024 26.4544 71.1502 26.4018 71.0875 26.3646C71.0248 26.3274 70.9537 26.3068 70.8808 26.3047M71.5345 26.1275V27.935H71.3731V27.6239C71.3159 27.7277 71.2382 27.8188 71.1447 27.8917C71.0623 27.948 70.9649 27.9782 70.8651 27.9783C70.7707 27.9753 70.6785 27.9485 70.5972 27.9003C70.516 27.8521 70.4483 27.7841 70.4004 27.7026C70.2701 27.5013 70.2042 27.2651 70.2114 27.0253C70.2034 26.7886 70.271 26.5555 70.4044 26.3598C70.452 26.2779 70.5196 26.2093 70.6008 26.1604C70.682 26.1116 70.7743 26.084 70.869 26.0803C70.9713 26.0803 71.0707 26.1134 71.1525 26.1748C71.2487 26.2508 71.3245 26.3496 71.3731 26.4622V26.1275H71.5345ZM72.6883 26.1472H72.8497V26.4701C72.8992 26.3635 72.9718 26.2693 73.0624 26.1945C73.1356 26.1341 73.2274 26.1007 73.3223 26.0999C73.369 26.0996 73.4153 26.1084 73.4585 26.126C73.5018 26.1436 73.5411 26.1695 73.5743 26.2023C73.6534 26.2791 73.7105 26.3756 73.7397 26.4819C73.7811 26.6586 73.7983 26.8401 73.7909 27.0214V27.9547H73.6373V27.0923C73.6484 26.9534 73.6484 26.8138 73.6373 26.6749C73.6255 26.5773 73.5873 26.4847 73.527 26.4071C73.5014 26.3772 73.4693 26.3535 73.4331 26.3378C73.397 26.3221 73.3577 26.3148 73.3183 26.3165C73.2662 26.3179 73.2151 26.331 73.1687 26.3548C73.1223 26.3787 73.082 26.4127 73.0506 26.4544C72.9692 26.554 72.9162 26.6737 72.897 26.8009C72.8854 26.9648 72.8854 27.1292 72.897 27.2931V27.9547H72.7277L72.6883 26.1472ZM74.795 26.1472H74.9683L75.4015 27.5373L75.8267 26.1472H76L75.2439 28.6162H75.0707L75.3148 27.8168L74.795 26.1472Z" fill="#818285"/>
</g>
</svg>
