<svg width="76" height="22" viewBox="0 0 76 22" fill="none" xmlns="http://www.w3.org/2000/svg">
<path d="M28.7973 14.8285C28.7173 14.6687 28.6973 14.4888 28.7773 14.3289V14.229H27.9779L26.3192 18.1459H27.0386L27.2785 17.5464H28.9971L29.2369 18.1459H30.1162L28.7973 14.8285ZM27.4783 16.9868L27.838 16.1075C28.0179 15.7078 28.1178 15.448 28.1378 15.3881C28.2177 15.5679 28.3176 15.8078 28.4375 16.1075L28.7973 16.9868H27.4783Z" fill="#6D6E71"/>
<path d="M31.2953 18.1258H30.5559V14.1489H31.2953V18.1258Z" fill="#6D6E71"/>
<path d="M35.0323 16.9667C35.0523 17.3664 34.8525 17.7461 34.5127 17.926C34.153 18.1058 33.7733 18.1858 33.3736 18.1658C32.894 18.1658 32.4144 18.0658 31.9747 17.906L32.1346 17.3264C32.4943 17.4663 32.894 17.5263 33.2737 17.5463C33.8732 17.5463 34.193 17.3664 34.193 17.0267C34.193 16.8068 33.9931 16.627 33.5935 16.5271C32.894 16.3272 32.5143 16.2273 32.4943 16.2273C32.1146 16.0874 31.8748 15.7477 31.8948 15.348C31.8748 14.9483 32.0747 14.5686 32.4144 14.3887C32.7541 14.1889 33.1538 14.109 33.5535 14.129C34.0131 14.129 34.4728 14.2289 34.8924 14.4287L34.7126 14.9883C34.3928 14.8284 34.0331 14.7485 33.6534 14.7485C33.0539 14.7485 32.7741 14.9083 32.7741 15.2281C32.7741 15.4279 32.9739 15.5678 33.3536 15.6677C33.7134 15.7677 34.0731 15.8676 34.4328 15.9875C34.8125 16.1873 35.0523 16.567 35.0323 16.9667Z" fill="#6D6E71"/>
<path d="M48.0621 18.1259H47.2228V14.229H48.0621V18.1259Z" fill="#6D6E71"/>
<path d="M55.1365 17.1267C55.1565 17.4264 55.0366 17.7062 54.7967 17.8661C54.477 18.0859 54.1173 18.1858 53.7176 18.1658C53.2779 18.1658 52.8383 18.0859 52.4386 17.926C52.4586 17.8261 52.5185 17.6662 52.5985 17.4264C52.9182 17.5663 53.258 17.6463 53.6177 17.6463C54.1373 17.6463 54.3971 17.5064 54.3771 17.2466C54.3771 17.1067 54.1972 17.0068 53.8775 16.9468C53.5777 16.8869 53.258 16.8069 52.9582 16.707C52.6584 16.6071 52.4586 16.3273 52.4586 16.0275C52.4386 15.7278 52.5785 15.448 52.8183 15.2681C53.138 15.0683 53.4978 14.9684 53.8975 14.9883C54.2971 14.9883 54.6968 15.0683 55.0765 15.2082L54.9166 15.7078C54.6169 15.5879 54.2971 15.5279 53.9774 15.5279C53.4578 15.5279 53.198 15.6478 53.218 15.9076C53.218 16.0275 53.3978 16.1274 53.7376 16.2074C54.0573 16.2673 54.3571 16.3473 54.6568 16.4472C54.9366 16.5471 55.1365 16.8069 55.1365 17.1267Z" fill="#6D6E71"/>
<path d="M58.6337 18.1259H58.154L57.9942 17.906C57.6544 18.0659 57.2747 18.1459 56.895 18.1858C56.4554 18.1858 56.1356 18.0459 55.9758 17.7462C55.8159 17.4064 55.7559 17.0267 55.7759 16.647V15.0283H56.5353V16.667C56.5153 16.9068 56.5353 17.1466 56.6153 17.3865C56.7152 17.5863 56.915 17.6862 57.1349 17.6662C57.4146 17.6662 57.6744 17.5863 57.9142 17.4664V15.0283H58.6736L58.6337 18.1259Z" fill="#6D6E71"/>
<path d="M68.6258 18.1257H67.8864V16.527C67.9064 16.2872 67.8864 16.0474 67.8065 15.8076C67.7065 15.6077 67.5067 15.4878 67.2869 15.5278C67.0071 15.5278 66.7473 15.6077 66.5075 15.7276V18.1257H65.7681V15.0082H66.2477L66.4076 15.228C66.7473 15.0681 67.127 14.9882 67.5067 14.9482C67.9463 14.9482 68.2661 15.0881 68.426 15.3879C68.5858 15.7276 68.6458 16.1073 68.6258 16.487V18.1257Z" fill="#6D6E71"/>
<path d="M71.9831 17.9457C71.5834 18.1256 71.1638 18.2055 70.7441 18.2055C70.3244 18.2255 69.9248 18.0656 69.645 17.7658C69.3652 17.4461 69.2253 17.0264 69.2453 16.6068C69.2253 16.1871 69.3852 15.7674 69.665 15.4477C69.9647 15.1479 70.3644 14.988 70.7841 15.008C71.1838 15.008 71.5834 15.088 71.9631 15.2478L71.8033 15.7474C71.5235 15.6275 71.2237 15.5476 70.904 15.5476C70.3044 15.5476 69.9847 15.9073 69.9847 16.6068C69.9847 17.3062 70.2845 17.6459 70.864 17.6459C71.2037 17.6459 71.5235 17.586 71.8233 17.4461L71.9831 17.9457Z" fill="#6D6E71"/>
<path d="M75.4405 16.627C75.4405 16.6869 75.4405 16.7469 75.4405 16.8068H73.1223C73.1023 17.0666 73.2022 17.3064 73.4021 17.4663C73.6219 17.5862 73.8817 17.6461 74.1415 17.6262C74.5012 17.6262 74.841 17.5262 75.1607 17.3864L75.3206 17.886C74.9409 18.0658 74.5412 18.1657 74.1415 18.1657C73.562 18.1657 73.1223 18.0458 72.8225 17.806C72.5228 17.5462 72.3629 17.1266 72.3629 16.567C72.3629 15.4879 72.8825 14.9683 73.9217 14.9683C74.9409 14.9683 75.4605 15.5278 75.4405 16.627ZM74.6611 16.3272C74.6811 16.1074 74.6211 15.8875 74.4812 15.7277C74.3214 15.5878 74.1015 15.5078 73.9017 15.5278C73.4221 15.5278 73.1623 15.8076 73.1223 16.3272H74.6611Z" fill="#6D6E71"/>
<path d="M40.7279 14.968C40.3282 14.948 39.9285 15.1079 39.6487 15.4276C39.2291 16.1271 39.2291 17.0064 39.6487 17.7258C39.9085 18.0455 40.3082 18.2054 40.7279 18.1854C41.0676 18.1854 41.4073 18.0855 41.7071 17.9057V18.1255C41.7071 18.6051 41.4673 18.8449 40.9877 18.8449C40.548 18.8449 40.1084 18.765 39.6887 18.6251L39.5488 19.1647C39.9885 19.3445 40.4681 19.4245 40.9477 19.4245C41.9469 19.4245 42.4465 19.0448 42.4465 18.2854V15.6674C42.4465 15.4476 42.5265 15.2278 42.6664 15.0679V14.968H40.7279ZM41.7071 16.0871V17.446C41.4673 17.5859 41.1875 17.6459 40.9077 17.6459C40.3682 17.6459 40.1084 17.2861 40.1084 16.5867C40.1084 15.8873 40.3882 15.5275 40.9077 15.5275H41.807C41.7271 15.6874 41.7071 15.8873 41.7071 16.0871Z" fill="#6D6E71"/>
<path d="M51.7991 18.1257H51.0397V16.527C51.0597 16.2872 51.0397 16.0474 50.9598 15.8076C50.8599 15.6077 50.66 15.5078 50.4602 15.5278C50.1804 15.5278 49.9206 15.6077 49.6808 15.7276V18.1257H48.9214V15.0082H49.401L49.5609 15.228C49.9006 15.0681 50.2803 14.9882 50.66 14.9482C51.0997 14.9482 51.4194 15.1081 51.5793 15.3879C51.7392 15.7276 51.7991 16.1073 51.7791 16.487L51.7991 18.1257Z" fill="#6D6E71"/>
<path d="M43.2059 16.2072V18.1457H43.9453V16.1073C43.9453 15.8075 44.2051 15.4878 44.7247 15.4878C44.9246 15.4878 45.1244 15.5078 45.3043 15.5677V15.0082C45.0844 14.9682 44.8646 14.9282 44.6448 14.9282C43.7855 14.9282 43.2059 15.4078 43.2059 16.2072Z" fill="#6D6E71"/>
<path d="M59.4531 16.2072V18.1457H60.1925V16.1073C60.1925 15.8075 60.4523 15.4878 60.9719 15.4878C61.1718 15.4878 61.3716 15.5078 61.5515 15.5677V15.0082C61.3316 14.9682 61.1118 14.9282 60.892 14.9282C60.0127 14.9282 59.4531 15.4078 59.4531 16.2072Z" fill="#6D6E71"/>
<path d="M36.9708 14.968C36.5511 14.948 36.1515 15.1079 35.8917 15.4476C35.472 16.147 35.472 17.0064 35.8917 17.7058C36.1515 18.0256 36.5511 18.2054 36.9708 18.1854C37.3505 18.1854 37.6902 18.0455 37.97 17.8057L38.1898 18.1255H38.6695V15.6674C38.6695 15.4476 38.7494 15.2278 38.8893 15.0679V14.968H36.9708ZM37.93 16.0871V17.2662C37.7302 17.486 37.4304 17.6259 37.1307 17.6459C36.5911 17.6459 36.3313 17.2861 36.3313 16.5867C36.3313 15.8872 36.6111 15.5275 37.1307 15.5275H38.03C37.97 15.6874 37.93 15.8872 37.93 16.0871Z" fill="#6D6E71"/>
<path d="M63.29 14.968C62.8704 14.948 62.4707 15.1079 62.2109 15.4476C61.7912 16.147 61.7912 17.0064 62.2109 17.7058C62.4707 18.0256 62.8704 18.2054 63.29 18.1854C63.6697 18.1854 64.0095 18.0455 64.2892 17.8057L64.5091 18.1255H64.9887V15.6674C64.9887 15.4476 65.0686 15.2278 65.2085 15.0679V14.968H63.29ZM64.2493 16.0871V17.2662C64.0494 17.486 63.7497 17.6259 63.4499 17.6459C62.9103 17.6459 62.6505 17.2861 62.6505 16.5867C62.6505 15.8872 62.9303 15.5275 63.4499 15.5275H64.3492C64.2892 15.6874 64.2493 15.8872 64.2493 16.0871Z" fill="#6D6E71"/>
<path d="M37.6302 6.63477C36.8708 6.63477 36.3113 6.85459 35.9316 7.27426C35.5919 7.69393 35.412 8.2335 35.452 8.75309C35.432 9.27268 35.5719 9.79227 35.8916 10.2119H34.0531V8.77308C34.0731 8.2335 33.9132 7.69393 33.5734 7.27426C33.1937 6.85459 32.6342 6.63477 31.8948 6.63477H30.296V6.77466C30.4959 6.99448 30.5958 7.27426 30.5958 7.57402V10.2319H28.6373C27.838 10.2319 27.4383 9.7523 27.4383 8.77308V6.63477H26.4591V8.77308C26.4391 9.31265 26.599 9.85223 26.9387 10.2719C27.3184 10.6916 27.8779 10.9114 28.6174 10.9114H31.575V8.07363C31.575 7.81383 31.5351 7.57402 31.4351 7.33421H31.9148C32.7141 7.33421 33.1138 7.81383 33.1138 8.79306V10.9314H37.6302C38.3896 10.9314 38.9492 10.7115 39.3289 10.2919C40.0084 9.41257 40.0084 8.17355 39.3289 7.29424C38.9292 6.85459 38.3697 6.63477 37.6302 6.63477ZM37.6103 10.2119C36.8109 10.2119 36.4112 9.73232 36.4112 8.75309C36.4112 7.79385 36.8109 7.31423 37.6103 7.31423C38.4096 7.31423 38.8093 7.79385 38.8093 8.75309C38.8093 9.71234 38.4296 10.2119 37.6103 10.2119Z" fill="#6D6E71"/>
<path d="M75.4405 4.65625H74.4413V10.9113H75.4405V4.65625Z" fill="#6D6E71"/>
<path d="M45.0245 5.89528C45.3042 5.89528 45.5041 5.67545 45.5041 5.41566C45.5041 5.15586 45.2843 4.93604 45.0245 4.93604C44.7647 4.93604 44.5448 5.15586 44.5448 5.41566C44.5249 5.65547 44.7447 5.87529 45.0245 5.89528Z" fill="#6D6E71"/>
<path d="M46.2435 5.89528C46.5233 5.89528 46.7232 5.67545 46.7232 5.41566C46.7232 5.15586 46.5033 4.93604 46.2435 4.93604C45.9638 4.93604 45.7639 5.15586 45.7639 5.41566C45.7639 5.65547 45.9638 5.89528 46.2435 5.89528Z" fill="#6D6E71"/>
<path d="M31.9948 11.6909C31.715 11.6909 31.5151 11.9107 31.5151 12.1705C31.5151 12.4303 31.735 12.6502 31.9948 12.6502C32.2546 12.6502 32.4744 12.4303 32.4744 12.1705C32.4944 11.9107 32.2745 11.6909 31.9948 11.6909Z" fill="#6D6E71"/>
<path d="M33.2338 11.6909C32.954 11.6909 32.7542 11.9107 32.7542 12.1705C32.7542 12.4303 32.974 12.6502 33.2338 12.6502C33.4936 12.6502 33.7134 12.4303 33.7134 12.1705C33.7134 11.9107 33.5136 11.6909 33.2338 11.6909Z" fill="#6D6E71"/>
<path d="M60.0526 5.89528C60.3324 5.89528 60.5322 5.67545 60.5322 5.41566C60.5322 5.15586 60.3124 4.93604 60.0526 4.93604C59.7728 4.93604 59.573 5.15586 59.573 5.41566C59.573 5.65547 59.7928 5.87529 60.0526 5.89528Z" fill="#6D6E71"/>
<path d="M61.2916 5.89528C61.5713 5.89528 61.7712 5.67545 61.7712 5.41566C61.7712 5.15586 61.5514 4.93604 61.2916 4.93604C61.0118 4.93604 60.8119 5.15586 60.8119 5.41566C60.7919 5.65547 61.0118 5.89528 61.2916 5.89528Z" fill="#6D6E71"/>
<path d="M29.0171 5.89528C29.2969 5.89528 29.4967 5.67545 29.4967 5.41566C29.4967 5.15586 29.2769 4.93604 29.0171 4.93604C28.7573 4.93604 28.5375 5.15586 28.5375 5.41566C28.5375 5.65547 28.7573 5.87529 29.0171 5.89528Z" fill="#6D6E71"/>
<path d="M72.6226 8.75302C72.6226 9.73224 72.223 10.2119 71.4236 10.2119H70.1846C70.5043 9.7922 70.6642 9.27261 70.6242 8.75302C70.6442 8.21344 70.4843 7.67387 70.1446 7.27418C69.7649 6.85452 69.1654 6.63469 68.4459 6.63469C67.3668 6.71463 66.3276 7.05436 65.4283 7.67387V6.63469H64.4491V8.87292C64.4691 9.19267 64.4491 9.51242 64.3492 9.83216C64.2493 10.072 64.0094 10.2318 63.7496 10.2119H62.031C62.3507 9.81218 62.5106 9.29259 62.5106 8.773V7.57395C62.5106 7.27418 62.6105 6.9944 62.8104 6.77458V6.63469H60.3124C59.553 6.63469 58.9934 6.85452 58.6337 7.27418C57.9942 8.15349 57.9742 9.33256 58.5937 10.2119H57.0749C56.6353 10.2119 56.1956 10.1119 55.7959 9.93209V6.63469H54.7967V10.6915C54.7967 11.5308 54.497 12.0104 53.8774 12.1104V12.2902C54.477 12.6699 55.7959 12.59 55.7959 10.7115V10.5916C56.1956 10.7914 56.6353 10.9113 57.0749 10.9313H64.1293C64.509 10.9513 64.8887 10.7914 65.1086 10.4916C65.5682 10.7714 66.0678 10.9113 66.5874 10.9313H71.4036C72.143 10.9313 72.7026 10.7115 73.0823 10.2918C73.422 9.87213 73.6019 9.33256 73.5619 8.79298V4.65625H72.5827L72.6226 8.75302ZM59.1333 8.773C59.1333 7.79377 59.533 7.31415 60.3323 7.31415H61.6713C61.5714 7.55396 61.5514 7.79377 61.5514 8.05357V8.75302C61.5514 9.71226 61.1517 10.1919 60.3523 10.1919H60.3323C59.513 10.2119 59.1133 9.73224 59.1333 8.773ZM66.2677 10.2119C65.9479 10.1919 65.6282 10.1119 65.3684 9.93209C65.4083 9.73224 65.4483 9.55239 65.4483 9.37253C65.4483 8.41328 67.0071 7.33414 68.4859 7.33414C69.2653 7.33414 69.685 7.81376 69.685 8.773C69.685 9.73224 69.2853 10.2318 68.5059 10.2318L66.2677 10.2119Z" fill="#6D6E71"/>
<path d="M51.5792 8.75302C51.5792 9.73224 51.1796 10.2119 50.3802 10.2119C50.0005 10.2119 49.6408 10.1319 49.301 10.012C49.5009 9.63232 49.6208 9.21265 49.6008 8.773V4.65625H48.6216V8.773C48.6216 9.75223 48.2219 10.2318 47.4225 10.2318C46.9829 10.2318 46.5432 10.1319 46.1435 9.95207C46.2235 9.59235 46.2435 9.21265 46.2435 8.85294V6.65467H45.2642V8.89291C45.2842 9.21265 45.2642 9.5324 45.1643 9.85215C45.0644 10.092 44.8446 10.2518 44.5848 10.2318H42.9261C42.1267 10.2318 41.727 9.75223 41.727 8.773V4.65625H40.7678V8.773C40.7478 9.31257 40.9077 9.85215 41.2474 10.2718C41.6271 10.6915 42.1867 10.9113 42.9261 10.9113H44.9245C45.3042 10.9313 45.6839 10.7714 45.9037 10.4717C46.3634 10.7514 46.863 10.8913 47.3826 10.9113C47.9021 10.9313 48.4217 10.7714 48.8414 10.4717C49.301 10.7514 49.8006 10.8913 50.3202 10.9113C51.0597 10.9113 51.6192 10.6915 51.9989 10.2718C52.3386 9.85215 52.5185 9.31257 52.4785 8.773V4.65625H51.5593L51.5792 8.75302Z" fill="#6D6E71"/>
<path d="M42.1267 3.87671V3.47703H41.4872C41.3673 3.47703 41.1874 3.43706 41.1874 3.09733C41.1874 2.75759 41.3473 2.73761 41.4872 2.73761C41.6071 2.73761 41.727 2.75759 41.8269 2.81755L41.9269 2.85752L42.0468 2.47782L41.9668 2.45783C41.787 2.37789 41.6071 2.35791 41.4273 2.35791C41.2274 2.35791 41.0276 2.43785 40.8877 2.57774C40.7478 2.73761 40.6878 2.93745 40.6878 3.13729C40.6878 3.2572 40.7078 3.39709 40.7678 3.517H40.3281V3.91668L42.1267 3.87671Z" fill="#6D6E71"/>
<path d="M22.4622 16.8468C18.7652 16.8468 15.7875 13.8492 15.7875 10.1721C15.7875 9.33275 15.9274 8.51339 16.2072 7.73401C16.407 7.19443 16.7268 6.69483 17.1464 6.27516C18.1257 5.27595 19.6844 5.17603 20.8035 6.01537H20.8235L20.7236 5.7156C20.264 4.47658 19.1049 3.65723 17.7859 3.65723H15.0481C12.1504 3.67721 9.59239 5.47579 8.59318 8.19365L6.47485 14.029C5.85534 15.7277 4.23662 16.8468 2.43804 16.8468H0.73938L1.19902 18.1458H2.89768H3.05755H7.59397C10.4917 18.1458 13.0696 16.3272 14.0489 13.6294L15.0081 10.9715C15.4278 15.0482 18.8651 18.1458 22.9618 18.1458H23.4614L23.9411 16.8468H22.4622ZM13.2695 8.19365L11.1512 14.029C10.5316 15.7077 8.93291 16.8468 7.13433 16.8468H6.91451C8.03362 16.0474 8.89294 14.9083 9.35258 13.6294L11.4709 7.79396C12.0904 6.11529 13.7091 4.97619 15.5077 4.97619H15.7275C14.6084 5.77555 13.7491 6.89467 13.2695 8.19365Z" fill="#009490"/>
</svg>
