<svg width="76" height="28" viewBox="0 0 76 28" fill="none" xmlns="http://www.w3.org/2000/svg">
<g clip-path="url(#clip0_1_2891)">
<path d="M63.5367 6.14688C64.0195 5.75646 64.523 5.39234 65.0449 5.0561C66.3017 4.26871 67.7642 3.87259 69.2466 3.91807C70.2736 3.94618 71.2784 4.22361 72.1743 4.72646C73.0702 5.2293 73.8304 5.94247 74.3894 6.8045C75.646 8.62131 76.2052 10.8304 75.9645 13.0263C75.5392 17.732 73.3104 21.4217 69.4671 24.1309C63.7321 28.1176 56.0966 28.0148 50.471 23.875C50.3874 23.811 50.3072 23.7426 50.2308 23.6702C50.3276 23.6804 50.418 23.7235 50.4868 23.7923C50.9559 24.1164 51.4526 24.3984 51.9714 24.635C53.397 25.2913 54.9805 25.5263 56.5353 25.3123C56.9291 25.2571 57.3229 25.1863 57.697 25.1233L57.9096 25.1508C60.2496 25.5045 62.6405 25.2828 64.8756 24.505C65.4999 24.299 66.1037 24.0353 66.6791 23.7174C65.0491 23.7307 63.4731 23.1337 62.2609 22.0439C62.4775 21.6501 62.8082 21.3036 63.0485 20.9137C63.1233 20.7916 63.1587 20.6302 63.3123 20.5672C63.751 21.0242 64.282 21.3824 64.8701 21.618C65.4581 21.8537 66.0896 21.9612 66.7224 21.9336C67.9141 21.8884 69.0626 21.4758 70.0105 20.7523C72.0306 19.2756 73.2199 17.2476 73.842 14.8455C74.1577 13.6478 74.2432 12.4011 74.094 11.1715C73.9851 9.93332 73.5563 8.74465 72.8497 7.72201C71.6683 6.1075 70.0932 5.39475 68.1243 5.7531C66.6492 6.05058 65.315 6.83057 64.3322 7.97009C63.7817 8.51311 63.3158 9.13565 62.95 9.81693C62.1829 11.0986 61.6945 12.5276 61.5166 14.0107C61.2786 15.6239 61.4912 17.2716 62.1309 18.7715C62.0846 19.0383 61.9737 19.2898 61.808 19.504C61.6113 19.8998 61.3505 20.2603 61.0362 20.5711C60.9653 20.4609 60.8905 20.3506 60.8275 20.2364C59.7708 18.3478 59.3563 16.1671 59.6462 14.0225C59.8939 11.6913 60.7841 9.47468 62.2176 7.61962L62.9736 6.74937C63.1749 6.56165 63.363 6.36035 63.5367 6.14688Z" fill="#0A5777"/>
<path d="M57.6891 25.1236L56.5275 25.3126C54.9779 25.5235 53.4002 25.2886 51.9793 24.6353C51.4606 24.3987 50.9638 24.1167 50.4947 23.7926C50.4259 23.7238 50.3355 23.6807 50.2388 23.6705C49.2163 22.8877 48.3199 21.9527 47.5807 20.8983C46.4547 19.2744 45.6734 17.437 45.285 15.4995C44.9883 14.1093 44.885 12.6848 44.9778 11.2663C45.1669 8.23816 46.0883 5.47775 48.1045 3.15837C49.4551 1.51288 51.3643 0.422302 53.4678 0.094744C55.6253 -0.22876 57.8243 0.29628 59.6029 1.55961C61.286 2.72175 62.6365 4.30306 63.5211 6.14718C63.341 6.36131 63.1463 6.56263 62.9383 6.74967C62.6902 7.045 62.4342 7.32853 62.1822 7.61993C62.1766 7.58531 62.1687 7.55111 62.1586 7.51754C61.4166 5.75422 60.2127 4.22375 58.6736 3.08749C56.8307 1.78407 54.8145 1.36272 52.6408 2.09516C51.0256 2.66519 49.6587 3.77879 48.7739 5.24542C46.9546 8.05309 46.4742 11.1522 46.9468 14.4087C47.1752 16.0455 47.7195 17.6223 48.5494 19.0514C49.5088 20.8344 51.0184 22.2598 52.8535 23.1153C53.9276 23.6085 55.1218 23.7795 56.2912 23.6075C57.9708 23.3408 59.4969 22.4749 60.5874 21.17C60.7811 21.0077 60.9347 20.8028 61.0363 20.5714C61.346 20.2559 61.6015 19.8913 61.7924 19.4925C61.9581 19.2783 62.0689 19.0268 62.1153 18.76C62.1822 18.76 62.194 18.7128 62.2176 18.6655C63.2872 16.2497 63.6306 13.5748 63.206 10.9671C63.1746 10.562 63.083 10.1638 62.9343 9.78573C63.3001 9.10445 63.766 8.4819 64.3165 7.93889C64.3381 7.97668 64.3565 8.01619 64.3716 8.05702C65.1627 10.4265 65.3919 12.9475 65.0411 15.4208C64.8109 17.1508 64.2536 18.8213 63.399 20.343C63.3635 20.41 63.3045 20.473 63.3242 20.5596C63.1706 20.6226 63.1351 20.7841 63.0603 20.9061C62.8201 21.2999 62.4893 21.6307 62.2728 22.0363C62.131 22.0875 62.0641 22.2174 61.9735 22.3198C60.9856 23.453 59.7368 24.3287 58.3349 24.8715C58.1075 24.9201 57.8894 25.0052 57.6891 25.1236ZM3.57163 23.3712L4.53639 20.0595L5.54841 16.5667C5.6012 16.3973 5.70964 16.2507 5.85616 16.1506C6.00267 16.0506 6.17868 16.0029 6.35567 16.0154C6.52675 16.0145 6.69345 16.0694 6.83057 16.1717C6.96769 16.274 7.06777 16.4182 7.11567 16.5824L8.98219 22.9893L9.10033 23.3594L9.37598 22.4419C9.9509 20.5019 10.5166 18.5553 11.0732 16.6021C11.1352 16.3935 11.2774 16.218 11.4685 16.1139C11.6596 16.0099 11.8842 15.9858 12.0931 16.0469C12.1981 16.0779 12.2956 16.1306 12.3791 16.2015C12.4627 16.2723 12.5305 16.3599 12.5783 16.4584C12.6262 16.557 12.6529 16.6645 12.6568 16.774C12.6607 16.8835 12.6417 16.9926 12.6011 17.0943C12.1915 18.5146 11.7794 19.9361 11.3646 21.359L9.90365 26.4033C9.86987 26.5498 9.79773 26.6846 9.69461 26.794C9.5915 26.9033 9.46113 26.9832 9.31691 27.0255C9.20777 27.0586 9.09296 27.0687 8.97972 27.0553C8.86647 27.0418 8.75723 27.0051 8.65886 26.9474C8.56049 26.8897 8.47511 26.8123 8.4081 26.72C8.34108 26.6278 8.29388 26.5226 8.26945 26.4112L7.68271 24.3911L6.38323 19.8784C6.38323 19.8469 6.38323 19.8075 6.30448 19.7957L5.80831 21.4929L4.40251 26.36C4.37176 26.5599 4.27047 26.7422 4.11699 26.8739C3.9635 27.0055 3.76795 27.0779 3.56572 27.0779C3.36349 27.0779 3.16794 27.0055 3.01445 26.8739C2.86096 26.7422 2.75968 26.5599 2.72893 26.36C1.83111 23.2702 0.935909 20.1816 0.0433355 17.0943C0.00363824 16.9915 -0.0140356 16.8815 -0.00854283 16.7714C-0.00305009 16.6613 0.0254869 16.5536 0.0752225 16.4553C0.124958 16.3569 0.194785 16.2701 0.280186 16.2004C0.365588 16.1308 0.464663 16.0798 0.571004 16.0508C0.678351 16.019 0.791102 16.0096 0.902228 16.0233C1.01335 16.037 1.12047 16.0734 1.2169 16.1303C1.31333 16.1872 1.397 16.2633 1.46271 16.354C1.52841 16.4447 1.57473 16.5479 1.59878 16.6572C2.23145 18.8362 2.86413 21.0138 3.49681 23.1901C3.50862 23.2295 3.54406 23.261 3.57163 23.3712Z" fill="#56B7E7"/>
<path d="M32.5973 9.34825V13.9516C32.6095 14.0676 32.5957 14.185 32.557 14.2951C32.5183 14.4052 32.4556 14.5054 32.3735 14.5883C32.2913 14.6712 32.1917 14.7348 32.082 14.7745C31.9722 14.8142 31.855 14.829 31.7388 14.8179H23.8159C23.6846 14.8277 23.5529 14.806 23.4316 14.7547C23.3104 14.7033 23.2032 14.6237 23.1189 14.5226C23.035 14.4262 22.9811 14.3074 22.9636 14.1808C22.9461 14.0543 22.9659 13.9253 23.0205 13.8098C23.0829 13.6678 23.1873 13.5483 23.3196 13.4673C23.452 13.3864 23.6059 13.3479 23.7608 13.357H26.0526C26.2771 13.357 26.344 13.3176 26.344 13.0774C26.344 10.5047 26.344 7.93457 26.344 5.36711C26.3313 5.20389 26.3737 5.04112 26.4643 4.90479C26.555 4.76846 26.6887 4.66643 26.8441 4.61499C26.9943 4.56317 27.1567 4.558 27.3099 4.60017C27.4631 4.64234 27.6 4.72987 27.7026 4.85126C27.8289 5.02089 27.8878 5.23136 27.8679 5.44193V13.0459C27.8679 13.2979 27.927 13.3648 28.183 13.3609H30.841C31.0418 13.3609 31.0851 13.3097 31.0851 13.1128C31.0851 10.317 31.0851 7.51979 31.0851 4.72131C31.077 4.62145 31.0896 4.52099 31.122 4.42621C31.1545 4.33143 31.2062 4.24436 31.2738 4.17044C31.3414 4.09653 31.4236 4.03736 31.5151 3.99663C31.6066 3.95591 31.7056 3.9345 31.8058 3.93374C31.911 3.92678 32.0165 3.94238 32.1152 3.9795C32.2139 4.01662 32.3035 4.07439 32.3781 4.14896C32.4527 4.22353 32.5105 4.31317 32.5476 4.41188C32.5847 4.51058 32.6003 4.61608 32.5933 4.72131C32.5933 5.99454 32.5933 7.26646 32.5933 8.53706L32.5973 9.34825ZM39.9689 13.9713C39.4967 14.2958 38.9736 14.5394 38.4213 14.6919C37.8741 14.8342 37.3035 14.8633 36.7446 14.7774C36.1857 14.6915 35.6503 14.4924 35.171 14.1923C34.6918 13.8922 34.2788 13.4974 33.9575 13.0322C33.6361 12.5669 33.4131 12.0409 33.3021 11.4865C33.1436 10.4621 33.3881 9.41604 33.9843 8.56802C34.5805 7.71999 35.482 7.13588 36.4997 6.9383C37.3293 6.73622 38.201 6.7932 38.9972 7.10158C39.7935 7.40995 40.4762 7.95491 40.9533 8.66307C41.3906 9.26305 41.6226 9.98807 41.6149 10.7304V16.3064C41.6211 16.4168 41.604 16.5273 41.5647 16.6306C41.5254 16.734 41.4648 16.8279 41.3868 16.9063C41.3088 16.9847 41.2151 17.0458 41.112 17.0856C41.0088 17.1254 40.8984 17.143 40.7879 17.1373C40.6774 17.1409 40.5673 17.1212 40.4649 17.0795C40.3624 17.0377 40.2699 16.9749 40.1934 16.895C40.1169 16.8151 40.058 16.72 40.0207 16.6159C39.9834 16.5118 39.9684 16.4009 39.9768 16.2906V14.2666L39.9689 13.9713ZM37.429 13.2467C37.9635 13.2572 38.4875 13.0978 38.9256 12.7914C39.3637 12.4849 39.6931 12.0473 39.8665 11.5416C40.0473 10.9425 39.9892 10.2967 39.7044 9.73957C39.4195 9.18239 38.9301 8.75709 38.3386 8.55281C37.7229 8.32688 37.0446 8.3417 36.4394 8.59431C35.8341 8.84692 35.3466 9.3187 35.0742 9.9153C34.9244 10.2918 34.871 10.6998 34.9188 11.1022C34.9666 11.5046 35.1142 11.8887 35.3481 12.2196C35.582 12.5505 35.8949 12.8178 36.2582 12.9972C36.6216 13.1765 37.024 13.2623 37.429 13.2467Z" fill="#0A5777"/>
<path d="M30.9434 26.2218C30.3992 26.6146 29.7755 26.8834 29.1162 27.0094C26.8965 27.4201 24.7555 25.9796 24.3003 23.7685C24.1363 22.7622 24.3635 21.7312 24.9353 20.8869C25.5072 20.0427 26.3803 19.4493 27.3757 19.2282C28.3272 18.9861 29.3331 19.0809 30.2226 19.4965C31.112 19.9122 31.8301 20.623 32.2547 21.5082C32.4692 21.9616 32.5834 22.4559 32.5894 22.9574V26.2415C32.5935 26.4246 32.5336 26.6035 32.42 26.7472C32.3065 26.891 32.1463 26.9906 31.9672 27.0291C31.7911 27.0736 31.6053 27.0592 31.4382 26.9881C31.2711 26.917 31.1318 26.793 31.0418 26.6353C30.9873 26.5035 30.9541 26.364 30.9434 26.2218ZM28.3523 20.6577C28.1709 20.6579 27.99 20.6777 27.8128 20.7167C27.4435 20.7966 27.0982 20.9625 26.805 21.201C26.5119 21.4394 26.2791 21.7436 26.1256 22.0889C25.9722 22.4342 25.9023 22.8109 25.9218 23.1883C25.9413 23.5656 26.0495 23.9331 26.2377 24.2608C26.5281 24.7439 26.9698 25.1177 27.4944 25.3241C28.0189 25.5304 28.597 25.5579 29.1387 25.4021C29.6805 25.2464 30.1556 24.9162 30.4905 24.4627C30.8254 24.0093 31.0012 23.4579 30.9906 22.8943C30.8371 21.5831 29.766 20.6577 28.3523 20.6577ZM39.9492 26.2336C39.5449 26.5041 39.1067 26.72 38.6458 26.8755C36.2831 27.6197 33.6723 26.0879 33.3179 23.6819C33.1789 22.8826 33.2997 22.0597 33.6626 21.334C34.0254 20.6084 34.6112 20.018 35.3341 19.6496C35.8182 19.3715 36.3524 19.1916 36.9061 19.1203C37.4599 19.0489 38.0222 19.0875 38.561 19.2338C39.0998 19.3801 39.6045 19.6313 40.0461 19.9729C40.4877 20.3145 40.8575 20.7399 41.1345 21.2247C41.4417 21.759 41.6033 22.3646 41.6031 22.981V26.2139C41.6139 26.427 41.5408 26.6358 41.3995 26.7955C41.2581 26.9553 41.0598 27.0533 40.847 27.0684C40.6388 27.0796 40.4339 27.0127 40.2722 26.881C40.1106 26.7492 40.0039 26.5619 39.9728 26.3557C39.9677 26.3145 39.9598 26.2737 39.9492 26.2336ZM37.4565 20.6577C37.127 20.6349 36.7962 20.6795 36.4845 20.7889C36.1728 20.8983 35.8866 21.0701 35.6435 21.2938C35.4005 21.5176 35.2056 21.7885 35.0708 22.0901C34.936 22.3917 34.8641 22.7177 34.8595 23.048C34.855 23.3783 34.9178 23.7061 35.0443 24.0113C35.1707 24.3165 35.358 24.5928 35.5948 24.8231C35.8316 25.0535 36.1129 25.2331 36.4215 25.351C36.7301 25.469 37.0595 25.5228 37.3896 25.5091C37.7192 25.5319 38.0499 25.4872 38.3617 25.3778C38.6734 25.2684 38.9595 25.0966 39.2026 24.8729C39.4457 24.6492 39.6406 24.3782 39.7754 24.0766C39.9102 23.775 39.9821 23.4491 39.9866 23.1187C39.9912 22.7884 39.9283 22.4606 39.8019 22.1554C39.6755 21.8502 39.4881 21.574 39.2513 21.3436C39.0145 21.1133 38.7332 20.9336 38.4246 20.8157C38.116 20.6977 37.7866 20.644 37.4565 20.6577ZM19.1102 26.2376C18.5759 26.6139 17.968 26.8729 17.3264 26.9976C16.2744 27.1933 15.1875 26.9748 14.2928 26.3876C13.3982 25.8005 12.7652 24.8903 12.5262 23.8473C12.3435 22.8125 12.5741 21.7474 13.1683 20.8807C13.7625 20.0141 14.6729 19.4151 15.704 19.2125C16.5395 19.0249 17.4121 19.0941 18.2075 19.411C19.003 19.7279 19.6841 20.2777 20.1616 20.9884C20.5476 21.5585 20.7572 22.2296 20.7641 22.918V26.2061C20.7738 26.3108 20.7624 26.4164 20.7306 26.5167C20.6988 26.6169 20.6473 26.7098 20.579 26.7898C20.5108 26.8698 20.4272 26.9354 20.3331 26.9825C20.2391 27.0297 20.1366 27.0576 20.0317 27.0645C19.8321 27.0793 19.6339 27.0212 19.4738 26.901C19.3138 26.7808 19.2028 26.6066 19.1614 26.4108L19.1102 26.2376ZM19.1378 23.0873C19.2402 21.7878 17.9249 20.6104 16.6255 20.638C15.1921 20.6734 14.0698 21.7012 14.0659 23.0558C14.0689 23.3829 14.137 23.7061 14.2662 24.0066C14.3954 24.3071 14.5831 24.5789 14.8184 24.8062C15.0537 25.0334 15.3319 25.2115 15.6367 25.3302C15.9416 25.4488 16.267 25.5056 16.594 25.4973C16.9197 25.5121 17.2452 25.4612 17.5509 25.3478C17.8567 25.2344 18.1365 25.0606 18.3738 24.8369C18.6111 24.6132 18.801 24.3441 18.9322 24.0456C19.0635 23.7471 19.1334 23.4252 19.1378 23.0991V23.0873Z" fill="#56B7E7"/>
<path d="M14.8259 13.3256C14.4782 12.8719 14.2372 12.3456 14.1211 11.7859C13.9628 10.8553 14.172 9.89956 14.7046 9.12017C15.2371 8.34078 16.0515 7.79858 16.976 7.60784C17.6865 7.49246 18.408 7.45943 19.126 7.50939C19.221 7.51084 19.3147 7.53146 19.4015 7.57003C19.4883 7.60859 19.5664 7.66431 19.6312 7.73382C19.6959 7.80333 19.7459 7.88521 19.7782 7.97454C19.8105 8.06387 19.8244 8.15881 19.8191 8.25364C19.812 8.44412 19.7312 8.62442 19.5939 8.75661C19.4566 8.8888 19.2733 8.96258 19.0827 8.96245C18.539 8.9401 17.9944 8.95325 17.4525 9.00183C16.9002 9.08402 16.4005 9.37481 16.0562 9.81434C15.7119 10.2539 15.5492 10.8087 15.6017 11.3645C15.6691 11.9095 15.934 12.4108 16.3462 12.7737C16.7584 13.1365 17.2892 13.3357 17.8384 13.3334H21.469C21.5899 13.3238 21.7113 13.3443 21.8223 13.3931C21.9333 13.442 22.0304 13.5176 22.105 13.6132C22.1795 13.7089 22.2292 13.8215 22.2495 13.9411C22.2697 14.0606 22.26 14.1833 22.2212 14.2982C22.1598 14.4595 22.0472 14.5961 21.9007 14.6872C21.7541 14.7783 21.5817 14.8187 21.41 14.8022H14.885C14.7077 14.8086 14.5335 14.7548 14.3906 14.6498C14.2476 14.5447 14.1443 14.3945 14.0974 14.2234C13.9754 13.8099 14.255 13.4476 14.8259 13.3256Z" fill="#0A5777"/>
<path d="M21.5045 21.5358V16.8104C21.4918 16.6368 21.5388 16.4642 21.6376 16.321C21.7364 16.1778 21.8812 16.0726 22.0479 16.0228C22.2107 15.9676 22.3864 15.9633 22.5517 16.0105C22.717 16.0576 22.864 16.1539 22.9733 16.2866C23.0949 16.4493 23.1511 16.6516 23.1308 16.8537V25.1231C23.1308 25.3791 23.1662 25.4933 23.4655 25.4775C23.6574 25.4702 23.845 25.5355 23.9909 25.6603C24.1368 25.785 24.2304 25.9602 24.2531 26.1509C24.2692 26.249 24.2651 26.3493 24.2412 26.4458C24.2173 26.5423 24.174 26.6329 24.114 26.7121C24.0539 26.7913 23.9784 26.8574 23.8919 26.9065C23.8055 26.9556 23.71 26.9865 23.6112 26.9975C23.1426 27.0684 22.6661 27.0684 22.1975 26.9975C22.0984 26.9892 22.0019 26.9611 21.9138 26.915C21.8256 26.8689 21.7475 26.8057 21.6841 26.7291C21.6207 26.6524 21.5731 26.5639 21.5443 26.4687C21.5155 26.3735 21.506 26.2735 21.5163 26.1745L21.5045 21.5358Z" fill="#56B7E7"/>
</g>
<defs>
<clipPath id="clip0_1_2891">
<rect width="76" height="27.0962" fill="white"/>
</clipPath>
</defs>
</svg>
