<svg width="77" height="5" viewBox="0 0 77 5" fill="none" xmlns="http://www.w3.org/2000/svg">
<path d="M61.1407 3.29201H60.8608H60.5927L60.3719 2.56264H59.9776H59.6425L59.4257 3.29201H59.2798H59.1221L60.025 0.788504C60.0663 0.799222 60.1085 0.805826 60.1511 0.808218C60.191 0.805173 60.2306 0.798575 60.2694 0.788504L61.1525 3.29201M60.3088 2.3458L60.025 1.48633L59.7293 2.3458H60.3088ZM63.932 1.82145L63.9083 0.823989C63.9949 0.831157 64.082 0.831157 64.1685 0.823989C64.2551 0.831418 64.3422 0.831418 64.4288 0.823989L64.4051 1.82145V2.31032L64.4288 3.30778H64.1685H63.9083L63.932 2.31032V1.82145ZM69.4673 2.82679C69.4271 2.92907 69.4018 3.03663 69.3924 3.14613C69.1915 3.24942 68.9676 3.29963 68.7419 3.29201C68.5843 3.30054 68.4267 3.2758 68.2794 3.21938C68.132 3.16296 67.9981 3.07613 67.8866 2.96455C67.775 2.85297 67.6882 2.71914 67.6318 2.57178C67.5753 2.42441 67.5506 2.26681 67.5591 2.10925C67.5591 1.11573 68.1544 0.729366 68.8247 0.729366C69.0527 0.729498 69.2764 0.792229 69.4712 0.910722C69.4334 1.02688 69.4108 1.1475 69.4042 1.26949H69.3569C69.2999 1.17383 69.2191 1.09453 69.1224 1.03927C69.0257 0.984015 68.9163 0.954671 68.805 0.95409C68.4659 0.95409 68.0835 1.28921 68.0835 2.058C68.0835 2.82679 68.4777 3.09094 68.8365 3.09094C68.9464 3.08678 69.0544 3.06055 69.1539 3.01382C69.2535 2.96708 69.3426 2.9008 69.416 2.8189L69.4673 2.82679ZM74.4506 2.82679C74.4154 2.93032 74.3916 3.03741 74.3797 3.14613C74.1802 3.24943 73.9576 3.29966 73.7331 3.29201C73.5754 3.30117 73.4175 3.27686 73.2699 3.22066C73.1222 3.16447 72.9881 3.07766 72.8764 2.96595C72.7647 2.85424 72.6779 2.72015 72.6217 2.57249C72.5655 2.42484 72.5412 2.26697 72.5504 2.10925C72.5504 1.11573 73.1457 0.729366 73.812 0.729366C74.0414 0.728362 74.2666 0.79115 74.4625 0.910722C74.4234 1.02673 74.3995 1.14733 74.3915 1.26949H74.3442C74.2881 1.17388 74.208 1.09452 74.112 1.03922C74.0159 0.983918 73.9071 0.954579 73.7962 0.95409C73.4571 0.95409 73.0708 1.28921 73.0708 2.058C73.0708 2.82679 73.465 3.09094 73.8277 3.09094C73.937 3.08626 74.0442 3.05978 74.143 3.01306C74.2419 2.96634 74.3304 2.90033 74.4033 2.8189L74.4506 2.82679ZM76.0119 4.04109H57.4623V0H76.0119V4.04109ZM57.6161 3.88338H75.8542V0.157701H57.6161V3.88338ZM17.7532 1.11573C17.9122 1.22755 18.086 1.31647 18.2697 1.37988C18.2934 1.37988 18.3604 1.3168 18.4668 1.19853C18.5342 1.12047 18.5974 1.03888 18.6561 0.95409L18.1199 0.670231L17.7808 0.938319C17.6069 0.883888 17.4469 0.792429 17.3117 0.670231L16.9371 1.09602C17.1 1.20801 17.2761 1.29938 17.4615 1.36806L17.7532 1.11573ZM20.5485 4.44322C20.3905 4.36156 20.2389 4.26798 20.0951 4.1633C20.0351 4.24191 19.9706 4.31694 19.9019 4.38803C19.8368 4.45482 19.7835 4.53213 19.7442 4.61669C19.8986 4.73499 20.0684 4.83181 20.2489 4.9045C20.325 4.80187 20.4123 4.70799 20.5091 4.62458C20.6569 4.74005 20.8201 4.83427 20.994 4.9045C20.994 4.9045 21.0768 4.84142 21.1753 4.71526L21.3567 4.47476L20.8363 4.14753L20.5485 4.44322ZM22.4567 4.35649C22.3802 4.27002 22.2879 4.19908 22.1846 4.14753C22.0918 4.20589 22.0069 4.27613 21.9323 4.35649C21.7864 4.49842 21.7115 4.58121 21.7115 4.60487C21.7115 4.62852 21.7825 4.70343 21.9284 4.81382C22.0742 4.92421 22.157 4.99123 22.1925 4.99123C22.5237 4.80594 22.6893 4.67978 22.6893 4.59698C22.6893 4.51419 22.6144 4.48659 22.4567 4.34466M20.7614 3.39846C20.8323 3.66655 20.9861 3.79271 21.2069 3.79271H23.0126C23.1427 3.79271 23.2057 3.47731 23.2057 2.83467C23.2027 2.6219 23.1585 2.41172 23.0756 2.2157C22.998 2.02241 22.8749 1.85067 22.7169 1.715L22.3226 2.36946C22.4241 2.46605 22.5081 2.57942 22.571 2.70457C22.6558 2.81995 22.7076 2.95624 22.7208 3.09882H21.4316C21.3921 3.10399 21.3519 3.10001 21.3141 3.08717C21.2764 3.07434 21.2421 3.053 21.2139 3.02481C21.1857 2.99661 21.1643 2.96231 21.1515 2.92456C21.1387 2.88681 21.1347 2.84661 21.1399 2.80708C21.1339 2.72834 21.1339 2.64927 21.1399 2.57053C21.1537 2.49494 21.1629 2.41857 21.1675 2.34186V2.00675L20.8836 2.29849C20.7868 2.38093 20.7202 2.4933 20.6944 2.61783V2.86227C20.6983 2.94425 20.6806 3.02581 20.6431 3.09882H19.4603C19.2948 3.09882 19.1962 3.04363 19.1647 2.95295C19.0791 2.65936 19.0132 2.36037 18.9675 2.058L18.7941 1.10785L18.7586 1.08419L18.3643 1.73865C18.3809 1.80365 18.4033 1.86699 18.4313 1.92789L17.7375 2.32215C17.5901 2.41072 17.468 2.5356 17.3826 2.68486C17.27 2.9295 17.1854 3.18608 17.1303 3.44971L18.2736 3.65078C18.3328 3.65078 18.4077 3.59558 18.4944 3.44182C18.5498 3.33815 18.6117 3.23807 18.6797 3.14219L18.8098 3.53644C18.8313 3.60335 18.8726 3.66217 18.9282 3.70512C18.9838 3.74806 19.0511 3.77311 19.1213 3.77694H20.513L20.7535 3.38268M17.9937 2.73611C18.0648 2.66979 18.146 2.61523 18.2342 2.57447C18.3385 2.4813 18.4335 2.37832 18.5181 2.26695L18.6324 2.82285L17.9937 2.73611ZM29.0328 1.21824C28.8278 1.09208 28.7134 1.00534 28.6937 0.950149C28.6697 0.883138 28.6577 0.812393 28.6583 0.741193L28.6188 0.709655C28.4367 0.935588 28.2855 1.18486 28.1694 1.45085C28.2258 1.52519 28.2922 1.59151 28.3665 1.64797C28.4321 1.86689 28.4783 2.09117 28.5045 2.3182C28.5452 2.55304 28.5728 2.78996 28.5873 3.02786C28.5845 3.0499 28.5779 3.07126 28.5676 3.09094H27.7199L27.8579 2.86622C27.9006 2.79665 27.9275 2.71861 27.9368 2.63755C27.93 2.54456 27.9006 2.45463 27.8511 2.3756C27.8017 2.29658 27.7336 2.23085 27.6529 2.18416C27.499 2.0759 27.3166 2.01555 27.1286 2.01069C27.0101 1.99948 26.8906 2.01336 26.7778 2.05139C26.6651 2.08943 26.5616 2.15079 26.4741 2.23147C26.3428 2.42104 26.233 2.62469 26.1469 2.83862L26.3755 2.80708C26.4751 2.80842 26.5726 2.83521 26.6589 2.8849C26.7451 2.93459 26.8172 3.00552 26.8683 3.09094H25.9576C25.8412 3.09684 25.725 3.07488 25.6187 3.02689C25.5124 2.97889 25.4191 2.90624 25.3465 2.81496L24.9523 2.24724C24.8763 2.34719 24.8078 2.45261 24.7473 2.56264C24.6816 2.65158 24.6298 2.74994 24.5935 2.85439C24.6468 2.9422 24.7074 3.02529 24.7749 3.10277C24.8668 3.19805 24.9309 3.31666 24.9602 3.44576C24.9602 3.59558 24.7828 3.78482 24.4279 4.02137C24.2013 4.20696 23.929 4.32816 23.6394 4.37226C23.4996 4.36327 23.3642 4.31994 23.2452 4.2461L23.0362 4.11994C23.052 4.11994 23.0047 4.11994 23.0047 4.11994V4.20273C23.1866 4.36899 23.3961 4.50238 23.6237 4.59698C23.8329 4.72167 24.0672 4.79842 24.3097 4.82171C24.44 4.81222 24.5661 4.77142 24.6773 4.70279C24.7885 4.63415 24.8814 4.5397 24.9483 4.42745L25.3426 3.73751L25.3781 3.70203C25.452 3.74387 25.534 3.76941 25.6186 3.77694H26.9393L27.1443 3.46153L27.3257 3.77694H28.7568C28.8199 3.7454 28.8514 3.72568 28.8554 3.71386C28.9157 3.58991 28.9543 3.45657 28.9697 3.3196C29.0044 3.19073 29.0255 3.0586 29.0328 2.92535L28.9539 2.06982L29.4468 1.42719C29.3109 1.36179 29.1792 1.28806 29.0525 1.20641M30.4521 0.95409C30.2502 1.21748 30.0894 1.50991 29.9751 1.82145L30.255 3.85973C30.5093 3.56179 30.6417 3.17876 30.6256 2.78736C30.6046 2.18608 30.544 1.58683 30.4442 0.993517" fill="#7D7D7D"/>
<path d="M32.991 1.93203C33.0739 1.87581 33.1471 1.80658 33.2079 1.72702C33.2884 1.65104 33.3586 1.5649 33.4168 1.47076L32.8767 1.16324C32.7201 1.27957 32.5864 1.42394 32.4824 1.58903C32.4824 1.62846 32.6599 1.74674 33.0107 1.93203M34.773 4.37246C34.6155 4.30659 34.4702 4.21462 34.3433 4.10042C34.216 4.23838 34.0962 4.38315 33.9845 4.5341C34.1206 4.66644 34.2893 4.76031 34.4734 4.80613C34.4734 4.80613 34.5247 4.77065 34.5996 4.6918L34.7257 4.54592L35.2146 4.83373C35.358 4.71216 35.4794 4.56679 35.5734 4.40399L35.0806 4.09648L34.773 4.37246ZM37.5959 2.25532C37.5959 2.1883 37.5644 2.11733 37.5525 2.04637C37.5396 2.01289 37.516 1.98466 37.4853 1.9661C37.4546 1.94754 37.4186 1.93972 37.383 1.94386C37.1659 1.96446 36.9599 2.0496 36.7916 2.1883C36.6029 2.3078 36.4492 2.4751 36.3461 2.67323C36.2941 2.81326 36.2238 2.94582 36.1372 3.06748H35.5221C35.4906 3.06748 35.4669 3.03988 35.4393 2.97286C35.3785 2.76294 35.3298 2.54969 35.2935 2.33417L35.191 1.6876L34.8637 2.16464C34.8044 2.24024 34.7282 2.30098 34.6413 2.34204C34.5544 2.38309 34.4591 2.40335 34.363 2.40119C34.3062 2.39971 34.2507 2.38325 34.2023 2.35348C34.1538 2.32372 34.1141 2.2817 34.087 2.23167L33.9254 1.93598L33.5942 2.61015L33.819 3.09508C33.8959 3.24679 33.9453 3.411 33.9648 3.58001C33.9648 3.69434 33.815 3.7929 33.5154 3.87964C33.3161 3.93429 33.1109 3.96473 32.9043 3.97032C32.3681 3.97032 32.1158 3.74954 32.1158 3.32374C32.1669 3.01353 32.2583 2.71133 32.3878 2.42485L32.3642 2.39725C32.1637 2.54995 32.0173 2.76267 31.9463 3.0044C31.8384 3.25422 31.7756 3.52118 31.761 3.7929C31.761 4.37246 32.0882 4.66026 32.7387 4.66026C33.1563 4.6805 33.5657 4.53933 33.882 4.26601C34.0265 4.12431 34.137 3.95174 34.2053 3.76124C34.2736 3.57074 34.2979 3.36726 34.2763 3.16604V3.11479H34.2999C34.4474 3.09832 34.5857 3.03472 34.6942 2.93343C34.8119 2.83558 34.9028 2.70941 34.9583 2.56678C34.9583 2.61015 35.0017 2.79545 35.0569 3.11479C35.0902 3.29489 35.1349 3.47267 35.191 3.64703C35.2061 3.68989 35.2345 3.7268 35.2721 3.75233C35.3097 3.77787 35.3545 3.79071 35.3999 3.78896H36.0307C36.078 3.78896 36.1372 3.718 36.2081 3.58395C36.238 3.49517 36.2895 3.41523 36.3579 3.35134C36.7159 3.45582 37.06 3.60274 37.383 3.78896L37.6117 3.43019C37.6955 3.31356 37.7496 3.17823 37.7694 3.03594C37.7633 2.90052 37.7339 2.76716 37.6826 2.64169C37.6458 2.51553 37.6025 2.38411 37.5525 2.24744M36.6931 2.66534C36.7742 2.60041 36.8732 2.56189 36.9769 2.55495H37.0124C37.0684 2.64698 37.1108 2.74656 37.1386 2.85064L36.6931 2.66534ZM38.1833 0.875438C38.3844 0.736037 38.6179 0.650523 38.8614 0.62706C38.9119 0.568243 38.9567 0.504892 38.9955 0.437818C38.6012 0.437818 38.3805 0.390508 38.3331 0.29983C38.3849 0.265826 38.4405 0.238037 38.4987 0.217037L38.6761 0.319541C38.7091 0.261214 38.7488 0.206963 38.7944 0.157899C38.7945 0.137593 38.788 0.117815 38.7759 0.101486C38.7638 0.0851565 38.7468 0.0731419 38.7274 0.0672195C38.6906 0.0446317 38.6484 0.0323764 38.6052 0.0317383C38.5469 0.034153 38.4898 0.0487303 38.4375 0.0745318C38.3853 0.100333 38.339 0.136787 38.3016 0.181553C38.2145 0.263803 38.1634 0.377198 38.1597 0.496956C38.1597 0.520611 38.1991 0.548208 38.2701 0.579749L38.4317 0.62706L38.2858 0.74139C38.2228 0.792643 38.1833 0.839955 38.1833 0.875438ZM40.1546 1.32094L40.6947 1.58903C40.8619 1.47982 40.9977 1.32901 41.089 1.15141L40.5488 0.871494L40.3714 1.01737C40.3224 1.06196 40.2681 1.10036 40.2098 1.1317C40.0354 1.07944 39.8742 0.99075 39.7367 0.871494L39.3424 1.26575C39.4927 1.40554 39.6736 1.50817 39.8707 1.56538C39.9023 1.56538 40.0008 1.47864 40.1625 1.31306M42.1771 1.23815C42.0485 1.17563 41.9344 1.08702 41.842 0.977944C41.8215 0.908705 41.8095 0.837201 41.8065 0.765048L41.771 0.74139C41.5887 0.961444 41.4399 1.20722 41.3295 1.47076C41.3867 1.54075 41.4515 1.60421 41.5226 1.66C41.5862 1.87519 41.6311 2.09547 41.6567 2.3184C41.6994 2.54896 41.7271 2.78206 41.7395 3.01623C41.7384 3.03686 41.73 3.05643 41.7158 3.07142H40.9273C40.9037 3.07142 40.8682 3.03988 40.8327 2.97286C40.7992 2.93212 40.7774 2.88307 40.7696 2.83093C40.7741 2.74245 40.7833 2.65428 40.7972 2.56678C40.817 2.47998 40.8288 2.39157 40.8327 2.30263V2.01877L40.5646 2.29474C40.4779 2.38937 40.3793 2.53918 40.3793 2.60226C40.3941 2.76079 40.3753 2.92066 40.3241 3.07142H39.1808C39.0625 3.07142 38.9915 3.03988 38.9837 2.97286C38.9111 2.61413 38.8663 2.25034 38.8496 1.88472L38.7708 0.749277C38.6872 0.838533 38.6083 0.931959 38.5342 1.0292C38.4559 1.11418 38.3919 1.2114 38.345 1.317L38.5618 3.76136H40.1861C40.2548 3.62571 40.3311 3.49408 40.4148 3.36711C40.4818 3.6352 40.6159 3.76136 40.809 3.76136H41.8656C41.9287 3.72982 41.9603 3.71011 41.9642 3.69434C42.024 3.57859 42.0628 3.45309 42.0785 3.32374C42.116 3.19579 42.1333 3.06277 42.1298 2.92949L42.0588 2.08579L42.5477 1.45893C42.4118 1.39507 42.2801 1.32264 42.1534 1.24209M43.0642 1.80587L43.348 3.81262C43.5924 3.51591 43.72 3.14017 43.7068 2.75602C43.6876 2.16376 43.627 1.57358 43.5254 0.989771C43.336 1.24003 43.1809 1.51449 43.0642 1.80587ZM46.0723 1.11593C46.2288 1.23076 46.4034 1.3187 46.5888 1.37614C46.6124 1.37614 46.6755 1.317 46.778 1.19478C46.8449 1.12246 46.9056 1.04465 46.9594 0.962174L46.435 0.682255L46.1039 0.94246C45.9315 0.89113 45.7726 0.802269 45.6386 0.682255L45.272 1.07651C45.429 1.19006 45.6017 1.28035 45.7845 1.3446L46.0723 1.09622M49.3407 2.35783L48.6389 1.82164L49.9675 1.42739C50.0385 1.16456 50.0976 0.935888 50.1449 0.74139L48.1737 1.317L48.0712 1.71125C48.0345 1.83969 48.0133 1.97204 48.0081 2.10551C48.0081 2.14493 48.0791 2.23955 48.2328 2.39331C48.3866 2.54707 48.4733 2.6338 48.5167 2.6338C48.5397 2.63254 48.5619 2.62434 48.5802 2.61026C48.5984 2.59619 48.6121 2.57691 48.6192 2.55495L49.3209 3.08719H47.7794C47.6178 3.08719 47.5192 3.03988 47.4877 2.94526C47.403 2.65811 47.3372 2.36574 47.2906 2.07002L47.121 1.13564L47.0895 1.11593L46.6952 1.75856C46.7127 1.82147 46.7338 1.88334 46.7583 1.94386L46.0763 2.33811C45.9316 2.42401 45.8119 2.54636 45.7293 2.69294C45.6223 2.93529 45.5391 3.18749 45.4809 3.44596L46.6124 3.64309C46.6637 3.64309 46.7307 3.58789 46.8214 3.43808C46.8699 3.33302 46.9322 3.23491 47.0067 3.14633L47.1329 3.54058C47.152 3.60808 47.1921 3.66774 47.2474 3.71096C47.3027 3.75418 47.3702 3.77874 47.4404 3.78108H49.6837C49.7715 3.54116 49.84 3.29463 49.8887 3.04382C49.8887 2.92555 49.7073 2.70477 49.3407 2.39331M46.3128 2.75208C46.3822 2.68551 46.4621 2.63089 46.5494 2.59043C46.6512 2.49865 46.7436 2.39696 46.8253 2.28686L46.9397 2.83487L46.3128 2.75208ZM54.2649 1.20267C54.3241 1.25519 54.3904 1.299 54.462 1.33277C54.5343 1.30617 54.6002 1.26451 54.6552 1.21055C54.7237 1.15737 54.7858 1.09652 54.8405 1.0292C54.7288 0.897268 54.5955 0.785285 54.4462 0.698025C54.372 0.735506 54.3062 0.78784 54.253 0.851784C54.1466 0.958232 54.0875 1.01737 54.0875 1.04102C54.0875 1.06468 54.1466 1.11199 54.253 1.20267M54.462 1.6876C54.629 1.78779 54.8014 1.87861 54.9785 1.95963C55.014 1.95963 55.081 1.90049 55.1835 1.77433C55.2531 1.70392 55.3128 1.62434 55.3609 1.53778L54.8247 1.24209L54.6552 1.40373C54.6093 1.45207 54.5544 1.49091 54.4935 1.51807C54.3267 1.45961 54.1717 1.37146 54.0362 1.25786C54.0047 1.25786 53.9376 1.32094 53.8312 1.43922C53.7593 1.50773 53.6958 1.58448 53.642 1.66789C53.7902 1.80624 53.9725 1.90283 54.1702 1.9478L54.462 1.6876ZM55.3412 2.4761C55.2454 2.57127 55.1785 2.69153 55.148 2.82304C55.1436 2.85839 55.1436 2.89415 55.148 2.92949V3.04382C55.148 3.05039 55.1461 3.05681 55.1426 3.06238C55.1391 3.06795 55.1342 3.07245 55.1283 3.07537H54.6867C54.6867 3.07537 54.667 3.07536 54.667 3.05171C54.6792 2.91639 54.7111 2.78358 54.7616 2.65746C54.8012 2.5434 54.8303 2.42594 54.8484 2.30657V2.2632C54.6986 2.31051 54.5369 2.49581 54.3713 2.81121C54.3442 2.8943 54.3269 2.98033 54.3201 3.06748H53.6656C53.7566 2.84362 53.8188 2.60915 53.8509 2.36965V2.20801C53.7428 2.27097 53.6489 2.35552 53.5749 2.45639C53.4884 2.53408 53.4267 2.63556 53.3975 2.74814C53.3974 2.86038 53.3674 2.97057 53.3108 3.06748H52.7628C52.6491 3.07449 52.5353 3.05417 52.431 3.00821C52.3268 2.96226 52.2351 2.892 52.1635 2.80333L51.789 2.23955C51.7574 2.28292 51.6904 2.38542 51.584 2.55495C51.525 2.64452 51.4748 2.73959 51.4341 2.83881C51.488 2.9262 51.5487 3.00925 51.6155 3.08719C51.7065 3.18043 51.7682 3.29831 51.7929 3.42625C51.7929 3.56818 51.6234 3.75742 51.2804 3.98609C51.0531 4.16976 50.7809 4.28952 50.4919 4.33303C50.3526 4.32445 50.2174 4.28254 50.0976 4.21081C50.0275 4.17387 49.9603 4.1317 49.8966 4.08465H49.865V4.18716C50.0438 4.35179 50.2491 4.48507 50.4722 4.58141C50.6771 4.70242 50.9057 4.77773 51.1424 4.80219C51.2712 4.79282 51.3957 4.75197 51.505 4.68323C51.6143 4.61449 51.705 4.51995 51.7693 4.40794L52.1635 3.72982L52.195 3.6904C52.2696 3.73476 52.3531 3.76171 52.4395 3.76925H53.228C53.2635 3.76925 53.3029 3.74165 53.3502 3.6904C53.3787 3.65348 53.4119 3.62036 53.4488 3.59184C53.4808 3.64612 53.501 3.70659 53.5079 3.76925H54.324L54.4186 3.66674C54.4479 3.69666 54.4719 3.73132 54.4896 3.76925H55.4358L55.5896 3.37499C55.6432 3.23938 55.6712 3.09503 55.6724 2.9492V2.2159C55.5657 2.29941 55.4715 2.39764 55.3924 2.50764M0.800332 1.12776C0.954979 1.24093 1.12666 1.32877 1.30892 1.38797C1.33257 1.38797 1.39565 1.32883 1.49816 1.20661C1.56627 1.13536 1.62703 1.05743 1.67951 0.974001L1.1591 0.694082L0.831872 0.954287C0.660842 0.902547 0.503338 0.8137 0.370597 0.694082L0 1.08833C0.159787 1.19974 0.333404 1.28986 0.51647 1.35643C0.605316 1.26726 0.700158 1.18427 0.800332 1.10805M3.5601 4.38034C3.40524 4.30275 3.25748 4.21172 3.11854 4.1083C3.0594 4.18715 2.99632 4.25812 2.92929 4.33303C2.86585 4.39674 2.81266 4.46988 2.77159 4.54987C2.9228 4.66983 3.09171 4.76559 3.27229 4.83373C3.34224 4.73202 3.42733 4.64161 3.52461 4.56564C3.66901 4.67237 3.82509 4.76231 3.98983 4.83373C4.01743 4.83373 4.08051 4.77459 4.17513 4.64449L4.35649 4.41188L3.8479 4.09648L3.5601 4.38034ZM5.53136 1.16718C5.33916 1.08067 5.15339 0.980536 4.97546 0.867554L4.49842 1.36431C4.70878 1.44984 4.91413 1.54725 5.11345 1.65606C5.26639 1.50527 5.40619 1.34171 5.53136 1.16718ZM3.74934 3.36317C3.8203 3.62732 3.96223 3.75742 4.18302 3.75742H5.74031C5.81255 3.45707 5.85872 3.15105 5.8783 2.84276C5.87815 2.64271 5.83088 2.44552 5.74031 2.26715C5.64336 2.09389 5.534 1.92787 5.41308 1.77039L5.05431 2.3736C5.21531 2.58821 5.34783 2.82277 5.44857 3.07142H4.41168C4.37318 3.07663 4.33399 3.07287 4.29718 3.06045C4.26037 3.04803 4.22692 3.02727 4.19945 2.99979C4.17197 2.97232 4.15122 2.93888 4.13879 2.90206C4.12637 2.86525 4.12261 2.82606 4.12782 2.78756V2.56284C4.14286 2.48886 4.15078 2.4136 4.15148 2.33811V2.00694L3.87944 2.2908C3.78328 2.37381 3.71684 2.48594 3.6902 2.61015V2.84276C3.69669 2.92241 3.67881 3.00216 3.63895 3.07142H2.45619C2.29455 3.07142 2.19993 3.02411 2.16444 2.92949C2.07986 2.64415 2.0166 2.35292 1.9752 2.05819L1.79779 1.12776L1.76625 1.10805L1.3996 1.74673C1.41229 1.81103 1.43351 1.87335 1.46268 1.93203L0.780619 2.32629C0.63871 2.41399 0.51977 2.53428 0.433677 2.67717C0.32412 2.91782 0.243395 3.17059 0.193184 3.43019L1.30892 3.62732C1.36411 3.62732 1.43114 3.57212 1.52576 3.42231C1.57355 3.3186 1.63308 3.22071 1.70317 3.13056L1.82933 3.52481C1.85023 3.59097 1.89092 3.64912 1.94591 3.69142C2.0009 3.73372 2.06754 3.75813 2.13685 3.76136H3.49307L3.72568 3.36711M1.00929 2.74419C1.08237 2.68046 1.16317 2.62616 1.24978 2.58255C1.35253 2.49049 1.44626 2.38884 1.5297 2.27897L1.63615 2.82698L1.00929 2.74419ZM7.31732 1.99117C7.09424 2.08177 6.91387 2.25368 6.81268 2.47216C6.68428 2.67335 6.60962 2.90411 6.59584 3.14239C6.59584 3.50116 6.73777 3.67857 7.01375 3.67857C7.07695 3.68469 7.14074 3.6777 7.20112 3.65802C7.2615 3.63835 7.31716 3.60642 7.36463 3.56424C7.4379 3.45996 7.49876 3.3475 7.54599 3.22912C7.54977 3.25395 7.54977 3.2792 7.54599 3.30403C7.54497 3.3619 7.53432 3.4192 7.51445 3.47356C7.42205 3.69239 7.28354 3.88873 7.10837 4.04917C6.91677 4.22436 6.69137 4.35853 6.44602 4.44342C6.30519 4.46652 6.16291 4.47969 6.02023 4.48285C5.88751 4.48469 5.75536 4.50054 5.62598 4.53015V4.58141C6.01422 4.78652 6.45511 4.8703 6.89153 4.8219C7.21087 4.8219 7.47108 4.60506 7.68003 4.15956C7.85029 3.82188 7.94066 3.44958 7.94418 3.07142C7.9452 2.85693 7.90086 2.64465 7.81408 2.4485C7.78191 2.34846 7.72816 2.25671 7.65663 2.17973C7.5851 2.10274 7.49753 2.04241 7.40011 2.003M7.41983 2.99651C7.36074 3.0238 7.2985 3.04366 7.23453 3.05565C7.13153 3.04495 7.03407 3.00377 6.95461 2.93738C6.97385 2.87629 7.00768 2.82081 7.05317 2.77573C7.0725 2.75261 7.0966 2.73395 7.12382 2.72102C7.15104 2.70809 7.18074 2.7012 7.21087 2.70082C7.24198 2.70212 7.27229 2.71108 7.29912 2.7269C7.32594 2.74271 7.34844 2.76491 7.36463 2.7915C7.40115 2.84782 7.42034 2.91362 7.41983 2.98074V2.99651ZM12.3637 1.3446L12.8999 1.6048C13.0688 1.50105 13.2053 1.35222 13.2942 1.17507L12.758 0.895151C12.6976 0.940644 12.6397 0.989336 12.5845 1.04102C12.5363 1.08658 12.4819 1.12508 12.4229 1.15536C12.2482 1.10401 12.0867 1.01522 11.9498 0.895151L11.5555 1.2894C11.7063 1.42766 11.8872 1.5289 12.0838 1.58509C12.191 1.51635 12.2879 1.43272 12.3716 1.33671M14.3705 1.26181C14.2444 1.19886 14.133 1.11022 14.0433 1.0016C14.0224 0.932445 14.0104 0.860894 14.0078 0.788702H13.9644C13.7891 1.00932 13.6433 1.25186 13.5307 1.51018C13.5869 1.58228 13.6518 1.64716 13.7239 1.70337C13.7858 1.91629 13.8307 2.13382 13.858 2.35388C13.9 2.58323 13.9277 2.81497 13.9408 3.04777C13.9474 3.06693 13.9474 3.08774 13.9408 3.1069H13.1523C13.1247 3.1069 13.0852 3.07536 13.0497 3.00834C13.0192 2.96632 12.9989 2.91771 12.9906 2.86641C12.9931 2.77796 13.001 2.68975 13.0143 2.60226C13.0368 2.5172 13.05 2.42996 13.0537 2.34206V2.05425L12.7895 2.33417C12.7067 2.42879 12.5964 2.57072 12.5964 2.63775C12.6102 2.79572 12.5942 2.95488 12.549 3.1069H11.2874L11.4175 2.89401C11.4654 2.82968 11.4941 2.75315 11.5003 2.67323C11.4971 2.58186 11.4703 2.49287 11.4227 2.41484C11.375 2.3368 11.3081 2.27236 11.2283 2.22772C11.0781 2.11809 10.8977 2.05751 10.7118 2.05425C10.5974 2.04418 10.4821 2.05828 10.3734 2.09564C10.2647 2.13299 10.1651 2.19277 10.081 2.27109C9.94733 2.45497 9.83738 2.65499 9.7538 2.86641L9.97852 2.83487C10.0752 2.8355 10.1702 2.86081 10.2543 2.90842C10.3385 2.95603 10.4091 3.02435 10.4595 3.1069H9.33589C9.21762 3.1069 9.15059 3.07536 9.13482 3.00834C9.06391 2.65067 9.01911 2.28832 9.00078 1.92415L8.92587 0.796588C8.8402 0.883633 8.75989 0.975793 8.68538 1.07256C8.60971 1.15727 8.54965 1.25471 8.50796 1.36037L8.72086 3.7929H10.4871L10.6842 3.4775L10.8656 3.7929H12.3677C12.4357 3.65691 12.5121 3.52524 12.5964 3.39865C12.6555 3.6628 12.7895 3.7929 12.9906 3.7929H14.0472C14.0853 3.7773 14.1201 3.75455 14.1497 3.72588C14.2025 3.60905 14.2396 3.48577 14.2601 3.35923C14.2959 3.23084 14.3145 3.09826 14.3153 2.96498L14.2443 2.12916L14.7253 1.5023C14.6149 1.45104 14.4848 1.37614 14.3311 1.28546M15.7031 1.03708C15.5129 1.27616 15.3588 1.54182 15.2457 1.82558L15.5217 3.8205C15.7689 3.52827 15.8983 3.15432 15.8844 2.77179C15.8595 2.18385 15.7989 1.59797 15.7031 1.01737" fill="#7D7D7D"/>
</svg>
