<svg width="37" height="9" viewBox="0 0 37 9" fill="none" xmlns="http://www.w3.org/2000/svg">
<path d="M0.0197123 3.61924V5.15682C0.0121014 5.48494 0.069494 5.81132 0.188583 6.11717C0.307672 6.42301 0.486103 6.70226 0.713596 6.93884C0.917927 7.16658 1.16854 7.34805 1.44867 7.47111C1.72879 7.59418 2.03197 7.656 2.33792 7.65244C2.74628 7.65652 3.14676 7.53994 3.48913 7.31732C3.83453 7.10379 4.11635 6.80155 4.30523 6.44208H18.037C18.1857 6.6518 18.3844 6.82113 18.615 6.93471C18.8456 7.0483 19.1009 7.10257 19.3578 7.0926C19.5785 7.09782 19.7978 7.05734 20.0021 6.97371C20.2064 6.89008 20.3911 6.7651 20.5448 6.60663C20.6985 6.44816 20.8177 6.25963 20.895 6.05287C20.9723 5.84611 21.006 5.6256 20.9939 5.4052C21.0052 5.18403 20.9712 4.96288 20.8939 4.75535C20.8166 4.54782 20.6976 4.35829 20.5444 4.19841C20.3912 4.03853 20.2069 3.91167 20.0028 3.82563C19.7987 3.73959 19.5792 3.69619 19.3578 3.69809C19.1365 3.69072 18.9161 3.72934 18.7105 3.81151C18.5049 3.89367 18.3186 4.01759 18.1634 4.17544C18.0081 4.33328 17.8873 4.52162 17.8085 4.72854C17.7298 4.93547 17.6948 5.15648 17.7059 5.3776C17.7021 5.44326 17.7021 5.50907 17.7059 5.57473V5.61021H13.6569C13.8121 5.35648 13.8773 5.0579 13.8422 4.76257V3.54039C13.8394 3.31928 13.8605 3.09853 13.9053 2.88198C13.7863 2.8457 13.663 2.8258 13.5386 2.82285C13.239 2.82285 13.0143 2.97266 13.0143 3.2171V3.94647V4.79805C13.025 4.9874 12.9954 5.17687 12.9275 5.35395C12.8773 5.4387 12.8038 5.5072 12.7157 5.55125C12.6276 5.5953 12.5287 5.61303 12.4308 5.60232H4.59304C4.61934 5.45528 4.63253 5.3062 4.63246 5.15682V3.25652C4.63197 3.12389 4.64652 2.99163 4.67583 2.86227C4.55701 2.82539 4.43357 2.80548 4.30918 2.80313C4.01349 2.80313 3.78876 2.95295 3.78876 3.19739V4.02926V5.0346C3.8018 5.47038 3.67769 5.89926 3.43394 6.26073C3.30785 6.44129 3.14004 6.58874 2.94476 6.69055C2.74949 6.79236 2.53251 6.84553 2.31229 6.84553C2.09206 6.84553 1.87509 6.79236 1.67982 6.69055C1.48454 6.58874 1.31673 6.44129 1.19064 6.26073C0.944343 5.90007 0.817475 5.4712 0.82793 5.0346V3.45759C0.825017 3.24822 0.846183 3.03921 0.89101 2.83467C0.772048 2.79839 0.648694 2.77849 0.524355 2.77554C0.224724 2.77554 0 2.92535 0 3.16979V3.56404L0.0197123 3.61924ZM19.3144 4.44322C19.4331 4.45 19.5491 4.48087 19.6554 4.53394C19.7617 4.58701 19.8561 4.66118 19.9329 4.75193C20.0096 4.84267 20.067 4.94809 20.1017 5.06176C20.1364 5.17543 20.1475 5.29497 20.1345 5.41308C20.1494 5.52675 20.1403 5.64228 20.1078 5.75222C20.0754 5.86217 20.0202 5.96408 19.9459 6.05138C19.8716 6.13869 19.7798 6.20944 19.6765 6.25908C19.5731 6.30872 19.4605 6.33614 19.346 6.33958C19.227 6.33427 19.1104 6.30477 19.0033 6.25287C18.8962 6.20096 18.8008 6.12775 18.7229 6.0377C18.645 5.94766 18.5863 5.84268 18.5504 5.72918C18.5145 5.61568 18.5022 5.49605 18.5141 5.3776C18.501 5.26384 18.5113 5.1486 18.5444 5.03898C18.5775 4.92936 18.6327 4.82766 18.7066 4.74015C18.7804 4.65263 18.8714 4.58115 18.9739 4.53009C19.0764 4.47902 19.1882 4.44946 19.3026 4.44322M22.3738 0.8437H21.7824C21.7376 0.815639 21.7014 0.775774 21.6778 0.728482C21.6541 0.681189 21.644 0.628296 21.6484 0.575608C21.6463 0.541109 21.651 0.506531 21.6624 0.473894C21.6738 0.441257 21.6916 0.411215 21.7147 0.385522C21.7378 0.35983 21.7658 0.339002 21.7971 0.324255C21.8283 0.309508 21.8622 0.301138 21.8968 0.299632C21.9448 0.294001 21.993 0.307337 22.0313 0.336796C22.0696 0.366255 22.0949 0.409507 22.1018 0.457333L22.3659 0.319344C22.3306 0.225519 22.2676 0.144685 22.1852 0.0876266C22.1028 0.0305685 22.0049 2.14111e-07 21.9047 2.14111e-07C21.8281 -6.62982e-05 21.7523 0.0153641 21.6818 0.0453626C21.6113 0.0753612 21.5477 0.119308 21.4946 0.174557C21.4416 0.229806 21.4003 0.295216 21.3732 0.366849C21.3461 0.438482 21.3337 0.514858 21.3369 0.591379C21.3503 0.677226 21.3714 0.761682 21.4 0.8437H21.1122V1.18276H22.3738V0.8437Z" fill="#7D7D7D"/>
<path d="M36.015 6.45H36.8271V3.57985L36.8587 2.23939C36.855 1.99177 36.8788 1.74451 36.9296 1.50214C36.8015 1.46472 36.6688 1.44482 36.5354 1.443C36.2239 1.443 35.9874 1.6007 35.9874 1.87273V2.61393L36.015 6.45ZM22.1767 4.79414V2.33795V2.1566C22.1716 1.91434 22.1941 1.67229 22.2437 1.43511C22.1153 1.3988 21.9829 1.37893 21.8495 1.37598C21.542 1.37598 21.3093 1.52973 21.3093 1.79783L21.3369 3.52071V5.12137C21.317 5.461 21.4191 5.79656 21.6247 6.06758C21.7344 6.19975 21.8736 6.30429 22.0312 6.37277C22.1887 6.44125 22.3601 6.47176 22.5315 6.46183H34.0043C34.8204 6.46183 35.2304 6.02421 35.2304 5.14109V3.48523L35.2659 2.25122C35.2605 2.00373 35.283 1.75643 35.3329 1.51396C35.2048 1.47625 35.0722 1.45635 34.9386 1.45483C34.6272 1.45483 34.3906 1.61253 34.3906 1.88456V2.30641V4.85328C34.3998 5.03013 34.3799 5.20728 34.3315 5.37764C34.2778 5.46428 34.1999 5.53325 34.1074 5.576C34.0149 5.61876 33.9118 5.63341 33.8111 5.61813H30.8384C30.9848 5.36119 31.0456 5.06429 31.0119 4.77049V4.00958V3.54831C31.0068 3.30605 31.0293 3.064 31.0789 2.82682C30.9512 2.78717 30.8184 2.76593 30.6847 2.76374C30.3771 2.76374 30.1445 2.92145 30.1445 3.18954V3.89525V4.81386C30.1573 5.0033 30.1277 5.1932 30.0578 5.36975C30.0086 5.45453 29.9359 5.52317 29.8484 5.56727C29.7608 5.61138 29.6624 5.62905 29.565 5.61813H23.0362C22.82 5.63564 22.6031 5.59336 22.4093 5.49591C22.3191 5.40479 22.2511 5.29403 22.2108 5.17229C22.1704 5.05055 22.1588 4.92113 22.1767 4.79414ZM30.8187 2.55873C30.9163 2.55873 31.0118 2.52972 31.0929 2.4754C31.174 2.42107 31.2372 2.34387 31.2744 2.25359C31.3116 2.16331 31.3211 2.06402 31.3017 1.96832C31.2824 1.87261 31.2351 1.78481 31.1658 1.71605C31.0964 1.64729 31.0083 1.60066 30.9124 1.5821C30.8166 1.56353 30.7174 1.57385 30.6274 1.61176C30.5374 1.64966 30.4607 1.71344 30.407 1.795C30.3534 1.87656 30.3251 1.97223 30.3259 2.06986C30.3259 2.13439 30.3387 2.19829 30.3635 2.25786C30.3883 2.31743 30.4247 2.3715 30.4705 2.41695C30.5163 2.46239 30.5706 2.49832 30.6304 2.52266C30.6902 2.54699 30.7542 2.55925 30.8187 2.55873ZM29.4033 2.55873C29.5011 2.55951 29.597 2.53117 29.6786 2.47732C29.7603 2.42347 29.824 2.34655 29.8618 2.25634C29.8996 2.16613 29.9097 2.06672 29.8908 1.97075C29.8719 1.87479 29.8249 1.78662 29.7557 1.71746C29.6866 1.6483 29.5984 1.60129 29.5025 1.5824C29.4065 1.56351 29.3071 1.5736 29.2169 1.61139C29.1267 1.64917 29.0497 1.71295 28.9959 1.79459C28.942 1.87624 28.9137 1.97206 28.9145 2.06986C28.9155 2.1992 28.9673 2.32295 29.0588 2.41441C29.1503 2.50587 29.274 2.5577 29.4033 2.55873ZM12.9118 7.66036C12.911 7.75799 12.9392 7.85366 12.9929 7.93522C13.0466 8.01678 13.1233 8.08055 13.2133 8.11846C13.3032 8.15637 13.4024 8.16669 13.4983 8.14812C13.5942 8.12955 13.6823 8.08293 13.7516 8.01417C13.821 7.94541 13.8683 7.85761 13.8876 7.7619C13.907 7.6662 13.8974 7.56691 13.8603 7.47663C13.8231 7.38635 13.7599 7.30915 13.6788 7.25482C13.5977 7.20049 13.5022 7.17149 13.4046 7.17148C13.2746 7.17148 13.1498 7.22286 13.0575 7.31443C12.9652 7.406 12.9128 7.53034 12.9118 7.66036ZM2.31034 2.55873C2.40797 2.55873 2.50341 2.52972 2.58453 2.4754C2.66566 2.42107 2.72882 2.34387 2.766 2.25359C2.80318 2.16331 2.81271 2.06402 2.79337 1.96832C2.77404 1.87261 2.72671 1.78481 2.65739 1.71605C2.58807 1.64729 2.49989 1.60066 2.40404 1.5821C2.30818 1.56353 2.20897 1.57385 2.119 1.61176C2.02902 1.64966 1.95233 1.71344 1.89865 1.795C1.84498 1.87656 1.81674 1.97223 1.81752 2.06986C1.81856 2.19988 1.87094 2.32422 1.96325 2.41579C2.05556 2.50736 2.18031 2.55874 2.31034 2.55873ZM11.5122 7.66036C11.5122 7.77346 11.5515 7.88305 11.6232 7.97046C11.695 8.05786 11.7949 8.11768 11.9058 8.13971C12.0167 8.16175 12.1319 8.14464 12.2316 8.09129C12.3314 8.03795 12.4095 7.95168 12.4528 7.84718C12.496 7.74267 12.5017 7.6264 12.4688 7.51818C12.436 7.40996 12.3666 7.31648 12.2726 7.25366C12.1785 7.19085 12.0656 7.16259 11.953 7.1737C11.8405 7.18481 11.7353 7.23461 11.6553 7.3146C11.6099 7.36001 11.5739 7.41392 11.5493 7.47324C11.5248 7.53257 11.5122 7.59615 11.5122 7.66036Z" fill="#7D7D7D"/>
</svg>
