<svg width="50" height="4" viewBox="0 0 50 4" fill="none" xmlns="http://www.w3.org/2000/svg">
<path d="M1.35815 0.295537C1.49889 0.358871 1.60444 0.450356 1.67481 0.562948C1.74518 0.675541 1.78037 0.809241 1.78037 0.964056C1.78037 1.11887 1.74518 1.25961 1.67481 1.38628C1.60444 1.51294 1.49889 1.61146 1.35111 1.68183C1.20333 1.7522 1.02741 1.78739 0.823333 1.78739H0.436296V2.65998H0V0.197021H0.837407C1.04852 0.197021 1.21741 0.232204 1.35815 0.295537ZM1.33 0.978131C1.33 0.83739 1.28778 0.731835 1.20333 0.661464C1.11889 0.591094 0.999259 0.555909 0.837407 0.555909H0.436296V1.43554H0.78111C1.14704 1.43554 1.33 1.28072 1.33 0.978131Z" fill="#FF6900"/>
<path d="M3.23006 0.95706L3.15969 1.37225C3.11747 1.35817 3.08228 1.3441 3.0471 1.33706C3.01191 1.33002 2.96969 1.32299 2.92747 1.32299C2.8571 1.32299 2.78673 1.33706 2.72339 1.37225C2.66006 1.40743 2.59673 1.47076 2.53339 1.55521V2.65298H2.12524V0.971135L2.53339 0.93595V1.17521C2.59673 1.09076 2.6671 1.02743 2.75154 0.98521C2.83598 0.942988 2.92043 0.921875 3.01895 0.921875C3.08228 0.921875 3.15265 0.935949 3.23006 0.95706Z" fill="#FF6900"/>
<path d="M4.95412 1.90011H3.82115C3.82819 2.069 3.87745 2.18863 3.9619 2.26603C4.04634 2.34344 4.1519 2.38566 4.27856 2.38566C4.37004 2.38566 4.45449 2.37159 4.52486 2.35048C4.59523 2.32937 4.67967 2.28715 4.77819 2.23789L4.92597 2.50529C4.83449 2.56863 4.73597 2.61789 4.62338 2.66011C4.51079 2.69529 4.39116 2.7164 4.25745 2.7164C4.0956 2.7164 3.95486 2.68826 3.82819 2.63196C3.70153 2.57566 3.60301 2.47714 3.53264 2.35048C3.46227 2.22381 3.42004 2.05492 3.42004 1.85085C3.42004 1.67492 3.44819 1.51307 3.51856 1.37937C3.5819 1.23863 3.67338 1.13307 3.80004 1.05567C3.92671 0.978258 4.07449 0.936035 4.25041 0.936035C4.40523 0.936035 4.53893 0.964182 4.65153 1.02752C4.75708 1.09085 4.84153 1.17529 4.89782 1.28789C4.95412 1.40048 4.98227 1.52011 4.98227 1.66085C4.96115 1.72418 4.96116 1.80863 4.95412 1.90011ZM3.96893 1.32307C3.9056 1.39344 3.86338 1.49196 3.83523 1.61863H4.55301V1.60455C4.55301 1.47085 4.52486 1.37937 4.46856 1.31603C4.41227 1.2527 4.33486 1.22455 4.2293 1.22455C4.12375 1.21751 4.03227 1.2527 3.96893 1.32307Z" fill="#FF6900"/>
<path d="M6.82592 0.978027V0.999138L6.17148 2.65988H5.77741L5.10889 0.999138V0.978027H5.55222L5.90407 1.97729C5.93926 2.07581 5.9674 2.16729 5.98148 2.25173C5.98852 2.23062 5.99555 2.19544 6.00963 2.15321C6.0237 2.11099 6.03778 2.05469 6.05889 1.97729L6.37555 0.978027H6.82592Z" fill="#FF6900"/>
<path d="M7.15665 0.633421C7.11443 0.61231 7.07925 0.577123 7.05813 0.534901C7.02999 0.492679 7.02295 0.450455 7.02295 0.401196C7.02295 0.351936 7.03702 0.309717 7.05813 0.267494C7.08628 0.225272 7.11443 0.190085 7.15665 0.168974C7.19887 0.140826 7.2411 0.133789 7.29036 0.133789C7.33962 0.133789 7.38888 0.147863 7.4311 0.168974C7.47332 0.197122 7.50851 0.225272 7.53665 0.267494C7.5648 0.309717 7.57184 0.351936 7.57184 0.401196C7.57184 0.450455 7.55777 0.492679 7.53665 0.534901C7.50851 0.577123 7.48036 0.61231 7.4311 0.633421C7.38888 0.654532 7.33962 0.668606 7.29036 0.668606C7.24814 0.675644 7.19887 0.661569 7.15665 0.633421ZM7.09332 2.66009V0.978233L7.50147 0.936013V2.66009H7.09332Z" fill="#FF6900"/>
<path d="M8.25443 2.58961C8.12777 2.5122 8.03628 2.39961 7.97295 2.2659C7.90962 2.1322 7.88147 1.97738 7.88147 1.8085C7.88147 1.59738 7.92369 1.4285 8.0011 1.29479C8.07851 1.16109 8.1911 1.06961 8.3248 1.00628C8.45851 0.949979 8.60628 0.914795 8.77517 0.914795C8.95814 0.914795 9.11295 0.949978 9.23962 1.02739C9.36628 1.10479 9.45777 1.21035 9.5211 1.34405C9.58443 1.47776 9.61258 1.63257 9.61258 1.80146C9.61258 2.01257 9.57036 2.18146 9.49295 2.31516C9.41554 2.44887 9.30295 2.54739 9.16925 2.60368C9.03554 2.66702 8.88073 2.69516 8.71184 2.69516C8.53591 2.70924 8.3811 2.66702 8.25443 2.58961ZM9.0848 2.23776C9.15517 2.1322 9.18332 1.99146 9.18332 1.81553C9.18332 1.63257 9.14814 1.49887 9.07777 1.39331C9.0074 1.28776 8.90184 1.24553 8.75406 1.24553C8.59221 1.24553 8.47962 1.29479 8.40925 1.39331C8.33888 1.49183 8.30369 1.63257 8.30369 1.81553C8.30369 1.99146 8.33888 2.1322 8.40925 2.23776C8.47962 2.34331 8.59221 2.39257 8.73999 2.39257C8.90184 2.39257 9.01443 2.33628 9.0848 2.23776Z" fill="#FF6900"/>
<path d="M11.4774 0.936035V2.66011H11.1185L11.0903 2.53344C10.8933 2.65307 10.6963 2.70937 10.4922 2.70937C10.3303 2.70937 10.2037 2.66715 10.1122 2.57566C10.0207 2.48418 9.97144 2.35752 9.97144 2.18159V0.978256L10.3796 0.936035V2.05492C10.3796 2.13233 10.3866 2.18863 10.4077 2.23789C10.4218 2.28011 10.45 2.31529 10.4922 2.3364C10.5344 2.35751 10.5907 2.37159 10.6611 2.37159C10.7737 2.37159 10.9074 2.32937 11.0692 2.24492V0.978256L11.4774 0.936035Z" fill="#FF6900"/>
<path d="M12.1318 2.65287C12.0122 2.61768 11.8925 2.56139 11.787 2.48398L11.9629 2.20954C12.1459 2.3362 12.3359 2.40657 12.5399 2.40657C12.6385 2.40657 12.7159 2.3925 12.7651 2.35732C12.8144 2.32213 12.8425 2.27991 12.8425 2.21658C12.8425 2.18139 12.8355 2.15324 12.8144 2.12509C12.7933 2.09694 12.7581 2.07583 12.7088 2.04769C12.6596 2.01954 12.5822 1.99843 12.4907 1.97028L12.3781 1.94213C12.1951 1.89287 12.0685 1.82954 11.984 1.75213C11.8996 1.67472 11.8644 1.56917 11.8644 1.4425C11.8644 1.34398 11.8925 1.25954 11.9488 1.18213C12.0051 1.10472 12.0825 1.04843 12.1811 1.00621C12.2796 0.963984 12.3922 0.942871 12.5188 0.942871C12.7581 0.942871 12.9833 1.00621 13.1944 1.12584L13.0325 1.40028C12.927 1.34398 12.8355 1.3088 12.7581 1.28769C12.6807 1.26658 12.6033 1.25954 12.5188 1.25954C12.4414 1.25954 12.3781 1.27361 12.3359 1.30176C12.2937 1.32991 12.2725 1.37213 12.2725 1.42139C12.2725 1.44954 12.2796 1.47769 12.2937 1.4988C12.3077 1.51991 12.3359 1.54102 12.3711 1.55509C12.4062 1.56917 12.4625 1.59028 12.5329 1.60435L12.6525 1.6325C12.8566 1.6888 13.0114 1.75917 13.1029 1.85065C13.1944 1.9351 13.2437 2.04769 13.2437 2.18843C13.2437 2.29398 13.2155 2.38547 13.1662 2.46287C13.11 2.54732 13.0325 2.61065 12.927 2.65287C12.8214 2.70213 12.6948 2.72324 12.5399 2.72324C12.3922 2.70917 12.2585 2.68806 12.1318 2.65287Z" fill="#FF6900"/>
<path d="M13.6025 2.66V0.0422205L14.0107 0V2.65296H13.6025V2.66Z" fill="#FF6900"/>
<path d="M15.9811 0.978227V0.999337L15.397 2.69527C15.3407 2.86415 15.2774 3.00489 15.2 3.11045C15.1296 3.216 15.0452 3.29341 14.9537 3.34267C14.8622 3.39193 14.7496 3.41304 14.6159 3.41304C14.5033 3.41304 14.3837 3.39193 14.264 3.34971L14.3696 3.04712C14.44 3.06823 14.5103 3.0823 14.5807 3.0823C14.644 3.0823 14.6933 3.07526 14.7426 3.05415C14.7918 3.03304 14.834 2.99786 14.8763 2.9486C14.9185 2.8923 14.9607 2.8149 15.0029 2.70934L15.024 2.65304H14.9114L14.2711 0.992302V0.971191H14.7074L15.0592 1.97045C15.1014 2.08304 15.1296 2.18156 15.1577 2.27304C15.2 2.12527 15.2281 2.02675 15.2422 1.97045L15.5589 0.971191H15.9811V0.978227Z" fill="#FF6900"/>
<path d="M18.3878 0.197021L19.2956 2.63183V2.65998H18.8382L18.606 2.00554H17.6208L17.3956 2.65998H16.9523V2.63183L17.86 0.197021H18.3878ZM17.7404 1.65369H18.4793L18.1063 0.598133L17.7404 1.65369Z" fill="#FF6900"/>
<path d="M19.6052 2.66V0.0422205L20.0134 0V2.65296H19.6052V2.66Z" fill="#FF6900"/>
<path d="M22.6451 0.197021L23.5529 2.63183V2.65998H23.0955L22.8633 2.00554H21.8781L21.6529 2.65998H21.2096V2.63183L22.1174 0.197021H22.6451ZM21.9977 1.65369H22.7366L22.3637 0.598133L21.9977 1.65369Z" fill="#FF6900"/>
<path d="M23.8625 2.66V0.0422205L24.2707 0V2.65296H23.8625V2.66Z" fill="#FF6900"/>
<path d="M25.9526 1.05556C26.0582 1.14704 26.1074 1.28778 26.1074 1.47778V2.65296H25.7486L25.7204 2.51222C25.6289 2.58259 25.5304 2.63185 25.4319 2.66C25.3334 2.68815 25.2349 2.70222 25.1293 2.70222C25.0308 2.70222 24.9393 2.68111 24.8619 2.64593C24.7845 2.61074 24.7212 2.55445 24.6789 2.48408C24.6367 2.4137 24.6156 2.3363 24.6156 2.24481C24.6156 2.11111 24.6649 1.99148 24.7634 1.9C24.8619 1.80852 24.9886 1.73815 25.1504 1.69593C25.3123 1.6537 25.4952 1.62556 25.6993 1.61852V1.55519C25.6993 1.44963 25.6782 1.36519 25.636 1.32296C25.5937 1.2737 25.5234 1.25259 25.4249 1.25259C25.2489 1.25259 25.066 1.31593 24.8619 1.44963L24.693 1.18926C24.8126 1.10481 24.9393 1.04148 25.066 0.992223C25.1926 0.942963 25.3334 0.928888 25.4812 0.928888C25.6993 0.921851 25.8541 0.971113 25.9526 1.05556ZM25.1012 2.34333C25.1363 2.37852 25.1926 2.39259 25.263 2.39259C25.4037 2.39259 25.5515 2.35037 25.6993 2.26592V1.9C25.4952 1.90704 25.3334 1.94222 25.2208 1.99148C25.1082 2.04074 25.0449 2.11815 25.0449 2.20963C25.0449 2.26593 25.066 2.30815 25.1012 2.34333Z" fill="#FF6900"/>
<path d="M28.9575 1.04854C29.0419 1.13299 29.0841 1.26669 29.0841 1.43558V2.65298H28.676V1.57632C28.676 1.49187 28.6689 1.42854 28.6549 1.37928C28.6408 1.33002 28.6126 1.30187 28.5845 1.28076C28.5564 1.25965 28.5071 1.25262 28.4508 1.25262C28.3241 1.25262 28.1904 1.2878 28.0497 1.36521C28.0497 1.37928 28.0567 1.40743 28.0567 1.43558V2.65298H27.6486V1.57632C27.6486 1.49187 27.6415 1.42854 27.6275 1.37928C27.6134 1.33002 27.5852 1.30187 27.5571 1.28076C27.5219 1.25965 27.4797 1.25262 27.4234 1.25262C27.3601 1.25262 27.2967 1.25965 27.2264 1.28076C27.156 1.30187 27.0926 1.33002 27.0223 1.36521V2.66002H26.593V0.97817L27.0012 0.93595V1.08373C27.1912 0.97817 27.3741 0.921875 27.5571 0.921875C27.7471 0.921875 27.8808 0.985209 27.9582 1.11188C28.0567 1.05558 28.1552 1.01336 28.2678 0.97817C28.3734 0.942985 28.486 0.921875 28.5986 0.921875C28.7534 0.921875 28.873 0.964096 28.9575 1.04854Z" fill="#FF6900"/>
<path d="M29.6259 0.633421C29.5837 0.61231 29.5485 0.577123 29.5274 0.534901C29.4992 0.492679 29.4922 0.450455 29.4922 0.401196C29.4922 0.351936 29.5063 0.309717 29.5274 0.267494C29.5555 0.225272 29.5837 0.190085 29.6259 0.168974C29.6681 0.140826 29.7103 0.133789 29.7596 0.133789C29.8089 0.133789 29.8581 0.147863 29.9003 0.168974C29.9426 0.197122 29.9777 0.225272 30.0059 0.267494C30.034 0.309717 30.0411 0.351936 30.0411 0.401196C30.0411 0.450455 30.027 0.492679 30.0059 0.534901C29.9777 0.577123 29.9496 0.61231 29.9003 0.633421C29.8581 0.654532 29.8089 0.668606 29.7596 0.668606C29.7174 0.675644 29.6681 0.661569 29.6259 0.633421ZM29.5626 2.66009V0.978233L29.9707 0.936013V2.66009H29.5626Z" fill="#FF6900"/>
<path d="M31.9412 0.978227V0.999337L31.3571 2.69527C31.3008 2.86415 31.2375 3.00489 31.1601 3.11045C31.0897 3.216 31.0052 3.29341 30.9138 3.34267C30.8223 3.39193 30.7097 3.41304 30.576 3.41304C30.4634 3.41304 30.3438 3.39193 30.2241 3.34971L30.3297 3.04712C30.4 3.06823 30.4704 3.0823 30.5408 3.0823C30.6041 3.0823 30.6534 3.07526 30.7026 3.05415C30.7449 3.03304 30.7941 2.99786 30.8363 2.9486C30.8786 2.89934 30.9208 2.8149 30.963 2.70934L30.9841 2.65304H30.8715L30.2312 0.992302V0.971191H30.6675L31.0193 1.97045C31.0615 2.08304 31.0897 2.18156 31.1178 2.27304C31.16 2.12527 31.1882 2.02675 31.2023 1.97045L31.5189 0.971191H31.9412V0.978227Z" fill="#FF6900"/>
<path d="M33.4048 1.05556C33.5103 1.14704 33.5596 1.28778 33.5596 1.47778V2.65296H33.2007L33.1726 2.51222C33.0811 2.58259 32.9826 2.63185 32.884 2.66C32.7855 2.68815 32.687 2.70222 32.5815 2.70222C32.4829 2.70222 32.3915 2.68111 32.314 2.64593C32.2366 2.61074 32.1733 2.55445 32.1311 2.48408C32.0889 2.4137 32.0677 2.3363 32.0677 2.24481C32.0677 2.11111 32.117 1.99148 32.2155 1.9C32.314 1.80852 32.4407 1.73815 32.6026 1.69593C32.7644 1.6537 32.9474 1.62556 33.1515 1.61852V1.55519C33.1515 1.44963 33.1303 1.36519 33.0881 1.32296C33.0459 1.2737 32.9755 1.25259 32.877 1.25259C32.7011 1.25259 32.5181 1.31593 32.314 1.44963L32.1452 1.18926C32.2648 1.10481 32.3915 1.04148 32.5181 0.992223C32.6448 0.942963 32.7855 0.928888 32.9333 0.928888C33.1444 0.921851 33.2992 0.971113 33.4048 1.05556ZM32.5533 2.34333C32.5885 2.37852 32.6448 2.39259 32.7152 2.39259C32.8559 2.39259 33.0037 2.35037 33.1515 2.26592V1.9C32.9474 1.90704 32.7855 1.94222 32.6729 1.99148C32.5603 2.04074 32.497 2.11815 32.497 2.20963C32.497 2.26593 32.5111 2.30815 32.5533 2.34333Z" fill="#FF6900"/>
<path d="M34.967 2.65998V0.197021H35.4033V2.65998H34.967Z" fill="#FF6900"/>
<path d="M37.3315 1.04854C37.423 1.13299 37.4652 1.26669 37.4652 1.44262V2.65298H37.0571V1.57632C37.0571 1.49187 37.05 1.42854 37.0289 1.37928C37.0149 1.33002 36.9867 1.30187 36.9445 1.28076C36.9023 1.25965 36.853 1.25262 36.7826 1.25262C36.656 1.25262 36.5082 1.29484 36.3534 1.37225V2.66002H35.9523V0.97817L36.3604 0.93595V1.0978C36.5645 0.978171 36.7615 0.921875 36.9515 0.921875C37.1204 0.921875 37.2471 0.964096 37.3315 1.04854Z" fill="#FF6900"/>
<path d="M38.1056 2.65287C37.9859 2.61768 37.8663 2.56139 37.7607 2.48398L37.9367 2.20954C38.1196 2.3362 38.3096 2.40657 38.5137 2.40657C38.6122 2.40657 38.6896 2.3925 38.7389 2.35732C38.7881 2.32213 38.8163 2.27991 38.8163 2.21658C38.8163 2.18139 38.8093 2.15324 38.7881 2.12509C38.767 2.09694 38.7319 2.07583 38.6826 2.04769C38.6333 2.01954 38.5559 1.99843 38.4644 1.97028L38.3519 1.94213C38.1689 1.89287 38.0422 1.82954 37.9578 1.75213C37.8733 1.67472 37.8381 1.56917 37.8381 1.4425C37.8381 1.34398 37.8663 1.25954 37.9226 1.18213C37.9789 1.10472 38.0563 1.04843 38.1548 1.00621C38.2533 0.963984 38.3659 0.942871 38.4926 0.942871C38.7319 0.942871 38.957 1.00621 39.1681 1.12584L39.0063 1.40028C38.9007 1.34398 38.8093 1.3088 38.7319 1.28769C38.6544 1.26658 38.577 1.25954 38.4926 1.25954C38.4152 1.25954 38.3519 1.27361 38.3096 1.30176C38.2674 1.32991 38.2463 1.37213 38.2463 1.42139C38.2463 1.44954 38.2533 1.47769 38.2674 1.4988C38.2815 1.51991 38.3096 1.54102 38.3448 1.55509C38.38 1.56917 38.4363 1.59028 38.5067 1.60435L38.6263 1.6325C38.8304 1.6888 38.9852 1.75917 39.0767 1.85065C39.1682 1.94213 39.2174 2.04769 39.2174 2.18843C39.2174 2.29398 39.1893 2.38547 39.14 2.46287C39.0837 2.54732 39.0063 2.61065 38.9007 2.65287C38.7952 2.69509 38.6685 2.72324 38.5137 2.72324C38.3659 2.70917 38.2322 2.68806 38.1056 2.65287Z" fill="#FF6900"/>
<path d="M41.0682 0.936035V2.66011H40.7093L40.6811 2.53344C40.4841 2.65307 40.2871 2.70937 40.083 2.70937C39.9211 2.70937 39.7945 2.66715 39.703 2.57566C39.6045 2.48418 39.5623 2.35752 39.5623 2.18159V0.978256L39.9704 0.936035V2.05492C39.9704 2.13233 39.9774 2.18863 39.9986 2.23789C40.0126 2.28011 40.0408 2.31529 40.083 2.3364C40.1252 2.35751 40.1815 2.37159 40.2519 2.37159C40.3645 2.37159 40.4982 2.32937 40.66 2.24492V0.978256L41.0682 0.936035Z" fill="#FF6900"/>
<path d="M42.6796 0.95706L42.6093 1.37225C42.567 1.35817 42.5319 1.3441 42.4967 1.33706C42.4615 1.33002 42.4193 1.32299 42.377 1.32299C42.3067 1.32299 42.2363 1.33706 42.173 1.37225C42.1096 1.40743 42.0463 1.47076 41.983 1.55521V2.65298H41.5748V0.971135L41.983 0.93595V1.17521C42.0463 1.09076 42.1167 1.02743 42.2011 0.98521C42.2856 0.942988 42.37 0.921875 42.4685 0.921875C42.5319 0.921875 42.6022 0.935949 42.6796 0.95706Z" fill="#FF6900"/>
<path d="M44.1644 1.05556C44.27 1.14704 44.3192 1.28778 44.3192 1.47778V2.65296H43.9604L43.9322 2.51222C43.8407 2.58259 43.7422 2.63185 43.6437 2.66C43.5452 2.68815 43.4467 2.70222 43.3411 2.70222C43.2426 2.70222 43.1511 2.68111 43.0737 2.64593C42.9963 2.61074 42.9329 2.55445 42.8907 2.48408C42.8485 2.4137 42.8274 2.3363 42.8274 2.24481C42.8274 2.11111 42.8767 1.99148 42.9752 1.9C43.0737 1.80852 43.2004 1.73815 43.3622 1.69593C43.5241 1.6537 43.707 1.62556 43.9111 1.61852V1.55519C43.9111 1.44963 43.89 1.36519 43.8478 1.32296C43.8055 1.2737 43.7352 1.25259 43.6367 1.25259C43.4607 1.25259 43.2778 1.31593 43.0737 1.44963L42.9048 1.18926C43.0244 1.10481 43.1511 1.04148 43.2778 0.992223C43.4044 0.942963 43.5452 0.928888 43.6929 0.928888C43.9041 0.921851 44.0589 0.971113 44.1644 1.05556ZM43.3129 2.34333C43.3481 2.37852 43.4044 2.39259 43.4748 2.39259C43.6155 2.39259 43.7633 2.35037 43.9111 2.26592V1.9C43.707 1.90704 43.5452 1.94222 43.4326 1.99148C43.32 2.04074 43.2567 2.11815 43.2567 2.20963C43.2567 2.26593 43.2778 2.30815 43.3129 2.34333Z" fill="#FF6900"/>
<path d="M46.1911 1.04854C46.2826 1.13299 46.3248 1.26669 46.3248 1.44262V2.65298H45.9167V1.57632C45.9167 1.49187 45.9096 1.42854 45.8885 1.37928C45.8744 1.33002 45.8463 1.30187 45.8041 1.28076C45.7618 1.25965 45.7126 1.25262 45.6422 1.25262C45.5156 1.25262 45.3678 1.29484 45.213 1.37225V2.66002H44.8048V0.97817L45.213 0.93595V1.0978C45.417 0.978171 45.6141 0.921875 45.8041 0.921875C45.973 0.921875 46.0996 0.964096 46.1911 1.04854Z" fill="#FF6900"/>
<path d="M46.9089 2.51224C46.7611 2.37854 46.6837 2.16039 46.6837 1.8578C46.6837 1.64669 46.7259 1.47076 46.8104 1.33002C46.8948 1.18928 47.0004 1.08373 47.1341 1.0204C47.2678 0.957062 47.4085 0.921875 47.5493 0.921875C47.6408 0.921875 47.7322 0.935949 47.8167 0.95706C47.9011 0.978171 47.9996 1.02039 48.0982 1.06965L47.9504 1.35817C47.8659 1.31595 47.7956 1.2878 47.7322 1.27373C47.6689 1.25965 47.6126 1.24558 47.5493 1.24558C47.4156 1.24558 47.303 1.29484 47.2256 1.40039C47.1482 1.50595 47.1059 1.65373 47.1059 1.84373C47.1059 2.18854 47.2537 2.35743 47.5422 2.35743C47.6196 2.35743 47.697 2.34336 47.7604 2.32225C47.8308 2.2941 47.9011 2.25891 47.9785 2.21669L48.1333 2.49113C48.0348 2.55447 47.9363 2.60373 47.8308 2.63891C47.7252 2.6741 47.6126 2.69521 47.493 2.69521C47.2537 2.70928 47.0637 2.64595 46.9089 2.51224Z" fill="#FF6900"/>
<path d="M49.8644 1.90011H48.7314C48.7385 2.069 48.7877 2.18863 48.8722 2.26603C48.9566 2.34344 49.0622 2.38566 49.1888 2.38566C49.2803 2.38566 49.3648 2.37159 49.4351 2.35048C49.5055 2.32937 49.59 2.28715 49.6885 2.23789L49.8362 2.50529C49.7448 2.56863 49.6462 2.61789 49.5337 2.66011C49.4211 2.69529 49.3014 2.7164 49.1677 2.7164C49.0059 2.7164 48.8651 2.68826 48.7385 2.63196C48.6118 2.57566 48.5133 2.47714 48.4429 2.35048C48.3725 2.22381 48.3303 2.05492 48.3303 1.85085C48.3303 1.67492 48.3655 1.51307 48.4218 1.37937C48.4781 1.24566 48.5766 1.13307 48.7033 1.05567C48.83 0.978258 48.9777 0.936035 49.1537 0.936035C49.3085 0.936035 49.4422 0.964182 49.5548 1.02752C49.6603 1.09085 49.7448 1.17529 49.8011 1.28789C49.8574 1.40048 49.8855 1.52011 49.8855 1.66085C49.8714 1.72418 49.8714 1.80863 49.8644 1.90011ZM48.8792 1.32307C48.8159 1.39344 48.7737 1.49196 48.7525 1.61863H49.4633V1.60455C49.4633 1.47085 49.4351 1.37937 49.3788 1.31603C49.3225 1.2527 49.2451 1.22455 49.1396 1.22455C49.027 1.21751 48.9425 1.2527 48.8792 1.32307Z" fill="#FF6900"/>
</svg>
