<svg width="40" height="22" viewBox="0 0 40 22" fill="none" xmlns="http://www.w3.org/2000/svg">
<path d="M4.61053 9.22105C3.69865 9.22105 2.80727 8.95065 2.04907 8.44404C1.29088 7.93742 0.699929 7.21736 0.350969 6.3749C0.0020094 5.53244 -0.0893102 4.60541 0.0885879 3.71106C0.266486 2.8167 0.70561 1.99519 1.3504 1.35039C1.9952 0.7056 2.81675 0.26649 3.7111 0.0885916C4.60546 -0.0893066 5.53247 0.00199896 6.37493 0.350959C7.21739 0.699918 7.93743 1.29086 8.44404 2.04906C8.95065 2.80725 9.22105 3.69865 9.22105 4.61052C9.22105 5.83331 8.73535 7.00602 7.87071 7.87066C7.00607 8.7353 5.83331 9.22105 4.61053 9.22105Z" fill="#146394"/>
<path d="M37.7121 6.89824H14.9748C14.368 6.89824 13.7861 6.65721 13.3571 6.22818C12.9281 5.79914 12.687 5.21725 12.687 4.6105C12.687 4.00375 12.9281 3.42185 13.3571 2.99282C13.7861 2.56378 14.368 2.32275 14.9748 2.32275H37.7121C38.3188 2.32275 38.9006 2.56378 39.3297 2.99282C39.7587 3.42185 39.9998 4.00375 39.9998 4.6105C39.9998 5.21725 39.7587 5.79914 39.3297 6.22818C38.9006 6.65721 38.3188 6.89824 37.7121 6.89824Z" fill="#146394"/>
<path d="M4.61053 21.1439C3.69865 21.1439 2.80727 20.8735 2.04907 20.3669C1.29088 19.8603 0.699929 19.1402 0.350969 18.2978C0.0020094 17.4553 -0.0893102 16.5283 0.0885879 15.6339C0.266486 14.7396 0.70561 13.918 1.3504 13.2732C1.9952 12.6285 2.81675 12.1893 3.7111 12.0114C4.60546 11.8335 5.53247 11.9249 6.37493 12.2738C7.21739 12.6228 7.93743 13.2137 8.44404 13.9719C8.95065 14.7301 9.22105 15.6215 9.22105 16.5334C9.22105 17.7562 8.73535 18.9289 7.87071 19.7935C7.00607 20.6582 5.83331 21.1439 4.61053 21.1439Z" fill="#FAA62E"/>
<path d="M37.7121 18.8249H14.9748C14.368 18.8249 13.7861 18.5838 13.3571 18.1548C12.9281 17.7258 12.687 17.1439 12.687 16.5371C12.687 15.9304 12.9281 15.3485 13.3571 14.9195C13.7861 14.4904 14.368 14.2494 14.9748 14.2494H37.7121C38.3188 14.2494 38.9006 14.4904 39.3297 14.9195C39.7587 15.3485 39.9998 15.9304 39.9998 16.5371C39.9998 17.1439 39.7587 17.7258 39.3297 18.1548C38.9006 18.5838 38.3188 18.8249 37.7121 18.8249Z" fill="#FAA62E"/>
</svg>
