<svg width="45" height="36" viewBox="0 0 45 36" fill="none" xmlns="http://www.w3.org/2000/svg">
<path d="M12.97 11.179L12.2389 9.62648L15.3188 8.93896L18.2466 10.4464L20.2693 12.2288L21.8285 12.7167L24.3605 13.106L24.8955 13.8366H26.9915L28.2575 15.0055L27.8691 16.8083L28.2575 18.7081L29.1333 19.1462L29.8158 20.4594L31.1826 21.4332H33.5681L33.907 22.5052L32.5933 24.5992L28.4527 26.1093L25.2372 26.888L23.8741 28.6411L22.0731 28.1545L20.0256 27.7154H19.0033L18.4692 28.3908L15.6431 24.3065L14.3303 23.04V20.799L12.9727 18.9481L12.2417 18.7042L11.7946 17.2428L9.50808 14.1744L9.06836 13.8338L9.50808 12.2259C9.50808 12.2259 11.1137 12.6649 11.1653 12.7137C11.4644 12.4445 11.7407 12.1514 11.9916 11.8368H12.4789L12.97 11.179Z" fill="#FAA62E"/>
<path d="M7.04559 4.04496L5.72734 1.24198L11.2898 0L16.5756 2.72053L20.2298 5.94079L23.044 6.82069L27.6135 7.52332L28.5781 8.84408H32.3633L34.6508 10.9547L33.9491 14.2098L34.6508 17.6394L36.232 18.4311L37.4641 20.8063L39.932 22.5652H44.2413L44.8532 24.5004L42.4806 28.2817L35.0035 31.0098L29.1955 32.4169L26.7349 35.5838L23.481 34.7039L19.7855 33.9113H17.9405L16.9732 35.1306L11.8715 27.7557L9.50069 25.4687V21.4226L7.04742 18.0814L5.72918 17.6412L4.92119 15.0015L0.793327 9.46129L0 8.84592L0.793327 5.94262C0.793327 5.94262 3.95711 6.32629 4.05091 6.41166C4.14472 6.49702 5.27755 5.23632 5.27755 5.23632H6.15882L7.04559 4.04496Z" stroke="#146394" stroke-width="2.8142"/>
</svg>
