<svg width="411" height="32" viewBox="0 0 411 32" fill="none" xmlns="http://www.w3.org/2000/svg">
<mask id="mask0_1_4298" style="mask-type:luminance" maskUnits="userSpaceOnUse" x="189" y="6" width="51" height="19">
<path d="M239.114 6.74731H189.655V24.4297H239.114V6.74731Z" fill="white"/>
</mask>
<g mask="url(#mask0_1_4298)">
<path d="M209.711 6.74805H207.189C206.002 10.0864 203.974 15.5768 202.862 18.6184C202.757 18.915 202.615 19.1974 202.441 19.4592H204.193C204.425 19.4466 204.651 19.3736 204.846 19.2473C205.042 19.1211 205.201 18.9459 205.309 18.7392C205.334 18.6656 205.382 18.616 205.407 18.5408L206.47 15.648C207.782 12.0416 209.542 7.16805 209.71 6.75045" fill="white"/>
<path d="M236.615 13.0793L235.552 15.9977C235.455 16.2552 235.283 16.4776 235.058 16.6362C234.833 16.7948 234.565 16.8823 234.29 16.8873H232.53C232.713 16.609 232.862 16.3105 232.976 15.9977L234.039 13.1049H231.516L230.455 15.9969C230.364 16.2483 230.2 16.4671 229.985 16.6259C229.769 16.7847 229.512 16.8764 229.245 16.8897H227.495C227.678 16.6114 227.827 16.3129 227.941 16.0001L229.004 13.1073H226.478L225.415 16.0001C225.323 16.2511 225.159 16.4694 224.943 16.6276C224.728 16.7858 224.47 16.877 224.203 16.8897H216.066C216.249 16.6114 216.398 16.3129 216.512 16.0001L216.759 15.2625C217.479 13.3337 216.462 11.8225 214.582 11.8225H211.691L210.751 14.3449H213.644C213.753 14.3346 213.862 14.3543 213.96 14.402C214.058 14.4497 214.141 14.5235 214.2 14.6153C214.259 14.7071 214.292 14.8133 214.295 14.9224C214.297 15.0315 214.27 15.1392 214.215 15.2337L213.918 15.9713C213.826 16.2223 213.662 16.4406 213.446 16.5988C213.231 16.757 212.973 16.8482 212.706 16.8609H208.525L207.635 19.3305H233.403C234.423 19.266 235.403 18.9102 236.227 18.3055C237.051 17.7007 237.685 16.8723 238.052 15.9185L239.115 13.0001L236.615 13.0793Z" fill="white"/>
<path d="M196.382 19.4584H189.655L190.595 16.936H197.298C197.569 16.9152 197.83 16.821 198.052 16.6634C198.274 16.5059 198.449 16.291 198.558 16.0416L198.806 15.304C198.885 15.1688 198.908 15.0074 198.869 14.8554C198.829 14.7035 198.731 14.5733 198.596 14.4936C198.488 14.4288 198.361 14.4007 198.236 14.4136H194.058L194.998 11.8912H199.178C201.082 11.8912 202.07 13.424 201.354 15.3312L201.107 16.0512C200.708 16.9977 200.057 17.8164 199.225 18.4181C198.393 19.0198 197.411 19.3813 196.387 19.4632" fill="white"/>
<path d="M207.659 22.377H207.363L207.24 22.697H207.537L207.659 22.377Z" fill="white"/>
<path d="M208.325 23.3153C208.289 23.4377 208.21 23.543 208.103 23.6121C207.999 23.648 207.892 23.6727 207.783 23.6857H207.017C206.879 23.6858 206.743 23.652 206.621 23.5873C206.522 23.5137 206.522 23.3649 206.596 23.1665L206.794 22.6969H206.474L206.276 23.1665C206.077 23.7105 206.276 24.0073 206.893 24.0073H207.933C208.069 24.0046 208.201 23.9605 208.312 23.8809C208.422 23.8012 208.506 23.6899 208.551 23.5617L208.871 22.7209H208.574L208.325 23.3153Z" fill="white"/>
<path d="M208.203 22.377H207.883L207.785 22.697H208.082L208.203 22.377Z" fill="white"/>
<path d="M210.329 23.3169C210.368 23.2023 210.437 23.1 210.528 23.0201C210.564 22.9781 210.61 22.945 210.662 22.9237C210.713 22.9023 210.769 22.8931 210.825 22.8969C210.876 22.8896 210.929 22.9031 210.97 22.9345C211.012 22.9658 211.04 23.0125 211.047 23.0641C211.05 23.0824 211.05 23.101 211.047 23.1193L211.367 22.9961C211.364 22.8919 211.322 22.7927 211.248 22.719C211.174 22.6453 211.075 22.6028 210.971 22.6001H210.941C210.743 22.602 210.551 22.672 210.397 22.7985C210.24 22.9313 210.106 23.0901 210.001 23.2681C209.963 23.3711 209.938 23.4787 209.928 23.5881H209.408C209.368 23.595 209.326 23.5919 209.287 23.579C209.249 23.5662 209.214 23.5441 209.185 23.5145C209.161 23.4897 209.161 23.3913 209.185 23.2177L209.631 22.0057H209.311L208.841 23.3409C208.807 23.4005 208.787 23.4673 208.782 23.536C208.778 23.6047 208.79 23.6735 208.817 23.7369C208.855 23.7846 208.904 23.8227 208.959 23.8485C209.015 23.8743 209.075 23.8871 209.137 23.8857H210.991L211.089 23.5657H210.298C210.284 23.5252 210.279 23.4821 210.283 23.4394C210.288 23.3967 210.301 23.3554 210.323 23.3185" fill="white"/>
<path d="M214.707 22.0562H214.41L214.287 22.3762H214.584L214.707 22.0562Z" fill="white"/>
<path d="M214.307 22.6001C214.112 22.6097 213.924 22.6758 213.766 22.7905C213.608 22.9051 213.487 23.0633 213.418 23.2457C213.372 23.3551 213.363 23.4765 213.393 23.5913H212.602L212.725 23.2713C212.848 22.9257 212.725 22.6257 212.379 22.6257C212.188 22.6245 212.002 22.6836 211.847 22.7945C211.691 22.9054 211.575 23.0624 211.514 23.2433C211.391 23.6393 211.539 23.8889 211.91 23.8889H212.207C212.207 23.8889 211.985 24.1361 211.811 24.1361L211.713 24.3833C212.058 24.4081 212.504 23.9377 212.504 23.9377H213.839C214.031 23.9278 214.216 23.8611 214.37 23.7462C214.524 23.6313 214.64 23.4732 214.704 23.2921C214.827 22.8961 214.704 22.6241 214.308 22.6241M212.308 23.5889H212.014C211.865 23.5889 211.791 23.4401 211.865 23.2433C211.892 23.1521 211.947 23.0719 212.023 23.0143C212.098 22.9567 212.19 22.9249 212.286 22.9233C212.434 22.9233 212.508 23.0465 212.434 23.2201L212.308 23.5889ZM213.968 23.6625C213.77 23.6625 213.721 23.5137 213.77 23.2665C213.797 23.1689 213.855 23.0826 213.936 23.0205C214.016 22.9583 214.114 22.9234 214.215 22.9209C214.414 22.9209 214.462 23.0697 214.414 23.3169C214.378 23.4096 214.317 23.4907 214.239 23.5516C214.16 23.6125 214.067 23.6509 213.968 23.6625Z" fill="white"/>
<path d="M220.196 23.3177C220.171 23.3913 220.122 23.4409 220.097 23.5161C220.069 23.5471 220.035 23.5718 219.997 23.5888C219.958 23.6057 219.917 23.6145 219.875 23.6145H219.155C219.244 23.5143 219.312 23.3966 219.353 23.2689L219.799 22.0569H219.479L219.033 23.2689C219.007 23.3505 218.965 23.426 218.909 23.4913C218.879 23.5263 218.841 23.5535 218.798 23.5706C218.755 23.5878 218.708 23.5943 218.662 23.5897H218.192L218.217 23.4913C218.253 23.4184 218.272 23.338 218.272 23.2565C218.272 23.175 218.253 23.0946 218.217 23.0217C218.175 22.9553 218.117 22.9017 218.047 22.8667C217.977 22.8317 217.899 22.8166 217.821 22.8233C217.622 22.8251 217.43 22.8952 217.277 23.0217C217.12 23.1429 217 23.3056 216.931 23.4913C216.931 23.5161 216.906 23.6401 216.906 23.6401H216.261C216.459 23.0961 216.359 22.7753 216.013 22.6505C215.966 22.6339 215.915 22.6256 215.865 22.6257H215.545L215.421 22.9457C215.521 22.942 215.621 22.9503 215.718 22.9705C216.015 23.0441 216.064 23.2673 215.941 23.6905H214.901L214.777 23.9377H216.929C216.969 24.0133 217.03 24.0751 217.105 24.1149C217.18 24.1546 217.266 24.1704 217.35 24.1601C217.574 24.1499 217.789 24.0724 217.968 23.9377H219.873C220.027 23.9414 220.177 23.8917 220.299 23.7971C220.421 23.7025 220.506 23.5688 220.541 23.4185L221.01 22.0833H220.69L220.196 23.3177ZM217.723 23.8121C217.691 23.8453 217.653 23.8712 217.61 23.8882C217.568 23.9052 217.522 23.9128 217.476 23.9105C217.277 23.9105 217.229 23.7617 217.277 23.5145C217.306 23.4212 217.357 23.3363 217.426 23.2673C217.458 23.2341 217.497 23.2082 217.539 23.1912C217.582 23.1742 217.628 23.1666 217.673 23.1689C217.716 23.1636 217.758 23.1729 217.794 23.1954C217.831 23.2178 217.858 23.2519 217.872 23.2921C217.887 23.3324 217.893 23.3757 217.889 23.4186C217.885 23.4616 217.87 23.5029 217.847 23.5393C217.847 23.6625 217.773 23.7129 217.724 23.8113" fill="white"/>
<path d="M222.471 22.7233C222.424 22.7049 222.373 22.6965 222.322 22.6985H222.022L221.923 22.9953C222.023 22.9916 222.122 22.9999 222.22 23.0201C222.467 23.0937 222.566 23.3169 222.418 23.6881H221.378L221.255 24.0081H222.59L222.714 23.6881C222.887 23.1689 222.812 22.8473 222.466 22.7233" fill="white"/>
<path d="M222.892 23.984H223.212L223.88 22.1296H223.56L222.892 23.984Z" fill="white"/>
<path d="M227.541 23.3161C227.467 23.5385 227.342 23.6361 227.195 23.6361H226.898C226.988 23.5359 227.055 23.4182 227.097 23.2905L227.319 22.6449H226.999L226.777 23.3129C226.703 23.5353 226.578 23.6329 226.431 23.6329H226.134C226.215 23.5265 226.281 23.4104 226.333 23.2873L226.58 22.6417H226.234L225.987 23.2873C225.889 23.5097 225.765 23.6329 225.591 23.6329H225.022C225.221 23.1633 225.121 22.8417 224.8 22.6681C224.752 22.6497 224.702 22.6413 224.651 22.6433H224.354L224.256 22.9401C224.355 22.9364 224.455 22.9447 224.553 22.9649C224.8 23.0385 224.898 23.2617 224.751 23.6329H223.711L223.587 23.9529H227.173C227.358 23.9404 227.535 23.8688 227.678 23.7486C227.82 23.6285 227.92 23.466 227.964 23.2849L228.186 22.6673H227.866L227.541 23.3161Z" fill="white"/>
<path d="M230.434 22.6249H229.667C229.446 22.6356 229.235 22.7153 229.061 22.8528C228.888 22.9903 228.763 23.1786 228.702 23.3913L228.357 24.4313H228.702L229.048 23.4913C229.077 23.3696 229.142 23.2595 229.235 23.1757C229.327 23.0918 229.443 23.0381 229.567 23.0217H229.814C229.731 23.1164 229.664 23.2246 229.616 23.3417C229.493 23.7377 229.641 24.0097 230.037 24.0097C230.228 23.9959 230.41 23.9277 230.564 23.8133C230.717 23.6989 230.834 23.543 230.902 23.3641C231.025 22.9681 230.902 22.6961 230.506 22.6961M230.11 23.6609C229.911 23.6609 229.862 23.5121 229.911 23.2649C229.939 23.1672 229.997 23.081 230.077 23.0188C230.157 22.9566 230.255 22.9218 230.357 22.9193C230.555 22.9193 230.604 23.0681 230.555 23.3153C230.517 23.4064 230.456 23.4862 230.378 23.5467C230.3 23.6073 230.207 23.6466 230.11 23.6609Z" fill="white"/>
<path d="M234.143 22.0562H233.846L233.722 22.3762H234.019L234.143 22.0562Z" fill="white"/>
<path d="M235.801 22.0562H235.504L235.406 22.3762H235.702L235.801 22.0562Z" fill="white"/>
<path d="M235.305 22.6761L235.082 23.3217C235.057 23.3953 235.009 23.4449 234.984 23.5201C234.957 23.5528 234.923 23.5788 234.884 23.5959C234.846 23.613 234.804 23.6207 234.761 23.6185H234.242C234.465 22.9505 234.341 22.6289 233.846 22.6289C233.439 22.6622 233.06 22.8476 232.783 23.1481L233.204 22.0849H232.884L232.315 23.6177H231.647C231.607 23.6245 231.565 23.6214 231.527 23.6086C231.488 23.5958 231.453 23.5736 231.425 23.5441C231.4 23.5193 231.4 23.4209 231.425 23.2473L231.87 22.0353H231.573L231.104 23.3705C231.069 23.43 231.049 23.4968 231.045 23.5655C231.04 23.6343 231.052 23.7031 231.079 23.7665C231.117 23.8141 231.166 23.8523 231.222 23.8781C231.277 23.9039 231.338 23.9166 231.399 23.9153H234.713C234.864 23.9161 235.01 23.8649 235.128 23.7703C235.245 23.6758 235.327 23.5436 235.358 23.3961L235.655 22.6585H235.309L235.305 22.6761ZM233.845 23.5913H232.585C232.841 23.2203 233.231 22.9625 233.673 22.8713C233.92 22.8713 234.018 23.0937 233.895 23.4889C233.895 23.5137 233.87 23.5625 233.87 23.5873" fill="white"/>
</g>
<path d="M151.686 16.8496H130.938V23.7488H151.686V16.8496Z" fill="white"/>
<path d="M151.686 7.42798H130.938V14.3272H151.686V7.42798Z" fill="white"/>
<mask id="mask1_1_4298" style="mask-type:luminance" maskUnits="userSpaceOnUse" x="130" y="7" width="50" height="17">
<path d="M179.976 7.42639H130.938V23.7488H179.976V7.42639Z" fill="white"/>
</mask>
<g mask="url(#mask1_1_4298)">
<path d="M172.434 22.3393L172.336 22.3641C172.116 22.4139 171.893 22.4468 171.668 22.4625C171.124 22.4625 170.481 22.1657 170.481 20.8801C170.481 20.2121 170.604 19.2977 171.594 19.2977C171.841 19.3027 172.085 19.3531 172.314 19.4465L172.412 19.4713L172.434 22.3393ZM172.583 15.9089L172.41 15.9337V18.2825L172.261 18.2577H172.236C171.939 18.1653 171.631 18.1152 171.321 18.1089C169.342 18.1089 168.921 19.5929 168.921 20.8537C168.883 21.1722 168.908 21.495 168.995 21.8038C169.082 22.1125 169.229 22.4012 169.427 22.6532C169.625 22.9052 169.872 23.1156 170.151 23.2725C170.431 23.4293 170.739 23.5295 171.058 23.5673C171.227 23.5876 171.397 23.59 171.566 23.5745C172.168 23.5939 172.769 23.5189 173.347 23.3521C173.842 23.2033 174.015 22.9833 174.015 22.5113V15.6873C173.546 15.7369 173.075 15.8105 172.581 15.9097" fill="white"/>
<path d="M178.369 22.388L178.27 22.4128L177.95 22.5112C177.704 22.5948 177.445 22.6365 177.184 22.6344C176.714 22.6344 176.418 22.412 176.418 21.9888C176.418 21.7168 176.541 21.296 177.333 21.296H178.322V22.4088H178.372L178.369 22.388ZM177.701 18.0608C177.012 18.0791 176.328 18.1955 175.672 18.4064L175.153 18.5552L175.326 19.7176L175.821 19.544C176.357 19.3658 176.916 19.2658 177.481 19.2472C177.703 19.2472 178.396 19.2472 178.396 19.9672V20.2872H177.456C175.725 20.2872 174.958 20.8312 174.958 22.0184C174.958 23.008 175.678 23.6256 176.912 23.6256C177.369 23.5996 177.823 23.5415 178.272 23.452H178.322L178.47 23.4768C178.94 23.5752 179.435 23.6504 179.93 23.7488V19.8904C179.93 18.7032 179.192 18.0608 177.704 18.0608" fill="white"/>
<path d="M166.523 22.388L166.374 22.4128L166.054 22.5112C165.807 22.5948 165.548 22.6365 165.287 22.6344C164.818 22.6344 164.521 22.412 164.521 21.9888C164.521 21.7168 164.644 21.296 165.386 21.296H166.376L166.523 22.388ZM165.754 18.0608C165.048 18.0807 164.348 18.1969 163.674 18.4064L163.155 18.5552L163.328 19.7176L163.823 19.544C164.365 19.3637 164.931 19.2637 165.503 19.2472C165.725 19.2472 166.418 19.2472 166.418 19.9672V20.2872H165.478C163.747 20.2872 162.98 20.8312 162.98 22.0184C162.98 23.008 163.7 23.6256 164.959 23.6256C165.415 23.5996 165.87 23.5415 166.319 23.452H166.368L166.517 23.4768C167.011 23.5752 167.507 23.6504 167.976 23.7488V19.8904C168.001 18.7032 167.239 18.0608 165.751 18.0608" fill="white"/>
<path d="M159.995 18.036C159.423 18.0433 158.857 18.1689 158.335 18.4048L158.286 18.4296L158.236 18.4048C157.787 18.1454 157.27 18.0251 156.752 18.0592C156.149 18.0665 155.549 18.1581 154.971 18.3312C154.452 18.48 154.251 18.7272 154.251 19.196V23.5736H155.859V19.5448L155.983 19.52C156.211 19.4283 156.457 19.3863 156.703 19.3968C156.786 19.3882 156.871 19.3961 156.951 19.4201C157.032 19.4442 157.107 19.4838 157.172 19.5369C157.237 19.5899 157.291 19.6553 157.331 19.7293C157.371 19.8033 157.396 19.8844 157.405 19.968C157.411 20.0332 157.408 20.099 157.395 20.1632V23.6504H159.002V20.1128C159.013 19.9953 158.996 19.8768 158.952 19.7672L158.903 19.644L159.026 19.5944C159.281 19.4756 159.56 19.4162 159.842 19.4208C160.162 19.4208 160.562 19.544 160.562 20.1872V23.6496H162.169V20.0136C162.184 19.7652 162.149 19.5164 162.067 19.2814C161.986 19.0464 161.858 18.8299 161.693 18.6441C161.527 18.4583 161.327 18.307 161.103 18.1988C160.879 18.0906 160.636 18.0277 160.387 18.0136C160.256 18.0055 160.123 18.0116 159.993 18.032" fill="white"/>
<path d="M177.207 11.9289C176.882 11.928 176.559 11.895 176.242 11.8305L176.143 11.8057V9.45605C176.142 9.34044 176.134 9.22501 176.119 9.11045L176.069 9.01205L176.192 8.98725C176.217 8.98725 176.242 8.96245 176.291 8.96245H176.315C176.334 8.96036 176.352 8.95157 176.365 8.93765C176.39 8.93765 176.415 8.91285 176.463 8.91285C176.738 8.84201 177.021 8.8089 177.304 8.81445C178.294 8.81445 178.417 9.72965 178.417 10.3969C178.417 11.6585 177.771 11.9297 177.205 11.9297M177.205 7.42885H177.18C176.772 7.39288 176.362 7.44247 175.974 7.57445C175.586 7.70642 175.231 7.91787 174.93 8.19525C174.729 8.46659 174.624 8.79703 174.632 9.13445V11.5769C174.645 11.686 174.628 11.7967 174.583 11.8969L174.533 12.0201H171.565V10.2953C171.598 9.9362 171.554 9.57418 171.437 9.23338C171.319 8.89257 171.13 8.58084 170.882 8.31899C170.634 8.05714 170.333 7.85121 169.999 7.71495C169.665 7.57869 169.306 7.51525 168.946 7.52885H167.437C167.387 7.97445 167.314 8.24885 167.263 8.69125H168.75C169.541 8.69125 169.937 9.35925 169.937 10.3513V12.1033L169.814 12.0537C169.701 12.0233 169.585 12.0067 169.468 12.0041H166.896C166.847 12.3241 166.773 12.7705 166.723 13.1665H174.66C174.932 13.1169 175.254 13.0433 175.501 13.0177C176.03 13.223 176.594 13.3238 177.161 13.3145C177.546 13.3374 177.931 13.2768 178.29 13.1368C178.649 12.9969 178.974 12.7809 179.242 12.5036C179.51 12.2264 179.714 11.8945 179.842 11.5307C179.969 11.1669 180.016 10.7798 179.98 10.3961C180.008 10.0349 179.964 9.67191 179.852 9.3277C179.739 8.98348 179.56 8.66482 179.324 8.38994C179.088 8.11505 178.8 7.88933 178.477 7.72566C178.154 7.56198 177.802 7.46357 177.441 7.43605C177.365 7.42965 177.289 7.42645 177.213 7.42805" fill="white"/>
<path d="M163.334 13.9064H163.383C165.135 13.9064 165.955 13.3128 165.955 11.928C165.959 11.6904 165.916 11.4544 165.829 11.2334C165.741 11.0125 165.611 10.8109 165.446 10.6403C165.28 10.4697 165.083 10.3334 164.865 10.2392C164.647 10.1449 164.412 10.0947 164.174 10.0912C164.108 10.0895 164.041 10.0919 163.975 10.0984H162.393C162.211 10.1187 162.029 10.066 161.886 9.95205C161.743 9.83807 161.651 9.67207 161.631 9.49043C161.627 9.45397 161.627 9.4173 161.631 9.38083C161.631 9.06083 161.754 8.68803 162.546 8.68803H166.008C166.089 8.30446 166.146 7.91626 166.179 7.52563H162.594C160.934 7.52563 160.096 8.21843 160.096 9.38003C160.096 10.5416 160.816 11.132 162.05 11.132H163.632C163.731 11.1304 163.83 11.1484 163.922 11.1848C164.014 11.2213 164.098 11.2755 164.169 11.3445C164.24 11.4134 164.297 11.4957 164.337 11.5866C164.376 11.6776 164.397 11.7754 164.398 11.8744V11.8984C164.409 12.1 164.339 12.2974 164.204 12.4474C164.069 12.5974 163.88 12.6877 163.678 12.6984C163.631 12.7004 163.584 12.6983 163.538 12.692H157.256C156.465 12.6424 155.921 11.1832 155.921 11.1832V10.4952C155.921 9.40723 156.317 8.76403 157.231 8.76403H158.715C158.765 8.29443 158.838 8.04403 158.889 7.60163H156.86C156.499 7.59278 156.139 7.66038 155.806 7.80001C155.472 7.93965 155.172 8.14816 154.925 8.41189C154.677 8.67563 154.488 8.98864 154.371 9.33043C154.253 9.67222 154.208 10.0351 154.24 10.3952V11.1328C154.21 11.4468 154.241 11.7637 154.333 12.0653C154.426 12.367 154.576 12.6476 154.777 12.891C154.977 13.1344 155.224 13.3359 155.503 13.4839C155.781 13.6319 156.086 13.7236 156.4 13.7536C156.552 13.7684 156.706 13.7684 156.858 13.7536H158.334L161.079 13.8032H163.354V13.9016L163.334 13.9064Z" fill="white"/>
</g>
<mask id="mask2_1_4298" style="mask-type:luminance" maskUnits="userSpaceOnUse" x="349" y="5" width="50" height="21">
<path d="M398.368 5.58472H349.562V25.5911H398.368V5.58472Z" fill="white"/>
</mask>
<g mask="url(#mask2_1_4298)">
<path d="M358.454 8.15757C358.164 8.51972 357.794 8.81051 357.374 9.00759C356.954 9.20467 356.494 9.30277 356.03 9.29437C355.981 8.38831 356.292 7.49952 356.895 6.82157C357.496 6.11605 358.348 5.67262 359.27 5.58557C359.318 6.04734 359.271 6.51407 359.13 6.9566C358.99 7.39913 358.76 7.80796 358.454 8.15757M359.295 9.49277C357.96 9.41917 356.847 10.2304 356.204 10.2304C355.561 10.2304 354.597 9.54157 353.558 9.54157C352.88 9.55971 352.218 9.75353 351.638 10.1041C351.057 10.4547 350.577 10.95 350.245 11.5416C348.81 13.9904 349.876 17.6496 351.259 19.6528C351.927 20.6672 352.743 21.7328 353.806 21.7056C354.821 21.6808 355.216 21.0376 356.452 21.0376C357.688 21.0376 358.034 21.7056 359.098 21.6832C360.21 21.6584 360.902 20.6688 361.57 19.7048C362.033 18.9945 362.406 18.2304 362.683 17.4296C362.044 17.15 361.499 16.69 361.117 16.1059C360.735 15.5217 360.531 14.8388 360.531 14.1408C360.543 13.5203 360.709 12.9126 361.015 12.3727C361.321 11.8328 361.757 11.378 362.283 11.0496C361.93 10.5851 361.479 10.2046 360.962 9.93529C360.445 9.66598 359.874 9.51458 359.291 9.49197M366.933 6.64797V21.5408H369.208V16.468H372.398C373.644 16.5273 374.863 16.0894 375.786 15.2504C376.709 14.4115 377.261 13.2403 377.321 11.9944C377.328 11.844 377.328 11.6944 377.321 11.5456C377.386 10.313 376.96 9.10477 376.135 8.18676C375.309 7.26874 374.153 6.71609 372.921 6.65037C372.761 6.64237 372.606 6.64237 372.449 6.65037L366.933 6.64797ZM369.26 8.64797H371.934C373.934 8.64797 375.074 9.71117 375.074 11.5912C375.074 13.4712 373.938 14.5344 371.934 14.5344H369.285V8.65197L369.26 8.64797ZM381.75 21.7344C382.43 21.7483 383.101 21.5787 383.692 21.2435C384.283 20.9083 384.773 20.4198 385.11 19.8296H385.184V21.6328H387.286V14.216C387.286 12.064 385.579 10.704 382.982 10.704C380.558 10.704 378.754 12.1136 378.679 14.0176H380.732C380.848 13.5486 381.13 13.1374 381.525 12.8601C381.921 12.5827 382.404 12.4579 382.884 12.5088C384.293 12.5088 385.061 13.1768 385.061 14.388V15.2064L382.217 15.38C379.57 15.5536 378.137 16.6656 378.137 18.5704C378.162 20.4752 379.646 21.736 381.747 21.736M382.217 19.9552C380.98 19.9552 380.217 19.3616 380.217 18.4464C380.217 17.5064 380.954 16.9624 382.394 16.864L384.966 16.6904V17.5264C384.948 18.1885 384.669 18.8167 384.189 19.2732C383.709 19.7296 383.068 19.9769 382.406 19.9608C382.346 19.9608 382.285 19.9552 382.225 19.9496M390.089 25.588C392.339 25.588 393.402 24.7232 394.318 22.1256L398.374 10.7464H396.024L393.304 19.5256H393.284L390.55 10.7504H388.126L392.058 21.5824L391.859 22.2504C391.781 22.7016 391.539 23.108 391.179 23.3909C390.819 23.6739 390.367 23.8134 389.91 23.7824C389.737 23.7824 389.366 23.7576 389.242 23.7576V25.5384C389.52 25.5816 389.802 25.5982 390.083 25.588" fill="white"/>
</g>
<mask id="mask3_1_4298" style="mask-type:luminance" maskUnits="userSpaceOnUse" x="290" y="7" width="50" height="17">
<path d="M339.882 7.57593H290.423V23.5999H339.882V7.57593Z" fill="white"/>
</mask>
<g mask="url(#mask3_1_4298)">
<path d="M322.646 7.57594C319.134 7.57594 315.994 9.40554 315.994 12.7695C315.994 16.6271 321.558 16.8991 321.558 18.8279C321.558 19.6439 320.643 20.3855 319.036 20.3855C317.651 20.3721 316.292 20.0147 315.079 19.3455L314.342 22.7335C315.782 23.3042 317.318 23.5976 318.867 23.5983C322.7 23.5983 325.742 21.6935 325.742 18.2815C325.742 14.2015 320.153 13.9295 320.153 12.1487C320.153 11.5031 320.919 10.8135 322.502 10.8135C323.629 10.8303 324.741 11.0815 325.766 11.5511L326.479 8.26714C325.253 7.80844 323.955 7.57378 322.646 7.57434M290.522 7.82154L290.424 8.34074C291.386 8.52836 292.33 8.80144 293.243 9.15674C294.95 9.77434 295.098 10.1463 295.37 11.2631L298.51 23.4007H302.738L309.242 7.84554H305.038L300.858 18.3807L299.152 9.43034C299.094 8.968 298.862 8.54497 298.504 8.24667C298.146 7.94836 297.688 7.797 297.223 7.82314L290.522 7.82154ZM310.922 7.82154L307.609 23.3767H311.615L314.904 7.82154H310.922ZM333.278 7.82154C332.292 7.82154 331.818 8.34074 331.423 9.23434L325.559 23.3263H329.763L330.579 21.0015H335.677L336.171 23.3263H339.881L336.641 7.82154H333.278ZM333.822 12.0015L335.058 17.8415H331.72L333.822 12.0015Z" fill="white"/>
</g>
<mask id="mask4_1_4298" style="mask-type:luminance" maskUnits="userSpaceOnUse" x="68" y="7" width="54" height="18">
<path d="M121.26 7.06958H68.4441V24.1064H121.26V7.06958Z" fill="white"/>
</mask>
<g mask="url(#mask4_1_4298)">
<path d="M71.1089 7.07112L68.4441 13.2655H70.1785L70.6697 12.0247H73.5289L74.0177 13.2655H75.7897L73.1281 7.07112H71.1089ZM72.0945 8.51112L72.9641 10.6815H71.2201L72.0945 8.51112ZM75.9737 13.2639V7.07112L78.4393 7.08072L79.8721 11.0743L81.2713 7.07432H83.7169V13.2679H82.1681V8.70072L80.5257 13.2647H79.1657L77.5241 8.70072V13.2647L75.9737 13.2639ZM84.7737 13.2639V7.07112H89.8273V8.45432H86.3385V9.51512H89.7457V10.8199H86.3385V11.9199H89.8273V13.2647L84.7737 13.2639ZM90.7241 7.07112V13.2655H92.2737V11.0655H92.9257L94.7825 13.2663H96.6753L94.6353 10.9839C95.1055 10.9375 95.5411 10.7162 95.8559 10.3639C96.1707 10.0116 96.3418 9.55394 96.3353 9.08152C96.3369 8.81835 96.2866 8.55745 96.1873 8.31371C96.0881 8.06997 95.9418 7.84816 95.7568 7.66096C95.5719 7.47375 95.3518 7.32482 95.1093 7.22265C94.8667 7.12049 94.6065 7.06709 94.3433 7.06552C94.2873 7.06552 94.2305 7.06552 94.1753 7.07192L90.7241 7.07112ZM92.2737 8.45432H94.0433C94.2266 8.44689 94.4057 8.51058 94.5431 8.63208C94.6806 8.75358 94.7658 8.92349 94.7809 9.10632C94.7686 9.28534 94.6881 9.45281 94.5559 9.57415C94.4237 9.69548 94.2499 9.76141 94.0705 9.75832H92.2729L92.2737 8.45432ZM98.5497 13.2623H96.9681V7.07112H98.5497V13.2623ZM102.298 13.2623H101.957C100.305 13.2623 99.3025 11.9607 99.3025 10.1903C99.2251 9.44182 99.448 8.69321 99.9224 8.10905C100.397 7.52489 101.084 7.153 101.832 7.07512C102.015 7.05715 102.198 7.05715 102.381 7.07512H104.093V8.53752H102.318C102.122 8.54209 101.929 8.58516 101.75 8.66426C101.571 8.74336 101.409 8.85695 101.274 8.99854C101.139 9.14013 101.033 9.30695 100.963 9.48948C100.892 9.672 100.858 9.86665 100.862 10.0623C100.862 10.1103 100.867 10.1591 100.873 10.2071C100.844 10.4349 100.867 10.6663 100.94 10.8839C101.013 11.1016 101.135 11.2998 101.296 11.4637C101.457 11.6276 101.652 11.7529 101.869 11.8303C102.085 11.9076 102.316 11.935 102.544 11.9103H102.952L102.298 13.2623ZM105.668 7.07112L103.003 13.2663H104.738L105.229 12.0255H108.088L108.577 13.2663H110.349L107.687 7.07112H105.668ZM106.654 8.51112L107.524 10.6815H105.779L106.654 8.51112ZM110.527 13.2623V7.07112H112.496L115.016 10.9623V7.07112H116.564V13.2647H114.656L112.084 9.27192V13.2655L110.527 13.2623ZM79.7225 24.1055V17.9103H84.7753V19.2935H81.2841V20.3511H84.6913V21.6551H81.2841V22.7551H84.7729V24.1055H79.7225ZM104.484 24.1055V17.9103H109.537V19.2935H106.05V20.3511H109.444V21.6551H106.052V22.7551H109.541V24.1055H104.484ZM84.9721 24.1055L87.4329 21.0463L84.9145 17.9103H86.8657L88.3665 19.8471L89.8713 17.9103H91.7465L89.2561 21.0071L91.7217 24.1039H89.7737L88.3177 22.1959L86.8961 24.1047L84.9721 24.1055ZM91.9073 17.9119V24.1071H93.4961V22.1503H95.1241C95.6872 22.2253 96.257 22.0736 96.7083 21.7286C97.1595 21.3835 97.4553 20.8734 97.5305 20.3103C97.5444 20.2061 97.5506 20.101 97.5489 19.9959C97.5559 19.7284 97.5102 19.4621 97.4143 19.2122C97.3183 18.9624 97.1742 18.7339 96.9899 18.5397C96.8057 18.3456 96.585 18.1897 96.3405 18.0809C96.096 17.9721 95.8324 17.9125 95.5649 17.9055C95.4848 17.9028 95.4047 17.9052 95.3249 17.9127L91.9073 17.9119ZM93.4961 19.3127H95.2121C95.3965 19.2953 95.5804 19.3519 95.7232 19.4699C95.866 19.588 95.9561 19.7579 95.9737 19.9423C95.9754 19.969 95.9754 19.9957 95.9737 20.0223C95.9737 20.1161 95.9552 20.209 95.9193 20.2957C95.8834 20.3824 95.8308 20.4611 95.7644 20.5275C95.6981 20.5938 95.6194 20.6464 95.5327 20.6823C95.446 20.7182 95.3531 20.7367 95.2593 20.7367C95.2412 20.7376 95.223 20.7376 95.2049 20.7367H93.4945L93.4961 19.3127ZM98.2233 17.9111V24.1055H99.7729V21.9047H100.425L102.282 24.1055H104.174L102.137 21.8279C102.607 21.7809 103.042 21.5595 103.357 21.2073C103.671 20.8551 103.842 20.3977 103.836 19.9255C103.838 19.6624 103.787 19.4014 103.688 19.1577C103.589 18.914 103.443 18.6922 103.258 18.505C103.073 18.3178 102.853 18.1688 102.61 18.0667C102.368 17.9645 102.107 17.9111 101.844 17.9095C101.786 17.9095 101.729 17.9095 101.67 17.9159L98.2233 17.9111ZM99.7721 19.2943H101.544C101.727 19.2869 101.906 19.3506 102.044 19.4721C102.181 19.5936 102.267 19.7635 102.282 19.9463C102.269 20.1254 102.188 20.2929 102.056 20.4142C101.924 20.5355 101.75 20.6014 101.57 20.5983H99.7729L99.7721 19.2943ZM110.252 24.1055V22.7615H113.354C113.815 22.7615 114.012 22.5135 114.012 22.2415C114.012 21.9695 113.814 21.7175 113.354 21.7175H111.95C111.724 21.7397 111.495 21.7171 111.278 21.6509C111.06 21.5847 110.857 21.4762 110.682 21.3317C110.506 21.1872 110.36 21.0095 110.253 20.8087C110.146 20.6079 110.08 20.388 110.058 20.1615C110.049 20.0617 110.049 19.9614 110.058 19.8615C110.058 18.8679 110.678 17.9103 112.488 17.9103H115.504L114.852 19.3039H112.244C111.745 19.3039 111.592 19.5655 111.592 19.8159C111.592 19.959 111.648 20.0963 111.749 20.1977C111.85 20.2991 111.987 20.3563 112.13 20.3567H113.63C113.879 20.3197 114.134 20.3388 114.376 20.4126C114.617 20.4864 114.839 20.613 115.025 20.7834C115.212 20.9537 115.358 21.1634 115.453 21.3972C115.548 21.631 115.59 21.8831 115.575 22.1351C115.593 22.4029 115.553 22.6713 115.457 22.9219C115.361 23.1725 115.212 23.3994 115.02 23.5868C114.828 23.7743 114.598 23.9179 114.345 24.0077C114.092 24.0975 113.823 24.1314 113.555 24.1071L110.252 24.1055ZM115.932 24.1055V22.7615H119.032C119.493 22.7615 119.69 22.5135 119.69 22.2415C119.69 21.9695 119.491 21.7175 119.032 21.7175H117.631C117.405 21.7397 117.176 21.7171 116.958 21.6509C116.741 21.5847 116.538 21.4762 116.362 21.3317C116.187 21.1872 116.041 21.0095 115.934 20.8087C115.827 20.6079 115.761 20.388 115.738 20.1615C115.73 20.0617 115.73 19.9614 115.738 19.8615C115.738 18.8679 116.359 17.9103 118.169 17.9103H121.185L120.533 19.3039H117.924C117.425 19.3039 117.272 19.5655 117.272 19.8159C117.272 19.959 117.328 20.0963 117.429 20.1977C117.53 20.2991 117.667 20.3563 117.81 20.3567H119.31C119.559 20.3197 119.814 20.3388 120.056 20.4126C120.297 20.4864 120.519 20.613 120.705 20.7834C120.892 20.9537 121.038 21.1634 121.133 21.3972C121.228 21.631 121.27 21.8831 121.255 22.1351C121.273 22.4029 121.233 22.6713 121.137 22.9219C121.041 23.1725 120.892 23.3994 120.7 23.5868C120.508 23.7743 120.278 23.9179 120.025 24.0077C119.772 24.0975 119.503 24.1314 119.235 24.1071L115.932 24.1055Z" fill="white"/>
</g>
<path d="M268.676 25.1568C268.676 25.4689 268.8 25.7683 269.021 25.989C269.242 26.2096 269.541 26.3336 269.853 26.3336H269.941C270.215 26.3336 270.48 26.2399 270.694 26.068L270.461 25.668C270.308 25.7896 270.12 25.8594 269.925 25.8672C269.91 25.8682 269.896 25.8682 269.881 25.8672C269.699 25.8674 269.524 25.7952 269.395 25.6664C269.272 25.5237 269.204 25.3416 269.204 25.1532C269.204 24.9649 269.272 24.7828 269.395 24.64C269.455 24.5772 269.527 24.5273 269.607 24.4932C269.688 24.4591 269.774 24.4416 269.861 24.4416H269.882C270.092 24.4419 270.297 24.5123 270.463 24.6416L270.696 24.2416C270.478 24.0682 270.206 23.9743 269.927 23.9752H269.856C269.544 23.9752 269.245 24.0992 269.024 24.3199C268.803 24.5406 268.679 24.8399 268.679 25.152" fill="white"/>
<path d="M278.417 10.3512C277.576 8.3444 275.986 6.74503 273.983 5.89357L273.929 5.87357C272.9 5.42787 271.791 5.19963 270.67 5.20317H270.659H270.623C268.966 5.20048 267.347 5.69759 265.976 6.62957L266.005 6.61197C267.388 7.73383 268.406 9.24259 268.928 10.9456L268.945 11.0096C269.209 11.8646 269.341 12.7548 269.338 13.6496C269.339 14.5563 269.204 15.4581 268.938 16.3248L268.955 16.2608C268.446 17.9809 267.423 19.5041 266.023 20.6256L266.006 20.6392C267.171 21.4158 268.513 21.8881 269.908 22.0129C271.303 22.1377 272.707 21.911 273.992 21.3536L273.938 21.3752C275.943 20.5358 277.542 18.9488 278.397 16.9504L278.417 16.896C278.864 15.8637 279.092 14.7503 279.088 13.6256C279.09 12.4816 278.854 11.3497 278.395 10.3016L278.417 10.3512Z" fill="white"/>
<path d="M273.263 26.2847V24.0447H272.769V24.3095C272.692 24.2066 272.593 24.123 272.478 24.0653C272.364 24.0077 272.237 23.9776 272.109 23.9775H272.047C271.902 23.9773 271.758 24.0065 271.624 24.0634C271.49 24.1204 271.369 24.2038 271.269 24.3087C271.06 24.5408 270.945 24.8419 270.945 25.1539C270.945 25.466 271.06 25.7671 271.269 25.9991C271.37 26.1042 271.491 26.1877 271.625 26.2446C271.758 26.3015 271.903 26.3307 272.048 26.3303H272.12C272.246 26.3304 272.37 26.3005 272.483 26.243C272.595 26.1856 272.692 26.1023 272.766 25.9999V26.2847H273.263ZM272.615 25.6751C272.555 25.7366 272.484 25.7855 272.404 25.8188C272.325 25.8522 272.24 25.8695 272.154 25.8695H272.096C272.01 25.8696 271.925 25.852 271.847 25.8179C271.768 25.7838 271.697 25.7338 271.638 25.6711C271.521 25.5257 271.456 25.3443 271.456 25.1571C271.456 24.97 271.521 24.7886 271.638 24.6431C271.697 24.5804 271.768 24.5303 271.846 24.4962C271.925 24.4621 272.01 24.4445 272.095 24.4447H272.138C272.226 24.4445 272.313 24.4628 272.394 24.4983C272.475 24.5339 272.547 24.5859 272.606 24.6511C272.729 24.7845 272.797 24.959 272.796 25.1399V25.1599C272.796 25.1679 272.796 25.1783 272.796 25.1887C272.796 25.3678 272.731 25.5408 272.613 25.6751" fill="white"/>
<path d="M273.906 24.0456V26.2856H274.386V25.0256C274.386 24.6416 274.546 24.4464 274.866 24.4464H274.878C274.979 24.4463 275.08 24.4695 275.171 24.5144H275.166L275.314 24.0496C275.215 24.0052 275.108 23.9826 274.999 23.9832H274.95C274.835 23.983 274.723 24.0132 274.625 24.0709C274.526 24.1286 274.445 24.2115 274.39 24.3112V24.0456H273.906Z" fill="white"/>
<path d="M277.768 26.2847V23.1335H277.288V24.3103C277.21 24.2071 277.109 24.1234 276.993 24.0657C276.877 24.0079 276.749 23.9778 276.619 23.9775H276.562C276.417 23.9775 276.273 24.0075 276.14 24.0658C276.007 24.124 275.888 24.2092 275.79 24.3159C275.581 24.5448 275.466 24.8432 275.466 25.1527C275.466 25.4623 275.581 25.7607 275.79 25.9895C275.888 26.0964 276.008 26.1818 276.141 26.2402C276.274 26.2986 276.417 26.3287 276.563 26.3287H276.576H276.631C276.758 26.3287 276.884 26.2988 276.998 26.2413C277.112 26.1837 277.211 26.1003 277.287 25.9975V26.2775L277.768 26.2847ZM277.128 25.6703C277.067 25.7335 276.994 25.7837 276.914 25.818C276.833 25.8522 276.746 25.8697 276.659 25.8695H276.621C276.533 25.8694 276.445 25.851 276.365 25.8155C276.284 25.7799 276.211 25.7281 276.151 25.6631C276.028 25.5235 275.96 25.3435 275.96 25.1571C275.96 24.9708 276.028 24.7908 276.151 24.6511C276.215 24.5856 276.291 24.5335 276.375 24.4979C276.458 24.4623 276.549 24.4439 276.64 24.4439C276.731 24.4439 276.821 24.4623 276.905 24.4979C276.989 24.5335 277.065 24.5856 277.128 24.6511C277.251 24.7924 277.319 24.9732 277.319 25.1603C277.319 25.3475 277.251 25.5291 277.128 25.6703Z" fill="white"/>
<path d="M267.134 24.0456V26.2856H267.63V25.0256C267.63 24.6416 267.79 24.4464 268.11 24.4464H268.121C268.222 24.4463 268.322 24.4696 268.413 24.5144L268.562 24.0496C268.458 24.0052 268.346 23.9826 268.233 23.9832H268.195C268.081 23.983 267.969 24.0132 267.871 24.0709C267.772 24.1286 267.691 24.2115 267.635 24.3112V24.0456H267.134Z" fill="white"/>
<path d="M253.238 24.0504V26.2904H253.734V25.0432C253.734 24.6472 253.919 24.4496 254.282 24.4496C254.611 24.4496 254.778 24.6496 254.778 25.0432V26.2856H255.258V25.0432C255.258 24.6432 255.444 24.4496 255.804 24.4496C256.134 24.4496 256.301 24.6496 256.301 25.0424V26.2848H256.798V24.8736C256.798 24.8624 256.798 24.8512 256.798 24.8384C256.798 24.6149 256.712 24.3999 256.558 24.2384C256.382 24.0749 256.152 23.9842 255.912 23.9848H255.902C255.884 23.9838 255.866 23.9838 255.848 23.9848C255.704 23.9854 255.563 24.0224 255.437 24.0924C255.311 24.1623 255.205 24.2629 255.128 24.3848C255.058 24.2631 254.957 24.1622 254.835 24.0919C254.714 24.0217 254.576 23.9848 254.435 23.9848C254.418 23.9848 254.398 23.9848 254.38 23.9848H254.373C254.248 23.9849 254.126 24.015 254.015 24.0723C253.905 24.1297 253.81 24.2127 253.738 24.3144V24.0496L253.238 24.0504Z" fill="white"/>
<path d="M260.248 5.20006C259.108 5.19871 257.98 5.43379 256.935 5.89046L256.989 5.86886C254.979 6.70487 253.376 8.29299 252.521 10.2945L252.501 10.3481C252.054 11.3806 251.826 12.4943 251.83 13.6193C251.828 14.7633 252.064 15.8951 252.523 16.9433L252.501 16.8905C253.341 18.8952 254.928 20.4945 256.926 21.3497L256.98 21.3697C258.265 21.917 259.666 22.1346 261.057 22.0026C262.447 21.8705 263.783 21.3931 264.942 20.6137L264.912 20.6329C263.521 19.5164 262.499 18.0056 261.98 16.2985L261.964 16.2369C261.708 15.3916 261.579 14.5129 261.582 13.6297C261.581 12.2883 261.877 10.9634 262.451 9.75074C263.024 8.53808 263.86 7.46794 264.897 6.61766L264.913 6.60486C263.55 5.68355 261.941 5.19328 260.295 5.19766H260.259L260.248 5.20006Z" fill="white"/>
<path d="M265.48 7.01848L265.461 7.00488C264.122 8.04043 263.133 9.46207 262.628 11.0777L262.612 11.1361C262.357 11.9447 262.228 12.788 262.231 13.6361C262.23 14.4962 262.361 15.3513 262.621 16.1713L262.605 16.1121C263.1 17.7443 264.091 19.1815 265.442 20.2233L265.461 20.2369C266.807 19.2082 267.8 17.787 268.303 16.1697L268.319 16.1129C268.57 15.3102 268.696 14.4738 268.693 13.6329C268.693 12.764 268.558 11.9004 268.293 11.0729L268.31 11.1329C267.813 9.50202 266.824 8.06434 265.479 7.01608" fill="white"/>
<path d="M265.597 23.9801H265.545C265.401 23.98 265.259 24.0094 265.127 24.0665C264.994 24.1236 264.875 24.2072 264.777 24.3121C264.574 24.5316 264.462 24.8196 264.462 25.1185C264.462 25.1321 264.462 25.1473 264.462 25.1617C264.462 25.1753 264.462 25.1921 264.462 25.2097C264.46 25.509 264.575 25.7972 264.782 26.0137C264.991 26.22 265.274 26.335 265.567 26.3337H265.647C265.965 26.334 266.272 26.2224 266.515 26.0185L266.283 25.6553C266.106 25.8117 265.879 25.8996 265.643 25.9033H265.587C265.435 25.9031 265.288 25.8477 265.173 25.7474C265.059 25.6471 264.985 25.5086 264.964 25.3577H266.637V25.1649C266.637 25.1473 266.637 25.1289 266.637 25.1097C266.638 24.8151 266.53 24.5305 266.335 24.3097C266.242 24.2066 266.129 24.1241 266.002 24.0677C265.875 24.0114 265.737 23.9823 265.599 23.9825M266.141 24.9601H264.982C264.994 24.8147 265.06 24.6791 265.168 24.5803C265.275 24.4815 265.416 24.4267 265.561 24.4267C265.707 24.4267 265.848 24.4815 265.955 24.5803C266.063 24.6791 266.129 24.8147 266.141 24.9601Z" fill="white"/>
<path d="M259.531 26.2847V24.0447H259.051V24.3103C258.967 24.2063 258.861 24.1225 258.74 24.0651C258.619 24.0076 258.487 23.978 258.354 23.9783H258.31C258.166 23.978 258.023 24.0074 257.891 24.0645C257.759 24.1216 257.641 24.2053 257.542 24.3103C257.338 24.5447 257.226 24.845 257.226 25.1559C257.226 25.4667 257.338 25.7671 257.542 26.0015C257.641 26.1064 257.76 26.1899 257.892 26.2469C258.024 26.3039 258.167 26.3331 258.31 26.3327H258.337C258.351 26.3336 258.366 26.3336 258.38 26.3327C258.509 26.3326 258.637 26.3027 258.753 26.2453C258.869 26.1878 258.97 26.1044 259.049 26.0015V26.2847H259.531ZM258.886 25.6727C258.827 25.7355 258.756 25.7856 258.677 25.8197C258.598 25.8539 258.513 25.8714 258.427 25.8711H258.373C258.286 25.8713 258.2 25.8537 258.119 25.8195C258.039 25.7852 257.967 25.735 257.907 25.6719C257.789 25.5267 257.724 25.3452 257.724 25.1579C257.724 24.9706 257.789 24.789 257.907 24.6439C257.967 24.5812 258.04 24.5313 258.12 24.4972C258.2 24.4631 258.286 24.4455 258.373 24.4455H258.429C258.515 24.4455 258.601 24.464 258.679 24.4997C258.758 24.5355 258.828 24.5876 258.885 24.6527C259.003 24.796 259.068 24.976 259.068 25.1619C259.068 25.3477 259.003 25.5277 258.885 25.6711" fill="white"/>
<path d="M260.942 26.3329H260.971H261.042C261.286 26.3335 261.525 26.2622 261.73 26.1281H261.724C261.808 26.0707 261.877 25.9937 261.925 25.9036C261.973 25.8135 261.998 25.7132 261.998 25.6113V25.5977C261.998 25.2249 261.736 25.0049 261.219 24.9353L260.989 24.9009C260.734 24.8577 260.607 24.7801 260.607 24.6705C260.607 24.5041 260.746 24.4225 261.022 24.4225H261.027C261.278 24.422 261.524 24.4862 261.742 24.6089L261.734 24.6041L261.934 24.2041C261.675 24.051 261.38 23.9705 261.079 23.9713H260.964C260.74 23.9708 260.521 24.0414 260.34 24.1729C260.263 24.233 260.2 24.31 260.157 24.3981C260.114 24.4861 260.092 24.5829 260.092 24.6809V24.7025C260.092 25.0649 260.354 25.2825 260.87 25.3481L261.086 25.3825C261.35 25.4265 261.486 25.5041 261.486 25.6153C261.486 25.8017 261.316 25.8977 260.971 25.8977H260.962C260.698 25.8978 260.441 25.8162 260.226 25.6641L260.012 26.0441C260.287 26.229 260.611 26.3274 260.942 26.3265" fill="white"/>
<path d="M262.767 23.3702V24.0486H262.311V24.4958H262.775V25.5078C262.775 26.0566 263.036 26.335 263.553 26.335H263.571C263.776 26.3352 263.977 26.2757 264.15 26.1638H264.145L264.011 25.7486C263.88 25.8226 263.732 25.8628 263.582 25.8654C263.371 25.8654 263.262 25.743 263.262 25.5014V24.4966H264.057V24.0494H263.262V23.371L262.767 23.3702Z" fill="white"/>
<path d="M407.2 0.599976H3.19998C1.76404 0.599976 0.599976 1.76404 0.599976 3.19998V28.8C0.599976 30.2359 1.76404 31.4 3.19998 31.4H407.2C408.636 31.4 409.8 30.2359 409.8 28.8V3.19998C409.8 1.76404 408.636 0.599976 407.2 0.599976Z" stroke="white" stroke-width="1.2"/>
<mask id="mask5_1_4298" style="mask-type:luminance" maskUnits="userSpaceOnUse" x="12" y="8" width="41" height="17">
<path d="M52.272 8.80005H12V24.9136H52.272V8.80005Z" fill="white"/>
</mask>
<g mask="url(#mask5_1_4298)">
<path d="M24.32 15.1361C23.3208 15.1361 22.7336 15.8657 22.7336 17.0937C22.7336 18.3217 23.36 19.0401 24.32 19.0401C25.28 19.0401 25.904 18.2777 25.9056 17.0961C25.9253 16.5916 25.7774 16.0948 25.4848 15.6833C25.3475 15.5068 25.1704 15.3653 24.9679 15.2702C24.7655 15.1751 24.5436 15.1292 24.32 15.1361Z" fill="white"/>
<path d="M31.6713 15.1153C31.448 15.1107 31.2267 15.1578 31.0247 15.2528C30.8226 15.3479 30.6452 15.4884 30.5065 15.6633C30.2129 16.0767 30.0649 16.5759 30.0857 17.0825C30.0857 18.2665 30.7113 19.0305 31.6713 19.0305V19.0201C32.6705 19.0201 33.2569 18.2945 33.2569 17.0721C33.2569 15.8497 32.6601 15.1153 31.6713 15.1153Z" fill="white"/>
<path d="M38.8264 15.1153C38.6032 15.1107 38.3819 15.1578 38.1798 15.2528C37.9777 15.3479 37.8004 15.4884 37.6616 15.6633C37.3681 16.0767 37.2201 16.5759 37.2408 17.0825C37.2408 18.2665 37.8664 19.0305 38.8264 19.0305V19.0201C39.8152 19.0201 40.412 18.2945 40.412 17.0721C40.412 15.8497 39.8152 15.1153 38.8264 15.1153Z" fill="white"/>
<path d="M52.272 21.7816V11.9328C52.2739 11.1076 51.9494 10.3151 51.3693 9.72819C50.7891 9.14129 50.0004 8.80765 49.1752 8.80005H15.12C14.7093 8.80099 14.3027 8.88284 13.9236 9.04092C13.5445 9.199 13.2003 9.43022 12.9106 9.72136C12.6208 10.0125 12.3913 10.3579 12.2351 10.7377C12.0788 11.1176 11.999 11.5245 12 11.9352V21.7816C11.9987 22.6106 12.3267 23.4062 12.9117 23.9935C13.4967 24.5808 14.291 24.9117 15.12 24.9136H49.152C49.981 24.912 50.7755 24.581 51.3606 23.9937C51.9456 23.4064 52.2735 22.6107 52.272 21.7816ZM20.4936 14.8L18.4288 15.12V15.68L20.4936 15.36V16.5072L18.4288 16.8272V18.2096C18.4688 18.6992 18.8104 18.7968 19.4176 18.7968C19.6994 18.7991 19.9778 18.7353 20.2304 18.6104L20.2208 18.6H20.24V20.1112C19.8141 20.2984 19.354 20.3951 18.8888 20.3952C18.8134 20.4039 18.7375 20.4082 18.6616 20.408C18.4082 20.4075 18.1574 20.3571 17.9235 20.2596C17.6896 20.1622 17.4772 20.0196 17.2983 19.8401C17.1195 19.6605 16.9778 19.4475 16.8814 19.2132C16.7849 18.9789 16.7355 18.7278 16.736 18.4744V17.0888L15.7464 17.2416V16.096L16.736 15.9432V15.3832L15.7464 15.536V14.336L16.8336 14.168V11.8576H18.5272V12.3456C18.5137 12.7867 18.3454 13.2088 18.0518 13.5382C17.7583 13.8676 17.3582 14.0832 16.9216 14.1472L17.0816 14.1264L20.4936 13.6V14.8ZM27.5128 20.2648H25.8192V18.2464C25.8223 18.3308 25.8201 18.4152 25.8128 18.4992C25.789 18.7714 25.7117 19.0362 25.5855 19.2785C25.4593 19.5208 25.2866 19.7359 25.0772 19.9115C24.8679 20.087 24.626 20.2196 24.3654 20.3016C24.1048 20.3837 23.8306 20.4136 23.5584 20.3896C23.2003 20.4023 22.8443 20.3301 22.5194 20.179C22.1945 20.0279 21.9099 19.8021 21.6888 19.52C21.2127 18.8032 20.9794 17.9523 21.0232 17.0928C20.9743 16.2328 21.208 15.3804 21.6888 14.6656C21.9098 14.3835 22.1943 14.1575 22.5192 14.0063C22.8442 13.855 23.2002 13.7827 23.5584 13.7952C23.6361 13.788 23.7141 13.7856 23.792 13.788C24.0651 13.7949 24.3342 13.8555 24.5839 13.9663C24.8336 14.0772 25.059 14.2361 25.2472 14.4341C25.4355 14.6321 25.5829 14.8652 25.681 15.1202C25.7792 15.3751 25.8261 15.6469 25.8192 15.92V14.1968L27.5128 13.932V20.2648ZM32.444 20.3912C32.3642 20.3978 32.2841 20.3999 32.204 20.3976C31.9301 20.3893 31.6606 20.327 31.4107 20.2144C31.1609 20.1019 30.9357 19.9412 30.748 19.7416C30.5602 19.542 30.4137 19.3073 30.3166 19.0511C30.2196 18.7948 30.174 18.5219 30.1824 18.248V20.264H28.4896V12.344L30.1832 12.08V15.92C30.1809 15.84 30.1833 15.7598 30.1904 15.68C30.2386 15.1305 30.5031 14.6226 30.9257 14.2681C31.3483 13.9136 31.8945 13.7415 32.444 13.7896V13.792C34.04 13.792 34.9896 15.0256 34.9896 17.0912C34.9896 19.1568 34.0392 20.3896 32.444 20.3896M39.5864 20.3896C39.5066 20.3962 39.4265 20.3984 39.3464 20.396C39.0724 20.3878 38.8027 20.3256 38.5528 20.2131C38.3028 20.1006 38.0774 19.9399 37.8896 19.7403C37.7017 19.5407 37.555 19.306 37.4578 19.0497C37.3606 18.7934 37.3149 18.5204 37.3232 18.2464V20.2624H35.6432V12.3424L37.3384 12.08V15.92C37.3356 15.8346 37.338 15.7492 37.3456 15.664C37.37 15.3925 37.4477 15.1285 37.5743 14.8871C37.7009 14.6457 37.8738 14.4315 38.0832 14.257C38.2926 14.0825 38.5343 13.9509 38.7946 13.8699C39.0549 13.7889 39.3286 13.76 39.6 13.7848L39.5912 13.7944C41.1864 13.7944 42.132 15.0256 42.132 17.0912C42.132 19.1568 41.1816 20.3896 39.5864 20.3896ZM46.52 22.1912H44.84V22.172L45.344 20.2432H43.8L42.1448 13.9112H43.9456L45.3808 20.1016L46.9992 13.9112H48.692L46.52 22.1912Z" fill="white"/>
</g>
</svg>
