<svg width="127" height="37" viewBox="0 0 127 37" fill="none" xmlns="http://www.w3.org/2000/svg">
<path d="M126.171 33.1429C126.171 35.2 124.571 36.8 122.514 36.8H3.65714C1.6 36.8 0 35.0857 0 33.1429V3.65714C0 1.6 1.6 0 3.65714 0H122.514C124.571 0 126.171 1.71429 126.171 3.65714V33.1429Z" stroke="white" stroke-width="1.13678"/>
<path d="M28.2285 18.1714C28.2285 16.3428 29.2571 14.6285 30.8571 13.6C29.8285 12.2285 28.2285 11.3143 26.5142 11.3143C24.6857 11.0857 22.9714 12.3428 21.9428 12.3428C20.9142 12.3428 19.5428 11.3143 18.0571 11.3143C16 11.4285 14.1714 12.4571 13.1428 14.2857C10.9714 17.9428 12.5714 23.3143 14.6285 26.2857C15.6571 27.7714 16.8 29.3714 18.4 29.2571C20 29.1428 20.4571 28.3428 22.2857 28.3428C24.1142 28.3428 24.5714 29.2571 26.1714 29.2571C27.7714 29.2571 28.8 27.7714 29.8285 26.2857C30.5142 25.2571 31.0857 24.1143 31.5428 22.8571C29.4857 22.1714 28.2285 20.2285 28.2285 18.1714ZM25.2571 9.3714C26.1714 8.34283 26.6285 6.9714 26.5142 5.59998C25.1428 5.71426 23.8857 6.39998 22.9714 7.42855C22.0571 8.45712 21.6 9.71426 21.7142 11.0857C23.0857 11.0857 24.4571 10.4 25.2571 9.3714Z" fill="white"/>
<path d="M50.1714 29.1428H48L46.8571 25.4857H42.8571L41.7142 29.1428H39.6571L43.6571 16.8H46.1714L50.1714 29.1428ZM46.5142 23.8857L45.4857 20.6857C45.3714 20.3428 45.1428 19.5428 44.9142 18.4C44.8 18.9714 44.5714 19.6571 44.3428 20.6857L43.3142 23.8857H46.5142ZM60.4571 24.5714C60.5714 25.9428 60.1142 27.2 59.2 28.1143C58.5142 28.9143 57.4857 29.2571 56.4571 29.2571C55.4285 29.3714 54.5142 28.8 53.9428 28H53.8285V32.6857H51.7714V22.9714C51.7714 22.0571 51.7714 21.0285 51.6571 20H53.3714L53.4857 21.3714C54.0571 20.3428 55.3142 19.6571 56.4571 19.7714C57.4857 19.7714 58.4 20.2285 59.0857 21.0285C60.1142 22.1714 60.4571 23.3143 60.4571 24.5714ZM58.4 24.5714C58.4 23.7714 58.1714 23.0857 57.8285 22.4C57.1428 21.4857 55.8857 21.2571 54.9714 21.9428C54.8571 21.9428 54.8571 22.0571 54.8571 22.0571C54.4 22.4 54.1714 22.8571 54.0571 23.3143C53.9428 23.5428 53.9428 23.7714 53.9428 23.8857V25.3714C53.9428 25.9428 54.1714 26.5143 54.5142 26.9714C55.3142 27.8857 56.6857 27.8857 57.6 27.0857C57.7142 26.9714 57.8285 26.8571 57.8285 26.8571C58.1714 26.2857 58.4 25.3714 58.4 24.5714ZM70.7428 24.5714C70.8571 25.9428 70.4 27.2 69.4857 28.1143C68.8 28.9143 67.7714 29.2571 66.7428 29.2571C65.7142 29.3714 64.8 28.8 64.2285 28H64.1143V32.6857H62.1714V22.9714C62.1714 22.0571 62.1714 21.0285 62.0571 20H63.7714L63.8857 21.3714C64.4571 20.3428 65.7142 19.6571 66.8571 19.7714C67.8857 19.7714 68.8 20.2285 69.4857 21.0285C70.4 22.1714 70.7428 23.3143 70.7428 24.5714ZM68.6857 24.5714C68.6857 23.7714 68.4571 23.0857 68.1143 22.4C67.7714 21.8285 67.0857 21.4857 66.4 21.4857C65.9428 21.4857 65.4857 21.7143 65.0285 21.9428C64.4571 22.4 64.2285 23.0857 64.1143 23.8857V25.3714C64.1143 25.9428 64.3428 26.5143 64.6857 26.9714C65.4857 27.8857 66.8571 27.8857 67.7714 27.0857C67.8857 26.9714 68 26.8571 68 26.8571C68.4571 26.1714 68.6857 25.3714 68.6857 24.5714ZM82.1714 25.6C82.1714 26.6285 81.8285 27.5428 81.0285 28.2285C80.1142 29.0285 78.8571 29.3714 77.6 29.2571C76.4571 29.3714 75.3143 29.0285 74.4 28.4571L74.8571 26.7428C75.7714 27.3143 76.6857 27.5428 77.7143 27.5428C78.2857 27.5428 78.9714 27.4285 79.4285 26.9714C79.8857 26.6285 80.1143 26.1714 80 25.6C80 25.1428 79.7714 24.6857 79.4285 24.3428C78.9714 23.8857 78.4 23.5428 77.7143 23.3143C75.5428 22.5143 74.4 21.2571 74.4 19.7714C74.4 18.8571 74.8571 17.8285 75.5428 17.2571C76.4571 16.5714 77.4857 16.2285 78.6285 16.3428C79.5428 16.3428 80.5714 16.4571 81.3714 16.9143L80.9142 18.5143C80.2285 18.1714 79.3143 17.9428 78.5142 17.9428C77.9428 17.9428 77.3714 18.0571 76.9142 18.5143C76.5714 18.8571 76.4571 19.2 76.4571 19.6571C76.4571 20.1143 76.6857 20.5714 77.0285 20.8C77.6 21.2571 78.1714 21.4857 78.8571 21.7143C79.7714 22.0571 80.5714 22.5143 81.1428 23.2C81.9428 24.1143 82.2857 24.9143 82.1714 25.6ZM88.8 21.7143H86.6285V26.0571C86.6285 27.2 87.0857 27.7714 87.7714 27.7714C88.1142 27.7714 88.3428 27.7714 88.6857 27.6571L88.8 29.1428C88.3428 29.2571 87.7714 29.3714 87.3142 29.3714C86.6285 29.3714 85.9428 29.1428 85.4857 28.6857C85.0285 28 84.8 27.0857 84.8 26.2857V21.7143H83.5428V20.2285H84.8V18.6285L86.7428 18.0571V20.2285H88.8V21.7143ZM98.6285 24.5714C98.6285 25.8285 98.2857 26.9714 97.4857 28C96.6857 28.9143 95.4285 29.3714 94.1714 29.3714C93.0285 29.3714 91.8857 28.9143 91.0857 28.1143C90.2857 27.2 89.8285 26.0571 89.9428 24.8C89.8285 23.5428 90.2857 22.2857 91.2 21.3714C92 20.4571 93.2571 20 94.5143 20C95.6571 20 96.9143 20.4571 97.7143 21.2571C98.2857 22.1714 98.7428 23.4285 98.6285 24.5714ZM96.5714 24.6857C96.5714 23.8857 96.4571 23.2 96 22.5143C95.4285 21.4857 94.1714 21.1428 93.2571 21.7143C92.9143 21.9428 92.5714 22.1714 92.4571 22.5143C92.1142 23.2 91.8857 23.8857 91.8857 24.6857C91.8857 25.3714 92 26.1714 92.4571 26.8571C93.0285 27.8857 94.2857 28.2285 95.2 27.6571C95.5428 27.4285 95.8857 27.2 96 26.8571C96.4571 26.1714 96.5714 25.3714 96.5714 24.6857ZM105.143 21.9428C104.914 21.9428 104.686 21.9428 104.571 21.8285C103.886 21.8285 103.314 22.0571 102.971 22.6285C102.629 23.2 102.4 23.7714 102.514 24.3428V29.0285H100.571V22.8571C100.571 21.8285 100.571 20.9143 100.457 20H102.171L102.286 21.7143H102.4C102.629 21.1428 102.971 20.6857 103.429 20.3428C103.886 20 104.343 19.8857 104.914 19.8857C105.029 19.8857 105.257 19.8857 105.371 19.8857L105.143 21.9428ZM114.057 24.2285C114.057 24.5714 114.057 24.8 113.943 25.1428H108C108 25.9428 108.229 26.6285 108.914 27.2C109.486 27.6571 110.171 27.8857 110.857 27.7714C111.657 27.7714 112.457 27.6571 113.257 27.3143L113.6 28.6857C112.686 29.0285 111.657 29.2571 110.629 29.2571C109.371 29.3714 108.229 28.9143 107.314 28C106.514 27.0857 106.057 25.9428 106.057 24.6857C106.057 23.4285 106.4 22.2857 107.2 21.3714C108 20.4571 109.143 19.8857 110.286 19.8857C111.429 19.7714 112.571 20.3428 113.257 21.3714C113.714 22.1714 114.057 23.2 114.057 24.2285ZM112.114 23.7714C112.114 23.2 112 22.7428 111.657 22.2857C111.314 21.7143 110.743 21.3714 110.057 21.4857C109.486 21.4857 108.8 21.8285 108.457 22.2857C108.114 22.7428 107.886 23.3143 107.886 23.7714H112.114Z" fill="white"/>
<path d="M45.9429 9.02861C46.0572 9.9429 45.6 10.8572 44.9143 11.5429C44.2286 12.1143 43.2 12.3429 42.2857 12.3429C41.8286 12.3429 41.3714 12.3429 40.9143 12.2286V6.28576C41.4857 6.17147 42.0572 6.17147 42.6286 6.17147C43.5429 6.05718 44.3429 6.40004 45.0286 6.85718C45.6 7.42861 45.9429 8.22861 45.9429 9.02861ZM44.9143 9.1429C44.9143 8.57147 44.8 8.00004 44.3429 7.5429C43.8857 7.08576 43.3143 6.97147 42.6286 6.97147C42.4 6.97147 42.0572 6.97147 41.8286 7.08576V11.6572C42.0572 11.6572 42.2857 11.6572 42.5143 11.6572C43.2 11.6572 43.7715 11.4286 44.2286 11.0858C44.6857 10.4 44.9143 9.82861 44.9143 9.1429ZM51.3143 10.0572C51.3143 10.6286 51.0857 11.3143 50.7429 11.7715C49.9429 12.6858 48.5715 12.6858 47.6572 11.8858C47.3143 11.4286 47.0857 10.8572 47.0857 10.2858C47.0857 9.71433 47.3143 9.02861 47.6572 8.57147C48.1143 8.11433 48.6857 7.88576 49.2572 7.88576C49.8286 7.88576 50.4 8.11433 50.8572 8.57147C51.2 8.91433 51.3143 9.48576 51.3143 10.0572ZM50.4 10.0572C50.4 9.71433 50.2857 9.37147 50.1715 9.02861C50.0572 8.68576 49.7143 8.45719 49.2572 8.45719C48.9143 8.45719 48.5714 8.68576 48.3429 9.02861C48.1143 9.37147 48.1143 9.71433 48.1143 10.0572C48.1143 10.4 48.2286 10.7429 48.3429 11.0858C48.5714 11.4286 48.9143 11.6572 49.2572 11.6572C49.6 11.6572 49.9429 11.4286 50.1715 11.0858C50.2857 10.8572 50.4 10.4 50.4 10.0572ZM58.6286 7.88576L57.2572 12.3429H56.3429L55.7715 10.4C55.6572 9.9429 55.5429 9.48576 55.4286 9.02861C55.3143 9.48576 55.2 9.9429 55.0857 10.4L54.5143 12.3429H53.6L52.2286 7.88576H53.2572L53.7143 9.9429C53.8286 10.4 53.9429 10.8572 54.0572 11.3143C54.1714 10.8572 54.2857 10.4 54.4 9.9429L54.9715 7.88576H55.7715L56.3429 9.9429C56.4572 10.4 56.5715 10.8572 56.6857 11.4286C56.8 10.9715 56.9143 10.4 57.0286 9.9429L57.6 7.88576H58.6286ZM63.7715 12.2286H62.7429V9.71433C62.7429 8.91433 62.4 8.57147 61.8286 8.57147C61.6 8.57147 61.2572 8.68576 61.1429 8.91433C60.9143 9.1429 60.9143 9.37147 60.9143 9.71433V12.3429H59.8857V9.1429C59.8857 8.80004 59.8857 8.3429 59.8857 7.88576H60.8V8.57147C60.9143 8.3429 61.0286 8.22861 61.2572 8.00004C61.4857 7.88576 61.8286 7.77147 62.1715 7.77147C62.5143 7.77147 62.9715 7.88576 63.2 8.22861C63.5429 8.57147 63.7715 9.1429 63.6572 9.71433L63.7715 12.2286ZM66.4 12.2286H65.3715V5.82861H66.4V12.2286ZM72.1143 10.0572C72.1143 10.6286 71.8857 11.3143 71.5429 11.7715C71.0857 12.2286 70.5143 12.4572 69.9429 12.4572C69.3715 12.4572 68.8 12.2286 68.4572 11.7715C68.1143 11.3143 67.8857 10.7429 67.8857 10.1715C67.8857 9.60004 68.1143 8.91433 68.4572 8.45719C69.2572 7.5429 70.6286 7.5429 71.4286 8.3429C72 8.80004 72.2286 9.37147 72.1143 10.0572ZM71.2 10.0572C71.2 9.71433 71.0857 9.37147 70.9715 9.02861C70.8572 8.68576 70.4 8.45719 70.0572 8.45719C69.7143 8.45719 69.3715 8.68576 69.1429 9.02861C68.9143 9.37147 68.9143 9.71433 68.9143 10.0572C68.9143 10.4 69.0286 10.7429 69.1429 11.0858C69.3715 11.4286 69.7143 11.6572 70.0572 11.6572C70.4 11.6572 70.7429 11.4286 70.9715 11.0858C71.0857 10.8572 71.2 10.4 71.2 10.0572ZM76.9143 12.2286H76L75.8857 11.7715C75.5429 12.2286 75.0857 12.4572 74.6286 12.3429C73.9429 12.3429 73.3715 11.8858 73.2572 11.2V11.0858C73.2572 10.6286 73.4857 10.0572 73.9429 9.82861C74.5143 9.48576 75.2 9.37147 75.7715 9.37147C75.7715 8.80004 75.4286 8.45719 74.8572 8.45719C74.4 8.45719 74.0572 8.57147 73.7143 8.80004L73.4857 8.11433C73.9429 7.88576 74.5143 7.65718 74.9715 7.77147C76.1143 7.77147 76.6857 8.3429 76.6857 9.60004V11.2C76.8 11.6572 76.8 11.8858 76.9143 12.2286ZM75.8857 10.7429V10.0572C74.8572 10.0572 74.2857 10.2858 74.2857 10.9715C74.2857 11.2 74.2857 11.3143 74.5143 11.5429C74.6286 11.6572 74.8572 11.7715 74.9715 11.6572C75.2 11.6572 75.4286 11.5429 75.5429 11.4286C75.7715 11.3143 75.8857 11.0858 75.8857 10.8572C75.8857 10.8572 75.8857 10.8572 75.8857 10.7429ZM82.4 12.2286H81.4857V11.5429C81.2572 12.1143 80.6857 12.3429 80.1143 12.3429C79.6572 12.3429 79.0857 12.1143 78.7429 11.7715C78.4 11.3143 78.1714 10.7429 78.1714 10.1715C78.1714 9.60004 78.4 8.91433 78.7429 8.45719C79.0857 8.11433 79.5429 7.88576 80.1143 7.88576C80.5715 7.88576 81.0286 8.11433 81.3715 8.45719V5.82861H82.4V11.0858C82.4 11.5429 82.4 11.8858 82.4 12.2286ZM81.3715 10.4V9.71433C81.3715 9.60004 81.3715 9.48576 81.3715 9.37147C81.2572 9.1429 81.1429 8.91433 81.0286 8.80004C80.8 8.68576 80.5715 8.57147 80.3429 8.57147C80 8.57147 79.6572 8.68576 79.4286 9.02861C79.2 9.37147 79.0857 9.71433 79.0857 10.1715C79.0857 10.5143 79.2 10.9715 79.4286 11.2C79.6572 11.4286 80 11.6572 80.3429 11.6572C80.6857 11.6572 80.9143 11.5429 81.1429 11.3143C81.3715 10.9715 81.4857 10.7429 81.3715 10.4ZM90.8572 10.0572C90.8572 10.6286 90.6286 11.3143 90.2857 11.7715C89.8286 12.2286 89.2572 12.4572 88.6857 12.4572C88.1143 12.4572 87.5429 12.2286 87.2 11.7715C86.8572 11.3143 86.6286 10.7429 86.6286 10.1715C86.6286 9.60004 86.8572 8.91433 87.2 8.45719C87.6572 8.00004 88.2286 7.77147 88.8 7.77147C89.3715 7.77147 89.9429 8.00004 90.2857 8.45719C90.6286 8.91433 90.8572 9.48576 90.8572 10.0572ZM89.8286 10.0572C89.8286 9.71433 89.7143 9.37147 89.6 9.02861C89.4857 8.68576 89.0286 8.45719 88.6857 8.45719C88.3429 8.45719 88 8.68576 87.7715 9.02861C87.4286 9.71433 87.4286 10.5143 87.7715 11.0858C88 11.4286 88.3429 11.6572 88.6857 11.6572C89.0286 11.6572 89.3714 11.4286 89.6 11.0858C89.7143 10.8572 89.8286 10.5143 89.8286 10.0572ZM96 12.2286H94.9715V9.71433C94.9715 8.91433 94.7429 8.57147 94.0572 8.57147C93.8286 8.57147 93.4857 8.68576 93.3715 8.91433C93.1429 9.1429 93.1429 9.37147 93.1429 9.71433V12.3429H92.2286V9.1429C92.2286 8.80004 92.2286 8.3429 92.2286 7.88576H93.1429L93.2572 8.57147C93.2572 8.3429 93.3714 8.11433 93.6 8.00004C93.8286 7.88576 94.1715 7.77147 94.5143 7.77147C94.8572 7.77147 95.3143 7.88576 95.5429 8.22861C95.8857 8.57147 96.1143 9.1429 96 9.71433V12.2286ZM102.629 8.57147H101.6V10.6286C101.6 11.2 101.829 11.4286 102.171 11.4286C102.286 11.4286 102.514 11.4286 102.629 11.3143V12C102.4 12.1143 102.171 12.1143 101.829 12.1143C101.486 12.1143 101.143 12 100.914 11.7715C100.686 11.4286 100.571 10.9715 100.571 10.6286V8.57147H99.8857V7.88576H100.571V7.08576L101.486 6.85718V8.00004H102.514L102.629 8.57147ZM107.771 12.2286H106.743V9.82861C106.743 9.02861 106.4 8.68576 105.829 8.68576C105.371 8.68576 105.029 8.91433 104.914 9.37147C104.914 9.48576 104.914 9.60004 104.914 9.71433V12.3429H103.886V5.82861H104.914V8.45719C105.143 8.00004 105.714 7.77147 106.286 7.77147C106.629 7.77147 107.086 7.88576 107.314 8.11433C107.657 8.57147 107.886 9.02861 107.771 9.60004V12.2286ZM113.143 9.82861C113.143 9.9429 113.143 10.1715 113.143 10.2858H110.171C110.171 10.6286 110.286 11.0858 110.629 11.3143C110.857 11.5429 111.2 11.6572 111.543 11.6572C112 11.6572 112.343 11.5429 112.8 11.4286L112.914 12.1143C112.457 12.3429 111.886 12.3429 111.429 12.3429C110.857 12.3429 110.286 12.1143 109.829 11.7715C109.371 11.3143 109.257 10.7429 109.257 10.1715C109.257 9.60004 109.486 9.02861 109.829 8.45719C110.171 8.00004 110.743 7.77147 111.314 7.77147C111.886 7.77147 112.457 8.00004 112.8 8.45719C113.029 8.91433 113.143 9.37147 113.143 9.82861ZM112.229 9.60004C112.229 9.37147 112.114 9.1429 112 8.91433C111.886 8.68576 111.543 8.45719 111.2 8.45719C110.857 8.45719 110.629 8.57147 110.4 8.91433C110.286 9.1429 110.171 9.37147 110.171 9.71433L112.229 9.60004Z" fill="white"/>
</svg>
