<svg width="96" height="40" viewBox="0 0 96 40" fill="none" xmlns="http://www.w3.org/2000/svg">
<mask id="mask0_1_4281" style="mask-type:luminance" maskUnits="userSpaceOnUse" x="0" y="0" width="96" height="40">
<path d="M95.3398 0H0V40H95.3398V0Z" fill="white"/>
</mask>
<g mask="url(#mask0_1_4281)">
<path d="M22.4217 30.6806C20.8503 31.3849 19.2097 31.9234 17.5266 32.2874C18.8921 31.679 20.1903 30.9294 21.3998 30.0509C19.4109 28.7722 17.5676 27.2799 15.9029 25.6007C11.5331 21.1525 9.73757 14.1917 9.00464 9.00665C7.17333 9.58565 5.86737 10.1299 5.86737 10.1299C6.83707 9.43915 7.85126 8.81312 8.90335 8.25585C8.66453 6.38355 8.5319 4.49923 8.50609 2.61194C4.52153 5.14884 1.69691 9.15346 0.644146 13.7583C-0.408621 18.3631 0.395243 23.1973 2.88159 27.2136C5.36794 31.2299 9.33656 34.1049 13.9277 35.2157C18.5188 36.3266 23.3628 35.5839 27.4102 33.1485C25.6855 32.4602 24.0187 31.6349 22.4257 30.6806" fill="#EB9C6B"/>
<path d="M17.8237 5.54693e-07C15.8998 -0.000478265 13.9883 0.309039 12.1629 0.916653C11.9374 2.8989 11.8378 4.89345 11.8649 6.8883C14.9973 5.67768 18.8168 4.99044 21.9014 6.81779C26.8184 9.72664 20.6739 16.7401 20.6739 16.7401C20.6739 16.7401 26.8105 15.6983 29.0599 19.2229C30.8674 22.0672 29.4422 27.2066 23.0386 30.3866C24.4425 31.4256 25.9454 32.3237 27.5255 33.068C30.7895 30.9703 33.2864 27.8719 34.6424 24.2366C35.9985 20.6013 36.1408 16.6246 35.0481 12.9017C33.9554 9.17873 31.6864 5.90979 28.5807 3.58406C25.475 1.25834 21.6997 0.000923969 17.8197 5.54693e-07H17.8237Z" fill="#EB9C6B"/>
<path d="M19.8048 8.97585C18.3777 7.27165 14.9882 7.52093 11.9065 8.21611C12.4607 19.2855 17.4402 25.853 22.0016 29.5822C25.2332 27.0209 27.282 23.679 25.5431 20.8427C24.0285 18.3738 19.3768 17.9944 15.5632 19.4523C19.2079 16.6348 22.4594 12.1479 19.8038 8.97486" fill="#EB9C6B"/>
<path d="M45.926 40L43.8623 36.4247C44.6856 36.0771 64.3643 28.008 95.3408 31.1969L94.7618 35.1535C65.1797 32.1046 46.1137 39.9195 45.926 40Z" fill="#0559D1"/>
<path d="M56.3389 21.2161L56.0638 25.1697C53.6516 26.1651 51.0938 26.7621 48.4903 26.9375C40.4668 26.9375 37.259 21.4853 37.259 16.4233C37.268 10.0405 42.2673 5.48804 49.3324 5.48804C51.2897 5.52815 53.2369 5.77955 55.1402 6.23784H55.7986V11.0297L54.6069 11.1796C53.7379 7.79506 51.9433 6.74632 48.4704 6.74632C43.5912 6.74632 40.8959 10.9999 40.8959 15.7937C40.9008 21.7524 44.0391 25.6484 48.7753 25.6484C52.2174 25.6484 53.7141 23.971 55.0915 20.7066L56.3389 21.2161Z" fill="#EB9C6B"/>
<path d="M65.5601 23.7456V19.2815L62.9849 20.1197C62.4508 20.2401 61.9676 20.5243 61.6028 20.9325C61.238 21.3407 61.0098 21.8527 60.95 22.3969C60.9468 23.0098 61.1827 23.5997 61.6075 24.0415C62.0324 24.4832 62.6127 24.7419 63.2252 24.7625C64.0678 24.5955 64.8643 24.2492 65.5601 23.7456ZM68.1601 26.7398C67.6012 26.7411 67.0564 26.5649 66.6043 26.2364C66.1521 25.908 65.816 25.4444 65.6445 24.9125C64.6027 25.7229 63.1895 26.7398 62.0822 26.7398C59.7175 26.7398 57.7412 25.1508 57.7412 23.1159C57.8404 22.2861 58.1837 21.5043 58.7275 20.8696C59.2713 20.2349 59.9912 19.7759 60.7961 19.5506L65.563 18.0828V17.1244C65.563 14.9674 65.0844 13.438 63.4676 13.438C61.4019 13.438 59.6937 16.5246 59.6937 16.5246L58.2249 14.3983C59.8537 12.9199 61.9841 12.1167 64.1836 12.1519C67.1471 12.1519 68.4044 14.1888 68.4044 16.8543V22.7564C68.4044 24.1329 68.8533 24.7327 69.3031 24.7327C69.6011 24.7327 69.751 24.6741 70.2605 24.3434L70.619 25.27L68.1601 26.7398Z" fill="#EB9C6B"/>
<path d="M76.8398 14.2235C77.2699 13.6398 77.8166 13.152 78.4452 12.7909C79.0739 12.4298 79.7707 12.2034 80.4915 12.126C81.3505 12.2173 82.1531 12.5976 82.7678 13.2045L81.6892 15.2712C80.9959 14.8146 80.2242 14.4901 79.413 14.3138C78.6959 14.3138 77.677 14.8521 76.8398 16.2911V22.9997C76.8398 25.0376 77.3493 25.2163 80.4289 25.4259V26.3534H71.5713V25.4457C73.5158 25.2362 73.9359 25.0564 73.9359 22.9897V15.9565C73.9359 13.9503 73.7572 13.7716 71.751 13.6494V12.7874L76.8398 12.128V14.2235Z" fill="#EB9C6B"/>
<path d="M86.1197 17.4223H91.6593C92.1966 17.3637 92.1966 17.2147 92.1966 16.7043C92.1966 14.8759 91.2392 13.4091 89.4158 13.4091C88.0354 13.4091 86.4782 14.7895 86.1197 17.4223ZM95.31 23.6253C94.6377 24.5261 93.7786 25.2708 92.7916 25.8085C91.8046 26.3463 90.713 26.6643 89.5916 26.7408C88.716 26.7471 87.8483 26.5753 87.0413 26.2357C86.2342 25.8962 85.5046 25.396 84.8969 24.7655C84.2893 24.1351 83.8162 23.3877 83.5066 22.5687C83.1969 21.7496 83.0571 20.8762 83.0956 20.0014C83.0956 15.5383 86.5984 12.1558 90.1587 12.1558C91.5307 12.1797 92.8393 12.7379 93.8062 13.7115C94.7732 14.6851 95.3223 15.9975 95.3368 17.3697C95.3368 18.0281 95.2782 18.6607 94.4113 18.7471H85.9995C86.0293 22.9411 88.5141 24.5291 90.6384 24.5291C92.1429 24.4592 93.5697 23.841 94.6496 22.7911L95.31 23.6253Z" fill="#EB9C6B"/>
</g>
</svg>
