<svg width="137" height="56" viewBox="0 0 137 56" fill="none" xmlns="http://www.w3.org/2000/svg">
<mask id="mask0_1_431" style="mask-type:luminance" maskUnits="userSpaceOnUse" x="0" y="-1" width="137" height="57">
<path d="M136.491 0H0V56H136.491V0Z" fill="white"/>
</mask>
<g mask="url(#mask0_1_431)">
<path d="M105.167 46.6397C104.766 46.6318 104.372 46.7391 104.03 46.949C103.707 47.148 103.439 47.4252 103.25 47.7549V43.9933H101.829V53.2831H103.247V49.9455C103.209 49.4289 103.366 48.9168 103.688 48.5109C103.968 48.2144 104.355 48.0412 104.763 48.0295C105.171 48.0178 105.567 48.1684 105.864 48.4484C105.885 48.4688 105.905 48.4893 105.926 48.5109C106.249 48.9166 106.406 49.4288 106.367 49.9455V53.2831H107.784V49.9455C107.849 49.0611 107.596 48.1824 107.07 47.4685C106.836 47.1945 106.542 46.9771 106.212 46.8326C105.882 46.6881 105.524 46.6202 105.163 46.6341M110.722 15.1555H109.801C109.74 15.1561 109.679 15.1437 109.622 15.119C109.565 15.0943 109.515 15.0579 109.473 15.0123C109.384 14.9211 109.335 14.7985 109.337 14.6713C109.336 14.6111 109.347 14.5514 109.371 14.496C109.394 14.4406 109.429 14.3907 109.473 14.3495C109.516 14.3071 109.568 14.2738 109.624 14.2516C109.681 14.2293 109.741 14.2186 109.801 14.22C109.881 14.2186 109.959 14.2349 110.031 14.2678C110.103 14.3006 110.167 14.3491 110.218 14.4098L110.598 14.0415C110.498 13.9217 110.372 13.8255 110.23 13.7595C110.088 13.6935 109.933 13.6594 109.776 13.6595C109.647 13.6561 109.518 13.6786 109.398 13.7256C109.277 13.7726 109.167 13.8433 109.074 13.9335C108.982 14.0182 108.909 14.1214 108.859 14.2364C108.81 14.3514 108.785 14.4756 108.787 14.6008C108.79 14.8047 108.861 15.0019 108.99 15.1601H108.502V15.7353H110.722V15.1555ZM103.042 31.8969H101.628V35.2344C101.667 35.7511 101.509 36.2635 101.187 36.6691C100.907 36.9661 100.52 37.1397 100.112 37.1516C99.7034 37.1635 99.3072 37.0129 99.01 36.7327C98.9896 36.7123 98.968 36.6918 98.9475 36.6691C98.6265 36.2628 98.4695 35.7509 98.5076 35.2344V31.8969H97.0877V35.2344C97.0214 36.1213 97.2751 37.0025 97.8028 37.7183C98.0396 37.9916 98.335 38.2079 98.6671 38.3512C98.9991 38.4945 99.3592 38.561 99.7205 38.5459C100.127 38.5527 100.527 38.4409 100.871 38.2242C101.203 38.0179 101.476 37.7308 101.667 37.3898L101.75 38.4493H103.048L103.042 31.8969ZM107.589 31.8616C107.199 31.834 106.809 31.9164 106.463 32.0994C106.117 32.2825 105.829 32.5589 105.633 32.8972L105.537 31.8957H104.243V38.4458H105.661V35.5687C105.631 35.2484 105.666 34.9253 105.765 34.6192C105.864 34.3131 106.024 34.0304 106.237 33.7885C106.63 33.4222 107.153 33.2272 107.69 33.2462C107.766 33.2449 107.842 33.2487 107.918 33.2576L108.203 31.8991C108.021 31.8753 107.838 31.8636 107.655 31.8639L107.589 31.8616ZM99.7308 52.0281C99.5734 52.038 99.4159 52.0126 99.2697 51.9535C99.1235 51.8945 98.9924 51.8034 98.8861 51.687C98.6682 51.3963 98.5624 51.0366 98.5883 50.6742V47.9902H100.125V46.7216H98.5883V44.5799H97.4094L97.2185 46.7216H96.2977V47.988H97.1673V50.7003C97.1357 51.0682 97.1778 51.4387 97.2912 51.79C97.4046 52.1414 97.587 52.4666 97.8278 52.7465C98.0515 52.9651 98.3173 53.1358 98.6091 53.2484C98.9009 53.361 99.2125 53.413 99.525 53.4013C99.8793 53.4048 100.231 53.34 100.561 53.2103L100.203 51.944C100.049 51.9978 99.8885 52.0262 99.7262 52.0281M89.9022 38.4447V35.1071C89.9672 34.2226 89.7136 33.3439 89.1871 32.6301C88.953 32.3561 88.6598 32.1387 88.3296 31.9942C87.9995 31.8497 87.6409 31.7818 87.2807 31.7957C86.8685 31.7865 86.4626 31.8984 86.1133 32.1174C85.7859 32.3256 85.5159 32.6125 85.3278 32.9518L85.2436 31.8912H83.9466V38.4424H85.3721V35.1049C85.3328 34.5881 85.4903 34.0756 85.8132 33.6702C86.0936 33.3737 86.4802 33.2006 86.8881 33.1888C87.2961 33.1771 87.692 33.3278 87.989 33.6077C88.0106 33.6282 88.0299 33.6486 88.0515 33.6702C88.3738 34.0759 88.5313 34.5882 88.4926 35.1049V38.4424L89.9022 38.4447ZM110.555 33.7703C110.733 33.5844 110.948 33.4374 111.186 33.3384C111.423 33.2394 111.679 33.1906 111.936 33.1951C112.459 33.1951 112.961 33.4027 113.33 33.7724C113.7 34.1421 113.908 34.6435 113.908 35.1662C113.908 35.689 113.7 36.1904 113.33 36.5601C112.961 36.9297 112.459 37.1374 111.936 37.1374C111.418 37.1315 110.923 36.9224 110.557 36.555C110.191 36.1877 109.984 35.6915 109.98 35.1731C109.975 34.9129 110.024 34.6545 110.123 34.4138C110.222 34.1731 110.369 33.9553 110.555 33.7737M111.685 38.5322C112.16 38.5357 112.626 38.4078 113.032 38.1628C113.422 37.9424 113.741 37.616 113.953 37.2215L114.036 38.4481H115.334V31.898H114.036L113.953 33.136C113.743 32.7361 113.423 32.4039 113.032 32.1777C112.627 31.9301 112.16 31.8002 111.685 31.8025C111.266 31.7984 110.852 31.8846 110.469 32.0553C110.087 32.226 109.746 32.4771 109.47 32.7915C108.873 33.4391 108.543 34.2872 108.543 35.1674C108.543 36.0476 108.873 36.8956 109.47 37.5432C109.747 37.8575 110.089 38.1085 110.473 38.2791C110.856 38.4497 111.271 38.536 111.691 38.5322M94.8983 34.7138C94.5151 34.5848 94.1249 34.4774 93.7297 34.3921C93.3929 34.3253 93.0627 34.2287 92.743 34.1034C92.4724 33.9897 92.3383 33.8487 92.3383 33.6737C92.3403 33.5761 92.3706 33.4812 92.4255 33.4005C92.4804 33.3198 92.5575 33.2567 92.6475 33.2189C92.9036 33.0968 93.1859 33.0394 93.4694 33.0518C93.8059 33.0541 94.1398 33.1106 94.4584 33.2189C94.7609 33.3109 95.0326 33.4839 95.2439 33.7191L96.101 32.862C95.767 32.4915 95.3535 32.2015 94.8914 32.0137C94.4293 31.8259 93.9307 31.7451 93.433 31.7775C92.7854 31.7459 92.1456 31.9302 91.6142 32.3016C91.2452 32.5802 91.002 32.994 90.9381 33.4519C90.8741 33.9097 90.9947 34.3743 91.2731 34.7434C91.2892 34.7663 91.3067 34.7884 91.3254 34.8093C91.5929 35.1053 91.9342 35.325 92.3144 35.4459C92.6959 35.5714 93.0837 35.6769 93.4762 35.7619C93.8129 35.8299 94.142 35.9316 94.4584 36.0654C94.7289 36.1791 94.8631 36.3439 94.8631 36.5417C94.8652 36.6522 94.8355 36.7609 94.7774 36.8549C94.7194 36.9488 94.6354 37.024 94.5357 37.0715C94.2598 37.2073 93.9539 37.2707 93.6467 37.2556C93.2664 37.2546 92.8893 37.1865 92.5327 37.0544C92.2045 36.9446 91.9059 36.761 91.6596 36.5179L90.6945 37.4466C91.0647 37.8368 91.5243 38.1309 92.0336 38.3038C92.5501 38.4911 93.095 38.588 93.6444 38.5902C94.3138 38.6143 94.9739 38.4287 95.5326 38.0593C95.7803 37.8859 95.9797 37.6522 96.112 37.3803C96.2442 37.1084 96.305 36.8073 96.2886 36.5054C96.3034 36.0868 96.1583 35.6783 95.8828 35.3629C95.6165 35.0632 95.2756 34.8393 94.8949 34.7138M93.7513 50.0603C93.7893 50.5767 93.6324 51.0886 93.3114 51.4949C93.1726 51.6421 93.0062 51.7604 92.8216 51.8432C92.6371 51.926 92.438 51.9716 92.2358 51.9774C92.0337 51.9832 91.8323 51.9491 91.6434 51.877C91.4544 51.805 91.2814 51.6964 91.1344 51.5575C91.1128 51.537 91.0924 51.5177 91.0719 51.4949C90.7506 51.0887 90.5932 50.5769 90.6308 50.0603V46.7273H89.2144V50.0649C89.1475 50.9517 89.4012 51.8332 89.9294 52.5487C90.1662 52.8221 90.4616 53.0385 90.7937 53.1818C91.1257 53.325 91.4859 53.3915 91.8472 53.3763C92.2536 53.3832 92.6533 53.2718 92.9976 53.0557C93.3293 52.8495 93.6031 52.5624 93.7934 52.2213L93.8775 53.2808H95.1711V46.7296H93.7536L93.7513 50.0603ZM132.891 51.18L131.198 46.7261H129.681L132.254 53.1092C131.889 54.1345 131.391 54.6468 130.758 54.6461C130.492 54.648 130.228 54.595 129.984 54.4903L129.58 55.7567C129.973 55.9166 130.394 55.9977 130.818 55.9954C131.123 56.0042 131.426 55.9523 131.71 55.8428C131.994 55.7334 132.254 55.5684 132.473 55.3577C133.021 54.7613 133.432 54.0519 133.676 53.2797L136.071 46.7284H134.576L132.891 51.18ZM128.126 52.0258C127.969 52.0358 127.811 52.0103 127.665 51.9513C127.518 51.8923 127.387 51.8012 127.281 51.6848C127.063 51.3939 126.958 51.0342 126.984 50.6719V47.9925H128.52V46.7216H126.978V44.5822H125.798L125.614 46.7216H124.693V47.988H125.563V50.7003C125.531 51.0682 125.573 51.4387 125.687 51.79C125.8 52.1414 125.983 52.4666 126.223 52.7465C126.447 52.9649 126.713 53.1356 127.004 53.2482C127.296 53.3607 127.607 53.4128 127.919 53.4013C128.274 53.4049 128.626 53.3401 128.956 53.2103L128.599 51.944C128.446 51.9977 128.285 52.0261 128.123 52.0281M126.586 37.101C126.26 37.0949 125.941 37.006 125.658 36.8427C125.376 36.6793 125.14 36.4469 124.972 36.1672C124.804 35.8875 124.71 35.5697 124.699 35.2437C124.687 34.9177 124.759 34.5942 124.907 34.3035C125.055 34.0128 125.275 33.7645 125.545 33.582C125.815 33.3994 126.127 33.2885 126.452 33.2597C126.777 33.231 127.104 33.2853 127.402 33.4175C127.701 33.5498 127.96 33.7557 128.157 34.0158L129.338 33.2303C129.022 32.7967 128.61 32.4422 128.134 32.1947C127.657 31.9426 127.126 31.8114 126.586 31.8127C126.144 31.8127 125.707 31.8998 125.298 32.0689C124.89 32.238 124.519 32.4858 124.207 32.7983C123.894 33.1107 123.646 33.4817 123.477 33.8899C123.308 34.2982 123.221 34.7357 123.221 35.1776C123.221 35.6195 123.308 36.057 123.477 36.4653C123.646 36.8735 123.894 37.2445 124.207 37.5569C124.519 37.8694 124.89 38.1172 125.298 38.2863C125.707 38.4554 126.144 38.5425 126.586 38.5425C127.139 38.5452 127.684 38.4079 128.17 38.1435C128.652 37.8866 129.062 37.5115 129.361 37.0533L128.193 36.2678C128.019 36.5333 127.779 36.7495 127.496 36.8956C127.214 37.0417 126.899 37.1128 126.581 37.1022M131.345 34.6365C131.366 34.4307 131.427 34.2311 131.526 34.0492C131.625 33.8674 131.759 33.7069 131.92 33.577C132.268 33.2808 132.713 33.1237 133.17 33.136C133.635 33.1222 134.09 33.2768 134.45 33.5713C134.613 33.7009 134.748 33.862 134.847 34.0451C134.946 34.2282 135.006 34.4293 135.025 34.6365H131.345ZM136.49 35.1731C136.497 34.7324 136.416 34.2946 136.25 33.8862C136.085 33.4777 135.838 33.1069 135.526 32.7961C134.903 32.1697 134.057 31.8163 133.174 31.8136C132.291 31.8108 131.443 32.1589 130.817 32.7813L130.796 32.8017C130.481 33.1105 130.233 33.4797 130.066 33.8871C129.898 34.2945 129.815 34.7315 129.821 35.1719C129.814 35.6174 129.899 36.0595 130.071 36.4704C130.243 36.8813 130.499 37.252 130.822 37.5592C131.149 37.8825 131.538 38.1363 131.966 38.3053C132.394 38.4743 132.851 38.5549 133.311 38.5425C133.861 38.5417 134.405 38.4198 134.903 38.1855C135.388 37.9705 135.814 37.639 136.141 37.2204L135.004 36.5054C134.79 36.7427 134.526 36.9299 134.231 37.0535C133.936 37.1771 133.618 37.2341 133.299 37.2204C132.836 37.2308 132.383 37.0864 132.012 36.81C131.662 36.5634 131.418 36.1934 131.33 35.7744H136.445C136.47 35.3936 136.481 35.1913 136.481 35.1662M83.3134 49.8625L84.4206 46.6397L85.5574 49.8625H83.3134ZM83.6101 44.5867L80.526 53.2819H82.1812L82.886 51.2687H85.9689L86.6737 53.2819H88.3277L85.2436 44.5867H83.6101ZM122.855 44.431C122.743 44.4306 122.633 44.4531 122.53 44.4973C122.428 44.5416 122.336 44.6064 122.259 44.6879C122.141 44.8059 122.06 44.9564 122.027 45.1203C121.995 45.2842 122.011 45.4542 122.075 45.6087C122.139 45.7632 122.247 45.8953 122.386 45.9882C122.525 46.0812 122.688 46.1308 122.856 46.1308C123.023 46.1308 123.186 46.0812 123.325 45.9882C123.464 45.8953 123.572 45.7632 123.636 45.6087C123.7 45.4542 123.717 45.2842 123.684 45.1203C123.651 44.9564 123.57 44.8059 123.452 44.6879C123.376 44.6064 123.283 44.5416 123.181 44.4973C123.078 44.4531 122.967 44.4306 122.855 44.431ZM120.367 46.6932C119.976 46.6654 119.586 46.7477 119.24 46.9308C118.894 47.1139 118.607 47.3904 118.41 47.7288L118.315 46.7284H117.021V53.2808H118.438V50.4036C118.407 50.0834 118.443 49.7604 118.542 49.4543C118.641 49.1482 118.801 48.8655 119.013 48.6234C119.407 48.2574 119.929 48.0624 120.467 48.0812C120.543 48.0799 120.619 48.0837 120.694 48.0926L120.979 46.7341C120.798 46.7091 120.615 46.6974 120.431 46.6989L120.367 46.6932ZM122.141 53.2797H123.558V46.7296H122.141V53.2797ZM113.71 51.3676C113.44 51.6386 113.095 51.8233 112.72 51.8984C112.345 51.9735 111.956 51.9356 111.603 51.7895C111.249 51.6435 110.947 51.3958 110.734 51.0778C110.522 50.7599 110.408 50.386 110.408 50.0035C110.408 49.621 110.522 49.2471 110.734 48.9291C110.947 48.6112 111.249 48.3635 111.603 48.2174C111.956 48.0713 112.345 48.0335 112.72 48.1086C113.095 48.1837 113.44 48.3684 113.71 48.6393C113.889 48.8183 114.031 49.0309 114.129 49.265C114.226 49.4991 114.276 49.75 114.276 50.0035C114.276 50.2569 114.226 50.5078 114.129 50.7419C114.031 50.976 113.889 51.1886 113.71 51.3676ZM112.346 46.6488C111.564 46.6452 110.806 46.9129 110.199 47.4062C109.593 47.8994 109.177 48.5878 109.022 49.3537C108.867 50.1197 108.982 50.9157 109.349 51.606C109.715 52.2963 110.309 52.8381 111.031 53.1389C111.752 53.4398 112.555 53.481 113.304 53.2555C114.052 53.03 114.699 52.5519 115.134 51.9027C115.569 51.2535 115.765 50.4734 115.689 49.6956C115.613 48.9179 115.269 48.1905 114.717 47.6378C114.41 47.3204 114.041 47.069 113.633 46.899C113.225 46.7289 112.787 46.6438 112.346 46.6488ZM122.492 38.4515V35.1151C122.558 34.2305 122.304 33.3519 121.777 32.638C121.543 32.3641 121.25 32.1467 120.92 32.0022C120.59 31.8577 120.231 31.7898 119.871 31.8036C119.459 31.7952 119.053 31.907 118.704 32.1254C118.377 32.3337 118.107 32.6205 117.919 32.9598L117.836 31.8991H116.538V38.4504H117.953V35.1128C117.916 34.5963 118.073 34.0844 118.394 33.6782C118.675 33.3815 119.062 33.2083 119.47 33.1968C119.878 33.1853 120.274 33.3364 120.571 33.6168C120.593 33.6361 120.613 33.6566 120.634 33.6782C120.955 34.0844 121.113 34.5963 121.075 35.1128V38.4504L122.492 38.4515ZM89.2985 24.2589C89.2252 24.3298 89.1671 24.415 89.128 24.5092C89.0889 24.6035 89.0696 24.7048 89.0712 24.8068C89.0695 24.9107 89.0888 25.0138 89.1279 25.1101C89.1669 25.2064 89.225 25.2938 89.2985 25.3672C89.369 25.4435 89.4547 25.5041 89.5501 25.5452C89.6454 25.5863 89.7483 25.607 89.8521 25.6059C89.9567 25.6065 90.0603 25.5856 90.1565 25.5445C90.2527 25.5035 90.3395 25.4431 90.4114 25.3672C90.5217 25.2571 90.5969 25.1168 90.6275 24.964C90.6581 24.8112 90.6427 24.6527 90.5834 24.5086C90.524 24.3645 90.4234 24.2412 90.294 24.1543C90.1647 24.0674 90.0125 24.0207 89.8567 24.0201C89.7519 24.018 89.6478 24.0382 89.5514 24.0794C89.455 24.1205 89.3695 24.1817 89.2985 24.2589ZM114.687 10.8449C114.76 10.7712 114.818 10.6839 114.857 10.5879C114.896 10.4919 114.916 10.3892 114.915 10.2856C114.915 10.0771 114.832 9.87714 114.684 9.72972C114.537 9.5823 114.337 9.49948 114.129 9.49948C113.92 9.49948 113.72 9.5823 113.573 9.72972C113.425 9.87714 113.343 10.0771 113.343 10.2856C113.341 10.3892 113.361 10.4922 113.4 10.5882C113.439 10.6843 113.497 10.7715 113.57 10.8449C113.641 10.9212 113.726 10.9819 113.822 11.023C113.918 11.0641 114.021 11.0847 114.125 11.0836C114.229 11.0839 114.333 11.0629 114.429 11.0219C114.525 10.9809 114.612 10.9206 114.684 10.8449M108.744 16.2218V20.6996C108.716 21.3421 108.936 21.9708 109.358 22.4559C109.562 22.6781 109.812 22.8534 110.09 22.9696C110.368 23.0858 110.669 23.1401 110.97 23.1289H119.175C119.354 22.8923 119.586 22.7003 119.851 22.5682C120.117 22.436 120.409 22.3672 120.706 22.3672C121.003 22.3672 121.295 22.436 121.561 22.5682C121.826 22.7003 122.058 22.8923 122.237 23.1289H130.49C130.791 23.1414 131.092 23.0877 131.37 22.9714C131.648 22.8551 131.898 22.6791 132.101 22.4559C132.52 21.9692 132.737 21.3412 132.71 20.6996V13.8403H131.316V20.7007C131.316 21.3995 131.042 21.7485 130.493 21.7477H122.24C122.122 21.7545 122.004 21.7326 121.896 21.6839C121.788 21.6352 121.694 21.5611 121.621 21.4681C121.466 21.2432 121.39 20.9733 121.406 20.7007V17.1767H120.025V20.7007C120.041 20.9733 119.965 21.2435 119.81 21.4681C119.735 21.5623 119.639 21.6371 119.529 21.6858C119.42 21.7345 119.3 21.7558 119.18 21.7477H110.975C110.419 21.7477 110.141 21.3987 110.14 20.7007V16.2264L108.744 16.2218ZM116.801 10.8426C116.877 10.7706 116.937 10.6839 116.978 10.5877C117.019 10.4915 117.04 10.3879 117.039 10.2833C117.04 10.1795 117.02 10.0766 116.979 9.9812C116.938 9.88585 116.877 9.80017 116.801 9.72968C116.729 9.65735 116.644 9.59999 116.55 9.56095C116.456 9.52192 116.356 9.50198 116.254 9.50232C116.15 9.49945 116.046 9.51816 115.949 9.55728C115.853 9.59641 115.765 9.65511 115.692 9.72968C115.548 9.87927 115.467 10.0795 115.469 10.2875C115.47 10.4955 115.553 10.6948 115.699 10.8426C115.77 10.9178 115.855 10.9777 115.95 11.0186C116.045 11.0596 116.147 11.0807 116.25 11.0807C116.353 11.0807 116.455 11.0596 116.55 11.0186C116.645 10.9777 116.73 10.9178 116.801 10.8426ZM85.0049 2.05301C85.1079 2.05449 85.2102 2.0351 85.3055 1.99603C85.4009 1.95696 85.4873 1.89901 85.5597 1.82566C85.6915 1.6965 85.7743 1.52555 85.794 1.34206C85.8136 1.15857 85.7689 0.973953 85.6675 0.819802C85.566 0.66565 85.4141 0.551553 85.2378 0.497039C85.0615 0.442524 84.8717 0.450982 84.701 0.520964C84.5302 0.590946 84.3891 0.718102 84.3018 0.880667C84.2144 1.04323 84.1863 1.2311 84.2222 1.41211C84.2581 1.59313 84.3558 1.75603 84.4986 1.87295C84.6414 1.98986 84.8204 2.05351 85.0049 2.05301ZM120.221 16.34C120.297 16.2708 120.358 16.1861 120.399 16.0917C120.44 15.9972 120.461 15.8951 120.46 15.7921C120.461 15.6884 120.44 15.5856 120.399 15.4903C120.357 15.395 120.297 15.3093 120.221 15.2385C120.148 15.1656 120.06 15.108 119.964 15.069C119.868 15.0299 119.766 15.0103 119.662 15.0112C119.56 15.0095 119.458 15.0288 119.364 15.0679C119.269 15.107 119.184 15.1651 119.113 15.2385C119.037 15.3105 118.977 15.3973 118.936 15.4935C118.895 15.5896 118.874 15.6932 118.874 15.7978C118.871 15.9017 118.89 16.0051 118.929 16.1014C118.968 16.1977 119.027 16.2848 119.101 16.3571C119.174 16.4299 119.26 16.4877 119.355 16.5271C119.45 16.5665 119.552 16.5868 119.655 16.5868C119.758 16.5868 119.86 16.5665 119.955 16.5271C120.05 16.4877 120.136 16.4299 120.209 16.3571L120.216 16.3503M135.936 13.8494H134.542V23.1391H135.936V13.8494ZM82.6211 4.50959C82.7652 4.35816 82.939 4.23817 83.1317 4.15718C83.3244 4.07619 83.5318 4.03594 83.7408 4.03897H85.2129V5.63046C85.2313 6.05378 85.0818 6.46723 84.7969 6.78088C84.6635 6.92431 84.5012 7.0378 84.3208 7.11384C84.1403 7.18988 83.9457 7.22672 83.7499 7.22195C83.5409 7.22525 83.3334 7.18512 83.1407 7.10412C82.9479 7.02311 82.7741 6.90297 82.6302 6.75132C82.4824 6.60353 82.3651 6.42808 82.2852 6.23498C82.2052 6.04188 82.164 5.83492 82.164 5.62591C82.164 5.4169 82.2052 5.20993 82.2852 5.01683C82.3651 4.82374 82.4824 4.64828 82.6302 4.5005M130.141 5.47699C130.232 5.37563 130.344 5.2937 130.468 5.23603C130.592 5.17836 130.726 5.14613 130.863 5.14124C130.999 5.13634 131.135 5.15889 131.263 5.20754C131.391 5.25619 131.508 5.32996 131.606 5.4245C131.705 5.51903 131.784 5.6324 131.838 5.75792C131.893 5.88344 131.921 6.01855 131.922 6.15527C131.923 6.292 131.897 6.42756 131.845 6.55396C131.793 6.68035 131.716 6.795 131.619 6.89114L131.587 6.92297C131.395 7.11487 131.135 7.22268 130.863 7.22268C130.592 7.22268 130.331 7.11487 130.14 6.92297C129.948 6.73107 129.84 6.4708 129.84 6.19941C129.84 5.92803 129.948 5.66775 130.14 5.47585M132.321 3.97872C132.55 3.82661 132.82 3.74735 133.095 3.75136C133.293 3.74508 133.489 3.7826 133.67 3.86122C133.851 3.93984 134.013 4.05761 134.143 4.20607C134.424 4.54411 134.568 4.97534 134.547 5.41447V7.22649H132.487C132.632 7.09887 132.748 6.94135 132.826 6.76474C132.905 6.58814 132.944 6.39664 132.942 6.20339C132.938 5.84917 132.826 5.50455 132.622 5.21525C132.417 4.92594 132.13 4.70561 131.797 4.58348C131.914 4.33861 132.095 4.12975 132.321 3.97872ZM83.7442 8.60768C84.1452 8.62573 84.5443 8.54238 84.9045 8.36534C85.2647 8.18831 85.5745 7.92329 85.8052 7.59481C85.9354 7.91424 86.1633 8.18428 86.4563 8.36623C86.7494 8.54818 87.0925 8.6327 87.4365 8.60768H99.0487C99.3467 8.62074 99.6432 8.55767 99.9101 8.42441C100.177 8.29116 100.406 8.09211 100.574 7.84604C100.74 8.09471 100.967 8.29581 101.235 8.42941C101.502 8.563 101.799 8.62446 102.098 8.60768H113.645C113.951 8.20202 114.406 7.93464 114.91 7.86429C115.413 7.79395 115.924 7.9264 116.33 8.23254C116.472 8.33941 116.598 8.46569 116.705 8.60768H135.935V5.41447C135.962 4.60998 135.677 3.82615 135.139 3.22731C134.882 2.94391 134.567 2.71944 134.216 2.56932C133.864 2.41921 133.484 2.347 133.102 2.35767C132.529 2.35051 131.968 2.52566 131.5 2.85785C131.037 3.17982 130.678 3.63141 130.47 4.15605C129.992 4.2321 129.561 4.48535 129.261 4.8654C128.947 5.24104 128.776 5.71604 128.78 6.20567C128.775 6.39788 128.812 6.58892 128.888 6.76557C128.963 6.94222 129.077 7.10026 129.22 7.22877H116.705C116.585 7.23634 116.465 7.21487 116.355 7.16618C116.246 7.1175 116.149 7.04304 116.074 6.94912C115.92 6.72367 115.845 6.4534 115.861 6.18066V2.65664L114.479 2.66801V6.18293C114.495 6.45581 114.419 6.72608 114.264 6.95139C114.191 7.04448 114.097 7.11852 113.989 7.16721C113.881 7.21591 113.763 7.2378 113.645 7.23104H102.099C101.542 7.23104 101.265 6.89001 101.265 6.18293V2.65892H99.8717V6.18293C99.8717 6.88167 99.5974 7.23104 99.0487 7.23104H87.4422C86.8867 7.23104 86.6089 6.88167 86.6089 6.18293V2.65892H83.759C83.3687 2.65304 82.9814 2.72717 82.6209 2.87674C82.2603 3.0263 81.9343 3.24813 81.6628 3.52855C81.3787 3.803 81.1538 4.13267 81.0019 4.49727C80.85 4.86187 80.7743 5.2537 80.7795 5.64864C80.78 6.03857 80.8572 6.4246 81.0068 6.78467C81.1565 7.14475 81.3756 7.47183 81.6516 7.74723C81.9276 8.02264 82.2552 8.24098 82.6156 8.38978C82.9761 8.53859 83.3623 8.61495 83.7522 8.6145H83.7579M82.8882 2.06324C83.0441 2.06492 83.1969 2.02026 83.3273 1.93493C83.4578 1.84961 83.5599 1.72746 83.6208 1.58399C83.6817 1.44052 83.6986 1.2822 83.6694 1.12911C83.6401 0.976018 83.5661 0.835059 83.4566 0.724119C83.3824 0.649464 83.2937 0.590782 83.1959 0.551683C83.0982 0.512584 82.9935 0.493895 82.8882 0.496763C82.733 0.49798 82.5815 0.544988 82.4528 0.631899C82.3242 0.71881 82.224 0.841759 82.1649 0.985343C82.1058 1.12893 82.0904 1.28676 82.1205 1.43907C82.1507 1.59138 82.2252 1.7314 82.3346 1.84157C82.407 1.91462 82.4933 1.97239 82.5884 2.01145C82.6835 2.05051 82.7854 2.07005 82.8882 2.06893M101.645 1.49372H100.724C100.663 1.49423 100.603 1.48241 100.546 1.45897C100.49 1.43553 100.439 1.40095 100.396 1.3573C100.351 1.31307 100.315 1.2599 100.292 1.20117C100.268 1.14245 100.257 1.07948 100.259 1.01627C100.258 0.956791 100.27 0.897743 100.292 0.84266C100.315 0.787577 100.348 0.737593 100.39 0.695699C100.434 0.652375 100.486 0.618443 100.544 0.595969C100.601 0.573494 100.663 0.562947 100.724 0.56497C100.803 0.561462 100.881 0.575681 100.954 0.606574C101.026 0.637467 101.091 0.684243 101.143 0.743444L101.523 0.373991C101.423 0.255492 101.297 0.160585 101.155 0.0959642C101.014 0.0313429 100.859 -0.00141852 100.704 -9.25766e-06C100.444 -0.00701956 100.191 0.0894678 100.002 0.268271C99.9092 0.353338 99.8354 0.457464 99.786 0.57358C99.7365 0.689697 99.7127 0.815088 99.716 0.941244C99.7134 1.14241 99.785 1.33746 99.9172 1.48917H99.4306V2.06438H101.645V1.49372ZM81.1251 38.4618H82.637V29.7677H81.1251V38.4618ZM91.4254 24.2623C91.278 24.4101 91.1952 24.6105 91.1952 24.8193C91.1952 25.0281 91.278 25.2284 91.4254 25.3763C91.4935 25.4487 91.5752 25.507 91.6659 25.5478C91.7565 25.5886 91.8543 25.6111 91.9537 25.6141C92.0531 25.617 92.152 25.6004 92.2449 25.565C92.3378 25.5297 92.4229 25.4764 92.4951 25.4081C92.5066 25.3984 92.5172 25.3877 92.527 25.3763C92.6028 25.304 92.6632 25.217 92.7044 25.1207C92.7456 25.0244 92.7669 24.9207 92.7668 24.8159C92.7674 24.712 92.7464 24.6092 92.7051 24.5139C92.6638 24.4185 92.6032 24.3329 92.527 24.2623C92.4556 24.1899 92.3704 24.1325 92.2765 24.0934C92.1826 24.0544 92.0819 24.0345 91.9802 24.0349C91.8763 24.0321 91.773 24.0509 91.6767 24.09C91.5805 24.1292 91.4934 24.1878 91.4209 24.2623M84.9765 16.348C85.1267 16.197 85.211 15.9926 85.211 15.7796C85.211 15.5666 85.1267 15.3623 84.9765 15.2112C84.8637 15.0979 84.7199 15.0205 84.5631 14.989C84.4064 14.9574 84.2438 14.973 84.096 15.0339C83.9481 15.0947 83.8216 15.1981 83.7325 15.3308C83.6434 15.4635 83.5957 15.6197 83.5953 15.7796C83.5932 15.8879 83.6131 15.9954 83.654 16.0957C83.6948 16.196 83.7557 16.2869 83.8329 16.3628C83.9074 16.4398 83.9968 16.5007 84.0958 16.5418C84.1947 16.5828 84.301 16.6032 84.4081 16.6015C84.5174 16.6014 84.6256 16.5791 84.726 16.5359C84.8265 16.4927 84.9171 16.4295 84.9924 16.3503M103.23 19.0297C103.521 18.7329 103.917 18.5637 104.333 18.5592C104.748 18.5548 105.148 18.7154 105.445 19.0058L105.469 19.0297C105.657 19.2135 105.797 19.4411 105.876 19.6921C105.955 19.9431 105.97 20.2098 105.92 20.4681C105.871 20.7265 105.758 20.9686 105.592 21.1727C105.426 21.3768 105.212 21.5365 104.969 21.6376C104.726 21.7388 104.462 21.7781 104.2 21.7521C103.938 21.7261 103.687 21.6356 103.469 21.4888C103.251 21.3419 103.072 21.1432 102.949 20.9104C102.827 20.6777 102.764 20.4182 102.766 20.1551C102.762 19.9465 102.8 19.7393 102.878 19.5459C102.956 19.3525 103.073 19.1769 103.221 19.0297M93.3295 23.1323H104.356C104.944 23.1314 105.519 22.9562 106.007 22.6288C106.495 22.3014 106.876 21.8365 107.1 21.293C107.324 20.7495 107.382 20.1517 107.266 19.5752C107.151 18.9988 106.867 18.4695 106.451 18.0544C106.034 17.6393 105.504 17.357 104.927 17.2432C104.35 17.1294 103.753 17.1892 103.21 17.415C102.667 17.6408 102.203 18.0225 101.878 18.5119C101.552 19.0012 101.378 19.5762 101.379 20.1642C101.369 20.4725 101.435 20.7785 101.573 21.0548C101.71 21.3312 101.913 21.5692 102.165 21.7477H92.4599C92.34 21.7556 92.2199 21.7342 92.11 21.6855C92.0002 21.6368 91.9037 21.5622 91.829 21.4681C91.6742 21.2432 91.5986 20.9733 91.6142 20.7007V17.1767L90.233 17.1881V20.7019C90.2489 20.9743 90.1737 21.2442 90.0193 21.4692C89.9463 21.5624 89.8518 21.6366 89.7439 21.6853C89.636 21.734 89.5179 21.7558 89.3997 21.7488H88.4789C87.9302 21.7488 87.6563 21.3999 87.657 20.7019V17.1779H86.2622V22.3832C86.2884 22.9388 86.0986 23.4831 85.7325 23.9019C85.4035 24.2534 84.9485 24.4601 84.4674 24.4767C83.9862 24.4933 83.5181 24.3185 83.1656 23.9906C83.1343 23.9628 83.1047 23.9332 83.0769 23.9019C82.7101 23.4835 82.5198 22.939 82.5461 22.3832V18.3692H81.1535V22.3832C81.137 22.8407 81.2118 23.297 81.3734 23.7254C81.535 24.1538 81.7802 24.5457 82.0948 24.8784C82.677 25.4836 83.4737 25.8358 84.3132 25.8592C85.1526 25.8825 85.9677 25.5752 86.5828 25.0034C87.2001 24.4195 87.5748 23.6243 87.632 22.7765C87.7359 22.8969 87.8661 22.9918 88.0126 23.0537C88.1591 23.1156 88.3179 23.1429 88.4766 23.1334H89.3974C89.5761 22.8966 89.8073 22.7045 90.0728 22.5722C90.3383 22.4399 90.6309 22.371 90.9275 22.371C91.2242 22.371 91.5168 22.4399 91.7823 22.5722C92.0478 22.7045 92.279 22.8966 92.4576 23.1334L93.3295 23.1323ZM122.348 16.3548C122.461 16.244 122.537 16.1022 122.569 15.9476C122.601 15.7929 122.586 15.6323 122.526 15.4863C122.466 15.3402 122.364 15.2153 122.233 15.1274C122.102 15.0394 121.947 14.9925 121.789 14.9925C121.632 14.9925 121.477 15.0394 121.346 15.1274C121.215 15.2153 121.113 15.3402 121.053 15.4863C120.993 15.6323 120.978 15.7929 121.01 15.9476C121.041 16.1022 121.118 16.244 121.231 16.3548C121.38 16.5017 121.58 16.584 121.789 16.584C121.998 16.584 122.199 16.5017 122.348 16.3548ZM34.0749 0.795736L15.1192 53.2876H24.7818L40.774 7.51637L56.7719 53.2876H66.4345L47.4719 0.795736H34.0749ZM0 53.2876H9.28862V0.795736H0V53.2876Z" fill="#146394"/>
<path d="M31.5013 34.0204L24.7693 53.2831C26.7073 50.9839 28.7766 48.7988 30.967 46.7387C38.8281 39.4803 47.7373 33.4469 57.3948 28.8412C62.3342 26.4472 67.4125 24.3514 72.6027 22.5651C58.3513 24.0229 44.4522 27.8967 31.5013 34.0204Z" fill="#146394"/>
</g>
</svg>
