<svg width="74" height="74" viewBox="0 0 74 74" fill="none" xmlns="http://www.w3.org/2000/svg">
<path d="M12.2967 18.3803L24.1414 23.0304L37.1267 10.2206L18.4384 10.9225C18.2629 10.9225 18.0875 11.0103 17.912 11.1857L12.0335 15.8359C11.5071 16.3624 11.3316 17.0642 11.5948 17.7661C11.7703 17.9416 12.0335 18.2048 12.2967 18.3803Z" stroke="white" stroke-width="2.63215"/>
<path d="M70.5549 3.99122L57.5696 0.218421C55.2885 -0.395748 52.8318 0.306192 51.2525 2.06096L12.0334 40.6659L2.6454 40.1394C1.24159 40.0517 0.0132499 41.5433 0.0132499 43.4735C-0.0744885 44.5264 0.276464 45.4914 0.978371 46.2811L10.1032 56.1078C10.3664 56.4588 10.8051 56.5465 11.156 56.371C13.7882 54.9672 23.5271 47.9481 35.0209 39.4375L37.3021 71.6375C37.3898 72.5149 37.9162 73.129 38.5304 73.0413C38.7936 73.0413 38.9691 72.8659 39.1446 72.6904L44.3212 66.8996C44.5844 66.5487 44.8476 66.11 44.8476 65.6713L49.7609 28.558C58.0083 22.3285 65.9048 16.3623 71.4323 12.0631C73.0116 10.9225 73.538 8.2904 72.7484 6.18468C72.3097 5.13181 71.5201 4.34217 70.5549 3.99122Z" stroke="white" stroke-width="2.63215"/>
</svg>
