<svg width="40" height="40" viewBox="0 0 40 40" fill="none" xmlns="http://www.w3.org/2000/svg">
<path d="M33.6803 24.5032C33.4707 24.3183 33.3019 24.0918 33.1847 23.838C33.0695 23.5854 33.0078 23.3116 33.0035 23.0339C32.9992 22.7562 33.0525 22.4807 33.1598 22.2245C33.3126 21.8665 33.5656 21.5603 33.8884 21.3428C34.1732 21.1519 34.5021 21.0371 34.8438 21.0094C35.1855 20.9817 35.5285 21.042 35.8402 21.1846C36.0939 21.3019 36.3205 21.4706 36.5055 21.6801C36.6793 21.877 36.8902 22.0377 37.1261 22.153C37.362 22.2684 37.6183 22.3361 37.8804 22.3524C38.1425 22.3687 38.4052 22.3332 38.6536 22.2479C38.902 22.1627 39.1311 22.0293 39.328 21.8555C39.5248 21.6817 39.6856 21.4708 39.8009 21.2349C39.9163 20.999 39.984 20.7427 40.0003 20.4806C40.0166 20.2185 39.9811 19.9557 39.8958 19.7073C39.8106 19.459 39.6773 19.2298 39.5034 19.033C38.9611 18.4191 38.2987 17.9228 37.5572 17.5747C36.8158 17.2265 36.0109 17.0339 35.1922 17.0086C34.3735 16.9833 33.5582 17.1259 32.7967 17.4277C32.0351 17.7294 31.3435 18.1839 30.7643 18.7631C30.1851 19.3423 29.7307 20.034 29.4289 20.7955C29.1272 21.557 28.9846 22.3723 29.0098 23.191C29.0351 24.0097 29.2278 24.8146 29.5759 25.5561C29.9241 26.2975 30.4204 26.9598 31.0342 27.5022C31.4317 27.8534 31.9525 28.0323 32.4819 27.9995C33.0113 27.9667 33.506 27.7249 33.8572 27.3273C34.2084 26.9298 34.3872 26.409 34.3544 25.8796C34.3216 25.3501 34.0799 24.8554 33.6823 24.5043L33.6803 24.5032ZM32.3499 24.0025H28.0029C27.4724 24.0025 26.9636 24.2132 26.5885 24.5884C26.2134 24.9635 26.0027 25.4722 26.0027 26.0027C26.0027 26.5332 26.2134 27.042 26.5885 27.4171C26.9636 27.7922 27.4724 28.0029 28.0029 28.0029H32.3625C32.893 28.0013 33.401 27.7889 33.775 27.4127C34.1489 27.0364 34.358 26.527 34.3563 25.9965C34.3547 25.466 34.1424 24.9579 33.7661 24.5839C33.3898 24.21 32.8804 24.0008 32.3499 24.0025ZM32.3625 28.0029C32.808 28.0029 33.2129 27.9977 33.5929 27.9852C33.8781 27.9759 34.1487 27.9623 34.4141 27.9405C34.8077 27.9108 35.1985 27.8516 35.5832 27.7635C35.7791 27.7173 35.9722 27.6603 36.1619 27.5928C36.3553 27.5237 36.5442 27.4424 36.7272 27.3492C37.8563 26.774 38.7741 25.8561 39.3493 24.727C39.5128 24.4034 39.641 24.0632 39.7314 23.7121C39.7972 23.4571 39.848 23.1985 39.8834 22.9376C39.9375 22.5483 39.9646 22.1558 39.9802 21.7342C39.9958 21.3127 40.001 20.864 40.0021 20.3623C40.0029 20.0996 39.9519 19.8393 39.8521 19.5963C39.7524 19.3533 39.6057 19.1324 39.4206 18.9461C39.2354 18.7598 39.0154 18.6117 38.773 18.5105C38.5307 18.4092 38.2707 18.3566 38.0081 18.3558C37.4776 18.3542 36.9682 18.5633 36.5919 18.9372C36.2156 19.3112 36.0033 19.8193 36.0016 20.3498C36.0016 20.7786 35.9964 21.1503 35.986 21.4657C35.9784 21.7023 35.9673 21.9074 35.9527 22.0809C35.9394 22.2752 35.9119 22.4683 35.8705 22.6586C35.8583 22.7104 35.8433 22.7615 35.8256 22.8116C35.8136 22.8455 35.7995 22.8786 35.7831 22.9105C35.5914 23.2871 35.2851 23.5932 34.9086 23.7849C34.8422 23.8178 34.7724 23.8433 34.7004 23.8609C34.5976 23.8868 34.4933 23.9066 34.3881 23.9203C34.1893 23.9484 33.9208 23.9692 33.5825 23.9827C33.2442 23.9963 32.834 24.0004 32.351 24.0025C31.8205 24.0042 31.3123 24.2165 30.9384 24.5928C30.5644 24.9691 30.3554 25.4785 30.357 26.009C30.3587 26.5395 30.571 27.0476 30.9473 27.4215C31.3236 27.7954 31.832 28.0046 32.3625 28.0029ZM40.0021 20.3623C40.0021 20.1218 40.0021 19.8699 40.0021 19.6034V8.39953C40.0021 8.13304 40.0021 7.87905 40.0021 7.63963C40.0004 7.10914 39.7881 6.60104 39.4118 6.2271C39.0355 5.85315 38.5261 5.64401 37.9956 5.64567C37.4651 5.64732 36.957 5.85965 36.5831 6.23593C36.2092 6.61221 36 7.12163 36.0016 7.65212C36.0016 7.88391 36.0016 8.13304 36.0016 8.39953V19.5992C36.0016 19.8657 36.0016 20.1149 36.0016 20.3466C36 20.8771 36.2092 21.3866 36.5831 21.7628C36.957 22.1391 37.4651 22.3514 37.9956 22.3531C38.5261 22.3548 39.0355 22.1456 39.4118 21.7717C39.7881 21.3977 40.0004 20.8896 40.0021 20.3591V20.3623ZM36.5033 6.32697C36.3183 6.53648 36.0919 6.70521 35.8382 6.82247C35.5856 6.93776 35.3118 6.99949 35.0341 7.00379C34.7564 7.00809 34.4808 6.95486 34.2247 6.84746C33.8666 6.69477 33.5605 6.44169 33.3431 6.11878C33.1522 5.83404 33.0373 5.50516 33.0096 5.16349C32.9819 4.82182 33.0422 4.47874 33.1847 4.16698C33.302 3.91362 33.4709 3.68745 33.6803 3.50285C33.8772 3.32903 34.0378 3.11815 34.1531 2.88223C34.2685 2.64631 34.3362 2.38999 34.3525 2.12789C34.3688 1.86579 34.3333 1.60305 34.2481 1.35467C34.1628 1.10628 34.0295 0.877127 33.8557 0.680278C33.6818 0.483428 33.471 0.322742 33.2351 0.207393C32.9991 0.0920439 32.7429 0.0242909 32.4808 0.0080033C32.2187 -0.00828429 31.9559 0.0272118 31.7075 0.112465C31.4592 0.197719 31.2299 0.331059 31.033 0.504875C30.4183 1.04693 29.9211 1.7092 29.5721 2.45082C29.2232 3.19244 29.0299 3.9977 29.0041 4.81692C28.9784 5.63613 29.1207 6.45194 29.4224 7.21401C29.7241 7.97609 30.1788 8.66827 30.7583 9.24787C31.3378 9.82746 32.0299 10.2822 32.792 10.584C33.554 10.8858 34.3698 11.0282 35.189 11.0026C36.0082 10.9769 36.8135 10.7837 37.5552 10.4348C38.2969 10.086 38.9591 9.58885 39.5013 8.97414C39.8523 8.57658 40.0311 8.05586 39.9983 7.52653C39.9654 6.99719 39.7235 6.50261 39.3259 6.15157C38.9284 5.80054 38.4077 5.62181 37.8783 5.6547C37.349 5.68759 36.8543 5.92942 36.5033 6.32697ZM40.0021 7.64483C40.0021 7.1993 39.9969 6.79437 39.9854 6.41442C39.976 6.12919 39.9624 5.85854 39.9406 5.5931C39.9109 5.19956 39.8518 4.8088 39.7637 4.4241C39.7176 4.22813 39.6606 4.0349 39.5929 3.84532C39.5238 3.65192 39.4424 3.46313 39.3493 3.28008C38.7741 2.15102 37.8563 1.23309 36.7272 0.657898C36.4037 0.494311 36.0634 0.36622 35.7123 0.275864C35.4573 0.210031 35.1987 0.159283 34.9378 0.123884C34.5485 0.0697537 34.156 0.0426882 33.7344 0.0270738C33.3128 0.0114594 32.8642 0.00625467 32.3625 0.0052137C32.0999 0.00439349 31.8397 0.0553039 31.5967 0.15504C31.3538 0.254776 31.1329 0.401384 30.9466 0.586492C30.7604 0.7716 30.6123 0.991585 30.511 1.23388C30.4098 1.47618 30.3573 1.73605 30.3565 1.99866C30.3557 2.26126 30.4066 2.52145 30.5063 2.76438C30.6061 3.0073 30.7526 3.22821 30.9377 3.41448C31.1229 3.60075 31.3429 3.74873 31.5852 3.84998C31.8275 3.95123 32.0873 4.00377 32.3499 4.00459C32.7788 4.00459 33.1504 4.00979 33.4658 4.0202C33.7025 4.02784 33.9076 4.03894 34.0811 4.05351C34.2754 4.0668 34.4684 4.09428 34.6588 4.13575C34.7106 4.1478 34.7616 4.16274 34.8117 4.18051C34.8452 4.19224 34.8779 4.20615 34.9096 4.22215C35.2856 4.41382 35.5914 4.71953 35.7831 5.09552C35.8159 5.16194 35.8414 5.23175 35.8591 5.30371C35.885 5.40654 35.9048 5.51082 35.9184 5.616C35.9465 5.81482 35.9673 6.08339 35.9808 6.4217C35.9943 6.76001 35.9985 7.17015 36.0006 7.65316C36.0014 7.91583 36.054 8.17577 36.1553 8.41813C36.2565 8.66049 36.4045 8.88053 36.5909 9.06569C36.7772 9.25085 36.9981 9.3975 37.2411 9.49726C37.4841 9.59702 37.7444 9.64794 38.0071 9.64712C38.2697 9.6463 38.5297 9.59375 38.772 9.49248C39.0144 9.3912 39.2344 9.24317 39.4196 9.05686C39.6047 8.87054 39.7513 8.64958 39.8511 8.40659C39.9509 8.1636 40.0019 7.90334 40.0011 7.64067L40.0021 7.64483ZM32.3625 0.0052137H7.64267C7.38006 0.00610225 7.12023 0.0587047 6.87796 0.160019C6.63568 0.261334 6.41572 0.409376 6.23066 0.595693C6.0456 0.782009 5.89905 1.00295 5.79938 1.2459C5.69971 1.48886 5.64893 1.74906 5.64982 2.01167C5.65071 2.27427 5.70328 2.53413 5.80459 2.7764C5.90591 3.01867 6.054 3.23862 6.24032 3.42368C6.42663 3.60874 6.64746 3.75529 6.89041 3.85496C7.13336 3.95463 7.39366 4.00548 7.65626 4.00459H32.3499C32.6125 4.00548 32.8716 3.95463 33.1146 3.85496C33.3575 3.75529 33.5785 3.60874 33.7648 3.42368C33.9511 3.23862 34.0992 3.01867 34.2005 2.7764C34.3018 2.53413 34.3544 2.27427 34.3553 2.01167C34.3562 1.74906 34.3054 1.48886 34.2057 1.2459C34.1061 1.00295 33.9595 0.782009 33.7745 0.595693C33.5894 0.409376 33.3694 0.261334 33.1272 0.160019C32.8849 0.0587047 32.6251 0.00610225 32.3625 0.0052137ZM0.503844 8.9731C1.04735 9.58315 1.70967 10.0758 2.45031 10.4208C3.19095 10.7657 3.9942 10.9558 4.8109 10.9794C5.62761 11.0029 6.44055 10.8594 7.19983 10.5576C7.9591 10.2559 8.64874 9.8022 9.22647 9.22446C9.80421 8.64672 10.2579 7.95708 10.5597 7.1978C10.8615 6.43853 11.005 5.62562 10.9814 4.80891C10.9579 3.99221 10.7678 3.18892 10.4228 2.44828C10.0779 1.70764 9.58518 1.04526 8.97513 0.501752C8.77828 0.327936 8.54915 0.194596 8.30077 0.109342C8.05238 0.0240886 7.78964 -0.0114074 7.52754 0.00488014C7.26544 0.0211677 7.00904 0.0889207 6.77312 0.20427C6.53721 0.319619 6.32633 0.480305 6.15251 0.677155C5.9787 0.874004 5.84537 1.10316 5.76012 1.35154C5.67486 1.59992 5.63938 1.86267 5.65567 2.12477C5.67195 2.38687 5.73969 2.64319 5.85504 2.87911C5.97039 3.11502 6.13115 3.32591 6.328 3.49972C6.53745 3.68433 6.70614 3.9105 6.82344 4.16386C6.93867 4.41653 7.00035 4.69031 7.00465 4.96799C7.00895 5.24566 6.95582 5.52122 6.84848 5.77735C6.69579 6.13542 6.44263 6.44164 6.11973 6.65904C5.83491 6.85018 5.50592 6.96509 5.16403 6.99279C4.82214 7.0205 4.47878 6.96006 4.16691 6.81727C3.91325 6.69996 3.6867 6.53123 3.50169 6.32177C3.32788 6.12485 3.11702 5.9641 2.88108 5.84869C2.64514 5.73327 2.38881 5.66546 2.12666 5.64913C1.86451 5.63279 1.60176 5.66825 1.35331 5.75348C1.10487 5.83871 0.875611 5.97203 0.678693 6.14585C0.481776 6.31966 0.321022 6.53056 0.20561 6.7665C0.0901978 7.00245 0.022318 7.25881 0.00598208 7.52096C-0.0103538 7.78311 0.0250797 8.0459 0.110307 8.29435C0.195534 8.54279 0.328885 8.77202 0.502701 8.96893M0.0020429 7.63859C0.0020429 7.72047 0.0020429 7.80306 0.0020429 7.88634C0.0020429 8.05289 0.0020429 8.22361 0.0020429 8.39953V19.5992C0.0020429 19.8657 0.0020429 20.1197 0.0020429 20.3591C0.00293145 20.6217 0.0555002 20.8816 0.156815 21.1239C0.258129 21.3661 0.406223 21.5861 0.59254 21.7712C0.778856 21.9562 0.999806 22.1028 1.24276 22.2024C1.48571 22.3021 1.74588 22.3529 2.00849 22.3521C2.27109 22.3512 2.53092 22.2986 2.7732 22.1973C3.01547 22.0959 3.23543 21.9479 3.42049 21.7616C3.60555 21.5753 3.7521 21.3543 3.85177 21.1114C3.95144 20.8684 4.00235 20.6082 4.00146 20.3456C4.00146 20.1138 4.00146 19.865 4.00146 19.5992V8.39953C4.00146 8.2191 4.00146 8.04803 4.00146 7.88634C4.00146 7.80514 4.00146 7.72672 4.00146 7.65108C4.00326 7.12059 3.79421 6.61112 3.42037 6.23474C3.04652 5.85835 2.53847 5.6459 2.00798 5.6441C1.47749 5.64231 0.968031 5.85132 0.59165 6.22517C0.215269 6.59901 0.0028209 7.10706 0.00102633 7.63754L0.0020429 7.63859ZM4.00146 7.65108C4.00146 7.2222 4.0077 6.85162 4.01811 6.53621C4.02574 6.29956 4.03683 6.09449 4.0514 5.921C4.06471 5.72668 4.09217 5.53359 4.13361 5.34327C4.14573 5.29114 4.16064 5.23971 4.17834 5.1892C4.19037 5.15533 4.20464 5.1223 4.22104 5.09031C4.41265 4.71428 4.71836 4.40856 5.09439 4.21694C5.16086 4.1842 5.23073 4.15872 5.30266 4.14095C5.40552 4.11514 5.50972 4.09533 5.61488 4.08162C5.8137 4.05351 6.08229 4.0327 6.42165 4.01916C6.761 4.00563 7.17008 4.00147 7.65309 3.99938C8.18344 3.99773 8.69138 3.78546 9.06522 3.40927C9.43906 3.03309 9.64823 2.5238 9.64657 1.99345C9.64491 1.4631 9.43264 0.955131 9.05645 0.581288C8.68027 0.207445 8.17098 -0.00164671 7.64063 9.76775e-06C7.1951 9.76775e-06 6.79016 7.98844e-06 6.41021 0.0177043C6.12499 0.027073 5.85427 0.0406067 5.58883 0.0624669C5.19528 0.0920782 4.80459 0.151233 4.4199 0.239431C4.22396 0.285545 4.0307 0.342539 3.8411 0.410148C3.64767 0.479177 3.4589 0.560538 3.27589 0.653732C2.14687 1.22899 1.22891 2.1469 0.653661 3.27592C0.490144 3.59912 0.362114 3.93906 0.271687 4.28981C0.205938 4.54478 0.155195 4.80338 0.11971 5.06429C0.0655802 5.45361 0.0385213 5.84605 0.0218659 6.26764C0.00521051 6.68923 0.00105073 7.13789 9.76905e-06 7.63963C-0.00164671 8.17012 0.207417 8.67954 0.581357 9.05582C0.955298 9.4321 1.46339 9.64442 1.99387 9.64608C2.52436 9.64774 3.03379 9.43859 3.41007 9.06465C3.78636 8.69071 3.99866 8.18261 4.00032 7.65212M3.50068 21.677C3.6853 21.4676 3.91153 21.2988 4.16487 21.1815C4.41753 21.0662 4.69129 21.0045 4.96898 21.0002C5.24666 20.9959 5.52218 21.0491 5.77829 21.1565C6.13639 21.3092 6.44268 21.5622 6.66003 21.8852C6.85089 22.1699 6.96564 22.4988 6.99334 22.8405C7.02103 23.1822 6.96074 23.5252 6.81823 23.837C6.70103 24.0907 6.53233 24.3172 6.32279 24.5022C5.92523 24.8532 5.68335 25.3478 5.65046 25.8771C5.61756 26.4065 5.79627 26.9272 6.1473 27.3247C6.49834 27.7223 6.993 27.9641 7.52233 27.997C8.05167 28.0299 8.57236 27.8512 8.96992 27.5001C9.58556 26.9583 10.0836 26.296 10.4333 25.5542C10.7829 24.8124 10.9768 24.0067 11.0029 23.187C11.029 22.3673 10.8869 21.551 10.5851 20.7884C10.2834 20.0258 9.82849 19.3332 9.24858 18.7533C8.66868 18.1734 7.97601 17.7185 7.21342 17.4168C6.45084 17.115 5.63454 16.9728 4.81484 16.9989C3.99514 17.025 3.18948 17.2189 2.44764 17.5686C1.70581 17.9182 1.04351 18.4163 0.501684 19.0319C0.327869 19.2288 0.194544 19.4579 0.10929 19.7063C0.0240369 19.9547 -0.0114491 20.2174 0.00483845 20.4795C0.021126 20.7416 0.0888631 20.998 0.204212 21.2339C0.319561 21.4698 0.480192 21.6807 0.677042 21.8545C0.873891 22.0283 1.10315 22.1616 1.35153 22.2469C1.59991 22.3321 1.86266 22.3676 2.12476 22.3514C2.38686 22.3351 2.64313 22.2673 2.87905 22.152C3.11496 22.0366 3.32584 21.8759 3.49966 21.6791L3.50068 21.677ZM0.0020429 20.3591C0.0020429 20.8047 0.00721416 21.2096 0.0197057 21.5896C0.0290744 21.8748 0.0425743 22.1454 0.0644345 22.4109C0.094038 22.8044 0.153238 23.1952 0.241444 23.5799C0.287514 23.7758 0.344574 23.9691 0.412227 24.1587C0.481335 24.352 0.562704 24.5408 0.655821 24.7239C1.23102 25.8529 2.14886 26.7709 3.27792 27.3461C3.60147 27.5096 3.94173 27.6377 4.29283 27.7281C4.54778 27.7939 4.80641 27.8447 5.06733 27.8801C5.45665 27.9342 5.8491 27.9613 6.27069 27.9769C6.69228 27.9925 7.14092 27.9977 7.64267 27.9988C8.17316 28.0004 8.68259 27.7913 9.05887 27.4173C9.43515 27.0434 9.64745 26.5353 9.64911 26.0048C9.65077 25.4743 9.4417 24.9649 9.06776 24.5886C8.69382 24.2123 8.18574 24 7.65525 23.9983C7.22637 23.9983 6.85472 23.9983 6.53931 23.9827C6.30267 23.9751 6.09753 23.964 5.92404 23.9494C5.72971 23.9361 5.53669 23.9086 5.34638 23.8672C5.29456 23.8552 5.24337 23.8402 5.19326 23.8224C5.15978 23.8106 5.12711 23.7967 5.09541 23.7808C4.71938 23.5892 4.41367 23.2834 4.22206 22.9074C4.18919 22.841 4.16371 22.7712 4.14607 22.6992C4.12027 22.5964 4.10045 22.4921 4.08672 22.3869C4.05862 22.1881 4.03787 21.9195 4.02433 21.5812C4.0108 21.2429 4.00659 20.8328 4.00451 20.3498C4.00369 20.0872 3.95112 19.8273 3.84987 19.585C3.74861 19.3427 3.60066 19.1227 3.41439 18.9376C3.22813 18.7525 3.00723 18.6059 2.7643 18.5062C2.52137 18.4064 2.26118 18.3555 1.99858 18.3563C1.73597 18.3571 1.47616 18.4097 1.23386 18.5109C0.991565 18.6122 0.771548 18.7602 0.58644 18.9464C0.401332 19.1327 0.254772 19.3536 0.155036 19.5965C0.0552999 19.8395 0.00439939 20.0997 0.00521966 20.3623L0.0020429 20.3591ZM7.64267 27.9988H12.0012C12.5317 27.9988 13.0405 27.788 13.4156 27.4129C13.7907 27.0378 14.0014 26.529 14.0014 25.9985C14.0014 25.4681 13.7907 24.9593 13.4156 24.5842C13.0405 24.2091 12.5317 23.9983 12.0012 23.9983H7.6541C7.12362 23.9967 6.61419 24.2058 6.2379 24.5798C5.86162 24.9537 5.64932 25.4618 5.64766 25.9923C5.646 26.5228 5.85519 27.0322 6.22913 27.4085C6.60308 27.7848 7.11218 27.9971 7.64267 27.9988ZM16.0016 13.9999H18.0013C18.0005 13.7328 18.0537 13.4684 18.1575 13.2223C18.3101 12.8642 18.5631 12.5579 18.8861 12.3406C19.162 12.1555 19.4795 12.0418 19.8102 12.0096C20.1408 11.9774 20.4742 12.0279 20.7806 12.1564C21.1387 12.309 21.445 12.5621 21.6624 12.885C21.8475 13.1609 21.9612 13.4784 21.9934 13.8091C22.0255 14.1397 21.9751 14.4732 21.8466 14.7796C21.694 15.1377 21.4409 15.4439 21.118 15.6613C20.8421 15.8464 20.5246 15.9601 20.1939 15.9923C19.8633 16.0245 19.5297 15.974 19.2234 15.8455C18.8653 15.6929 18.5591 15.4398 18.3418 15.1169C18.1185 14.7873 17.9998 14.398 18.0013 13.9999H14.0009C14.0029 15.5077 14.5743 16.9591 15.6008 18.0636C16.6274 19.168 18.0332 19.8439 19.5369 19.9559C21.0405 20.068 22.531 19.6079 23.7098 18.6678C24.8887 17.7277 25.6689 16.3771 25.8943 14.8862C26.1197 13.3953 25.7737 11.8743 24.9254 10.6278C24.0771 9.38118 22.7893 8.50103 21.3198 8.16355C19.8502 7.82606 18.3074 8.05614 17.0003 8.80772C15.6931 9.5593 14.7182 10.7769 14.2705 12.2167C14.0912 12.7941 14.0002 13.3953 14.0009 13.9999H16.0016Z" fill="#146394"/>
<path d="M22.0026 38.0005V25.9992C22.0026 25.4689 21.7919 24.9602 21.4169 24.5852C21.0419 24.2102 20.5332 23.9995 20.0029 23.9995C19.4725 23.9995 18.964 24.2102 18.589 24.5852C18.214 24.9602 18.0032 25.4689 18.0032 25.9992V37.9994C18.0032 38.5298 18.214 39.0384 18.589 39.4134C18.964 39.7884 19.4725 39.9991 20.0029 39.9991C20.5332 39.9991 21.0419 39.7884 21.4169 39.4134C21.7919 39.0384 22.0026 38.5298 22.0026 37.9994" fill="#FAA62E"/>
<path d="M21.4162 39.4148L26.4129 34.4182C26.7879 34.0431 26.9985 33.5345 26.9985 33.0041C26.9985 32.4736 26.7879 31.965 26.4129 31.5899C26.0378 31.2148 25.5291 31.0042 24.9987 31.0042C24.4683 31.0042 23.9596 31.2148 23.5845 31.5899L18.588 36.5865C18.2129 36.9616 18.0022 37.4703 18.0022 38.0007C18.0022 38.5311 18.2129 39.0398 18.588 39.4148C18.963 39.7899 19.4716 40.0006 20.002 40.0006C20.5324 40.0006 21.0411 39.7899 21.4162 39.4148Z" fill="#FAA62E"/>
<path d="M21.4175 36.5855L16.4208 31.5889C16.0458 31.2139 15.5371 31.0032 15.0067 31.0032C14.4763 31.0032 13.9676 31.2139 13.5925 31.5889C13.2174 31.964 13.0068 32.4727 13.0068 33.0031C13.0068 33.5335 13.2174 34.0422 13.5925 34.4172L18.5892 39.4138C18.9642 39.7889 19.4729 39.9996 20.0033 39.9996C20.5337 39.9996 21.0425 39.7889 21.4175 39.4138C21.7926 39.0388 22.0032 38.5301 22.0032 37.9997C22.0032 37.4693 21.7926 36.9606 21.4175 36.5855Z" fill="#FAA62E"/>
</svg>
