<svg width="8" height="8" viewBox="0 0 8 8" fill="none" xmlns="http://www.w3.org/2000/svg">
<path d="M6.92469 3.70898C6.53574 4.38138 5.94652 4.91554 5.2393 5.23686C4.91798 5.94408 4.38382 6.5333 3.71143 6.92225C4.22176 7.21575 4.79439 7.38412 5.38237 7.41355C5.97034 7.44299 6.55693 7.33264 7.09402 7.09157C7.30918 6.61093 7.42055 6.09031 7.42086 5.5637C7.42166 4.91256 7.2505 4.27275 6.92469 3.70898Z" fill="#004987"/>
<path d="M3.71142 6.92249C3.04016 6.53332 2.50733 5.94404 2.18749 5.2371C1.47997 4.91469 0.889786 4.38091 0.498161 3.70923C0.202458 4.22031 0.03317 4.79465 0.00440127 5.38441C-0.0243674 5.97417 0.0882166 6.56226 0.332774 7.09969C0.869186 7.34074 1.45513 7.45107 2.04248 7.42164C2.62982 7.3922 3.2018 7.22383 3.71142 6.93037M3.71142 0.495964C4.38283 0.886149 4.91665 1.47501 5.2393 2.18135C5.94652 2.50268 6.53574 3.03683 6.92469 3.70923C7.2505 3.14546 7.42166 2.50565 7.42086 1.85451C7.42055 1.32791 7.30918 0.807284 7.09402 0.326637C6.55692 0.0855676 5.97034 -0.0247741 5.38236 0.00465902C4.79439 0.0340921 4.22176 0.202462 3.71142 0.495964Z" fill="#004987"/>
<path d="M0.498113 3.70919C0.889737 3.03751 1.47993 2.50373 2.18744 2.18132C2.50728 1.47438 3.04011 0.885104 3.71138 0.495927C3.20175 0.202462 2.62977 0.0340956 2.04243 0.00466C1.45508 -0.0247757 0.869138 0.0855592 0.332725 0.3266C0.0894885 0.86299 -0.0223876 1.44963 0.00637483 2.0379C0.0351373 2.62616 0.203709 3.19909 0.498113 3.70919Z" fill="#004987"/>
</svg>
