<svg width="191" height="181" viewBox="0 0 191 181" fill="none" xmlns="http://www.w3.org/2000/svg">
<path d="M142.616 15.8175C132.733 10.1636 120.883 8.69562 109.903 11.844C96.5178 15.6821 85.5339 30.2616 81.9906 43.9524C71.7307 34.2196 54.6899 27.676 41.2004 31.5441C18.4642 38.2899 5.47186 62.0461 11.904 84.8723C14.0775 92.0576 18.2825 98.4341 23.8907 103.39L58.6078 93.4347L64.1604 71.3592C64.8309 69.3563 67.116 68.2483 69.119 68.9188C69.4927 69.038 69.8963 69.2618 70.33 69.5901L96.2488 94.0713L99.6737 81.5461L127.176 73.6601C130.701 72.536 134.453 74.1761 136.07 77.447C137.672 81.0616 136.152 85.232 132.568 86.9389C132.179 87.1634 131.866 87.2534 131.447 87.3733L111.161 93.1904L105.713 115.236C105.042 117.239 102.757 118.347 100.754 117.676C100.38 117.557 99.9768 117.333 99.5431 117.005L73.5943 92.4193L70.1694 104.944L38.2757 114.09C38.3956 114.508 38.7993 114.732 39.2175 114.612C48.398 120.58 99.0074 150.656 112.404 158.698C114.153 159.667 116.244 159.068 117.214 157.318C124.418 143.37 151.399 91.0451 155.917 81.1488C160.54 71.2225 167.16 55.6311 163.112 41.5142C159.963 30.5344 152.677 21.3068 142.616 15.8175Z" stroke="white" stroke-width="5.43919"/>
</svg>
