<svg width="39" height="40" viewBox="0 0 39 40" fill="none" xmlns="http://www.w3.org/2000/svg">
<path fill-rule="evenodd" clip-rule="evenodd" d="M8.42476 0.00021185C7.97401 0.0176216 7.54778 0.210318 7.23699 0.537262C6.9262 0.864207 6.75519 1.29957 6.76062 1.75062V3.37645H5.07939C3.73228 3.37645 2.44022 3.91159 1.48767 4.86414C0.535119 5.81669 0 7.10862 0 8.45573V32.1316C0 33.4787 0.535119 34.7706 1.48767 35.7232C2.44022 36.6757 3.73228 37.2109 5.07939 37.2109H18.5677C18.7129 37.2107 18.8554 37.1697 18.9785 37.0926C19.1015 37.0154 19.2005 36.9053 19.264 36.7747C19.3276 36.6441 19.353 36.4983 19.3377 36.3538C19.3224 36.2094 19.2668 36.0722 19.1773 35.9578L19.1517 35.9248C18.6434 35.2678 17.9905 34.7367 17.2437 34.373C16.4969 34.0092 15.6762 33.8225 14.8455 33.8274H5.07839C4.62862 33.8274 4.19708 33.6488 3.87905 33.3307C3.56102 33.0127 3.38232 32.5814 3.38232 32.1316V16.9185H30.4356C30.4352 17.4467 30.5437 17.9693 30.7541 18.4538C30.9646 18.9383 31.2725 19.3743 31.6588 19.7346C31.8156 19.886 32.0089 19.9942 32.2199 20.0486C32.4133 20.0915 32.6139 20.09 32.8066 20.0444C32.9994 19.9988 33.1793 19.9102 33.333 19.7853C33.4867 19.6603 33.6103 19.5022 33.6943 19.3228C33.7782 19.1433 33.8205 18.9473 33.8179 18.7492V8.46191C33.8179 7.1148 33.2828 5.82286 32.3303 4.87031C31.3777 3.91776 30.0859 3.38263 28.7388 3.38263H27.0613V1.75165C27.0668 1.3006 26.896 0.865237 26.5852 0.538292C26.2744 0.211348 25.8482 0.0186517 25.3975 0.00124192C25.1731 -0.00230829 24.9504 0.0387934 24.7421 0.122155C24.5338 0.205516 24.3442 0.329473 24.1843 0.48681C24.0244 0.644146 23.8972 0.83172 23.8105 1.03861C23.7237 1.24551 23.6791 1.46759 23.679 1.69193V3.37851H10.1575V1.6909C10.1574 1.46656 10.1128 1.24448 10.0261 1.03758C9.93931 0.83069 9.81218 0.643116 9.65225 0.48578C9.49233 0.328443 9.30272 0.204487 9.09444 0.121126C8.88616 0.0377643 8.66341 -0.00333836 8.43909 0.00021185M23.6893 8.39601V6.77019H10.1678V8.39601C10.1733 8.84707 10.0025 9.28243 9.69172 9.60937C9.38093 9.93632 8.9547 10.129 8.50395 10.1464C8.27963 10.15 8.05688 10.1089 7.8486 10.0255C7.64032 9.94215 7.45071 9.81819 7.29078 9.66085C7.13086 9.50352 7.00373 9.31595 6.91698 9.10905C6.83024 8.90216 6.78562 8.68008 6.78551 8.45573V6.77019H5.10403C4.65426 6.77019 4.22297 6.94885 3.90494 7.26689C3.58691 7.58492 3.40821 8.01626 3.40821 8.46603V13.5268H30.4613V8.46191C30.4613 8.01214 30.2826 7.5808 29.9645 7.26277C29.6465 6.94474 29.2152 6.76607 28.7655 6.76607H27.0613V8.45264C27.0612 8.67699 27.0166 8.89907 26.9299 9.10596C26.8431 9.31286 26.716 9.50043 26.5561 9.65777C26.3961 9.8151 26.2065 9.93906 25.9983 10.0224C25.79 10.1058 25.5672 10.1469 25.3429 10.1433C24.892 10.1262 24.4656 9.9336 24.1546 9.60663C23.8436 9.27966 23.6726 8.84415 23.678 8.39292" fill="#146394"/>
<path d="M34.6421 26.4985C35.5319 27.1329 36.1974 28.0333 36.543 29.07C36.8887 30.1067 36.8966 31.2264 36.5656 32.2679C36.2347 33.3094 35.5819 34.219 34.7012 34.866C33.8204 35.513 32.7571 35.8639 31.6642 35.8683H26.5026C26.2287 35.8683 25.9661 35.9771 25.7724 36.1708C25.5787 36.3645 25.47 36.6272 25.47 36.9011C25.47 37.175 25.5787 37.4376 25.7724 37.6313C25.9661 37.825 26.2287 37.9338 26.5026 37.9338H31.6705C33.2023 37.9301 34.6934 37.44 35.9287 36.5341C37.1639 35.6282 38.0792 34.3534 38.543 32.8935C39.0068 31.4336 38.995 29.8641 38.5091 28.4114C38.0232 26.9587 37.0885 25.6979 35.8397 24.8109C35.7291 24.7322 35.6041 24.6761 35.4719 24.6458C35.3397 24.6155 35.2027 24.6115 35.0689 24.634C34.9352 24.6566 34.8073 24.7053 34.6924 24.7773C34.5774 24.8493 34.4776 24.9433 34.399 25.0538C34.3204 25.1644 34.2644 25.2893 34.2341 25.4216C34.2038 25.5538 34.1997 25.6907 34.2223 25.8244C34.2448 25.9582 34.2935 26.0862 34.3656 26.2011C34.4376 26.3161 34.5315 26.4157 34.6421 26.4943" fill="#FAA62E"/>
<path d="M24.5029 34.9128C23.8184 34.4283 23.263 33.7835 22.8853 33.0348C22.4879 32.2483 22.2982 31.3733 22.3343 30.4929C22.3704 29.6125 22.6312 28.7559 23.0917 28.0047C23.5522 27.2535 24.1973 26.6326 24.9655 26.201C25.7337 25.7694 26.5994 25.5414 27.4805 25.5389H32.6424C32.9163 25.5389 33.179 25.4301 33.3727 25.2364C33.5663 25.0427 33.6751 24.78 33.6751 24.5061C33.6751 24.2322 33.5663 23.9695 33.3727 23.7759C33.179 23.5822 32.9163 23.4734 32.6424 23.4734H27.4745C25.9426 23.4768 24.4513 23.9668 23.2159 24.8726C21.9805 25.7784 21.065 27.0533 20.601 28.5132C20.1371 29.9732 20.1488 31.5428 20.6347 32.9956C21.1206 34.4483 22.0555 35.7092 23.3044 36.5963C23.5276 36.7551 23.8047 36.8187 24.0748 36.7732C24.345 36.7276 24.586 36.5766 24.7448 36.3533C24.9036 36.1301 24.9673 35.8529 24.9217 35.5828C24.8762 35.3126 24.7262 35.0716 24.5029 34.9128Z" fill="#FAA62E"/>
<path d="M29.2966 38.2363L27.958 36.8978L29.2966 35.5592C29.4904 35.3655 29.599 35.1027 29.599 34.8287C29.599 34.5547 29.4904 34.2919 29.2966 34.0981C29.1029 33.9044 28.8399 33.7955 28.5659 33.7955C28.2919 33.7955 28.0291 33.9044 27.8354 34.0981L25.769 36.1636C25.6727 36.2593 25.5962 36.3731 25.544 36.4985C25.4918 36.6239 25.4648 36.7584 25.4648 36.8942C25.4648 37.03 25.4918 37.1644 25.544 37.2898C25.5962 37.4152 25.6727 37.529 25.769 37.6247L27.8354 39.6902C28.0291 39.8839 28.2919 39.9928 28.5659 39.9928C28.8399 39.9928 29.1029 39.8839 29.2966 39.6902C29.4904 39.4964 29.599 39.2336 29.599 38.9596C29.599 38.6856 29.4904 38.4229 29.2966 38.2291" fill="#FAA62E"/>
<path d="M29.8493 23.1706L31.1879 24.5092L29.8493 25.8478C29.6555 26.0414 29.5465 26.304 29.5464 26.5779C29.5463 26.8518 29.6552 27.1146 29.8488 27.3083C30.0424 27.5021 30.3049 27.611 30.5788 27.6111C30.8527 27.6112 31.1156 27.5025 31.3093 27.3088L33.3759 25.2433C33.4723 25.1476 33.5487 25.0338 33.6009 24.9085C33.6531 24.7831 33.6798 24.6486 33.6798 24.5128C33.6798 24.377 33.6531 24.2425 33.6009 24.1172C33.5487 23.9918 33.4723 23.878 33.3759 23.7823L31.3093 21.7168C31.2134 21.6209 31.0995 21.5449 30.9742 21.493C30.8489 21.4412 30.7144 21.4145 30.5788 21.4146C30.4432 21.4146 30.3089 21.4413 30.1836 21.4933C30.0584 21.5452 29.9447 21.6214 29.8488 21.7173C29.7529 21.8132 29.6769 21.9271 29.6251 22.0524C29.5732 22.1777 29.5463 22.3121 29.5464 22.4477C29.5464 22.5833 29.5734 22.7176 29.6253 22.8429C29.6773 22.9682 29.7534 23.082 29.8493 23.1779" fill="#FAA62E"/>
</svg>
