<svg width="154" height="146" viewBox="0 0 154 146" fill="none" xmlns="http://www.w3.org/2000/svg">
<path d="M115.025 12.7574C106.97 8.22156 97.4965 7.01336 88.6409 9.55268C77.8454 12.6482 68.9264 24.5157 66.1287 35.4493C57.8537 27.5995 44.1096 22.3218 33.3141 25.4174C14.8921 30.8823 4.41327 50.0426 9.60104 68.4529C11.3541 74.2481 14.7455 79.391 19.2688 83.3879L47.2695 75.3588L51.7479 57.554C52.2887 55.9386 54.1317 55.045 55.7472 55.5858C56.0486 55.6819 56.3741 55.8624 56.7239 56.1272L77.6285 75.8722L80.3908 65.7701L102.572 59.4098C105.415 58.5032 108.442 59.826 109.746 62.4641C111.038 65.3794 109.812 68.743 106.921 70.1197C106.608 70.3007 106.355 70.3733 106.017 70.47L89.6555 75.1617L85.2615 92.9423C84.7207 94.5578 82.8776 95.4514 81.2622 94.9106C80.9608 94.8144 80.6352 94.634 80.2855 94.3692L59.3567 74.5398L56.5944 84.6418L30.8708 92.018C30.9676 92.3553 31.2931 92.5358 31.6305 92.4391C39.0349 97.2527 79.8534 121.51 90.658 127.996C92.0688 128.778 93.7556 128.294 94.5376 126.883C100.348 115.634 122.109 73.4315 125.753 65.4497C129.398 57.468 134.821 44.8687 131.556 33.4828C129.017 24.6272 123.056 17.2089 115.025 12.7574Z" stroke="white" stroke-width="4.38692"/>
</svg>
