<svg width="74" height="74" viewBox="0 0 74 74" fill="none" xmlns="http://www.w3.org/2000/svg">
<path d="M12.3843 18.3803L24.229 22.9427L37.2143 10.1329L18.526 10.8348C18.3506 10.8348 18.1751 10.9225 17.9996 11.098L12.1211 15.7481C11.5947 16.2746 11.4192 16.9765 11.6825 17.6784C11.8579 17.9416 12.0334 18.2048 12.3843 18.3803Z" stroke="white" stroke-width="2.63215"/>
<path d="M70.5549 3.99118L57.5697 0.218425C55.2885 -0.395743 52.8318 0.306166 51.2525 2.06093L12.0334 40.6658L2.6454 40.1394C1.24159 40.0517 0.0132497 41.5432 0.0132497 43.4735C-0.0744887 44.5263 0.27647 45.4915 0.978378 46.2811L10.1032 56.1078C10.3664 56.4588 10.8051 56.5465 11.156 56.371C13.7882 54.9672 23.5271 47.9481 35.0209 39.4375L37.3021 71.6375C37.3898 72.5149 37.9162 73.1291 38.5304 73.0413C38.7936 73.0413 38.9691 72.8658 39.1446 72.6904L44.3211 66.8996C44.5844 66.5487 44.8476 66.11 44.8476 65.6713L49.7609 28.5579C58.0084 22.3285 65.9048 16.3623 71.4323 12.0631C73.0116 10.9225 73.538 8.29036 72.7484 6.18464C72.3974 5.13178 71.6078 4.34213 70.5549 3.99118Z" stroke="white" stroke-width="2.63215"/>
</svg>
