<svg width="7" height="7" viewBox="0 0 7 7" fill="none" xmlns="http://www.w3.org/2000/svg">
<path d="M1.68933 4.74114C2.00805 5.44881 2.54116 6.03839 3.21327 6.42653C3.88566 6.03758 4.41982 5.44836 4.74114 4.74114C4.26129 4.9566 3.74125 5.068 3.21524 5.068C2.68923 5.068 2.16919 4.9566 1.68933 4.74114ZM4.74114 1.68539C4.4185 0.979044 3.88467 0.390185 3.21327 0C2.542 0.389177 2.00918 0.978452 1.68933 1.68539C2.16919 1.46993 2.68923 1.35853 3.21524 1.35853C3.74125 1.35853 4.26129 1.46993 4.74114 1.68539Z" fill="#002D5D"/>
<path d="M4.74114 1.68555C4.95669 2.16607 5.06813 2.68677 5.06813 3.21342C5.06813 3.74008 4.95669 4.26077 4.74114 4.7413C5.44836 4.41997 6.03758 3.88582 6.42653 3.21342C6.03758 2.54102 5.44836 2.00687 4.74114 1.68555ZM1.68933 1.68555C0.981813 2.00796 0.391624 2.54174 0 3.21342C0.391624 3.8851 0.981813 4.41889 1.68933 4.7413C1.47131 4.26144 1.35851 3.74048 1.35851 3.21342C1.35851 2.68636 1.47131 2.1654 1.68933 1.68555Z" fill="#002D5D"/>
</svg>
