<svg width="48" height="48" viewBox="0 0 48 48" fill="none" xmlns="http://www.w3.org/2000/svg">
<path d="M38 12V6C37.998 4.4093 37.3653 2.88431 36.2405 1.75952C35.1157 0.634723 33.5907 0.00195418 32 0H10C7.34873 0.00293192 4.8069 1.05744 2.93217 2.93217C1.05744 4.8069 0.00293192 7.34873 0 10L0 26C0.00293192 28.6513 1.05744 31.1931 2.93217 33.0678C4.8069 34.9426 7.34873 35.9971 10 36V38C10.0029 40.6513 11.0574 43.1931 12.9322 45.0678C14.8069 46.9426 17.3487 47.9971 20 48H38C40.6513 47.9971 43.1931 46.9426 45.0678 45.0678C46.9426 43.1931 47.9971 40.6513 48 38V22C47.9971 19.3487 46.9426 16.8069 45.0678 14.9322C43.1931 13.0574 40.6513 12.0029 38 12ZM20.4714 12L33.872 5.29969C33.9549 5.52381 33.9966 5.76106 33.9951 6V12H20.4714ZM4 26V10C4.00195 8.4093 4.63472 6.88431 5.75952 5.75952C6.88431 4.63472 8.4093 4.00195 10 4H27.5286L15.5286 10C13.8637 10.8256 12.4633 12.1011 11.4861 13.6819C10.509 15.2627 9.99415 17.0856 10 18.944V32C8.4093 31.998 6.88431 31.3653 5.75952 30.2405C4.63472 29.1157 4.00195 27.5907 4 26ZM44 38C43.998 39.5907 43.3653 41.1157 42.2405 42.2405C41.1157 43.3653 39.5907 43.998 38 44H20C18.4093 43.998 16.8843 43.3653 15.7595 42.2405C14.6347 41.1157 14.002 39.5907 14 38V18.944C13.9993 17.9129 14.2642 16.899 14.7692 16H38C39.5907 16.002 41.1157 16.6347 42.2405 17.7595C43.3653 18.8843 43.998 20.4093 44 22V38ZM40 24C40.0002 24.2627 39.9485 24.5228 39.8481 24.7656C39.7476 25.0083 39.6003 25.2288 39.4146 25.4146C39.2288 25.6003 39.0083 25.7476 38.7656 25.8481C38.5228 25.9485 38.2627 26.0002 38 26H32C31.4696 26 30.9609 25.7893 30.5858 25.4142C30.2107 25.0391 30 24.5304 30 24C30 23.4696 30.2107 22.9609 30.5858 22.5858C30.9609 22.2107 31.4696 22 32 22H38C38.2627 21.9998 38.5228 22.0515 38.7656 22.1519C39.0083 22.2524 39.2288 22.3997 39.4146 22.5854C39.6003 22.7712 39.7476 22.9917 39.8481 23.2344C39.9485 23.4772 40.0002 23.7373 40 24ZM26 22V26C25.9997 26.5303 25.7889 27.0389 25.4139 27.4139C25.0389 27.7889 24.5303 27.9997 24 28H20C19.4697 27.9997 18.9611 27.7889 18.5861 27.4139C18.2111 27.0389 18.0003 26.5303 18 26V22C18.0003 21.4697 18.2111 20.9611 18.5861 20.5861C18.9611 20.2111 19.4697 20.0003 20 20H24C24.5303 20.0003 25.0389 20.2111 25.4139 20.5861C25.7889 20.9611 25.9997 21.4697 26 22Z" fill="#146394"/>
<path d="M40 36C40.0002 36.2627 39.9485 36.5228 39.8481 36.7656C39.7476 37.0083 39.6003 37.2288 39.4146 37.4146C39.2288 37.6003 39.0083 37.7476 38.7656 37.8481C38.5228 37.9485 38.2627 38.0002 38 38H32C31.4696 38 30.9609 37.7893 30.5858 37.4142C30.2107 37.0391 30 36.5304 30 36C30 35.4696 30.2107 34.9609 30.5858 34.5858C30.9609 34.2107 31.4696 34 32 34H38C38.2627 33.9998 38.5228 34.0515 38.7656 34.1519C39.0083 34.2524 39.2288 34.3997 39.4146 34.5854C39.6003 34.7712 39.7476 34.9917 39.8481 35.2344C39.9485 35.4772 40.0002 35.7373 40 36ZM26 34V38C25.9997 38.5303 25.7889 39.0388 25.4139 39.4139C25.0389 39.7889 24.5303 39.9997 24 40H20C19.4697 39.9997 18.9611 39.7889 18.5861 39.4139C18.2111 39.0388 18.0003 38.5303 18 38V34C18.0003 33.4697 18.2111 32.9611 18.5861 32.5861C18.9611 32.2111 19.4697 32.0003 20 32H24C24.5303 32.0003 25.0389 32.2111 25.4139 32.5861C25.7889 32.9611 25.9997 33.4697 26 34Z" fill="#FAA62E"/>
</svg>
