<svg width="55" height="38" viewBox="0 0 55 38" fill="none" xmlns="http://www.w3.org/2000/svg">
<path d="M4.13074 26.3115H0V0.900742H4.13074V26.3115ZM11.3719 10.3796H7.24111V26.3115H11.3719V10.3796ZM11.4633 6.12222C11.4633 4.91185 10.4852 3.93371 9.27481 3.93371C8.06444 3.93371 7.0863 4.91185 7.0863 6.12222C7.0863 7.33259 8.06444 8.31074 9.27481 8.31074C10.4852 8.31074 11.4633 7.33259 11.4633 6.12222ZM39.8296 0C29.3022 0 25.3193 8.32482 23.8204 11.4633C23.7007 11.7096 23.5952 11.9278 23.5107 12.0896C23.4967 12.1107 23.4896 12.1389 23.4756 12.16L20.4074 19.0704L17.8811 10.3726H13.5674L18.0219 25.1715C18.2681 25.9948 19 26.5789 19.8515 26.6352C19.9007 26.6352 19.95 26.6422 19.9993 26.6422C20.8015 26.6422 21.5333 26.1778 21.8711 25.4459L27.2052 13.9333C27.3107 13.7293 27.4163 13.5041 27.543 13.2437C28.2115 11.8433 29.3374 9.49296 31.2867 7.55074C33.5948 5.24963 36.3815 4.13778 39.8226 4.13778C44.7204 4.13778 48.9707 6.93852 51.0748 11.013L54.2274 8.18408C51.3 3.2863 45.9378 0 39.8296 0ZM49.5478 16.8748V26.3115H45.417V24.8759C43.8337 25.9878 41.9126 26.6493 39.8296 26.6493C34.4604 26.6493 30.1115 22.2863 30.1115 16.903C30.1115 16.903 30.1115 16.8959 30.1115 16.8889V16.8819C30.1115 11.5267 34.4744 7.1637 39.8296 7.1637C45.1848 7.15667 49.5478 11.5196 49.5478 16.8748ZM34.2633 16.8819C34.2633 19.9641 36.7544 22.4622 39.8296 22.4622C42.9048 22.4622 45.3959 19.9641 45.3959 16.8819C45.3959 13.7996 42.9048 11.3015 39.8296 11.3015C36.7544 11.3015 34.2633 13.7996 34.2633 16.8819Z" fill="#FF6900"/>
<path d="M5.65075 35.5864C5.41853 35.5864 5.22853 35.509 5.08075 35.4175C4.91186 36.6208 3.8563 37.5427 2.5826 37.5427C1.17519 37.5427 0.0563033 36.4027 0.0563033 35.0375C0.0563033 34.7771 0.0211182 32.7364 0.0211182 32.1875H1.26667C1.27371 32.6801 1.28778 34.8475 1.28778 35.0445C1.29482 35.7693 1.8789 36.3534 2.57556 36.3534C3.2863 36.3534 3.87741 35.7623 3.86334 35.0375L3.82816 32.1804H5.09482L5.10186 33.7216C5.10186 34.2564 5.52408 34.4745 5.72816 34.4745H6.57964V35.5864H5.65075ZM2.0126 30.8223C2.0126 30.5408 2.24482 30.3086 2.5263 30.3086H2.56853C2.85001 30.3086 3.08223 30.5408 3.08223 30.8223C3.08223 31.1038 2.85001 31.336 2.56853 31.336H2.5263C2.24482 31.336 2.0126 31.1038 2.0126 30.8223Z" fill="#FF6900"/>
<path d="M9.85884 35.5865C9.37328 35.5865 9.07773 35.2839 8.93699 35.0587C8.68365 35.3965 8.25439 35.5865 7.82513 35.5865C7.3255 35.5935 6.91735 35.5865 6.41772 35.5865V34.4605C6.41772 34.4605 7.29735 34.4605 7.46624 34.4605C7.7055 34.4605 8.03624 34.3198 8.03624 34.0031L8.01513 33.0391H9.26772C9.27476 33.5246 9.27476 33.1798 9.28884 33.6583C9.29587 34.2213 9.71106 34.4535 9.92217 34.4535H10.7877V35.5865H9.85884ZM7.39587 36.818C7.39587 36.5294 7.6281 36.2972 7.91661 36.2972H7.9518C8.24032 36.2972 8.47254 36.5294 8.47254 36.818C8.47254 37.1065 8.24032 37.3387 7.9518 37.3387H7.91661C7.63513 37.3387 7.39587 37.1065 7.39587 36.818ZM8.92291 36.818C8.92291 36.5294 9.15513 36.2972 9.44365 36.2972H9.47884C9.76735 36.2972 9.99958 36.5294 9.99958 36.818C9.99958 37.1065 9.76735 37.3387 9.47884 37.3387H9.44365C9.15513 37.3387 8.92291 37.1065 8.92291 36.818Z" fill="#FF6900"/>
<path d="M13.3985 35.5863C12.4485 35.5863 11.583 35.5863 10.6189 35.5863V34.4604H11.6674C11.6041 34.2634 11.5759 34.0593 11.5759 33.8411C11.5759 32.8489 12.1952 32.0959 13.3915 32.0959C14.5948 32.0959 15.207 32.8489 15.207 33.8341C15.2211 34.8193 14.6019 35.5863 13.3985 35.5863ZM13.3985 33.0741C12.9341 33.0741 12.8004 33.4682 12.8004 33.8411C12.8004 34.2 12.9341 34.5941 13.3985 34.5941C13.8559 34.5941 13.9967 34.2 13.9967 33.8411C14.0037 33.4682 13.8559 33.0741 13.3985 33.0741Z" fill="#FF6900"/>
<path d="M17.5434 28.5705C17.5011 28.4368 17.4026 28.3805 17.3041 28.3805C17.2056 28.3805 17.1071 28.4508 17.1071 28.5775C17.1071 28.676 17.1704 28.8168 17.3604 28.8168H17.8108V29.4008H16.0093L16.2978 28.8168H16.6285C16.5371 28.6971 16.5371 28.5423 16.5371 28.4931C16.5371 28.1412 16.7904 27.8386 17.1704 27.8386C17.4237 27.8386 17.6419 27.9371 17.8178 28.1694C17.8108 28.1905 17.5434 28.5705 17.5434 28.5705ZM17.4941 35.5864C16.9452 35.5864 16.4245 35.1994 16.4174 34.4464L16.3822 29.7597H17.6278L17.6559 34.0594C17.6559 34.3127 17.7826 34.4253 17.9515 34.4605H18.9648V35.5864H17.4941Z" fill="#FF6900"/>
<path d="M22.237 35.5864C21.7515 35.5864 21.4559 35.2838 21.3152 35.0586C21.0618 35.3964 20.6326 35.5864 20.2033 35.5864C19.7037 35.5934 19.2955 35.5864 18.7959 35.5864V34.4604C18.7959 34.4604 19.6755 34.4604 19.8444 34.4604C20.0837 34.4604 20.4144 34.3197 20.4144 34.003L20.3933 33.039H21.6459C21.6529 33.5245 21.6529 33.1797 21.667 33.6582C21.674 34.2212 22.0892 34.4534 22.3003 34.4534H23.1518V35.5864H22.237ZM19.7107 30.956C19.7107 30.6604 19.9429 30.4282 20.2315 30.4282H20.2737C20.5622 30.4282 20.7944 30.6604 20.7944 30.949V30.956C20.7944 31.2445 20.5622 31.4767 20.2737 31.4767H20.2315C19.9429 31.4767 19.7107 31.2445 19.7107 30.956ZM21.2307 30.956C21.2307 30.6675 21.4629 30.4353 21.7515 30.4353H21.7937C22.0822 30.4353 22.3144 30.6675 22.3144 30.956C22.3144 31.2445 22.0822 31.4767 21.7937 31.4767H21.7515C21.47 31.4767 21.2307 31.2445 21.2307 30.956Z" fill="#FF6900"/>
<path d="M26.4382 35.5864C25.9526 35.5864 25.6571 35.2838 25.5163 35.0587C25.263 35.3964 24.8337 35.5864 24.4045 35.5864H22.9971V34.4605H24.0456C24.2848 34.4605 24.6156 34.3198 24.6156 34.0031L24.5945 29.7598H25.8471C25.8541 30.2453 25.8541 33.1798 25.8682 33.6653C25.8752 34.2283 26.2904 34.4605 26.5015 34.4605H27.353V35.5864H26.4382Z" fill="#FF6900"/>
<path d="M28.6126 35.5864H27.1981V34.4605H28.2678C28.5352 34.4605 28.7252 34.3268 28.7252 34.0312C28.7252 33.405 28.697 30.379 28.69 29.7598H29.9566C29.9637 30.7872 29.9848 33.4542 29.9848 34.3268C29.9777 35.0938 29.4992 35.5864 28.6126 35.5864Z" fill="#FF6900"/>
<path d="M34.2211 35.5864C33.6722 35.5864 33.1515 35.1994 33.1444 34.4464L33.1093 29.7598H34.3548L34.383 34.0594C34.383 34.3127 34.5096 34.4253 34.6785 34.4605H35.6918V35.5864H34.2211Z" fill="#FF6900"/>
<path d="M39.6818 35.5864C39.1611 35.5864 38.6615 35.4879 38.197 35.319C37.7396 35.4879 37.2541 35.5864 36.7333 35.5864H35.5229V34.4605H36.2478C36.48 34.4605 36.7052 34.4535 36.9092 34.4253C36.5433 34.0101 36.4096 33.5949 36.4096 33.2431C36.4096 32.2016 37.2681 31.6598 38.19 31.6598C39.1118 31.6598 39.9704 32.2087 39.9704 33.2431C39.9704 33.5949 39.8367 34.0101 39.4778 34.4253C39.7381 34.4675 39.9141 34.4605 40.1463 34.4605H40.8289V35.5864H39.6818ZM36.8952 30.4424C36.8952 30.1468 37.1274 29.9146 37.4159 29.9146H37.4581C37.7467 29.9146 37.9789 30.1468 37.9789 30.4353V30.4424C37.9789 30.7309 37.7467 30.9631 37.4581 30.9631H37.4159C37.1274 30.9631 36.8952 30.7309 36.8952 30.4424ZM38.19 32.5816C37.8311 32.5816 37.627 32.8561 37.627 33.2149C37.627 33.7709 38.1548 34.1086 38.19 34.1086C38.2322 34.1086 38.753 33.7779 38.753 33.2149C38.76 32.8631 38.5559 32.5816 38.19 32.5816ZM37.6552 29.042C37.6552 28.7535 37.8874 28.5212 38.1759 28.5212H38.2111C38.4996 28.5212 38.7318 28.7535 38.7318 29.042C38.7318 29.3305 38.4996 29.5627 38.2111 29.5627H38.1759C37.8874 29.5627 37.6552 29.3305 37.6552 29.042ZM38.4152 30.4424C38.4152 30.1468 38.6474 29.9146 38.9359 29.9146H38.9781C39.2667 29.9146 39.4989 30.1468 39.4989 30.4353V30.4424C39.4989 30.7309 39.2667 30.9631 38.9781 30.9631H38.9359C38.6474 30.9631 38.4152 30.7309 38.4152 30.4424Z" fill="#FF6900"/>
<path d="M40.6812 35.5864V34.4604H42.743V35.5864H40.6812Z" fill="#FF6900"/>
<path d="M46.0223 35.5865C45.5367 35.5865 45.2412 35.2839 45.1004 35.0587C44.8471 35.3965 44.4178 35.5865 43.9886 35.5865C43.489 35.5935 43.0808 35.5865 42.5812 35.5865V34.4605C42.5812 34.4605 43.4608 34.4605 43.6297 34.4605C43.869 34.4605 44.1997 34.3198 44.1997 34.0031L44.1786 33.0391H45.4312C45.4382 33.5246 45.4382 33.1798 45.4523 33.6583C45.4593 34.2213 45.8745 34.4535 46.0856 34.4535H46.9371V35.5865H46.0223ZM43.5593 36.818C43.5593 36.5294 43.7915 36.2972 44.0801 36.2972H44.1152C44.4038 36.2972 44.636 36.5294 44.636 36.818C44.636 37.1065 44.4038 37.3387 44.1152 37.3387H44.0801C43.7915 37.3387 43.5593 37.1065 43.5593 36.818ZM45.0793 36.818C45.0793 36.5294 45.3115 36.2972 45.6001 36.2972H45.6353C45.9238 36.2972 46.156 36.5294 46.156 36.818C46.156 37.1065 45.9238 37.3387 45.6353 37.3387H45.6001C45.3186 37.3387 45.0793 37.1065 45.0793 36.818Z" fill="#FF6900"/>
<path d="M48.1967 35.5864H46.7822V34.4605H47.8519C48.1193 34.4605 48.3093 34.3268 48.3093 34.0312C48.3093 33.405 48.2811 30.379 48.2741 29.7598H49.5407C49.5478 30.7872 49.5689 33.4542 49.5689 34.3268C49.5619 35.0938 49.0833 35.5864 48.1967 35.5864Z" fill="#FF6900"/>
</svg>
