<svg width="127" height="37" viewBox="0 0 127 37" fill="none" xmlns="http://www.w3.org/2000/svg">
<path d="M126.171 33.1429C126.171 35.2 124.571 36.8 122.514 36.8H3.65714C1.6 36.8 0 35.0857 0 33.1429V3.65714C0 1.6 1.6 0 3.65714 0H122.514C124.571 0 126.171 1.71429 126.171 3.65714V33.1429Z" stroke="white" stroke-width="1.13678"/>
<path d="M46.5143 24.5715H42.0571L40.9143 27.5429H38.9714L43.3143 16.3429H45.1429L49.6 27.5429H47.5429L46.5143 24.5715ZM42.5143 23.2H45.8286L44.6857 20C44.4571 19.5429 44.4571 19.0858 44.2286 18.5143C44 18.9715 44 19.4286 43.7714 20L42.5143 23.2Z" fill="white"/>
<path d="M50.5143 21.3714C50.5143 20.6857 50.5143 20 50.4 19.3143H52.2286C52.3429 19.6571 52.3429 20 52.3429 20.3429C52.9143 19.5429 53.8286 19.0857 54.8572 19.2C55.4286 19.2 56 19.4286 56.4572 19.6571C56.9143 20 57.3715 20.4571 57.6 20.9143C57.9429 21.6 58.0572 22.4 58.0572 23.2C58.0572 24.1143 57.9429 24.9143 57.6 25.7143C57.2572 26.2857 56.8 26.8571 56.2286 27.3143C55.6572 27.6571 54.9715 27.8857 54.1715 27.8857C53.6 27.8857 53.0286 27.7714 52.4572 27.6571V31.0857L50.6286 31.3143L50.5143 21.3714ZM55.4286 25.6C55.8857 24.9143 56 24.1143 56 23.3143C56 22.6286 55.8857 21.9429 55.5429 21.2571C54.9715 20.6857 53.9429 20.5714 53.2572 21.0286C52.9143 21.2571 52.5714 21.4857 52.3429 21.7143V26.1714C52.5714 26.2857 52.8 26.4 53.0286 26.4C53.2572 26.4 53.4857 26.5143 53.7143 26.5143C54.4 26.5143 55.0857 26.1714 55.4286 25.6Z" fill="white"/>
<path d="M59.2 21.3714C59.2 20.6857 59.2 20 59.0857 19.3143H60.8C60.9143 19.6571 60.9143 20 60.9143 20.3429C61.4857 19.5429 62.4 19.0857 63.4285 19.2C64 19.2 64.5714 19.4286 65.0286 19.6571C65.4857 20 65.9428 20.4571 66.1714 20.9143C66.5143 21.6 66.6285 22.4 66.6285 23.2C66.6285 24.1143 66.5143 24.9143 66.1714 25.7143C65.8286 26.2857 65.3714 26.8571 64.8 27.3143C64.2285 27.6571 63.4286 27.8857 62.7428 27.8857C62.1714 27.8857 61.6 27.7714 61.0286 27.6571V31.0857L59.2 31.3143V21.3714ZM64.2285 25.6C64.6857 24.9143 64.8 24.1143 64.8 23.3143C64.8 22.6286 64.6857 21.9429 64.3428 21.2571C64 20.8 63.5428 20.5714 63.0857 20.5714C62.7428 20.5714 62.4 20.6857 62.0571 20.8C61.7143 21.0286 61.3714 21.2571 61.1428 21.4857V25.9429C61.3714 26.0571 61.6 26.1714 61.8286 26.1714C62.0571 26.1714 62.2857 26.2857 62.5143 26.2857C63.2 26.4 63.8857 26.1714 64.2285 25.6Z" fill="white"/>
<path d="M70.4 27.0858C69.6 26.6286 68.9143 25.9429 68.5715 25.1429C68.1143 24.2286 67.8857 23.2 67.8857 22.1715C67.8857 21.0286 68.1143 20 68.5715 18.9715C69.0286 18.1715 69.8286 17.4858 70.6286 17.0286C71.5429 16.5715 72.5715 16.3429 73.6 16.3429C74.1715 16.3429 74.8572 16.4572 75.4286 16.5715C76 16.6858 76.5715 16.9143 77.1429 17.1429L76.6857 18.6286C75.7715 18.1715 74.8572 17.9429 73.8286 17.9429C73.1429 17.9429 72.4572 18.0572 71.7715 18.4C71.2 18.7429 70.7429 19.3143 70.4 19.8858C70.0572 20.5715 69.9429 21.3715 69.9429 22.1715C69.9429 22.8572 70.0572 23.6572 70.2857 24.3429C70.5143 24.9143 70.9715 25.4858 71.4286 25.8286C72 26.1715 72.8 26.4 73.4857 26.4C73.8286 26.4 74.2857 26.4 74.6286 26.2858C74.9715 26.1715 75.3143 26.0572 75.6572 26.0572V23.7715H73.0286V22.2858H77.4857V26.9715C76.2286 27.5429 74.7429 27.7715 73.3715 27.8858C72.3429 27.7715 71.3143 27.5429 70.4 27.0858Z" fill="white"/>
<path d="M84.2286 27.6571C84.1143 27.3142 84.1143 26.9714 84.1143 26.5142C83.7715 26.8571 83.4286 27.1999 82.9715 27.4285C82.5143 27.6571 81.9429 27.7714 81.3715 27.7714C80.9143 27.7714 80.4572 27.6571 80.1143 27.5428C79.7715 27.3142 79.4286 27.0857 79.2 26.7428C78.9715 26.2857 78.8572 25.8285 78.8572 25.3714C78.8572 24.5714 79.0857 23.8857 79.6572 23.4285C80.5715 22.8571 81.4857 22.6285 82.5143 22.7428C82.9715 22.7428 83.5429 22.7428 84 22.8571V22.6285C84 22.0571 83.8857 21.4857 83.5429 21.0285C83.2 20.6857 82.7429 20.5714 82.2857 20.5714C81.8286 20.5714 81.3715 20.6857 81.0286 20.8C80.5715 20.9142 80.2286 21.0285 79.8857 21.2571L79.6572 19.8857C80.1143 19.6571 80.4572 19.5428 80.9143 19.4285C81.4857 19.3142 82.0572 19.2 82.6286 19.2C83.3143 19.2 83.8857 19.3142 84.4572 19.5428C85.0286 19.7714 85.3715 20.1142 85.6 20.6857C85.9429 21.3714 86.0572 22.0571 86.0572 22.8571V26.1714C86.0572 26.7428 86.0572 27.2 86.1715 27.7714L84.2286 27.6571ZM83.0857 26.1714C83.4286 25.9428 83.7715 25.7142 84 25.4857V23.8857C83.5429 23.7714 83.0857 23.7714 82.7429 23.7714C82.1715 23.7714 81.6 23.8857 81.0286 24.1142C80.6857 24.3428 80.5715 24.6857 80.5715 25.1428C80.5715 25.4857 80.6857 25.8285 80.9143 26.0571C81.1429 26.2857 81.4857 26.3999 81.8286 26.2857C82.4 26.3999 82.7429 26.2857 83.0857 26.1714Z" fill="white"/>
<path d="M87.6572 25.7142V15.8857L89.4858 15.6571V25.2571C89.4858 25.4857 89.6 25.7142 89.7143 25.9428C89.8286 26.1714 89.9429 26.1714 90.2858 26.1714C90.4 26.1714 90.6286 26.1714 90.7429 26.0571L90.9715 27.4285L90.2858 27.6571C90.0572 27.6571 89.8286 27.7714 89.6 27.7714C88.2286 27.7714 87.5429 27.0857 87.6572 25.7142Z" fill="white"/>
<path d="M92.3429 25.7142V15.8857L94.1715 15.6571V25.2571C94.1715 25.4857 94.2858 25.7142 94.4 25.9428C94.5143 26.1714 94.6286 26.1714 94.9715 26.1714C95.0858 26.1714 95.3143 26.1714 95.4286 26.0571L95.6572 27.4285L94.9715 27.6571C94.7429 27.6571 94.5143 27.7714 94.2858 27.7714C93.0286 27.7714 92.3429 27.0857 92.3429 25.7142Z" fill="white"/>
<path d="M103.543 23.6572H98.1714C98.2857 25.3715 99.0857 26.2858 100.686 26.2858C101.143 26.2858 101.486 26.1715 101.829 26.0572C102.286 25.9429 102.629 25.8286 102.971 25.7143L103.314 26.9715C102.286 27.4286 101.257 27.6572 100.114 27.6572C99.3143 27.6572 98.6286 27.5429 97.8286 27.2001C97.2571 26.8572 96.8 26.4001 96.4571 25.8286C96.1143 25.1429 96 24.3429 96 23.5429C96 22.7429 96.1143 21.9429 96.4571 21.2572C96.6857 20.5715 97.2571 20.1143 97.8286 19.7715C98.9714 19.0858 100.571 19.0858 101.714 19.7715C102.286 20.1143 102.629 20.6858 102.857 21.2572C103.086 21.9429 103.314 22.6286 103.2 23.3143L103.543 23.6572ZM101.714 22.5143C101.714 21.9429 101.6 21.4858 101.257 21.0286C100.914 20.6858 100.457 20.4572 100.114 20.5715C99.6571 20.5715 99.2 20.6858 98.9714 21.0286C98.6286 21.4858 98.4 21.9429 98.2857 22.5143H101.714Z" fill="white"/>
<path d="M105.143 21.3714C105.143 20.6857 105.143 20 105.029 19.3143H106.743C106.743 19.5429 106.857 19.7714 106.857 20.1143C106.857 20.3429 106.971 20.6857 106.971 20.8C107.2 20.4572 107.314 20.1143 107.657 19.8857C107.886 19.6571 108.114 19.4286 108.343 19.2C108.571 18.9714 108.914 18.9714 109.257 18.9714C109.486 18.9714 109.714 18.9714 109.943 19.0857L109.714 20.8C109.6 20.6857 109.371 20.6857 109.143 20.6857C108.686 20.6857 108.343 20.8 108 21.0286C107.543 21.3714 107.2 21.7143 106.971 22.1714V27.5429H105.143V21.3714Z" fill="white"/>
<path d="M111.314 31.0857L110.629 30.8571L110.971 29.4857L111.429 29.6C111.657 29.6 111.771 29.7143 112 29.7143C112.914 29.6 113.714 29.0286 113.829 28.1143L113.943 27.8857L110.857 19.5428H112.914L114.514 24.2286C114.743 24.8 114.857 25.4857 114.971 26.0571C115.2 25.4857 115.2 24.9143 115.429 24.3428L117.029 19.6571H118.971L115.886 28C115.657 28.6857 115.314 29.3714 114.971 29.9428C114.629 30.4 114.286 30.7428 113.829 31.0857C113.371 31.3143 112.8 31.4286 112.114 31.4286C111.886 31.0857 111.657 31.0857 111.314 31.0857Z" fill="white"/>
<path d="M38.9714 5.59998H42.4L42.2857 6.39998H40V7.99998H42.2857V8.68569H40V10.5143H42.4L42.2857 11.3143H38.9714V5.59998Z" fill="white"/>
<path d="M44.6858 8.45712L42.8572 5.59998H44L45.1429 7.7714L46.5143 5.59998H47.6572L45.9429 8.34283L47.8858 11.3143H46.7429L45.3715 9.02855L44 11.3143H42.8572L44.6858 8.45712Z" fill="white"/>
<path d="M48.5714 5.59998H50.1714C50.7428 5.59998 51.3143 5.71426 51.8857 6.05712C52.2286 6.39998 52.4571 6.85712 52.4571 7.31426C52.4571 7.65712 52.3428 7.99998 52.2286 8.34283C52 8.5714 51.7714 8.79998 51.5428 9.02855C51.2 9.14283 50.8571 9.25712 50.4 9.25712C50.1714 9.25712 49.9428 9.25712 49.7143 9.14283V11.4285H48.6857L48.5714 5.59998ZM50.9714 8.11426C51.2 7.88569 51.3143 7.54283 51.2 7.31426C51.2 6.9714 51.0857 6.62855 50.8571 6.62855C50.6286 6.39998 50.2857 6.28569 49.9428 6.39998H49.3714V8.45712C49.6 8.45712 49.7143 8.45712 49.9428 8.5714C50.5143 8.5714 50.8571 8.45712 50.9714 8.11426Z" fill="white"/>
<path d="M53.3715 5.59998H54.4V10.5143H56.8L56.6857 11.4285H53.3715V5.59998Z" fill="white"/>
<path d="M58.2857 11.0857C57.8286 10.8571 57.4857 10.5143 57.3714 10.0571C57.1428 9.6 57.0286 9.02858 57.0286 8.45715C57.0286 7.88572 57.1428 7.31429 57.3714 6.85715C57.6 6.4 57.9429 6.05715 58.4 5.82858C58.8571 5.6 59.4286 5.48572 60 5.48572C60.5714 5.48572 61.0286 5.6 61.4857 5.82858C61.9428 6.05715 62.2857 6.4 62.4 6.85715C62.6286 7.31429 62.7429 7.77143 62.7429 8.34286C62.7429 8.91429 62.6286 9.48572 62.4 10.0571C62.1714 10.5143 61.8286 10.8571 61.3714 11.0857C60.9143 11.3143 60.3428 11.5429 59.7714 11.4286C59.2 11.5429 58.7428 11.4286 58.2857 11.0857ZM61.0286 10.4C61.2571 10.1714 61.4857 9.94286 61.7143 9.71429C61.8286 9.37143 61.8286 9.02857 61.9428 8.57143C61.9428 8.22857 61.8286 7.77143 61.7143 7.42858C61.6 7.08572 61.4857 6.85715 61.1428 6.74286C60.4571 6.4 59.7714 6.4 59.0857 6.74286C58.7428 6.97143 58.6286 7.2 58.4 7.54286C58.2857 7.88572 58.1714 8.22858 58.1714 8.68572C58.1714 9.02858 58.2857 9.48572 58.4 9.82858C58.5143 10.1714 58.7428 10.4 59.0857 10.5143C59.4286 10.7429 59.7714 10.7429 60.1143 10.7429C60.3429 10.6286 60.6857 10.5143 61.0286 10.4Z" fill="white"/>
<path d="M64 5.59998H65.8286C66.4 5.48569 66.8571 5.71426 67.3143 5.94284C67.6571 6.17141 67.8857 6.62855 67.8857 7.08569C67.8857 7.31426 67.7714 7.65712 67.6571 7.88569C67.5429 8.11426 67.4286 8.34284 67.2 8.45712C67.0857 8.57141 66.8571 8.68569 66.6286 8.79998L68.3429 11.4285H67.2L65.7143 9.14284H65.0286V11.4285H64V5.59998ZM65.4857 8.34284C65.7143 8.34284 65.9429 8.22855 66.1714 8.11426C66.4 7.99998 66.5143 7.88569 66.6286 7.77141C66.7429 7.54284 66.7429 7.42855 66.8571 7.19998C66.8571 6.97141 66.7429 6.74284 66.6286 6.51426C66.4 6.39998 66.0571 6.28569 65.8286 6.28569H65.1429V8.22855L65.4857 8.34284Z" fill="white"/>
<path d="M69.1428 5.59998H72.5714L72.4571 6.39998H70.1714V7.99998H72.4571V8.68569H70.1714V10.5143H72.5714L72.4571 11.4285H69.1428V5.59998Z" fill="white"/>
<path d="M77.3715 5.59998H76.3429V11.4285H77.3715V5.59998Z" fill="white"/>
<path d="M80.0001 6.51423H78.2858L78.4001 5.71423H82.9715L82.8572 6.51423H81.1429V11.5428H80.0001V6.51423Z" fill="white"/>
<path d="M87.2 11.0857C86.7429 10.8571 86.4 10.5143 86.2857 10.0571C86.0572 9.6 85.9429 9.02858 85.9429 8.45715C85.9429 7.88572 86.0572 7.31429 86.2857 6.85715C86.5143 6.4 86.8572 6.05715 87.3143 5.82858C87.7714 5.6 88.3429 5.48572 88.9143 5.48572C89.4857 5.48572 89.9429 5.6 90.4 5.82858C90.7429 6.17143 91.0857 6.51429 91.3143 6.97143C91.5429 7.42858 91.6572 7.88572 91.6572 8.45715C91.6572 9.02858 91.5429 9.6 91.3143 10.1714C91.0857 10.6286 90.7429 10.9714 90.2857 11.2C89.8286 11.4286 89.2572 11.6571 88.6857 11.5429C88.2286 11.5429 87.6572 11.4286 87.2 11.0857ZM89.8286 10.4C90.0572 10.1714 90.2857 9.94286 90.5143 9.71429C90.6286 9.37143 90.6286 9.02857 90.7429 8.57143C90.7429 8.22857 90.6286 7.77143 90.5143 7.42858C90.4 7.08572 90.2857 6.85715 89.9429 6.74286C89.2572 6.4 88.5714 6.4 87.8857 6.74286C87.5429 6.97143 87.4286 7.2 87.2 7.54286C87.0857 7.88572 86.9714 8.22857 86.9714 8.68572C86.9714 9.02857 87.0857 9.48572 87.2 9.82857C87.3143 10.1714 87.5429 10.4 87.8857 10.5143C88.2286 10.7429 88.5714 10.7429 88.9143 10.7429C89.2572 10.7429 89.6 10.5143 89.8286 10.4Z" fill="white"/>
<path d="M92.8 5.59998H93.9429L96.8 10.0571V5.59998H97.7143V11.4285H96.5715L93.7143 6.85712V11.4285H92.8V5.59998Z" fill="white"/>
<path fill-rule="evenodd" clip-rule="evenodd" d="M24.7999 5.59998H14.0571C9.02852 5.59998 7.19995 7.42855 7.19995 12.4571V23.2C7.19995 28.2285 9.02852 30.0571 14.0571 30.0571H24.7999C29.8285 30.0571 31.6571 28.2285 31.6571 23.2V12.4571C31.6571 7.42855 29.8285 5.59998 24.7999 5.59998Z" fill="white"/>
<path d="M11.8857 17.8285H12.5714V21.1428H11.8857V19.8857H10.5143V21.1428H9.94287V17.8285H10.6286V19.0857H12.1143L11.8857 17.8285ZM15.6572 19.6571C15.6572 20.2285 15.4286 20.4571 14.9714 20.4571C14.5143 20.4571 14.2857 20.2285 14.2857 19.6571V17.8285H13.6V19.6571C13.4857 20.3428 13.9429 20.9142 14.6286 21.0285C14.7429 21.0285 14.8572 21.0285 14.9714 21.0285C15.6572 21.0285 16.3429 20.4571 16.3429 19.7714C16.3429 19.6571 16.3429 19.6571 16.3429 19.5428V17.8285H15.6572V19.6571ZM23.2 20.1142L22.5143 17.8285H21.9429L21.2572 20.1142L20.5714 17.8285H19.8857L21.0286 21.1428H21.6L22.2857 18.9714L22.9714 21.1428H23.5429L24.6857 17.8285H24L23.2 20.1142ZM25.7143 19.6571H26.8572V19.0857H25.7143V18.3999H27.4286V17.7142H25.1429V20.9142H27.5429V20.3428H25.8286L25.7143 19.6571ZM28.3429 21.0285H29.0286V17.8285H28.3429V21.0285ZM17.6 20.3428L17.3714 21.0285H16.6857L18.0572 17.8285H18.6286L20 21.0285H19.3143L19.0857 20.3428H17.6ZM17.8286 19.7714H18.8572L18.4 18.6285L17.8286 19.7714Z" fill="#146394"/>
<path d="M19.4286 13.7143C17.1429 13.7143 15.3143 11.8857 15.3143 9.59998H15.8858C15.8858 11.5428 17.4858 13.1428 19.4286 13.1428C21.2572 13.1428 22.7429 11.6571 22.9715 9.82855V9.71426H23.5429C23.4286 11.8857 21.6 13.7143 19.4286 13.7143Z" fill="#146394"/>
</svg>
