<svg width="56" height="6" viewBox="0 0 56 6" fill="none" xmlns="http://www.w3.org/2000/svg">
<path d="M4.70514 4.27246H4.31135C4.2096 4.28089 4.10722 4.26697 4.0114 4.2317C3.91558 4.19643 3.82862 4.14065 3.75661 4.06826C3.68459 3.99587 3.62927 3.90863 3.59449 3.81262C3.55972 3.71662 3.54634 3.61418 3.55529 3.51246V2.45712H3.004C2.57871 2.45712 2.46452 2.4335 2.46452 2.6107C2.46452 3.02811 2.52752 3.14624 2.8583 3.15018H3.28358V3.4849C3.29162 3.77517 3.18722 4.05732 2.99218 4.27246C2.89831 4.38466 2.78319 4.47721 2.65344 4.54479C2.52369 4.61237 2.38187 4.65364 2.23612 4.66624H1.44856C1.24318 4.68066 1.03718 4.64888 0.845701 4.57324C0.654217 4.4976 0.482112 4.38002 0.342029 4.22914C0.0977669 3.89895 -0.0221574 3.49316 0.00337599 3.08324V2.13422H0.50348V3.0478C0.50348 3.83536 0.86576 4.28034 1.51944 4.2764H2.12586C2.21484 4.26452 2.30037 4.23423 2.37699 4.18744C2.4536 4.14066 2.51963 4.07842 2.57084 4.00469C2.67192 3.88232 2.73003 3.73013 2.73623 3.57153C2.6168 3.57526 2.49788 3.55447 2.38681 3.51045C2.27573 3.46643 2.17486 3.4001 2.09042 3.31557C1.90928 3.14231 1.92503 2.92179 1.92503 2.59889C1.92503 2.22873 2.07861 2.1106 2.39757 2.1106H4.06327V3.39433C4.06327 3.67785 4.18928 3.81567 4.43343 3.81173H4.69332L4.70514 4.27246Z" fill="#00609C"/>
<path d="M5.83527 1.28768C5.83526 1.34937 5.81691 1.40967 5.78255 1.46091C5.74819 1.51215 5.69937 1.55202 5.6423 1.57544C5.58523 1.59887 5.52248 1.60479 5.46203 1.59247C5.40158 1.58014 5.34616 1.55012 5.30281 1.50622C5.25946 1.46232 5.23015 1.40652 5.2186 1.34592C5.20704 1.28532 5.21377 1.22265 5.23792 1.16588C5.26207 1.1091 5.30255 1.0608 5.35423 1.02709C5.4059 0.993387 5.46643 0.975808 5.52812 0.976589C5.56894 0.976045 5.60945 0.98375 5.64722 0.999241C5.68499 1.01473 5.71924 1.03769 5.74792 1.06674C5.77661 1.09579 5.79913 1.13033 5.81414 1.1683C5.82914 1.20626 5.83633 1.24687 5.83527 1.28768ZM6.11485 3.52436C6.12321 3.62473 6.1096 3.72571 6.07495 3.82028C6.04031 3.91485 5.98547 4.00073 5.91425 4.07195C5.84304 4.14316 5.75715 4.198 5.66259 4.23265C5.56802 4.26729 5.46703 4.28091 5.36667 4.27255H4.5791V3.80788H5.23672C5.48874 3.80788 5.6305 3.674 5.6305 3.4141V2.89825L5.53993 2.24457L6.11485 2.10675V3.52436ZM8.03257 3.94177V2.40602H7.76086C7.36708 2.40602 7.11506 2.7368 7.11506 3.2684C7.11506 3.80001 7.27651 4.0284 7.59154 4.0284C7.74396 4.02747 7.89487 3.99809 8.03651 3.94177M8.53662 4.05203C8.55399 4.37237 8.45152 4.68772 8.24916 4.93666C8.0468 5.18561 7.75904 5.35033 7.4419 5.39877L7.33164 5.18612C7.53448 5.13597 7.71413 5.01808 7.84087 4.85196C7.96761 4.68584 8.03385 4.48143 8.02864 4.27255C7.85157 4.32873 7.66705 4.35794 7.48128 4.35918C7.35835 4.35979 7.23698 4.33162 7.12689 4.27692C7.0168 4.22222 6.92105 4.1425 6.84729 4.04415C6.68538 3.84425 6.60143 3.59242 6.61102 3.33535C6.6025 3.02118 6.70576 2.71418 6.90242 2.46903C7.00594 2.34888 7.13493 2.25331 7.28002 2.18928C7.42511 2.12525 7.58265 2.09437 7.74117 2.09887H8.52874L8.53662 4.05203ZM11.3207 4.27255H9.94636C9.84189 4.28152 9.73673 4.26707 9.63855 4.23025C9.54037 4.19343 9.45164 4.13518 9.37883 4.05973C9.30602 3.98427 9.25096 3.89353 9.21766 3.7941C9.18436 3.69467 9.17367 3.58907 9.18636 3.48498V1.76022L9.09579 1.12229L9.69433 0.980527V3.39441C9.69433 3.67794 9.81641 3.81576 10.0606 3.81576H11.3167L11.3207 4.27255Z" fill="#00609C"/>
<path d="M13.7779 2.88238C13.7667 2.82502 13.7428 2.77088 13.7081 2.72389C13.6733 2.67689 13.6286 2.63821 13.577 2.61066C13.4085 2.51407 13.2159 2.46762 13.0218 2.47678C12.8286 2.46823 12.637 2.51611 12.4705 2.6146C12.4189 2.64265 12.3735 2.68082 12.3369 2.72683C12.3004 2.77284 12.2735 2.82574 12.2579 2.88238L13.0218 3.603L13.7779 2.88238ZM14.7781 4.2488H13.5455C13.3612 4.24001 13.1805 4.19449 13.0139 4.11491C12.9769 4.15379 12.9323 4.18467 12.8828 4.20567C12.8334 4.22666 12.7802 4.23732 12.7265 4.23699C12.6303 4.25588 12.5313 4.25588 12.4351 4.23699H10.1945V3.79989H12.3603C12.4253 3.79981 12.4901 3.79188 12.5532 3.77626C12.4351 3.67781 12.1594 3.41004 11.7026 2.9887C11.7103 2.85596 11.7501 2.72708 11.8188 2.61319C11.8874 2.49931 11.9827 2.40383 12.0964 2.33502C12.3683 2.13995 12.6951 2.03651 13.0297 2.03968C13.3661 2.03224 13.6955 2.13606 13.9669 2.33502C14.0806 2.40295 14.1759 2.49768 14.2446 2.61094C14.3132 2.7242 14.3531 2.85254 14.3607 2.98476L13.5062 3.77232C13.5742 3.78027 13.6429 3.78027 13.7109 3.77232H14.7781V4.2488Z" fill="#00609C"/>
<path d="M15.928 1.26806C15.9283 1.35056 15.8959 1.42984 15.8378 1.48843C15.7797 1.54703 15.7008 1.58016 15.6183 1.58053C15.5358 1.58089 15.4565 1.54847 15.3979 1.49038C15.3393 1.4323 15.3062 1.35332 15.3058 1.27082C15.3051 1.18851 15.337 1.10927 15.3945 1.05045C15.4521 0.991621 15.5306 0.95801 15.6129 0.956971C15.6546 0.954743 15.6962 0.961232 15.7352 0.976024C15.7741 0.990817 15.8096 1.01359 15.8392 1.04287C15.8689 1.07216 15.8921 1.10732 15.9074 1.14609C15.9227 1.18487 15.9297 1.22641 15.928 1.26806ZM15.1089 1.26806C15.1089 1.30873 15.1008 1.34899 15.0852 1.38652C15.0695 1.42404 15.0465 1.45808 15.0176 1.48665C14.9886 1.51522 14.9543 1.53777 14.9166 1.55297C14.8788 1.56817 14.8385 1.57573 14.7978 1.57521C14.7568 1.57632 14.7161 1.569 14.6781 1.55371C14.64 1.53842 14.6055 1.51548 14.5767 1.48631C14.5479 1.45714 14.5254 1.42237 14.5106 1.38415C14.4958 1.34593 14.489 1.30508 14.4907 1.26412C14.4917 1.18298 14.5244 1.10544 14.5818 1.04806C14.6391 0.99068 14.7167 0.957992 14.7978 0.956971C14.839 0.955888 14.8799 0.963194 14.9181 0.978444C14.9564 0.993694 14.9911 1.01657 15.0202 1.04567C15.0493 1.07478 15.0722 1.10951 15.0874 1.14774C15.1027 1.18597 15.11 1.22691 15.1089 1.26806ZM16.4478 4.24505H16.054C15.8791 4.2508 15.7073 4.19815 15.5657 4.09542C15.4226 4.19852 15.2498 4.25241 15.0735 4.24899H14.467V3.7922H14.9396C15.1916 3.7922 15.3334 3.65832 15.3334 3.39842V2.89044L15.227 2.22495L15.8335 2.08713V3.38267C15.8335 3.65438 15.9555 3.77645 16.2036 3.77645H16.4675L16.4478 4.24505Z" fill="#00609C"/>
<path d="M18.0189 3.48491C18.0284 3.58694 18.0155 3.68982 17.981 3.78631C17.9465 3.88281 17.8913 3.97056 17.8192 4.04339C17.7471 4.11623 17.6599 4.17237 17.5638 4.20787C17.4677 4.24337 17.3649 4.25735 17.2628 4.24885H16.3059V3.78812H17.1407C17.3927 3.78812 17.5345 3.6503 17.5345 3.37071V1.74045L17.4479 1.06315L18.0425 0.921387L18.0189 3.48491ZM19.2238 0.937138L19.1687 1.61838L19.1726 4.24097H18.6686L18.6607 1.62626L18.5859 0.98833L19.2238 0.937138ZM22.3268 2.83911C22.3318 2.88263 22.3274 2.9267 22.3141 2.96844C22.3009 3.01018 22.2789 3.04864 22.2497 3.0813C22.2205 3.11397 22.1848 3.1401 22.1448 3.158C22.1048 3.17589 22.0615 3.18514 22.0177 3.18514C21.9739 3.18514 21.9306 3.17589 21.8906 3.158C21.8507 3.1401 21.8149 3.11397 21.7857 3.0813C21.7565 3.04864 21.7346 3.01018 21.7213 2.96844C21.708 2.9267 21.7037 2.88263 21.7086 2.83911C21.7086 2.75765 21.741 2.67952 21.7986 2.62192C21.8562 2.56432 21.9343 2.53196 22.0158 2.53196C22.0569 2.53087 22.0978 2.53818 22.1361 2.55343C22.1743 2.56868 22.209 2.59155 22.2381 2.62066C22.2672 2.64977 22.2901 2.68449 22.3054 2.72273C22.3206 2.76096 22.3279 2.8019 22.3268 2.84304M24.3784 4.23703H23.7838C23.6908 4.23766 23.5981 4.22574 23.5082 4.20159C23.4517 4.55524 23.2628 4.87414 22.9798 5.09355C22.6967 5.31296 22.3408 5.41643 21.9843 5.38294C21.7783 5.39853 21.5715 5.3661 21.3801 5.2882C21.1888 5.2103 21.0182 5.08907 20.8817 4.93403C20.6348 4.60347 20.5134 4.19596 20.5391 3.78418V2.82729H21.0392V3.74087C21.0392 4.52843 21.433 5.04035 22.0551 5.03641C22.1852 5.03767 22.3138 5.00924 22.4311 4.95328C22.5485 4.89732 22.6515 4.81532 22.7324 4.71351C22.9392 4.44768 23.044 4.11663 23.0278 3.78025V2.89424L22.9293 2.22087L23.5279 2.07517V3.25652C23.5279 3.59911 23.6539 3.76843 23.9217 3.76843H24.3903L24.3784 4.23703Z" fill="#00609C"/>
<path d="M25.5481 5.06004C25.5461 5.14154 25.5125 5.21908 25.4545 5.27636C25.3965 5.33364 25.3185 5.3662 25.237 5.36719C25.196 5.3683 25.1553 5.36099 25.1172 5.3457C25.0792 5.3304 25.0447 5.30746 25.0159 5.2783C24.9871 5.24913 24.9646 5.21436 24.9498 5.17614C24.935 5.13792 24.9282 5.09706 24.9299 5.0561C24.9293 5.01562 24.9369 4.97544 24.9522 4.93794C24.9674 4.90044 24.99 4.86637 25.0186 4.83774C25.0473 4.80911 25.0813 4.78651 25.1188 4.77126C25.1564 4.75601 25.1965 4.74843 25.237 4.74895C25.3195 4.74895 25.3986 4.78173 25.457 4.84007C25.5153 4.89841 25.5481 4.97754 25.5481 5.06004ZM26.1151 4.23704H25.7214C25.542 4.24433 25.3656 4.19014 25.2213 4.08346C25.0786 4.18797 24.9059 4.24325 24.729 4.24098H24.1226V3.77237H24.6227C24.8747 3.77237 25.0165 3.63849 25.0165 3.37859V2.83911L24.9141 2.18149L25.5205 2.04761V3.36678C25.5205 3.6293 25.6518 3.76056 25.9143 3.76056H26.1663L26.1151 4.23704ZM24.733 5.06004C24.7345 5.12265 24.7174 5.1843 24.6838 5.23713C24.6501 5.28995 24.6015 5.33155 24.5441 5.35661C24.4867 5.38167 24.4232 5.38906 24.3615 5.37783C24.2999 5.3666 24.2431 5.33726 24.1982 5.29356C24.1533 5.24984 24.1225 5.19374 24.1097 5.13242C24.0969 5.0711 24.1026 5.00735 24.1262 4.94931C24.1498 4.89127 24.1902 4.84159 24.2421 4.8066C24.2941 4.77161 24.3553 4.75291 24.4179 4.75289C24.4588 4.75237 24.4994 4.7599 24.5373 4.77506C24.5752 4.79021 24.6098 4.81269 24.6391 4.84122C24.6683 4.86974 24.6917 4.90374 24.7078 4.94129C24.7239 4.97884 24.7325 5.01919 24.733 5.06004Z" fill="#00609C"/>
<path d="M28.0486 2.65016L28.0052 2.35482C27.9199 2.32812 27.8307 2.31614 27.7414 2.31938C27.3122 2.31938 27.0956 2.58715 27.0956 3.10694C27.0956 3.53617 27.2452 3.75275 27.5406 3.74881C27.9029 3.74881 28.084 3.52041 28.084 3.06363C28.0819 2.91992 28.0701 2.77651 28.0486 2.6344M28.5841 2.06342L28.5369 2.59896V3.30777C28.5369 3.90632 28.1431 4.20953 27.3909 4.20953H25.9655V3.7685H26.753C26.6533 3.60329 26.6002 3.41412 26.5994 3.22114C26.5884 3.05297 26.6134 2.88438 26.6729 2.72669C26.7323 2.569 26.8249 2.42586 26.9442 2.30687C27.0636 2.18789 27.207 2.09582 27.3649 2.03685C27.5227 1.97788 27.6914 1.95337 27.8595 1.96497C28.108 1.96602 28.355 2.00452 28.592 2.07917M30.3955 4.22135H30.0017C29.8998 4.22969 29.7973 4.21575 29.7013 4.1805C29.6053 4.14526 29.5181 4.08955 29.4458 4.01724C29.3735 3.94493 29.3178 3.85776 29.2826 3.76177C29.2473 3.66578 29.2334 3.56326 29.2417 3.46135V1.72477L29.1551 1.06715L29.7536 0.929327V3.34321C29.7536 3.6228 29.8797 3.76062 30.1238 3.76062H30.3994L30.3955 4.22135ZM29.919 0.677305H28.8676V0.48829H29.0527C29.0527 0.208705 29.2023 0 29.4465 0C29.5569 0.00187612 29.6642 0.0376138 29.7536 0.102384L29.6906 0.263834C29.6433 0.209196 29.5773 0.174109 29.5056 0.165389C29.3638 0.165389 29.2929 0.275648 29.2929 0.48829H29.541H29.734L29.919 0.677305Z" fill="#00609C"/>
<path d="M30.2467 3.76453L32.129 3.76099L32.1298 4.22171L30.2475 4.22526L30.2467 3.76453Z" fill="#00609C"/>
<path d="M33.4512 1.23638C33.4426 1.31235 33.4064 1.38249 33.3494 1.43343C33.2923 1.48436 33.2186 1.51252 33.1421 1.51252C33.0657 1.51252 32.9919 1.48436 32.9349 1.43343C32.8778 1.38249 32.8416 1.31235 32.833 1.23638C32.834 1.15523 32.8667 1.0777 32.9241 1.02032C32.9815 0.962935 33.059 0.930247 33.1401 0.929226C33.1815 0.928682 33.2225 0.936488 33.2607 0.952177C33.299 0.967867 33.3337 0.991116 33.3627 1.02053C33.3918 1.04995 33.4146 1.08492 33.4298 1.12337C33.445 1.16181 33.4523 1.20292 33.4512 1.24425M32.6361 1.24425C32.6365 1.32676 32.604 1.40603 32.546 1.46463C32.4879 1.52323 32.4089 1.55635 32.3264 1.55672C32.2439 1.55708 32.1646 1.52466 32.106 1.46658C32.0474 1.40849 32.0143 1.32951 32.0139 1.24701C32.0132 1.1647 32.0451 1.08546 32.1027 1.02664C32.1602 0.967814 32.2388 0.934202 32.3211 0.933163C32.3624 0.932099 32.4035 0.93939 32.442 0.954597C32.4804 0.969803 32.5154 0.992614 32.5448 1.02166C32.5742 1.05071 32.5975 1.0854 32.6131 1.12365C32.6288 1.16189 32.6366 1.20291 32.6361 1.24425ZM33.975 4.22125H33.5812C33.4023 4.22967 33.2259 4.17689 33.0811 4.07161C32.9399 4.17574 32.7681 4.22979 32.5928 4.22518H31.9824V3.75658H32.455C32.703 3.75658 32.8487 3.6227 32.8487 3.3628V2.85482L32.7385 2.19327L33.3488 2.0515V3.35099C33.3488 3.6227 33.4749 3.74477 33.719 3.74477H33.9868L33.975 4.22125Z" fill="#00609C"/>
<path d="M35.7864 4.20962H35.4478C35.265 4.22001 35.0846 4.16408 34.9398 4.05211C34.8035 4.16323 34.6312 4.22065 34.4555 4.21356H33.8293V3.75283H34.3216C34.5657 3.75283 34.6878 3.61501 34.6878 3.33542V1.76029L34.5893 1.07511L35.1997 0.93335V3.34724C35.1997 3.63076 35.3218 3.76858 35.5659 3.76858H35.7864V4.20962Z" fill="#00609C"/>
<path d="M37.3615 3.44557C37.3705 3.5478 37.357 3.65075 37.322 3.74723C37.287 3.84371 37.2314 3.93139 37.159 4.00414C37.0867 4.0769 36.9993 4.13297 36.903 4.16844C36.8067 4.20391 36.7038 4.21793 36.6015 4.20951H35.6486V3.74878H36.4794C36.7315 3.74878 36.8732 3.61096 36.8732 3.33138V1.70505L36.7866 1.02775L37.3851 0.885986L37.3615 3.44557ZM40.496 1.2207C40.496 1.26137 40.4879 1.30164 40.4723 1.33916C40.4566 1.37668 40.4336 1.41072 40.4047 1.43929C40.3757 1.46787 40.3414 1.49041 40.3037 1.50561C40.266 1.52081 40.2256 1.52837 40.1849 1.52785C40.1434 1.5289 40.1021 1.52163 40.0635 1.50647C40.0248 1.49131 39.9896 1.46856 39.9599 1.43957C39.9301 1.41058 39.9065 1.37592 39.8904 1.33766C39.8743 1.29939 39.866 1.25829 39.866 1.21676C39.866 1.13321 39.8992 1.05309 39.9582 0.994007C40.0173 0.934928 40.0974 0.901737 40.181 0.901737C40.2645 0.901737 40.3447 0.934928 40.4038 0.994007C40.4628 1.05309 40.496 1.13321 40.496 1.21676M40.2873 3.02816C40.2873 2.48474 40.1141 2.21303 39.7675 2.21303C39.3974 2.21303 39.2162 2.48868 39.2162 3.02816C39.2162 3.56764 39.3934 3.85117 39.7478 3.85117C40.1022 3.85117 40.2873 3.57158 40.2873 3.02816ZM39.6809 1.2207C39.6788 1.30288 39.6447 1.381 39.5859 1.43838C39.527 1.49577 39.4481 1.52788 39.3659 1.52785C39.3043 1.52707 39.2444 1.50806 39.1937 1.47323C39.143 1.4384 39.1038 1.38931 39.0809 1.33218C39.0581 1.27504 39.0527 1.21242 39.0655 1.15224C39.0783 1.09205 39.1086 1.037 39.1527 0.99405C39.1967 0.951099 39.2525 0.922175 39.313 0.910936C39.3735 0.899696 39.436 0.906645 39.4925 0.930905C39.549 0.955165 39.5971 0.995647 39.6306 1.04723C39.6642 1.09881 39.6817 1.15918 39.6809 1.2207ZM40.8347 3.02422C40.8467 3.33549 40.7397 3.63965 40.5354 3.87479C40.4345 3.98134 40.3121 4.06523 40.1763 4.1209C40.0405 4.17656 39.8945 4.20274 39.7478 4.1977C39.6025 4.20654 39.457 4.18405 39.3211 4.13173C39.1852 4.07942 39.0622 3.99851 38.9603 3.89448C38.7621 3.66583 38.6592 3.36983 38.6728 3.06754C38.6577 2.75242 38.7617 2.44316 38.9642 2.20122C39.0679 2.08911 39.1951 2.00131 39.3367 1.94413C39.4783 1.88694 39.6308 1.86178 39.7833 1.87044C40.4409 1.87044 40.8347 2.29573 40.8347 3.02422ZM43.6108 4.19376H41.3269L41.4608 3.73303H42.7366V3.62671V3.09117C42.745 2.88394 42.693 2.67875 42.587 2.50049C42.5479 2.44119 42.4947 2.39252 42.4322 2.35884C42.3696 2.32517 42.2997 2.30754 42.2287 2.30754C42.1741 2.30693 42.1202 2.31907 42.0711 2.34298C42.0711 2.29179 42.0712 2.19334 42.0436 2.05552C42.0965 2.0528 42.1491 2.04622 42.2011 2.03583C42.3431 2.02945 42.4846 2.05557 42.615 2.11221C42.7453 2.16886 42.861 2.25452 42.9532 2.36267C43.148 2.58891 43.2518 2.87938 43.2446 3.1778V3.73303H43.5754L43.6108 4.19376Z" fill="#00609C"/>
<path d="M43.4916 3.74295L44.3933 3.74138L44.3941 4.2021L43.4924 4.20368L43.4916 3.74295ZM48.7655 1.20503C48.7655 1.26655 48.7473 1.3267 48.7131 1.37786C48.6789 1.42902 48.6303 1.46889 48.5735 1.49244C48.5166 1.51598 48.4541 1.52214 48.3937 1.51014C48.3334 1.49813 48.2779 1.46851 48.2344 1.425C48.1909 1.38149 48.1613 1.32606 48.1493 1.26572C48.1373 1.20537 48.1435 1.14282 48.167 1.08598C48.1905 1.02913 48.2304 0.980549 48.2816 0.946367C48.3327 0.912184 48.3929 0.893939 48.4544 0.893939C48.4956 0.892856 48.5365 0.900161 48.5747 0.915412C48.613 0.930662 48.6477 0.953536 48.6768 0.982642C48.7059 1.01175 48.7288 1.04648 48.744 1.08471C48.7593 1.12294 48.7666 1.16388 48.7655 1.20503ZM47.9464 1.20503C47.9464 1.24552 47.9384 1.2856 47.9226 1.32291C47.9069 1.36022 47.8839 1.394 47.8549 1.42226C47.8259 1.45053 47.7915 1.47269 47.7538 1.48746C47.7161 1.50223 47.6758 1.50929 47.6353 1.50824C47.5944 1.50935 47.5536 1.50203 47.5156 1.48674C47.4775 1.47145 47.4431 1.44851 47.4143 1.41934C47.3855 1.39017 47.363 1.3554 47.3482 1.31718C47.3334 1.27896 47.3266 1.23811 47.3282 1.19715C47.3292 1.11601 47.3619 1.03847 47.4193 0.981092C47.4767 0.92371 47.5542 0.891022 47.6353 0.890001C47.6768 0.888891 47.7181 0.89631 47.7566 0.9118C47.7951 0.927291 47.83 0.950522 47.8592 0.980054C47.8884 1.00959 47.9112 1.04479 47.9262 1.08349C47.9412 1.12219 47.9481 1.16355 47.9464 1.20503ZM49.2892 4.18202H48.8954C48.7161 4.18931 48.5397 4.13513 48.3953 4.02845C48.2531 4.13342 48.0798 4.18751 47.9031 4.18202H47.3046V3.72917H47.7732C48.0252 3.72917 48.1669 3.59529 48.1669 3.33539V2.82741L48.0606 2.16192L48.671 2.02409V3.31964C48.671 3.59135 48.7931 3.71342 49.0411 3.71342H49.3089L49.2892 4.18202Z" fill="#00609C"/>
<path d="M51.3408 3.81973V2.88253L51.2975 2.59507C51.2182 2.57227 51.1358 2.56165 51.0533 2.56357C50.6281 2.56357 50.4154 2.8274 50.4154 3.35113C50.4154 3.77642 50.6005 4.03238 50.8446 4.03238C50.9386 4.03036 51.0311 4.00905 51.1165 3.96976C51.2018 3.93047 51.2782 3.87404 51.3408 3.80398M52.471 4.16232H52.1047C51.9293 4.17202 51.7566 4.11585 51.6204 4.00481C51.5136 4.14369 51.3765 4.25633 51.2195 4.33413C51.0625 4.41193 50.8899 4.45284 50.7147 4.45372C50.5798 4.45586 50.447 4.42008 50.3314 4.35046C50.2159 4.28085 50.1222 4.18019 50.061 4.05994C49.9402 4.12523 49.8045 4.15781 49.6672 4.15445H49.1356V3.72523H49.5294C49.576 3.73217 49.6236 3.72831 49.6684 3.71393C49.7133 3.69956 49.7543 3.67505 49.7881 3.64231C49.822 3.60958 49.8479 3.56948 49.8638 3.52514C49.8797 3.48079 49.8852 3.43338 49.8799 3.38657C49.8756 3.22173 49.9066 3.05786 49.9707 2.90596C50.0349 2.75405 50.1308 2.6176 50.2519 2.50575C50.3731 2.3939 50.5168 2.30923 50.6733 2.2574C50.8299 2.20557 50.9957 2.18778 51.1597 2.20523C51.4107 2.20655 51.6602 2.24503 51.9 2.31942L51.837 2.85103V3.31175C51.837 3.58346 51.963 3.70554 52.2307 3.70554H52.4788L52.471 4.16232Z" fill="#00609C"/>
<path d="M54.05 3.41408C54.0597 3.51646 54.0467 3.61972 54.012 3.71652C53.9772 3.81332 53.9216 3.90129 53.8491 3.9742C53.7766 4.0471 53.6889 4.10315 53.5923 4.13838C53.4957 4.1736 53.3925 4.18713 53.29 4.17801H52.3332V3.72123H53.164C53.4161 3.72123 53.5578 3.5834 53.5578 3.30382V1.67356L53.4712 0.996254L54.0697 0.854492L54.05 3.41408ZM55.2511 0.870243L55.1959 1.55149L55.1999 4.17408H54.6958L54.6919 1.55542L54.6132 0.921435L55.2511 0.870243ZM1.68092 5.09947C1.68145 5.13995 1.67387 5.18013 1.65862 5.21763C1.64337 5.25513 1.62077 5.28921 1.59214 5.31783C1.56351 5.34646 1.52944 5.36907 1.49194 5.38431C1.45443 5.39956 1.41425 5.40715 1.37377 5.40662C1.33278 5.4082 1.29189 5.40155 1.25351 5.38707C1.21513 5.37259 1.18005 5.35057 1.15032 5.32231C1.12059 5.29405 1.09682 5.26012 1.08041 5.22252C1.06401 5.18492 1.0553 5.14442 1.05481 5.1034C1.05481 5.0617 1.06308 5.02041 1.07916 4.98193C1.09524 4.94345 1.1188 4.90855 1.14847 4.87924C1.17814 4.84994 1.21333 4.82682 1.25201 4.81122C1.29068 4.79562 1.33207 4.78786 1.37377 4.78838C1.45559 4.78941 1.53371 4.82265 1.5912 4.88087C1.6487 4.9391 1.68093 5.01764 1.68092 5.09947ZM2.49211 5.09947C2.48452 5.16651 2.45534 5.22927 2.40897 5.27828C2.36259 5.32729 2.30154 5.35989 2.23502 5.37117C2.1685 5.38245 2.10011 5.3718 2.04017 5.34083C1.98023 5.30985 1.93199 5.26022 1.90272 5.19943C1.87344 5.13864 1.86473 5.06998 1.87789 5.0038C1.89104 4.93763 1.92536 4.87752 1.97566 4.83255C2.02596 4.78758 2.08952 4.76018 2.15675 4.75449C2.22398 4.74879 2.29124 4.76511 2.34838 4.80098C2.39803 4.83214 2.43786 4.87669 2.46329 4.9295C2.48872 4.98231 2.49871 5.04123 2.49211 5.09947ZM47.34 4.18983V3.7291H46.6745V3.17781C46.6797 2.87851 46.5762 2.58749 46.3831 2.35874C46.2962 2.25816 46.1885 2.17758 46.0676 2.12252C45.9466 2.06747 45.8151 2.03924 45.6822 2.03978H44.5008V2.33511H45.6822C45.7597 2.33814 45.8355 2.35887 45.9037 2.39573C45.972 2.43259 46.0309 2.4846 46.0759 2.54776C46.1607 2.71545 46.191 2.90543 46.1626 3.09118V3.62672V3.73698H44.2842L44.1504 4.1977H46.6745V4.04019C46.818 4.14818 46.9954 4.20125 47.1746 4.18983H47.34Z" fill="#00609C"/>
</svg>
