<svg width="36" height="40" viewBox="0 0 36 40" fill="none" xmlns="http://www.w3.org/2000/svg">
<path d="M28.8513 8.51814L29.4557 7.91488L22.0002 0.460307L21.9829 0.445211C21.6714 0.16659 21.2705 0.00866045 20.8526 2.87371e-07H20.8345C20.6153 2.87371e-07 20.3982 0.0431971 20.1957 0.127072C19.9933 0.210947 19.8094 0.333878 19.6544 0.488859C19.4994 0.64384 19.3762 0.827866 19.2923 1.03036C19.2085 1.23285 19.1655 1.44982 19.1655 1.669V7.59011H20.0193L19.1655 7.57613C19.1655 7.58473 19.1655 7.59765 19.1655 7.61486C19.1658 8.42149 19.484 9.19545 20.0513 9.76884C20.6187 10.3422 21.3892 10.6687 22.1958 10.6775H28.1514C28.594 10.6775 29.0185 10.5017 29.3315 10.1887C29.6445 9.87572 29.8204 9.45116 29.8204 9.00851H28.9676L29.6266 9.5462C29.6954 9.46407 29.7535 9.37336 29.7989 9.27631C29.8629 9.13774 29.8964 8.98697 29.8968 8.83431C29.8963 8.72484 29.8791 8.61609 29.8461 8.51171C29.8058 8.38745 29.7462 8.27026 29.6697 8.16436C29.6086 8.07897 29.541 7.99843 29.4675 7.92348L29.4589 7.91488L28.8547 8.51814L28.2407 9.11071C28.26 9.13114 28.2718 9.14513 28.275 9.14943L28.3341 9.10421L28.2729 9.14727L28.332 9.10211L28.2706 9.1451L28.6051 8.91281L28.2265 9.058C28.2379 9.08858 28.2527 9.11779 28.2706 9.1451L28.6051 8.91281L28.2265 9.058L28.8096 8.83431H28.1858C28.1855 8.91066 28.1999 8.98644 28.2265 9.058L28.8083 8.83431H28.8322L28.2428 8.56442C28.2046 8.6493 28.1859 8.74125 28.1858 8.83431H28.8298L28.2407 8.56442L28.6599 8.75686L28.3018 8.46222C28.2774 8.49369 28.2569 8.52802 28.2407 8.56442L28.6599 8.75686L28.3018 8.46222L28.1083 8.69884V9.00529H28.1459L28.1191 8.97838L28.1083 9.00529H28.1459V8.96769L28.1191 8.97838L28.1459 9.00529V8.96769H22.2097C21.8526 8.96372 21.5116 8.81912 21.2604 8.56527C21.0091 8.31142 20.8681 7.96873 20.8679 7.61157V1.66578H20.8301L20.8571 1.69269L20.8679 1.66578H20.8301V1.70346L20.8571 1.69269L20.8301 1.66578V0.850646L20.8119 1.70451L20.8398 1.71527L21.4098 1.07867L20.8054 1.68193L28.2438 9.11931L28.8471 8.51598L28.233 9.10854L28.8513 8.51814ZM29.0805 14.4392H29.9343C29.9339 14.3829 29.928 14.3267 29.917 14.2715C29.917 14.2446 29.9073 14.2284 29.9052 14.2209L29.0826 14.4425L29.917 14.2736C29.9095 14.2381 29.9052 14.222 29.9052 14.2209L29.0826 14.4425L29.917 14.2736L29.0805 14.4425H29.9333C29.9334 14.3857 29.9286 14.3291 29.917 14.2736L29.0805 14.4425H29.9333C29.9334 14.1784 29.8804 13.9169 29.7794 13.6728C29.6785 13.4288 29.5305 13.207 29.3439 13.0201C29.1572 12.8333 28.9356 12.6851 28.6917 12.5839C28.4478 12.4827 28.1863 12.4305 27.9222 12.4304H20.0183C19.3513 12.4301 18.7118 12.165 18.2403 11.6933C17.7688 11.2216 17.5039 10.582 17.5039 9.91508V2.01208C17.504 1.74781 17.4521 1.48608 17.3511 1.2419C17.25 0.997728 17.1018 0.775884 16.915 0.58902C16.7281 0.402156 16.5062 0.253997 16.262 0.152933C16.0179 0.0518681 15.7563 -0.000141069 15.492 2.87371e-07H4.22067C3.10457 -1.14492e-05 2.0339 0.442045 1.24289 1.22943C0.451873 2.01682 0.00511857 3.08548 1.37035e-07 4.20157V31.2905C-0.000141149 31.845 0.108969 32.394 0.321093 32.9063C0.533216 33.4186 0.843989 33.8841 1.23606 34.2762C1.62814 34.6682 2.09373 34.9792 2.60602 35.1913C3.11832 35.4035 3.66751 35.5126 4.22199 35.5124H15.7372C16.0081 35.5167 16.2776 35.4727 16.533 35.3823C16.7311 35.3099 16.9136 35.2005 17.0707 35.0597C17.1875 34.955 17.2881 34.8336 17.3695 34.6995C17.4814 34.512 17.5607 34.3069 17.6039 34.0929C17.6449 33.8912 17.6643 33.6858 17.6619 33.48C17.6609 33.2982 17.6501 33.1165 17.6296 32.9358C17.5884 32.558 17.5681 32.1782 17.5685 31.7981C17.5685 29.3991 18.389 27.0723 19.8936 25.2038L19.2288 24.6661L19.8741 25.221C20.4771 24.5248 21.1961 23.9383 21.9992 23.4875C23.0553 22.9011 24.1985 22.488 25.3855 22.2637C25.8121 22.1792 26.2428 22.1168 26.6759 22.0766C27.0222 22.0444 27.2739 22.0379 27.3782 22.0379C27.5503 22.0379 27.7665 22.0379 28.0031 22.0218C28.1942 22.009 28.3839 21.9813 28.5707 21.9389C28.7307 21.9023 28.8865 21.8491 29.0354 21.7798C29.1622 21.7204 29.2814 21.6464 29.3911 21.5593C29.5785 21.4098 29.7292 21.2192 29.8312 21.0023C29.9356 20.7736 29.9885 20.5247 29.9861 20.2732C29.986 20.196 29.9815 20.1187 29.9729 20.042L29.1246 20.1312L29.9784 20.1237L29.9301 14.4306V14.4381H29.0761L28.2223 14.4457L28.2719 20.1796V20.2205C28.2719 20.2434 28.2719 20.2606 28.2719 20.2721C28.2719 20.2871 28.2719 20.2957 28.2719 20.2979L28.3998 20.3291L28.2921 20.2571C28.2837 20.2691 28.2777 20.2826 28.274 20.2968L28.4019 20.328L28.2945 20.2559L28.4116 20.3323L28.3202 20.2248C28.3102 20.2335 28.3016 20.2447 28.2945 20.2559L28.4116 20.3312L28.3202 20.2248L28.3546 20.2646L28.3223 20.2215L28.3567 20.2624L28.3244 20.2194C28.2978 20.2346 28.2693 20.2462 28.2396 20.2538C28.1188 20.2866 27.9947 20.306 27.8697 20.3119C27.7159 20.3226 27.547 20.3237 27.3782 20.3237C27.2707 20.3237 27.1019 20.3237 26.8836 20.3409C25.6247 20.4245 24.3823 20.6736 23.1885 21.0818C22.3563 21.365 21.5582 21.7405 20.8096 22.2013C19.9706 22.7171 19.2166 23.3595 18.574 24.1058L18.5653 24.1155L18.5577 24.1252C17.5495 25.3764 16.7982 26.8143 16.3468 28.3565C15.8955 29.8987 15.7531 31.5148 15.9276 33.1122C15.9414 33.2321 15.9489 33.3528 15.9501 33.4735C15.9523 33.57 15.9428 33.6664 15.922 33.7607C15.9184 33.7734 15.9141 33.786 15.9092 33.7983V33.8037L15.9501 33.8262L15.9134 33.7972V33.8026L15.9543 33.8252L15.9178 33.7961L16.0061 33.8639L15.9404 33.7746L15.9178 33.7961L16.0061 33.8639L15.9404 33.7746L15.9877 33.8392L15.9467 33.7693H15.9404L15.9877 33.8338L15.9467 33.7639L15.9672 33.7994L15.9488 33.7639C15.9336 33.77 15.9178 33.7743 15.9016 33.7768C15.8487 33.7862 15.7951 33.7905 15.7414 33.7897H4.22619C3.89592 33.7898 3.56886 33.7249 3.2637 33.5986C2.95853 33.4723 2.68129 33.2871 2.44771 33.0536C2.21412 32.8201 2.02882 32.543 1.9024 32.2378C1.77598 31.9327 1.71074 31.6057 1.71074 31.2754V4.20801C1.71415 3.54333 1.98053 2.90702 2.45165 2.43812C2.92276 1.96923 3.56045 1.70583 4.22514 1.70556H15.4962C15.5769 1.70556 15.6544 1.73768 15.7115 1.79476C15.7686 1.85183 15.8005 1.9292 15.8005 2.00991V9.91291C15.8005 11.0326 16.2453 12.1065 17.0371 12.8983C17.8288 13.6901 18.9027 14.1349 20.0225 14.1349H27.9374L27.9256 13.281V14.1349C28.0062 14.1352 28.0833 14.1673 28.1404 14.2244C28.1974 14.2814 28.2296 14.3586 28.2299 14.4392C28.2298 14.4966 28.2355 14.5539 28.247 14.6102C28.247 14.6371 28.2566 14.6522 28.2577 14.6586L29.0816 14.4371L28.2449 14.6027C28.2524 14.6393 28.2577 14.6565 28.2577 14.6586L29.0816 14.4371H28.2288C28.2288 14.4927 28.2341 14.5481 28.2449 14.6027L29.0816 14.4371H28.2288V14.4446L29.0805 14.4392ZM15.0283 26.876L14.1756 26.8706C14.175 26.9533 14.1418 27.0324 14.0832 27.0906C14.0246 27.1488 13.9453 27.1814 13.8626 27.1814H6.52529C6.44277 27.1814 6.36374 27.1488 6.30528 27.0905C6.24683 27.0323 6.21367 26.9532 6.21339 26.8706V25.7167C6.21367 25.6342 6.24683 25.5552 6.30528 25.4969C6.36374 25.4387 6.44277 25.406 6.52529 25.406H13.8658C13.9484 25.406 14.0277 25.4386 14.0863 25.4969C14.145 25.5551 14.1782 25.6341 14.1787 25.7167V26.8706L15.0318 26.876H15.8855V25.706C15.8819 25.1728 15.6674 24.6627 15.289 24.287C14.9107 23.9113 14.399 23.7004 13.8658 23.7004H6.52529C5.99208 23.7004 5.48064 23.9113 5.1023 24.287C4.72396 24.6627 4.50949 25.1728 4.5058 25.706V26.8889C4.50949 27.4221 4.72396 27.9323 5.1023 28.308C5.48064 28.6837 5.99208 28.8945 6.52529 28.8945H13.8658C14.399 28.8945 14.9107 28.6837 15.289 28.308C15.6674 27.9323 15.8819 27.4221 15.8855 26.8889V26.8825L15.0283 26.876ZM21.1774 20.0172H20.3236C20.3236 20.0998 20.291 20.1791 20.2328 20.2378C20.1745 20.2964 20.0954 20.3296 20.0128 20.3302H6.54577C6.46286 20.3299 6.38333 20.2968 6.32471 20.2382C6.26608 20.1796 6.2331 20.1001 6.23282 20.0172V18.8591C6.2331 18.7762 6.26608 18.6967 6.32471 18.6381C6.38333 18.5794 6.46286 18.5464 6.54577 18.5461H20.1333C20.2163 18.5461 20.2959 18.5791 20.3546 18.6377C20.4133 18.6964 20.4462 18.7761 20.4462 18.8591V20.0172H21.3V19.1634H20.3236V20.0172H21.1774V20.8711H22.1528V18.8591C22.1528 18.3234 21.94 17.8098 21.5612 17.431C21.1825 17.0523 20.6689 16.8395 20.1333 16.8395H6.54577C6.01015 16.8395 5.49653 17.0523 5.11779 17.431C4.73905 17.8098 4.52628 18.3234 4.52628 18.8591V20.0172C4.52628 20.5528 4.73905 21.0665 5.11779 21.4453C5.49653 21.824 6.01015 22.0368 6.54577 22.0368H20.0246C20.5578 22.0331 21.0679 21.8187 21.4436 21.4403C21.8193 21.062 22.0302 20.5504 22.0302 20.0172H21.1774Z" fill="#146394"/>
<path d="M27.3345 29.3967C27.0118 29.3967 26.6964 29.4924 26.4282 29.6716C26.1599 29.8509 25.9507 30.1058 25.8272 30.4039C25.7037 30.7019 25.6716 31.0299 25.7345 31.3464C25.7975 31.6628 25.9527 31.9535 26.1808 32.1817C26.409 32.4098 26.6998 32.5652 27.0163 32.6281C27.3327 32.6911 27.6607 32.6588 27.9588 32.5353C28.2569 32.4118 28.5115 32.2028 28.6908 31.9345C28.87 31.6662 28.9657 31.3507 28.9657 31.0281C28.9388 30.6042 28.7585 30.2048 28.4582 29.9045C28.1578 29.6042 27.7583 29.4236 27.3345 29.3967Z" fill="#FAA62E"/>
<path d="M27.3339 23.965C25.7483 23.965 24.1983 24.4351 22.8799 25.316C21.5615 26.1969 20.5338 27.449 19.927 28.9139C19.3202 30.3789 19.1616 31.9909 19.471 33.546C19.7803 35.1012 20.5439 36.5296 21.6651 37.6508C22.7863 38.772 24.2146 39.5355 25.7697 39.8449C27.3248 40.1542 28.9369 39.9955 30.4018 39.3887C31.8667 38.7819 33.1188 37.7544 33.9997 36.436C34.8806 35.1176 35.3508 33.5675 35.3508 31.9819C35.3151 29.8668 34.459 27.8484 32.9632 26.3526C31.4674 24.8567 29.449 24.0006 27.3339 23.965ZM27.5705 36.7362C27.5036 36.8005 27.4144 36.8365 27.3216 36.8365C27.2288 36.8365 27.1394 36.8005 27.0725 36.7362C26.2562 36.0426 23.468 33.7187 23.468 31.027C23.468 30.0083 23.8726 29.0311 24.593 28.3107C25.3134 27.5904 26.2905 27.1857 27.3093 27.1857C28.328 27.1857 29.3049 27.5904 30.0253 28.3107C30.7457 29.0311 31.1503 30.0083 31.1503 31.027C31.0524 33.7262 28.3856 36.0512 27.5705 36.7362Z" fill="#FAA62E"/>
<path d="M4.79942 7.91577L7.58896 7.5652C7.60393 7.5652 7.61898 7.56227 7.63281 7.55654C7.64664 7.55081 7.65898 7.54238 7.66956 7.53179C7.68015 7.52121 7.68878 7.50867 7.69451 7.49484C7.70023 7.48101 7.70317 7.46616 7.70317 7.45119L8.98386 4.93155C9.04707 4.87305 9.13009 4.84058 9.21622 4.84058C9.30234 4.84058 9.3851 4.87305 9.44831 4.93155L10.7616 7.47594L10.8755 7.58995L13.665 7.94051C13.7226 7.95945 13.7702 8.00038 13.7976 8.05439C13.825 8.1084 13.83 8.1711 13.8113 8.22872C13.8037 8.25102 13.7928 8.27203 13.779 8.29107L11.6831 10.3784V10.6397L12.1475 13.4293C12.1475 13.5519 12.0337 13.7798 11.8057 13.6658L9.3593 12.3851H9.1301L6.68371 13.6658C6.56972 13.7798 6.33295 13.6659 6.33295 13.4293L6.68371 10.6397V10.4107L4.57153 8.40397C4.59967 8.2299 4.67895 8.06815 4.79942 7.93939V7.91577Z" fill="#146394"/>
</svg>
