<svg width="74" height="58" viewBox="0 0 74 58" fill="none" xmlns="http://www.w3.org/2000/svg">
<path d="M19.5848 23.6817C19.9495 23.6361 20.3143 23.5905 20.6791 23.5449C21.2111 23.4841 21.7431 23.4233 22.2751 23.3473C22.3207 23.3473 22.3663 23.3321 22.4119 23.3169C22.4271 23.3169 22.4576 23.3321 22.4727 23.3321C23.0352 23.2865 23.5823 23.2409 24.1448 23.1953C24.1903 23.1953 24.2512 23.1649 24.2967 23.1497C24.5704 23.1497 24.8287 23.1497 25.1023 23.1345C26.5311 23.0585 27.9751 23.0585 29.4039 23.1345C30.1639 23.1801 30.9391 23.2257 31.6991 23.2865C32.3223 23.3473 32.9303 23.4385 33.5535 23.5145C33.6448 23.5297 33.7359 23.5297 33.8119 23.5297C33.9639 23.5601 34.1159 23.6057 34.2679 23.6361C34.5871 23.6969 34.8911 23.7425 35.2103 23.7881C36.3351 24.0313 37.4447 24.3049 38.5391 24.6545C38.5695 24.6697 38.5999 24.6393 38.6455 24.6393C38.6455 24.5633 38.6455 24.5025 38.6455 24.4417C38.6455 22.9977 38.6455 21.5385 38.6303 20.0945C38.6303 19.6689 38.5999 19.2433 38.5695 18.8329C38.5239 18.3009 38.2656 18.0273 37.7488 17.9209C37.5512 17.8753 37.3535 17.8601 37.1559 17.8449C37.0191 17.8297 36.8824 17.8449 36.7607 17.7689C36.7607 17.7081 36.7456 17.6625 36.7456 17.6017C36.8671 17.5105 37.0191 17.5105 37.1559 17.5105C37.6879 17.5257 38.2048 17.5257 38.7368 17.5409C39.3296 17.5713 39.9223 17.5561 40.5151 17.5409C41.2447 17.5257 41.9743 17.4953 42.6888 17.5105C43.4791 17.5257 44.2696 17.6321 45.0295 17.9057C46.2607 18.3465 47.0663 19.2129 47.4464 20.4593C47.6135 21.0217 47.5983 21.6145 47.5223 22.1921C47.4007 23.1041 47.0359 23.9249 46.504 24.6849C45.8048 25.6729 44.9991 26.5393 43.9351 27.1473C43.9047 27.1625 43.8743 27.1929 43.8135 27.2385C43.9199 27.3297 43.9959 27.3905 44.0871 27.4665C44.9991 28.1505 45.8351 28.9257 46.5495 29.8225C47.4615 30.9777 48.1304 32.2545 48.5407 33.6681C48.556 33.7137 48.5711 33.7593 48.5711 33.8049C48.5711 33.8201 48.5711 33.8505 48.5711 33.8961C48.4039 33.9569 48.2215 33.9265 48.0543 33.9265C47.8871 33.9265 47.72 33.9265 47.5527 33.9265C47.3703 33.9265 47.2031 33.9265 47.0511 33.9265C47.0055 33.8809 46.9751 33.8809 46.9751 33.8505C46.4735 32.6193 45.6983 31.5705 44.7864 30.6281C43.5703 29.3361 42.1415 28.3329 40.6063 27.4817C40.5455 27.4513 40.4847 27.4361 40.4087 27.4057C40.4087 27.4817 40.3936 27.5121 40.3936 27.5577C40.3936 28.6369 40.3936 29.7009 40.4087 30.7801C40.424 31.3425 40.4695 31.8897 40.5151 32.4521C40.5303 32.6041 40.5607 32.7561 40.6063 32.9081C40.7127 33.2425 40.9255 33.4705 41.2903 33.5161C41.5943 33.5617 41.8831 33.5921 42.1871 33.6225C42.2479 33.6225 42.324 33.6225 42.3848 33.6377C42.4151 33.6529 42.476 33.6833 42.476 33.7137C42.476 33.7593 42.4607 33.8353 42.4303 33.8505C42.3847 33.8809 42.3088 33.8961 42.248 33.9113C42.0807 33.9265 41.9135 33.9265 41.7463 33.9265C41.0168 33.9113 40.3023 33.8809 39.5728 33.8657C39.0863 33.8657 38.6152 33.8961 38.1287 33.9113C37.9464 33.9113 37.7487 33.9265 37.5663 33.9265C37.4599 33.9265 37.3687 33.9265 37.2623 33.9113C37.1711 33.8961 37.1103 33.8353 37.1255 33.7593C37.1255 33.6833 37.1863 33.6529 37.2623 33.6377C37.3991 33.6225 37.5511 33.6073 37.6879 33.5769C37.7639 33.5617 37.84 33.5465 37.916 33.5313C38.1288 33.4857 38.2808 33.3489 38.3568 33.1665C38.4024 33.0601 38.4479 32.9385 38.4631 32.8169C38.5087 32.5585 38.5695 32.2849 38.5848 32.0265C38.6152 31.4185 38.6455 30.7953 38.6608 30.1873C38.6759 29.0625 38.6608 27.9377 38.676 26.7977C38.676 26.7217 38.6759 26.6457 38.6608 26.5545C38.5392 26.5089 38.4176 26.4481 38.296 26.4025C37.3536 26.0225 36.3959 25.7033 35.4079 25.4297C35.3623 25.4145 35.3015 25.4145 35.2408 25.4145C34.7847 25.3081 34.3288 25.1865 33.8728 25.0801C33.8272 25.0649 33.7967 25.0345 33.7511 25.0345C32.6871 24.8065 31.6231 24.6241 30.5591 24.4873C29.7991 24.3961 29.0543 24.3353 28.2943 24.2593C27.0631 24.1377 25.8167 24.1225 24.5855 24.1529C24.4943 24.1529 24.4184 24.1833 24.3271 24.1985C23.7039 24.1985 23.0807 24.2441 22.4575 24.3201C22.0623 24.3505 21.6671 24.3809 21.2719 24.4417C20.6183 24.5329 19.9799 24.6393 19.3415 24.7609C19.2351 24.7761 19.1287 24.8217 19.0223 24.8369C18.2927 24.9585 17.5935 25.1257 16.8791 25.3233C16.4535 25.4297 16.0279 25.5361 15.6023 25.6577C15.3439 25.7337 15.1007 25.8249 14.8423 25.9009C14.5383 25.9921 14.2343 26.0985 13.9303 26.1897C13.6567 26.2809 13.3983 26.3873 13.1247 26.4937C13.0031 26.5241 12.8967 26.5545 12.7751 26.6001C10.7383 27.3601 8.77755 28.2873 6.86235 29.3361C6.77115 29.3817 6.69515 29.4881 6.55835 29.4425C6.57355 29.3665 6.58875 29.2905 6.60395 29.2145C6.80155 28.6673 7.01435 28.1353 7.19675 27.5881C7.25755 27.4209 7.34875 27.3297 7.50075 27.2689C8.44315 26.8281 9.41595 26.4481 10.4039 26.0985C11.2247 25.8097 12.0759 25.5513 12.9119 25.2777C12.9727 25.2625 13.0335 25.2321 13.0943 25.2017C13.1247 25.2017 13.1551 25.2017 13.2007 25.2017C13.7935 25.0345 14.3863 24.8825 14.9791 24.7153C15.0703 24.6849 15.1463 24.6545 15.2223 24.6241C15.3135 24.6089 15.4199 24.5937 15.5111 24.5785C16.1799 24.4265 16.8335 24.2897 17.5023 24.1377C17.8063 24.0769 18.1103 24.0009 18.4143 23.9401C18.5815 23.9249 18.7639 23.9097 18.9311 23.8793C19.1439 23.7729 19.3567 23.7273 19.5848 23.6817ZM40.3936 25.3233C40.4391 25.3689 40.4543 25.3841 40.4696 25.3993C41.0319 25.6729 41.5943 25.9465 42.1567 26.2201C42.248 26.2657 42.3544 26.2809 42.4455 26.2961C42.7799 26.3113 43.1143 26.2961 43.4487 26.2505C44.1328 26.1593 44.6647 25.8249 45.0448 25.2625C45.2879 24.9129 45.4399 24.5329 45.5616 24.1377C45.7591 23.4233 45.8048 22.7089 45.7439 21.9793C45.6984 21.4169 45.5919 20.8697 45.364 20.3529C44.8016 19.0609 43.8287 18.3769 42.4303 18.2401C41.9743 18.1945 41.5183 18.2401 41.0623 18.2553C40.9408 18.2553 40.8191 18.2857 40.6975 18.3161C40.4847 18.3617 40.4087 18.4377 40.4087 18.6505C40.4087 18.7113 40.4087 18.7873 40.4087 18.8481C40.4087 20.9001 40.4087 22.9521 40.4087 25.0041C40.3936 25.1257 40.3936 25.2169 40.3936 25.3233Z" fill="#EB2030"/>
<path d="M39.3447 0C43.7983 2.5536 48.2367 5.092 52.6903 7.6304C52.7055 7.6304 52.7055 7.676 52.7055 7.6912C43.7983 7.6912 34.8911 7.6912 25.9839 7.6912C25.9839 7.6608 25.9839 7.6304 25.9991 7.6152C30.4375 5.092 34.8759 2.5384 39.3447 0Z" fill="#EB2030"/>
<path d="M40.7279 16.0514C41.0319 15.8386 53.8455 8.51222 54.1191 8.39062C54.3623 8.48183 67.0239 15.717 67.4647 16.0058C67.4495 16.0818 67.3735 16.0514 67.3279 16.0514C67.2519 16.0514 67.1759 16.0514 67.0999 16.0514C58.4511 16.0514 49.8023 16.0514 41.1535 16.0514C41.0319 16.0514 40.9103 16.0514 40.7279 16.0514Z" fill="#0174BC"/>
<path d="M37.992 16.0054C37.9615 16.0206 37.9463 16.051 37.9311 16.051C29.0543 16.051 20.1928 16.051 11.3312 16.051C11.3008 15.9446 11.392 15.9294 11.4376 15.9142C12.1976 15.4734 12.9424 15.0478 13.7024 14.6222C17.2288 12.6006 20.7551 10.5942 24.2816 8.5726C24.4032 8.5118 24.5095 8.451 24.6463 8.375C29.0695 10.9134 33.4928 13.4366 37.916 15.9598C37.9464 15.9598 37.9615 15.9902 37.992 16.0054Z" fill="#0174BC"/>
<path d="M60.7464 23.4838C60.7464 24.639 60.7616 25.779 60.7464 26.9342C60.7312 27.9222 60.6248 28.9254 60.3512 29.883C60.1536 30.5822 59.88 31.251 59.4392 31.8438C58.7096 32.8318 57.7368 33.4702 56.5968 33.8654C56.004 34.0782 55.3808 34.1694 54.7576 34.1998C53.9064 34.2302 53.0552 34.1694 52.2344 33.9566C50.152 33.4094 48.86 32.0718 48.2976 30.0198C48.0392 29.0774 47.948 28.1046 47.948 27.1318C47.948 25.171 47.948 23.2254 47.948 21.2646C47.948 20.535 47.9176 19.8206 47.8872 19.091C47.8872 18.9238 47.8568 18.7566 47.8112 18.5894C47.7352 18.3006 47.5528 18.103 47.2792 17.9966C47.0208 17.8902 46.7472 17.8598 46.4584 17.8446C46.352 17.8446 46.2608 17.8294 46.1544 17.8142C46.124 17.8142 46.0784 17.7534 46.0784 17.723C46.0784 17.6774 46.0936 17.6014 46.1392 17.5862C46.2304 17.5558 46.3368 17.5254 46.428 17.5254C46.7928 17.5254 47.1728 17.5254 47.5376 17.5406C48.4344 17.5862 49.316 17.6014 50.2128 17.5406C50.4864 17.5254 50.7752 17.5254 51.0488 17.5254C51.14 17.5254 51.2312 17.5406 51.3072 17.571C51.3376 17.5862 51.3832 17.6622 51.3832 17.7078C51.3832 17.7534 51.3224 17.8142 51.292 17.8294C51.1248 17.8598 50.9424 17.875 50.76 17.9054C50.6992 17.9206 50.6232 17.9206 50.5624 17.9358C50.304 18.0118 50.1064 18.1486 50.0304 18.407C49.9696 18.5894 49.924 18.8022 49.9088 18.9998C49.8784 19.5622 49.848 20.1094 49.848 20.6718C49.848 22.7998 49.8328 24.943 49.848 27.071C49.848 28.0286 49.924 28.9862 50.1824 29.9286C50.38 30.6582 50.684 31.3422 51.2008 31.9046C51.976 32.771 52.9336 33.2878 54.1192 33.3638C54.8792 33.4094 55.6088 33.3638 56.3232 33.0902C57.524 32.6342 58.3752 31.8134 58.8312 30.5974C59.0744 29.9286 59.2112 29.2446 59.3024 28.5454C59.3784 27.8918 59.3936 27.2382 59.3936 26.5694C59.3936 24.563 59.3936 22.5718 59.3936 20.5654C59.3936 20.1398 59.3784 19.7142 59.3632 19.2886C59.3632 19.091 59.3328 18.8934 59.3024 18.6958C59.2416 18.331 59.0288 18.0878 58.6792 17.9814C58.4664 17.9206 58.2384 17.8902 58.0256 17.8598C57.9192 17.8446 57.7976 17.8446 57.6912 17.8446C57.6 17.8294 57.524 17.7838 57.524 17.7078C57.524 17.6318 57.5848 17.571 57.676 17.5558C57.7672 17.5406 57.8584 17.5254 57.9344 17.5406C58.2688 17.5406 58.6032 17.5406 58.9376 17.5558C59.7128 17.6014 60.4728 17.6166 61.248 17.5558C61.4456 17.5406 61.6432 17.5406 61.856 17.5406C62.0384 17.5406 62.2208 17.6166 62.3728 17.5862C62.5552 17.5558 62.7224 17.5406 62.9048 17.5406C63.2848 17.5406 63.6648 17.5558 64.0448 17.571C64.8048 17.6166 65.5648 17.6014 66.3248 17.571C66.6136 17.5558 66.9024 17.5558 67.1912 17.5406C67.2824 17.5406 67.3736 17.5558 67.4496 17.571C67.5408 17.5862 67.6016 17.6774 67.5864 17.7382C67.5712 17.8142 67.5104 17.8446 67.4344 17.8598C67.252 17.8902 67.0848 17.9054 66.9024 17.9358C66.8416 17.951 66.7656 17.951 66.7048 17.9814C66.4616 18.0574 66.2792 18.2246 66.188 18.4678C66.0968 18.711 66.0664 18.9694 66.0664 19.2278C66.0512 19.7446 66.036 20.2614 66.036 20.763C66.036 23.6966 66.036 26.6454 66.036 29.579C66.036 30.491 66.0208 31.4182 65.9904 32.3302C65.96 33.1054 65.884 33.8654 65.6712 34.6102C65.4128 35.5374 64.9568 36.343 64.3032 37.027C63.9384 37.407 63.5432 37.7566 63.1328 38.0758C62.6616 38.4254 62.1904 38.7598 61.7192 39.0942C61.6128 39.1702 61.4912 39.231 61.3696 39.2918C61.324 39.3222 61.2632 39.3222 61.2024 39.3222C61.1112 39.3222 61.0352 39.2006 61.096 39.1246C61.1568 39.0486 61.2328 38.9726 61.3088 38.9118C61.4912 38.775 61.704 38.6534 61.8712 38.5014C62.92 37.5894 63.604 36.4798 63.8624 35.0966C63.9992 34.3366 64.0904 33.5766 64.136 32.8014C64.212 31.7222 64.212 30.643 64.212 29.5486C64.212 27.0406 64.212 24.5478 64.212 22.0398C64.212 21.3102 64.212 20.5806 64.1968 19.8662C64.1968 19.547 64.1664 19.2126 64.136 18.8934C64.136 18.787 64.1056 18.6958 64.0752 18.6046C63.9992 18.3158 63.8016 18.1182 63.528 18.0118C63.3 17.9206 63.0568 17.8902 62.8136 17.875C62.6768 17.8598 62.5248 17.8446 62.388 17.8294C62.3728 17.8294 62.3728 17.8142 62.3576 17.8142C62.0384 17.875 61.7192 17.9206 61.4152 17.9966C61.172 18.0574 61.02 18.255 60.944 18.483C60.8984 18.635 60.868 18.787 60.8528 18.939C60.8224 19.3798 60.792 19.8358 60.792 20.2766C60.7616 21.3406 60.7616 22.4046 60.7464 23.4838C60.7616 23.4838 60.7616 23.4838 60.7464 23.4838Z" fill="#0777BD"/>
<path d="M16.8335 25.2471C17.5327 25.0495 18.2471 24.8823 18.9767 24.7607C19.1743 24.8519 19.3567 24.9431 19.5543 25.0343C20.2687 25.3991 20.8919 25.8855 21.4087 26.4935C22.9135 28.3023 22.6247 30.7951 21.1655 32.3303C20.4359 33.0903 19.5543 33.5463 18.5359 33.7743C17.8671 33.9263 17.1983 33.9871 16.5143 33.9415C15.6935 33.8959 14.8879 33.8503 14.0671 33.8351C13.4135 33.8199 12.7751 33.8655 12.1215 33.8807C11.9847 33.8807 11.8479 33.8807 11.7263 33.8807C11.6807 33.8807 11.6199 33.8503 11.5743 33.8199C11.5439 33.7895 11.5287 33.7439 11.5287 33.6983C11.5287 33.6679 11.5743 33.6223 11.6047 33.6071C11.6351 33.5919 11.6959 33.5919 11.7415 33.5919C11.8935 33.5767 12.0455 33.5463 12.2127 33.5311C12.5471 33.5007 12.7447 33.3183 12.8359 32.9991C12.8967 32.7407 12.9727 32.4823 12.9879 32.2087C13.0335 31.6007 13.0639 31.0079 13.0639 30.3999C13.0791 29.0775 13.0791 27.7399 13.0943 26.4175C13.3679 26.3111 13.6263 26.2047 13.8999 26.1135C14.2039 26.0071 14.5079 25.9159 14.8119 25.8247C14.8119 25.9311 14.8271 26.0223 14.8271 26.1287C14.8271 27.5271 14.8271 28.9255 14.8423 30.3239C14.8423 30.5823 14.8423 30.8407 14.8575 31.0991C14.8727 31.4335 14.9031 31.7679 14.9335 32.1023C14.9639 32.4519 15.1463 32.7103 15.4503 32.8775C15.6023 32.9535 15.7543 33.0143 15.9063 33.0751C16.3015 33.1967 16.7119 33.2423 17.1223 33.2727C17.4871 33.2879 17.8367 33.2879 18.1863 33.2119C19.5695 32.9231 20.3599 31.9807 20.4967 30.6887C20.5575 30.1263 20.5119 29.5791 20.4055 29.0167C20.2535 28.2567 19.9647 27.5423 19.4935 26.9191C18.8551 26.0679 18.0343 25.4751 16.9703 25.2927C16.9095 25.2775 16.8791 25.2623 16.8335 25.2471Z" fill="#0777BD"/>
<path d="M22.412 24.2593C23.0352 24.1833 23.6584 24.1377 24.2816 24.1377C24.2816 24.9889 24.2968 25.8401 24.2968 26.6761C24.2968 27.4209 24.3272 28.1657 24.4336 28.9105C24.5248 29.5337 24.6616 30.1417 24.9048 30.7193C25.4368 31.9049 26.288 32.7257 27.5192 33.1665C27.9296 33.3033 28.34 33.3489 28.7656 33.3793C29.328 33.4249 29.8752 33.3641 30.4224 33.2121C31.5624 32.8625 32.4896 32.2089 33.0368 31.1297C33.1888 30.8257 33.3104 30.5217 33.4168 30.2025C33.6752 29.3969 33.7816 28.5609 33.812 27.7249C33.8424 26.9649 33.8272 26.2049 33.8424 25.4449C33.8424 25.3081 33.8424 25.1713 33.8576 25.0497C34.3136 25.1561 34.7696 25.2777 35.2256 25.3841C35.2256 26.2049 35.2408 27.0105 35.1648 27.8313C35.104 28.6065 34.9824 29.3665 34.7696 30.0961C34.2072 32.0113 32.9304 33.2425 31.076 33.8961C30.468 34.1089 29.8448 34.2001 29.2064 34.2305C28.3704 34.2609 27.5344 34.2001 26.7136 33.9873C24.6464 33.4401 23.3544 32.1329 22.7768 30.0809C22.564 29.3209 22.4576 28.5457 22.4424 27.7705C22.412 26.5849 22.412 25.4145 22.412 24.2593Z" fill="#0777BD"/>
<path d="M14.8119 40.4473C15.0855 40.4017 15.3287 40.4017 15.5871 40.4473C15.6023 40.5385 15.6175 40.6297 15.6175 40.7057C15.6175 41.2681 15.6175 41.8153 15.6175 42.3777C15.6175 43.3961 15.6175 44.4145 15.6175 45.4329C15.6175 45.5697 15.6175 45.7065 15.6327 45.8281C15.6479 45.9649 15.7239 46.0561 15.8607 46.0865C15.9519 46.1169 16.0583 46.1321 16.1495 46.1321C16.6815 46.1321 17.1983 46.1473 17.7303 46.1321C17.9431 46.1321 18.1559 46.0865 18.3687 46.0713C18.4143 46.0713 18.4447 46.0409 18.5055 46.0257C18.5055 45.9649 18.5055 45.9193 18.4903 45.8585C18.3535 45.2961 18.0343 44.8401 17.5631 44.5057C17.4567 44.4297 17.3655 44.3537 17.2591 44.2929C17.1375 44.2169 17.0767 44.0953 17.0919 43.9585C17.1071 43.8369 17.1071 43.7153 17.0919 43.5937C17.0767 43.4113 17.1679 43.3049 17.3199 43.2289C18.0039 42.8945 18.7183 42.7577 19.4631 42.8337C19.6759 42.8489 19.8887 42.8945 20.0863 42.9401C20.8311 43.1681 21.2111 43.8217 21.0743 44.5817C20.9831 45.1137 20.6943 45.5241 20.3143 45.8889C20.2535 45.9497 20.1775 46.0105 20.1167 46.0713C20.1167 46.0713 20.1167 46.0865 20.1167 46.1017C20.1319 46.1625 20.1927 46.1321 20.2231 46.1473C20.9223 46.1473 21.6063 46.1473 22.3055 46.1473C22.7615 46.1473 22.8679 46.0409 22.8679 45.5697C22.8679 44.8401 22.8679 44.1105 22.8679 43.3961C22.8679 43.2897 22.8679 43.1833 22.8831 43.0465C23.1415 42.9705 23.3999 43.0009 23.6735 43.0313C23.6735 43.1529 23.6887 43.2593 23.6887 43.3809C23.6887 44.0041 23.6887 44.6273 23.6887 45.2505C23.6887 45.3417 23.6887 45.4329 23.6887 45.5241C23.7191 45.8281 23.8711 46.0257 24.1599 46.1017C24.2815 46.1321 24.4031 46.1473 24.5247 46.1625C24.7679 46.1777 25.0111 46.1625 25.2543 46.1625C25.3303 46.1625 25.4063 46.1473 25.4823 46.1169C25.6039 46.0865 25.6799 45.9953 25.6799 45.8737C25.6951 45.7065 25.7103 45.5393 25.7103 45.3721C25.7103 43.8673 25.7103 42.3625 25.7103 40.8425C25.7103 40.7209 25.6951 40.5993 25.7407 40.4625C25.9991 40.4169 26.2423 40.4321 26.5159 40.4625C26.5311 40.5689 26.5311 40.6601 26.5311 40.7513C26.5311 42.3929 26.5311 44.0345 26.5311 45.6761C26.5311 45.8281 26.5159 45.9953 26.4855 46.1473C26.3943 46.6641 26.0599 46.8617 25.6343 46.9073C25.4975 46.9225 25.3607 46.9073 25.2391 46.9225C24.9807 46.9225 24.7223 46.9225 24.4639 46.9225C24.1295 46.9377 23.8559 46.8313 23.6279 46.5729C23.6127 46.5425 23.5823 46.5273 23.5519 46.5121C23.5215 46.5273 23.4911 46.5425 23.4759 46.5729C23.2631 46.8313 22.9591 46.9225 22.6399 46.9225C21.8191 46.9225 20.9831 46.9225 20.1623 46.9225C19.7823 46.9225 19.5695 46.8617 19.1135 46.6641C18.8247 46.7401 18.5663 46.8161 18.2927 46.8769C18.1559 46.9073 18.0039 46.9225 17.8671 46.9225C17.1983 46.9225 16.5295 46.9225 15.8607 46.9225C15.6935 46.9225 15.5263 46.8921 15.3743 46.8465C15.1311 46.7705 14.9639 46.6185 14.8879 46.3753C14.8271 46.1777 14.7815 45.9801 14.7815 45.7825C14.7663 44.0801 14.7815 42.3929 14.7815 40.6905C14.7967 40.5841 14.7967 40.5233 14.8119 40.4473ZM19.3415 45.7217C19.6303 45.5393 19.8583 45.3417 20.0255 45.0681C20.1167 44.9161 20.1927 44.7489 20.2383 44.5817C20.3599 44.1409 20.1471 43.7913 19.7063 43.6545C19.6303 43.6241 19.5543 43.6089 19.4783 43.6089C19.1895 43.6089 18.9007 43.5937 18.6119 43.6241C18.3991 43.6393 18.1863 43.7001 17.9887 43.8217C18.8399 44.5361 18.9311 44.6729 19.3415 45.7217Z" fill="#7D7D7D"/>
<path d="M15.192 24.563C15.116 24.5934 15.0248 24.639 14.9488 24.6542C14.356 24.8214 13.7632 24.9734 13.1704 25.1406C13.14 25.1558 13.1096 25.1406 13.064 25.1406C13.064 24.0462 13.064 22.9518 13.064 21.8574C13.064 20.991 13.0336 20.1094 13.0184 19.243C13.0184 19.0606 12.988 18.863 12.9576 18.6806C12.8968 18.3158 12.684 18.0726 12.3344 17.9662C12.0912 17.8902 11.8328 17.8446 11.5744 17.8446C11.468 17.8446 11.3768 17.8446 11.2704 17.8142C11.2248 17.799 11.1944 17.7382 11.1792 17.6926C11.1792 17.6622 11.2096 17.6014 11.24 17.5862C11.3312 17.5558 11.4376 17.5254 11.5288 17.5254C11.9088 17.5254 12.2888 17.5254 12.6688 17.5406C13.5656 17.5862 14.4472 17.5862 15.344 17.5406C15.9824 17.5102 16.636 17.495 17.2896 17.5862C17.8976 17.6622 18.4904 17.8142 19.0376 18.1334C19.904 18.6198 20.4512 19.3494 20.6336 20.3374C20.74 20.9606 20.6488 21.5838 20.436 22.1766C20.284 22.6174 20.056 23.0126 19.7824 23.3774C19.7064 23.4686 19.6456 23.575 19.5696 23.6814C19.3416 23.727 19.1136 23.7726 18.9008 23.8182C18.7336 23.8486 18.5512 23.8638 18.384 23.879C18.4144 23.8334 18.4448 23.7878 18.4752 23.7422C18.84 23.1646 19.0224 22.5566 19.0072 21.8726C19.0072 21.523 18.992 21.1886 18.916 20.839C18.8248 20.3526 18.6728 19.8814 18.4144 19.4558C18.0192 18.8022 17.472 18.3614 16.712 18.2094C16.2256 18.103 15.7392 18.1334 15.2528 18.2094C14.812 18.2854 14.7968 18.3006 14.7968 18.7414C14.7968 20.0182 14.7968 21.3102 14.7968 22.587C14.7968 23.0886 14.7968 23.5902 14.7968 24.0918C14.7968 24.2134 14.7816 24.335 14.8576 24.4566C14.888 24.4718 14.9336 24.5022 14.9792 24.5022C15.0552 24.5326 15.1312 24.5478 15.192 24.563Z" fill="#0777BD"/>
<path d="M42.0352 46.4666C42.0048 46.4818 41.9896 46.4818 41.9744 46.497C41.7312 46.7858 41.3816 46.8466 41.032 46.8618C40.7736 46.877 40.5152 46.8618 40.2568 46.8618C39.9528 46.8618 39.6944 46.7706 39.4816 46.5274C39.4664 46.497 39.436 46.4818 39.4056 46.4666C39.3904 46.4818 39.36 46.4818 39.3448 46.497C39.1016 46.7858 38.7824 46.877 38.4176 46.877C38.0984 46.877 37.764 46.877 37.4448 46.877C37.2016 46.877 36.9736 46.8466 36.776 46.7098C36.7456 46.6946 36.7 46.6794 36.6392 46.6642C36.624 46.7706 36.624 46.8618 36.624 46.953C36.5632 47.789 36.0768 48.4122 35.2864 48.6402C34.6784 48.8226 34.0552 48.8226 33.432 48.625C32.6568 48.3666 32.216 47.8194 32.1248 47.0138C32.0336 46.2082 32.2616 45.4634 32.6872 44.7946C32.7024 44.7642 32.7328 44.7338 32.748 44.7034C33.0064 44.7946 33.2192 44.901 33.4168 45.053C33.4168 45.1898 33.3408 45.281 33.2952 45.3722C33.1584 45.6458 33.0216 45.9346 32.976 46.2538C32.9456 46.4514 32.9304 46.649 32.9608 46.8466C33.0216 47.409 33.4168 47.8346 33.9792 47.941C34.2528 48.0018 34.5264 48.0018 34.8152 47.9562C35.408 47.8498 35.7576 47.4698 35.8184 46.8618C35.8336 46.7554 35.8184 46.6642 35.8184 46.5578C35.8184 45.7674 35.8184 44.977 35.8184 44.1714C35.8184 44.065 35.8184 43.9434 35.8184 43.837C36.0768 43.7458 36.32 43.7914 36.5784 43.7914C36.5936 43.8674 36.624 43.9434 36.624 44.0042C36.624 44.369 36.624 44.7186 36.624 45.0834C36.624 45.1898 36.624 45.281 36.624 45.3874C36.624 45.7218 36.7608 45.9954 37.1712 46.0714C37.2776 46.0866 37.384 46.117 37.5056 46.117C37.7336 46.117 37.9464 46.117 38.1744 46.117C38.2504 46.117 38.3264 46.1018 38.4024 46.0866C38.5696 46.0562 38.6608 45.9498 38.676 45.7826C38.6912 45.6914 38.6912 45.585 38.6912 45.4786C38.6912 44.7642 38.6912 44.0498 38.6912 43.3354C38.6912 43.229 38.7064 43.1226 38.7064 42.9858C38.9648 42.925 39.208 42.9554 39.436 42.9706C39.5272 43.0466 39.512 43.1378 39.512 43.229C39.512 43.8826 39.512 44.5514 39.512 45.205C39.512 45.3114 39.512 45.433 39.5272 45.5394C39.5576 45.7826 39.7096 45.9498 39.9376 46.0258C40.0592 46.0714 40.196 46.0866 40.3328 46.1018C40.5304 46.117 40.728 46.117 40.9408 46.1018C41.2296 46.0866 41.4272 45.9498 41.5032 45.6762C41.5488 45.5242 41.564 45.3722 41.564 45.2202C41.5792 45.0074 41.564 44.7946 41.5792 44.5818C41.5944 44.3842 41.6096 44.1866 41.6704 43.989C41.8224 43.4266 42.172 43.0618 42.7344 42.8946C43.1904 42.7578 43.6312 42.7578 44.0872 42.8946C44.604 43.0466 44.9536 43.3962 45.1056 43.913C45.2728 44.4906 45.288 45.0834 45.1512 45.661C44.9688 46.3906 44.4976 46.801 43.7528 46.9074C43.464 46.9378 43.1752 46.9378 42.8864 46.877C42.6128 46.8162 42.3544 46.7098 42.1416 46.5274C42.1112 46.5122 42.0656 46.497 42.0352 46.4666ZM44.452 44.9466C44.4216 44.7034 44.4216 44.445 44.3456 44.217C44.2392 43.9434 44.0872 43.7154 43.7984 43.6394C43.4944 43.5482 43.1752 43.5482 42.8864 43.7154C42.6736 43.837 42.552 44.0346 42.4912 44.2778C42.3696 44.7186 42.3696 45.1594 42.4912 45.6002C42.5064 45.661 42.5368 45.7218 42.5672 45.7826C42.6584 45.9498 42.7952 46.0866 42.9928 46.1474C43.236 46.2234 43.4944 46.2538 43.7528 46.1778C44.0568 46.1018 44.2696 45.9194 44.3608 45.6154C44.3912 45.3874 44.4064 45.1594 44.452 44.9466Z" fill="#7D7D7D"/>
<path d="M49.316 43.0007C49.6048 42.9855 49.848 42.955 50.076 43.0158C50.152 43.1374 50.1216 43.2742 50.1216 43.3958C50.1216 44.019 50.1216 44.6423 50.1216 45.2655C50.1216 45.3567 50.1216 45.4478 50.1216 45.539C50.1368 45.8126 50.2736 45.9798 50.5168 46.0558C50.608 46.0862 50.7144 46.1167 50.8056 46.1167C51.1248 46.1319 51.4288 46.1319 51.748 46.1167C51.976 46.1015 52.0824 45.995 52.128 45.767C52.1432 45.6454 52.1432 45.5238 52.1432 45.4023C52.1432 43.8823 52.1432 42.3623 52.1432 40.8423C52.1432 40.7207 52.1432 40.5991 52.1432 40.4623C52.4016 40.3863 52.66 40.4166 52.9032 40.447C52.964 40.5686 52.9488 40.7054 52.9488 40.8118C52.9488 42.271 52.9488 43.7455 52.9488 45.2047C52.9488 45.2959 52.9488 45.3871 52.9488 45.4783C52.964 45.7671 53.1008 45.9646 53.3744 46.0558C53.496 46.0862 53.6176 46.1166 53.7392 46.1318C53.9976 46.147 54.256 46.1318 54.5144 46.1318C54.5448 46.1318 54.5752 46.1318 54.6208 46.1318C54.8488 46.0862 54.9552 45.995 54.9704 45.7518C54.9856 45.6454 54.9704 45.5542 54.9704 45.4478C54.9704 43.9126 54.9704 42.3927 54.9704 40.8575C54.9704 40.7359 54.9704 40.6143 54.9704 40.4775C55.2288 40.3863 55.4872 40.4318 55.7456 40.447C55.8216 40.5686 55.7912 40.6902 55.7912 40.8118C55.7912 42.0278 55.7912 43.2438 55.7912 44.4598C55.7912 44.9006 55.7912 45.3262 55.7912 45.767C55.7912 45.9494 55.776 46.1166 55.7152 46.299C55.624 46.5574 55.4416 46.7398 55.1832 46.8158C55.0464 46.8462 54.8944 46.8767 54.7576 46.8767C54.4232 46.8919 54.0888 46.8767 53.7544 46.8767C53.42 46.8767 53.1312 46.7854 52.9184 46.527C52.9032 46.4966 52.8728 46.4815 52.8424 46.4662C52.812 46.4815 52.7816 46.4966 52.7664 46.527C52.5384 46.7854 52.2496 46.8767 51.9304 46.8767C51.5808 46.8767 51.2312 46.8767 50.8968 46.8767C50.5624 46.8767 50.2888 46.7702 50.0608 46.5118C50.0456 46.4966 50.0304 46.4815 50 46.4662C49.9696 46.4967 49.924 46.5271 49.8784 46.5727C49.6808 46.7855 49.4376 46.8767 49.164 46.8767C48.5712 46.8919 47.9784 46.8767 47.3856 46.8767C47.2792 46.8767 47.1576 46.8462 47.0512 46.8158C46.7928 46.7398 46.6104 46.5726 46.5192 46.299C46.4432 46.0862 46.4128 45.8583 46.428 45.6455C46.428 44.4903 46.428 43.3502 46.428 42.195C46.428 41.7238 46.428 41.2527 46.428 40.7815C46.428 40.6903 46.4432 40.5839 46.4432 40.4623C46.7016 40.4015 46.96 40.4166 47.2032 40.447C47.2944 40.5686 47.264 40.6902 47.264 40.8118C47.264 42.3014 47.264 43.8062 47.264 45.2958C47.264 45.4174 47.264 45.5391 47.264 45.6607C47.2792 45.9951 47.4008 46.1167 47.7504 46.1167C47.8872 46.1167 48.024 46.1167 48.1456 46.1167C48.3584 46.1167 48.5712 46.1167 48.784 46.1167C48.8752 46.1167 48.9664 46.1014 49.0424 46.0862C49.1792 46.0559 49.2552 45.9646 49.2704 45.8278C49.2856 45.7366 49.2856 45.6302 49.2856 45.5238C49.2856 44.7942 49.2856 44.0647 49.2856 43.3503C49.3008 43.2439 49.316 43.1375 49.316 43.0007Z" fill="#7D7D7D"/>
<path d="M3.50315 46.1622C3.59435 45.9038 3.65515 45.691 3.76155 45.4934C3.86795 45.4478 3.94395 45.4934 4.03515 45.5238C4.30875 45.6302 4.56715 45.7366 4.84075 45.843C5.15995 45.9646 5.47915 46.071 5.79835 46.1166C5.90475 46.1318 5.99595 46.147 6.10235 46.147C6.54315 46.147 6.99915 46.147 7.43995 46.147C7.88075 46.147 8.00235 46.0406 8.00235 45.5998C8.00235 44.8702 8.00235 44.1254 8.00235 43.3958C8.00235 43.2894 8.01755 43.183 8.01755 43.0462C8.29115 42.9854 8.53435 43.0006 8.80795 43.031C8.82315 43.1222 8.83835 43.2134 8.83835 43.3046C8.83835 44.0798 8.83835 44.8702 8.83835 45.6454C8.83835 45.7974 8.82315 45.9646 8.79275 46.1166C8.71675 46.5726 8.44315 46.831 7.98715 46.8918C7.88075 46.907 7.78955 46.907 7.68315 46.907C7.30315 46.907 6.92315 46.907 6.54315 46.907C6.45195 46.907 6.36075 46.907 6.28475 46.907C6.20875 47.0134 6.28475 47.0894 6.31515 47.1806C6.37595 47.3782 6.39115 47.5758 6.34555 47.7734C6.26955 48.1078 6.08715 48.3662 5.78315 48.5334C5.50955 48.6854 5.22075 48.7614 4.91675 48.7918C4.81035 48.807 4.71915 48.807 4.61275 48.807C3.82235 48.807 3.03195 48.807 2.24155 48.807C1.90715 48.807 1.57275 48.7614 1.25355 48.655C0.584746 48.4118 0.189546 47.9406 0.052746 47.2414C-0.114454 46.3598 0.128746 45.5694 0.599946 44.8246C0.615146 44.7942 0.645546 44.779 0.691146 44.7486C0.919146 44.8246 1.13195 44.9462 1.34475 45.083C1.31435 45.159 1.29915 45.2198 1.28395 45.2654C1.20795 45.4326 1.11675 45.5998 1.04075 45.7822C0.903946 46.1014 0.843146 46.4206 0.873546 46.755C0.903946 47.4086 1.29915 47.8646 1.95275 47.971C2.16555 48.0014 2.37835 48.0166 2.59115 48.0318C3.22955 48.0318 3.86795 48.0318 4.50635 48.0318C4.68875 48.0318 4.88635 48.0014 5.06875 47.9862C5.20555 47.971 5.32715 47.9102 5.43355 47.819C5.67675 47.6214 5.64635 47.3022 5.49435 47.135C5.38795 47.0286 5.26635 46.9222 5.12955 46.8462C4.91675 46.7398 4.70395 46.6638 4.49115 46.5726C4.24795 46.4814 4.00475 46.4054 3.76155 46.3142C3.67035 46.2382 3.60955 46.2078 3.50315 46.1622Z" fill="#7D7D7D"/>
<path d="M24.2968 23.1494C24.2512 23.1646 24.1904 23.195 24.1448 23.195C23.5824 23.2406 23.0352 23.2862 22.4728 23.3318C22.4576 23.3318 22.4272 23.3166 22.412 23.3166C22.3968 21.9334 22.4424 20.5502 22.3664 19.167C22.3512 18.9846 22.336 18.8174 22.2904 18.635C22.2296 18.3158 22.032 18.103 21.728 17.9814C21.4848 17.8902 21.2264 17.8446 20.968 17.8446C20.8616 17.8446 20.74 17.8446 20.6336 17.8142C20.588 17.799 20.5424 17.7382 20.5424 17.6926C20.5424 17.647 20.5728 17.571 20.6184 17.571C20.7096 17.5406 20.816 17.5254 20.9072 17.5254C21.272 17.5254 21.6368 17.5254 22.0168 17.5406C22.8984 17.5862 23.78 17.6014 24.6616 17.5406C24.9352 17.5254 25.224 17.5254 25.4976 17.5254C25.5888 17.5254 25.68 17.5406 25.756 17.571C25.8168 17.5862 25.8472 17.6318 25.8472 17.6926C25.8472 17.7686 25.8016 17.8142 25.7256 17.8294C25.6648 17.8446 25.6192 17.8446 25.5584 17.8446C25.3912 17.875 25.224 17.8902 25.0568 17.9206C24.7376 17.9814 24.54 18.1638 24.4488 18.4678C24.4032 18.6198 24.3728 18.787 24.3576 18.9542C24.3272 19.3342 24.312 19.7142 24.2968 20.0942C24.2968 21.1126 24.2968 22.131 24.2968 23.1494Z" fill="#0777BD"/>
<path d="M65.4431 48.7313C65.3823 48.5033 65.3975 48.2753 65.4279 48.0321C65.5343 48.0169 65.6255 48.0169 65.7167 48.0169C66.0359 48.0169 66.3399 48.0169 66.6591 48.0169C66.7959 48.0169 66.9327 47.9865 67.0543 47.9561C67.2975 47.8953 67.4495 47.7129 67.5103 47.4697C67.5559 47.2873 67.5559 47.1049 67.5255 46.8921C67.4343 46.8921 67.3583 46.8769 67.2823 46.8769C66.9935 46.8769 66.7047 46.8769 66.4159 46.8769C66.1727 46.8769 65.9295 46.8313 65.6863 46.7553C65.2759 46.6185 65.0023 46.3449 64.8503 45.9497C64.7743 45.7369 64.7135 45.5241 64.7135 45.2961C64.6983 44.9009 64.6831 44.5209 64.7895 44.1257C64.9263 43.6849 65.1543 43.3201 65.5495 43.0617C65.8079 42.9097 66.0815 42.8185 66.3703 42.8033C66.9023 42.7729 67.4191 42.8641 67.8295 43.2441C68.1183 43.5177 68.2551 43.8673 68.3159 44.2473C68.3463 44.5057 68.3767 44.7641 68.3767 45.0073C68.3919 45.6457 68.3767 46.2841 68.3767 46.9225C68.3767 47.1049 68.3615 47.3025 68.3311 47.4849C68.2247 48.2297 67.7383 48.6705 66.9783 48.7313C66.6743 48.7617 66.3551 48.7465 66.0359 48.7465C65.8535 48.7617 65.6559 48.7921 65.4431 48.7313ZM67.5103 46.1321C67.5407 46.0713 67.5559 46.0561 67.5559 46.0409C67.5559 45.5545 67.5559 45.0529 67.5559 44.5665C67.5559 44.3689 67.4799 44.1713 67.3887 43.9889C67.2823 43.7913 67.1151 43.6697 66.9023 43.6089C66.3551 43.4569 65.8839 43.6849 65.6711 44.2169C65.5039 44.6425 65.4887 45.0833 65.6103 45.5241C65.6863 45.8129 65.8991 45.9953 66.1879 46.0713C66.2791 46.1017 66.3551 46.1169 66.4463 46.1169C66.7807 46.1321 67.1303 46.1321 67.5103 46.1321Z" fill="#7D7D7D"/>
<path d="M10.5711 48.7618C10.5407 48.5034 10.5407 48.2754 10.5711 48.0474C10.6471 48.0322 10.7079 48.017 10.7687 48.017C11.1031 48.017 11.4375 48.017 11.7719 48.017C11.9087 48.017 12.0455 48.0018 12.1671 47.9714C12.4255 47.9106 12.5623 47.7434 12.6383 47.5002C12.6991 47.3178 12.6991 47.1202 12.6687 46.9226C12.5927 46.9074 12.5167 46.8922 12.4407 46.8922C12.1367 46.8922 11.8327 46.8922 11.5287 46.8922C11.3007 46.8922 11.0879 46.8466 10.8751 46.7858C10.4191 46.649 10.0999 46.3602 9.94791 45.889C9.73511 45.2354 9.75031 44.5666 9.99351 43.913C10.2823 43.153 10.9663 42.773 11.8023 42.8186C12.0303 42.8338 12.2735 42.8642 12.4863 42.9554C12.8967 43.1226 13.1855 43.4266 13.3375 43.8522C13.4135 44.0802 13.4743 44.3234 13.4743 44.5666C13.4743 45.4786 13.4743 46.4058 13.4743 47.3178C13.4743 47.5002 13.4287 47.6826 13.3679 47.8346C13.1551 48.4274 12.6839 48.701 12.0911 48.7466C11.7871 48.777 11.4679 48.7618 11.1487 48.7618C10.9815 48.7618 10.7991 48.7618 10.5711 48.7618ZM12.6383 46.1322C12.6687 46.0714 12.6839 46.0562 12.6839 46.041C12.6839 45.585 12.6991 45.129 12.6839 44.673C12.6839 44.445 12.6231 44.217 12.5015 44.0042C12.3799 43.8066 12.2127 43.6546 11.9847 43.609C11.4223 43.5026 10.9815 43.6394 10.7535 44.293C10.7079 44.3994 10.6927 44.5362 10.6775 44.6426C10.6623 44.825 10.6623 44.9922 10.6623 45.1746C10.6927 45.9194 11.1031 46.0562 11.5743 46.117C11.5895 46.117 11.5895 46.117 11.6047 46.117C11.9543 46.1322 12.2887 46.1322 12.6383 46.1322Z" fill="#7D7D7D"/>
<path d="M35.2104 23.803C34.8912 23.7574 34.5872 23.6966 34.268 23.651C34.116 23.6206 33.964 23.5902 33.812 23.5446C33.812 22.5566 33.812 21.5534 33.812 20.5654C33.812 20.1702 33.812 19.7598 33.7968 19.3646C33.7816 19.1518 33.7664 18.939 33.736 18.7262C33.6752 18.3462 33.4624 18.0726 33.0824 17.9662C32.8392 17.8902 32.6112 17.8598 32.3528 17.8446C32.2464 17.8446 32.1552 17.8446 32.0488 17.8142C32.0032 17.799 31.9576 17.7382 31.9424 17.7078C31.9424 17.6622 31.9728 17.5862 32.0184 17.5862C32.1096 17.5558 32.216 17.5254 32.3072 17.5254C32.672 17.5254 33.0368 17.5254 33.4168 17.5558C34.1616 17.5862 34.9064 17.6166 35.6512 17.5558C35.8792 17.5406 36.1224 17.5406 36.3504 17.5406C36.4872 17.5406 36.624 17.5558 36.7304 17.6318C36.7304 17.6926 36.7456 17.7382 36.7456 17.799C36.6696 17.8598 36.5632 17.875 36.4568 17.875C36.3048 17.8902 36.1528 17.9054 36.0008 17.951C35.636 18.027 35.408 18.2398 35.3168 18.6046C35.2864 18.6958 35.2712 18.8022 35.256 18.8934C35.2256 19.1974 35.1952 19.4862 35.1952 19.7902C35.2256 21.1126 35.2256 22.4502 35.2104 23.803Z" fill="#0777BD"/>
<path d="M59.7735 43.6393C60.0775 43.2289 60.4423 42.9857 60.9135 42.8641C61.3391 42.7577 61.7799 42.7729 62.2055 42.8945C62.9503 43.0921 63.3911 43.5785 63.5583 44.3081C63.6647 44.7793 63.6647 45.2657 63.6191 45.7369C63.6191 45.8129 63.5887 45.8889 63.5735 45.9649C63.4215 46.5729 63.0871 46.7857 62.5399 46.8465C62.4335 46.8617 62.3423 46.8617 62.2359 46.8617C61.7191 46.8617 61.2023 46.8617 60.7007 46.8617C60.6247 46.8617 60.5487 46.8617 60.4727 46.8617C60.2903 46.8617 60.1079 46.8921 60.0167 47.0745C59.8951 47.2873 59.8951 47.5001 59.9863 47.7129C60.0319 47.8193 60.1231 47.8953 60.2295 47.9257C60.3815 47.9561 60.5335 47.9713 60.6855 47.9865C60.8375 48.0017 61.0047 47.9713 61.1567 48.0169C61.2327 48.2449 61.2175 48.4729 61.1719 48.7009C60.7463 48.7921 60.1231 48.7465 59.7735 48.5945C59.3327 48.4121 59.1047 48.0929 59.0743 47.6217C59.0591 47.4545 59.0591 47.2873 59.0895 47.1201C59.1807 46.5729 59.6063 46.1777 60.1991 46.1169C60.3207 46.1017 60.4423 46.1017 60.5639 46.1017C61.0047 46.1017 61.4303 46.1017 61.8711 46.1017C62.0231 46.1017 62.1751 46.0713 62.3423 46.0561C62.5551 46.0257 62.6767 45.8889 62.7375 45.6913C62.7527 45.6305 62.7679 45.5849 62.7679 45.5241C62.7831 45.1593 62.7983 44.8097 62.7071 44.4601C62.5855 44.0041 62.3423 43.6697 61.8559 43.5785C61.3999 43.4873 60.9591 43.5633 60.5943 43.8673C60.5183 43.9281 60.4423 43.9889 60.3511 44.0649C60.1231 44.0041 59.9711 43.8369 59.7735 43.6393Z" fill="#7D7D7D"/>
<path d="M72.9975 43.0009C73.2407 43.0009 73.4687 43.0009 73.7119 43.0009C73.7271 43.0769 73.7575 43.1377 73.7575 43.1985C73.7575 44.0649 73.7575 44.9161 73.7575 45.7825C73.7575 45.9649 73.7119 46.1321 73.6663 46.2993C73.5903 46.5729 73.4079 46.7401 73.1343 46.8161C73.0127 46.8465 72.8911 46.8769 72.7695 46.8769C72.3743 46.8921 71.9943 46.8769 71.5991 46.8769C71.4471 46.8769 71.3103 46.8465 71.1735 46.7857C71.0975 46.7553 71.0367 46.7097 70.9759 46.6793C70.8847 46.7097 70.8999 46.7705 70.8999 46.8313C70.8999 47.0137 70.8999 47.1961 70.8999 47.3633C70.8999 47.5001 70.8695 47.6369 70.8391 47.7585C70.7175 48.2601 70.3983 48.5793 69.8967 48.7009C69.6383 48.7617 69.3343 48.7769 69.0151 48.7161C68.9847 48.5033 68.9847 48.2905 69.0151 48.0473C69.0759 48.0321 69.1367 48.0169 69.1975 48.0017C69.2279 48.0017 69.2583 48.0017 69.3039 48.0017C69.8967 48.0169 70.0943 47.6217 70.0943 47.2113C70.0943 46.4969 70.0943 45.7825 70.0943 45.0681C70.0943 44.5057 70.0943 43.9281 70.0943 43.3657C70.0943 43.2593 70.0943 43.1529 70.1095 43.0313C70.3679 42.9553 70.6111 43.0009 70.8391 43.0009C70.9455 43.0921 70.9151 43.1985 70.9151 43.2897C70.9151 43.9433 70.9151 44.6121 70.9151 45.2657C70.9151 45.3721 70.9151 45.4633 70.9303 45.5697C70.9607 45.8281 71.1127 45.9953 71.3711 46.0713C71.4927 46.1169 71.6295 46.1321 71.7663 46.1321C71.9943 46.1473 72.2375 46.1321 72.4655 46.1321C72.5415 46.1321 72.6175 46.1169 72.6935 46.0865C72.8303 46.0561 72.9063 45.9649 72.9215 45.8281C72.9367 45.7217 72.9367 45.6001 72.9367 45.4937C72.9367 44.7945 72.9367 44.0801 72.9367 43.3809C72.9215 43.2593 72.8911 43.1377 72.9975 43.0009Z" fill="#7D7D7D"/>
<path d="M2.6672 54.1272C2.6824 54.1424 2.6824 54.1728 2.6976 54.1728C3.1232 54.4768 3.16881 54.9024 3.0928 55.3736C3.03201 55.7232 2.804 55.9664 2.4696 56.1032C2.27201 56.1792 2.0592 56.2096 1.8464 56.2248C1.36 56.24 0.888805 56.2248 0.402405 56.2248C0.356805 56.2248 0.311205 56.2096 0.265605 56.1944C0.220005 55.86 0.250405 55.5256 0.250405 55.1912C0.250405 54.872 0.250405 54.5376 0.250405 54.2184C0.250405 53.884 0.250405 53.5496 0.250405 53.2152C0.250405 52.896 0.235205 52.5768 0.250405 52.2424C0.341605 52.2272 0.402405 52.1968 0.463205 52.1968C0.919205 52.1968 1.3752 52.1968 1.8312 52.1968C1.9832 52.1968 2.1504 52.212 2.2872 52.2576C2.7432 52.3792 3.0168 52.7288 3.0472 53.2C3.0624 53.5344 2.9864 53.8232 2.71281 54.036C2.69761 54.0512 2.6824 54.0664 2.6672 54.0816C2.6672 54.112 2.6672 54.112 2.6672 54.1272ZM0.964805 54.5528C0.934405 54.8872 0.934405 55.2216 0.964805 55.5864C1.31441 55.6168 1.63361 55.6168 1.96801 55.5864C2.02881 55.5864 2.0896 55.5408 2.1504 55.5104C2.3328 55.404 2.42401 55.1912 2.3936 54.9632C2.34801 54.7048 2.19601 54.5528 1.96801 54.5072C1.83121 54.492 1.17761 54.5072 0.964805 54.5528ZM0.964805 53.8536C1.29921 53.884 1.6184 53.884 1.9224 53.8536C2.0896 53.8384 2.2264 53.7472 2.2872 53.5952C2.4088 53.2912 2.3024 52.8656 1.8312 52.8504C1.6032 52.8352 1.3904 52.8504 1.1624 52.8504C1.1016 52.8504 1.04081 52.8656 0.964805 52.8808C0.934405 53.2 0.949605 53.504 0.964805 53.8536Z" fill="#7D7D7D"/>
<path d="M26.2879 56.0423C26.2879 56.4679 26.2727 56.8327 26.2727 57.2127C26.0295 57.2887 25.9839 57.2887 25.6191 57.2431C25.6039 57.1823 25.5887 57.1215 25.5887 57.0607C25.5431 55.9967 25.5735 53.6863 25.6343 53.3975C25.7255 53.3975 25.8167 53.3823 25.9231 53.3823C26.0295 53.3823 26.1207 53.3823 26.2119 53.3823C26.2575 53.4279 26.3031 53.4735 26.3487 53.5191C26.3943 53.4887 26.4399 53.4735 26.4855 53.4431C26.7591 53.2759 27.0327 53.2911 27.3215 53.3519C27.6407 53.4127 27.8535 53.6103 27.9751 53.9143C28.0055 53.9903 28.0207 54.0663 28.0511 54.1423C28.1423 54.5831 28.1423 55.0239 28.0511 55.4647C27.8839 56.1791 27.1695 56.5135 26.5159 56.1943C26.4551 56.1487 26.4095 56.1183 26.2879 56.0423ZM26.2727 54.7807C26.2879 54.9327 26.2879 55.0543 26.3031 55.1759C26.3183 55.2519 26.3335 55.3279 26.3639 55.4039C26.4703 55.6167 26.6375 55.7079 26.9111 55.6927C27.1391 55.6775 27.2911 55.5711 27.3519 55.3583C27.4583 54.9935 27.4583 54.6287 27.3519 54.2791C27.3215 54.1727 27.2455 54.0815 27.1543 54.0207C26.8199 53.8079 26.3943 53.9903 26.3183 54.3703C26.2879 54.4919 26.2879 54.6439 26.2727 54.7807Z" fill="#7D7D80"/>
<path d="M18.0799 53.3369C18.0039 53.2305 17.9583 53.1393 17.8975 53.0633C17.6999 52.8201 17.4415 52.7441 17.1527 52.7897C16.8639 52.8353 16.6815 53.0329 16.5903 53.3065C16.5599 53.4281 16.5295 53.5497 16.5295 53.6713C16.5143 54.0209 16.5143 54.3705 16.5295 54.7049C16.5295 54.8417 16.5599 54.9785 16.5903 55.1001C16.7879 55.7537 17.5479 55.7537 17.8519 55.4041C17.9279 55.3129 18.0039 55.2065 18.0799 55.1153C18.2015 55.1001 18.2927 55.1761 18.3839 55.2217C18.4751 55.2673 18.5663 55.3129 18.6575 55.3737C18.6271 55.4497 18.6271 55.5105 18.5967 55.5561C18.3383 55.9969 17.9583 56.2553 17.4263 56.2705C17.2287 56.2705 17.0159 56.2705 16.8335 56.2249C16.2559 56.0729 15.9671 55.6625 15.8607 55.1001C15.7543 54.5225 15.7695 53.9449 15.8607 53.3673C15.9063 53.0633 16.0127 52.7745 16.2407 52.5617C16.7119 52.1057 17.2591 52.0601 17.8519 52.2425C18.2471 52.3641 18.5055 52.6529 18.6727 53.0329C18.4903 53.1697 18.3079 53.2457 18.0799 53.3369Z" fill="#7D7D7D"/>
<path d="M28.6744 46.8617C28.4312 46.8617 28.188 46.8617 27.9448 46.8617C27.9296 46.8009 27.9144 46.7401 27.8992 46.6641C27.8992 46.6033 27.8992 46.5273 27.8992 46.4665C27.8992 44.5817 27.8992 42.6969 27.8992 40.8121C27.8992 40.7057 27.8992 40.5841 27.8992 40.4625C28.1728 40.3865 28.416 40.4169 28.6592 40.4321C28.7504 40.5385 28.72 40.6297 28.72 40.7361C28.72 41.3593 28.72 41.9825 28.72 42.6057C28.72 43.8825 28.72 45.1745 28.72 46.4513C28.7048 46.5881 28.7352 46.7097 28.6744 46.8617Z" fill="#797A7D"/>
<path d="M64.5464 56.1945C64.364 56.2401 64.1968 56.2401 64.0296 56.2097C63.984 56.2097 63.9384 56.1337 63.8624 56.0729C63.8472 56.0729 63.8016 56.0881 63.7712 56.1185C63.4824 56.3009 63.1632 56.3161 62.8288 56.2553C62.4488 56.1793 62.1904 55.8905 62.16 55.5257C62.1296 55.0545 62.312 54.7505 62.7072 54.5985C62.8896 54.5377 63.072 54.5073 63.2696 54.5073C63.4672 54.5073 63.6648 54.5225 63.8472 54.4921C63.9232 54.3705 63.8928 54.2793 63.8776 54.1729C63.832 54.0057 63.7256 53.8993 63.5432 53.8841C63.1936 53.8537 63.0112 53.8233 62.6008 54.0513C62.464 53.9449 62.4032 53.7777 62.312 53.6105C62.3728 53.5649 62.4032 53.5193 62.464 53.4889C62.6768 53.3673 62.92 53.2913 63.1632 53.2913C63.4216 53.2913 63.68 53.2761 63.9232 53.3521C64.2424 53.4433 64.44 53.6409 64.5008 53.9753C64.516 54.0665 64.5312 54.1729 64.5312 54.2793C64.5312 54.8721 64.5312 55.4649 64.5312 56.0577C64.5616 56.1033 64.5464 56.1337 64.5464 56.1945ZM63.908 55.0089C63.6648 54.9937 63.4368 54.9785 63.224 55.0241C63.1632 55.0393 63.0872 55.0545 63.0264 55.0697C62.8896 55.1305 62.8288 55.2369 62.8288 55.3889C62.8288 55.5409 62.8896 55.6473 63.0416 55.6929C63.1784 55.7233 63.3304 55.7385 63.4672 55.7233C63.8168 55.6777 63.9384 55.4953 63.9232 55.2217C63.9232 55.1609 63.908 55.1153 63.908 55.0089Z" fill="#7D7D80"/>
<path d="M66.0968 56.1942C65.8536 56.2398 65.6712 56.2246 65.4584 56.2094C65.4432 56.1486 65.428 56.103 65.428 56.0422C65.428 55.2214 65.428 54.3854 65.428 53.5646C65.428 53.5038 65.4432 53.4582 65.4584 53.3974C65.6408 53.3518 65.8232 53.367 65.9904 53.3822C66.0512 53.3822 66.112 53.4582 66.1728 53.519C66.2184 53.4886 66.2792 53.4582 66.34 53.4278C66.9936 53.0782 67.7232 53.4582 67.8144 54.1878C67.8296 54.2486 67.8296 54.3246 67.8296 54.3854C67.8296 54.9326 67.8296 55.4798 67.8296 56.027C67.8296 56.0878 67.8144 56.1334 67.8144 56.2094C67.6016 56.2398 67.404 56.2398 67.1912 56.2094C67.176 56.1334 67.1608 56.0574 67.1608 55.9814C67.1608 55.5406 67.1608 55.0846 67.1608 54.6438C67.1608 54.5374 67.1608 54.4158 67.1304 54.3094C67.0848 54.0662 66.9024 53.9142 66.6592 53.9142C66.4008 53.899 66.2032 54.051 66.1424 54.2942C66.112 54.4158 66.112 54.5374 66.112 54.659C66.112 55.0542 66.112 55.4342 66.112 55.8294C66.0968 55.9358 66.0968 56.0422 66.0968 56.1942Z" fill="#7D7D7D"/>
<path d="M46.3824 55.7689C46.1392 56.0881 45.82 56.2249 45.4704 56.2705C45.3032 56.2857 45.136 56.2857 44.9688 56.2705C44.5128 56.2249 44.2088 55.9969 44.0264 55.5713C43.92 55.3129 43.8896 55.0241 43.9048 54.7505C43.9048 54.5529 43.9352 54.3553 43.9808 54.1577C44.0872 53.7321 44.376 53.4737 44.8016 53.3673C45.1056 53.2913 45.3944 53.3065 45.6832 53.4281C45.9872 53.5497 46.2 53.7777 46.3064 54.0817C46.3976 54.3705 46.428 54.6745 46.3824 54.9937C46.3064 55.0089 46.2304 55.0241 46.1544 55.0241C45.7592 55.0241 45.3488 55.0241 44.9536 55.0241C44.8472 55.0241 44.7256 55.0241 44.6192 55.0393C44.528 55.2065 44.6192 55.3281 44.6952 55.4497C44.7712 55.5865 44.8928 55.6625 45.0448 55.6777C45.3184 55.7233 45.5768 55.6929 45.8048 55.5105C45.8504 55.4801 45.896 55.4497 45.9416 55.4041C46.124 55.4801 46.2608 55.6017 46.3824 55.7689ZM45.7288 54.4921C45.7592 54.2945 45.6832 54.1425 45.5616 54.0209C45.44 53.9145 45.288 53.8689 45.136 53.8689C44.8472 53.8841 44.5128 54.1273 44.6192 54.4769C44.8928 54.5225 45.4248 54.5225 45.7288 54.4921Z" fill="#7D7D7D"/>
<path d="M72.1007 55.0088C72.0703 55.2216 72.1463 55.3584 72.2375 55.48C72.3287 55.6016 72.4655 55.6624 72.6175 55.6776C72.8759 55.6928 73.1343 55.6624 73.3319 55.48C73.3623 55.4496 73.4079 55.4344 73.4383 55.404C73.6055 55.4952 73.7119 55.6168 73.8487 55.7536C73.8031 55.8296 73.7727 55.8904 73.7271 55.9208C73.4839 56.1336 73.2103 56.2552 72.8759 56.2704C72.7239 56.2704 72.5567 56.2856 72.4047 56.2704C71.9791 56.2096 71.6751 55.9968 71.5079 55.6016C71.3863 55.328 71.3711 55.0392 71.3711 54.7504C71.3711 54.5376 71.4015 54.3248 71.4623 54.1272C71.5687 53.732 71.8423 53.4888 72.2375 53.3672C72.5415 53.2912 72.8303 53.2912 73.1191 53.3976C73.4535 53.5192 73.6815 53.7624 73.7879 54.0968C73.8791 54.3704 73.8791 54.6592 73.8639 54.9784C73.7727 54.9936 73.6967 55.0088 73.6359 55.0088C73.2407 55.0088 72.8303 55.0088 72.4351 55.0088C72.3439 55.0088 72.2375 55.0088 72.1007 55.0088ZM72.1007 54.492C72.5111 54.5376 72.9671 54.5224 73.2103 54.4768C73.2103 54.2488 73.1799 54.1424 73.0583 54.036C72.9367 53.9296 72.7847 53.8688 72.6327 53.884C72.4807 53.884 72.3287 53.9296 72.2071 54.0664C72.1159 54.1728 72.0551 54.3096 72.1007 54.492Z" fill="#7D7D7D"/>
<path d="M31.1975 54.9782C30.9695 55.0238 30.7719 54.9934 30.5743 54.9934C30.3919 54.9934 30.1943 54.9934 30.0119 54.9934C29.8143 54.9934 29.6167 54.9782 29.4191 55.0086C29.3583 55.191 29.4343 55.3126 29.5255 55.4342C29.6167 55.5558 29.7383 55.6318 29.8903 55.6622C30.1639 55.6926 30.4223 55.6774 30.6503 55.4798C30.6655 55.4646 30.6807 55.4494 30.6959 55.4342C30.7111 55.419 30.7415 55.419 30.7719 55.3886C30.9391 55.4494 31.0303 55.6014 31.1823 55.723C31.1367 55.799 31.1063 55.8446 31.0607 55.8902C30.9391 56.027 30.7719 56.103 30.6047 56.1638C30.2855 56.2854 29.9511 56.3006 29.6167 56.2246C29.2367 56.1486 28.9631 55.9054 28.8263 55.5254C28.7807 55.3734 28.7351 55.2214 28.7199 55.0694C28.7047 54.8566 28.7047 54.6438 28.7199 54.431C28.7503 53.9902 28.9175 53.6254 29.3431 53.4278C29.7839 53.215 30.2247 53.2302 30.6655 53.4734C30.8479 53.5798 30.9847 53.747 31.0759 53.9446C31.2279 54.279 31.2127 54.6286 31.1975 54.9782ZM30.5135 54.4918C30.5591 54.3094 30.4983 54.1726 30.3919 54.051C30.2703 53.9294 30.1031 53.8686 29.9359 53.8838C29.7839 53.899 29.6319 53.9446 29.5255 54.0662C29.4191 54.1878 29.3583 54.3246 29.4039 54.4918C29.6623 54.5222 30.1791 54.5374 30.5135 54.4918Z" fill="#7D7D7D"/>
<path d="M19.1896 54.811C19.1896 54.583 19.2048 54.3398 19.2808 54.1118C19.3568 53.8382 19.5088 53.6254 19.752 53.4886C20.2232 53.2302 20.7096 53.215 21.1808 53.5038C21.3936 53.6254 21.5304 53.8078 21.6064 54.0358C21.7736 54.5222 21.7736 55.0086 21.6216 55.4798C21.4848 55.9358 21.1504 56.1942 20.664 56.255C20.4968 56.2702 20.3296 56.2702 20.1624 56.255C19.7064 56.179 19.3872 55.9206 19.2504 55.4646C19.22 55.3734 19.2048 55.2974 19.1896 55.2062C19.1896 55.0846 19.1896 54.9478 19.1896 54.811ZM21.044 54.7958C21.0288 54.6438 21.0288 54.4918 20.9984 54.3398C20.9528 54.0814 20.7552 53.9294 20.512 53.9142C20.2384 53.899 20.0256 54.0206 19.9344 54.279C19.828 54.6286 19.828 54.9782 19.9344 55.3278C19.98 55.4798 20.0712 55.5862 20.2232 55.6318C20.5728 55.7382 20.9224 55.647 20.9984 55.2062C21.0288 55.0694 21.0288 54.9478 21.044 54.7958Z" fill="#7D7D7D"/>
<path d="M36.1071 54.492C36.1071 54.416 36.1223 54.3704 36.1223 54.3248C36.0919 54.0208 36.0007 53.9296 35.7119 53.8992C35.4383 53.8688 35.1495 53.8688 34.9063 54.036C34.8759 54.0512 34.8455 54.0512 34.7999 54.0664C34.6783 53.9448 34.6175 53.7928 34.5415 53.6256C34.6023 53.58 34.6479 53.5344 34.6935 53.504C34.9063 53.3824 35.1495 53.3064 35.3927 53.3064C35.6359 53.3064 35.8791 53.2912 36.1223 53.3672C36.5023 53.4736 36.6999 53.7016 36.7455 54.0968C36.7455 54.1576 36.7455 54.2336 36.7455 54.2944C36.7455 54.8416 36.7455 55.3888 36.7455 55.936C36.7455 56.012 36.7303 56.088 36.7303 56.1792C36.5479 56.2248 36.3807 56.2096 36.2287 56.1944C36.1831 56.1944 36.1375 56.1184 36.0767 56.0576C36.0463 56.0728 36.0007 56.1032 35.9399 56.1336C35.6359 56.316 35.3015 56.316 34.9671 56.2248C34.5111 56.1032 34.3743 55.7688 34.3591 55.404C34.3591 54.9784 34.5719 54.72 34.9671 54.5832C35.1343 54.5224 35.3167 54.5072 35.4991 54.5072C35.6967 54.5072 35.8943 54.5376 36.1071 54.492ZM36.0919 55.024C35.8031 54.9936 35.5295 54.9784 35.2559 55.0696C35.0887 55.1152 35.0127 55.2368 35.0127 55.3888C35.0127 55.556 35.1191 55.6776 35.2863 55.7232C35.3927 55.7384 35.5143 55.7384 35.6207 55.7384C36.0311 55.708 36.1983 55.4648 36.0919 55.024Z" fill="#7D7D7D"/>
<path d="M11.3311 53.3975C11.3919 53.3823 11.4375 53.3671 11.4831 53.3671C11.6351 53.3671 11.7871 53.3671 11.9543 53.3671C11.9695 53.4431 11.9999 53.4887 11.9999 53.5343C11.9999 54.3703 11.9999 55.2063 11.9999 56.0423C11.9999 56.0879 11.9847 56.1335 11.9695 56.1791C11.7871 56.2247 11.6047 56.2095 11.4375 56.1943C11.3767 56.1943 11.3159 56.1031 11.2551 56.0423C11.0879 56.1487 10.9055 56.2399 10.6927 56.2551C10.1151 56.3007 9.65915 55.9207 9.62875 55.3431C9.59835 54.7047 9.62875 54.0511 9.62875 53.3975C9.84155 53.3215 10.0391 53.3519 10.2671 53.3671C10.2823 53.4583 10.2975 53.5191 10.2975 53.5951C10.2975 54.0511 10.2975 54.5071 10.2975 54.9631C10.2975 55.0847 10.3127 55.2063 10.3431 55.3279C10.4191 55.5559 10.5863 55.6471 10.8295 55.6471C11.0727 55.6319 11.2399 55.5103 11.2855 55.2823C11.3159 55.1607 11.3159 55.0391 11.3159 54.9175C11.3159 54.5223 11.3159 54.1119 11.3159 53.7167C11.3159 53.6255 11.3311 53.5191 11.3311 53.3975Z" fill="#7D7D80"/>
<path d="M24.844 54.7961C24.844 55.0241 24.8288 55.2673 24.7528 55.4953C24.6008 55.9513 24.2512 56.2401 23.7648 56.2705C23.5824 56.2857 23.4 56.2857 23.2328 56.2553C22.8072 56.1641 22.5184 55.9209 22.3968 55.4801C22.2752 55.0393 22.2752 54.5985 22.3816 54.1577C22.5032 53.7017 22.8072 53.4433 23.2632 53.3369C23.476 53.2913 23.6888 53.2913 23.9016 53.3369C24.4184 53.4433 24.7528 53.8081 24.8136 54.3553C24.844 54.5073 24.844 54.6441 24.844 54.7961ZM22.9896 54.7809C23.0048 54.9481 23.0048 55.1001 23.0352 55.2369C23.0808 55.5105 23.2784 55.6625 23.552 55.6777C23.856 55.6929 24.0384 55.5713 24.1296 55.2825C24.1448 55.2217 24.16 55.1457 24.16 55.0849C24.16 54.9025 24.1752 54.7049 24.16 54.5225C24.1448 54.4009 24.1144 54.2793 24.0536 54.1729C23.9776 54.0057 23.8256 53.9297 23.6432 53.9145C23.3392 53.8993 23.1264 54.0361 23.0504 54.3401C23.0048 54.4769 23.0048 54.6441 22.9896 54.7809Z" fill="#7D7D7D"/>
<path d="M58.8615 56.1942C58.6487 56.255 58.4663 56.2398 58.2839 56.2094C58.2383 56.2094 58.1927 56.1182 58.1319 56.0726C58.1015 56.0878 58.0559 56.103 58.0255 56.1334C57.7671 56.3158 57.4783 56.3158 57.1895 56.255C56.8247 56.179 56.5511 55.8446 56.4903 55.4494C56.4751 55.3886 56.4751 55.3126 56.4751 55.2518C56.4751 54.6894 56.4751 54.1422 56.4751 53.5798C56.4751 53.5342 56.4903 53.4886 56.4903 53.4278C56.6879 53.3518 56.9007 53.3822 57.1135 53.3974C57.1287 53.4886 57.1439 53.5494 57.1439 53.6254C57.1439 54.0814 57.1439 54.5374 57.1439 54.9934C57.1439 55.115 57.1591 55.2366 57.1895 55.3582C57.2655 55.5862 57.4327 55.6774 57.6759 55.6774C57.9191 55.6622 58.0863 55.5406 58.1319 55.3126C58.1623 55.191 58.1623 55.0694 58.1623 54.9478C58.1623 54.5526 58.1623 54.1422 58.1623 53.747C58.1623 53.6406 58.1775 53.5342 58.1775 53.4126C58.3903 53.367 58.5879 53.3822 58.8159 53.3974C58.8311 53.4582 58.8615 53.519 58.8615 53.595C58.8615 54.4158 58.8615 55.2214 58.8615 56.0422C58.8767 56.0726 58.8615 56.1182 58.8615 56.1942Z" fill="#7D7D7D"/>
<path d="M5.44879 56.0575C5.22079 56.2399 4.96239 56.3159 4.67359 56.2703C4.24799 56.2247 3.94399 55.9511 3.85279 55.5103C3.83759 55.4191 3.82239 55.3127 3.82239 55.2063C3.82239 54.6439 3.82239 54.0967 3.82239 53.5343C3.82239 53.4887 3.83759 53.4431 3.83759 53.3823C4.05039 53.3367 4.24799 53.3519 4.47599 53.3823C4.47599 53.4887 4.49119 53.5799 4.49119 53.6863C4.49119 54.0815 4.49119 54.4919 4.49119 54.8871C4.49119 55.0087 4.49119 55.1303 4.50639 55.2519C4.55199 55.4799 4.68879 55.6167 4.90159 55.6471C5.15999 55.6775 5.34239 55.5863 5.44879 55.3735C5.50959 55.2519 5.50959 55.1151 5.50959 54.9783C5.50959 54.5679 5.50959 54.1575 5.50959 53.7471C5.50959 53.6407 5.50959 53.5343 5.50959 53.3975C5.73759 53.3215 5.93519 53.3519 6.13279 53.3671C6.17839 53.6407 6.19359 55.8143 6.14799 56.1639C5.98079 56.2399 5.79839 56.2095 5.63119 56.1943C5.58559 56.2095 5.53999 56.1183 5.44879 56.0575Z" fill="#7D7D7D"/>
<path d="M53.3287 55.7992C53.3591 55.7536 53.3895 55.708 53.4199 55.6776C53.5111 55.5864 53.6023 55.48 53.7087 55.3736C53.7847 55.404 53.8455 55.4344 53.8911 55.4648C54.0735 55.5864 54.2711 55.6624 54.4839 55.6928C54.6359 55.7232 54.8031 55.6928 54.9399 55.632C55.0615 55.5864 55.1375 55.4496 55.1223 55.3432C55.1071 55.2216 55.0311 55.1456 54.9095 55.1152C54.7575 55.0848 54.6055 55.0696 54.4535 55.0392C54.3167 55.024 54.1799 55.0088 54.0583 54.9632C53.7239 54.872 53.5263 54.644 53.4959 54.2944C53.4655 53.9448 53.5719 53.656 53.8759 53.4584C53.9519 53.4128 54.0279 53.3672 54.1191 53.352C54.6359 53.2152 55.1375 53.276 55.5935 53.58C55.6239 53.6104 55.6543 53.6408 55.6847 53.6864C55.5935 53.8536 55.4871 53.9904 55.3351 54.112C55.2591 54.0816 55.1983 54.036 55.1223 54.0056C54.9551 53.9296 54.7879 53.884 54.6055 53.884C54.4991 53.884 54.4079 53.8992 54.3167 53.9296C54.2103 53.96 54.1495 54.036 54.1495 54.1576C54.1495 54.2792 54.2103 54.3552 54.3015 54.3856C54.4079 54.416 54.5143 54.4464 54.6207 54.4616C54.7727 54.492 54.9247 54.492 55.0919 54.5224C55.5175 54.6136 55.7455 54.8416 55.7911 55.2216C55.8215 55.5104 55.7151 55.9208 55.3047 56.1336C55.1071 56.24 54.8791 56.2704 54.6511 56.2704C54.1343 56.316 53.7391 56.164 53.3287 55.7992Z" fill="#7D7D7D"/>
<path d="M50.9119 56.179C50.6687 56.2246 50.4711 56.2094 50.2887 56.1942C50.2735 56.1334 50.2583 56.103 50.2583 56.0726C50.2583 55.2062 50.2583 54.355 50.2583 53.4886C50.2583 53.4582 50.2735 53.4278 50.2887 53.3822C50.4863 53.3518 50.6839 53.3518 50.8815 53.367C50.9119 53.4278 50.9271 53.4734 50.9575 53.5342C51.0183 53.5038 51.0791 53.4582 51.1247 53.4278C51.7327 53.0782 52.6295 53.367 52.6447 54.2942C52.6599 54.8566 52.6447 55.4342 52.6447 55.9966C52.6447 56.0422 52.6295 56.0878 52.6295 56.1486C52.4319 56.2246 52.2191 56.1942 52.0063 56.1638C51.9911 56.0726 51.9911 55.9966 51.9911 55.9206C51.9911 55.4798 51.9911 55.0238 51.9911 54.583C51.9911 54.4462 51.9759 54.3094 51.9303 54.1878C51.8695 53.9902 51.7023 53.899 51.4895 53.8838C51.2615 53.8686 51.0943 53.9598 51.0031 54.1574C50.9575 54.2942 50.9271 54.431 50.9271 54.583C50.9119 54.9782 50.9271 55.3886 50.9271 55.7838C50.9119 55.9358 50.9119 56.0422 50.9119 56.179Z" fill="#7D7D7D"/>
<path d="M40.8495 53.3975C40.9255 53.3823 40.9711 53.3823 41.0167 53.3823C41.1687 53.3823 41.3207 53.3823 41.5031 53.3823C41.5335 53.4583 41.5791 53.5191 41.6095 53.5951C41.7615 54.0207 41.9135 54.4615 42.0503 54.8871C42.0807 54.9783 42.1111 55.0695 42.1567 55.2063C42.2023 55.1303 42.2327 55.0695 42.2631 55.0239C42.4151 54.5679 42.5671 54.1119 42.7191 53.6559C42.7495 53.5799 42.7799 53.4887 42.8103 53.4127C43.0383 53.3823 43.2359 53.3823 43.4487 53.4127C43.4183 53.6407 42.6583 55.7535 42.4607 56.1791C42.2327 56.2551 42.2327 56.2551 41.8831 56.2095C41.8527 56.1639 41.8071 56.1031 41.7919 56.0423C41.4879 55.2215 41.1839 54.3855 40.8799 53.5647C40.8647 53.5191 40.8647 53.4735 40.8495 53.3975Z" fill="#7D7D7D"/>
<path d="M70.8087 53.8079C70.7023 53.9447 70.5503 54.0663 70.3983 54.1879C70.3071 54.1271 70.2463 54.0663 70.1703 54.0207C69.7751 53.7623 69.3191 53.9599 69.2735 54.4159C69.2431 54.6743 69.2431 54.9327 69.2735 55.1759C69.3343 55.6319 69.7599 55.8143 70.1551 55.5711C70.2311 55.5255 70.3071 55.4647 70.3831 55.4039C70.4591 55.4495 70.5351 55.5103 70.5959 55.5559C70.6719 55.6167 70.7327 55.6927 70.8087 55.7687C70.7327 55.9359 70.6111 56.0271 70.4743 56.1031C70.0943 56.3159 69.6991 56.3159 69.3039 56.1943C68.9543 56.0727 68.7263 55.8295 68.6199 55.4647C68.4983 55.0087 68.4983 54.5527 68.6199 54.1119C68.7263 53.7167 68.9999 53.4583 69.3951 53.3519C69.8967 53.2303 70.3527 53.2911 70.7327 53.6711C70.7631 53.7015 70.7783 53.7167 70.7935 53.7471C70.8087 53.7775 70.7935 53.7775 70.8087 53.8079Z" fill="#7D7D7D"/>
<path d="M37.688 53.9446C37.5816 53.9142 37.5056 53.899 37.4296 53.8838C37.3536 53.7318 37.3992 53.5798 37.3992 53.4278C37.4904 53.3974 37.5664 53.3822 37.6576 53.367C37.7488 53.1086 37.6576 52.835 37.7184 52.5766C37.916 52.5006 38.0224 52.5006 38.3416 52.5614C38.4176 52.8198 38.3416 53.0782 38.3872 53.3518C38.5088 53.4582 38.676 53.3518 38.8128 53.4582C38.8432 53.595 38.8432 53.747 38.8128 53.9142C38.676 53.9294 38.5544 53.9446 38.4024 53.9598C38.3872 54.0206 38.372 54.0814 38.372 54.1422C38.372 54.5374 38.372 54.9478 38.372 55.343C38.372 55.3582 38.372 55.3886 38.372 55.4038C38.3872 55.6014 38.4176 55.647 38.6304 55.6774C38.6912 55.6926 38.7368 55.6926 38.7976 55.6926C38.8584 55.875 38.8432 56.0422 38.8128 56.2398C38.5392 56.3158 38.2656 56.3006 38.0072 56.179C37.8248 56.0878 37.7336 55.9206 37.7032 55.723C37.688 55.6166 37.688 55.495 37.688 55.3886C37.688 55.0238 37.688 54.659 37.688 54.279C37.688 54.1726 37.688 54.0662 37.688 53.9446Z" fill="#7D7D80"/>
<path d="M49.3159 56.1943C49.1031 56.2399 48.8903 56.2399 48.6623 56.1791C48.6471 56.1335 48.6471 56.0879 48.6471 56.0423C48.6471 54.8111 48.6471 53.5647 48.6471 52.3335C48.6471 52.3031 48.6623 52.2727 48.6775 52.2271C48.8903 52.1815 49.1031 52.1815 49.3311 52.2271C49.3463 52.2727 49.3615 52.3031 49.3615 52.3335C49.3615 53.5799 49.3615 54.8263 49.3615 56.0879C49.3463 56.1183 49.3311 56.1487 49.3159 56.1943Z" fill="#7D7D80"/>
<path d="M32.0032 56.2094C31.9576 55.8446 31.9576 53.6558 32.0032 53.3974C32.2008 53.3518 32.3984 53.3822 32.596 53.3822C32.6264 53.443 32.6568 53.4886 32.672 53.5342C32.6872 53.5342 32.7176 53.5494 32.7328 53.5342C32.9456 53.3366 33.204 53.2758 33.4776 53.3062C33.6752 53.3214 33.8576 53.4126 33.9944 53.5646C33.9032 53.7622 33.7664 53.8838 33.6448 54.0358C33.5688 54.0054 33.508 53.9902 33.4472 53.9598C33.3864 53.9446 33.3256 53.9142 33.2496 53.899C32.9456 53.8534 32.7176 54.0054 32.6568 54.3094C32.6264 54.4462 32.6264 54.5678 32.6264 54.7046C32.6264 55.0694 32.6264 55.4342 32.6264 55.8142C32.6264 55.9206 32.6264 56.0422 32.6264 56.1486C32.4288 56.2702 32.2312 56.2246 32.0032 56.2094Z" fill="#7D7D7D"/>
<path d="M7.13596 53.3978C7.33356 53.3978 7.53116 53.3978 7.72876 53.3978C7.75916 53.4586 7.78956 53.5042 7.81996 53.565C7.85036 53.5498 7.89596 53.5194 7.92636 53.5042C8.30636 53.261 8.70156 53.261 9.05116 53.5042C9.08156 53.5194 9.09676 53.5498 9.11196 53.5802C9.02076 53.8082 9.00556 53.8234 8.74716 54.0666C8.67116 54.0362 8.59516 54.0058 8.50396 53.9754C8.12396 53.8538 7.83516 54.0362 7.78956 54.4314C7.77436 54.5226 7.77436 54.6138 7.77436 54.705C7.77436 55.1002 7.77436 55.4802 7.77436 55.8754C7.77436 55.9818 7.77436 56.0882 7.77436 56.2098C7.54636 56.2858 7.34876 56.2554 7.12076 56.2402C7.05996 56.0426 7.09036 55.8602 7.09036 55.6778C7.09036 55.4954 7.09036 55.2978 7.09036 55.1154C7.09036 54.933 7.09036 54.7658 7.09036 54.5834C7.09036 54.401 7.09036 54.2034 7.09036 54.021C7.10556 53.7778 7.05996 53.5802 7.13596 53.3978Z" fill="#7D7D7D"/>
<path d="M12.38 57.2586C12.38 57.061 12.38 56.8938 12.38 56.7418C12.456 56.6354 12.5624 56.681 12.6384 56.6658C12.8056 56.6354 12.8664 56.5746 12.8816 56.4074C12.8968 56.3162 12.8816 56.225 12.8816 56.1338C12.8816 55.3434 12.8816 54.553 12.8816 53.7626C12.8816 53.6562 12.8816 53.5346 12.8816 53.4434C13.1096 53.3674 13.2008 53.3674 13.5352 53.413C13.5352 53.4738 13.5504 53.5346 13.5504 53.5954C13.5504 54.5074 13.5504 55.4194 13.5504 56.3314C13.5504 56.4074 13.5504 56.4834 13.5352 56.5594C13.4744 56.9394 13.2464 57.1826 12.8664 57.2434C12.7296 57.2738 12.5776 57.2586 12.38 57.2586Z" fill="#7D7D7D"/>
<path d="M59.7736 53.3822C60.0016 53.3822 60.184 53.3822 60.3816 53.3822C60.412 53.443 60.4424 53.4886 60.4576 53.5494C61.02 53.215 61.4152 53.215 61.7648 53.5798C61.704 53.7622 61.552 53.8686 61.4456 54.0358C61.3544 54.0054 61.2936 53.975 61.2176 53.9598C61.1112 53.9294 61.0048 53.899 60.8984 53.899C60.716 53.899 60.5792 53.9902 60.5032 54.1726C60.4424 54.3246 60.412 54.4766 60.412 54.6286C60.412 55.0542 60.412 55.4798 60.412 55.9054C60.412 55.9814 60.412 56.0574 60.412 56.1486C60.1992 56.2398 59.9864 56.1942 59.7736 56.179C59.7128 55.9358 59.7432 55.7078 59.7432 55.4798C59.7432 55.2518 59.7432 55.0086 59.7432 54.7806C59.7432 54.5526 59.7432 54.3398 59.7432 54.1118C59.7584 53.8838 59.7432 53.6558 59.7736 53.3822Z" fill="#7D7D7D"/>
<path d="M45.8351 39.9304C45.8351 39.8088 45.8351 39.7024 45.8351 39.5808C45.9415 39.5504 46.0479 39.5352 46.1543 39.5048C46.1999 39.4288 46.1391 39.3528 46.1087 39.292C46.0479 39.1096 46.0479 38.9424 46.0783 38.76C46.1543 38.3344 46.4887 38.0456 46.9143 38.0304C47.0967 38.0152 47.2943 38.0152 47.4767 38.0912C47.6287 38.152 47.7503 38.2432 47.8263 38.38C47.7959 38.532 47.6743 38.5776 47.5679 38.6536C47.4919 38.608 47.4159 38.5472 47.3399 38.5168C47.1271 38.3952 46.8687 38.4104 46.7167 38.5472C46.5495 38.684 46.4887 38.9728 46.5799 39.2008C46.5951 39.2464 46.6255 39.3072 46.6559 39.3528C46.7471 39.4896 46.8687 39.5656 47.0511 39.5656C47.2335 39.5504 47.4007 39.5656 47.5831 39.5656C47.6743 39.5656 47.7655 39.5808 47.8415 39.5808C47.9175 39.7784 47.9175 39.7784 47.8719 39.9608C47.6135 39.976 46.1999 39.976 45.8351 39.9304Z" fill="#7D7D80"/>
<path d="M39.6032 53.3978C39.816 53.3674 39.9984 53.3674 40.2112 53.3978C40.2568 53.717 40.2264 54.021 40.2416 54.325C40.2416 54.629 40.2416 54.933 40.2416 55.2218C40.2416 55.5258 40.2416 55.845 40.2416 56.1642C40.0288 56.2098 39.8312 56.1946 39.6184 56.1794C39.6032 56.1338 39.5728 56.073 39.5728 56.0274C39.5728 55.1762 39.5728 54.3402 39.5728 53.489C39.588 53.489 39.588 53.4586 39.6032 53.3978Z" fill="#7D7D7D"/>
<path d="M3.39672 50.3881C3.32072 50.1297 3.32072 49.7801 3.39672 49.5217C3.62472 49.4609 3.85272 49.4913 4.08072 49.5065C4.15672 49.5065 4.20232 49.5673 4.20232 49.6433C4.20232 49.8561 4.20232 50.0689 4.20232 50.2817C4.20232 50.3577 4.15672 50.4185 4.08072 50.4185C3.86792 50.4185 3.62472 50.4489 3.39672 50.3881Z" fill="#818285"/>
<path d="M35.1191 43.5632C34.8303 43.6088 34.5871 43.5936 34.3135 43.5784C34.2527 43.2896 34.2831 43.016 34.2831 42.7576C34.3591 42.6664 34.4655 42.6816 34.5415 42.6816C34.6479 42.6816 34.7391 42.6816 34.8455 42.6816C34.9367 42.6816 35.0279 42.6664 35.1039 42.7576C35.1495 43.0008 35.1495 43.2592 35.1191 43.5632Z" fill="#818285"/>
<path d="M73.4991 48.6094C73.2407 48.6094 72.9975 48.6094 72.7543 48.6094C72.6327 48.4726 72.6935 48.3206 72.6935 48.1838C72.6935 48.047 72.6631 47.895 72.7239 47.7582C72.9823 47.6822 73.2559 47.6822 73.5143 47.7582C73.5751 48.0014 73.5751 48.3054 73.4991 48.6094Z" fill="#7D7D80"/>
<path d="M3.03199 50.3881C2.77359 50.4337 2.53039 50.4185 2.30239 50.4033C2.22639 50.4033 2.18079 50.3425 2.18079 50.2665C2.18079 50.0537 2.18079 49.8409 2.18079 49.6281C2.18079 49.5521 2.22639 49.4913 2.30239 49.4913C2.53039 49.4761 2.75839 49.4609 3.00159 49.5065C3.07759 49.8105 3.04719 50.0841 3.03199 50.3881Z" fill="#818285"/>
<path d="M38.828 47.7582C38.828 47.9102 38.8432 48.0014 38.8432 48.1078C38.8432 48.275 38.8432 48.4422 38.8432 48.5942C38.5696 48.6854 38.2656 48.6854 38.0072 48.5942C37.9768 48.3358 37.9768 48.0774 38.0072 47.7886C38.2808 47.7126 38.5392 47.7582 38.828 47.7582Z" fill="#7D7D80"/>
<path d="M40.0135 48.6097C39.7399 48.6857 39.4815 48.6553 39.2079 48.6401C39.1471 48.3513 39.1775 48.0777 39.1775 47.7889C39.4663 47.7281 39.7247 47.7433 39.9983 47.7737C40.0591 48.0625 40.0439 48.3209 40.0135 48.6097Z" fill="#7D7D80"/>
<path d="M49.5287 41.1922C49.5591 41.4962 49.5743 41.7546 49.5287 42.013C49.2855 42.0738 49.0119 42.089 48.7079 42.0282C48.6623 41.9066 48.6927 41.7698 48.6775 41.6482C48.6775 41.5114 48.6775 41.3898 48.6775 41.2378C48.9663 41.1314 49.2247 41.177 49.5287 41.1922Z" fill="#7D7D7D"/>
<path d="M8.8231 42.0281C8.5647 42.0737 8.3063 42.0585 8.0479 42.0433C7.9719 41.8457 7.9567 41.5873 8.0175 41.2073C8.2759 41.1465 8.5343 41.1769 8.8231 41.1921C8.8687 41.4657 8.8687 41.7393 8.8231 42.0281Z" fill="#7D7D80"/>
<path d="M61.5824 48.5942C61.5824 48.3206 61.5824 48.0622 61.5824 47.819C61.7192 47.7126 61.8712 47.7582 62.008 47.7582C62.1448 47.7582 62.2664 47.7431 62.4184 47.7887C62.464 48.0471 62.4488 48.3206 62.4336 48.579C62.2968 48.6854 62.1448 48.6398 62.008 48.6398C61.8712 48.6398 61.7344 48.655 61.5824 48.5942Z" fill="#7D7D80"/>
<path d="M24.2815 41.192C24.2815 41.4352 24.2815 41.648 24.2815 41.8608C24.2815 41.9216 24.2663 41.9672 24.2663 42.028C23.9927 42.0736 23.7343 42.0736 23.4455 42.028C23.4151 41.7544 23.4303 41.496 23.4303 41.2072C23.7191 41.1312 23.9775 41.1768 24.2815 41.192Z" fill="#7D7D80"/>
<path d="M50.6839 41.1922C50.7143 41.481 50.7143 41.7546 50.6839 42.0282C50.4103 42.0738 50.1519 42.0738 49.8783 42.0282C49.8327 41.7394 49.8327 41.4658 49.8783 41.1922C50.1519 41.1618 50.4103 41.1618 50.6839 41.1922Z" fill="#7D7D80"/>
<path d="M23.0807 42.0433C22.8071 42.0433 22.5639 42.0433 22.3055 42.0433C22.2295 41.7697 22.2599 41.4961 22.2903 41.2073C22.5487 41.1465 22.8071 41.1769 23.0655 41.1921C23.1415 41.4657 23.1111 41.7393 23.0807 42.0433Z" fill="#797A7D"/>
<path d="M12.912 52.2425C13.14 52.1817 13.3376 52.1969 13.5504 52.2273C13.5504 52.3337 13.5656 52.4401 13.5656 52.5313C13.5656 52.6225 13.5656 52.7137 13.5656 52.8049C13.3376 52.8809 13.14 52.8505 12.912 52.8353C12.8816 52.6377 12.8968 52.4553 12.912 52.2425Z" fill="#7D7D7D"/>
<path d="M39.6031 52.8504C39.5727 52.6224 39.5727 52.44 39.6031 52.2424C39.8159 52.1816 40.0135 52.1816 40.2263 52.2424C40.2567 52.44 40.2567 52.6224 40.2263 52.82C40.0287 52.8808 39.8311 52.8352 39.6031 52.8504Z" fill="#7D7D80"/>
<path d="M6.5279 29.3818C6.5279 29.397 6.5127 29.4122 6.5127 29.4122V29.397C6.5127 29.3818 6.5279 29.3818 6.5279 29.3818Z" fill="#EB2030"/>
</svg>
