<svg width="40" height="27" viewBox="0 0 40 27" fill="none" xmlns="http://www.w3.org/2000/svg">
<path d="M23.0285 0.39424L38.9997 11.2427C39.3079 11.4521 39.5603 11.7337 39.7347 12.0629C39.9091 12.3922 40.0001 12.7592 40.0001 13.1318C40.0001 13.5044 39.9091 13.8713 39.7347 14.2006C39.5603 14.5299 39.3079 14.8115 38.9997 15.0208L23.0285 25.8693C22.6852 26.1024 22.2849 26.2375 21.8705 26.2601C21.4562 26.2828 21.0435 26.1921 20.6769 25.9979C20.3102 25.8037 20.0034 25.5132 19.7894 25.1577C19.5754 24.8023 19.4622 24.3952 19.4622 23.9802V2.28329C19.4622 1.86836 19.5754 1.46129 19.7894 1.1058C20.0034 0.750314 20.3102 0.459855 20.6769 0.265628C21.0435 0.0714015 21.4562 -0.0192515 21.8705 0.00340837C22.2849 0.0260682 22.6852 0.161183 23.0285 0.39424Z" fill="#146394"/>
<path d="M9.39367 8.03595L16.6235 12.8848C16.7621 12.979 16.8758 13.1054 16.9547 13.2533C17.0336 13.4011 17.0752 13.566 17.0762 13.7336C17.0773 13.9011 17.0374 14.0665 16.9604 14.2153C16.8833 14.3641 16.7712 14.4919 16.6338 14.5878L9.4618 19.5219C9.3073 19.6265 9.1272 19.6875 8.94088 19.6981C8.75457 19.7088 8.56899 19.6688 8.40356 19.5824C8.23813 19.496 8.09899 19.3665 8.00125 19.2075C7.90351 19.0485 7.85076 18.866 7.84836 18.6794L7.79053 8.89563C7.79077 8.70906 7.84168 8.52602 7.93753 8.36595C8.03337 8.20587 8.17065 8.07472 8.335 7.98641C8.49935 7.8981 8.68447 7.85591 8.87085 7.86433C9.05724 7.87275 9.23795 7.93146 9.39367 8.03423" fill="#FAA62E"/>
<g opacity="0.62">
<mask id="mask0_1_679" style="mask-type:luminance" maskUnits="userSpaceOnUse" x="0" y="4" width="12" height="19">
<path d="M11.9476 4.90894H0V22.2274H11.9476V4.90894Z" fill="white"/>
</mask>
<g mask="url(#mask0_1_679)">
<path d="M11.9486 5.08725H5.42608C5.40244 5.08725 5.37971 5.07786 5.36299 5.06114C5.34627 5.04442 5.33691 5.02174 5.33691 4.99809C5.33691 4.97445 5.34627 4.95177 5.36299 4.93505C5.37971 4.91833 5.40244 4.90894 5.42608 4.90894H11.9486" fill="#146394"/>
<path d="M11.9484 22.0499H1.97418C1.95053 22.0499 1.92802 22.0593 1.9113 22.076C1.89458 22.0928 1.88501 22.1154 1.88501 22.1391C1.88501 22.1627 1.89458 22.1854 1.9113 22.2021C1.92802 22.2188 1.95053 22.2282 1.97418 22.2282H11.9484" fill="#146394"/>
<path d="M5.8706 13.6298H0.0887478C0.0652167 13.6298 0.0427166 13.6391 0.0260776 13.6557C0.00943853 13.6724 0 13.695 0 13.7185C0 13.742 0.00943853 13.7646 0.0260776 13.7812C0.0427166 13.7979 0.0652167 13.8072 0.0887478 13.8072H5.8706" fill="#146394"/>
</g>
</g>
</svg>
