<svg width="48" height="33" viewBox="0 0 48 33" fill="none" xmlns="http://www.w3.org/2000/svg">
<path d="M3.78918 32.8423C2.78515 32.8392 1.8231 32.4391 1.11315 31.7291C0.40319 31.0192 0.00300731 30.0571 0 29.0531V3.78918C0.00300731 2.78515 0.40319 1.82312 1.11315 1.11316C1.8231 0.403201 2.78515 0.00300731 3.78918 0H44.2098C45.2138 0.00300731 46.1759 0.403201 46.8858 1.11316C47.5958 1.82312 47.996 2.78515 47.999 3.78918V29.0521C47.996 30.0561 47.5958 31.0181 46.8858 31.7281C46.1759 32.438 45.2138 32.8382 44.2098 32.8412L3.78918 32.8423ZM10.1052 29.0531H37.8938C37.8856 28.2214 38.0434 27.3964 38.3579 26.6264C38.6724 25.8565 39.1374 25.1569 39.7255 24.5688C40.3136 23.9807 41.0132 23.5157 41.7831 23.2012C42.5531 22.8867 43.3781 22.7289 44.2098 22.7371V10.1052C43.3781 10.1133 42.5531 9.95554 41.7831 9.64103C41.0132 9.32651 40.3136 8.86157 39.7255 8.27344C39.1374 7.68531 38.6724 6.98582 38.3579 6.21584C38.0434 5.44586 37.8856 4.62088 37.8938 3.78918H10.1052C10.1133 4.62088 9.95554 5.44586 9.64102 6.21584C9.32651 6.98582 8.86159 7.68531 8.27346 8.27344C7.68533 8.86157 6.98581 9.32651 6.21583 9.64103C5.44585 9.95554 4.62087 10.1133 3.78918 10.1052V22.7361C4.62087 22.7279 5.44585 22.8857 6.21583 23.2002C6.98581 23.5147 7.68533 23.9796 8.27346 24.5678C8.86159 25.1559 9.32651 25.8554 9.64102 26.6254C9.95554 27.3954 10.1133 28.2204 10.1052 29.0521V29.0531Z" fill="#146394"/>
<path d="M23.9994 23.9995C22.2547 23.9921 20.5664 23.3805 19.2218 22.2688C17.8772 21.157 16.9593 19.6137 16.6243 17.9014C16.2893 16.1891 16.5579 14.4137 17.3844 12.8772C18.2109 11.3406 19.5442 10.1379 21.1575 9.47354C22.7708 8.80923 24.5644 8.72436 26.2332 9.23341C27.902 9.74247 29.3429 10.814 30.3107 12.2657C31.2786 13.7173 31.7136 15.4595 31.5417 17.1957C31.3698 18.932 30.6017 20.555 29.3681 21.7888C28.6717 22.5045 27.836 23.0699 26.9127 23.4501C25.9893 23.8303 24.9978 24.0173 23.9994 23.9995Z" fill="#FAA62E"/>
</svg>
