<svg width="74" height="3" viewBox="0 0 74 3" fill="none" xmlns="http://www.w3.org/2000/svg">
<path d="M0.99086 1.10326H1.99704L2.00215 1.55783C2.00215 1.88982 1.94086 2.09923 1.81317 2.19627C1.68548 2.29332 1.40968 2.33929 0.980645 2.33929C0.587366 2.33929 0.321774 2.278 0.194086 2.15031C0.0663978 2.02262 0 1.76214 0 1.36886C0 0.868319 0.0255376 0.551652 0.0766129 0.418856C0.137903 0.260523 0.234946 0.148157 0.367742 0.0919747C0.49543 0.0357919 0.715054 0.0102539 1.02661 0.0102539C1.43522 0.0102539 1.6957 0.0562216 1.81317 0.137942C1.93065 0.219663 1.99194 0.418855 1.99194 0.715092H1.55269C1.54247 0.566974 1.51183 0.469931 1.45565 0.434178C1.39946 0.398425 1.25645 0.377995 1.02151 0.377995C0.771237 0.377995 0.612903 0.408641 0.541398 0.469931C0.475 0.531222 0.439247 0.67934 0.439247 0.909179V1.13902L0.444355 1.43015C0.444355 1.65488 0.480108 1.803 0.546505 1.86429C0.612903 1.92558 0.766129 1.95622 1.01129 1.95622C1.24624 1.95622 1.39946 1.93068 1.46075 1.87961C1.52204 1.82853 1.5578 1.70084 1.5578 1.50676V1.41482H0.99086V1.10326Z" fill="black"/>
<path d="M3.77956 0.0356445H4.2137V1.55769C4.2137 1.87435 4.15241 2.08887 4.02983 2.19102C3.90725 2.29317 3.65698 2.34425 3.27902 2.34425C2.88064 2.34425 2.62015 2.29317 2.49246 2.19613C2.36478 2.09908 2.30859 1.89478 2.30859 1.58322V0.0356445H2.74273V1.58322C2.74273 1.75177 2.77338 1.85903 2.83467 1.905C2.89596 1.95097 3.03897 1.9714 3.25859 1.9714C3.48843 1.9714 3.63144 1.94586 3.68763 1.89989C3.74892 1.85392 3.77445 1.74156 3.77445 1.56279V0.0356445H3.77956Z" fill="black"/>
<path d="M5.05133 0.0356445V1.93564H6.12391V2.32382H4.61719V0.0356445H5.05133Z" fill="black"/>
<path d="M6.77765 0.398504V1.01651H7.80426V1.37915H6.77765V2.31893H6.34351V0.0307617H7.86044V0.393396L6.77765 0.398504Z" fill="black"/>
<path d="M10.45 0.0356445H10.8841V1.55769C10.8841 1.87435 10.8228 2.08887 10.7002 2.19102C10.5777 2.29317 10.3274 2.34425 9.94943 2.34425C9.55105 2.34425 9.29056 2.29317 9.16287 2.19613C9.04029 2.09908 8.979 1.89478 8.979 1.58322V0.0356445H9.41314V1.58322C9.41314 1.75177 9.44379 1.85903 9.50508 1.905C9.56637 1.95097 9.70938 1.9714 9.929 1.9714C10.1588 1.9714 10.3019 1.94586 10.358 1.89989C10.4142 1.85392 10.4449 1.74156 10.4449 1.56279L10.45 0.0356445Z" fill="black"/>
<path d="M13.4123 0.0356445V2.32382H12.6768L12.0231 1.06736C11.9924 1.00607 11.9414 0.893708 11.8699 0.740483L11.7984 0.577043L11.7268 0.413601H11.7064L11.7115 0.566827L11.7166 0.714945L11.7217 1.01629V2.32892H11.2876V0.0407524H12.0231L12.6156 1.20016C12.6666 1.30231 12.7279 1.43 12.7994 1.57301L12.8863 1.75688L12.9731 1.94586H12.9884L12.9833 1.79774L12.9782 1.64962L12.9731 1.35339V0.0356445H13.4123Z" fill="black"/>
<path d="M14.2449 0.0356445V2.32382H13.8108V0.0356445H14.2449Z" fill="black"/>
<path d="M15.6035 0.0153809C16.0172 0.0153809 16.2879 0.0868862 16.4054 0.219682C16.5229 0.357585 16.5841 0.669143 16.5841 1.14414C16.5841 1.67022 16.5229 1.9971 16.4054 2.135C16.2879 2.27291 15.9968 2.33931 15.532 2.33931C15.1183 2.33931 14.8476 2.27291 14.725 2.135C14.6024 2.00221 14.5411 1.70597 14.5411 1.24629C14.5411 0.699788 14.6024 0.357585 14.7199 0.219682C14.8374 0.0817787 15.1336 0.0153809 15.6035 0.0153809ZM15.5678 0.38823C15.2766 0.38823 15.1081 0.423983 15.057 0.500596C15.0059 0.577209 14.9855 0.832584 14.9855 1.27694C14.9855 1.60382 15.0161 1.80301 15.0723 1.86941C15.1285 1.93581 15.3022 1.97156 15.5831 1.97156C15.8538 1.97156 16.0121 1.93581 16.0683 1.8592C16.1245 1.78258 16.15 1.55275 16.15 1.17479C16.15 0.791724 16.1245 0.566993 16.0734 0.495488C16.0223 0.423983 15.8487 0.38823 15.5678 0.38823Z" fill="black"/>
<path d="M19 0.0356445V2.32382H18.2645L17.6107 1.06736C17.5801 1.00607 17.529 0.893708 17.4575 0.740483L17.386 0.577043L17.3145 0.413601H17.2992L17.3043 0.566827L17.3094 0.714945L17.3145 1.01629V2.32892H16.8804V0.0407524H17.6159L18.2083 1.20016C18.2594 1.30231 18.3207 1.43 18.3922 1.57301L18.479 1.75688L18.5659 1.94586H18.5812L18.5761 1.79774L18.571 1.64962L18.5659 1.35339V0.0356445H19Z" fill="black"/>
<path d="M21.6457 1.88457H20.6599L20.5169 2.32382H20.0573L20.8183 0.0356445H21.472L22.2433 2.32382H21.7938L21.6457 1.88457ZM21.5435 1.56279L21.1503 0.372742L20.7621 1.56279H21.5435Z" fill="#1B5F39"/>
<path d="M22.8715 0.0356445V1.93564H23.9441V2.32382H22.4374V0.0356445H22.8715Z" fill="#1B5F39"/>
<path d="M26.4059 1.88457H25.4202L25.2772 2.32382H24.8175L25.5785 0.0356445H26.2323L27.0035 2.32382H26.5541L26.4059 1.88457ZM26.3089 1.56279L25.9156 0.372742L25.5274 1.56279H26.3089Z" fill="#1B5F39"/>
<path d="M29.1435 0.0356445V2.32382H28.7094V1.33296H27.6368V2.32382H27.2026V0.0356445H27.6368V0.970321H28.7094V0.0356445H29.1435Z" fill="#1B5F39"/>
<path d="M29.9811 0.0356445V1.93564H31.0537V2.32382H29.547V0.0356445H29.9811Z" fill="#1B5F39"/>
<path d="M31.7076 0.0356445V2.32382H31.2734V0.0356445H31.7076Z" fill="#1B5F39"/>
<path d="M33.4952 1.88457H32.5094L32.3664 2.32382H31.9067L32.6678 0.0356445H33.3215L34.0928 2.32382H33.6433L33.4952 1.88457ZM33.393 1.56279L32.9998 0.372742L32.6116 1.56279H33.393Z" fill="#1B5F39"/>
<path d="M36.6669 1.55783H36.9223V1.64466C36.9223 1.95622 36.8712 2.15031 36.764 2.22692C36.6567 2.30353 36.3911 2.34439 35.9621 2.34439C35.579 2.34439 35.3339 2.27799 35.2317 2.14009C35.1296 2.00219 35.0785 1.68041 35.0785 1.17477C35.0785 0.776382 35.0887 0.531221 35.1142 0.42907C35.1398 0.32692 35.2062 0.234984 35.3134 0.153264C35.4411 0.0613286 35.722 0.0102539 36.1511 0.0102539C36.4422 0.0102539 36.6363 0.0562207 36.7384 0.148156C36.8406 0.240092 36.8917 0.413749 36.8917 0.674232V0.735522H36.6363V0.664017C36.6363 0.480146 36.6056 0.362673 36.5444 0.30649C36.4831 0.250307 36.3503 0.229877 36.1409 0.229877C35.7731 0.229877 35.5484 0.260523 35.4667 0.321813C35.3849 0.383104 35.3441 0.551652 35.3441 0.832566C35.3441 1.47611 35.3696 1.85407 35.4258 1.96133C35.482 2.06859 35.6659 2.12477 35.9876 2.12477C36.2941 2.12477 36.4831 2.09923 36.5546 2.05326C36.6261 2.0073 36.6669 1.88472 36.6669 1.69063V1.55783Z" fill="black"/>
<path d="M38.0511 0.0102539C38.4853 0.0102539 38.756 0.0715433 38.8632 0.199231C38.9705 0.32692 39.0267 0.638479 39.0267 1.14412C39.0267 1.68552 38.9756 2.02262 38.8734 2.15031C38.7713 2.278 38.4955 2.33929 38.0562 2.33929C37.617 2.33929 37.3463 2.278 37.239 2.15031C37.1318 2.02262 37.0807 1.69574 37.0807 1.16966V1.01133L37.0858 0.796813C37.0858 0.490361 37.1522 0.286059 37.2901 0.173694C37.428 0.0613282 37.6732 0.0102539 38.0511 0.0102539ZM38.046 0.229877C37.6834 0.229877 37.474 0.270737 37.4127 0.352457C37.3514 0.434178 37.3207 0.709985 37.3207 1.17988C37.3207 1.64977 37.3514 1.93068 37.4127 2.0073C37.474 2.08391 37.6834 2.12988 38.046 2.12988C38.4086 2.12988 38.6232 2.08902 38.6845 2.0073C38.7457 1.92558 38.7764 1.64977 38.7764 1.17988V1.03176V0.817243C38.7764 0.566974 38.7355 0.403533 38.6487 0.337135C38.5619 0.260522 38.3627 0.229877 38.046 0.229877Z" fill="black"/>
<path d="M40.1554 0.0102539C40.5895 0.0102539 40.8602 0.0715433 40.9675 0.199231C41.0747 0.32692 41.1309 0.638479 41.1309 1.14412C41.1309 1.68552 41.0798 2.02262 40.9777 2.15031C40.8755 2.278 40.5997 2.33929 40.1605 2.33929C39.7212 2.33929 39.4505 2.278 39.3433 2.15031C39.236 2.02262 39.1849 1.69574 39.1849 1.16966V1.01133L39.19 0.796813C39.19 0.490361 39.2564 0.286059 39.3943 0.173694C39.5322 0.0613282 39.7774 0.0102539 40.1554 0.0102539ZM40.1503 0.229877C39.7876 0.229877 39.5782 0.270737 39.5169 0.352457C39.4556 0.434178 39.425 0.709985 39.425 1.17988C39.425 1.64977 39.4556 1.93068 39.5169 2.0073C39.5782 2.08391 39.7876 2.12988 40.1503 2.12988C40.5129 2.12988 40.7274 2.08902 40.7887 2.0073C40.85 1.92558 40.8806 1.64977 40.8806 1.17988V1.03176V0.817243C40.8806 0.566974 40.8398 0.403533 40.7529 0.337135C40.6661 0.260522 40.4669 0.229877 40.1503 0.229877Z" fill="black"/>
<path d="M41.422 2.32382V0.0356445H42.3822H42.469C42.7244 0.0356445 42.9032 0.0867195 42.9951 0.183763C43.0871 0.280806 43.1381 0.469784 43.1381 0.740483C43.1381 1.00097 43.0871 1.17973 42.99 1.27677C42.893 1.37382 42.7091 1.41978 42.4384 1.41978H42.3362H41.6774V2.31871H41.422V2.32382ZM41.6825 1.20527H42.2954C42.5508 1.20527 42.7142 1.17973 42.7857 1.12866C42.8572 1.07758 42.893 0.954999 42.893 0.76602C42.893 0.546397 42.8674 0.403387 42.8215 0.347204C42.7755 0.291021 42.658 0.260375 42.4741 0.260375H42.3771H41.6825V1.20527Z" fill="black"/>
<path d="M43.6131 0.25016V1.03161H44.7726V1.25124H43.6131V2.10419H44.8236V2.32382H43.3527V0.0356445H44.8236V0.255268L43.6131 0.25016Z" fill="black"/>
<path d="M45.1556 2.32382V0.0356445H46.2435C46.4887 0.0356445 46.6624 0.0867195 46.7645 0.183763C46.8667 0.280806 46.9177 0.449354 46.9177 0.689407C46.9177 0.898816 46.8922 1.04693 46.836 1.12865C46.7798 1.21038 46.6777 1.26656 46.5245 1.2921V1.2972C46.7696 1.31763 46.8871 1.46064 46.8871 1.74156V2.32892H46.6317V1.80285C46.6317 1.53726 46.5142 1.40446 46.2844 1.40446H46.1976H45.4161V2.32892L45.1556 2.32382ZM45.4161 1.17973H46.1618C46.3559 1.17973 46.4938 1.14909 46.5653 1.0878C46.6368 1.02651 46.6726 0.914139 46.6726 0.750698C46.6726 0.546397 46.647 0.408494 46.5909 0.347204C46.5347 0.285914 46.4223 0.255268 46.2486 0.255268H45.4161V1.17973Z" fill="black"/>
<path d="M48.7003 1.8386H47.5409L47.3621 2.32382H47.0914L47.9291 0.0356445H48.2917L49.1447 2.32382H48.874L48.7003 1.8386ZM48.6237 1.64452L48.118 0.245053L47.6175 1.64452H48.6237Z" fill="black"/>
<path d="M50.1815 0.275697V2.32382H49.9261V0.275697H49.1804V0.0356445H50.9221V0.275697H50.1815Z" fill="black"/>
<path d="M51.4072 0.0356445V2.32382H51.1467V0.0356445H51.4072Z" fill="black"/>
<path d="M53.3328 0.0356445H53.6086L52.8016 2.32382H52.4339L51.6167 0.0356445H51.8925L52.5003 1.76199L52.5616 1.94075C52.582 2.00715 52.6025 2.06844 52.6178 2.11951H52.6229C52.6586 2.00715 52.6944 1.88968 52.7352 1.7722L53.3328 0.0356445Z" fill="black"/>
<path d="M53.9763 0.25016V1.03161H55.1357V1.25124H53.9763V2.10419H55.1868V2.32382H53.7158V0.0356445H55.1868V0.255268L53.9763 0.25016Z" fill="black"/>
<path d="M56.6373 0.0356445V2.32382H56.3768V0.0356445H56.6373Z" fill="black"/>
<path d="M59.0328 0.0356445V2.32382H58.6089L57.6487 0.76602L57.4904 0.510644L57.4137 0.382956L57.3371 0.255268H57.332V0.342096V0.428923V0.60258V2.32892H57.0715V0.0407524H57.4955L58.3331 1.40446L58.5527 1.76199L58.66 1.94075L58.7672 2.11951H58.7723V2.03269V1.94586V1.7722V0.0356445H59.0328Z" fill="black"/>
<path d="M61.035 0.653764H60.7796C60.7796 0.469893 60.7489 0.352419 60.6877 0.301344C60.6264 0.250269 60.4834 0.224731 60.2535 0.224731C59.9828 0.224731 59.8092 0.25027 59.7326 0.296237C59.6559 0.342205 59.6151 0.449462 59.6151 0.612903C59.6151 0.796774 59.6457 0.90914 59.707 0.95C59.7683 0.990861 59.9522 1.0164 60.2535 1.03172C60.611 1.04704 60.8358 1.09301 60.9328 1.16962C61.0299 1.24624 61.0758 1.41479 61.0758 1.67016C61.0758 1.95108 61.0196 2.13495 60.9073 2.21667C60.7949 2.29839 60.5498 2.33925 60.1718 2.33925C59.8449 2.33925 59.6202 2.29839 59.5129 2.21667C59.4057 2.13495 59.3495 1.9664 59.3495 1.71102V1.60887H59.6049V1.66505C59.6049 1.86936 59.6355 1.99704 59.6968 2.04812C59.7581 2.09919 59.9215 2.12473 60.1769 2.12473C60.4731 2.12473 60.657 2.09919 60.7234 2.04812C60.7898 1.99704 60.8256 1.86425 60.8256 1.64973C60.8256 1.51183 60.8 1.41989 60.7541 1.36882C60.7081 1.32285 60.611 1.2922 60.4629 1.2871L60.1973 1.27177L59.942 1.25645C59.5538 1.23091 59.3597 1.02661 59.3597 0.653764C59.3597 0.393281 59.4159 0.219624 59.5283 0.132796C59.6406 0.0459681 59.8653 0 60.2024 0C60.5446 0 60.7694 0.0408599 60.8715 0.12258C60.9839 0.214516 61.035 0.388173 61.035 0.653764Z" fill="black"/>
<path d="M62.9451 0.0356445H63.2056V1.63941C63.2056 1.93054 63.1494 2.11952 63.032 2.21145C62.9145 2.30339 62.6693 2.34935 62.2965 2.34935C61.9492 2.34935 61.7091 2.30339 61.5814 2.21656C61.4537 2.12973 61.3925 1.96118 61.3925 1.71602V1.63941V0.0356445H61.6529V1.63941C61.6529 1.85392 61.6887 1.99183 61.7602 2.04801C61.8317 2.10419 62.0054 2.12973 62.2812 2.12973C62.5825 2.12973 62.7664 2.10419 62.843 2.04801C62.9145 1.99183 62.9554 1.85903 62.9554 1.63941L62.9451 0.0356445Z" fill="black"/>
<path d="M63.6346 2.32382V0.0356445H64.7225C64.9677 0.0356445 65.1414 0.0867195 65.2435 0.183763C65.3457 0.280806 65.3916 0.449354 65.3916 0.689407C65.3916 0.898816 65.3661 1.04693 65.3099 1.12865C65.2537 1.21038 65.1516 1.26656 64.9984 1.2921V1.2972C65.2435 1.31763 65.361 1.46064 65.361 1.74156V2.32892H65.1005V1.80285C65.1005 1.53726 64.983 1.40446 64.7532 1.40446H64.6664H63.8849V2.32892L63.6346 2.32382ZM63.8951 1.17973H64.6408C64.8349 1.17973 64.9728 1.14909 65.0443 1.0878C65.1158 1.02651 65.1516 0.914139 65.1516 0.750698C65.1516 0.546397 65.126 0.408494 65.0699 0.347204C65.0137 0.285914 64.9013 0.255268 64.7277 0.255268H63.8951V1.17973Z" fill="black"/>
<path d="M67.1793 1.8386H66.0199L65.8463 2.32382H65.5756L66.4132 0.0356445H66.7758L67.6288 2.32382H67.3581L67.1793 1.8386ZM67.1027 1.64452L66.5971 0.245053L66.0965 1.64452H67.1027Z" fill="black"/>
<path d="M69.8148 0.0356445V2.32382H69.3909L68.4307 0.76602L68.2723 0.510644L68.1957 0.382956L68.1191 0.255268H68.114V0.342096V0.428923V0.60258V2.32892H67.8535V0.0407524H68.2774L69.1151 1.40446L69.3347 1.76199L69.442 1.94075L69.5492 2.11951H69.5543V2.03269V1.94586V1.7722V0.0356445H69.8148Z" fill="black"/>
<path d="M71.7505 1.55783H72.0059V1.64466C72.0059 1.95622 71.9548 2.15031 71.8476 2.22692C71.7403 2.30353 71.4747 2.34439 71.0457 2.34439C70.6626 2.34439 70.4175 2.27799 70.3153 2.14009C70.2132 2.00219 70.157 1.68041 70.157 1.17477C70.157 0.776382 70.1672 0.531221 70.1927 0.42907C70.2183 0.32692 70.2847 0.234984 70.3919 0.153264C70.5196 0.0613286 70.8005 0.0102539 71.2296 0.0102539C71.5207 0.0102539 71.7199 0.0562207 71.8169 0.148156C71.914 0.240092 71.9702 0.413749 71.9702 0.674232V0.735522H71.7148V0.664017C71.7148 0.480146 71.6841 0.362673 71.6228 0.30649C71.5615 0.250307 71.4288 0.229877 71.2193 0.229877C70.8516 0.229877 70.6269 0.260523 70.5452 0.321813C70.4634 0.383104 70.4226 0.551652 70.4226 0.832566C70.4226 1.47611 70.4481 1.85407 70.5043 1.96133C70.5605 2.07369 70.7443 2.12477 71.0661 2.12477C71.3675 2.12477 71.5616 2.09923 71.6331 2.05326C71.7046 2.0073 71.7454 1.88472 71.7454 1.69063L71.7505 1.55783Z" fill="black"/>
<path d="M72.4656 0.25016V1.03161H73.625V1.25124H72.4656V2.10419H73.676V2.32382H72.2051V0.0356445H73.676V0.255268L72.4656 0.25016Z" fill="black"/>
</svg>
