<svg width="42" height="48" viewBox="0 0 42 48" fill="none" xmlns="http://www.w3.org/2000/svg">
<path d="M29.9454 44.5022C29.7879 46.2475 29.5159 41.1792 29.2919 41.3379C29.7412 39.5298 29.9607 37.6723 29.9454 35.8093C29.9454 30.7312 25.346 28.7053 20.7454 24.1096C15.7313 29.1238 11.5454 30.7312 11.5454 35.8093C11.7447 38.7423 12.2065 41.6516 12.9251 44.5022C16.9731 45.9718 33.5959 41.6838 29.9454 44.5022Z" fill="#FAA62E"/>
<path d="M29.9651 8.32985C27.7214 6.42338 25.4014 4.45538 23.0727 2.13046L20.9374 0L18.8192 2.13169C15.6467 5.59673 13.3694 9.78473 12.1854 14.3311C12.1558 14.2277 12.1275 14.1317 12.0992 14.0172L10.8315 9.10277L7.13921 12.5711C3.42967 16.0492 0.000748327 20.2105 0.000748327 27.0634C-0.0385236 31.6892 1.46895 36.1955 4.28374 39.8666C7.09853 43.5377 11.0592 46.163 15.5367 47.3255C17.2953 47.7716 19.1022 47.9982 20.9164 48C23.6679 48.0049 26.3934 47.467 28.9367 46.4171C31.48 45.3673 33.7913 43.8261 35.7382 41.8818C37.6851 39.9375 39.2294 37.6283 40.2827 35.0864C41.336 32.5445 41.8776 29.8198 41.8764 27.0683C41.8777 18.4443 36.3552 13.7563 29.9651 8.32985ZM30.1029 38.8529C29.8851 39.0203 29.6524 39.1606 29.4284 39.3169C19.1109 45.4831 12.5066 39.4142 12.5361 39.5052C10.5123 38.1255 8.85884 36.2693 7.72132 34.1001C6.58381 31.9308 5.99716 29.5152 6.01306 27.0658C5.96366 24.5764 6.76612 22.1447 8.28752 20.1735C8.50536 20.5182 8.73552 20.8492 8.97921 21.1742C9.50189 21.8802 10.2196 22.4181 11.044 22.7216C11.8683 23.0251 12.7635 23.081 13.6192 22.8825C14.4872 22.6889 15.2811 22.2493 15.9058 21.6163C16.5305 20.9833 16.9596 20.1837 17.1417 19.3132C17.849 15.5513 19.2335 11.9491 21.2278 8.68185C22.9152 10.2338 24.5681 11.6357 26.0795 12.9218C32.5152 18.384 35.8789 21.4954 35.8789 27.0757C35.8824 29.3498 35.3634 31.5944 34.362 33.6362C33.3605 35.678 31.9033 37.4636 30.1029 38.8529Z" fill="#146394"/>
</svg>
