<svg width="40" height="41" viewBox="0 0 40 41" fill="none" xmlns="http://www.w3.org/2000/svg">
<path d="M5.10352 24.9374L6.09198 23.9489L3.25969 21.1219C3.11209 20.9744 2.99609 20.7986 2.91853 20.6049C2.76406 20.2193 2.76406 19.789 2.91853 19.4034C2.99604 19.2097 3.11205 19.0338 3.25969 18.8865L6.09198 16.0594C6.29674 15.8516 6.47699 15.6213 6.62985 15.3728C6.85152 15.0145 7.02909 14.6307 7.15884 14.2299C7.22446 14.0297 7.27671 13.8252 7.31463 13.618C7.3549 13.4029 7.37586 13.1846 7.37724 12.9658V8.95536C7.37667 8.74542 7.41897 8.53757 7.50148 8.34451C7.62232 8.05818 7.82295 7.81278 8.07977 7.63775C8.20722 7.5507 8.34683 7.48268 8.49389 7.43581C8.64522 7.38865 8.80274 7.36482 8.96125 7.36514H12.9664C13.2557 7.3641 13.544 7.33023 13.8257 7.26417C14.0313 7.21646 14.2337 7.15575 14.4316 7.08243C14.728 6.97391 15.014 6.83873 15.286 6.67856C15.4254 6.59687 15.5601 6.50754 15.6897 6.411C15.823 6.31113 15.9492 6.20216 16.0674 6.08488L18.8943 3.25781C19.0417 3.11025 19.2178 2.99415 19.4114 2.91654C19.7971 2.76258 20.2272 2.76258 20.6129 2.91654C20.8066 2.99403 20.9826 3.11014 21.13 3.25781L23.9569 6.08488C24.1647 6.28964 24.3952 6.47017 24.6436 6.62303C25.0015 6.84484 25.3848 7.02249 25.7854 7.1521C25.9857 7.2175 26.1901 7.26944 26.3972 7.30758C26.6124 7.3476 26.8307 7.36822 27.0495 7.36917H31.0546C31.2628 7.36957 31.469 7.4118 31.6605 7.49336C31.9451 7.6153 32.189 7.81647 32.3626 8.07291C32.5397 8.33232 32.634 8.6392 32.6337 8.95334V12.9587C32.6347 13.248 32.6687 13.5363 32.7348 13.8179C32.7827 14.0234 32.8436 14.2258 32.9167 14.4237C33.0251 14.7201 33.1602 15.006 33.3205 15.2779C33.4015 15.4175 33.4907 15.5523 33.5872 15.6818C33.6868 15.8152 33.7956 15.9414 33.9131 16.0594L36.7404 18.8865C36.8881 19.0338 37.0041 19.2097 37.0816 19.4034C37.2354 19.7891 37.2354 20.2192 37.0816 20.6049C37.004 20.7985 36.888 20.9744 36.7404 21.1219L33.9131 23.9489C33.7083 24.1567 33.5281 24.3871 33.3752 24.6355C33.1533 24.9937 32.9758 25.3775 32.8462 25.7784C32.781 25.9791 32.7288 26.1838 32.6904 26.3913C32.6505 26.6065 32.6298 26.8247 32.6288 27.0436V31.0489C32.6288 31.2588 32.5865 31.4665 32.5045 31.6598C32.3834 31.9462 32.1825 32.1916 31.9253 32.3665C31.7979 32.4537 31.6583 32.5217 31.5112 32.5685C31.3602 32.6156 31.2029 32.6394 31.0448 32.6391H27.0455C26.7562 32.6402 26.4679 32.6741 26.1862 32.7401C25.9807 32.7878 25.7782 32.8485 25.5803 32.9218C25.284 33.0303 24.9984 33.1655 24.7265 33.3257C24.5871 33.4072 24.4519 33.4962 24.3222 33.5923C24.189 33.6922 24.0628 33.8012 23.9446 33.9184L21.1177 36.7455C20.9703 36.8931 20.7942 37.0092 20.6005 37.0867C20.2148 37.2407 19.7848 37.2407 19.3991 37.0867C19.2055 37.0091 19.0299 36.893 18.8824 36.7455L16.0551 33.9184C15.8471 33.7139 15.6171 33.5333 15.3688 33.3802C15.0106 33.1583 14.6265 32.9806 14.2255 32.8512C14.025 32.7856 13.8203 32.7336 13.6127 32.6957C13.3979 32.6557 13.18 32.635 12.9615 32.6341H8.95632C8.7464 32.6345 8.53861 32.5922 8.34549 32.5099C8.05903 32.3888 7.81342 32.1875 7.63853 31.9303C7.462 31.6707 7.36765 31.3639 7.36787 31.0499V27.0466C7.36657 26.755 7.3331 26.4644 7.2673 26.1803C7.21949 25.9747 7.15861 25.7724 7.08538 25.5745C6.97548 25.2761 6.838 24.9884 6.67521 24.7153C6.59189 24.5757 6.50086 24.4409 6.40258 24.3114C6.29987 24.1775 6.18749 24.0513 6.06635 23.9338L5.09809 24.9434L4.12984 25.9531C4.17891 26.0048 4.22267 26.0617 4.2595 26.1227C4.35854 26.2828 4.43746 26.4543 4.49466 26.6336C4.5218 26.7166 4.54335 26.8012 4.55924 26.8871C4.56975 26.9413 4.57589 26.9964 4.57748 27.0516V31.057C4.57693 31.6426 4.6945 32.2223 4.92357 32.7613C5.17216 33.3464 5.54447 33.8707 6.01508 34.2981C6.48568 34.7254 7.04361 35.0458 7.64987 35.237C8.07094 35.3699 8.50984 35.438 8.95139 35.4389H12.9565C13.0339 35.4417 13.1107 35.4526 13.1858 35.4712C13.2759 35.4927 13.3647 35.5197 13.4515 35.552C13.5884 35.6025 13.7201 35.665 13.8459 35.7388C13.8962 35.7698 13.9448 35.8035 13.9914 35.8398C14.0204 35.8613 14.048 35.8845 14.0742 35.9094L16.9015 38.7365C17.3152 39.1505 17.808 39.4764 18.351 39.6947C19.4062 40.1182 20.5845 40.1182 21.6398 39.6947C22.1827 39.4763 22.6759 39.1504 23.0897 38.7365L25.9166 35.9094C25.9751 35.8549 26.039 35.8065 26.1074 35.7651C26.2719 35.6643 26.4479 35.5833 26.6314 35.5238C26.7134 35.4967 26.7971 35.4751 26.8819 35.4591C26.9321 35.4491 26.983 35.4434 27.0342 35.442H31.0398C31.6251 35.4423 32.2045 35.3245 32.7432 35.0957C33.3283 34.8471 33.8525 34.4747 34.2798 34.004C34.7072 33.5334 35.0273 32.9758 35.2185 32.3696C35.3515 31.9485 35.4198 31.5096 35.4207 31.0681V27.0466C35.4233 26.9696 35.4339 26.8931 35.4527 26.8184C35.4743 26.728 35.5013 26.639 35.5336 26.5518C35.5835 26.4149 35.6457 26.2828 35.7194 26.1571C35.7505 26.1065 35.7843 26.0577 35.8205 26.0107C35.8419 25.9819 35.865 25.9546 35.89 25.9289L38.7223 23.1018C39.136 22.6883 39.4617 22.1955 39.6802 21.6529C40.1028 20.5975 40.1028 19.4199 39.6802 18.3645C39.4617 17.8219 39.136 17.3291 38.7223 16.9156L35.89 14.0885C35.8354 14.0297 35.787 13.9654 35.7455 13.8967C35.6452 13.732 35.5648 13.5561 35.5054 13.3727C35.4787 13.2906 35.4571 13.207 35.4409 13.1223C35.4312 13.072 35.4256 13.021 35.4246 12.9698V8.95536C35.4253 8.36971 35.3077 7.78998 35.0785 7.25104C34.8299 6.66599 34.4571 6.14174 33.9865 5.71437C33.5159 5.28699 32.9584 4.96664 32.3522 4.77534C31.9311 4.64243 31.4922 4.57435 31.0507 4.57341H27.0455C26.9682 4.57074 26.8913 4.55991 26.8163 4.5411C26.7259 4.51955 26.6367 4.49258 26.5496 4.46032C26.413 4.40995 26.2816 4.34744 26.1562 4.27353C26.1054 4.24278 26.0565 4.20906 26.0097 4.17257C25.9807 4.15108 25.953 4.12782 25.9269 4.1029L23.0996 1.27583C22.6858 0.861986 22.1926 0.536066 21.6496 0.317657C20.5944 -0.105886 19.4166 -0.105886 18.3613 0.317657C17.8184 0.536066 17.3252 0.861986 16.9114 1.27583L14.0845 4.1029C14.0257 4.15752 13.9615 4.20591 13.8927 4.24728C13.7282 4.34809 13.5523 4.42909 13.3687 4.48859C13.2867 4.51553 13.203 4.53711 13.1182 4.55321C13.068 4.5632 13.0166 4.56894 12.9654 4.57038H8.96027C8.37464 4.56993 7.79497 4.68772 7.25596 4.91669C6.6708 5.16516 6.14667 5.53754 5.71928 6.00816C5.29188 6.47878 4.97122 7.03647 4.78011 7.64279C4.64662 8.06373 4.57881 8.50266 4.57847 8.94426V12.9496C4.57526 13.0265 4.56421 13.103 4.54593 13.1778C4.52433 13.2678 4.49727 13.3565 4.46508 13.4433C4.41461 13.5802 4.35204 13.7123 4.27823 13.8381C4.2439 13.8947 4.21098 13.9451 4.17766 13.9835C4.15612 14.0125 4.13252 14.0401 4.10765 14.0663L1.27585 16.8934C0.862157 17.3067 0.5363 17.7996 0.318442 18.3422C-0.106147 19.3973 -0.106147 20.5757 0.318442 21.6307C0.53635 22.1734 0.8622 22.6663 1.27585 23.0796L4.10765 25.9067L4.12688 25.9259L5.10352 24.9374Z" fill="#146394"/>
<path d="M25.6143 12.9979C25.4307 12.9975 25.249 13.0334 25.0794 13.1036C24.9098 13.1738 24.7555 13.2768 24.6258 13.4068L13.448 24.5849C13.186 24.847 13.0387 25.2025 13.0388 25.5732C13.0389 25.9438 13.1863 26.2993 13.4485 26.5613C13.7107 26.8233 14.0663 26.9705 14.437 26.9704C14.8076 26.9703 15.1629 26.8229 15.4249 26.5608L26.6028 15.3828C26.798 15.1873 26.9311 14.9383 26.9849 14.6673C27.0386 14.3963 27.0108 14.1155 26.905 13.8603C26.7992 13.605 26.62 13.3869 26.3903 13.2334C26.1606 13.0799 25.8906 12.998 25.6143 12.9979Z" fill="#FAA62E"/>
<path d="M24.6889 22.7836H24.6716C24.1776 22.7836 23.7037 22.9798 23.3543 23.3292C23.005 23.6785 22.8091 24.1524 22.8091 24.6464C22.8091 25.1405 23.005 25.6143 23.3543 25.9636C23.7037 26.313 24.1776 26.5092 24.6716 26.5092H24.6889C25.183 26.5092 25.6568 26.313 26.0062 25.9636C26.3555 25.6143 26.552 25.1405 26.552 24.6464C26.552 24.1524 26.3555 23.6785 26.0062 23.3292C25.6568 22.9798 25.183 22.7836 24.6889 22.7836Z" fill="#FAA62E"/>
<path d="M15.3737 13.4644H15.3565C14.8623 13.4644 14.3886 13.6607 14.0392 14.0101C13.6897 14.3596 13.4934 14.8335 13.4934 15.3277C13.4934 15.8219 13.6897 16.2958 14.0392 16.6453C14.3886 16.9947 14.8623 17.191 15.3565 17.191H15.3737C15.8679 17.191 16.3421 16.9947 16.6915 16.6453C17.041 16.2958 17.2373 15.8219 17.2373 15.3277C17.2373 14.8335 17.041 14.3596 16.6915 14.0101C16.3421 13.6607 15.8679 13.4644 15.3737 13.4644Z" fill="#FAA62E"/>
</svg>
