<svg width="91" height="91" viewBox="0 0 91 91" fill="none" xmlns="http://www.w3.org/2000/svg">
<path d="M15.2462 22.7891L29.932 28.5546L46.032 12.6722L22.861 13.5425C22.6435 13.5425 22.4259 13.6512 22.2083 13.8688L14.9198 19.6343C14.2671 20.287 14.0495 21.1573 14.3759 22.0276C14.5935 22.3539 14.9198 22.5715 15.2462 22.7891Z" stroke="white" stroke-width="3.26351"/>
<path d="M87.4786 4.94851L71.3786 0.270817C68.5502 -0.490669 65.5043 0.379608 63.5461 2.55528L14.9198 50.4201L3.27994 49.7674C1.5394 49.6587 0.0164281 51.508 0.0164281 53.9012C-0.0923557 55.2066 0.342778 56.4032 1.21305 57.3823L12.5266 69.5661C12.8529 70.0012 13.3968 70.11 13.832 69.8924C17.0955 68.1519 29.1705 59.4492 43.4211 48.8972L46.2495 88.8208C46.3583 89.9086 47.011 90.6701 47.7725 90.5613C48.0989 90.5613 48.3164 90.3438 48.534 90.1262L54.9522 82.9465C55.2786 82.5113 55.6049 81.9674 55.6049 81.4235L61.6968 35.408C71.9225 27.6843 81.713 20.287 88.5664 14.9566C90.5245 13.5424 91.1772 10.2789 90.1982 7.6681C89.763 6.3627 88.6752 5.38364 87.4786 4.94851Z" stroke="white" stroke-width="3.26351"/>
</svg>
