<svg width="40" height="37" viewBox="0 0 40 37" fill="none" xmlns="http://www.w3.org/2000/svg">
<path d="M19.0556 20.6345H12.7085C12.2875 20.6345 11.8837 20.4673 11.586 20.1696C11.2883 19.8718 11.121 19.468 11.121 19.047C11.121 18.626 11.2883 18.2222 11.586 17.9245C11.8837 17.6268 12.2875 17.4595 12.7085 17.4595H17.4681V11.1105C17.4681 10.6894 17.6353 10.2857 17.933 9.98794C18.2308 9.69023 18.6345 9.52297 19.0556 9.52297C19.4766 9.52297 19.8804 9.69023 20.1781 9.98794C20.4758 10.2857 20.6431 10.6894 20.6431 11.1105V19.05C20.6431 19.2584 20.602 19.4649 20.5222 19.6575C20.4425 19.8501 20.3255 20.0251 20.1781 20.1725C20.0307 20.3199 19.8557 20.4369 19.6631 20.5166C19.4705 20.5964 19.2641 20.6375 19.0556 20.6375M38.1027 4.76144V9.52297C38.1028 10.1484 37.9797 10.7678 37.7404 11.3457C37.5011 11.9235 37.1503 12.4486 36.7081 12.8909C36.2658 13.3331 35.7407 13.6839 35.1629 13.9232C34.585 14.1625 33.9656 14.2856 33.3402 14.2855H28.5786C28.1576 14.2855 27.7538 14.1182 27.4561 13.8205C27.1584 13.5228 26.9911 13.119 26.9911 12.698C26.9911 12.2769 27.1584 11.8732 27.4561 11.5754C27.7538 11.2777 28.1576 11.1105 28.5786 11.1105H32.7647C31.4946 8.91852 29.7178 7.06272 27.5832 5.69845C25.4486 4.33418 23.0182 3.50113 20.4955 3.26904C17.9728 3.03696 15.4312 3.41259 13.0835 4.36449C10.7358 5.31639 8.65027 6.81686 7.00155 8.74029C5.35282 10.6637 4.18887 12.9541 3.60712 15.4198C3.02537 17.8854 3.04276 20.4546 3.65784 22.9121C4.27291 25.3697 5.46777 27.6441 7.14238 29.545C8.817 31.446 10.9226 32.9181 13.283 33.8381C13.4856 33.9077 13.672 34.0175 13.8311 34.161C13.9901 34.3045 14.1185 34.4787 14.2085 34.673C14.2985 34.8674 14.3483 35.078 14.3548 35.2921C14.3613 35.5062 14.3245 35.7194 14.2465 35.9189C14.1685 36.1184 14.0509 36.3001 13.9009 36.453C13.7509 36.6059 13.5715 36.7269 13.3735 36.8086C13.1755 36.8904 12.963 36.9313 12.7489 36.9288C12.5347 36.9264 12.3232 36.8806 12.1271 36.7944C9.33736 35.7064 6.8434 33.976 4.84762 31.7436C2.85185 29.5113 1.41049 26.8398 0.640506 23.9461C-0.129477 21.0524 -0.206388 18.0179 0.416013 15.0889C1.03841 12.1599 2.34259 9.41883 4.22271 7.08824C6.10284 4.75765 8.50594 2.90315 11.237 1.67522C13.9681 0.447296 16.9502 -0.119457 19.9413 0.020955C22.9324 0.161367 25.8483 1.00499 28.4523 2.48336C31.0563 3.96173 33.2751 6.0332 34.9287 8.52967V4.76144C34.9287 4.34041 35.0959 3.93662 35.3936 3.63891C35.6913 3.34119 36.0951 3.17394 36.5162 3.17394C36.9372 3.17394 37.341 3.34119 37.6387 3.63891C37.9364 3.93662 38.1037 4.34041 38.1037 4.76144" fill="#146394"/>
<path d="M24.1998 27.1999C24.6782 27.5357 25.0495 28.0024 25.269 28.5441C25.5257 29.1736 25.6514 29.8489 25.6385 30.5287C25.6475 31.2074 25.4732 31.876 25.134 32.464C24.8015 33.0374 24.3182 33.5088 23.7367 33.8269C23.1266 34.1604 22.4404 34.3302 21.7452 34.3196C21.0127 34.3319 20.2888 34.1597 19.6403 33.819C19.0102 33.4749 18.4975 32.9502 18.1681 32.3123C17.785 31.5491 17.5987 30.7023 17.6261 29.8487V28.8249C17.5896 27.6965 17.8783 26.5814 18.4578 25.6125C18.9802 24.7655 19.7319 24.0838 20.6257 23.6465C21.5107 23.2137 22.4835 22.9908 23.4687 22.9952H23.7771C23.815 22.9952 23.8513 23.0102 23.8781 23.037C23.9049 23.0638 23.92 23.1002 23.92 23.1381V25.0665C23.92 25.0853 23.9163 25.1039 23.9091 25.1212C23.9019 25.1385 23.8914 25.1543 23.8781 25.1676C23.8649 25.1808 23.8491 25.1914 23.8318 25.1985C23.8144 25.2057 23.7959 25.2094 23.7771 25.2094C22.9917 25.1855 22.2151 25.3796 21.5333 25.7701C21.221 25.9657 20.9562 26.2284 20.7581 26.5391C20.56 26.8499 20.4337 27.2008 20.3882 27.5665C20.6576 27.3 20.9758 27.0879 21.3254 26.9418C21.7083 26.7824 22.1198 26.7029 22.5345 26.7082C23.1257 26.6932 23.7071 26.8615 24.1989 27.1901M22.3118 31.9201C22.512 31.7656 22.6689 31.5619 22.767 31.3288C22.8796 31.0672 22.936 30.7849 22.9326 30.5001C22.9627 30.0629 22.8253 29.6306 22.5483 29.291C22.4226 29.1536 22.2686 29.0451 22.097 28.973C21.9253 28.9009 21.7401 28.8668 21.554 28.8732C21.2911 28.8661 21.0311 28.9297 20.8011 29.0575C20.6005 29.1705 20.434 29.3356 20.3193 29.5354V30.3237C20.2816 30.8061 20.3949 31.2882 20.6435 31.7033C20.7656 31.854 20.9228 31.9725 21.1012 32.0486C21.2797 32.1247 21.474 32.156 21.6673 32.1398C21.9005 32.1409 22.1274 32.0639 22.3118 31.9211" fill="#FAA62E"/>
<path d="M33.9135 32.2581C33.6279 32.9003 33.1536 33.4402 32.5536 33.8062C31.9409 34.1604 31.243 34.34 30.5355 34.3255C29.8219 34.3409 29.1177 34.1614 28.4986 33.8062C27.898 33.4419 27.4226 32.9033 27.1358 32.262C26.7906 31.4746 26.6247 30.6204 26.65 29.7611V27.6444C26.6254 26.7828 26.7913 25.9265 27.1358 25.1365C27.4206 24.4933 27.8933 23.9513 28.4917 23.5815C29.1114 23.237 29.8087 23.0562 30.5177 23.0562C31.2268 23.0562 31.9241 23.237 32.5437 23.5815C33.1455 23.9522 33.6217 24.4954 33.9105 25.1404C34.2581 25.9269 34.4264 26.7809 34.4032 27.6404V29.7571C34.4276 30.6151 34.2617 31.4679 33.9174 32.2542M31.3947 25.7208C31.3014 25.5737 31.1723 25.4526 31.0196 25.3686C30.8669 25.2847 30.6954 25.2406 30.5212 25.2406C30.3469 25.2406 30.1755 25.2847 30.0227 25.3686C29.87 25.4526 29.741 25.5737 29.6476 25.7208C29.4128 26.2146 29.3109 26.7611 29.352 27.3064V30.0853C29.3085 30.6335 29.4126 31.1833 29.6535 31.6777C29.7471 31.8265 29.8785 31.9478 30.0343 32.0292C30.1901 32.1106 30.3648 32.1491 30.5404 32.1408C30.7128 32.1476 30.8839 32.1078 31.0356 32.0256C31.1873 31.9434 31.3141 31.8219 31.4026 31.6737C31.6394 31.1792 31.7414 30.6309 31.6983 30.0843V27.3054C31.7386 26.7604 31.6331 26.2146 31.3928 25.7238" fill="#FAA62E"/>
<path d="M35.836 31.4876C35.6677 31.3577 35.5325 31.1898 35.4414 30.9977C35.3503 30.8055 35.3059 30.5946 35.3118 30.382C35.3103 30.0683 35.4045 29.7617 35.5818 29.503C35.7803 29.2209 36.0532 28.9995 36.3701 28.8635C36.7541 28.6956 37.1702 28.6138 37.5891 28.624C38.0283 28.6151 38.4652 28.6904 38.8761 28.8457C39.2126 28.9705 39.5068 29.1882 39.7245 29.4734L39.7304 29.4813C39.7926 29.571 39.8291 29.676 39.8357 29.7849C39.8424 29.8938 39.8191 30.0024 39.7683 30.099C39.7174 30.1955 39.6411 30.2763 39.5475 30.3324C39.454 30.3886 39.3468 30.418 39.2377 30.4175H38.7204C38.6037 30.42 38.4887 30.3898 38.3883 30.3302C38.288 30.2706 38.2064 30.1841 38.1528 30.0805C38.1338 30.04 38.1078 30.0033 38.0759 29.9721C37.9341 29.8677 37.7583 29.8202 37.5832 29.839C37.441 29.8356 37.3013 29.8762 37.1831 29.9553C37.1296 29.9899 37.086 30.0378 37.0565 30.0943C37.027 30.1507 37.0125 30.2139 37.0146 30.2776C37.0146 30.5403 37.3017 30.7184 37.8759 30.8116C38.2439 30.8645 38.6048 30.9584 38.9519 31.0915C39.247 31.2053 39.5074 31.3938 39.7077 31.6384C39.9136 31.9081 40.0183 32.2415 40.0034 32.5805C40.0063 32.8953 39.9021 33.2018 39.7077 33.4496C39.4851 33.7242 39.1928 33.9338 38.8613 34.0566C38.4547 34.2117 38.0221 34.2869 37.5871 34.2783C37.1358 34.2896 36.6881 34.1955 36.2795 34.0034C35.942 33.846 35.6518 33.6027 35.4379 33.2978L35.432 33.289C35.3759 33.2047 35.3436 33.1068 35.3387 33.0057C35.3338 32.9046 35.3564 32.804 35.4042 32.7147C35.4519 32.6254 35.523 32.5507 35.6098 32.4986C35.6966 32.4465 35.7959 32.419 35.8972 32.4188H36.4224C36.5221 32.4211 36.6194 32.4507 36.7035 32.5043C36.7876 32.558 36.8553 32.6338 36.8993 32.7233C36.9355 32.7917 36.9863 32.8512 37.0481 32.8978C37.222 33.0153 37.4299 33.0721 37.6394 33.0594C37.8049 33.07 37.9695 33.0286 38.1104 32.9411C38.1623 32.9058 38.2046 32.8579 38.2331 32.8019C38.2617 32.7459 38.2758 32.6837 38.274 32.6209C38.2744 32.5821 38.2662 32.5437 38.25 32.5084C38.2338 32.4731 38.21 32.4419 38.1803 32.4169C38.0871 32.3455 37.9811 32.2927 37.868 32.2612C37.6584 32.1959 37.4456 32.1413 37.2304 32.0976C36.7278 32.0054 36.2534 31.7976 35.8449 31.4906" fill="#FAA62E"/>
</svg>
