<svg width="48" height="45" viewBox="0 0 48 45" fill="none" xmlns="http://www.w3.org/2000/svg">
<path d="M40.0278 6.02657C35.3281 1.8796 29.1971 -0.272337 22.9365 0.0276287C16.676 0.327594 10.7788 3.05584 6.49708 7.63314C2.21537 12.2104 -0.113732 18.2763 0.00427498 24.543C0.122282 30.8096 2.6781 36.7835 7.12911 41.1964C9.00913 43.0401 11.5392 44.0699 14.1724 44.0631H33.7787C36.2722 44.0974 38.6833 43.1716 40.5131 41.4774C42.9199 39.1797 44.8269 36.4103 46.1148 33.3423C47.4028 30.2742 48.0441 26.9735 47.9987 23.6464C47.9532 20.3193 47.222 17.0373 45.8507 14.0056C44.4795 10.9739 42.4964 8.25764 40.0278 6.02657ZM37.7555 38.5607C36.6685 39.5461 35.2456 40.0782 33.7787 40.048H14.1724C12.589 40.0532 11.0673 39.4346 9.93666 38.3261C7.79616 36.2336 6.1507 33.689 5.12077 30.8784C4.09083 28.0678 3.70249 25.0624 3.98416 22.0823C4.26584 19.1023 5.21041 16.2229 6.74871 13.655C8.28701 11.0872 10.3801 8.89588 12.8748 7.24151C15.3694 5.58715 18.2025 4.51162 21.1665 4.09367C24.1306 3.67572 27.1505 3.92593 30.0054 4.82598C32.8602 5.72603 35.4776 7.25314 37.666 9.2955C39.8544 11.3379 41.5583 13.8438 42.6531 16.6298C43.5723 18.9947 44.0447 21.5096 44.0464 24.0469C44.0475 26.7676 43.49 29.4596 42.4085 31.9561C41.327 34.4526 39.7445 36.7006 37.759 38.5607H37.7555Z" fill="#146394"/>
<path d="M38.1572 23.968C37.8963 24.0054 37.6305 23.9911 37.3751 23.9258C37.1196 23.8605 36.8796 23.7456 36.6686 23.5875C36.4576 23.4295 36.2798 23.2314 36.1453 23.0046C36.0109 22.7778 35.9224 22.5268 35.885 22.2658C35.4623 19.4035 34.0269 16.7877 31.8397 14.8937C29.6525 12.9996 26.8584 11.9529 23.9651 11.9436C13.399 11.7439 7.82575 25.3694 15.5517 32.5903C15.7461 32.7734 15.902 32.9935 16.0103 33.2375C16.1187 33.4816 16.1773 33.7448 16.1827 34.0118C16.1881 34.2788 16.1402 34.5442 16.0418 34.7924C15.9434 35.0407 15.7966 35.2668 15.6098 35.4576C15.4229 35.6485 15.2 35.8001 14.9539 35.9037C14.7078 36.0074 14.4435 36.0609 14.1764 36.0612C13.9094 36.0614 13.645 36.0085 13.3987 35.9053C13.1523 35.8022 12.9291 35.651 12.7419 35.4606C2.46378 25.6911 9.79963 7.75899 23.9651 7.92968C27.8238 7.94301 31.5499 9.33924 34.4672 11.865C37.3845 14.3907 39.2997 17.8786 39.8652 21.6957C39.9026 21.9568 39.8882 22.2228 39.8228 22.4784C39.7574 22.7339 39.6422 22.9741 39.4839 23.1851C39.3256 23.3961 39.1273 23.5739 38.9002 23.7082C38.6732 23.8426 38.4219 23.9308 38.1607 23.968H38.1572ZM38.7599 30.4806C38.654 30.7222 38.5015 30.9406 38.3112 31.1232C38.1209 31.3059 37.8964 31.4492 37.6507 31.5451C37.4049 31.641 37.1427 31.6875 36.879 31.6819C36.6153 31.6764 36.3552 31.6189 36.1137 31.5128L26.343 27.2272C25.6318 27.7522 24.7672 28.0277 23.8834 28.0111C22.9995 27.9946 22.1459 27.6868 21.4548 27.1355C20.7638 26.5843 20.274 25.8203 20.0614 24.9623C19.8488 24.1043 19.9253 23.2 20.2791 22.3899C20.6329 21.5798 21.2441 20.9091 22.018 20.4818C22.7918 20.0546 23.6851 19.8946 24.5591 20.0268C25.4332 20.159 26.2392 20.576 26.852 21.213C27.4649 21.85 27.8505 22.6715 27.9488 23.55L37.7195 27.8379C37.9622 27.9426 38.1819 28.0942 38.3659 28.284C38.5499 28.4738 38.6946 28.6981 38.7917 28.944C38.8888 29.1898 38.9363 29.4524 38.9317 29.7167C38.927 29.981 38.8702 30.2418 38.7645 30.4841L38.7599 30.4806Z" fill="#FAA62E"/>
</svg>
