<svg width="45" height="30" viewBox="0 0 45 30" fill="none" xmlns="http://www.w3.org/2000/svg">
<path d="M6.91719 7.81982C3.71687 7.81982 1.6625 10.0048 1.6625 13.0329C1.6625 16.1204 3.63969 18.2461 7.13687 18.2461C7.89687 18.2461 8.79937 18.1154 9.30406 17.9136V13.8286H6.82812C6.22844 13.8286 5.73562 13.3417 5.73562 12.7361C5.73562 12.552 5.88406 12.3858 6.08594 12.3858H10.5806C10.7766 12.3858 10.9309 12.5461 10.9309 12.7361V18.7033C10.9309 18.9408 10.8122 19.0536 10.6341 19.1189C9.5 19.5464 8.41344 19.7304 7.03 19.7304C2.755 19.7304 0 16.9398 0 13.0329C0 9.23889 2.66 6.33545 6.82219 6.33545C8.18781 6.33545 9.34563 6.51357 10.3847 6.89951C10.5866 6.97076 10.6816 7.09545 10.6519 7.29732L10.6459 7.3092C10.3134 7.91482 9.61875 8.20576 8.94781 8.03951C8.32438 7.89107 7.65344 7.81982 6.91719 7.81982Z" fill="#243C96"/>
<path d="M13.7037 6.56104C14.4043 6.56104 14.9803 7.13697 14.9803 7.8376V19.1545C14.9803 19.3504 14.82 19.5048 14.63 19.5048H13.7037C13.5018 19.5048 13.3534 19.3385 13.3534 19.1545V6.91135C13.3534 6.72728 13.5018 6.56104 13.7037 6.56104Z" fill="#243C96"/>
<path d="M23.7976 7.81982C20.5972 7.81982 18.5429 10.0048 18.5429 13.0329C18.5429 16.1204 20.5201 18.2461 24.0172 18.2461C24.7772 18.2461 25.6797 18.1154 26.1785 17.9136V13.8286H23.7026C23.0969 13.8286 22.6101 13.3417 22.6101 12.7361C22.6101 12.552 22.7585 12.3858 22.9604 12.3858H27.4551C27.651 12.3858 27.8054 12.5461 27.8054 12.7361V18.7033C27.8054 18.9408 27.6866 19.0536 27.5085 19.1189C26.3685 19.5464 25.2879 19.7304 23.9044 19.7304C19.6354 19.7304 16.8804 16.9398 16.8804 13.0329C16.8804 9.23889 19.5404 6.33545 23.7026 6.33545C25.0682 6.33545 26.226 6.51357 27.2651 6.89951C27.4669 6.97076 27.5619 7.09545 27.5322 7.29732C27.1938 7.90889 26.4932 8.19982 25.8163 8.03951C25.1988 7.89107 24.5279 7.81982 23.7976 7.81982Z" fill="#243C96"/>
<path d="M42.2096 8.10449C42.364 8.5498 42.4828 8.98918 42.5659 9.42262C43.0409 11.8214 42.4234 14.0657 40.6481 15.6867C38.8906 17.2007 36.6759 17.5807 34.4137 16.9454C34.4078 16.9454 34.3959 16.9395 34.39 16.9395C34.384 16.9395 34.3781 16.9336 34.3721 16.9336C33.8734 16.7911 33.3628 16.6011 32.864 16.3576C33.9446 18.3645 36.0703 19.7301 38.5106 19.7301C38.5343 19.7301 38.5581 19.7301 38.5759 19.7301C41.3903 19.7004 43.7712 17.8539 44.5965 15.3067C44.7984 14.6832 44.9053 14.0242 44.9053 13.3354C44.9112 11.1682 43.8484 9.2623 42.2096 8.10449Z" fill="#D49173"/>
<path d="M42.2096 8.10469C41.5209 3.82969 40.5056 1.79313 39.6625 0.64125C39.6625 0.64125 39.6625 0.64125 39.6625 0.635312C39.6328 0.587812 39.3596 0.225625 39.0212 0.0712498C38.9203 0.0237498 38.8134 0 38.7065 0C38.475 0 38.2612 0.124688 38.1425 0.45125C38.1009 0.564063 38.0771 0.68875 38.0712 0.8075C38.0237 2.00094 38.1425 4.03156 40.2325 6.365C40.7846 6.9825 41.5446 7.52875 42.2096 8.10469Z" fill="#243C96"/>
<path d="M33.8141 16.4051C33.8141 12.8723 36.6937 10.0104 40.2384 10.0104C40.8203 10.0104 41.3784 10.0876 41.9128 10.2301C41.1706 9.58883 39.9831 8.54977 39.6091 8.21727C37.3884 6.24602 37.3469 3.09914 37.3587 2.54102C37.1687 2.91508 36.955 3.27727 36.7353 3.58008C35.9694 4.6132 34.6691 6.55477 33.4341 8.90602C31.4331 12.7238 32.0209 14.7901 32.8759 16.3516C33.1906 16.5001 33.5053 16.6366 33.82 16.7435L33.8141 16.4051Z" fill="#243C96"/>
<path d="M42.9994 29.0342H1.91786C0.860982 29.0342 0.00598145 28.0901 0.00598145 26.9264V24.9076C0.00598145 23.7439 0.86692 22.7998 1.91786 22.7998H42.9994C44.0563 22.7998 44.9113 23.7439 44.9113 24.9076V26.9264C44.9113 28.0901 44.0563 29.0342 42.9994 29.0342ZM1.91786 23.1264C1.02723 23.1264 0.296919 23.9279 0.296919 24.9076V26.9264C0.296919 27.912 1.02129 28.7076 1.91786 28.7076H42.9994C43.89 28.7076 44.6204 27.9061 44.6204 26.9264V24.9076C44.6204 23.922 43.896 23.1264 42.9994 23.1264H1.91786Z" fill="#243C96"/>
<path d="M5.68811 27.1817C5.72967 27.1342 5.74748 27.0808 5.75342 27.0214C5.75936 26.9323 5.76529 26.7839 5.77123 26.5761C5.77123 26.3623 5.77717 26.0833 5.77717 25.733C5.77717 25.1926 5.77717 24.8364 5.77123 24.6642C5.77123 24.593 5.74154 24.5276 5.69404 24.4801C5.64654 24.4326 5.56936 24.3792 5.45654 24.3317H5.90779L6.19279 24.3258C6.33529 24.3198 6.44217 24.3198 6.51342 24.3198C6.8281 24.3198 7.07154 24.397 7.24967 24.5455C7.42779 24.6939 7.51685 24.9017 7.51685 25.1748C7.51685 25.3589 7.47529 25.5251 7.39217 25.6676C7.30904 25.8101 7.19623 25.917 7.05373 25.9942C6.91123 26.0714 6.75686 26.107 6.58467 26.107C6.50748 26.107 6.43623 26.0951 6.37092 26.0714C6.31748 26.0476 6.27592 26.012 6.24623 25.9586C6.31748 25.9764 6.40654 25.9883 6.49561 25.9883C6.70936 25.9883 6.87561 25.923 7.00029 25.7983C7.12498 25.6736 7.18435 25.5014 7.18435 25.2817C7.18435 25.0323 7.11904 24.8304 6.98248 24.6761C6.84592 24.5217 6.65592 24.4445 6.41248 24.4445C6.31154 24.4445 6.22842 24.4505 6.15123 24.4623C6.1156 24.4683 6.09779 24.4979 6.09779 24.5395C6.10373 25.0739 6.10373 25.4776 6.10373 25.7508C6.10373 25.9408 6.10373 26.0833 6.10967 26.1783C6.10967 26.5642 6.10967 26.8433 6.1156 27.0155C6.1156 27.0867 6.14529 27.1401 6.19279 27.1876C6.24029 27.2351 6.32342 27.2767 6.43623 27.3123H5.49217C5.57529 27.2648 5.64654 27.2233 5.68811 27.1817Z" fill="#243C96"/>
<path d="M8.18782 27.1818C8.22938 27.1343 8.24719 27.0808 8.25313 27.0215C8.265 26.879 8.27094 26.594 8.27094 26.1665V25.4658C8.27094 25.0977 8.27094 24.8305 8.265 24.6583C8.265 24.5871 8.23532 24.5218 8.18782 24.4743C8.14032 24.4268 8.06313 24.3733 7.95032 24.3258H8.40157L8.66282 24.3199C8.7875 24.314 8.8825 24.314 8.95375 24.314C9.25063 24.314 9.49407 24.3793 9.66625 24.5099C9.84438 24.6405 9.93344 24.8246 9.93344 25.068C9.93344 25.258 9.89188 25.4183 9.80875 25.549C9.72563 25.6796 9.595 25.8102 9.42282 25.9408C9.76719 26.4277 10.0225 26.7662 10.1828 26.9562C10.2541 27.0393 10.3253 27.1105 10.3906 27.164C10.45 27.2174 10.5213 27.2649 10.5984 27.3124H10.07C10.0284 27.3124 9.99875 27.3124 9.98688 27.3065C9.975 27.3005 9.95719 27.2827 9.93344 27.259C9.85625 27.1462 9.72563 26.9502 9.55344 26.6652C9.48219 26.5465 9.35157 26.3446 9.15563 26.0596C9.14375 26.0418 9.12594 26.0358 9.10219 26.0358L8.59157 26.0299C8.59157 26.5227 8.5975 26.8493 8.60938 27.0096C8.61532 27.0808 8.63907 27.1343 8.6925 27.1818C8.74 27.2293 8.82313 27.2708 8.93 27.3065H7.98594C8.08094 27.2649 8.14625 27.2233 8.18782 27.1818ZM9.45844 25.733C9.5475 25.6143 9.595 25.4599 9.595 25.258C9.595 25.0027 9.53563 24.8008 9.41688 24.6583C9.29813 24.5158 9.12594 24.4446 8.88844 24.4446C8.79938 24.4446 8.71625 24.4505 8.63907 24.4624C8.60344 24.4683 8.58563 24.498 8.58563 24.5396V25.8043C8.58563 25.828 8.5975 25.8458 8.61532 25.8518C8.72813 25.8933 8.86469 25.9112 9.03094 25.9112C9.22688 25.9052 9.36938 25.8458 9.45844 25.733Z" fill="#243C96"/>
<path d="M12.1421 27.3066H10.7765C10.8893 27.2591 10.9606 27.2057 11.0021 27.1582C11.0378 27.1107 11.0615 27.0513 11.0675 26.9801C11.0793 26.8376 11.0853 26.4991 11.0853 25.9588V25.4482C11.0853 25.1276 11.0853 24.8782 11.0793 24.6941C11.0793 24.611 11.0556 24.5457 11.0081 24.4922C10.9606 24.4388 10.8834 24.3794 10.7646 24.3201H12.0828C12.154 24.3201 12.2609 24.3141 12.3915 24.3022V24.8722C12.3381 24.7594 12.2906 24.6763 12.2609 24.6229C12.2253 24.5694 12.1896 24.5279 12.1421 24.4982C12.0946 24.4685 12.0353 24.4566 11.964 24.4566H11.4059V25.6441H12.0056C12.1125 25.6441 12.2193 25.6263 12.3203 25.5907L12.2787 26.0122C12.2431 25.9232 12.2134 25.8638 12.1837 25.8341C12.154 25.8044 12.1065 25.7866 12.0412 25.7866H11.4059V25.9529C11.4059 26.4694 11.4118 26.8079 11.4237 26.9741C11.4296 27.0394 11.4534 27.0869 11.4831 27.1166C11.5128 27.1463 11.5662 27.1582 11.6375 27.1582H12.065C12.1421 27.1582 12.2075 27.1404 12.255 27.1107C12.3025 27.081 12.35 27.0335 12.3856 26.9801C12.4212 26.9266 12.4687 26.8435 12.5281 26.7307L12.4746 27.3126C12.3262 27.3066 12.2134 27.3066 12.1421 27.3066Z" fill="#243C96"/>
<path d="M13.9116 26.7839L13.11 24.7889C13.0566 24.6464 12.9972 24.5455 12.9438 24.4742C12.8903 24.403 12.8131 24.3554 12.7181 24.3198H13.5672C13.496 24.3436 13.4485 24.3733 13.4188 24.403C13.3891 24.4386 13.3713 24.4801 13.3713 24.5276C13.3713 24.587 13.395 24.6701 13.4366 24.7889L14.2144 26.7483H14.2322L15.01 24.7354C15.0397 24.6642 15.0516 24.5929 15.0516 24.5395C15.0516 24.492 15.0338 24.4504 14.9922 24.4208C14.9506 24.3911 14.8853 24.3555 14.7903 24.3258H15.5681C15.4672 24.3673 15.39 24.4208 15.3366 24.4801C15.2831 24.5395 15.2356 24.6345 15.1822 24.7651L14.4044 26.7542L14.3628 26.8492C14.3391 26.9026 14.3094 26.9858 14.2678 27.0867C14.2263 27.1876 14.1966 27.2648 14.1788 27.3123H14.1135L13.9116 26.7839Z" fill="#243C96"/>
<path d="M16.0253 27.1934C16.0668 27.1459 16.0906 27.0925 16.0965 27.0212C16.1084 26.8787 16.1143 26.5284 16.1143 25.9644V25.4419C16.1143 25.1034 16.1143 24.8481 16.1084 24.664C16.1084 24.5809 16.0846 24.5156 16.0371 24.474C15.9896 24.4265 15.9125 24.379 15.7937 24.3315H16.7675C16.6368 24.379 16.5478 24.4325 16.5003 24.474C16.4528 24.5215 16.429 24.5809 16.429 24.664V25.9703C16.429 26.5047 16.435 26.855 16.4468 27.0153C16.4528 27.0865 16.4765 27.14 16.524 27.1875C16.5715 27.235 16.6428 27.2765 16.7496 27.3122H15.8056C15.9065 27.2765 15.9778 27.235 16.0253 27.1934Z" fill="#243C96"/>
<path d="M18.1153 27.152C17.8778 27.0273 17.6937 26.8551 17.5512 26.6354C17.4146 26.4098 17.3434 26.1545 17.3434 25.8576C17.3434 25.5607 17.4087 25.2936 17.5393 25.0561C17.6699 24.8186 17.854 24.6286 18.0856 24.492C18.3171 24.3554 18.5903 24.2842 18.8871 24.2842C19.1721 24.2842 19.4334 24.3495 19.6709 24.4742C19.9084 24.5989 20.0924 24.777 20.229 25.0026C20.3656 25.2282 20.4368 25.4895 20.4368 25.7864C20.4368 26.0832 20.3656 26.3445 20.229 26.582C20.0924 26.8195 19.9084 27.0036 19.6709 27.1342C19.4334 27.2707 19.1721 27.3361 18.8871 27.3361C18.6081 27.3361 18.3468 27.2767 18.1153 27.152ZM19.5581 27.0036C19.7243 26.8907 19.849 26.7364 19.9321 26.5345C20.0153 26.3386 20.0568 26.1189 20.0568 25.8695C20.0568 25.6023 20.0034 25.3648 19.9024 25.1451C19.7956 24.9314 19.6531 24.7592 19.4631 24.6345C19.2731 24.5098 19.0593 24.4504 18.8159 24.4504C18.5843 24.4504 18.3884 24.5098 18.2221 24.6226C18.0559 24.7354 17.9312 24.8957 17.8421 25.0917C17.7531 25.2876 17.7115 25.5132 17.7115 25.7626C17.7115 26.0239 17.7649 26.2614 17.8659 26.4751C17.9668 26.6889 18.1153 26.8551 18.3053 26.9798C18.4953 27.1045 18.7149 27.1639 18.9643 27.1639C19.1959 27.1757 19.3918 27.1164 19.5581 27.0036Z" fill="#243C96"/>
<path d="M21.6481 27.0807C21.4343 26.9085 21.3275 26.6472 21.3275 26.3029V25.5785C21.3275 25.1451 21.3275 24.8422 21.3215 24.6582C21.3215 24.5751 21.2978 24.5097 21.2503 24.4682C21.2028 24.4207 21.1256 24.3732 21.0068 24.3257H22.0162C21.8796 24.3672 21.7846 24.4088 21.7312 24.4563C21.6837 24.5038 21.654 24.5691 21.654 24.6582V26.2791C21.654 26.5641 21.7372 26.7838 21.9034 26.9382C22.0697 27.0926 22.2893 27.1697 22.5625 27.1697C22.8356 27.1697 23.0493 27.0985 23.2097 26.956C23.37 26.8135 23.4472 26.6057 23.4472 26.3266C23.4472 25.9644 23.4471 25.6913 23.4412 25.5132L23.4353 24.6641C23.4353 24.581 23.4056 24.5097 23.3462 24.4622C23.2868 24.4147 23.1918 24.3672 23.0612 24.3316H23.9162C23.7915 24.3791 23.7025 24.4266 23.6609 24.4682C23.6193 24.5097 23.5956 24.5751 23.5956 24.6641V26.3147C23.5956 26.6591 23.4946 26.9144 23.2868 27.0866C23.079 27.2588 22.8118 27.3479 22.4793 27.3479C22.1409 27.336 21.8678 27.2529 21.6481 27.0807Z" fill="#243C96"/>
<path d="M24.5219 27.2411C24.4981 27.2293 24.4803 27.2174 24.4744 27.2055C24.4625 27.1936 24.4625 27.1699 24.4625 27.1461C24.4625 27.1283 24.4685 27.0333 24.4803 26.873L24.4982 26.6118C24.5516 26.8196 24.6288 26.968 24.7297 27.063C24.8306 27.158 24.9732 27.1996 25.1572 27.1996C25.3353 27.1996 25.4778 27.1521 25.5788 27.063C25.6797 26.9739 25.7272 26.8493 25.7272 26.683C25.7272 26.5346 25.6797 26.4099 25.5906 26.303C25.5016 26.1961 25.3591 26.0714 25.181 25.9349C25.0444 25.828 24.9375 25.733 24.8485 25.6499C24.7594 25.5668 24.6881 25.4718 24.6288 25.3589C24.5694 25.2461 24.5397 25.1274 24.5397 24.9908C24.5397 24.7771 24.611 24.6049 24.7653 24.4743C24.9138 24.3436 25.1157 24.2783 25.3591 24.2783C25.4422 24.2783 25.5135 24.2843 25.5728 24.2902C25.6322 24.2961 25.7035 24.308 25.7807 24.3258C25.84 24.3377 25.8816 24.3436 25.9053 24.3436V24.8839C25.8578 24.7296 25.7866 24.6108 25.6916 24.5336C25.5966 24.4564 25.46 24.4149 25.2878 24.4149C25.1394 24.4149 25.0207 24.4505 24.9316 24.5277C24.8425 24.6049 24.801 24.7177 24.801 24.8721C24.801 24.9968 24.8425 25.1155 24.9316 25.2105C25.0207 25.3114 25.1453 25.4302 25.3175 25.5608L25.4185 25.638C25.6025 25.7805 25.751 25.923 25.8578 26.0596C25.9647 26.1961 26.0182 26.3564 26.0182 26.5405C26.0182 26.778 25.935 26.968 25.7628 27.1105C25.5907 27.253 25.365 27.3243 25.0741 27.3243C24.8485 27.3361 24.6703 27.3064 24.5219 27.2411Z" fill="#243C96"/>
<path d="M27.9419 27.3062H26.5525C26.6535 27.2765 26.7247 27.235 26.7722 27.1934C26.8138 27.1459 26.8375 27.0925 26.8435 27.0212C26.8553 26.8787 26.8613 26.5284 26.8613 25.9644V25.4419C26.8613 25.1034 26.8613 24.8481 26.8553 24.664C26.8553 24.5809 26.8316 24.5156 26.7841 24.474C26.7366 24.4265 26.6594 24.379 26.5406 24.3315H27.5144C27.3838 24.379 27.2947 24.4325 27.2472 24.474C27.1997 24.5215 27.176 24.5809 27.176 24.664V25.9703C27.176 26.1603 27.176 26.3622 27.1819 26.5819C27.1878 26.7956 27.1878 26.9322 27.1938 26.9915C27.1997 27.0628 27.2175 27.1103 27.2472 27.134C27.2769 27.1578 27.3303 27.1756 27.4075 27.1756H27.8588C27.936 27.1756 28.0013 27.1578 28.0488 27.1281C28.0963 27.0984 28.1438 27.0509 28.1794 26.9975C28.215 26.944 28.2625 26.8609 28.3219 26.7481L28.2685 27.33C28.126 27.3062 28.0132 27.3062 27.9419 27.3062Z" fill="#243C96"/>
<path d="M29.4321 27.1935C29.4737 27.146 29.4974 27.0926 29.5034 27.0213C29.5152 26.8669 29.5212 26.6354 29.5212 26.3266V26.0357C29.4796 25.9347 29.4381 25.8576 29.4084 25.7982L28.7552 24.6344C28.7137 24.5632 28.6662 24.5038 28.6246 24.4563C28.5771 24.4088 28.5177 24.3672 28.4406 24.3257H29.1827C29.0877 24.3613 29.0462 24.4147 29.0462 24.486C29.0462 24.5216 29.0581 24.5632 29.0818 24.6107L29.7527 25.8279H29.7706L30.4118 24.6047C30.4356 24.5632 30.4415 24.5276 30.4415 24.4919C30.4415 24.4207 30.3821 24.3613 30.2693 24.3257H30.9046C30.8215 24.3494 30.7562 24.3851 30.7087 24.4326C30.6612 24.4801 30.6196 24.5394 30.584 24.6166L29.8477 25.9704C29.8477 26.4691 29.8537 26.8135 29.8656 27.0154C29.8715 27.0866 29.8952 27.1401 29.9427 27.1876C29.9902 27.2351 30.0615 27.2766 30.1684 27.3122H29.2243C29.3193 27.2766 29.3906 27.2351 29.4321 27.1935Z" fill="#243C96"/>
<path d="M33.9981 27.0808C33.9981 27.0512 33.9922 27.0215 33.9803 26.9858C33.9684 26.9502 33.9506 26.9027 33.9269 26.8374L33.6715 26.208H32.6384L32.3712 26.8908C32.3415 26.9621 32.3297 27.0274 32.3297 27.0749C32.3297 27.1224 32.3534 27.1699 32.4009 27.1996C32.4484 27.2352 32.5256 27.2649 32.6325 27.3005H31.7953C31.9022 27.259 31.9912 27.2055 32.0506 27.1343C32.11 27.069 32.1694 26.974 32.2169 26.8493L32.9947 24.8721L33.0362 24.7771C33.06 24.7237 33.0897 24.6405 33.1312 24.5396C33.1728 24.4387 33.2025 24.3615 33.2203 24.314H33.2737L33.4815 24.8365L34.2831 26.8315C34.3365 26.9562 34.3959 27.0571 34.4553 27.1343C34.5206 27.2055 34.5978 27.2649 34.6928 27.3005H33.7072C33.8972 27.2352 33.9981 27.164 33.9981 27.0808ZM33.624 26.0715L33.1609 24.9196H33.1431L32.6919 26.0715H33.624Z" fill="#243C96"/>
<path d="M36.765 27.241C36.8006 27.2172 36.8184 27.1935 36.8184 27.1638C36.8184 27.1401 36.8125 27.1222 36.8006 27.0985C36.7887 27.0747 36.7709 27.051 36.7591 27.0272L36.0287 25.9941L35.2628 27.051C35.2509 27.0688 35.239 27.0866 35.2272 27.1044C35.2153 27.1222 35.2094 27.146 35.2094 27.1638C35.2094 27.1935 35.2272 27.2172 35.2687 27.241C35.3044 27.2647 35.3697 27.2885 35.4469 27.3122H34.6334C34.7403 27.2826 34.8175 27.2529 34.8709 27.2172C34.9244 27.1816 34.9719 27.1341 35.0194 27.0747L35.9159 25.8457L35.0312 24.5988C34.9719 24.5157 34.9125 24.4563 34.8591 24.4147C34.8056 24.3732 34.7344 24.3435 34.6394 24.3257H35.5478C35.4944 24.3376 35.4469 24.3554 35.4172 24.3791C35.3875 24.4029 35.3697 24.4266 35.3697 24.4622C35.3697 24.4979 35.3875 24.5454 35.4231 24.5988L36.1119 25.5666L36.8303 24.5869C36.86 24.5513 36.8719 24.5157 36.8719 24.486C36.8719 24.4622 36.854 24.4326 36.8125 24.4147C36.7709 24.391 36.7056 24.3672 36.6106 24.3316H37.424C37.329 24.3554 37.2519 24.391 37.1925 24.4266C37.1331 24.4622 37.0856 24.5157 37.0381 24.5869L36.2306 25.7091L37.1806 27.051C37.2222 27.1163 37.2756 27.1697 37.335 27.2054C37.3944 27.2469 37.4775 27.2766 37.5665 27.3004H36.6047C36.6819 27.2826 36.7294 27.2647 36.765 27.241Z" fill="#243C96"/>
<path d="M39.7278 27.0808C39.7278 27.0512 39.7219 27.0215 39.71 26.9858C39.6981 26.9502 39.6803 26.9027 39.6565 26.8374L39.4012 26.208H38.3622L38.095 26.8908C38.0653 26.9621 38.0534 27.0274 38.0534 27.0749C38.0534 27.1224 38.0772 27.1699 38.1247 27.1996C38.1722 27.2352 38.2494 27.2649 38.3562 27.3005H37.519C37.6259 27.259 37.715 27.2055 37.7744 27.1343C37.8337 27.069 37.8931 26.974 37.9406 26.8493L38.7184 24.8721L38.76 24.7771C38.7837 24.7237 38.8134 24.6405 38.855 24.5396C38.8965 24.4387 38.9262 24.3615 38.944 24.314H38.9975L39.2053 24.8365L40.0069 26.8315C40.0603 26.9562 40.1197 27.0571 40.179 27.1343C40.2444 27.2055 40.3215 27.2649 40.4165 27.3005H39.4309C39.6328 27.2352 39.7278 27.164 39.7278 27.0808ZM39.3537 26.0715L38.8906 24.9196H38.8728L38.4215 26.0715H39.3537Z" fill="#243C96"/>
</svg>
