<svg width="53" height="4" viewBox="0 0 53 4" fill="none" xmlns="http://www.w3.org/2000/svg">
<path d="M29.7425 0.0314936H30.0141V1.78731C30.0624 1.83154 30.1204 1.86389 30.1834 1.88179C30.2628 1.9043 30.345 1.91491 30.4275 1.91329C30.4545 1.90573 30.4831 1.90573 30.5102 1.91329C30.52 1.92031 30.5278 1.92988 30.5327 1.94097C30.5375 1.95206 30.5393 1.96427 30.5377 1.97628V2.07863C30.5407 2.09292 30.5407 2.10765 30.5377 2.12194L30.5141 2.14949H30.4787H30.4236C30.3391 2.15283 30.2548 2.13945 30.1755 2.11013C30.1135 2.08998 30.056 2.05788 30.0063 2.01564C29.994 2.12371 29.9634 2.22888 29.9157 2.32665C29.8751 2.42097 29.8131 2.50453 29.7346 2.57073C29.6556 2.64093 29.5632 2.69448 29.463 2.7282C29.3481 2.7695 29.2267 2.78951 29.1047 2.78726C28.9794 2.78966 28.8549 2.7669 28.7386 2.72033C28.6403 2.6824 28.5516 2.62325 28.4788 2.54711C28.4109 2.47455 28.3586 2.38879 28.3252 2.29516C28.2908 2.19919 28.2735 2.09792 28.2741 1.99596C28.2747 1.89055 28.2906 1.78579 28.3213 1.68495C28.3329 1.6377 28.3487 1.59158 28.3685 1.54716C28.3852 1.50365 28.4078 1.46259 28.4355 1.42512L28.6638 1.5511C28.6463 1.57831 28.6317 1.60735 28.6205 1.63771C28.6205 1.6692 28.6008 1.70464 28.589 1.74007C28.5852 1.77672 28.5852 1.81365 28.589 1.8503C28.5851 1.88694 28.5851 1.92389 28.589 1.96053C28.5863 2.03434 28.5983 2.10795 28.6244 2.17705C28.6478 2.2446 28.6854 2.30636 28.7347 2.35815C28.7839 2.41059 28.8445 2.451 28.9118 2.47625C28.9898 2.50567 29.0726 2.52035 29.1559 2.51955C29.2458 2.52218 29.3353 2.50747 29.4197 2.47625C29.4929 2.44985 29.559 2.40671 29.6126 2.35027C29.6689 2.29268 29.7108 2.22251 29.7346 2.14556C29.7643 2.0581 29.7789 1.96626 29.7779 1.87392V0L29.7425 0.0314936Z" fill="#56B7E7"/>
<path d="M31.1126 1.81879C31.1625 1.84785 31.2152 1.8716 31.2701 1.88966C31.3434 1.89653 31.4172 1.89653 31.4905 1.88966C31.5175 1.88189 31.5462 1.88189 31.5732 1.88966C31.5732 1.88966 31.6008 1.91722 31.6008 1.94871V2.05106C31.6033 2.06671 31.6033 2.08267 31.6008 2.09831C31.595 2.10805 31.5869 2.11618 31.5771 2.12193H31.5417H31.4866C31.3984 2.12345 31.3106 2.11015 31.2268 2.08256C31.1635 2.05889 31.1048 2.02424 31.0535 1.98021C31.0272 2.02001 30.9939 2.05469 30.9551 2.08256C30.908 2.11213 30.8533 2.12719 30.7977 2.12586H30.4394C30.4123 2.13304 30.3838 2.13304 30.3567 2.12586C30.3479 2.11814 30.3411 2.10835 30.337 2.09735C30.3328 2.08636 30.3315 2.07451 30.3331 2.06288V1.96446C30.3305 1.94882 30.3305 1.93286 30.3331 1.91721C30.3378 1.90673 30.3462 1.89833 30.3567 1.89359C30.367 1.89028 30.378 1.89028 30.3882 1.89359H30.7347C30.7497 1.89318 30.7645 1.88901 30.7776 1.88144C30.7906 1.87388 30.8016 1.86317 30.8095 1.85029C30.8324 1.81241 30.8433 1.76851 30.841 1.72431V1.00781H31.1087V1.79517L31.1126 1.81879ZM30.8173 2.62978C30.8151 2.60884 30.8151 2.58773 30.8173 2.56679C30.8254 2.54743 30.8375 2.52999 30.8528 2.51561C30.8675 2.50074 30.8848 2.48872 30.9039 2.48018C30.9247 2.47604 30.9461 2.47604 30.9669 2.48018H31.026C31.0451 2.48872 31.0624 2.50074 31.0772 2.51561C31.0924 2.52999 31.1045 2.54743 31.1126 2.56679C31.1167 2.58758 31.1167 2.60898 31.1126 2.62978C31.1144 2.64942 31.1144 2.66919 31.1126 2.68883C31.1066 2.70927 31.0942 2.72723 31.0772 2.74001C31.0636 2.75618 31.0459 2.76842 31.026 2.77544H30.9669C30.9279 2.77545 30.8905 2.76023 30.8625 2.73302C30.8346 2.70581 30.8184 2.66877 30.8173 2.62978Z" fill="#56B7E7"/>
<path d="M33.0574 2.18091C32.9393 2.18091 32.833 2.18091 32.7385 2.18091C32.6486 2.1725 32.5593 2.15936 32.4708 2.14154L32.2897 2.1691C32.2215 2.17313 32.1532 2.17313 32.085 2.1691H31.8724H31.5063C31.4793 2.17666 31.4507 2.17666 31.4236 2.1691C31.4148 2.16138 31.408 2.15158 31.4039 2.14059C31.3997 2.12959 31.3984 2.11775 31.4 2.10611V2.00376C31.3955 1.98967 31.3955 1.97453 31.4 1.96045C31.3982 1.95135 31.3982 1.94199 31.4 1.93289H31.4354H31.8921C31.8636 1.91148 31.8395 1.88474 31.8212 1.85416C31.8212 1.82266 31.7897 1.79117 31.774 1.75967C31.7707 1.72274 31.7734 1.68553 31.7819 1.64944C31.7801 1.6206 31.7801 1.59168 31.7819 1.56283C31.7798 1.48705 31.7946 1.41175 31.8252 1.34237C31.8564 1.27188 31.9004 1.2078 31.9551 1.15341C32.012 1.09725 32.0805 1.05425 32.1559 1.02743C32.2427 0.995161 32.3348 0.979146 32.4275 0.980186C32.5055 0.978101 32.5831 0.991483 32.6558 1.01956C32.7174 1.04739 32.7734 1.08606 32.8212 1.13372C32.8661 1.18135 32.9009 1.2376 32.9235 1.29907C32.9474 1.36602 32.9594 1.43663 32.959 1.50772C32.9629 1.54962 32.9629 1.59179 32.959 1.6337C32.959 1.67306 32.959 1.71243 32.9314 1.74786L32.896 1.84628L32.8645 1.92108H33.2582C33.2853 1.91391 33.3137 1.91391 33.3408 1.92108C33.3497 1.9288 33.3565 1.9386 33.3606 1.9496C33.3647 1.96059 33.3661 1.97244 33.3645 1.98407V2.08249C33.367 2.09813 33.367 2.11409 33.3645 2.12973C33.3587 2.13948 33.3506 2.1476 33.3408 2.15335C33.3306 2.15666 33.3196 2.15666 33.3093 2.15335H33.1007L33.0574 2.18091ZM31.9748 0.488086C31.9706 0.467293 31.9706 0.445889 31.9748 0.425097C31.9829 0.405742 31.9949 0.388306 32.0102 0.373919C32.0237 0.360342 32.0397 0.349628 32.0574 0.342424C32.0783 0.338824 32.0996 0.338824 32.1204 0.342424C32.1412 0.338388 32.1626 0.338388 32.1834 0.342424C32.2018 0.35058 32.219 0.361174 32.2346 0.373919C32.2486 0.389341 32.2605 0.406549 32.27 0.425097C32.2742 0.445889 32.2742 0.467293 32.27 0.488086C32.2722 0.509026 32.2722 0.530134 32.27 0.551074C32.2605 0.569622 32.2486 0.586831 32.2346 0.602253C32.219 0.614998 32.2018 0.625592 32.1834 0.633748C32.1628 0.639655 32.141 0.639655 32.1204 0.633748C32.1 0.634907 32.0796 0.631636 32.0606 0.624161C32.0415 0.616686 32.0244 0.605184 32.0102 0.590443C31.986 0.561948 31.9734 0.525432 31.9748 0.488086ZM32.0181 1.52347C32.0193 1.57611 32.0311 1.62798 32.0527 1.67599C32.0744 1.724 32.1054 1.76718 32.1441 1.80298C32.1847 1.83749 32.2315 1.86418 32.2818 1.88172C32.3367 1.89883 32.3937 1.9081 32.4511 1.90927H32.5456C32.5605 1.88942 32.5736 1.86835 32.585 1.84628C32.6008 1.81922 32.6127 1.79006 32.6204 1.75967C32.6338 1.72651 32.6443 1.69227 32.6519 1.65732C32.656 1.62068 32.656 1.58372 32.6519 1.54709C32.6515 1.49728 32.6421 1.44794 32.6243 1.40142C32.6092 1.361 32.585 1.32462 32.5535 1.29513C32.5248 1.26832 32.4914 1.24698 32.4551 1.23214C32.4178 1.21601 32.3776 1.20796 32.337 1.20852C32.2956 1.20932 32.2545 1.21595 32.2149 1.22821C32.1349 1.25422 32.0684 1.31083 32.0299 1.38568C32.0186 1.43068 32.0146 1.4772 32.0181 1.52347ZM32.4118 0.488086C32.4095 0.467148 32.4095 0.446035 32.4118 0.425097C32.4213 0.406549 32.4332 0.389341 32.4472 0.373919C32.4628 0.361174 32.48 0.35058 32.4984 0.342424C32.517 0.332084 32.538 0.32666 32.5594 0.32666C32.5807 0.32666 32.6017 0.332084 32.6204 0.342424C32.6398 0.34864 32.6573 0.359447 32.6716 0.373919C32.6868 0.388306 32.6989 0.405742 32.707 0.425097C32.7111 0.445889 32.7111 0.467293 32.707 0.488086C32.7092 0.509023 32.7092 0.530137 32.707 0.551074C32.6989 0.570429 32.6868 0.587867 32.6716 0.602253C32.6573 0.616726 32.6398 0.627532 32.6204 0.633748C32.6011 0.639326 32.5806 0.639326 32.5614 0.633748C32.5411 0.635361 32.5207 0.632815 32.5014 0.62627C32.4821 0.619724 32.4644 0.609315 32.4493 0.59568C32.4342 0.582045 32.422 0.56547 32.4135 0.54697C32.405 0.52847 32.4004 0.508432 32.3999 0.488086H32.4118Z" fill="#56B7E7"/>
<path d="M33.8919 1.81871C33.9414 1.84849 33.9943 1.87228 34.0494 1.88957C34.1214 1.8962 34.1939 1.8962 34.2659 1.88957C34.2929 1.88181 34.3216 1.88181 34.3486 1.88957C34.3581 1.89597 34.3657 1.90485 34.3706 1.91526C34.3754 1.92567 34.3774 1.9372 34.3761 1.94862V2.05098C34.3807 2.06639 34.3807 2.08281 34.3761 2.09822C34.3746 2.10328 34.3721 2.10798 34.3687 2.11204C34.3653 2.11609 34.3611 2.11943 34.3564 2.12184H34.321H34.2659C34.1777 2.12337 34.0899 2.11006 34.0061 2.08247C33.9428 2.05881 33.8841 2.02416 33.8328 1.98012C33.8065 2.01992 33.7732 2.0546 33.7344 2.08247C33.6873 2.11205 33.6326 2.12711 33.577 2.12578H33.2187C33.1916 2.13296 33.1631 2.13296 33.136 2.12578C33.1272 2.11806 33.1204 2.10826 33.1163 2.09727C33.1122 2.08627 33.1108 2.07443 33.1124 2.06279V1.96437C33.108 1.94893 33.108 1.93257 33.1124 1.91713C33.1141 1.91155 33.1171 1.90648 33.1213 1.90236C33.1254 1.89824 33.1305 1.8952 33.136 1.89351C33.1463 1.8902 33.1573 1.8902 33.1675 1.89351H33.514C33.5291 1.8931 33.5438 1.88892 33.5569 1.88136C33.5699 1.87379 33.5809 1.86309 33.5888 1.8502C33.6103 1.8119 33.6199 1.76803 33.6163 1.72423V1.00773H33.888V1.79509L33.8919 1.81871ZM33.3801 0.488069C33.376 0.467277 33.376 0.445873 33.3801 0.42508C33.3865 0.405798 33.3973 0.388275 33.4116 0.373918C33.426 0.359561 33.4435 0.348769 33.4628 0.342408C33.4822 0.332069 33.5038 0.32666 33.5258 0.32666C33.5478 0.32666 33.5694 0.332069 33.5888 0.342408C33.6072 0.350564 33.6244 0.361158 33.64 0.373903L33.6754 0.42508C33.6795 0.445873 33.6795 0.467277 33.6754 0.488069C33.6775 0.50901 33.6775 0.530117 33.6754 0.551058L33.64 0.602237C33.6244 0.614982 33.6072 0.625576 33.5888 0.633732C33.5682 0.639639 33.5464 0.639639 33.5258 0.633732C33.5048 0.634706 33.4838 0.631365 33.4642 0.623916C33.4446 0.616468 33.4267 0.60507 33.4116 0.590427C33.3901 0.560747 33.379 0.524737 33.3801 0.488069ZM33.8053 0.488069C33.8012 0.467277 33.8012 0.445873 33.8053 0.42508C33.8117 0.405798 33.8224 0.388275 33.8368 0.373918C33.8512 0.359561 33.8687 0.348769 33.888 0.342408C33.9074 0.332069 33.929 0.32666 33.951 0.32666C33.9729 0.32666 33.9946 0.332069 34.0139 0.342408C34.0332 0.348769 34.0508 0.359561 34.0651 0.373918C34.0795 0.388275 34.0903 0.405798 34.0966 0.42508C34.1124 0.465585 34.1124 0.510554 34.0966 0.551058C34.0903 0.57034 34.0795 0.587863 34.0651 0.60222C34.0508 0.616578 34.0332 0.627371 34.0139 0.633732C33.9934 0.639639 33.9715 0.639639 33.951 0.633732C33.93 0.634948 33.9089 0.631719 33.8893 0.624257C33.8696 0.616795 33.8517 0.605268 33.8368 0.590427C33.8152 0.560747 33.8041 0.524737 33.8053 0.488069Z" fill="#56B7E7"/>
<path d="M35.0926 1.82667C35.1458 1.85935 35.2045 1.88204 35.2659 1.89359C35.3313 1.89975 35.3972 1.89975 35.4627 1.89359H35.569C35.5838 1.89397 35.5984 1.89054 35.6115 1.88365C35.6246 1.87676 35.6357 1.86663 35.6438 1.85422C35.6652 1.81445 35.6748 1.76936 35.6713 1.72431V1.16922H35.943V1.79124C35.9951 1.82833 36.054 1.85506 36.1162 1.86997C36.1872 1.88624 36.2599 1.89417 36.3327 1.89359H36.439C36.4538 1.89397 36.4685 1.89054 36.4815 1.88365C36.4946 1.87676 36.5058 1.86663 36.5138 1.85422C36.5368 1.81494 36.5478 1.76977 36.5453 1.72431V1.00781H36.813V1.79517C36.863 1.83198 36.9189 1.85994 36.9784 1.87785C37.0552 1.89954 37.1347 1.91014 37.2146 1.90934C37.2402 1.9012 37.2677 1.9012 37.2933 1.90934C37.3039 1.91588 37.3124 1.92523 37.318 1.93636C37.3236 1.94749 37.3259 1.95994 37.3248 1.97233V2.07469C37.3293 2.08877 37.3293 2.10391 37.3248 2.11799C37.3233 2.12305 37.3207 2.12774 37.3174 2.1318C37.314 2.13586 37.3098 2.1392 37.3051 2.14161C37.2936 2.145 37.2813 2.145 37.2697 2.14161H37.2146C37.1324 2.14728 37.0499 2.13626 36.9721 2.10919C36.8943 2.08213 36.8228 2.03959 36.7618 1.98414C36.7363 2.02801 36.7013 2.06567 36.6595 2.09437C36.6105 2.12622 36.5525 2.14141 36.4941 2.13767H36.3327C36.253 2.13715 36.1736 2.12657 36.0965 2.10618C36.0185 2.08417 35.9469 2.04366 35.8879 1.98808C35.8622 2.03077 35.8272 2.0671 35.7855 2.09437C35.7372 2.12447 35.681 2.13955 35.6241 2.13767H35.4627H35.3485L35.2383 2.11799L35.1281 2.07469C35.094 2.05789 35.0622 2.03671 35.0336 2.0117C35.0091 2.05188 34.9753 2.08562 34.9352 2.11012C34.8871 2.13695 34.8327 2.15053 34.7777 2.14948H34.2856C34.2598 2.15671 34.2326 2.15671 34.2069 2.14948C34.1973 2.14309 34.1897 2.13421 34.1848 2.1238C34.18 2.11339 34.1781 2.10186 34.1793 2.09044V1.98808C34.1767 1.97244 34.1767 1.95648 34.1793 1.94083C34.185 1.93109 34.1932 1.92297 34.2029 1.91721C34.2147 1.91555 34.2266 1.91555 34.2383 1.91721H34.7186C34.7339 1.9176 34.7489 1.91376 34.7621 1.90612C34.7753 1.89847 34.7862 1.88733 34.7934 1.87391C34.8131 1.8349 34.8225 1.79157 34.821 1.74793V1.32276H35.0926V1.84241V1.82667Z" fill="#56B7E7"/>
<path d="M37.687 1.97258C37.669 2.00906 37.645 2.04231 37.6162 2.071C37.5961 2.09715 37.5705 2.11864 37.5414 2.13399C37.5132 2.15047 37.4827 2.16243 37.4508 2.16942C37.4141 2.17156 37.3773 2.17156 37.3406 2.16942H37.2264C37.1994 2.17718 37.1708 2.17718 37.1437 2.16942C37.1339 2.16239 37.1261 2.15282 37.1213 2.14173C37.1164 2.13064 37.1147 2.11844 37.1162 2.10643V2.00801C37.1136 1.99237 37.1136 1.97641 37.1162 1.96077L37.1398 1.93715C37.1514 1.93376 37.1637 1.93376 37.1752 1.93715H37.2933C37.35 1.93732 37.4058 1.92237 37.4548 1.89384C37.4794 1.87946 37.5009 1.86016 37.5179 1.83713C37.5348 1.81411 37.5468 1.78785 37.5532 1.75999C37.5792 1.66457 37.6121 1.57116 37.6516 1.48047C37.6826 1.41179 37.7194 1.34593 37.7618 1.28363C37.7975 1.23585 37.8384 1.19227 37.8839 1.15372C37.9207 1.12201 37.9618 1.09552 38.0059 1.07498C38.0416 1.05665 38.0802 1.04466 38.1201 1.03955H38.2224C38.2842 1.03937 38.3455 1.05003 38.4035 1.07105C38.4551 1.08962 38.504 1.11476 38.5492 1.14585C38.591 1.17989 38.6293 1.21815 38.6633 1.26001C38.6948 1.30139 38.7212 1.34631 38.7421 1.39386C38.7624 1.43773 38.777 1.48404 38.7854 1.53165C38.7908 1.57743 38.7908 1.62367 38.7854 1.66944C38.7861 1.72867 38.7754 1.78748 38.7539 1.84266C38.8039 1.87946 38.8598 1.90742 38.9192 1.92533C38.9941 1.94246 39.0708 1.95039 39.1476 1.94896C39.1747 1.94178 39.2032 1.94178 39.2302 1.94896C39.2391 1.95668 39.2459 1.96647 39.25 1.97747C39.2541 1.98846 39.2555 2.00031 39.2539 2.01194V2.1143C39.2568 2.12858 39.2568 2.14332 39.2539 2.15761C39.2539 2.15761 39.2539 2.17729 39.2302 2.18516H39.1988H39.1397C39.0847 2.1896 39.0294 2.1896 38.9744 2.18516C38.9284 2.1773 38.8834 2.16409 38.8405 2.1458C38.8034 2.13016 38.7688 2.10892 38.7381 2.08281C38.7067 2.06101 38.6777 2.03594 38.6515 2.00801C38.6008 2.07007 38.5378 2.121 38.4665 2.15761C38.3837 2.19952 38.2916 2.21983 38.1988 2.21666C38.1386 2.22268 38.0779 2.22268 38.0177 2.21666C37.9656 2.20257 37.9143 2.18548 37.8642 2.16548C37.8222 2.1442 37.7814 2.12054 37.7421 2.09462C37.7382 2.04344 37.7067 2.00013 37.687 1.97258ZM38.5649 1.66157C38.5717 1.61985 38.5717 1.57731 38.5649 1.53559C38.5496 1.48978 38.5284 1.44612 38.5019 1.40568C38.4748 1.36281 38.4385 1.3265 38.3956 1.29938C38.3477 1.26976 38.2925 1.25406 38.2362 1.25406C38.1799 1.25406 38.1247 1.26976 38.0768 1.29938C38.0274 1.33169 37.9846 1.37311 37.9508 1.42142C37.913 1.47552 37.8813 1.53361 37.8563 1.59464C37.8328 1.65976 37.8157 1.727 37.8051 1.79542C37.8206 1.81393 37.8411 1.8276 37.8642 1.83479C37.8966 1.85298 37.9309 1.86751 37.9665 1.87809L38.0886 1.90959C38.1292 1.91347 38.17 1.91347 38.2106 1.90959H38.3681C38.4095 1.90158 38.4494 1.88695 38.4862 1.86628C38.5186 1.84831 38.5447 1.82082 38.561 1.78754C38.5732 1.74257 38.5745 1.69535 38.5649 1.64976V1.66157Z" fill="#56B7E7"/>
<path d="M39.183 2.18074C39.1559 2.18851 39.1273 2.18851 39.1003 2.18074C39.0904 2.17372 39.0827 2.16415 39.0778 2.15306C39.0729 2.14197 39.0712 2.12977 39.0727 2.11776V2.01934C39.0702 2.00369 39.0702 1.98774 39.0727 1.97209L39.0963 1.94847C39.1079 1.94508 39.1202 1.94508 39.1318 1.94847H39.5806V0.0351876H39.8483V2.18074H39.183ZM40.364 0.03125H40.6356V2.18074H40.364V0.03125ZM43.3953 1.61778C43.3885 1.53734 43.3983 1.45637 43.424 1.37985C43.4498 1.30334 43.4909 1.23291 43.5449 1.17292C43.6738 1.06344 43.8409 1.00963 44.0095 1.02332H44.4032V1.64928C44.398 1.69638 44.398 1.7439 44.4032 1.791C44.4056 1.82036 44.4151 1.8487 44.4307 1.87367C44.4428 1.89142 44.461 1.90405 44.4819 1.90911C44.5053 1.91358 44.5293 1.91358 44.5528 1.90911H44.6984C44.7255 1.90193 44.754 1.90193 44.7811 1.90911C44.7899 1.91683 44.7967 1.92663 44.8009 1.93762C44.805 1.94861 44.8063 1.96046 44.8047 1.97209V2.07445C44.8092 2.08853 44.8092 2.10368 44.8047 2.11776C44.8 2.12824 44.7916 2.13664 44.7811 2.14138C44.771 2.14533 44.7597 2.14533 44.7496 2.14138H44.5173C44.4691 2.14152 44.4212 2.13354 44.3756 2.11776C44.3298 2.10435 44.2879 2.08003 44.2536 2.04689C44.2163 2.00832 44.1869 1.96286 44.1669 1.91304C44.1418 1.8478 44.1297 1.77823 44.1315 1.70833V1.24379H44.0803C44.0214 1.23935 43.9622 1.23935 43.9032 1.24379C43.8549 1.25137 43.809 1.27026 43.7693 1.2989C43.7315 1.32832 43.7028 1.36792 43.6867 1.41307C43.6655 1.47373 43.6562 1.53787 43.6591 1.60204V2.04296C43.6574 2.13692 43.6359 2.22948 43.5961 2.3146C43.5513 2.40413 43.4899 2.4843 43.415 2.55081C43.3319 2.6234 43.2357 2.67951 43.1316 2.71615C43.0054 2.76161 42.8719 2.78297 42.7379 2.77914C42.6173 2.78123 42.4969 2.768 42.3796 2.73977C42.2869 2.71779 42.198 2.68196 42.1159 2.63348C42.0481 2.59175 41.987 2.53998 41.9348 2.47994C41.8867 2.42868 41.8468 2.37024 41.8167 2.30672C41.7906 2.25273 41.7708 2.19593 41.7576 2.13744C41.7526 2.0877 41.7526 2.03758 41.7576 1.98784C41.7536 1.93412 41.7536 1.88016 41.7576 1.82643C41.7648 1.77429 41.7767 1.72291 41.7931 1.6729C41.809 1.62605 41.8274 1.58006 41.8482 1.53511C41.8691 1.49668 41.8927 1.45984 41.919 1.42488L42.1395 1.54692L42.0883 1.63353L42.049 1.73982C42.0285 1.81289 42.0179 1.88836 42.0175 1.96422C42.0118 2.00075 42.0118 2.03792 42.0175 2.07445C42.0252 2.11669 42.0384 2.15772 42.0568 2.19649C42.0795 2.23788 42.1072 2.27624 42.1395 2.31066C42.1785 2.35054 42.2237 2.38378 42.2733 2.40908C42.3345 2.43967 42.3993 2.46216 42.4663 2.476C42.5553 2.49633 42.6466 2.50559 42.7379 2.50356C42.8297 2.50474 42.9211 2.49281 43.0095 2.46813C43.0808 2.44504 43.1484 2.4119 43.2103 2.36971C43.2625 2.33302 43.3067 2.28615 43.3402 2.23193C43.3678 2.18252 43.3826 2.12707 43.3835 2.07051V1.57448L43.3953 1.61778Z" fill="#56B7E7"/>
<path d="M45.3874 1.81508C45.4363 1.8487 45.491 1.87275 45.5488 1.88594C45.6211 1.90286 45.6951 1.91079 45.7693 1.90956C45.7951 1.90234 45.8223 1.90234 45.848 1.90956C45.8677 1.90956 45.8756 1.93712 45.8756 1.96861V2.07097C45.8782 2.08661 45.8782 2.10257 45.8756 2.11821C45.8698 2.12796 45.8617 2.13608 45.852 2.14183H45.8165H45.7614C45.6732 2.14336 45.5854 2.13005 45.5016 2.10247C45.4378 2.07725 45.3781 2.04276 45.3244 2.00011C45.2991 2.04066 45.2655 2.07551 45.226 2.10247C45.1774 2.13194 45.1214 2.14696 45.0646 2.14577H44.7064C44.6793 2.15295 44.6508 2.15295 44.6237 2.14577C44.6148 2.13805 44.6081 2.12825 44.6039 2.11726C44.5998 2.10626 44.5985 2.09442 44.6001 2.08278V1.98436C44.5975 1.96872 44.5975 1.95276 44.6001 1.93712C44.6058 1.92738 44.6139 1.91925 44.6237 1.9135H44.6552H45.0016C45.0167 1.91309 45.0315 1.90891 45.0445 1.90135C45.0576 1.89379 45.0686 1.88307 45.0764 1.87019C45.0993 1.83232 45.1103 1.78842 45.1079 1.74422V0.0356445H45.3756L45.3874 1.81508Z" fill="#56B7E7"/>
<path d="M46.9582 1.27555H46.8913H46.8125H46.7299H46.659C46.6238 1.27008 46.5879 1.27008 46.5527 1.27555C46.5168 1.28391 46.4832 1.30004 46.4543 1.32279C46.4233 1.34965 46.3991 1.38335 46.3834 1.42121C46.3616 1.46802 46.3509 1.51919 46.3519 1.57081C46.3517 1.62235 46.3624 1.67335 46.3834 1.72041C46.4002 1.76417 46.4272 1.80331 46.4621 1.83458C46.4953 1.87097 46.5374 1.89811 46.5842 1.91331C46.6362 1.93078 46.6907 1.94008 46.7456 1.94087H47.1078V2.20857H45.7811C45.7553 2.2158 45.7281 2.2158 45.7023 2.20857C45.6925 2.20155 45.6847 2.19198 45.6799 2.18089C45.675 2.16979 45.6733 2.15759 45.6748 2.14558V2.04323C45.6722 2.02891 45.6722 2.01424 45.6748 1.99992L45.6984 1.97236H45.7338H46.1748C46.147 1.91908 46.1271 1.86206 46.1157 1.80308C46.1036 1.74877 46.097 1.69337 46.096 1.63774C46.0947 1.55598 46.108 1.47465 46.1354 1.39759C46.1628 1.32461 46.2042 1.25773 46.2574 1.20075C46.3106 1.14369 46.3749 1.09814 46.4464 1.0669C46.5219 1.03322 46.604 1.01707 46.6865 1.01966H46.7574H46.8401H46.9188H46.9779L46.9582 1.27555ZM49.5801 1.90938V1.80702C49.5801 1.76765 49.5801 1.72041 49.5604 1.6771C49.5407 1.6338 49.5604 1.58262 49.525 1.53538L49.4777 1.4094L49.7415 1.33854L49.773 1.43696C49.773 1.47239 49.773 1.51176 49.8045 1.55112C49.836 1.59049 49.8045 1.6338 49.8321 1.6771C49.8596 1.72041 49.8321 1.75977 49.8321 1.79914C49.8798 1.83943 49.9365 1.86777 49.9974 1.88182C50.0748 1.9004 50.1541 1.90966 50.2336 1.90938C50.2593 1.90148 50.2867 1.90148 50.3123 1.90938C50.3219 1.91577 50.3295 1.92465 50.3344 1.93506C50.3392 1.94547 50.3411 1.95701 50.3399 1.96843V2.07078C50.3425 2.08643 50.3425 2.10238 50.3399 2.11803C50.3342 2.12777 50.326 2.1359 50.3163 2.14165H50.2848H50.2257C50.1472 2.1428 50.0689 2.13218 49.9935 2.11015C49.9316 2.09337 49.874 2.06387 49.8242 2.02354C49.8133 2.13062 49.7825 2.23474 49.7336 2.33061C49.6892 2.42379 49.6261 2.50683 49.5482 2.57456C49.4703 2.64229 49.3793 2.69326 49.2809 2.72429C49.1672 2.76421 49.0471 2.78289 48.9266 2.77941C48.8005 2.7807 48.6751 2.75937 48.5565 2.71642C48.4585 2.67613 48.37 2.61579 48.2967 2.53926C48.2291 2.46713 48.1781 2.38115 48.1471 2.28731C48.112 2.19152 48.0946 2.09013 48.0959 1.98811C48.092 1.93701 48.092 1.88568 48.0959 1.83458C48.0959 1.7834 48.1156 1.73222 48.1274 1.68104C48.1414 1.63276 48.1585 1.58542 48.1786 1.53931C48.1953 1.4958 48.2178 1.45474 48.2455 1.41727L48.4739 1.54325C48.4548 1.57099 48.4402 1.60154 48.4306 1.6338C48.4158 1.66545 48.4039 1.6984 48.3951 1.73222V1.84245V1.95268C48.3941 2.028 48.4074 2.10284 48.4345 2.17314C48.4587 2.23995 48.4968 2.30084 48.5464 2.35175C48.5959 2.40266 48.6557 2.44243 48.7219 2.4684C48.7996 2.49917 48.8824 2.51518 48.966 2.51564C49.0549 2.51741 49.1432 2.50135 49.2258 2.4684C49.3002 2.44215 49.3676 2.39904 49.4226 2.34242C49.479 2.28483 49.5208 2.21466 49.5447 2.13771C49.5669 2.06357 49.5788 1.98675 49.5801 1.90938ZM48.9817 0.787385C48.9776 0.766593 48.9776 0.745189 48.9817 0.724397C48.9912 0.705849 49.0031 0.68864 49.0171 0.673218C49.0327 0.660473 49.0499 0.649879 49.0683 0.641723C49.0877 0.631384 49.1093 0.625977 49.1313 0.625977C49.1533 0.625977 49.1749 0.631384 49.1943 0.641723C49.2136 0.648084 49.2311 0.658877 49.2455 0.673234C49.2598 0.687592 49.2706 0.705115 49.277 0.724397C49.2928 0.764901 49.2928 0.80987 49.277 0.850374C49.2688 0.868769 49.2582 0.885981 49.2455 0.901552C49.23 0.915568 49.2128 0.927482 49.1943 0.936983C49.1735 0.94112 49.1521 0.94112 49.1313 0.936983C49.1103 0.938199 49.0893 0.934972 49.0696 0.92751C49.0499 0.920048 49.0321 0.90852 49.0171 0.893679C48.9933 0.863451 48.9808 0.82586 48.9817 0.787385Z" fill="#56B7E7"/>
<path d="M50.9264 1.81879C50.9759 1.84858 51.0288 1.87236 51.0839 1.88966C51.1559 1.89629 51.2284 1.89629 51.3004 1.88966C51.3275 1.88248 51.356 1.88248 51.3831 1.88966C51.3831 1.88966 51.4067 1.91722 51.4067 1.94871V2.05106C51.4111 2.06651 51.4111 2.08286 51.4067 2.09831C51.405 2.10388 51.402 2.10896 51.3979 2.11308C51.3937 2.1172 51.3887 2.12024 51.3831 2.12193H51.3516H51.2926C51.2057 2.12301 51.1192 2.10971 51.0367 2.08256C50.9734 2.05889 50.9147 2.02424 50.8634 1.98021C50.8366 2.02086 50.8017 2.05568 50.7611 2.08256C50.7144 2.11304 50.6593 2.12818 50.6036 2.12586H50.2493C50.2223 2.13363 50.1936 2.13363 50.1666 2.12586C50.1573 2.11833 50.15 2.10868 50.1452 2.09772C50.1404 2.08676 50.1383 2.07482 50.1391 2.06288V1.96446C50.1345 1.94905 50.1345 1.93263 50.1391 1.91721C50.1406 1.91216 50.1431 1.90746 50.1465 1.9034C50.1499 1.89935 50.1541 1.89601 50.1588 1.89359C50.1703 1.8902 50.1826 1.8902 50.1942 1.89359H50.5406C50.5556 1.89285 50.5703 1.88853 50.5833 1.881C50.5963 1.87346 50.6073 1.86294 50.6154 1.85029C50.635 1.81128 50.6445 1.76795 50.643 1.72431V1.00781H50.9107V1.79517L50.9264 1.81879ZM50.4068 2.62978C50.4026 2.60898 50.4026 2.58758 50.4068 2.56679C50.4241 2.52833 50.4549 2.49754 50.4934 2.48018C50.5142 2.47604 50.5356 2.47604 50.5564 2.48018C50.5772 2.47642 50.5985 2.47642 50.6194 2.48018C50.6556 2.49932 50.6846 2.52972 50.702 2.56679C50.7062 2.58758 50.7062 2.60898 50.702 2.62978C50.7058 2.64928 50.7058 2.66932 50.702 2.68883C50.6961 2.70927 50.6836 2.72723 50.6666 2.74001C50.6545 2.75604 50.6381 2.76833 50.6194 2.77544C50.5985 2.7792 50.5772 2.7792 50.5564 2.77544C50.5351 2.77615 50.5139 2.7723 50.4942 2.76415C50.4745 2.75601 50.4568 2.74375 50.4422 2.7282C50.4186 2.70091 50.406 2.66584 50.4068 2.62978ZM50.828 2.62978C50.8258 2.60884 50.8258 2.58773 50.828 2.56679C50.8361 2.54743 50.8482 2.52999 50.8634 2.51561C50.8782 2.50074 50.8955 2.48872 50.9146 2.48018C50.9341 2.47645 50.9542 2.47645 50.9737 2.48018C50.9945 2.47604 51.0159 2.47604 51.0367 2.48018C51.0558 2.48872 51.0731 2.50074 51.0878 2.51561C51.1031 2.52999 51.1152 2.54743 51.1233 2.56679C51.1274 2.58758 51.1274 2.60898 51.1233 2.62978C51.1251 2.64942 51.1251 2.66919 51.1233 2.68883C51.1173 2.70927 51.1049 2.72723 51.0878 2.74001C51.0743 2.75618 51.0566 2.76842 51.0367 2.77544C51.0159 2.77957 50.9945 2.77957 50.9737 2.77544C50.9322 2.77444 50.8927 2.75753 50.8634 2.72821C50.8341 2.69889 50.8172 2.65942 50.8162 2.61797L50.828 2.62978Z" fill="#56B7E7"/>
<path d="M52.4933 1.2754H52.4264H52.3477H52.265H52.1941C52.1603 1.26967 52.1257 1.26967 52.0918 1.2754C52.0545 1.28294 52.0194 1.29912 51.9894 1.32264C51.9585 1.3495 51.9342 1.3832 51.9186 1.42106C51.8982 1.46819 51.8887 1.51935 51.891 1.57066C51.8895 1.62191 51.8989 1.6729 51.9186 1.72026C51.9354 1.76402 51.9624 1.80316 51.9973 1.83443C52.0304 1.87082 52.0725 1.89796 52.1194 1.91316C52.1714 1.93063 52.2258 1.93993 52.2807 1.94072H52.6469V2.20842H51.3202C51.2944 2.21565 51.2672 2.21565 51.2414 2.20842C51.2316 2.2014 51.2238 2.19183 51.2189 2.18074C51.2141 2.16964 51.2123 2.15744 51.2139 2.14543V2.04308C51.2113 2.02876 51.2113 2.01409 51.2139 1.99977L51.2375 1.97221H51.2729H51.7138C51.6878 1.91822 51.668 1.86142 51.6548 1.80293C51.6427 1.74862 51.6361 1.69322 51.6351 1.63759C51.6338 1.55583 51.6471 1.4745 51.6745 1.39744C51.7033 1.3252 51.7447 1.25857 51.7965 1.2006C51.8497 1.14354 51.914 1.09799 51.9855 1.06675C52.0609 1.03307 52.1431 1.01692 52.2256 1.01951H52.2965H52.3792H52.4579H52.517L52.4933 1.2754ZM1.27946 0.330566V0.515595H0.192904V1.30296H1.1771V1.49586H0.192904V2.35408H1.29127V2.54305H0V0.346312L1.27946 0.330566ZM2.44475 2.53911C2.37264 2.54314 2.30035 2.54314 2.22823 2.53911C2.14497 2.53983 2.06185 2.53192 1.98021 2.51549C1.91078 2.50001 1.84683 2.46599 1.79518 2.41707C1.7407 2.3656 1.70124 2.30028 1.68102 2.22811C1.65146 2.13123 1.63816 2.03013 1.64165 1.92891V1.05887H1.82668V1.84624C1.82493 1.93345 1.83285 2.02059 1.8503 2.10607C1.86369 2.1621 1.88923 2.21451 1.9251 2.2596C1.95945 2.2956 2.00302 2.32147 2.05107 2.3344C2.11256 2.34126 2.17462 2.34126 2.2361 2.3344H2.42507C2.4931 2.32563 2.56026 2.31114 2.62585 2.29109V1.04313H2.81482V2.54305C2.82663 2.62511 2.81768 2.70882 2.7888 2.78654C2.75991 2.86425 2.71201 2.93348 2.64947 2.98791C2.51788 3.08211 2.3584 3.12926 2.19674 3.12176H2.07076H1.94478L1.8188 3.09027L1.68889 3.03909L1.65739 2.80682L1.8188 2.88949L1.93691 2.92886L2.06288 2.95248H2.18099C2.29804 2.95822 2.41388 2.9265 2.51168 2.86193C2.55486 2.82491 2.58849 2.77804 2.60974 2.72527C2.63098 2.67251 2.63921 2.61541 2.63372 2.5588V2.52337L2.44475 2.53911ZM4.17695 2.33046C4.26134 2.30579 4.34209 2.27004 4.41709 2.22417L4.50764 2.39345C4.42197 2.44593 4.32915 2.48571 4.23206 2.51156C4.12293 2.54034 4.01027 2.55359 3.89744 2.55092C3.79596 2.55226 3.69534 2.53213 3.60218 2.49187C3.51455 2.45413 3.43451 2.40077 3.36597 2.3344C3.29889 2.26722 3.24659 2.18677 3.21243 2.09819C3.13364 1.90378 3.13364 1.68633 3.21243 1.49192C3.24698 1.4026 3.30074 1.32196 3.3699 1.25571C3.43777 1.18751 3.51791 1.13275 3.60611 1.09431C3.69762 1.05814 3.7951 1.03944 3.8935 1.03919C3.99089 1.03646 4.08768 1.05528 4.17695 1.09431C4.26132 1.12774 4.33679 1.1803 4.39741 1.24784C4.46169 1.31872 4.51121 1.4017 4.54307 1.49192C4.58231 1.60582 4.60097 1.7258 4.59819 1.84624H3.35022C3.35456 1.91112 3.36918 1.9749 3.39353 2.0352C3.41782 2.10115 3.45533 2.16143 3.50376 2.21236C3.55281 2.26136 3.61011 2.30134 3.67304 2.33046C3.74177 2.35822 3.81546 2.37162 3.88956 2.36983C3.98679 2.37115 4.08366 2.35788 4.17695 2.33046ZM3.68485 1.25571C3.62681 1.28043 3.57353 1.31507 3.52738 1.35807C3.48322 1.40263 3.44725 1.4546 3.42108 1.51161C3.3972 1.55927 3.37872 1.60944 3.36597 1.66121H4.38954C4.38325 1.60507 4.36726 1.55046 4.34229 1.4998C4.31707 1.44341 4.28095 1.39257 4.236 1.3502C4.19515 1.30629 4.1436 1.27373 4.0864 1.25571C4.02647 1.23118 3.96218 1.21913 3.89744 1.22028C3.82515 1.2208 3.7534 1.23276 3.68485 1.25571ZM8.6216 1.05494C8.71207 1.04963 8.80277 1.04963 8.89324 1.05494C8.97666 1.05534 9.05979 1.06458 9.14126 1.0825C9.21442 1.09855 9.28303 1.13084 9.34204 1.17698C9.39889 1.22868 9.44216 1.29358 9.46801 1.36594C9.49904 1.46391 9.51368 1.56634 9.51132 1.66908V2.53911H9.34204V1.75175C9.34611 1.66399 9.33546 1.57617 9.31054 1.49192C9.29481 1.43521 9.26656 1.38274 9.22787 1.33839C9.18908 1.3021 9.14164 1.27635 9.09008 1.26359C9.02822 1.24843 8.9648 1.2405 8.90111 1.23997C8.76882 1.24207 8.63702 1.25657 8.50743 1.28327V2.54305H8.31847V1.1258L8.6216 1.05494ZM12.8064 1.051H13.0229C13.1077 1.04979 13.1924 1.05905 13.2749 1.07856C13.3475 1.09289 13.4152 1.1254 13.4717 1.17304C13.5286 1.22475 13.5719 1.28964 13.5977 1.36201C13.6285 1.45869 13.6431 1.55977 13.641 1.66121V2.53518H13.456V1.74782C13.458 1.66144 13.4474 1.57523 13.4245 1.49192C13.4076 1.43486 13.378 1.38236 13.3379 1.33839C13.301 1.30163 13.2547 1.27575 13.204 1.26359C13.1424 1.24701 13.0789 1.23906 13.0151 1.23997C12.8828 1.2421 12.751 1.2566 12.6214 1.28327V2.54305H12.4324V0.346312H12.6214V1.09431C12.6647 1.06675 12.7316 1.05494 12.8064 1.051ZM14.9756 2.33046C15.0584 2.30498 15.1378 2.26927 15.2118 2.22417L15.3024 2.39345C15.2181 2.44588 15.1265 2.48567 15.0307 2.51156C14.9203 2.54055 14.8063 2.55381 14.6922 2.55092C14.5942 2.55173 14.4972 2.53299 14.4066 2.49581C14.316 2.45863 14.2337 2.40376 14.1646 2.3344C14.0976 2.26637 14.0442 2.18621 14.0071 2.09819C13.9338 1.90277 13.9338 1.68735 14.0071 1.49192C14.0421 1.40185 14.0973 1.32103 14.1686 1.25571C14.2349 1.18756 14.3138 1.13276 14.4008 1.09431C14.4923 1.05814 14.5898 1.03944 14.6882 1.03919C14.7869 1.03652 14.8849 1.05533 14.9756 1.09431C15.0589 1.12976 15.1339 1.18203 15.1961 1.24784C15.2603 1.31872 15.3099 1.4017 15.3417 1.49192C15.3772 1.60673 15.3957 1.72608 15.3968 1.84624H14.1489C14.1518 1.91093 14.165 1.97474 14.1882 2.0352C14.214 2.10041 14.2514 2.16042 14.2985 2.21236C14.349 2.25961 14.406 2.29938 14.4678 2.33046C14.538 2.35782 14.6129 2.37119 14.6882 2.36983C14.7854 2.37058 14.8822 2.35732 14.9756 2.33046ZM14.4835 1.25571C14.425 1.27949 14.3715 1.31424 14.326 1.35807C14.2819 1.40349 14.2447 1.45524 14.2158 1.51161C14.1929 1.55929 14.1757 1.6095 14.1646 1.66121H15.1882C15.1782 1.60587 15.1624 1.55176 15.1409 1.4998C15.1144 1.44418 15.0784 1.39358 15.0347 1.3502C14.9926 1.30776 14.9414 1.27545 14.8851 1.25571C14.8238 1.23118 14.7582 1.21914 14.6922 1.22028C14.6212 1.22115 14.5508 1.2331 14.4835 1.25571ZM16.9322 0.330566H18.188V0.515595H17.1251V1.30296H18.0778V1.49586H17.1251V2.54305H16.9283V0.346312L16.9322 0.330566ZM19.5777 1.06675V2.46038L19.2628 2.53124C19.1717 2.54674 19.0796 2.55464 18.9872 2.55486C18.9052 2.55548 18.8234 2.54756 18.7431 2.53124C18.6729 2.51468 18.608 2.48085 18.5542 2.43282C18.5024 2.37921 18.4634 2.31462 18.44 2.24385C18.4124 2.14657 18.3991 2.04577 18.4006 1.94466V1.07462H18.5856V1.86198C18.5848 1.94936 18.5941 2.03655 18.6132 2.12181C18.6266 2.17785 18.6521 2.23026 18.688 2.27535C18.7214 2.31177 18.7655 2.33659 18.814 2.34621C18.8742 2.36305 18.9365 2.37101 18.999 2.36983C19.0619 2.3752 19.1251 2.3752 19.188 2.36983C19.2558 2.36204 19.323 2.34888 19.3888 2.33046V1.0825H19.5777V1.06675ZM20.1682 1.06675V0.539217H20.3651V1.06675H20.9635V1.25571H20.3651V1.96828C20.3578 2.03106 20.3578 2.09446 20.3651 2.15724C20.3726 2.2001 20.3901 2.24057 20.4163 2.27535C20.4452 2.30383 20.4802 2.32537 20.5186 2.33834C20.5708 2.34587 20.6239 2.34587 20.6761 2.33834H20.9714V2.51943H20.6958C20.6241 2.51877 20.5527 2.50952 20.4832 2.49187C20.4209 2.47842 20.3628 2.45005 20.3139 2.4092C20.2644 2.36765 20.2253 2.31507 20.1997 2.25566C20.1722 2.18138 20.1589 2.10259 20.1604 2.02339V1.23603H19.8494V1.05494L20.1682 1.06675ZM22.5028 1.06675V2.46038L22.1878 2.53124C22.0968 2.54674 22.0046 2.55464 21.9123 2.55486C21.8303 2.55577 21.7484 2.54785 21.6682 2.53124C21.598 2.51468 21.533 2.48085 21.4792 2.43282C21.4247 2.38135 21.3853 2.31603 21.365 2.24385C21.3355 2.14698 21.3222 2.04588 21.3257 1.94466V1.07462H21.5107V1.86198C21.5079 1.94945 21.5172 2.03688 21.5383 2.12181C21.5497 2.17777 21.574 2.23033 21.6091 2.27535C21.6446 2.31106 21.6898 2.33568 21.739 2.34621C21.7979 2.36306 21.8589 2.37103 21.9201 2.36983C21.983 2.37536 22.0462 2.37536 22.1091 2.36983C22.1771 2.36279 22.2443 2.34961 22.3099 2.33046V1.0825H22.5028V1.06675ZM23.5145 1.25571C23.4555 1.25217 23.3964 1.25217 23.3374 1.25571C23.2933 1.2607 23.2498 1.26992 23.2075 1.28327V2.51943H23.0224V1.13367L23.2508 1.0825C23.3285 1.06684 23.4076 1.05893 23.487 1.05887H23.7547V1.25571H23.5145ZM24.8688 2.33046C24.9529 2.30506 25.0336 2.26935 25.1089 2.22417L25.1995 2.39345C25.1138 2.44593 25.021 2.48571 24.9239 2.51156C24.8148 2.54034 24.7021 2.55359 24.5893 2.55092C24.4878 2.55226 24.3872 2.53213 24.294 2.49187C24.2064 2.45413 24.1264 2.40077 24.0578 2.3344C23.9907 2.26722 23.9384 2.18677 23.9043 2.09819C23.8255 1.90378 23.8255 1.68633 23.9043 1.49192C23.9388 1.4026 23.9926 1.32196 24.0617 1.25571C24.1296 1.18751 24.2098 1.13275 24.298 1.09431C24.3895 1.05814 24.4869 1.03944 24.5853 1.03919C24.6827 1.03646 24.7795 1.05528 24.8688 1.09431C24.9532 1.12774 25.0286 1.1803 25.0893 1.24784C25.1535 1.31872 25.203 1.4017 25.2349 1.49192C25.2741 1.60582 25.2928 1.7258 25.29 1.84624H24.0421C24.0464 1.91112 24.061 1.9749 24.0854 2.0352C24.1097 2.10115 24.1472 2.16143 24.1956 2.21236C24.2447 2.26136 24.302 2.30134 24.3649 2.33046C24.4336 2.35822 24.5073 2.37162 24.5814 2.36983C24.6786 2.37115 24.7755 2.35788 24.8688 2.33046ZM24.3767 1.25571C24.3187 1.28043 24.2654 1.31507 24.2192 1.35807C24.1751 1.40263 24.1391 1.4546 24.1129 1.51161C24.089 1.55927 24.0706 1.60944 24.0578 1.66121H25.0893C25.0811 1.60547 25.0652 1.55114 25.042 1.4998C25.0168 1.44341 24.9807 1.39257 24.9357 1.3502C24.8949 1.30629 24.8433 1.27373 24.7861 1.25571C24.7262 1.23118 24.6619 1.21913 24.5972 1.22028C24.5222 1.21996 24.4477 1.23193 24.3767 1.25571Z" fill="#56B7E7"/>
</svg>
