<svg width="411" height="32" viewBox="0 0 411 32" fill="none" xmlns="http://www.w3.org/2000/svg">
<mask id="mask0_1_3834" style="mask-type:luminance" maskUnits="userSpaceOnUse" x="189" y="6" width="51" height="19">
<path d="M239.114 6.74707H189.655V24.4295H239.114V6.74707Z" fill="white"/>
</mask>
<g mask="url(#mask0_1_3834)">
<path d="M209.711 6.74805H207.189C206.002 10.0864 203.974 15.5768 202.862 18.6184C202.757 18.915 202.615 19.1974 202.441 19.4592H204.193C204.425 19.4466 204.651 19.3736 204.846 19.2473C205.042 19.1211 205.201 18.9459 205.309 18.7392C205.334 18.6656 205.382 18.616 205.407 18.5408L206.47 15.648C207.782 12.0416 209.542 7.16805 209.71 6.75045" fill="white"/>
<path d="M236.615 13.0791L235.552 15.9975C235.455 16.255 235.283 16.4774 235.058 16.636C234.833 16.7946 234.566 16.882 234.29 16.8871H232.53C232.713 16.6088 232.862 16.3103 232.976 15.9975L234.039 13.1047H231.516L230.455 15.9967C230.364 16.248 230.2 16.4668 229.985 16.6256C229.769 16.7844 229.512 16.8762 229.245 16.8895H227.495C227.678 16.6112 227.827 16.3127 227.941 15.9999L229.004 13.1071H226.478L225.415 15.9999C225.323 16.2509 225.159 16.4691 224.943 16.6274C224.728 16.7856 224.47 16.8768 224.203 16.8895H216.066C216.249 16.6112 216.398 16.3127 216.512 15.9999L216.759 15.2623C217.479 13.3335 216.462 11.8223 214.582 11.8223H211.691L210.751 14.3447H213.644C213.753 14.3343 213.862 14.3541 213.96 14.4018C214.058 14.4495 214.141 14.5232 214.2 14.615C214.259 14.7068 214.292 14.8131 214.295 14.9222C214.297 15.0313 214.27 15.139 214.215 15.2335L213.918 15.9711C213.826 16.2221 213.662 16.4403 213.446 16.5986C213.231 16.7568 212.973 16.848 212.706 16.8607H208.525L207.635 19.3303H233.403C234.423 19.2657 235.403 18.91 236.227 18.3052C237.051 17.7005 237.685 16.8721 238.052 15.9183L239.115 12.9999L236.615 13.0791Z" fill="white"/>
<path d="M196.382 19.4578H189.655L190.595 16.9354H197.298C197.569 16.9146 197.83 16.8204 198.052 16.6628C198.274 16.5053 198.449 16.2904 198.558 16.041L198.806 15.3034C198.885 15.1682 198.908 15.0068 198.869 14.8548C198.829 14.7029 198.731 14.5727 198.596 14.493C198.488 14.4282 198.361 14.4001 198.236 14.413H194.058L194.998 11.8906H199.178C201.082 11.8906 202.07 13.4234 201.354 15.3306L201.107 16.0506C200.708 16.9971 200.057 17.8158 199.225 18.4175C198.393 19.0192 197.411 19.3807 196.387 19.4626" fill="white"/>
<path d="M207.659 22.377H207.363L207.24 22.697H207.537L207.659 22.377Z" fill="white"/>
<path d="M208.326 23.3147C208.289 23.4371 208.211 23.5424 208.103 23.6115C207.999 23.6474 207.892 23.6721 207.783 23.6851H207.017C206.879 23.6852 206.743 23.6514 206.621 23.5867C206.522 23.5131 206.522 23.3643 206.596 23.1659L206.794 22.6963H206.474L206.276 23.1659C206.078 23.7099 206.276 24.0067 206.894 24.0067H207.934C208.07 24.004 208.202 23.9598 208.312 23.8802C208.422 23.8006 208.506 23.6893 208.551 23.5611L208.871 22.7203H208.574L208.326 23.3147Z" fill="white"/>
<path d="M208.203 22.377H207.883L207.785 22.697H208.082L208.203 22.377Z" fill="white"/>
<path d="M210.33 23.3171C210.369 23.2024 210.437 23.1001 210.528 23.0203C210.565 22.9782 210.61 22.9452 210.662 22.9238C210.713 22.9024 210.769 22.8933 210.825 22.8971C210.876 22.8898 210.929 22.9033 210.971 22.9346C211.012 22.966 211.04 23.0126 211.047 23.0643C211.05 23.0826 211.05 23.1012 211.047 23.1195L211.367 22.9963C211.365 22.8921 211.322 22.7929 211.248 22.7192C211.175 22.6455 211.075 22.6029 210.971 22.6003H210.942C210.743 22.6021 210.551 22.6722 210.398 22.7987C210.24 22.9314 210.106 23.0903 210.002 23.2683C209.963 23.3712 209.938 23.4788 209.928 23.5883H209.408C209.368 23.5951 209.326 23.592 209.288 23.5792C209.249 23.5663 209.214 23.5442 209.186 23.5147C209.161 23.4899 209.161 23.3915 209.186 23.2179L209.631 22.0059H209.311L208.842 23.3411C208.807 23.4006 208.787 23.4674 208.782 23.5361C208.778 23.6049 208.79 23.6737 208.817 23.7371C208.855 23.7847 208.904 23.8229 208.959 23.8487C209.015 23.8745 209.076 23.8872 209.137 23.8859H210.991L211.09 23.5659H210.298C210.284 23.5253 210.279 23.4822 210.283 23.4395C210.288 23.3968 210.301 23.3556 210.323 23.3187" fill="white"/>
<path d="M214.707 22.0557H214.41L214.287 22.3757H214.584L214.707 22.0557Z" fill="white"/>
<path d="M214.307 22.5996C214.112 22.6092 213.924 22.6753 213.766 22.79C213.608 22.9046 213.487 23.0628 213.418 23.2452C213.372 23.3546 213.363 23.476 213.393 23.5908H212.602L212.725 23.2708C212.848 22.9252 212.725 22.6252 212.379 22.6252C212.188 22.624 212.002 22.6831 211.847 22.794C211.691 22.9049 211.575 23.0619 211.514 23.2428C211.391 23.6388 211.539 23.8884 211.91 23.8884H212.207C212.207 23.8884 211.985 24.1356 211.811 24.1356L211.713 24.3828C212.058 24.4076 212.504 23.9372 212.504 23.9372H213.839C214.031 23.9273 214.216 23.8606 214.37 23.7457C214.524 23.6308 214.64 23.4727 214.704 23.2916C214.827 22.8956 214.704 22.6236 214.308 22.6236M212.308 23.5884H212.014C211.865 23.5884 211.791 23.4396 211.865 23.2428C211.892 23.1516 211.947 23.0714 212.023 23.0138C212.098 22.9563 212.19 22.9244 212.286 22.9228C212.434 22.9228 212.508 23.046 212.434 23.2196L212.308 23.5884ZM213.968 23.662C213.77 23.662 213.721 23.5132 213.77 23.266C213.797 23.1684 213.855 23.0822 213.936 23.02C214.016 22.9578 214.114 22.9229 214.215 22.9204C214.414 22.9204 214.462 23.0692 214.414 23.3164C214.378 23.4091 214.317 23.4902 214.239 23.5511C214.16 23.612 214.067 23.6504 213.968 23.662Z" fill="white"/>
<path d="M220.196 23.3174C220.171 23.391 220.122 23.4406 220.098 23.5158C220.069 23.5468 220.035 23.5716 219.997 23.5885C219.958 23.6055 219.917 23.6142 219.875 23.6142H219.155C219.245 23.5141 219.312 23.3964 219.354 23.2686L219.799 22.0566H219.479L219.034 23.2686C219.007 23.3502 218.965 23.4258 218.91 23.491C218.879 23.5261 218.841 23.5533 218.798 23.5704C218.755 23.5875 218.708 23.5941 218.662 23.5894H218.192L218.217 23.491C218.253 23.4181 218.272 23.3377 218.272 23.2562C218.272 23.1747 218.253 23.0944 218.217 23.0214C218.175 22.9551 218.117 22.9014 218.047 22.8664C217.977 22.8314 217.899 22.8164 217.821 22.823C217.622 22.8249 217.43 22.8949 217.277 23.0214C217.12 23.1426 217 23.3053 216.931 23.491C216.931 23.5158 216.906 23.6398 216.906 23.6398H216.261C216.459 23.0958 216.359 22.775 216.014 22.6502C215.966 22.6337 215.915 22.6253 215.865 22.6254H215.545L215.422 22.9454C215.521 22.9417 215.621 22.95 215.718 22.9702C216.015 23.0438 216.064 23.267 215.941 23.6902H214.901L214.778 23.9374H216.93C216.969 24.013 217.03 24.0749 217.105 24.1146C217.18 24.1544 217.266 24.1702 217.35 24.1598C217.574 24.1496 217.789 24.0721 217.968 23.9374H219.873C220.027 23.9412 220.178 23.8915 220.299 23.7969C220.421 23.7023 220.506 23.5685 220.541 23.4182L221.01 22.083H220.69L220.196 23.3174ZM217.723 23.8118C217.691 23.845 217.653 23.871 217.61 23.888C217.568 23.9049 217.522 23.9125 217.476 23.9102C217.278 23.9102 217.229 23.7614 217.278 23.5142C217.306 23.4209 217.357 23.336 217.426 23.267C217.458 23.2339 217.497 23.2079 217.539 23.1909C217.582 23.174 217.628 23.1663 217.674 23.1686C217.716 23.1634 217.758 23.1727 217.795 23.1951C217.831 23.2175 217.858 23.2517 217.872 23.2918C217.887 23.3321 217.893 23.3755 217.889 23.4184C217.885 23.4613 217.87 23.5026 217.847 23.539C217.847 23.6622 217.774 23.7126 217.724 23.811" fill="white"/>
<path d="M222.471 22.7233C222.424 22.7049 222.373 22.6965 222.322 22.6985H222.022L221.923 22.9953C222.023 22.9916 222.122 22.9999 222.22 23.0201C222.467 23.0937 222.566 23.3169 222.418 23.6881H221.378L221.255 24.0081H222.59L222.714 23.6881C222.887 23.1689 222.812 22.8473 222.466 22.7233" fill="white"/>
<path d="M222.892 23.9843H223.212L223.88 22.1299H223.56L222.892 23.9843Z" fill="white"/>
<path d="M227.541 23.316C227.467 23.5384 227.342 23.636 227.195 23.636H226.898C226.988 23.5358 227.055 23.4181 227.097 23.2904L227.319 22.6448H226.999L226.777 23.3128C226.703 23.5352 226.578 23.6328 226.431 23.6328H226.134C226.215 23.5264 226.281 23.4103 226.333 23.2872L226.58 22.6416H226.234L225.987 23.2872C225.889 23.5096 225.765 23.6328 225.591 23.6328H225.022C225.221 23.1632 225.121 22.8416 224.8 22.668C224.753 22.6496 224.702 22.6412 224.651 22.6432H224.354L224.256 22.94C224.356 22.9363 224.455 22.9446 224.553 22.9648C224.8 23.0384 224.898 23.2616 224.751 23.6328H223.711L223.587 23.9528H227.173C227.359 23.9402 227.536 23.8687 227.678 23.7485C227.82 23.6284 227.92 23.4659 227.964 23.2848L228.186 22.6672H227.866L227.541 23.316Z" fill="white"/>
<path d="M230.434 22.625H229.667C229.446 22.6357 229.234 22.7154 229.061 22.8529C228.888 22.9904 228.763 23.1787 228.702 23.3914L228.357 24.4314H228.702L229.048 23.4914C229.077 23.3697 229.142 23.2597 229.234 23.1758C229.327 23.0919 229.443 23.0382 229.567 23.0218H229.814C229.731 23.1165 229.664 23.2247 229.616 23.3418C229.493 23.7378 229.641 24.0098 230.037 24.0098C230.228 23.996 230.41 23.9278 230.564 23.8134C230.717 23.699 230.834 23.5431 230.902 23.3642C231.025 22.9682 230.902 22.6962 230.506 22.6962M230.11 23.661C229.911 23.661 229.862 23.5122 229.911 23.265C229.939 23.1674 229.997 23.0811 230.077 23.019C230.157 22.9568 230.255 22.9219 230.357 22.9194C230.555 22.9194 230.604 23.0682 230.555 23.3154C230.517 23.4065 230.456 23.4863 230.378 23.5468C230.3 23.6074 230.207 23.6467 230.11 23.661Z" fill="white"/>
<path d="M234.143 22.0557H233.846L233.722 22.3757H234.019L234.143 22.0557Z" fill="white"/>
<path d="M235.801 22.0557H235.504L235.406 22.3757H235.702L235.801 22.0557Z" fill="white"/>
<path d="M235.305 22.676L235.082 23.3216C235.058 23.3952 235.009 23.4448 234.984 23.52C234.957 23.5527 234.923 23.5787 234.885 23.5957C234.846 23.6128 234.804 23.6206 234.762 23.6184H234.242C234.465 22.9504 234.341 22.6288 233.846 22.6288C233.439 22.6621 233.06 22.8475 232.783 23.148L233.204 22.0848H232.884L232.315 23.6176H231.647C231.607 23.6244 231.566 23.6213 231.527 23.6085C231.488 23.5956 231.453 23.5735 231.425 23.544C231.4 23.5192 231.4 23.4208 231.425 23.2472L231.87 22.0352H231.574L231.104 23.3704C231.069 23.4299 231.049 23.4967 231.045 23.5654C231.04 23.6342 231.052 23.703 231.079 23.7664C231.118 23.814 231.166 23.8522 231.222 23.878C231.277 23.9038 231.338 23.9165 231.399 23.9152H234.713C234.864 23.9159 235.01 23.8647 235.128 23.7702C235.245 23.6756 235.327 23.5435 235.358 23.396L235.655 22.6584H235.31L235.305 22.676ZM233.846 23.5912H232.585C232.841 23.2202 233.231 22.9624 233.673 22.8712C233.92 22.8712 234.018 23.0936 233.895 23.4888C233.895 23.5136 233.87 23.5624 233.87 23.5872" fill="white"/>
</g>
<path d="M151.686 16.8496H130.938V23.7488H151.686V16.8496Z" fill="white"/>
<path d="M151.686 7.42871H130.938V14.3279H151.686V7.42871Z" fill="white"/>
<mask id="mask1_1_3834" style="mask-type:luminance" maskUnits="userSpaceOnUse" x="130" y="7" width="50" height="17">
<path d="M179.976 7.42676H130.938V23.7492H179.976V7.42676Z" fill="white"/>
</mask>
<g mask="url(#mask1_1_3834)">
<path d="M172.434 22.3395L172.336 22.3643C172.116 22.4142 171.893 22.4471 171.668 22.4627C171.124 22.4627 170.481 22.1659 170.481 20.8803C170.481 20.2123 170.604 19.2979 171.594 19.2979C171.841 19.3029 172.085 19.3534 172.314 19.4467L172.412 19.4715L172.434 22.3395ZM172.583 15.9091L172.41 15.9339V18.2827L172.261 18.2579H172.236C171.939 18.1656 171.631 18.1155 171.321 18.1091C169.342 18.1091 168.921 19.5931 168.921 20.8539C168.883 21.1724 168.908 21.4953 168.995 21.804C169.082 22.1128 169.229 22.4014 169.427 22.6534C169.625 22.9054 169.872 23.1159 170.151 23.2727C170.431 23.4295 170.739 23.5297 171.058 23.5675C171.226 23.5879 171.397 23.5903 171.566 23.5747C172.168 23.5942 172.769 23.5191 173.347 23.3523C173.842 23.2035 174.015 22.9835 174.015 22.5115V15.6875C173.546 15.7371 173.075 15.8107 172.581 15.9099" fill="white"/>
<path d="M178.369 22.3887L178.27 22.4135L177.95 22.5119C177.704 22.5956 177.445 22.6372 177.184 22.6351C176.714 22.6351 176.418 22.4127 176.418 21.9895C176.418 21.7175 176.541 21.2967 177.333 21.2967H178.322V22.4095H178.372L178.369 22.3887ZM177.701 18.0615C177.012 18.0798 176.328 18.1962 175.672 18.4071L175.153 18.5559L175.326 19.7183L175.821 19.5447C176.357 19.3665 176.916 19.2666 177.481 19.2479C177.703 19.2479 178.396 19.2479 178.396 19.9679V20.2879H177.456C175.725 20.2879 174.958 20.8319 174.958 22.0191C174.958 23.0087 175.678 23.6263 176.912 23.6263C177.369 23.6003 177.823 23.5423 178.272 23.4527H178.322L178.47 23.4775C178.94 23.5759 179.435 23.6511 179.93 23.7495V19.8911C179.93 18.7039 179.192 18.0615 177.704 18.0615" fill="white"/>
<path d="M166.522 22.3887L166.374 22.4135L166.054 22.5119C165.807 22.5956 165.548 22.6372 165.287 22.6351C164.818 22.6351 164.521 22.4127 164.521 21.9895C164.521 21.7175 164.644 21.2967 165.386 21.2967H166.376L166.522 22.3887ZM165.754 18.0615C165.048 18.0814 164.348 18.1977 163.674 18.4071L163.154 18.5559L163.328 19.7183L163.822 19.5447C164.365 19.3644 164.931 19.2644 165.502 19.2479C165.725 19.2479 166.418 19.2479 166.418 19.9679V20.2879H165.478C163.746 20.2879 162.98 20.8319 162.98 22.0191C162.98 23.0087 163.7 23.6263 164.958 23.6263C165.415 23.6003 165.87 23.5423 166.318 23.4527H166.368L166.517 23.4775C167.011 23.5759 167.506 23.6511 167.976 23.7495V19.8911C168.001 18.7039 167.238 18.0615 165.75 18.0615" fill="white"/>
<path d="M159.995 18.0366C159.422 18.0439 158.857 18.1695 158.335 18.4054L158.286 18.4302L158.236 18.4054C157.786 18.146 157.27 18.0257 156.752 18.0598C156.149 18.0671 155.549 18.1587 154.971 18.3318C154.452 18.4806 154.251 18.7278 154.251 19.1966V23.5742H155.859V19.5454L155.982 19.5206C156.211 19.429 156.456 19.387 156.702 19.3974C156.786 19.3888 156.871 19.3967 156.951 19.4207C157.032 19.4448 157.107 19.4844 157.172 19.5375C157.237 19.5905 157.291 19.6559 157.331 19.7299C157.371 19.8039 157.396 19.885 157.405 19.9686C157.411 20.0338 157.407 20.0996 157.394 20.1638V23.651H159.002V20.1134C159.013 19.9959 158.996 19.8774 158.952 19.7678L158.902 19.6446L159.026 19.595C159.281 19.4762 159.56 19.4168 159.842 19.4214C160.162 19.4214 160.562 19.5446 160.562 20.1878V23.6502H162.169V20.0142C162.183 19.7659 162.149 19.5171 162.067 19.2821C161.986 19.0471 161.858 18.8305 161.693 18.6447C161.527 18.4589 161.327 18.3076 161.103 18.1994C160.879 18.0912 160.636 18.0283 160.387 18.0142C160.255 18.0061 160.123 18.0122 159.993 18.0326" fill="white"/>
<path d="M177.206 11.9293C176.882 11.9284 176.559 11.8955 176.242 11.8309L176.143 11.8061V9.45654C176.142 9.34093 176.134 9.22549 176.118 9.11094L176.069 9.01254L176.192 8.98774C176.217 8.98774 176.242 8.96294 176.29 8.96294H176.315C176.334 8.96085 176.352 8.95206 176.365 8.93814C176.39 8.93814 176.414 8.91334 176.463 8.91334C176.738 8.84249 177.021 8.80939 177.304 8.81494C178.294 8.81494 178.417 9.73014 178.417 10.3973C178.417 11.6589 177.771 11.9301 177.205 11.9301M177.205 7.42934H177.18C176.772 7.39337 176.361 7.44296 175.974 7.57493C175.586 7.70691 175.231 7.91836 174.93 8.19574C174.729 8.46708 174.624 8.79752 174.632 9.13494V11.5773C174.645 11.6865 174.628 11.7972 174.582 11.8973L174.533 12.0205H171.565V10.2957C171.598 9.93669 171.554 9.57467 171.437 9.23386C171.319 8.89306 171.13 8.58133 170.882 8.31948C170.634 8.05763 170.333 7.8517 169.999 7.71544C169.665 7.57918 169.306 7.51574 168.946 7.52934H167.437C167.387 7.97494 167.314 8.24934 167.263 8.69174H168.75C169.541 8.69174 169.937 9.35974 169.937 10.3517V12.1037L169.814 12.0541C169.701 12.0238 169.585 12.0072 169.468 12.0045H166.896C166.846 12.3245 166.773 12.7709 166.722 13.1669H174.66C174.932 13.1173 175.254 13.0437 175.501 13.0181C176.03 13.2235 176.593 13.3243 177.161 13.3149C177.546 13.3379 177.931 13.2773 178.29 13.1373C178.649 12.9974 178.974 12.7814 179.242 12.5041C179.509 12.2269 179.714 11.895 179.842 11.5312C179.969 11.1674 180.016 10.7803 179.98 10.3965C180.008 10.0354 179.964 9.6724 179.851 9.32818C179.739 8.98397 179.559 8.66531 179.324 8.39043C179.088 8.11554 178.8 7.88982 178.477 7.72614C178.154 7.56247 177.802 7.46406 177.441 7.43654C177.365 7.43014 177.289 7.42694 177.213 7.42854" fill="white"/>
<path d="M163.334 13.9072H163.383C165.135 13.9072 165.955 13.3136 165.955 11.9288C165.959 11.6912 165.916 11.4551 165.829 11.2342C165.741 11.0132 165.611 10.8116 165.446 10.641C165.28 10.4704 165.083 10.3341 164.865 10.2399C164.647 10.1457 164.412 10.0954 164.174 10.092C164.108 10.0902 164.041 10.0926 163.975 10.0992H162.393C162.211 10.1194 162.029 10.0668 161.886 9.95279C161.743 9.83881 161.651 9.6728 161.63 9.49117C161.627 9.4547 161.627 9.41803 161.63 9.38157C161.63 9.06157 161.754 8.68877 162.546 8.68877H166.008C166.089 8.30519 166.146 7.91699 166.179 7.52637H162.594C160.934 7.52637 160.096 8.21917 160.096 9.38077C160.096 10.5424 160.816 11.1328 162.05 11.1328H163.632C163.731 11.1312 163.829 11.1491 163.922 11.1856C164.014 11.222 164.098 11.2763 164.169 11.3452C164.24 11.4142 164.297 11.4964 164.336 11.5874C164.376 11.6783 164.397 11.7761 164.398 11.8752V11.8992C164.409 12.1007 164.339 12.2981 164.204 12.4481C164.069 12.5981 163.88 12.6884 163.678 12.6992C163.631 12.7012 163.584 12.699 163.538 12.6928H157.256C156.465 12.6432 155.921 11.184 155.921 11.184V10.496C155.921 9.40797 156.317 8.76477 157.231 8.76477H158.715C158.765 8.29517 158.838 8.04477 158.889 7.60237H156.86C156.499 7.59351 156.139 7.66111 155.806 7.80075C155.472 7.94038 155.172 8.14889 154.925 8.41263C154.677 8.67636 154.488 8.98938 154.37 9.33116C154.252 9.67295 154.208 10.0358 154.24 10.396V11.1336C154.21 11.4475 154.241 11.7644 154.333 12.0661C154.425 12.3677 154.576 12.6483 154.777 12.8917C154.977 13.1351 155.224 13.3366 155.502 13.4846C155.781 13.6326 156.086 13.7243 156.4 13.7544C156.552 13.7691 156.705 13.7691 156.858 13.7544H158.334L161.079 13.804H163.354V13.9024L163.334 13.9072Z" fill="white"/>
</g>
<mask id="mask2_1_3834" style="mask-type:luminance" maskUnits="userSpaceOnUse" x="349" y="5" width="50" height="21">
<path d="M398.368 5.58496H349.562V25.5914H398.368V5.58496Z" fill="white"/>
</mask>
<g mask="url(#mask2_1_3834)">
<path d="M358.454 8.15794C358.164 8.52009 357.794 8.81088 357.374 9.00796C356.954 9.20503 356.494 9.30314 356.03 9.29474C355.981 8.38867 356.292 7.49989 356.895 6.82194C357.496 6.11642 358.348 5.67299 359.27 5.58594C359.318 6.04771 359.271 6.51443 359.13 6.95696C358.99 7.39949 358.76 7.80833 358.454 8.15794M359.295 9.49314C357.96 9.41954 356.847 10.2307 356.204 10.2307C355.561 10.2307 354.597 9.54194 353.558 9.54194C352.88 9.56007 352.218 9.7539 351.638 10.1045C351.057 10.455 350.577 10.9503 350.245 11.5419C348.81 13.9907 349.876 17.6499 351.259 19.6531C351.927 20.6675 352.743 21.7331 353.806 21.7059C354.821 21.6811 355.216 21.0379 356.452 21.0379C357.688 21.0379 358.034 21.7059 359.098 21.6835C360.21 21.6587 360.902 20.6691 361.57 19.7051C362.033 18.9949 362.406 18.2308 362.683 17.4299C362.044 17.1504 361.499 16.6904 361.117 16.1062C360.735 15.5221 360.531 14.8392 360.531 14.1411C360.543 13.5207 360.709 12.9129 361.015 12.3731C361.321 11.8332 361.757 11.3784 362.283 11.0499C361.93 10.5855 361.479 10.205 360.962 9.93566C360.445 9.66635 359.874 9.51495 359.291 9.49234M366.933 6.64834V21.5411H369.208V16.4683H372.398C373.644 16.5277 374.863 16.0897 375.786 15.2508C376.709 14.4119 377.261 13.2407 377.321 11.9947C377.328 11.8443 377.328 11.6947 377.321 11.5459C377.386 10.3133 376.96 9.10514 376.135 8.18713C375.309 7.26911 374.153 6.71646 372.921 6.65074C372.761 6.64274 372.606 6.64274 372.449 6.65074L366.933 6.64834ZM369.26 8.64834H371.934C373.934 8.64834 375.074 9.71154 375.074 11.5915C375.074 13.4715 373.938 14.5347 371.934 14.5347H369.285V8.65234L369.26 8.64834ZM381.75 21.7347C382.43 21.7487 383.101 21.5791 383.692 21.2439C384.283 20.9087 384.773 20.4202 385.11 19.8299H385.184V21.6331H387.286V14.2163C387.286 12.0643 385.579 10.7043 382.982 10.7043C380.558 10.7043 378.754 12.1139 378.679 14.0179H380.732C380.848 13.5489 381.13 13.1378 381.525 12.8604C381.921 12.5831 382.404 12.4583 382.884 12.5091C384.293 12.5091 385.061 13.1771 385.061 14.3883V15.2067L382.217 15.3803C379.57 15.5539 378.137 16.6659 378.137 18.5707C378.162 20.4755 379.646 21.7363 381.747 21.7363M382.217 19.9555C380.98 19.9555 380.217 19.3619 380.217 18.4467C380.217 17.5067 380.954 16.9627 382.394 16.8643L384.966 16.6907V17.5267C384.948 18.1889 384.669 18.8171 384.189 19.2735C383.709 19.73 383.068 19.9773 382.406 19.9611C382.346 19.9611 382.285 19.9555 382.225 19.9499M390.089 25.5883C392.339 25.5883 393.402 24.7235 394.318 22.1259L398.374 10.7467H396.024L393.304 19.5259H393.284L390.55 10.7507H388.126L392.058 21.5827L391.859 22.2507C391.781 22.702 391.539 23.1083 391.179 23.3913C390.819 23.6743 390.367 23.8137 389.91 23.7827C389.737 23.7827 389.366 23.7579 389.242 23.7579V25.5387C389.52 25.5819 389.802 25.5986 390.083 25.5883" fill="white"/>
</g>
<mask id="mask3_1_3834" style="mask-type:luminance" maskUnits="userSpaceOnUse" x="290" y="7" width="50" height="17">
<path d="M339.882 7.57617H290.423V23.6002H339.882V7.57617Z" fill="white"/>
</mask>
<g mask="url(#mask3_1_3834)">
<path d="M322.646 7.57582C319.134 7.57582 315.994 9.40542 315.994 12.7694C315.994 16.627 321.558 16.899 321.558 18.8278C321.558 19.6438 320.643 20.3854 319.036 20.3854C317.651 20.372 316.292 20.0146 315.079 19.3454L314.342 22.7334C315.782 23.3041 317.318 23.5975 318.867 23.5982C322.7 23.5982 325.742 21.6934 325.742 18.2814C325.742 14.2014 320.153 13.9294 320.153 12.1486C320.153 11.503 320.919 10.8134 322.502 10.8134C323.629 10.8302 324.741 11.0814 325.766 11.551L326.479 8.26702C325.253 7.80832 323.955 7.57365 322.646 7.57422M290.522 7.82142L290.424 8.34062C291.386 8.52823 292.33 8.80132 293.243 9.15662C294.95 9.77422 295.098 10.1462 295.37 11.263L298.51 23.4006H302.738L309.242 7.84542H305.038L300.858 18.3806L299.152 9.43022C299.094 8.96788 298.862 8.54485 298.504 8.24655C298.146 7.94824 297.689 7.79688 297.223 7.82302L290.522 7.82142ZM310.922 7.82142L307.609 23.3766H311.615L314.904 7.82142H310.922ZM333.278 7.82142C332.292 7.82142 331.818 8.34062 331.423 9.23422L325.559 23.3262H329.763L330.579 21.0014H335.677L336.171 23.3262H339.881L336.641 7.82142H333.278ZM333.822 12.0014L335.058 17.8414H331.72L333.822 12.0014Z" fill="white"/>
</g>
<mask id="mask4_1_3834" style="mask-type:luminance" maskUnits="userSpaceOnUse" x="68" y="7" width="54" height="18">
<path d="M121.26 7.06934H68.444V24.1061H121.26V7.06934Z" fill="white"/>
</mask>
<g mask="url(#mask4_1_3834)">
<path d="M71.1088 7.071L68.444 13.2654H70.1784L70.6696 12.0246H73.5288L74.0176 13.2654H75.7896L73.128 7.071H71.1088ZM72.0944 8.511L72.964 10.6814H71.22L72.0944 8.511ZM75.9736 13.2638V7.071L78.4392 7.0806L79.872 11.0742L81.2712 7.0742H83.7168V13.2678H82.168V8.7006L80.5256 13.2646H79.1656L77.524 8.7006V13.2646L75.9736 13.2638ZM84.7736 13.2638V7.071H89.8272V8.4542H86.3384V9.515H89.7456V10.8198H86.3384V11.9198H89.8272V13.2646L84.7736 13.2638ZM90.724 7.071V13.2654H92.2736V11.0654H92.9256L94.7824 13.2662H96.6752L94.6352 10.9838C95.1054 10.9373 95.541 10.7161 95.8558 10.3638C96.1707 10.0115 96.3417 9.55382 96.3352 9.0814C96.3368 8.81823 96.2866 8.55733 96.1873 8.31358C96.088 8.06984 95.9418 7.84804 95.7568 7.66083C95.5718 7.47363 95.3518 7.32469 95.1092 7.22253C94.8667 7.12036 94.6064 7.06697 94.3432 7.0654C94.2872 7.0654 94.2304 7.0654 94.1752 7.0718L90.724 7.071ZM92.2736 8.4542H94.0432C94.2266 8.44677 94.4056 8.51045 94.5431 8.63195C94.6805 8.75346 94.7657 8.92337 94.7808 9.1062C94.7686 9.28522 94.688 9.45269 94.5558 9.57402C94.4236 9.69536 94.2499 9.76129 94.0704 9.7582H92.2728L92.2736 8.4542ZM98.5496 13.2622H96.968V7.071H98.5496V13.2622ZM102.298 13.2622H101.957C100.305 13.2622 99.3024 11.9606 99.3024 10.1902C99.225 9.4417 99.448 8.69309 99.9223 8.10893C100.397 7.52477 101.084 7.15287 101.832 7.075C102.015 7.05703 102.198 7.05703 102.381 7.075H104.093V8.5374H102.318C102.122 8.54197 101.929 8.58504 101.75 8.66414C101.571 8.74324 101.409 8.85683 101.274 8.99842C101.139 9.14001 101.033 9.30683 100.963 9.48935C100.892 9.67188 100.858 9.86653 100.862 10.0622C100.862 10.1102 100.867 10.159 100.873 10.207C100.844 10.4348 100.867 10.6662 100.94 10.8838C101.013 11.1015 101.135 11.2997 101.296 11.4636C101.457 11.6275 101.652 11.7528 101.869 11.8302C102.085 11.9075 102.316 11.9349 102.544 11.9102H102.952L102.298 13.2622ZM105.668 7.071L103.003 13.2662H104.738L105.229 12.0254H108.088L108.577 13.2662H110.349L107.687 7.071H105.668ZM106.654 8.511L107.524 10.6814H105.779L106.654 8.511ZM110.527 13.2622V7.071H112.496L115.016 10.9622V7.071H116.564V13.2646H114.656L112.084 9.2718V13.2654L110.527 13.2622ZM79.7224 24.1054V17.9102H84.7752V19.2934H81.284V20.351H84.6912V21.655H81.284V22.755H84.7728V24.1054H79.7224ZM104.484 24.1054V17.9102H109.537V19.2934H106.05V20.351H109.444V21.655H106.052V22.755H109.541V24.1054H104.484ZM84.972 24.1054L87.4328 21.0462L84.9144 17.9102H86.8656L88.3664 19.847L89.8712 17.9102H91.7464L89.256 21.007L91.7216 24.1038H89.7736L88.3176 22.1958L86.896 24.1046L84.972 24.1054ZM91.9072 17.9118V24.107H93.496V22.1502H95.124C95.6871 22.2252 96.257 22.0735 96.7082 21.7285C97.1595 21.3834 97.4552 20.8733 97.5304 20.3102C97.5444 20.206 97.5506 20.1009 97.5488 19.9958C97.5559 19.7283 97.5101 19.462 97.4142 19.2121C97.3183 18.9622 97.1741 18.7337 96.9899 18.5396C96.8056 18.3455 96.585 18.1896 96.3404 18.0808C96.0959 17.9719 95.8324 17.9123 95.5648 17.9054C95.4848 17.9027 95.4046 17.9051 95.3248 17.9126L91.9072 17.9118ZM93.496 19.3126H95.212C95.3965 19.2952 95.5803 19.3518 95.7231 19.4698C95.8659 19.5879 95.956 19.7578 95.9736 19.9422C95.9754 19.9688 95.9754 19.9956 95.9736 20.0222C95.9736 20.116 95.9552 20.2089 95.9193 20.2956C95.8834 20.3823 95.8307 20.461 95.7644 20.5274C95.6981 20.5937 95.6193 20.6463 95.5326 20.6822C95.446 20.7181 95.3531 20.7366 95.2592 20.7366C95.2411 20.7375 95.223 20.7375 95.2048 20.7366H93.4944L93.496 19.3126ZM98.2232 17.911V24.1054H99.7728V21.9046H100.425L102.282 24.1054H104.174L102.137 21.8278C102.607 21.7808 103.042 21.5593 103.357 21.2071C103.671 20.8549 103.842 20.3976 103.836 19.9254C103.838 19.6622 103.787 19.4013 103.688 19.1576C103.589 18.9138 103.443 18.692 103.258 18.5048C103.073 18.3176 102.853 18.1687 102.61 18.0665C102.367 17.9644 102.107 17.911 101.844 17.9094C101.786 17.9094 101.729 17.9094 101.67 17.9158L98.2232 17.911ZM99.772 19.2942H101.544C101.727 19.2868 101.906 19.3505 102.044 19.472C102.181 19.5935 102.267 19.7634 102.282 19.9462C102.269 20.1253 102.188 20.2928 102.056 20.4141C101.924 20.5354 101.75 20.6013 101.57 20.5982H99.7728L99.772 19.2942ZM110.252 24.1054V22.7614H113.354C113.815 22.7614 114.012 22.5134 114.012 22.2414C114.012 21.9694 113.814 21.7174 113.354 21.7174H111.95C111.724 21.7396 111.495 21.7169 111.278 21.6508C111.06 21.5846 110.857 21.4761 110.682 21.3316C110.506 21.1871 110.36 21.0094 110.253 20.8086C110.146 20.6078 110.08 20.3879 110.058 20.1614C110.049 20.0616 110.049 19.9612 110.058 19.8614C110.058 18.8678 110.678 17.9102 112.488 17.9102H115.504L114.852 19.3038H112.244C111.745 19.3038 111.592 19.5654 111.592 19.8158C111.592 19.9589 111.648 20.0962 111.749 20.1976C111.85 20.299 111.987 20.3562 112.13 20.3566H113.63C113.879 20.3196 114.134 20.3387 114.376 20.4125C114.617 20.4863 114.839 20.6129 115.025 20.7832C115.212 20.9535 115.358 21.1632 115.453 21.3971C115.548 21.6309 115.59 21.883 115.575 22.135C115.593 22.4027 115.553 22.6712 115.457 22.9218C115.361 23.1724 115.212 23.3993 115.02 23.5867C114.828 23.7742 114.598 23.9177 114.345 24.0076C114.092 24.0974 113.822 24.1313 113.555 24.107L110.252 24.1054ZM115.932 24.1054V22.7614H119.032C119.493 22.7614 119.69 22.5134 119.69 22.2414C119.69 21.9694 119.491 21.7174 119.032 21.7174H117.631C117.405 21.7396 117.176 21.7169 116.958 21.6508C116.741 21.5846 116.538 21.4761 116.362 21.3316C116.187 21.1871 116.041 21.0094 115.934 20.8086C115.827 20.6078 115.76 20.3879 115.738 20.1614C115.73 20.0616 115.73 19.9612 115.738 19.8614C115.738 18.8678 116.359 17.9102 118.169 17.9102H121.185L120.533 19.3038H117.924C117.425 19.3038 117.272 19.5654 117.272 19.8158C117.272 19.9589 117.328 20.0962 117.429 20.1976C117.53 20.299 117.667 20.3562 117.81 20.3566H119.31C119.559 20.3196 119.814 20.3387 120.056 20.4125C120.297 20.4863 120.519 20.6129 120.705 20.7832C120.892 20.9535 121.038 21.1632 121.133 21.3971C121.228 21.6309 121.27 21.883 121.255 22.135C121.273 22.4027 121.233 22.6712 121.137 22.9218C121.041 23.1724 120.892 23.3993 120.7 23.5867C120.508 23.7742 120.278 23.9177 120.025 24.0076C119.772 24.0974 119.502 24.1313 119.235 24.107L115.932 24.1054Z" fill="white"/>
</g>
<path d="M268.676 25.1562C268.676 25.4683 268.8 25.7676 269.021 25.9883C269.241 26.209 269.541 26.333 269.853 26.333H269.941C270.215 26.333 270.48 26.2393 270.694 26.0674L270.461 25.6674C270.308 25.789 270.12 25.8588 269.925 25.8666C269.91 25.8676 269.895 25.8676 269.881 25.8666C269.698 25.8668 269.524 25.7946 269.394 25.6658C269.271 25.5231 269.204 25.341 269.204 25.1526C269.204 24.9643 269.271 24.7821 269.394 24.6394C269.455 24.5766 269.527 24.5267 269.607 24.4926C269.687 24.4585 269.774 24.441 269.861 24.441H269.882C270.092 24.4413 270.297 24.5117 270.463 24.641L270.696 24.241C270.477 24.0676 270.206 23.9737 269.927 23.9746H269.856C269.544 23.9746 269.245 24.0986 269.024 24.3193C268.803 24.54 268.679 24.8393 268.679 25.1514" fill="white"/>
<path d="M278.417 10.3512C277.576 8.3444 275.985 6.74503 273.983 5.89357L273.929 5.87357C272.9 5.42787 271.791 5.19963 270.67 5.20317H270.658H270.623C268.966 5.20048 267.346 5.69759 265.976 6.62957L266.005 6.61197C267.388 7.73383 268.406 9.24259 268.928 10.9456L268.945 11.0096C269.209 11.8646 269.341 12.7548 269.338 13.6496C269.339 14.5563 269.204 15.4581 268.938 16.3248L268.954 16.2608C268.446 17.9809 267.422 19.5041 266.022 20.6256L266.006 20.6392C267.171 21.4158 268.513 21.8881 269.908 22.0129C271.303 22.1377 272.707 21.911 273.992 21.3536L273.938 21.3752C275.943 20.5358 277.542 18.9488 278.397 16.9504L278.417 16.896C278.863 15.8637 279.092 14.7503 279.088 13.6256C279.09 12.4816 278.854 11.3497 278.395 10.3016L278.417 10.3512Z" fill="white"/>
<path d="M273.263 26.2847V24.0447H272.769V24.3095C272.692 24.2066 272.593 24.123 272.478 24.0653C272.364 24.0077 272.237 23.9776 272.109 23.9775H272.047C271.902 23.9773 271.758 24.0065 271.624 24.0634C271.49 24.1204 271.369 24.2038 271.269 24.3087C271.06 24.5408 270.945 24.8419 270.945 25.1539C270.945 25.466 271.06 25.7671 271.269 25.9991C271.37 26.1042 271.491 26.1877 271.624 26.2446C271.758 26.3015 271.902 26.3307 272.048 26.3303H272.12C272.246 26.3304 272.37 26.3005 272.483 26.243C272.595 26.1856 272.692 26.1023 272.766 25.9999V26.2847H273.263ZM272.615 25.6751C272.555 25.7366 272.484 25.7855 272.404 25.8188C272.325 25.8522 272.24 25.8695 272.154 25.8695H272.096C272.01 25.8696 271.925 25.852 271.847 25.8179C271.768 25.7838 271.697 25.7338 271.638 25.6711C271.521 25.5257 271.456 25.3443 271.456 25.1571C271.456 24.97 271.521 24.7886 271.638 24.6431C271.697 24.5804 271.767 24.5303 271.846 24.4962C271.925 24.4621 272.009 24.4445 272.095 24.4447H272.138C272.226 24.4445 272.313 24.4628 272.394 24.4983C272.475 24.5339 272.547 24.5859 272.606 24.6511C272.729 24.7845 272.796 24.959 272.796 25.1399V25.1599C272.796 25.1679 272.796 25.1783 272.796 25.1887C272.796 25.3678 272.731 25.5408 272.613 25.6751" fill="white"/>
<path d="M273.906 24.0448V26.2848H274.386V25.0248C274.386 24.6408 274.546 24.4456 274.866 24.4456H274.878C274.979 24.4456 275.08 24.4688 275.171 24.5136H275.166L275.314 24.0488C275.215 24.0045 275.108 23.9819 274.999 23.9824H274.95C274.835 23.9822 274.723 24.0125 274.625 24.0702C274.526 24.1279 274.445 24.2108 274.39 24.3104V24.0448H273.906Z" fill="white"/>
<path d="M277.768 26.284V23.1328H277.288V24.3096C277.21 24.2064 277.109 24.1227 276.993 24.0649C276.877 24.0072 276.749 23.9771 276.619 23.9768H276.562C276.417 23.9768 276.273 24.0068 276.14 24.065C276.007 24.1233 275.888 24.2085 275.79 24.3152C275.581 24.544 275.466 24.8424 275.466 25.152C275.466 25.4616 275.581 25.76 275.79 25.9888C275.888 26.0957 276.007 26.1811 276.14 26.2394C276.273 26.2978 276.417 26.328 276.562 26.328H276.576H276.63C276.758 26.328 276.884 26.2981 276.998 26.2405C277.112 26.183 277.211 26.0995 277.287 25.9968V26.2768L277.768 26.284ZM277.128 25.6696C277.067 25.7328 276.994 25.783 276.914 25.8172C276.833 25.8515 276.746 25.869 276.658 25.8688H276.621C276.533 25.8687 276.445 25.8502 276.364 25.8147C276.284 25.7792 276.211 25.7273 276.151 25.6624C276.028 25.5228 275.96 25.3428 275.96 25.1564C275.96 24.97 276.028 24.7901 276.151 24.6504C276.215 24.5849 276.29 24.5327 276.374 24.4971C276.458 24.4616 276.548 24.4432 276.64 24.4432C276.731 24.4432 276.821 24.4616 276.905 24.4971C276.989 24.5327 277.065 24.5849 277.128 24.6504C277.251 24.7916 277.318 24.9725 277.318 25.1596C277.318 25.3468 277.251 25.5284 277.128 25.6696Z" fill="white"/>
<path d="M267.134 24.0448V26.2848H267.63V25.0248C267.63 24.6408 267.79 24.4456 268.11 24.4456H268.121C268.222 24.4456 268.322 24.4688 268.413 24.5136L268.562 24.0488C268.458 24.0044 268.346 23.9818 268.233 23.9824H268.195C268.081 23.9822 267.969 24.0125 267.871 24.0702C267.772 24.1279 267.691 24.2108 267.635 24.3104V24.0448H267.134Z" fill="white"/>
<path d="M253.238 24.0497V26.2897H253.734V25.0425C253.734 24.6465 253.919 24.4489 254.282 24.4489C254.611 24.4489 254.778 24.6489 254.778 25.0425V26.2849H255.258V25.0425C255.258 24.6425 255.444 24.4489 255.804 24.4489C256.134 24.4489 256.301 24.6489 256.301 25.0417V26.2841H256.798V24.8729C256.798 24.8617 256.798 24.8505 256.798 24.8377C256.798 24.6143 256.712 24.3993 256.558 24.2377C256.382 24.0743 256.152 23.9836 255.912 23.9841H255.902C255.884 23.9831 255.866 23.9831 255.848 23.9841C255.704 23.9848 255.563 24.0218 255.437 24.0918C255.311 24.1617 255.205 24.2623 255.128 24.3841C255.058 24.2625 254.957 24.1615 254.835 24.0913C254.714 24.0211 254.576 23.9842 254.435 23.9841C254.418 23.9841 254.398 23.9841 254.38 23.9841H254.373C254.248 23.9843 254.126 24.0144 254.015 24.0717C253.905 24.1291 253.81 24.2121 253.738 24.3137V24.0489L253.238 24.0497Z" fill="white"/>
<path d="M260.248 5.19969C259.108 5.19835 257.98 5.43343 256.935 5.89009L256.989 5.86849C254.979 6.70451 253.376 8.29263 252.521 10.2941L252.501 10.3477C252.054 11.3803 251.826 12.4939 251.83 13.6189C251.828 14.7629 252.064 15.8947 252.522 16.9429L252.501 16.8901C253.34 18.8949 254.927 20.4941 256.926 21.3493L256.98 21.3693C258.265 21.9167 259.666 22.1342 261.057 22.0022C262.447 21.8702 263.783 21.3927 264.942 20.6133L264.912 20.6325C263.52 19.516 262.498 18.0053 261.98 16.2981L261.964 16.2365C261.708 15.3913 261.579 14.5125 261.582 13.6293C261.58 12.2879 261.877 10.963 262.45 9.75038C263.024 8.53771 263.859 7.46757 264.897 6.61729L264.913 6.60449C263.549 5.68319 261.941 5.19291 260.295 5.19729H260.259L260.248 5.19969Z" fill="white"/>
<path d="M265.48 7.01848L265.461 7.00488C264.122 8.04043 263.133 9.46207 262.628 11.0777L262.612 11.1361C262.357 11.9447 262.228 12.788 262.23 13.6361C262.23 14.4962 262.361 15.3513 262.621 16.1713L262.605 16.1121C263.099 17.7443 264.091 19.1815 265.442 20.2233L265.461 20.2369C266.806 19.2082 267.799 17.787 268.302 16.1697L268.319 16.1129C268.57 15.3102 268.696 14.4738 268.693 13.6329C268.693 12.764 268.558 11.9004 268.293 11.0729L268.31 11.1329C267.812 9.50202 266.824 8.06434 265.479 7.01608" fill="white"/>
<path d="M265.597 23.9795H265.545C265.401 23.9794 265.259 24.0088 265.126 24.0659C264.994 24.123 264.875 24.2066 264.777 24.3115C264.574 24.531 264.461 24.819 264.462 25.1179C264.462 25.1315 264.462 25.1467 264.462 25.1611C264.462 25.1747 264.462 25.1915 264.462 25.2091C264.46 25.5084 264.575 25.7966 264.782 26.0131C264.991 26.2194 265.273 26.3344 265.567 26.3331H265.647C265.965 26.3334 266.272 26.2218 266.515 26.0179L266.282 25.6547C266.106 25.8111 265.879 25.899 265.642 25.9027H265.587C265.435 25.9025 265.288 25.8471 265.173 25.7468C265.059 25.6465 264.984 25.508 264.964 25.3571H266.637V25.1643C266.637 25.1467 266.637 25.1283 266.637 25.1091C266.638 24.8145 266.53 24.5299 266.335 24.3091C266.242 24.2059 266.129 24.1235 266.002 24.0671C265.875 24.0108 265.737 23.9817 265.598 23.9819M266.141 24.9595H264.982C264.994 24.8141 265.06 24.6785 265.167 24.5797C265.275 24.4809 265.415 24.4261 265.561 24.4261C265.707 24.4261 265.848 24.4809 265.955 24.5797C266.062 24.6785 266.129 24.8141 266.141 24.9595Z" fill="white"/>
<path d="M259.531 26.2839V24.0439H259.051V24.3095C258.967 24.2056 258.861 24.1218 258.74 24.0643C258.619 24.0069 258.487 23.9772 258.354 23.9775H258.31C258.166 23.9773 258.023 24.0066 257.891 24.0637C257.759 24.1209 257.641 24.2045 257.542 24.3095C257.338 24.5439 257.226 24.8443 257.226 25.1551C257.226 25.466 257.338 25.7664 257.542 26.0007C257.641 26.1056 257.76 26.1892 257.892 26.2461C258.024 26.3031 258.167 26.3323 258.31 26.3319H258.337C258.351 26.3329 258.366 26.3329 258.38 26.3319C258.509 26.3319 258.637 26.302 258.753 26.2445C258.869 26.1871 258.97 26.1037 259.049 26.0007V26.2839H259.531ZM258.886 25.6719C258.827 25.7348 258.756 25.7849 258.677 25.819C258.598 25.8531 258.513 25.8706 258.427 25.8703H258.373C258.286 25.8706 258.2 25.853 258.119 25.8188C258.039 25.7845 257.967 25.7343 257.907 25.6711C257.789 25.526 257.724 25.3444 257.724 25.1571C257.724 24.9699 257.789 24.7883 257.907 24.6431C257.967 24.5805 258.04 24.5306 258.12 24.4965C258.2 24.4624 258.286 24.4448 258.373 24.4447H258.429C258.515 24.4448 258.601 24.4633 258.679 24.499C258.758 24.5347 258.828 24.5869 258.885 24.6519C259.003 24.7953 259.068 24.9753 259.068 25.1611C259.068 25.347 259.003 25.527 258.885 25.6703" fill="white"/>
<path d="M260.942 26.3323H260.971H261.042C261.286 26.3328 261.525 26.2616 261.73 26.1275H261.724C261.808 26.0701 261.877 25.9931 261.925 25.903C261.973 25.8129 261.997 25.7126 261.998 25.6107V25.5971C261.998 25.2243 261.736 25.0043 261.219 24.9347L260.989 24.9003C260.734 24.8571 260.607 24.7795 260.607 24.6699C260.607 24.5035 260.746 24.4219 261.022 24.4219H261.027C261.277 24.4214 261.524 24.4856 261.742 24.6083L261.734 24.6035L261.934 24.2035C261.675 24.0503 261.38 23.9699 261.079 23.9707H260.964C260.74 23.9702 260.521 24.0407 260.34 24.1723C260.263 24.2323 260.2 24.3094 260.157 24.3974C260.114 24.4855 260.092 24.5823 260.092 24.6803V24.7019C260.092 25.0643 260.354 25.2819 260.87 25.3475L261.086 25.3819C261.35 25.4259 261.486 25.5035 261.486 25.6147C261.486 25.8011 261.316 25.8971 260.971 25.8971H260.962C260.698 25.8972 260.441 25.8156 260.226 25.6635L260.012 26.0435C260.287 26.2284 260.611 26.3267 260.942 26.3259" fill="white"/>
<path d="M262.766 23.3701V24.0485H262.311V24.4957H262.774V25.5077C262.774 26.0565 263.036 26.3349 263.553 26.3349H263.57C263.776 26.3351 263.977 26.2756 264.15 26.1637H264.145L264.011 25.7485C263.88 25.8225 263.732 25.8626 263.582 25.8653C263.371 25.8653 263.262 25.7429 263.262 25.5013V24.4965H264.057V24.0493H263.262V23.3709L262.766 23.3701Z" fill="white"/>
<path d="M407.2 0.600098H3.20001C1.76407 0.600098 0.600006 1.76416 0.600006 3.2001V28.8001C0.600006 30.236 1.76407 31.4001 3.20001 31.4001H407.2C408.636 31.4001 409.8 30.236 409.8 28.8001V3.2001C409.8 1.76416 408.636 0.600098 407.2 0.600098Z" stroke="white" stroke-width="1.2"/>
<mask id="mask5_1_3834" style="mask-type:luminance" maskUnits="userSpaceOnUse" x="12" y="8" width="41" height="17">
<path d="M52.272 8.7998H12V24.9134H52.272V8.7998Z" fill="white"/>
</mask>
<g mask="url(#mask5_1_3834)">
<path d="M24.32 15.1354C23.3208 15.1354 22.7336 15.865 22.7336 17.093C22.7336 18.321 23.36 19.0394 24.32 19.0394C25.28 19.0394 25.904 18.277 25.9056 17.0954C25.9253 16.5909 25.7773 16.0941 25.4848 15.6826C25.3474 15.5062 25.1703 15.3647 24.9679 15.2696C24.7655 15.1745 24.5435 15.1285 24.32 15.1354Z" fill="white"/>
<path d="M31.6712 15.1146C31.4479 15.11 31.2266 15.157 31.0246 15.2521C30.8225 15.3472 30.6452 15.4876 30.5064 15.6626C30.2129 16.076 30.0649 16.5752 30.0856 17.0818C30.0856 18.2658 30.7112 19.0298 31.6712 19.0298V19.0194C32.6704 19.0194 33.2568 18.2938 33.2568 17.0714C33.2568 15.849 32.66 15.1146 31.6712 15.1146Z" fill="white"/>
<path d="M38.8264 15.1146C38.6031 15.11 38.3818 15.157 38.1798 15.2521C37.9777 15.3472 37.8004 15.4876 37.6616 15.6626C37.3681 16.076 37.22 16.5752 37.2408 17.0818C37.2408 18.2658 37.8664 19.0298 38.8264 19.0298V19.0194C39.8152 19.0194 40.412 18.2938 40.412 17.0714C40.412 15.849 39.8152 15.1146 38.8264 15.1146Z" fill="white"/>
<path d="M52.272 21.7814V11.9326C52.2739 11.1074 51.9494 10.3148 51.3693 9.72795C50.7891 9.14105 50.0004 8.80741 49.1752 8.7998H15.12C14.7093 8.80075 14.3027 8.8826 13.9236 9.04068C13.5445 9.19876 13.2003 9.42997 12.9106 9.72111C12.6208 10.0123 12.3913 10.3576 12.2351 10.7375C12.0788 11.1173 11.999 11.5243 12 11.935V21.7814C11.9987 22.6104 12.3267 23.4059 12.9117 23.9932C13.4967 24.5805 14.291 24.9115 15.12 24.9134H49.152C49.981 24.9117 50.7755 24.5808 51.3606 23.9935C51.9456 23.4061 52.2735 22.6104 52.272 21.7814ZM20.4936 14.7998L18.4288 15.1198V15.6798L20.4936 15.3598V16.507L18.4288 16.827V18.2094C18.4688 18.699 18.8104 18.7966 19.4176 18.7966C19.6994 18.7989 19.9778 18.735 20.2304 18.6102L20.2208 18.5998H20.24V20.111C19.8141 20.2982 19.354 20.3949 18.8888 20.395C18.8134 20.4037 18.7375 20.408 18.6616 20.4078C18.4082 20.4073 18.1574 20.3568 17.9235 20.2594C17.6896 20.1619 17.4772 20.0194 17.2983 19.8398C17.1195 19.6603 16.9778 19.4472 16.8814 19.2129C16.7849 18.9786 16.7355 18.7276 16.736 18.4742V17.0886L15.7464 17.2414V16.0958L16.736 15.943V15.383L15.7464 15.5358V14.3358L16.8336 14.1678V11.8574H18.5272V12.3454C18.5137 12.7864 18.3454 13.2086 18.0518 13.538C17.7583 13.8674 17.3582 14.083 16.9216 14.147L17.0816 14.1262L20.4936 13.5998V14.7998ZM27.5128 20.2646H25.8192V18.2462C25.8223 18.3305 25.8201 18.4149 25.8128 18.499C25.789 18.7712 25.7117 19.036 25.5855 19.2783C25.4593 19.5206 25.2866 19.7357 25.0772 19.9112C24.8679 20.0868 24.626 20.2194 24.3654 20.3014C24.1048 20.3835 23.8306 20.4134 23.5584 20.3894C23.2003 20.402 22.8443 20.3299 22.5194 20.1787C22.1945 20.0276 21.9099 19.8018 21.6888 19.5198C21.2127 18.8029 20.9794 17.9521 21.0232 17.0926C20.9743 16.2326 21.208 15.3802 21.6888 14.6654C21.9098 14.3832 22.1943 14.1573 22.5192 14.006C22.8442 13.8548 23.2002 13.7825 23.5584 13.795C23.6361 13.7878 23.7141 13.7854 23.792 13.7878C24.0651 13.7947 24.3342 13.8552 24.5839 13.9661C24.8336 14.0769 25.059 14.2359 25.2472 14.4339C25.4355 14.6319 25.5829 14.865 25.681 15.1199C25.7792 15.3749 25.8261 15.6467 25.8192 15.9198V14.1966L27.5128 13.9318V20.2646ZM32.444 20.391C32.3642 20.3976 32.2841 20.3997 32.204 20.3974C31.9301 20.389 31.6606 20.3268 31.4107 20.2142C31.1609 20.1016 30.9357 19.941 30.748 19.7413C30.5602 19.5417 30.4137 19.3071 30.3166 19.0508C30.2196 18.7946 30.174 18.5217 30.1824 18.2478V20.2638H28.4896V12.3438L30.1832 12.0798V15.9198C30.1809 15.8397 30.1833 15.7596 30.1904 15.6798C30.2386 15.1303 30.5031 14.6224 30.9257 14.2679C31.3483 13.9134 31.8945 13.7413 32.444 13.7894V13.7918C34.04 13.7918 34.9896 15.0254 34.9896 17.091C34.9896 19.1566 34.0392 20.3894 32.444 20.3894M39.5864 20.3894C39.5066 20.396 39.4265 20.3981 39.3464 20.3958C39.0724 20.3875 38.8027 20.3254 38.5528 20.2128C38.3028 20.1003 38.0774 19.9397 37.8896 19.7401C37.7017 19.5405 37.555 19.3058 37.4578 19.0495C37.3606 18.7931 37.3149 18.5202 37.3232 18.2462V20.2622H35.6432V12.3422L37.3384 12.0798V15.9198C37.3356 15.8344 37.338 15.7489 37.3456 15.6638C37.37 15.3923 37.4477 15.1283 37.5743 14.8869C37.7009 14.6454 37.8738 14.4313 38.0832 14.2568C38.2926 14.0822 38.5343 13.9507 38.7946 13.8697C39.0549 13.7886 39.3286 13.7597 39.6 13.7846L39.5912 13.7942C41.1864 13.7942 42.132 15.0254 42.132 17.091C42.132 19.1566 41.1816 20.3894 39.5864 20.3894ZM46.52 22.191H44.84V22.1718L45.344 20.243H43.8L42.1448 13.911H43.9456L45.3808 20.1014L46.9992 13.911H48.692L46.52 22.191Z" fill="white"/>
</g>
</svg>
