<svg width="76" height="10" viewBox="0 0 76 10" fill="none" xmlns="http://www.w3.org/2000/svg">
<path d="M5.26293 8.93903C4.97901 9.23453 4.63757 9.46873 4.25966 9.62721C3.88176 9.78569 3.47539 9.86508 3.06563 9.86049C2.6612 9.86722 2.25968 9.79103 1.88584 9.63662C1.51199 9.4822 1.17374 9.25283 0.89195 8.96266C0.320595 8.38664 0 7.60818 0 6.79686C0 5.98553 0.320595 5.20708 0.89195 4.63106C1.17297 4.33961 1.51099 4.10913 1.88496 3.95399C2.25892 3.79885 2.66082 3.72236 3.06563 3.72929C3.47097 3.72276 3.87334 3.79941 4.24788 3.95451C4.62243 4.10962 4.96119 4.33987 5.24325 4.63106C5.53323 4.91299 5.76247 5.25126 5.91687 5.62508C6.07128 5.99889 6.14757 6.40034 6.14107 6.80473V9.44308C6.14182 9.50071 6.13106 9.5579 6.10942 9.61132C6.08778 9.66474 6.0557 9.7133 6.01506 9.75416C5.97447 9.79517 5.92595 9.82749 5.87247 9.84916C5.81899 9.87082 5.76166 9.88137 5.70397 9.88018C5.64624 9.8807 5.58898 9.86977 5.53549 9.84804C5.482 9.82631 5.43335 9.79419 5.39235 9.75355C5.35134 9.71291 5.31879 9.66455 5.29658 9.61126C5.27437 9.55797 5.26293 9.50081 5.26293 9.44308V8.93903ZM3.06563 4.60743C2.63104 4.60743 2.20622 4.7363 1.84487 4.97774C1.48353 5.21918 1.20189 5.56236 1.03558 5.96386C0.869274 6.36537 0.82576 6.80717 0.910544 7.23341C0.995327 7.65964 1.2046 8.05117 1.5119 8.35846C1.8192 8.66576 2.21072 8.87504 2.63696 8.95982C3.06319 9.0446 3.505 9.00109 3.9065 8.83478C4.30801 8.66847 4.65118 8.38684 4.89262 8.02549C5.13406 7.66415 5.26293 7.23932 5.26293 6.80473C5.26293 6.22197 5.03143 5.66308 4.61936 5.25101C4.20728 4.83893 3.64839 4.60743 3.06563 4.60743ZM7.90128 9.42339C7.90707 9.48454 7.90003 9.54623 7.88061 9.60451C7.86118 9.66278 7.82979 9.71635 7.78845 9.76179C7.74712 9.80723 7.69675 9.84354 7.64057 9.86838C7.58439 9.89322 7.52364 9.90605 7.46221 9.90605C7.40078 9.90605 7.34003 9.89322 7.28385 9.86838C7.22767 9.84354 7.1773 9.80723 7.13596 9.76179C7.09463 9.71635 7.06324 9.66278 7.04381 9.60451C7.02438 9.54623 7.01734 9.48454 7.02314 9.42339V4.15064C7.0335 4.04137 7.08424 3.93988 7.16543 3.86602C7.24663 3.79216 7.35245 3.75123 7.46221 3.75123C7.57197 3.75123 7.67779 3.79216 7.75899 3.86602C7.84018 3.93988 7.89092 4.04137 7.90128 4.15064V4.26878C8.32829 3.8994 8.87644 3.70032 9.44097 3.7096C9.75919 3.70439 10.0751 3.76462 10.3691 3.88655C10.6631 4.00848 10.9289 4.18951 11.15 4.41841C11.2477 4.51591 11.3373 4.62127 11.4178 4.73344C11.5008 4.62215 11.5916 4.51688 11.6895 4.41841C12.0271 4.07996 12.4576 3.84937 12.9264 3.75587C13.3952 3.66238 13.8812 3.71019 14.3228 3.89324C14.7644 4.0763 15.1417 4.38635 15.4069 4.7841C15.6721 5.18185 15.8132 5.64938 15.8124 6.12743V9.42339C15.802 9.53266 15.7513 9.63414 15.6701 9.70801C15.5889 9.78187 15.4831 9.8228 15.3733 9.8228C15.2635 9.8228 15.1577 9.78187 15.0765 9.70801C14.9953 9.63414 14.9446 9.53266 14.9342 9.42339V6.12743C14.9143 5.73306 14.7435 5.36143 14.4574 5.08936C14.1712 4.81729 13.7914 4.66558 13.3965 4.66558C13.0016 4.66558 12.6219 4.81729 12.3357 5.08936C12.0495 5.36143 11.8788 5.73306 11.8588 6.12743V9.42339C11.8588 9.4818 11.8471 9.53962 11.8244 9.59343C11.8017 9.64725 11.7685 9.69597 11.7266 9.73671C11.6848 9.77746 11.6352 9.80941 11.5808 9.83067C11.5264 9.85193 11.4683 9.86206 11.4099 9.86049C11.3528 9.86161 11.2961 9.85101 11.2432 9.82933C11.1904 9.80766 11.1426 9.77537 11.1027 9.73448C11.0608 9.69436 11.0276 9.64603 11.0053 9.59249C10.9829 9.53897 10.9719 9.48139 10.9728 9.42339V6.12743C10.9745 5.92814 10.936 5.73055 10.8595 5.5465C10.7831 5.36245 10.6702 5.19574 10.5278 5.05634C10.3879 4.90862 10.2194 4.7909 10.0325 4.71034C9.84571 4.62978 9.64443 4.58807 9.44097 4.58774C9.0333 4.58878 8.64268 4.75146 8.35479 5.04009C8.06689 5.32873 7.90521 5.71976 7.90521 6.12743L7.90128 9.42339ZM21.9632 8.93903C21.5367 9.37453 20.9904 9.67345 20.3937 9.79785C19.797 9.92225 19.1767 9.86651 18.6117 9.63772C18.0467 9.40893 17.5625 9.0174 17.2204 8.51284C16.8784 8.00829 16.694 7.41348 16.6907 6.80392C16.6873 6.19437 16.8652 5.59758 17.2017 5.08932C17.5382 4.58106 18.0182 4.18427 18.5807 3.94932C19.1431 3.71437 19.7627 3.65187 20.3608 3.76974C20.9588 3.88762 21.5084 4.18056 21.9396 4.61137C22.2286 4.89369 22.4566 5.23221 22.6096 5.60606C22.7627 5.97991 22.8376 6.38116 22.8296 6.78505V9.42339C22.8296 9.48112 22.8181 9.53828 22.7959 9.59157C22.7737 9.64486 22.7412 9.69322 22.7002 9.73386C22.6591 9.7745 22.6105 9.80662 22.557 9.82835C22.5035 9.85008 22.4463 9.86101 22.3885 9.86049C22.3312 9.86311 22.2741 9.8532 22.221 9.83143C22.168 9.80967 22.1203 9.77658 22.0814 9.73448C22.0395 9.69436 22.0063 9.64603 21.9839 9.59249C21.9616 9.53897 21.9505 9.48139 21.9514 9.42339L21.9632 8.93903ZM19.7659 4.60743C19.2586 4.61184 18.7683 4.79171 18.3785 5.1165C17.9887 5.44129 17.7233 5.89098 17.6274 6.38923C17.5314 6.88748 17.6109 7.40357 17.8523 7.84989C18.0936 8.2962 18.482 8.64523 18.9515 8.83771C19.4209 9.0302 19.9426 9.05427 20.4278 8.90585C20.913 8.75743 21.3319 8.44566 21.6133 8.02347C21.8948 7.60129 22.0214 7.09471 21.9718 6.58975C21.9222 6.08478 21.6993 5.61255 21.3411 5.25323C21.1375 5.04251 20.8923 4.87632 20.6212 4.76516C20.3501 4.654 20.0589 4.60029 19.7659 4.60743ZM23.7195 4.15064C23.7205 4.03399 23.7673 3.92241 23.8498 3.83992C23.9323 3.75743 24.0439 3.71063 24.1606 3.7096C24.2185 3.70915 24.2759 3.72042 24.3294 3.74276C24.3829 3.76509 24.4312 3.79802 24.4716 3.83955C24.5123 3.88042 24.5444 3.92898 24.566 3.9824C24.5876 4.03581 24.5984 4.09301 24.5976 4.15064V4.50505C25.0022 4.11787 25.5115 3.858 26.0623 3.7577C26.6132 3.65741 27.1814 3.72109 27.6965 3.94085C28.2115 4.16061 28.6506 4.52678 28.9594 4.9939C29.2681 5.46102 29.4329 6.00852 29.4333 6.56847V9.42339C29.4333 9.48112 29.4219 9.53828 29.3997 9.59157C29.3774 9.64486 29.3449 9.69322 29.3039 9.73386C29.2629 9.7745 29.2142 9.80662 29.1607 9.82835C29.1073 9.85008 29.05 9.86101 28.9923 9.86049C28.935 9.86311 28.8778 9.8532 28.8248 9.83143C28.7717 9.80967 28.724 9.77658 28.6851 9.73448C28.6432 9.69436 28.61 9.64603 28.5877 9.59249C28.5653 9.53897 28.5542 9.48139 28.5552 9.42339V6.56847C28.5552 5.47572 27.6692 4.58971 26.5764 4.58971C25.4837 4.58971 24.5976 5.47572 24.5976 6.56847V9.42339C24.5984 9.48102 24.5876 9.53822 24.566 9.59163C24.5444 9.64505 24.5123 9.69361 24.4716 9.73448C24.431 9.77548 24.3825 9.8078 24.3291 9.82947C24.2756 9.85113 24.2182 9.86168 24.1606 9.86049C24.1028 9.86101 24.0456 9.85008 23.9921 9.82835C23.9386 9.80662 23.8899 9.7745 23.8489 9.73386C23.8079 9.69322 23.7754 9.64486 23.7532 9.59157C23.7309 9.53828 23.7195 9.48112 23.7195 9.42339V4.15064ZM35.5842 8.93903C35.3003 9.23453 34.9588 9.46873 34.5809 9.62721C34.203 9.78569 33.7966 9.86508 33.3869 9.86049C32.7788 9.85971 32.1846 9.67867 31.6793 9.34027C31.1741 9.00186 30.7805 8.52127 30.5483 7.95924C30.3162 7.39721 30.2558 6.77896 30.3749 6.18265C30.4941 5.58633 30.7873 5.03871 31.2175 4.60899C31.6478 4.17928 32.1958 3.88676 32.7923 3.76841C33.3887 3.65007 34.0069 3.7112 34.5686 3.94409C35.1304 4.17698 35.6105 4.57116 35.9482 5.07683C36.286 5.5825 36.4662 6.17695 36.4662 6.78505V9.42339C36.4662 9.54036 36.4198 9.65254 36.3371 9.73525C36.2544 9.81796 36.1422 9.86442 36.0252 9.86442C35.9082 9.86442 35.7961 9.81796 35.7134 9.73525C35.6306 9.65254 35.5842 9.54036 35.5842 9.42339V8.93903ZM33.3869 4.60743C32.8795 4.61184 32.3893 4.79171 31.9994 5.1165C31.6096 5.44129 31.3442 5.89098 31.2483 6.38923C31.1524 6.88748 31.2318 7.40357 31.4732 7.84989C31.7145 8.2962 32.1029 8.64523 32.5724 8.83771C33.0419 9.0302 33.5635 9.05427 34.0487 8.90585C34.5339 8.75743 34.9528 8.44566 35.2342 8.02347C35.5157 7.60129 35.6424 7.09471 35.5927 6.58975C35.5431 6.08478 35.3203 5.61255 34.962 5.25323C34.7588 5.04193 34.5138 4.87535 34.2426 4.76415C33.9713 4.65294 33.6799 4.59957 33.3869 4.60743ZM75.9902 1.56349C75.9902 1.74463 75.8957 1.83126 75.7106 1.83126H74.3481H74.1512C74.0932 1.81894 74.0418 1.78557 74.0069 1.73758C73.972 1.68959 73.9561 1.63038 73.9622 1.57137C73.9622 1.40204 74.0843 1.31541 74.3205 1.30359H74.3481L74.2694 1.15002C74.2388 1.06402 74.2228 0.973514 74.2221 0.882247C74.2184 0.767068 74.238 0.652326 74.2798 0.544922C74.3215 0.437519 74.3846 0.339673 74.4652 0.257272C74.5457 0.174871 74.6421 0.109616 74.7486 0.0654333C74.855 0.0212506 74.9693 -0.000947308 75.0845 0.00017496H75.1199C75.3044 -0.00361956 75.4849 0.0544021 75.6326 0.165006C75.7803 0.275609 75.8868 0.432439 75.9351 0.610538C75.9351 0.807429 75.8563 0.905875 75.6948 0.905875C75.6264 0.907401 75.5596 0.885131 75.5058 0.84287C75.4745 0.802603 75.4456 0.760526 75.4192 0.716859L75.3483 0.6066C75.3235 0.5797 75.2924 0.559401 75.2578 0.547533C75.2052 0.526578 75.1488 0.517176 75.0924 0.519968C75.0403 0.515553 74.9879 0.524018 74.9398 0.544619C74.8917 0.565219 74.8495 0.597323 74.8167 0.638103C74.7566 0.717285 74.7247 0.814329 74.7261 0.91375C74.7239 0.998065 74.7487 1.08089 74.797 1.15002C74.8197 1.18449 74.8492 1.21397 74.8837 1.23665C74.9078 1.25561 74.9343 1.27148 74.9624 1.28391H75.0372H75.0845H75.7106C75.7483 1.27798 75.7869 1.28099 75.8233 1.29268C75.8596 1.30437 75.8927 1.32443 75.9199 1.35124C75.9471 1.37804 75.9676 1.41086 75.9798 1.44704C75.992 1.48321 75.9956 1.52175 75.9902 1.55955M45.6689 8.34442C45.4657 8.14775 45.3041 7.91216 45.1938 7.65169C45.0835 7.39122 45.0268 7.11121 45.0271 6.82836V6.78505C45.0261 6.04089 44.7556 5.32227 44.2657 4.76211C43.7758 4.20194 43.0997 3.83812 42.3623 3.73794C41.6249 3.63775 40.8762 3.80798 40.2546 4.21713C39.633 4.62629 39.1806 5.24669 38.9811 5.9636C38.7816 6.6805 38.8484 7.44542 39.1692 8.11687C39.49 8.78832 40.0431 9.32088 40.7263 9.61605C41.4094 9.91123 42.1763 9.94904 42.8851 9.72251C43.5939 9.49598 44.1968 9.02043 44.5821 8.3838C44.7136 8.59562 44.8696 8.79123 45.0468 8.9666C45.3308 9.26062 45.6727 9.49256 46.0509 9.64777C46.4291 9.80298 46.8354 9.87809 47.2441 9.86836V8.99417C46.9514 9.00205 46.6603 8.94907 46.3891 8.83858C46.118 8.72809 45.8728 8.5625 45.6689 8.3523M41.9516 8.99417C41.5161 8.99494 41.0901 8.86651 40.7276 8.6251C40.3651 8.3837 40.0824 8.04019 39.9151 7.63803C39.7479 7.23588 39.7038 6.79316 39.7883 6.3659C39.8728 5.93864 40.0821 5.54605 40.3898 5.2378C40.6975 4.92956 41.0897 4.71952 41.5168 4.63427C41.9439 4.54901 42.3867 4.59237 42.7892 4.75886C43.1916 4.92535 43.5356 5.20749 43.7777 5.56957C44.0197 5.93165 44.1489 6.35739 44.1489 6.79292C44.1495 7.08181 44.093 7.36796 43.9828 7.635C43.8726 7.90205 43.7108 8.14474 43.5068 8.3492C43.3027 8.55365 43.0603 8.71586 42.7934 8.82653C42.5266 8.9372 42.2405 8.99417 41.9516 8.99417ZM65.3581 8.99417V9.87624C65.7634 9.88277 66.1658 9.80612 66.5403 9.65102C66.9149 9.49592 67.2536 9.26566 67.5357 8.97447C67.7117 8.79807 67.8676 8.6026 68.0003 8.39168C68.386 9.02934 68.9895 9.50575 69.6993 9.73279C70.4091 9.95983 71.1771 9.92213 71.8612 9.62666C72.5453 9.33119 73.0993 8.79796 73.4206 8.12559C73.742 7.45323 73.8089 6.68724 73.6091 5.96932C73.4093 5.2514 72.9562 4.63014 72.3337 4.22047C71.7112 3.8108 70.9614 3.64043 70.223 3.74089C69.4846 3.84135 68.8076 4.20583 68.3172 4.76692C67.8267 5.328 67.5561 6.04772 67.5554 6.79292V6.83624C67.5461 7.41247 67.3103 7.96189 66.8991 8.3657C66.488 8.76952 65.9344 8.99528 65.3581 8.99417ZM68.4374 6.79292C68.4374 6.35722 68.5667 5.93132 68.809 5.56916C69.0512 5.207 69.3955 4.92487 69.7981 4.75849C70.2008 4.59212 70.6438 4.54899 71.071 4.63457C71.4982 4.72014 71.8904 4.93058 72.198 5.23921C72.5055 5.54785 72.7145 5.94081 72.7986 6.36833C72.8826 6.79585 72.8379 7.23869 72.6701 7.64077C72.5023 8.04286 72.2189 8.3861 71.8559 8.62702C71.4929 8.86795 71.0665 8.99572 70.6308 8.99417C70.3416 8.99468 70.0551 8.9381 69.7878 8.82766C69.5205 8.71722 69.2776 8.5551 69.0731 8.35059C68.8686 8.14608 68.7065 7.90321 68.5961 7.63591C68.4856 7.36861 68.429 7.08214 68.4296 6.79292" fill="#54565A"/>
<path d="M58.0219 4.56802C57.9815 4.52648 57.9331 4.49355 57.8797 4.47122C57.8262 4.44889 57.7688 4.43761 57.7108 4.43807C57.5942 4.4391 57.4826 4.48589 57.4001 4.56838C57.3176 4.65087 57.2708 4.76245 57.2698 4.87911V7.44657C57.2708 7.64942 57.2318 7.85049 57.1549 8.0382C57.078 8.22591 56.9647 8.39658 56.8216 8.54039C56.6786 8.6842 56.5085 8.79831 56.3212 8.87618C56.1338 8.95405 55.933 8.99414 55.7301 8.99413H47.0669V9.8762H55.7301C56.3721 9.87516 56.9875 9.61968 57.4414 9.16574C57.8954 8.71179 58.1508 8.09641 58.1519 7.45444V4.87911C58.1528 4.8211 58.1417 4.76353 58.1194 4.71C58.097 4.65647 58.0638 4.60813 58.0219 4.56802ZM75.2893 2.12263C75.2063 2.04127 75.0944 1.99598 74.9782 1.99662C74.9206 1.99587 74.8634 2.00663 74.81 2.02827C74.7565 2.04991 74.708 2.08199 74.6671 2.12263C74.6256 2.16303 74.5927 2.21142 74.5703 2.26488C74.548 2.31834 74.5367 2.37578 74.5372 2.43372V9.42729C74.5382 9.54394 74.585 9.65553 74.6675 9.73802C74.75 9.8205 74.8615 9.8673 74.9782 9.86833C75.0361 9.86879 75.0936 9.85751 75.147 9.83518C75.2005 9.81284 75.2489 9.77992 75.2893 9.73838C75.3307 9.69807 75.3633 9.64961 75.3849 9.59606C75.4066 9.54251 75.417 9.48504 75.4153 9.42729V2.43372C75.4165 2.37603 75.4059 2.3187 75.3843 2.26522C75.3626 2.21173 75.3303 2.16322 75.2893 2.12263ZM65.5077 8.99413H61.5463C61.3438 8.99518 61.1431 8.95606 60.9558 8.87906C60.7686 8.80205 60.5984 8.68868 60.4552 8.54549C60.312 8.40231 60.1987 8.23216 60.1217 8.04489C60.0447 7.85761 60.0056 7.65693 60.0066 7.45444V2.43372C60.0071 2.37578 59.9958 2.31834 59.9734 2.26488C59.9511 2.21142 59.9182 2.16303 59.8766 2.12263C59.793 2.04225 59.6815 1.99736 59.5656 1.99736C59.4496 1.99736 59.3381 2.04225 59.2545 2.12263C59.2129 2.16303 59.18 2.21142 59.1577 2.26488C59.1353 2.31834 59.1241 2.37578 59.1245 2.43372V7.44657C59.1245 8.08886 59.3797 8.70484 59.8338 9.15901C60.288 9.61318 60.904 9.86833 61.5463 9.86833H65.5077V8.99413ZM58.1519 3.43392C58.1519 3.57514 58.1029 3.71198 58.0133 3.82114C57.9238 3.9303 57.7991 4.00502 57.6606 4.03257C57.5221 4.06012 57.3783 4.0388 57.2538 3.97223C57.1293 3.90567 57.0317 3.79798 56.9776 3.66752C56.9236 3.53706 56.9164 3.3919 56.9574 3.25677C56.9984 3.12164 57.085 3.0049 57.2024 2.92644C57.3198 2.84799 57.4608 2.81267 57.6013 2.82651C57.7419 2.84035 57.8732 2.90249 57.9731 3.00234C58.0876 3.1168 58.1519 3.27205 58.1519 3.43392ZM43.5859 2.82356C43.5866 2.94444 43.5515 3.06284 43.4849 3.16373C43.4183 3.26462 43.3233 3.34346 43.2118 3.39026C43.1004 3.43706 42.9775 3.44972 42.8589 3.42661C42.7402 3.40351 42.6311 3.34569 42.5453 3.26049C42.4596 3.17528 42.401 3.06654 42.3772 2.94803C42.3533 2.82953 42.3652 2.7066 42.4112 2.59484C42.4573 2.48308 42.5355 2.38752 42.636 2.32028C42.7365 2.25304 42.8546 2.21714 42.9755 2.21714C43.1367 2.21713 43.2914 2.2809 43.4057 2.39451C43.5201 2.50813 43.5848 2.66237 43.5859 2.82356ZM42.1801 2.82356C42.1808 2.94461 42.1456 3.06316 42.0788 3.16413C42.0121 3.26511 41.9168 3.34395 41.8051 3.39063C41.6934 3.43732 41.5704 3.44974 41.4516 3.42631C41.3328 3.40289 41.2237 3.34468 41.1381 3.25908C41.0525 3.17348 40.9943 3.06436 40.9709 2.9456C40.9475 2.82684 40.9599 2.70379 41.0066 2.5921C41.0533 2.48041 41.1321 2.38513 41.2331 2.31836C41.334 2.25159 41.4526 2.21636 41.5736 2.21714C41.7342 2.21817 41.8878 2.28239 42.0013 2.3959C42.1148 2.5094 42.179 2.66305 42.1801 2.82356Z" fill="#54565A"/>
</svg>
