<svg width="17" height="22" viewBox="0 0 17 22" fill="none" xmlns="http://www.w3.org/2000/svg">
<path d="M2.72571 11.4354C2.37044 11.2421 2.08519 10.9417 1.91058 10.5769C1.90634 10.5648 1.89828 10.5545 1.88763 10.5474C1.87697 10.5403 1.8643 10.5368 1.85152 10.5375C1.83908 10.5383 1.82707 10.5424 1.8167 10.5493C1.80633 10.5562 1.79796 10.5657 1.79245 10.5769C1.61887 10.9411 1.33507 11.2415 0.981257 11.4354C0.684822 11.5936 0.436949 11.8294 0.26412 12.1176C0.0912912 12.4058 0 12.7355 0 13.0715C0 13.4076 0.0912912 13.7373 0.26412 14.0255C0.436949 14.3136 0.684822 14.5495 0.981257 14.7077C1.33562 14.8991 1.61977 15.1984 1.79245 15.5622C1.79873 15.5724 1.80738 15.581 1.81766 15.5871C1.82794 15.5933 1.83955 15.5969 1.85152 15.5977C1.86416 15.5975 1.87656 15.5942 1.88758 15.588C1.8986 15.5818 1.90787 15.573 1.91452 15.5622C2.08548 15.1975 2.36826 14.8968 2.72177 14.7038C3.01711 14.5446 3.26386 14.3085 3.43584 14.0204C3.60783 13.7323 3.69864 13.4031 3.69864 13.0676C3.69864 12.7321 3.60783 12.4029 3.43584 12.1148C3.26386 11.8267 3.01711 11.5906 2.72177 11.4314M6.99038 11.4275C6.63549 11.2374 6.35009 10.9396 6.17525 10.5769C6.16973 10.5657 6.16137 10.5562 6.151 10.5493C6.14063 10.5424 6.12862 10.5383 6.11618 10.5375C6.1034 10.5368 6.09072 10.5403 6.08007 10.5474C6.06942 10.5545 6.06136 10.5648 6.05711 10.5769C5.88615 10.9416 5.60337 11.2423 5.24986 11.4354C4.95342 11.5936 4.70555 11.8294 4.53272 12.1176C4.35989 12.4058 4.2686 12.7355 4.2686 13.0715C4.2686 13.4076 4.35989 13.7373 4.53272 14.0255C4.70555 14.3136 4.95342 14.5495 5.24986 14.7077C5.60422 14.8991 5.88837 15.1984 6.06105 15.5622C6.06734 15.5724 6.07598 15.581 6.08626 15.5871C6.09654 15.5933 6.10815 15.5969 6.12012 15.5977C6.13234 15.5981 6.14443 15.595 6.15492 15.5887C6.16541 15.5824 6.17384 15.5732 6.17918 15.5622C6.35048 15.1964 6.63488 14.8955 6.99038 14.7038C7.28571 14.5446 7.53246 14.3085 7.70445 14.0204C7.87643 13.7323 7.96724 13.4031 7.96724 13.0676C7.96724 12.7321 7.87643 12.4029 7.70445 12.1148C7.53246 11.8267 7.28571 11.5906 6.99038 11.4314M11.2511 11.4196C10.8994 11.2303 10.6157 10.9356 10.4399 10.5769C10.4341 10.5652 10.4251 10.5553 10.414 10.5483C10.4029 10.5414 10.39 10.5376 10.3769 10.5375C10.3645 10.5383 10.3525 10.5424 10.3421 10.5493C10.3317 10.5562 10.3234 10.5657 10.3178 10.5769C10.1454 10.9419 9.86129 11.2426 9.50664 11.4354C9.21131 11.5945 8.96456 11.8307 8.79258 12.1187C8.62059 12.4068 8.52978 12.736 8.52978 13.0715C8.52978 13.407 8.62059 13.7363 8.79258 14.0243C8.96456 14.3124 9.21131 14.5485 9.50664 14.7077C9.86273 14.8968 10.1475 15.1968 10.3178 15.5622C10.3245 15.573 10.3338 15.5818 10.3448 15.588C10.3558 15.5942 10.3682 15.5975 10.3808 15.5977C10.3928 15.5969 10.4044 15.5933 10.4147 15.5871C10.425 15.581 10.4336 15.5724 10.4399 15.5622C10.6112 15.1964 10.8956 14.8955 11.2511 14.7038C11.5475 14.5455 11.7954 14.3097 11.9682 14.0215C12.1411 13.7333 12.2324 13.4036 12.2324 13.0676C12.2324 12.7316 12.1411 12.4019 11.9682 12.1137C11.7954 11.8255 11.5475 11.5897 11.2511 11.4314M15.5158 11.4117C15.1641 11.2247 14.8793 10.933 14.7006 10.5769C14.6962 10.5649 14.6881 10.5545 14.6775 10.5471C14.667 10.5398 14.6544 10.5358 14.6416 10.5358C14.6287 10.5358 14.6162 10.5398 14.6056 10.5471C14.595 10.5545 14.587 10.5649 14.5825 10.5769C14.4167 10.9387 14.1411 11.2391 13.7949 11.4354C13.4985 11.5936 13.2506 11.8294 13.0778 12.1176C12.905 12.4058 12.8137 12.7355 12.8137 13.0715C12.8137 13.4076 12.905 13.7373 13.0778 14.0255C13.2506 14.3136 13.4985 14.5495 13.7949 14.7077C14.1345 14.8991 14.4068 15.1906 14.5746 15.5425C14.5809 15.5527 14.5896 15.5613 14.5998 15.5674C14.6101 15.5736 14.6217 15.5772 14.6337 15.578C14.6463 15.5779 14.6587 15.5746 14.6698 15.5684C14.6808 15.5622 14.69 15.5533 14.6967 15.5425C14.8602 15.1792 15.1364 14.8782 15.4843 14.6841C15.7796 14.5249 16.0263 14.2888 16.1983 14.0007C16.3703 13.7126 16.4611 13.3834 16.4611 13.0479C16.4611 12.7124 16.3703 12.3832 16.1983 12.0951C16.0263 11.8071 15.7796 11.5709 15.4843 11.4117M4.85214 7.92283C4.49552 7.73135 4.20979 7.43043 4.03701 7.06439C4.0313 7.05368 4.02279 7.04473 4.01238 7.03849C4.00198 7.03224 3.99007 7.02895 3.97794 7.02895C3.96572 7.02848 3.95362 7.03159 3.94314 7.03788C3.93265 7.04417 3.92422 7.05338 3.91887 7.06439C3.74665 7.43052 3.4626 7.73249 3.10768 7.92677C2.81223 8.08535 2.56529 8.32107 2.39315 8.60883C2.22101 8.8966 2.1301 9.22565 2.1301 9.56097C2.1301 9.89629 2.22101 10.2253 2.39315 10.5131C2.56529 10.8009 2.81223 11.0366 3.10768 11.1952C3.47078 11.3844 3.76345 11.6854 3.9425 12.0536C3.94821 12.0643 3.95672 12.0733 3.96713 12.0795C3.97753 12.0858 3.98943 12.0891 4.00157 12.0891C4.0137 12.0891 4.02561 12.0858 4.03601 12.0795C4.04641 12.0733 4.05493 12.0643 4.06064 12.0536C4.23285 11.6875 4.51691 11.3855 4.87183 11.1912C5.16728 11.0326 5.41422 10.7969 5.58636 10.5092C5.7585 10.2214 5.84941 9.89235 5.84941 9.55703C5.84941 9.22171 5.7585 8.89266 5.58636 8.60489C5.41422 8.31713 5.16728 8.08141 4.87183 7.92283M13.3933 7.90708C13.0292 7.71308 12.7377 7.40638 12.5624 7.03288C12.5561 7.02268 12.5475 7.01413 12.5372 7.00796C12.5269 7.00179 12.5153 6.99819 12.5033 6.99744C12.4912 6.99744 12.4793 7.00074 12.4689 7.00698C12.4585 7.01323 12.45 7.02218 12.4443 7.03288C12.272 7.39902 11.988 7.70099 11.6331 7.89527C11.3365 8.05292 11.0884 8.28831 10.9155 8.57619C10.7425 8.86407 10.6511 9.1936 10.6511 9.52946C10.6511 9.86533 10.7425 10.1949 10.9155 10.4827C11.0884 10.7706 11.3365 11.006 11.6331 11.1637C11.9877 11.3565 12.2718 11.6571 12.4443 12.0221C12.4505 12.0323 12.4592 12.0409 12.4695 12.047C12.4798 12.0532 12.4914 12.0568 12.5033 12.0575C12.5156 12.058 12.5276 12.0549 12.5381 12.0486C12.5486 12.0423 12.5571 12.0331 12.5624 12.0221C12.7425 11.6589 13.0335 11.3623 13.3933 11.1755C13.6887 11.0169 13.9357 10.7812 14.1078 10.4934C14.2799 10.2057 14.3709 9.8766 14.3709 9.54128C14.3709 9.20596 14.2799 8.87691 14.1078 8.58914C13.9357 8.30138 13.6887 8.06566 13.3933 7.90708ZM6.97462 4.41029C6.61998 4.21748 6.33588 3.91683 6.16343 3.55185C6.15678 3.5411 6.14751 3.53221 6.13649 3.52601C6.12548 3.51982 6.11307 3.51651 6.10043 3.51641C6.08846 3.51715 6.07685 3.52076 6.06657 3.52693C6.05629 3.53309 6.04765 3.54164 6.04136 3.55185C5.87444 3.91391 5.59926 4.21523 5.2538 4.41423C4.95834 4.57281 4.71141 4.80853 4.53927 5.09629C4.36712 5.38406 4.27622 5.71311 4.27622 6.04843C4.27622 6.38375 4.36712 6.7128 4.53927 7.00057C4.71141 7.28833 4.95834 7.52404 5.2538 7.68263C5.60844 7.87544 5.89254 8.17609 6.06499 8.54107C6.06923 8.55315 6.07729 8.56352 6.08795 8.57062C6.0986 8.57773 6.11127 8.58117 6.12405 8.58045C6.13649 8.57966 6.1485 8.5756 6.15887 8.56869C6.16924 8.56177 6.17761 8.55225 6.18312 8.54107C6.35534 8.17494 6.63939 7.87296 6.99431 7.67869C7.29087 7.52103 7.53894 7.28565 7.71193 6.99776C7.88492 6.70988 7.97631 6.38035 7.97631 6.04449C7.97631 5.70863 7.88492 5.3791 7.71193 5.09122C7.53894 4.80333 7.29087 4.56795 6.99431 4.41029M11.2393 4.40242C10.8826 4.20924 10.5969 3.90707 10.4242 3.54003C10.4188 3.52903 10.4104 3.51982 10.3999 3.51353C10.3894 3.50723 10.3773 3.50413 10.3651 3.50459C10.3528 3.50358 10.3405 3.50645 10.3299 3.51281C10.3193 3.51917 10.3109 3.52869 10.306 3.54003C10.1347 3.9058 9.85033 4.20677 9.49483 4.39848C9.1984 4.55673 8.95052 4.79254 8.77769 5.08072C8.60487 5.3689 8.51357 5.69862 8.51357 6.03465C8.51357 6.37068 8.60487 6.70039 8.77769 6.98857C8.95052 7.27675 9.1984 7.51256 9.49483 7.67081C9.84947 7.86363 10.1336 8.16428 10.306 8.52926C10.3115 8.54043 10.3199 8.54996 10.3303 8.55687C10.3406 8.56379 10.3527 8.56784 10.3651 8.56864C10.3782 8.56854 10.391 8.56482 10.4022 8.55786C10.4133 8.55091 10.4223 8.54101 10.4281 8.52926C10.5925 8.16556 10.8683 7.86356 11.2157 7.66687C11.5111 7.50829 11.758 7.27258 11.9302 6.98481C12.1023 6.69705 12.1932 6.368 12.1932 6.03268C12.1932 5.69735 12.1023 5.3683 11.9302 5.08054C11.758 4.79277 11.5111 4.55706 11.2157 4.39848" fill="#00609C"/>
<path d="M9.10109 0.893931C8.74007 0.704461 8.44999 0.403333 8.27415 0.0354858C8.26844 0.0247802 8.25992 0.0158276 8.24952 0.00958521C8.23912 0.00334282 8.22721 4.53559e-05 8.21508 4.53559e-05C8.20286 -0.000418623 8.19076 0.00268542 8.18027 0.0089787C8.16978 0.015272 8.16136 0.0244823 8.15601 0.0354858C7.98379 0.401618 7.69974 0.703594 7.34482 0.897869C7.04839 1.05612 6.80051 1.29193 6.62768 1.58011C6.45485 1.86829 6.36356 2.198 6.36356 2.53404C6.36356 2.87007 6.45485 3.19978 6.62768 3.48796C6.80051 3.77614 7.04839 4.01195 7.34482 4.1702C7.70004 4.36044 7.98449 4.66008 8.15601 5.02471C8.1623 5.03492 8.17095 5.04346 8.18122 5.04963C8.1915 5.0558 8.20312 5.05941 8.21508 5.06015C8.22772 5.06005 8.24013 5.05674 8.25115 5.05054C8.26216 5.04435 8.27143 5.03546 8.27808 5.02471C8.44789 4.65922 8.73097 4.35819 9.08534 4.16626C9.38068 4.0071 9.62742 3.77096 9.79941 3.4829C9.97139 3.19484 10.0622 2.86559 10.0622 2.5301C10.0622 2.1946 9.97139 1.86536 9.79941 1.5773C9.62742 1.28924 9.38068 1.0531 9.08534 0.893931M3.27311 17.0036H3.91891V19.4962C3.92828 19.7531 3.90312 20.01 3.84409 20.2602C3.80527 20.412 3.74281 20.5569 3.65902 20.6894C3.58222 20.8043 3.4894 20.9078 3.38337 20.9965C2.98168 21.3088 2.48194 21.468 1.97363 21.4454C1.46203 21.4702 0.958251 21.3125 0.552074 21.0005C0.445971 20.9118 0.353142 20.8084 0.276426 20.6933C0.194027 20.5629 0.131641 20.4209 0.0913487 20.272C0.0323885 20.0138 0.00723826 19.7491 0.01653 19.4844V17.0075H0.666271V19.5002C0.643413 19.7943 0.694869 20.0895 0.815908 20.3586C0.921958 20.5325 1.07858 20.6699 1.26482 20.7524C1.48586 20.8532 1.72678 20.903 1.96969 20.8981C2.30902 20.9091 2.6421 20.805 2.91477 20.6027C3.0403 20.4986 3.1355 20.3626 3.19042 20.209C3.25779 19.9723 3.28573 19.7262 3.27311 19.4805V17.0036ZM10.2431 20.3586V21.0517C9.73626 21.3155 9.17235 21.4508 8.60099 21.4454C8.15352 21.4592 7.71006 21.3575 7.31332 21.1501C6.9662 20.9596 6.67654 20.6795 6.47456 20.3389C6.27191 19.9998 6.16571 19.6117 6.16741 19.2166C6.16196 18.913 6.22171 18.6118 6.34263 18.3333C6.46355 18.0548 6.64282 17.8054 6.86834 17.6021C7.33958 17.1653 7.96255 16.9294 8.60492 16.9445C9.14843 16.9625 9.68331 17.0855 10.1801 17.3068V17.9762C9.72031 17.7057 9.20091 17.5529 8.66793 17.5312C8.1914 17.5179 7.72831 17.6902 7.37632 18.0117C7.2126 18.1614 7.08237 18.344 6.99415 18.5476C6.90593 18.7512 6.86172 18.9711 6.86441 19.193C6.85892 19.4149 6.90148 19.6353 6.98916 19.8392C7.07684 20.0431 7.20757 20.2257 7.37239 20.3743C7.72447 20.6983 8.18978 20.8708 8.66793 20.8548C9.22936 20.8419 9.77559 20.6698 10.2431 20.3586ZM14.9684 19.5041L14.2321 17.929L13.5548 19.5041H14.9684ZM13.9958 16.9603H14.4605L16.4963 21.3627H15.8426L15.2362 20.0751H13.3027L12.7436 21.3667H12.0781L13.9958 16.9603Z" fill="#00609C"/>
</svg>
