<svg width="51" height="76" viewBox="0 0 51 76" fill="none" xmlns="http://www.w3.org/2000/svg">
<path d="M25.2624 45.1001C37.8927 45.1001 48.1316 35.0041 48.1316 22.55C48.1316 10.096 37.8927 0 25.2624 0C12.6322 0 2.39331 10.096 2.39331 22.55C2.39331 35.0041 12.6322 45.1001 25.2624 45.1001Z" fill="#CACBCC"/>
<path d="M25.3156 21.1674C34.0687 21.1674 41.1645 16.6908 41.1645 11.1688C41.1645 5.64669 34.0687 1.17017 25.3156 1.17017C16.5626 1.17017 9.4668 5.64669 9.4668 11.1688C9.4668 16.6908 16.5626 21.1674 25.3156 21.1674Z" fill="#E8F4FD"/>
<path d="M25.9007 42.6004C21.4864 42.6004 17.1253 41.1645 13.5619 38.5053C11.3814 36.9097 9.57315 34.8356 8.24355 32.4955C6.86076 30.049 5.95663 27.3898 5.58434 24.6242C5.21206 21.965 5.42479 19.1994 6.11618 16.5934C7.44579 11.6473 10.69 7.39258 15.1575 4.89294C16.3807 4.25473 17.6571 3.72289 18.9867 3.29741C21.0609 2.65921 24.1988 2.021 27.1771 2.71239L27.2834 2.76557H27.1771C24.8902 2.92513 22.6564 3.56333 20.6354 4.57383C16.753 6.64801 13.8279 10.2645 12.6578 14.5192C11.4346 19.0931 12.2323 24.1987 14.8916 28.8789C19.944 37.5479 31.0063 40.2603 40.1008 35.1015L42.8132 33.6123L42.76 33.7187C40.739 36.4843 39.5689 38.0266 36.0056 39.9944C33.6655 41.324 31.0595 42.1749 28.3471 42.4941C27.4962 42.5472 26.6984 42.6004 25.9007 42.6004ZM24.3583 2.44647C22.5501 2.44647 20.7418 2.76557 18.9867 3.29741C17.6571 3.72289 16.3807 4.25473 15.1575 4.89294C10.7432 7.44577 7.49897 11.6473 6.16937 16.5934C4.7334 21.965 5.53116 27.6557 8.29673 32.4423C13.9342 42.0686 26.2729 45.366 35.9524 39.888C39.4626 37.867 40.6858 36.3779 42.6536 33.6655L40.154 35.1015C35.8992 37.5479 30.8999 38.3457 26.1134 37.2288C21.38 36.112 17.338 33.0805 14.9447 28.8789C12.2323 24.1987 11.4346 19.0931 12.711 14.5192C13.8811 10.2645 16.8062 6.64801 20.6886 4.57383C22.7096 3.56333 24.8902 2.92513 27.1239 2.76557C26.1666 2.55284 25.2624 2.44647 24.3583 2.44647Z" fill="#28377B"/>
<path d="M11.5941 21.6991C10.3709 12.3918 14.9447 5.74384 23.2946 2.97827C12.8705 3.77603 6.16931 12.0727 6.16931 22.4968C6.2225 33.2932 15.051 42.0685 25.8474 42.0154C30.7935 42.0154 36.7501 39.7284 40.4198 35.7928C36.9097 37.4415 32.9209 38.5584 28.9321 38.3457C20.4226 37.867 12.8173 30.8999 11.5941 21.6991Z" fill="#4A5565"/>
<path d="M28.5067 17.3379C28.5067 17.3379 27.9748 18.1357 27.8153 18.4016C27.7621 18.4548 27.7621 18.508 27.7089 18.5611L26.3793 17.8698L26.3261 17.9761C26.3261 17.9761 25.7943 18.7739 25.6347 19.0398C25.4752 19.3057 25.4752 19.3589 25.5815 19.4121C25.6879 19.4653 26.4325 19.7844 26.592 19.8907C26.6984 19.9439 26.8048 19.9971 26.9111 20.0503C26.9111 20.0503 27.2302 19.6248 27.4962 19.2525C27.6025 19.093 27.6557 18.9866 27.7621 18.8271C27.8684 18.8803 28.613 19.1994 28.7726 19.3057C28.8789 19.3589 28.9853 19.4121 29.0917 19.4653C29.0917 19.4653 29.4108 19.0398 29.6767 18.6675C29.8363 18.508 29.9426 18.2952 29.9958 18.0293L28.613 17.3379H28.5067ZM32.8677 31.2721C32.8146 31.1126 32.7082 30.953 32.655 30.8467C32.0168 29.3575 29.8363 28.7725 28.5598 28.932C24.7306 29.1448 22.2841 29.7298 20.529 29.6766C18.3485 29.6234 17.4976 28.932 16.9657 27.9747C18.189 32.1231 24.8901 30.6871 27.9216 30.2085C31.0063 29.8893 32.4955 30.8467 32.8677 31.2721ZM27.5493 27.5492C33.1869 27.1238 33.7719 30.7403 34.0378 31.9635C34.1442 27.9215 31.7509 25.3155 24.3051 26.2728C16.8594 27.2301 15.5297 25.0496 14.8915 24.0923C14.8915 24.0923 14.5724 23.9327 14.6788 24.1455L14.9979 24.9964C16.9657 28.932 21.9118 27.9747 27.5493 27.5492ZM32.7614 6.80747C32.9741 7.12658 33.3996 7.28613 33.7187 7.07339C33.7719 7.02021 33.8782 6.96703 33.9314 6.91384C34.091 6.75429 34.1442 6.80747 34.2505 6.91384C34.3569 7.02021 34.2505 7.55205 34.091 8.08389C33.9314 8.56255 33.7187 9.0412 33.506 9.51986C33.506 9.51986 33.7187 9.41349 33.8782 9.25394C34.5165 8.56255 34.7824 7.60523 34.6228 6.7011C34.5165 6.0629 33.9846 5.42469 33.5591 5.79698C33.1337 6.16926 32.8677 6.0629 32.7614 5.85016C32.655 5.63742 32.9741 5.42469 33.1869 5.31832C33.0273 4.99922 32.9209 4.62693 32.8677 4.25464C32.5486 4.25464 32.2827 4.41419 32.2295 4.73329C32.1764 5.47787 32.3359 6.16926 32.7614 6.80747ZM19.2526 18.7207L18.5612 19.7844C18.4017 20.0503 18.4017 20.1035 18.5081 20.1567C18.6144 20.2099 19.359 20.529 19.5186 20.6353C19.6249 20.6885 19.7313 20.7417 19.8377 20.7949C19.8377 20.7949 20.1568 20.3694 20.4227 19.9971C20.5822 19.8376 20.6886 19.6248 20.7418 19.3589L19.359 18.6675L19.2526 18.7207ZM34.9951 5.10558C35.8992 5.74379 36.7502 6.48837 37.4948 7.33931C37.3352 7.28613 37.1225 7.28613 36.9629 7.3925C36.3779 7.92434 36.1652 8.77528 36.4843 9.46667C36.4843 9.46667 36.5906 10.3176 40.0476 14.0405C42.4409 16.5933 42.175 18.2952 42.175 18.2952C42.175 18.2952 41.4304 23.8264 36.9629 24.1987C37.3352 24.305 37.7607 24.3582 38.1862 24.3582C38.9839 24.305 39.7285 23.8796 40.2071 23.2413C40.6858 22.7627 42.5472 20.263 42.4941 17.9761C42.7068 20.9544 42.2281 23.9327 41.1113 26.6983C41.0581 26.8579 41.0049 27.0706 40.8985 27.2301C40.0476 29.4639 38.3457 30.953 36.2183 32.0699C36.3247 30.8467 36.3779 28.347 35.5801 27.0174C34.2505 24.8369 31.9104 23.4541 29.3576 23.2413C26.4325 23.0818 26.3793 23.2945 22.8691 23.6668C20.1568 23.9327 16.4339 23.6668 15.1043 21.1672C15.4766 18.6143 16.6998 17.657 18.3485 16.3806C19.9972 15.2637 21.2204 14.6255 21.8055 14.1469C21.8055 14.1469 21.4332 16.0083 21.8587 17.072C22.1778 17.7634 22.8691 18.1357 23.6137 18.0293C23.8796 17.9229 25.3156 17.6038 26.0602 15.5297C26.2197 15.051 26.4857 14.0937 26.9111 14.2532C27.1239 14.3596 27.1239 15.2106 27.1239 15.2106C27.1771 15.5828 27.6025 15.8488 27.9748 15.7956C28.028 15.7956 28.0812 15.7424 28.1344 15.7424C29.0385 15.5297 29.1449 14.7851 29.4108 14.3064C29.5172 14.3596 29.6767 14.5723 29.8894 14.5192C30.1022 14.466 30.4213 14.466 30.8999 13.2427C30.9531 13.1896 31.1127 13.3491 31.2722 13.2959C31.4318 13.2427 32.2295 13.0832 32.3359 11.4345C32.3891 10.9558 32.3891 10.4772 32.3359 10.0517C32.3359 10.0517 32.2295 9.89215 32.1764 10.1049C32.1232 10.4772 32.0168 11.7004 31.1659 11.6472C31.1659 11.5409 31.1127 11.2217 31.1127 11.2217C31.1127 11.2217 30.8468 11.2217 30.8468 11.4345C30.8468 11.6472 30.4213 13.0832 29.5703 12.8705C29.5703 12.6577 29.5703 12.3386 29.5703 12.2854C29.5703 12.2322 29.464 12.0727 29.4108 12.2854C29.3576 12.4982 28.8789 14.2532 27.7089 14.0937C27.443 14.0405 27.3366 13.615 27.3366 13.615L27.2834 12.9236C27.2834 12.9236 27.1239 12.3386 26.7516 12.5513C26.3793 12.7641 26.3261 13.2427 25.9006 14.2001C25.4752 15.1042 24.2519 16.487 23.0819 16.3274C22.4437 16.3274 21.965 15.7956 21.965 15.2106C21.965 15.2106 21.965 15.2106 21.965 15.1574L22.0714 13.8278C22.7628 13.1364 23.2946 12.2854 23.6669 11.3813C24.2519 9.83896 24.837 8.77528 24.1456 8.40299C24.1456 8.40299 23.986 8.34981 23.1883 9.0412C22.8691 9.25394 22.55 9.36031 22.2309 9.46667C21.2736 9.67941 20.0504 9.94533 19.8377 10.4772C19.5186 11.2217 18.8803 12.0727 18.9335 12.7641C19.0399 13.2427 19.3058 13.6682 19.7313 13.881C19.7313 13.881 14.0938 16.6465 14.6788 21.0076C14.6788 21.0076 14.4129 23.8264 18.0826 24.8369C20.2631 25.5283 23.1351 25.2092 23.401 25.2092C23.6669 25.2092 27.9748 24.4114 29.9958 24.89C35.1547 25.741 36.2715 29.7298 36.112 32.0167C29.9426 35.0482 20.6886 34.1441 20.6886 34.1441C24.7838 35.3673 24.6774 35.4737 26.6452 35.6864C36.8566 35.6332 40.4199 29.2511 41.4836 27.762C42.5472 26.2728 49.1953 13.2427 34.9951 5.10558ZM42.0154 16.487C41.4304 14.9446 41.1645 14.4128 38.2393 11.1154C37.2288 9.89215 36.2183 9.0412 36.9629 8.13707C37.6011 7.60523 37.8139 8.03071 37.9202 8.40299C37.9734 8.61573 37.7607 8.82847 37.7607 8.82847C37.7607 8.82847 37.9202 8.19026 37.4416 8.24344C36.9629 8.29663 37.0161 9.09439 37.5479 9.30712C38.0798 9.51986 38.2925 8.77528 38.133 8.19026C38.0798 8.08389 38.0798 7.97752 38.0266 7.87115C40.5263 10.6367 42.0686 14.1469 42.4409 17.8166C42.3877 17.3911 42.2281 16.9124 42.0154 16.487ZM19.6249 11.8068C19.6249 11.7004 20.0504 11.5409 20.8482 11.3281C21.7523 11.1686 22.6032 10.7431 23.3478 10.1581C23.4542 10.0517 24.0392 10.4772 23.2414 11.3281C22.8691 11.7536 22.4969 12.1791 22.0714 12.5513C21.4864 12.7109 19.9972 12.9768 19.6249 11.8068ZM31.219 17.5506C30.7936 17.5506 30.7936 17.5506 30.7936 17.5506C33.5591 18.4548 34.7824 15.4765 34.9419 14.4128C35.0483 13.9341 35.3142 14.1469 35.3142 14.1469C35.3674 14.3064 35.4738 14.4128 35.5801 14.466C35.7397 14.5723 36.112 13.9873 36.112 13.9873C36.5374 14.2001 36.8034 13.0832 36.8566 12.8173C36.8566 12.8173 36.6438 12.8705 36.5906 13.1364C36.5906 13.2959 36.4843 13.4023 36.3247 13.4555C36.3247 13.4555 36.2183 13.5087 36.2183 13.3491C36.2183 13.1896 36.0588 13.0832 36.0056 13.5087C35.9524 13.881 35.6865 13.9341 35.6865 13.9341C35.5801 13.881 35.6333 13.7746 35.4206 13.615C35.1547 13.3491 34.8356 13.9341 34.7824 14.2001C34.676 14.9978 34.3037 15.6892 33.7187 16.2742C33.0805 17.0188 32.1764 17.4443 31.219 17.5506ZM28.4003 6.96703L28.4535 6.80747C28.9321 7.28613 29.0385 8.08389 28.6662 8.66891C28.613 8.82847 28.5598 8.98802 28.5067 9.14757C29.2512 8.88165 29.7831 8.24344 29.8894 7.44568C29.9426 6.91384 29.7299 6.43518 29.8894 6.382C30.1554 6.382 30.3681 6.54155 30.5277 6.75429C30.634 6.64792 30.6872 6.48837 30.7404 6.32882C30.7404 6.32882 30.2085 5.53106 29.7831 6.16926C29.5703 6.59474 29.5172 7.07339 29.7299 7.55205C29.7299 7.55205 29.5172 8.40299 28.9321 8.56255C29.1449 7.92434 29.5703 6.86066 28.4535 6.22245C28.2939 6.16926 27.8684 6.22245 27.9216 6.7011C27.9216 6.86066 28.028 7.02021 28.1876 7.02021C28.2407 7.02021 28.3471 7.02021 28.4003 6.96703ZM25.9538 10.5304C26.3261 10.424 26.6452 10.424 27.0175 10.4772L25.7943 11.4345H25.9006C26.4325 11.1154 26.9111 10.6899 27.3366 10.3176C27.5493 9.99852 27.7089 9.51986 27.5493 9.57304C27.2834 9.67941 27.0175 9.67941 26.6984 9.67941C25.7411 9.7326 25.6347 10.4772 25.5283 10.8495C25.6879 10.7431 25.7943 10.6367 25.9538 10.5304ZM23.4542 20.6885C23.4542 20.6353 23.4542 20.6353 23.4542 20.5821C23.3478 20.6353 23.2414 20.6885 23.1351 20.7417C22.8691 20.9544 22.6564 21.1672 22.4437 21.4331C22.3905 21.6458 22.4437 21.8054 22.6032 21.9649C22.7628 22.0713 22.9223 22.0181 23.0819 22.0713C23.5074 22.0181 23.8265 21.7522 23.986 21.3267C24.0924 21.0608 23.8796 20.7949 23.7201 20.6353C23.6137 20.7417 23.4542 20.9012 23.3478 21.0076C23.4542 21.1672 23.5605 21.3799 23.6137 21.5926C23.4542 21.6458 23.2414 21.699 23.0819 21.6458C22.9223 21.5926 22.8691 21.4331 22.816 21.2735C22.7628 21.114 22.9755 21.0076 23.0819 20.9012C23.1883 20.7949 23.3478 20.7417 23.4542 20.6885ZM32.4423 19.4121C32.2827 19.3057 32.2295 19.4653 32.07 19.5185C31.6445 19.9971 31.1127 20.4758 31.0595 21.1672C31.1127 21.3267 31.219 21.4863 31.3786 21.5395C31.485 21.5926 31.6445 21.5395 31.7509 21.4863C31.9636 21.3267 32.1232 21.114 32.2827 20.9012C32.2827 20.8481 32.2295 20.8481 32.2295 20.8481C32.07 20.9544 32.0168 21.114 31.8041 21.114C31.6977 21.0608 31.5913 21.0076 31.5381 20.8481C31.485 20.3162 31.9636 19.9439 32.2827 19.6248C32.3359 19.5185 32.4423 19.4653 32.4423 19.4121ZM36.3247 18.2952C36.3779 18.2952 36.4843 18.242 36.4843 18.1889C36.5374 18.3484 36.5374 18.508 36.5374 18.6143C36.5374 18.7739 36.5374 18.9866 36.4843 19.1462C36.4311 19.2525 36.4311 19.4121 36.3779 19.5185C36.3247 19.5716 36.3247 19.6248 36.3247 19.7312C36.9097 19.4121 37.1225 18.7739 37.4948 18.2952C37.6011 18.1889 37.7075 18.0293 37.9202 18.0293C38.0266 18.1357 38.133 18.1889 38.2393 18.2952C38.3457 18.1889 38.4521 18.0825 38.5053 17.9229L38.4521 17.8166C38.3457 17.7102 38.2925 17.5506 38.0798 17.5506C37.7075 17.657 37.4416 17.9229 37.282 18.242C37.1225 18.508 36.9629 18.7739 36.7502 19.0398C36.7502 18.7207 36.8034 18.4016 36.7502 18.0825C36.7502 17.657 36.5906 17.2315 36.2715 16.8593C36.2715 16.8593 36.2183 16.8061 36.1652 16.8061C36.0588 17.1252 35.7929 17.4443 35.9524 17.7634C36.0056 17.8698 36.0588 17.9761 36.112 18.0825C36.2715 18.1889 36.3247 18.242 36.3247 18.2952Z" fill="#146394"/>
<mask id="mask0_1_2540" style="mask-type:luminance" maskUnits="userSpaceOnUse" x="0" y="48" width="15" height="14">
<path d="M14.8383 48.5039H0V61.9595H14.8383V48.5039Z" fill="white"/>
</mask>
<g mask="url(#mask0_1_2540)">
<path d="M8.669 56.4816L6.64801 56.9602L5.85024 57.1198C4.73338 57.3857 4.30791 57.7048 3.88244 58.6089C3.45696 59.4067 3.24423 60.3108 3.24423 61.215C3.24423 61.4809 3.29741 61.8 3.35059 62.0659H0L2.18055 57.7048L2.07418 55.3115L3.29741 55.4711L4.83975 52.4396C5.69069 50.6845 5.90343 50.2059 5.90343 49.4613C5.90343 49.1954 5.85024 48.8763 5.79706 48.6104H8.61582L14.8915 62.0127H10.6368C10.69 61.8 10.7432 61.5873 10.7432 61.3745C10.69 60.6299 10.5304 59.8854 10.2113 59.194L9.89223 58.4494L8.88174 56.1625L8.669 56.4816ZM7.02029 51.8014L5.21204 55.6306L8.88174 56.0561L7.02029 51.8014Z" fill="#4A5565"/>
</g>
<mask id="mask1_1_2540" style="mask-type:luminance" maskUnits="userSpaceOnUse" x="15" y="48" width="13" height="15">
<path d="M27.9217 48.238H15.5298V62.2786H27.9217V48.238Z" fill="white"/>
</mask>
<g mask="url(#mask1_1_2540)">
<path d="M27.2835 61.7468C26.0071 62.1191 24.6243 62.2786 23.2947 62.2786C20.9014 62.2786 18.9868 61.6404 17.6572 60.4704C16.2212 59.1408 15.4234 57.2793 15.4766 55.3115C15.4234 53.2905 16.2744 51.3759 17.8167 50.0463C19.2527 48.8231 21.0609 48.238 23.5074 48.238C24.7306 48.238 25.9539 48.3976 27.1239 48.6635V51.0568C26.0602 50.3654 24.837 49.9931 23.5606 50.0463C20.5823 50.0463 18.8272 51.9609 18.8272 55.152C18.8272 56.8007 19.3059 58.1835 20.1036 59.0344C21.0609 59.9385 22.3374 60.4172 23.6138 60.364C25.1029 60.4172 26.5389 59.779 27.4962 58.6621H27.8685L27.2835 61.7468Z" fill="#4A5565"/>
</g>
<mask id="mask2_1_2540" style="mask-type:luminance" maskUnits="userSpaceOnUse" x="30" y="48" width="5" height="14">
<path d="M34.7824 48.5039H30.4745V61.9595H34.7824V48.5039Z" fill="white"/>
</mask>
<g mask="url(#mask2_1_2540)">
<path d="M34.091 58.1834C34.091 60.0981 34.2506 61.0554 34.7824 61.9595H31.1127V52.3332C31.1127 50.4186 30.9531 49.4613 30.4745 48.5571H34.091V58.1834Z" fill="#4A5565"/>
</g>
<mask id="mask3_1_2540" style="mask-type:luminance" maskUnits="userSpaceOnUse" x="37" y="48" width="14" height="15">
<path d="M50.5781 48.238H37.0693V62.2786H50.5781V48.238Z" fill="white"/>
</mask>
<g mask="url(#mask3_1_2540)">
<path d="M50.5249 58.5026C50.5249 59.9385 50.4186 60.364 49.9931 60.7895C49.0358 61.7468 47.1212 62.2786 44.6215 62.2786C42.2814 62.2786 40.4731 61.8 39.2499 60.7363C37.8139 59.5662 37.0694 57.758 37.0694 55.5243C37.0162 53.716 37.6012 52.0141 38.7713 50.6313C40.2604 48.9826 42.3346 48.238 45.3129 48.238C46.5893 48.238 47.8125 48.3444 49.0358 48.6103V51.0568C47.8657 50.3654 46.5361 49.9931 45.1533 50.0463C41.9091 50.0463 40.3136 51.8014 40.3136 55.3647C40.3136 58.7153 41.7496 60.364 44.6215 60.364C45.5788 60.4172 46.5361 60.1513 47.3339 59.5662C47.7594 59.194 47.9721 58.6621 47.9189 58.1303C47.9189 56.9602 47.7062 56.6411 46.4298 56.2688L44.7279 55.737L44.3556 55.2052H50.5249V58.5026Z" fill="#4A5565"/>
</g>
<path fill-rule="evenodd" clip-rule="evenodd" d="M22.0182 64.4059C22.1246 64.4591 22.0714 64.4059 22.1246 64.4591C22.1246 64.5123 22.1246 64.5123 22.1246 64.5655H22.0714C22.0714 64.5655 22.0714 64.6187 22.0182 64.6187C22.0182 64.6187 22.0182 64.6187 22.0182 64.6718V64.725V64.7782H21.965V64.8846L22.0714 64.9378H22.1778H22.2309C22.2841 65.0441 22.2841 65.0973 22.2309 65.2037C22.2309 65.2569 22.2309 65.2569 22.2309 65.3101V65.3632H22.1778V65.4164V65.4696V65.5228L21.965 65.7355C21.965 65.7355 21.965 65.7355 21.965 65.7887C21.9118 65.8419 21.8055 65.8419 21.7523 65.8951C21.7523 65.8419 21.6991 65.8951 21.6991 65.8419C21.6991 65.7887 21.6991 65.8419 21.6991 65.7887H21.7523L21.8055 65.7355V65.6823H21.8586L21.9118 65.6292V65.576C21.965 65.5228 22.0182 65.4696 22.0714 65.3632C22.0714 65.3632 22.0182 65.3632 22.0182 65.3101H21.965H21.8586H21.8055L21.6991 65.2037V65.1505V65.0973M21.7523 64.9378V64.8846V64.8314V64.7782C21.7523 64.725 21.7523 64.725 21.7523 64.6718H21.8055V64.6187V64.5655L21.965 64.4591C22.0182 64.4059 22.0714 64.2996 22.1778 64.2996L21.7523 64.9378Z" fill="#BABABA"/>
<path fill-rule="evenodd" clip-rule="evenodd" d="M34.5164 64.7783C34.5696 64.7783 34.5696 64.7783 34.6228 64.8315V64.9379H34.5696V64.9911V65.0442V65.0974V65.1506H34.5164V65.2038V65.3102L34.6228 65.3633H34.7292H34.7823C34.8355 65.4697 34.8355 65.5229 34.7823 65.6293V65.7356V65.7888H34.7292V65.842V65.8952H34.676L34.4632 66.1079V66.1611C34.4101 66.2143 34.3037 66.2143 34.2505 66.2675C34.2505 66.2143 34.1973 66.2675 34.1973 66.2143C34.1973 66.1611 34.1973 66.2143 34.1973 66.1611L34.2505 66.1079V65.9484H34.3037L34.3569 65.8952H34.0909C34.0909 65.8952 34.0909 65.8952 34.0909 65.842C34.1441 65.7888 34.1973 65.7356 34.2505 65.6293C34.2505 65.6293 34.1973 65.6293 34.1973 65.5761H34.1441L34.0378 65.5229L33.9314 65.4165V65.3633C33.9314 65.3633 33.9314 65.3633 33.9314 65.3102H34.0378L34.0909 65.257H34.1441V65.2038V65.1506V65.0974L34.3037 64.9911C34.3569 64.9379 34.4101 64.8315 34.5164 64.8315V64.7783Z" fill="#BABABA"/>
<path fill-rule="evenodd" clip-rule="evenodd" d="M21.6459 66.3738H21.8055L21.9119 66.427V66.4801H21.965L22.0182 66.5333V66.6397V66.6929C22.0182 66.7461 22.0182 66.7992 22.0182 66.8524V66.9588V67.0652V67.2247V67.4375V67.5438V67.597V67.7566V67.8097V67.9161V68.1289V68.2352V68.2884V68.3948V68.5543V68.6075V68.6607V68.7139V68.7671V68.8202V68.8734V69.033V69.1393V69.3521C22.0182 69.4584 22.0182 69.5648 22.0182 69.7244C22.0182 69.7776 22.0182 69.8839 22.0182 69.9371V69.9903L22.0714 70.0435H22.1246H22.2842L22.4969 69.9903H22.5501H22.4437V69.9371H22.4969V69.8839H22.5501V69.8307L22.6564 69.7244L22.7096 69.6712V69.618H22.7628V69.5648V69.5116C22.816 69.5116 22.816 69.5648 22.816 69.618C22.816 69.6712 22.816 69.6712 22.816 69.6712V69.7244V69.7776V69.9371V69.9903V70.0435H22.7628V70.0967L22.7096 70.1498V70.203V70.2562H22.6564L22.6033 70.3094V70.3626L22.5501 70.4158V70.4689L22.4969 70.5221H22.4437L22.3905 70.5753V70.6285H22.3373H22.2842C22.231 70.6285 22.1778 70.6817 22.1246 70.6817H21.9119H21.8587H21.4864V70.7349L21.4332 70.6817H21.38V70.6285L21.3268 70.5753V70.5221V70.6817V70.6285V70.5753C21.3268 70.4689 21.3268 70.3626 21.3268 70.2562C21.3268 70.203 21.3268 70.1498 21.3268 70.0967V69.9903V69.8839V69.7244V69.6712V69.618V69.5648V69.5116V69.4585V69.4053V69.2989H21.38V69.2457V69.0862V68.9798V68.7139V68.6075V68.5011C21.38 68.3948 21.4332 68.2884 21.4332 68.2352V68.0225V67.9161V67.7566V67.5438V67.4906C21.4332 67.4375 21.4332 67.3843 21.4332 67.3843V67.3311V67.2779V67.2247C21.38 67.1715 21.4332 67.1184 21.3268 67.1184H21.2737H21.2205V67.1715L21.1673 67.2247V67.2779H21.1141V67.3311V67.3843V67.4375H21.0609V67.4906V67.5438L21.0077 67.597V67.6502C21.0077 67.6502 20.9546 67.6502 20.9546 67.7034L20.9014 67.6502V67.597V67.5438V67.4906H20.9546V67.4375V67.3843V67.3311V67.2779H21.0077V67.2247V67.1715V67.1184H21.0609V67.0652V67.012L21.1141 66.9588V66.9056L21.1673 66.8524V66.7992H21.2205V66.7461L21.3268 66.6929V66.6397H21.2737C21.2737 66.6397 21.2737 66.5865 21.3268 66.5865H21.38V66.5333V66.4801C21.4332 66.4801 21.4864 66.4801 21.4864 66.427" fill="#BABABA"/>
<path fill-rule="evenodd" clip-rule="evenodd" d="M18.7207 70.2562H18.8803C18.9867 70.2562 19.1462 70.2562 19.2526 70.2031H19.359H19.4121H19.4653H19.5185H19.5717H19.6781V70.0967V70.0435V69.9903C19.6781 69.9371 19.6781 69.9371 19.6781 69.8839V69.8308V69.7776H19.7312V69.6712V69.618V69.5648V69.5117H19.6781V69.4585H19.7312H19.8376H19.8908H19.944H20.3163V69.5117L20.3695 69.618H20.4226C20.4226 69.7244 20.4226 69.7776 20.4226 69.8839L20.3695 69.9903V70.0435C20.3695 70.0967 20.3695 70.0967 20.3163 70.1499V70.2031V70.2562V70.3094L20.2631 70.3626V70.469V70.5222V70.5753L20.2099 70.6285V70.6817C20.2099 70.6817 20.2099 70.6817 20.2099 70.7349V70.7881V70.8413V70.8945H20.1567H20.1035C20.1035 70.8945 20.0503 70.8944 19.9972 70.9476H19.944L19.8376 71.0008H19.7312H19.6781H19.359H19.2526H19.1994H19.1462H19.0399H18.9867H18.9335H18.5612H18.4548L18.2953 70.8413L18.2421 70.7881V70.7349V70.6817V70.9476V70.8413C18.2421 70.7881 18.2421 70.7349 18.2421 70.6285C18.2421 70.5222 18.2421 70.4158 18.2421 70.3094C18.2421 70.2031 18.2421 70.0967 18.2421 70.0435V69.5648V69.5117V69.4585V69.4053C18.2421 69.3521 18.2421 69.2457 18.2421 69.1926V69.1394C18.2421 69.0862 18.2421 69.033 18.2421 69.033V68.8735V68.6075V68.5012V68.448V68.3416V68.2884V68.0757V67.9693V67.7566V67.6502C18.2421 67.597 18.2421 67.5439 18.2421 67.4375L18.1889 67.3843H18.1357C18.0825 67.3843 18.0294 67.3843 17.9762 67.3843V67.4375H18.1357L18.0825 67.4907L18.0294 67.597V67.6502V67.7034V67.7566V67.8098H18.0825V67.863H18.0294V67.9161L17.9762 67.9693V68.1821L17.923 68.2352V68.2884H17.6571H17.6039C17.6039 68.2352 17.6039 68.2352 17.6039 68.1821V68.1289V68.0757V67.9693V67.9161H17.6571V67.863C17.6571 67.8098 17.6571 67.8098 17.7103 67.7566V67.5439C17.7103 67.4907 17.7103 67.4907 17.7634 67.4375V67.3843L17.8166 67.3311V67.2779V67.2248L17.8698 67.1184L17.923 67.0652V67.012V66.9588V66.9056H17.9762L18.0294 66.8525V67.012H18.0825L18.1357 66.9588V66.9056H18.1889C18.1889 66.8525 18.2421 66.8525 18.2421 66.7993H18.0825L18.1889 66.7461H18.2421H18.2953H18.4016L18.508 66.8525C18.508 66.9056 18.508 66.9056 18.5612 66.9588C18.6144 67.012 18.5612 67.012 18.5612 67.0652V67.3843V67.4375V67.4907V67.597V67.6502L18.508 67.9161V68.0225V68.0757V68.1821C18.508 68.2352 18.508 68.2884 18.508 68.3416V68.3948V68.448V68.5543V68.6607V68.7139V68.8203C18.508 68.9266 18.4548 69.033 18.4548 69.1394V69.4585C18.4016 69.618 18.4016 69.7776 18.4016 69.9371C18.4016 69.9903 18.4016 70.0435 18.4016 70.0435V70.2031V70.2562V70.3094C18.4016 70.3626 18.4548 70.3626 18.4548 70.4158" fill="#BABABA"/>
<path fill-rule="evenodd" clip-rule="evenodd" d="M36.0587 69.671H36.3778L36.5906 69.6178H36.6438H36.6969H36.7501H36.8033H36.8565H36.9097C36.9097 69.6178 36.9097 69.6178 36.9097 69.5646H36.9629L37.0161 69.5115V69.2455C37.0161 69.1924 37.0161 69.086 37.0161 69.0328C37.0161 68.9796 37.0161 68.9264 37.0161 68.8733V68.8201C37.0161 68.7669 37.0161 68.7137 37.0161 68.6605V68.5541V68.0755V68.0223V67.9691V68.0755V68.0223C37.0161 67.9691 37.0161 67.9691 37.0161 67.9159V67.8096H37.0692V67.5436V67.4905L37.1224 67.4373C37.1224 67.4373 37.1224 67.3841 37.1224 67.3309C37.1224 67.3309 37.1224 67.3309 37.1224 67.2777H37.1756C37.1756 67.2245 37.1756 67.2245 37.2288 67.1714L37.282 67.1182V67.065V67.0118L37.3883 66.9586V66.9054L37.2288 67.0118L37.282 66.9586C37.282 66.9586 37.3352 66.9586 37.3352 66.9054H37.4415H37.867C37.867 66.9054 37.867 66.9054 37.867 66.8523C37.9734 66.7991 38.0265 66.7991 38.1329 66.7991C38.1861 66.8523 38.1861 66.8523 38.2393 66.8523V66.9054L38.2925 66.9586V67.0118V67.1182C38.3457 67.1714 38.2925 67.2245 38.2925 67.2777C38.2925 67.4905 38.2925 67.65 38.2925 67.8628C38.2925 67.9159 38.2925 67.9691 38.2925 68.0755V68.2882V68.4478V68.6073C38.2925 68.7137 38.2925 68.8732 38.2925 68.9796V69.086V69.1392V69.2455V69.2987V69.3519V69.4051C38.2925 69.4583 38.2925 69.5115 38.3457 69.5115H38.3988V69.5646L38.5052 69.6178V69.671C38.5052 69.7242 38.5584 69.7242 38.5584 69.7774H38.6648C38.7711 69.7774 38.8775 69.7774 39.037 69.7774H39.0902H39.1434H39.1966L39.303 69.7242H39.3562L39.4093 69.671H39.4625C39.4625 69.671 39.4625 69.671 39.4625 69.6178H39.5157L39.5689 69.671H39.6221C39.5689 69.671 39.5689 69.7242 39.5157 69.7242V69.7774C39.4625 69.8837 39.4093 69.9369 39.303 69.9901L39.2498 70.0433H39.1966H39.1434H39.0902C39.0902 70.0433 39.0902 70.0433 39.0902 70.0965H39.037V70.1497L38.9839 70.2029H38.9307V70.256H38.8775H38.8243C38.8243 70.256 38.8243 70.256 38.8243 70.3092H38.7711V70.3624H38.7179L38.6648 70.4156H38.6116C38.6116 70.4156 38.6116 70.4156 38.6116 70.4688H38.5584H38.5052H38.6116H38.5584H38.8243C38.7179 70.4688 38.6116 70.4688 38.452 70.4688H38.3457H38.2925L38.2393 70.4156L38.1861 70.3624H38.1329V70.2029L38.0797 70.1497V70.0965H38.0266V70.0433V69.9901V69.9369V69.7242V69.671V69.4583C38.0266 69.3519 38.0266 69.2455 38.0797 69.1392V68.9796V68.9264V68.7669V68.6073C38.0797 68.5541 38.0797 68.3946 38.0797 68.3414V68.0755C38.0797 68.0223 38.0797 67.9691 38.0797 67.8628V67.7564V67.65V67.5968L38.0266 67.5436C38.0266 67.5436 38.0266 67.5437 38.0266 67.4905H37.9734H37.9202C37.867 67.4905 37.8138 67.4905 37.7606 67.4905C37.7074 67.5437 37.7606 67.65 37.7606 67.7032C37.7074 67.9691 37.7074 68.235 37.7074 68.501V68.8201V68.8733V68.9796V69.0328V69.086V69.1392V69.1924V69.2455V69.2987H37.6543V69.3519V69.4051V69.4583V69.5115H37.6011V69.5646V69.7242L37.5479 69.7774V69.8306H37.4947V69.8837V69.9369V69.9901L37.4415 70.0433V70.0965C37.3883 70.1497 37.3883 70.1497 37.3352 70.2029V70.256H37.282H37.2288C37.2288 70.256 37.2288 70.256 37.2288 70.3092V70.3624H37.1224H37.0692H37.0161H36.8565H36.8033H36.7501H36.6969C36.5906 70.3624 36.5374 70.3624 36.431 70.3624L36.2715 70.4156C36.2715 70.3624 36.2183 70.3624 36.2183 70.3092H36.1651H36.1119V70.3624L35.9524 70.4156V70.4688H35.8992C35.846 70.4688 35.846 70.4688 35.7928 70.4688C35.7396 70.4688 35.6865 70.4688 35.6333 70.4688H35.5801H35.5269H35.2078C35.1546 70.4688 35.1014 70.4688 35.1014 70.4688H34.9951L34.9419 70.4156V70.3624V70.3092V70.256V70.2029V70.1497V70.522V70.4688V70.3092V70.0965V69.9369V69.671V69.6178V69.5646V69.4583V69.4051V69.2455V69.1924V69.086V68.6073V68.4478V68.3414V68.2882V68.1819V68.0223C34.9419 67.8628 34.9419 67.7032 34.8887 67.5436L34.8355 67.4905V67.4373H34.7823C34.7823 67.4905 34.7291 67.4905 34.676 67.4905V67.5436V67.5968H34.6228C34.6228 67.65 34.6228 67.7032 34.5696 67.7564V67.8096V67.8628V67.9159V67.9691L34.5164 68.0223V68.0755L34.4632 68.1287V68.1819V68.235C34.4632 68.2882 34.4632 68.235 34.41 68.2882C34.41 68.235 34.41 68.1287 34.41 68.0755V68.0223V67.9691V67.9159V67.8628V67.8096C34.41 67.7564 34.41 67.7032 34.4632 67.7032C34.4632 67.65 34.4632 67.65 34.5164 67.65V67.5968V67.5436L34.5696 67.4905V67.4373H34.6228V67.3841V67.3309V67.2777H34.676V67.2245C34.676 67.2245 34.7291 67.2245 34.7291 67.1714L34.7823 67.1182V67.065L34.8887 66.9586L34.9419 66.9054H34.9951C35.0482 66.8523 35.1014 66.8523 35.1546 66.8523C35.2078 66.9054 35.2078 66.8523 35.2078 66.9054H35.261V66.9586C35.3142 67.1182 35.3142 67.2777 35.261 67.4373V67.65V67.7032V67.8628V67.9159V67.9691V68.1287V68.235V68.2882V68.3414C35.261 68.4478 35.261 68.5541 35.261 68.6073V68.6605V68.7137V68.7669V69.1392C35.261 69.2987 35.261 69.5115 35.261 69.7242V69.7774C35.261 69.8306 35.261 69.8306 35.261 69.8837C35.3674 69.9901 35.6333 69.9369 35.7396 69.8837C35.7396 69.8837 35.7396 69.8837 35.7928 69.8837H35.9524H36.0056H36.0587H36.1119H36.1651H36.2183L36.3247 69.8306H35.7928H35.846V69.7774H35.8992V69.7242L35.9524 69.671L36.0056 69.6178L36.0587 69.5646V69.5115L36.1651 69.3519H36.2183V69.4051C36.1651 69.4583 36.2183 69.4583 36.1651 69.5115V69.5646L36.0587 69.671V69.7242C36.0587 69.7774 36.0056 69.7774 36.0056 69.8306" fill="#BABABA"/>
<path fill-rule="evenodd" clip-rule="evenodd" d="M36.2715 68.235C36.2183 68.235 36.2183 68.235 36.1652 68.235L36.0588 68.1818C35.9524 68.1818 35.7929 68.1818 35.6865 68.235H35.5801L35.4738 68.2882L35.3142 68.4477V68.5009H35.261H35.2078C35.2078 68.5009 35.2078 68.4477 35.1547 68.4477L35.3142 68.0223H35.3674V67.9691V67.9159H35.4206V67.8627L35.4738 67.8095L35.527 67.7564V67.7032C35.527 67.65 35.5801 67.65 35.5801 67.5968C35.6333 67.5968 35.6333 67.5968 35.6333 67.5436H35.7397C35.7397 67.5436 35.7397 67.5436 35.7397 67.4904H35.7929H35.8461H35.8992H35.9524C36.0588 67.4373 36.1652 67.4373 36.2715 67.4373H36.4843H36.5374H36.5906C36.6438 67.4373 36.5906 67.4373 36.6438 67.4904V67.5968C36.5906 67.65 36.5906 67.65 36.5906 67.7032V67.7564L36.5374 67.8095V67.8627V67.9159H36.4843V67.9691V68.0223V68.0755H36.4311V68.1287V68.1818V68.235" fill="#BABABA"/>
<path fill-rule="evenodd" clip-rule="evenodd" d="M27.8153 68.5011L27.7621 68.5543C27.7089 68.5543 27.7089 68.5543 27.7089 68.6075L27.4962 68.5543H27.443H27.3898H27.3366V68.5011H27.1771V68.4479C27.1771 68.4479 27.1771 68.4479 27.1239 68.3947C27.1239 68.3415 27.1239 68.2884 27.1239 68.2352V68.1288V68.0756V68.0224V67.9693C27.1771 67.9161 27.1239 67.8629 27.2303 67.8097C27.2303 67.7565 27.2303 67.7033 27.2835 67.7033H27.3366C27.3366 67.7033 27.3366 67.7033 27.3366 67.6501H27.3898C27.3898 67.7033 27.443 67.6501 27.443 67.7033L27.4962 67.7565H27.5494H27.6557V67.8097H27.7089L27.8153 67.8629V67.9693V68.0224V68.0756V68.1288V68.182V68.2884V68.3947V68.5011Z" fill="#BABABA"/>
<path fill-rule="evenodd" clip-rule="evenodd" d="M24.3051 69.3519C24.3051 69.4051 24.252 69.4051 24.1988 69.4583L24.0924 69.5646C24.0924 69.5646 24.0924 69.6178 24.0392 69.6178C24.0392 69.8837 24.1456 70.0965 24.3583 70.2028L24.4647 70.3092L24.5179 70.3624H24.5711V70.4156V70.4687H24.6242H24.6774H24.7306H24.7838H24.837H24.8902H24.9965H25.1029H25.1561H25.2093H25.2624H25.422H25.4752H25.5284H25.6879H25.7943C25.8475 70.4687 25.9007 70.4156 26.007 70.4687C26.1134 70.4687 26.2198 70.4687 26.2729 70.4687C26.4325 70.4687 26.6452 70.4687 26.8048 70.4687H27.2834C27.3898 70.4156 27.5494 70.4156 27.6557 70.4156H27.7621H27.8685L28.028 70.3624H28.0812H28.2408H28.2939H28.4003H28.4535H28.613L28.7194 70.3092L28.8258 70.256H28.879H28.9321H28.9853H29.0385H29.0917H29.1449H29.2513L29.3576 70.2028C29.3576 70.2028 29.3576 70.2028 29.3576 70.1496H29.4108H29.464V70.0965H29.5172C29.5704 70.0433 29.5704 70.0433 29.5704 69.9369V69.8837V69.8305V69.7774C29.5172 69.7774 29.464 69.7242 29.464 69.671C29.464 69.671 29.464 69.671 29.464 69.6178H29.4108V69.671L29.3576 69.6178V69.5646V69.5114V69.4583V69.4051V69.2987V69.2455V69.1391V69.086V69.0328C29.3576 68.9796 29.3576 68.9796 29.3576 68.9264C29.4108 68.8732 29.3576 68.82 29.464 68.82C29.464 68.8732 29.5172 68.8732 29.5704 68.8732C29.5704 68.8732 29.5704 68.8732 29.5704 68.9264H29.6235L29.6767 68.9796L29.7831 69.086V69.1391L29.8895 69.2455C29.9426 69.2455 29.9958 69.2455 29.9958 69.1923H30.1022H30.4213H30.4745H30.5277H30.5809H30.634H30.7404H30.7936H30.8468V69.1391H30.9V69.086L31.0063 69.0328V68.9796V68.6073C31.0063 68.5541 31.0063 68.5541 31.0063 68.5009L31.0595 68.4478C31.0595 68.4478 31.1127 68.5009 31.1127 68.5541C31.1127 68.6073 31.1127 68.6073 31.1127 68.6605V68.7137V68.7669V68.82V68.8732V68.9796V69.0328V69.086V69.1391V69.2455V69.2987V69.3519V69.4051C31.1127 69.4583 31.1127 69.5646 31.1659 69.6178H31.2191C31.2191 69.6178 31.3786 69.6178 31.4318 69.6178H31.485H31.6977L31.8573 69.5646C31.9105 69.4583 31.9636 69.3519 32.0168 69.1923L32.07 69.1391V69.086V69.0328V68.9796V68.9264V68.8732V68.82C32.1232 68.7669 32.1764 68.6605 32.2827 68.6605H32.3359C32.4423 68.6073 32.4955 68.6605 32.5487 68.7137C32.5487 68.7669 32.6018 68.7669 32.6018 68.7669V68.82V68.9796C32.6018 69.0328 32.6018 69.086 32.6018 69.1391C32.6018 69.1391 32.6018 69.1923 32.6018 69.2455V69.2987V69.4051C32.6018 69.4583 32.6018 69.4583 32.6018 69.5114V69.5646V69.6178L32.5487 69.671C32.5487 69.7242 32.5487 69.7242 32.5487 69.7774V69.8305V69.8837L32.4955 69.9369V69.9901L32.4423 70.0965L32.3891 70.1496H32.3359C32.3359 70.1496 32.3359 70.1496 32.3359 70.2028V70.256H32.2827L32.2296 70.3092H32.1232V70.3624H32.07H32.0168V70.4156H31.9636H31.9105H31.8041H31.6977H31.6445H31.5914H31.5382C31.4318 70.4156 31.2722 70.4156 31.1659 70.4156L31.1127 70.3624V70.256V70.2028C31.1127 70.1496 31.1127 70.0965 31.1127 70.0965V69.671V69.6178V69.4583L30.9531 69.5114V69.5646H30.9H30.8468H30.7404H30.3681H30.3149H30.2086H29.9958H29.9426C29.9426 69.6178 29.9426 69.6178 29.8895 69.671V69.7242V69.7774V70.256V70.3092V70.4156H29.8363V70.4687L29.7831 70.5219V70.5751V70.6283V70.6815C29.7831 70.6815 29.7299 70.6815 29.7299 70.7347V70.7879L29.5704 70.9474C29.5704 70.9474 29.5704 71.0006 29.5172 71.0006L29.464 71.0538L29.3576 71.107H29.3044H29.2513L29.1449 71.1601H29.0385C29.0385 71.1601 29.0385 71.1601 29.0385 71.2133L28.9321 71.2665L28.8258 71.3197H28.7726H28.7194H28.6662C28.6662 71.3197 28.6662 71.3197 28.6662 71.3729H28.5599H28.5067H28.7194H28.613H28.5599H28.5067H28.4003H28.2939H28.2408H28.0812H28.028H27.9748H27.9217H27.8685H27.7621C27.7621 71.3729 27.7621 71.3729 27.7089 71.3729H27.6557H27.6025H27.4962H27.443H27.2303H26.1134H25.9007C25.7411 71.3729 25.5284 71.3729 25.3688 71.3197H25.3156H25.2624H25.1561H25.0497H24.9965H24.9433L24.7838 71.2665H24.7306H24.6242L24.5179 71.2133C24.5179 71.2133 24.5179 71.2133 24.4647 71.2133H24.4115H24.3051H24.252V71.1601H24.1988H24.1456V71.107V71.0538L24.0924 71.0006H24.0392V70.9474L23.986 70.8942H23.9328H23.8797V70.841L23.8265 70.7879V70.7347L23.7733 70.6815L23.7201 70.6283V70.5751V70.5219V70.4687V70.4156V70.3624C23.6669 70.1496 23.6137 69.9369 23.6669 69.7242V69.671V69.6178V69.7242V69.671V69.6178L23.7201 69.5114V69.4583V69.4051V69.3519V69.2987L23.7733 69.2455V69.1923L23.8265 69.1391L23.9328 69.0328L23.986 68.9796H24.0392L24.0924 68.9264L24.1456 68.8732H24.1988L24.3051 68.82L24.3583 68.7669L24.4115 68.7137V68.6605H24.4647H24.5179H24.6242H24.6774H24.7306H24.7838H24.837H24.8902H24.9965H25.422C25.5816 68.6605 25.6879 68.6605 25.8475 68.6605H25.9538H26.1134H26.1666H26.2198H26.2729H26.3793H26.4325H26.5389H26.7516H26.8048L26.858 68.7137L26.9112 68.7669C26.9112 68.7669 26.9112 68.82 26.9643 68.82H27.0175L27.0707 68.8732L27.1771 68.9796H27.2303L27.2834 69.0328V69.086L27.3366 69.1391C27.3898 69.1923 27.443 69.2455 27.5494 69.2987L27.6025 69.4583C27.6025 69.5114 27.6025 69.5646 27.6025 69.6178C27.5494 69.671 27.5494 69.671 27.443 69.671L27.3898 69.6178V69.5646L27.3366 69.5114V69.4583L27.2834 69.4051V69.3519H27.2303V69.2987H27.1771H27.1239H27.0707V69.2455H27.0175L26.9643 69.1923V69.1391H26.9112V69.086H26.858L26.8048 69.0328H26.7516H26.6984V68.9796H26.592H26.5389H26.4857H26.4325H26.3793H26.3261H26.1666C26.0602 68.9796 25.9538 68.9796 25.7943 68.9796H25.5284H25.4752H25.3688H25.2624H25.0497H24.9965H24.9433C24.9433 68.9796 24.9433 68.9796 24.9433 69.0328H24.8902H24.7838V69.086H24.7306H24.6774H24.6242H24.5179V69.1391H24.4647C24.4647 69.1391 24.4647 69.1392 24.4647 69.1923C24.4647 69.2455 24.4115 69.2455 24.3583 69.2455" fill="#BABABA"/>
<path fill-rule="evenodd" clip-rule="evenodd" d="M39.9412 69.6178L39.9943 69.5647C39.9943 69.6178 39.9943 69.6178 39.9412 69.6178Z" fill="#BABABA"/>
<path fill-rule="evenodd" clip-rule="evenodd" d="M30.9531 71.373C30.9531 71.4262 30.9531 71.4794 30.9531 71.5326V71.5858V71.639V71.6922V71.7453H30.9V71.7985V71.8517L30.8468 71.9049V71.9581V72.0113V72.0644C30.7936 72.1176 30.7936 72.224 30.6872 72.224C30.634 72.1708 30.634 72.1708 30.5277 72.1708C30.4745 72.1708 30.4213 72.1708 30.3681 72.1708H30.1554H30.049H29.7831H29.7299V72.224H29.6767V72.2772C29.6767 72.2772 29.6235 72.2772 29.6235 72.3304V72.3835H29.5704C29.5172 72.4367 29.5704 72.4367 29.464 72.4367C29.464 72.3835 29.464 72.3304 29.464 72.2772V72.224V72.1708V72.1176V72.0644V72.0113H29.5172V71.9581V71.9049V72.0113H29.5704V71.9581V71.9049V71.8517V71.7985C29.5704 71.7453 29.6235 71.7453 29.6235 71.6922H29.6767L29.7299 71.639H29.7831H29.8363V71.5858H29.9426C30.1022 71.5326 30.2086 71.5326 30.3681 71.5326H30.5277H30.5809C30.634 71.5326 30.6872 71.5858 30.6872 71.5858" fill="#BABABA"/>
<path fill-rule="evenodd" clip-rule="evenodd" d="M22.0182 71.7454C22.0714 71.7454 22.0714 71.7454 22.1246 71.7985V71.8517L22.2309 71.9049C22.2309 71.9049 22.2309 71.9049 22.2309 71.9581H22.2841V72.0113H22.3373V72.0645V72.1708V72.224L22.2841 72.2772V72.3304V72.4368H22.2309V72.4899V72.5431V72.5963V72.6495V72.7027V72.7559C22.1778 72.809 22.1246 72.8622 22.0182 72.9154H21.8587H21.8055L21.7523 72.809L21.5927 72.7027C21.5927 72.7027 21.5927 72.6495 21.5396 72.6495L21.5927 72.5431V72.4368V72.3836V72.3304V72.2772V72.224V72.1708V72.1177L21.6459 72.0645C21.6459 72.0645 21.6459 72.0645 21.6459 72.0113V71.9581L21.6991 71.9049V71.7985H21.8055L22.0182 71.7454Z" fill="#BABABA"/>
<path fill-rule="evenodd" clip-rule="evenodd" d="M15.0511 69.4585C15.1043 69.4585 15.1043 69.4585 15.1575 69.5116V69.5648L15.2639 69.618V69.6712H15.3171V69.7244H15.3702H15.4234V69.7776V69.8839V69.9371H15.3702V69.9903V70.0435V70.0967H15.3171V70.1498V70.203H15.2639V70.3626V70.4158H15.2107V70.469H15.1575C15.1043 70.5221 15.0511 70.5753 14.9448 70.6285H14.8384H14.8916L14.8384 70.5221L14.6789 70.3626C14.6789 70.3094 14.6789 70.3094 14.6257 70.3094C14.5725 70.3094 14.6257 70.2562 14.6789 70.203C14.6789 70.1499 14.6789 70.1499 14.6789 70.0967H14.732V70.0435V69.9903V69.9371V69.8839H14.7852V69.6712L14.8384 69.618V69.5648V69.5116L14.8916 69.4585V69.4053L15.0511 69.4585Z" fill="#BABABA"/>
<path d="M17.4975 74.5108C14.6788 74.8299 11.9132 75.3086 9.25399 75.3086C8.08394 75.3617 6.16931 75.0958 6.16931 73.5003C6.16931 72.0643 7.23299 71.1602 8.08394 70.4156C9.78583 69.0328 11.8068 68.0755 13.9874 67.5969C14.9447 67.4905 16.1679 67.2778 17.1252 68.3414C17.8698 69.5115 17.4443 70.5752 17.2316 71.3198C17.1784 71.0007 17.1784 70.6815 17.1784 70.3093C17.2848 69.6179 17.0189 68.9265 16.5402 68.3946C15.051 67.5437 13.0301 68.3946 10.9027 69.4051C9.78583 69.9902 8.72215 70.7347 7.81802 71.6389C6.8607 72.543 6.48842 74.0321 7.49891 74.2449C10.0517 74.8299 13.7746 73.9258 17.2848 73.6067C24.5178 72.7025 31.219 72.7557 36.0587 73.5535C40.8985 74.3512 43.93 75.4681 44.2491 75.9999C38.9839 74.2449 28.8257 73.0216 17.4975 74.5108Z" fill="#BABABA"/>
</svg>
