<svg width="75" height="23" viewBox="0 0 75 23" fill="none" xmlns="http://www.w3.org/2000/svg">
<path d="M18.4241 4.31964C18.5524 4.19133 18.5524 3.93472 18.4241 3.80642C16.4995 1.4969 13.634 0 10.3835 0C7.13311 0 4.26761 1.4969 2.34302 3.80642C5.85005 0.641531 12.522 4.44795 12.522 4.44795C13.4629 4.96117 14.3183 5.51716 15.473 5.51716C16.9699 5.51716 17.8681 4.83286 18.253 4.49072C18.2957 4.44795 18.3813 4.40518 18.4241 4.31964Z" fill="#6C48F6"/>
<path d="M12.5221 4.49068C12.4793 4.49068 5.85014 0.684269 2.34311 3.84915C2.2148 3.97746 2.2148 4.1913 2.30034 4.31961C2.34311 4.36238 3.19848 5.73098 5.29415 5.73098C6.3206 5.73098 7.17597 5.21775 7.94581 4.7473C8.71564 4.27684 9.44271 3.84915 10.3409 3.84915C11.1962 3.80639 11.8378 4.10577 12.5221 4.49068Z" fill="#A8ACD4"/>
<path d="M11.6239 20.3579C11.6666 20.529 11.8805 20.6573 12.0516 20.6146C15.0026 20.1441 17.7398 18.3478 19.365 15.5678C20.9902 12.7451 21.1613 9.49469 20.0921 6.71472C21.0758 11.3337 14.4466 15.1829 14.4466 15.1829C13.5485 15.7389 12.6076 16.2094 12.0516 17.1931C11.2817 18.4761 11.4528 19.6309 11.5383 20.1013C11.5383 20.1869 11.5811 20.2724 11.6239 20.3579Z" fill="#6C48F6"/>
<path d="M14.4465 15.1829C14.4893 15.1829 21.0757 11.3338 20.092 6.71474C20.0492 6.54367 19.8782 6.45813 19.7071 6.45813C19.6215 6.45813 18.0391 6.54367 17.0127 8.33995C16.4994 9.2381 16.4994 10.2218 16.5422 11.1627C16.5422 12.0608 16.585 12.9162 16.1145 13.686C15.6868 14.3703 15.0881 14.798 14.4465 15.1829Z" fill="#A8ACD4"/>
<path d="M1.14552 6.45812C0.97445 6.41535 0.760606 6.54366 0.675069 6.71473C-0.394149 9.53747 -0.223074 12.7879 1.40214 15.5679C3.02735 18.3906 5.76455 20.1441 8.71559 20.6146C4.22487 19.1604 4.22487 11.4621 4.22487 11.4621C4.1821 10.4356 4.26764 9.36639 3.71165 8.38271C2.94181 7.09965 1.91536 6.62919 1.44491 6.50089C1.3166 6.50089 1.23106 6.45812 1.14552 6.45812Z" fill="#6C48F6"/>
<path d="M4.18213 11.5048C4.18213 11.5475 4.2249 19.2031 8.67284 20.6573C8.84392 20.7 9.01499 20.6145 9.10053 20.4434C9.1433 20.4007 9.87037 18.9465 8.80115 17.1502C8.28793 16.2521 7.43255 15.7816 6.61995 15.3112C5.85011 14.8835 5.08027 14.4558 4.65258 13.686C4.26767 13.0017 4.2249 12.2746 4.18213 11.5048Z" fill="#A8ACD4"/>
<path d="M66.1112 1.15479C65.7263 1.15479 65.3842 1.45417 65.3842 1.88185C65.3842 2.26677 65.6835 2.60892 66.1112 2.60892C66.5389 2.60892 66.8811 2.26677 66.8811 1.88185C66.8811 1.45417 66.5389 1.15479 66.1112 1.15479Z" fill="#303151"/>
<path d="M68.0785 1.15479C67.6936 1.15479 67.3514 1.45417 67.3514 1.88185C67.3514 2.26677 67.6508 2.60892 68.0785 2.60892C68.5062 2.60892 68.8483 2.26677 68.8483 1.88185C68.8483 1.45417 68.5062 1.15479 68.0785 1.15479Z" fill="#303151"/>
<path d="M35.0611 9.15247C34.6761 9.15247 34.334 9.45185 34.334 9.87953C34.334 10.2645 34.6334 10.6066 35.0611 10.6066C35.4887 10.6066 35.7881 10.2645 35.7881 9.87953C35.8309 9.45185 35.4887 9.15247 35.0611 9.15247Z" fill="#303151"/>
<path d="M37.0712 9.15247C36.6863 9.15247 36.3441 9.45185 36.3441 9.87953C36.3441 10.2645 36.6435 10.6066 37.0712 10.6066C37.4989 10.6066 37.841 10.2645 37.841 9.87953C37.7983 9.45185 37.4561 9.15247 37.0712 9.15247Z" fill="#303151"/>
<path d="M74.3656 0.213867C74.109 0.213867 73.6813 0.299405 73.6813 0.812629V8.33992H75.0071V0.342173C74.665 0.213867 74.4511 0.213867 74.3656 0.213867Z" fill="#303151"/>
<path d="M39.7229 3.97747V7.27066H38.3543C37.2423 7.27066 36.7719 7.14235 36.7719 5.77375V3.50701C36.4297 3.37871 36.2159 3.37871 36.1304 3.37871C35.8737 3.37871 35.4461 3.46424 35.4461 3.97747V5.77375C35.4461 6.8002 35.275 7.27066 34.1202 7.27066H32.9655C32.0246 7.27066 31.8963 6.6719 31.8963 5.9876V3.33594H30.0572C27.9615 3.33594 26.5502 4.27685 26.5502 5.94483C26.5502 7.74111 27.9615 8.38265 29.2018 8.38265C30.0572 8.38265 30.7415 8.12603 31.212 7.57004C31.6396 8.29711 32.4095 8.38265 33.0938 8.38265H34.5479C35.1895 8.38265 35.7882 8.12603 36.0448 7.61281C36.3014 8.12603 36.7719 8.38265 37.4562 8.38265H41.006V3.46424C40.6638 3.33594 40.45 3.33594 40.3645 3.33594C40.1506 3.33594 39.7229 3.42147 39.7229 3.97747ZM30.5277 5.77375C30.5277 7.3562 29.2018 7.27066 29.1591 7.27066C28.0043 7.27066 27.8332 6.37252 27.8332 5.9876C27.8332 4.57623 29.3729 4.49069 30.0144 4.49069H30.4849L30.5277 5.77375Z" fill="#303151"/>
<path d="M71.4573 0.855398V7.2707H67.7792V3.46429C67.437 3.33598 67.2232 3.33598 67.1376 3.33598C66.881 3.33598 66.4533 3.42152 66.4533 3.93475V7.22794H62.5186C60.038 7.22794 58.8405 5.81657 58.1562 4.91843C58.7977 4.36243 59.5676 4.31966 59.9953 4.36243C60.594 4.4052 61.15 4.61904 61.4922 4.96119C61.2783 5.26058 60.8079 5.7738 60.2519 6.20149C60.594 6.37256 60.979 6.54364 61.4494 6.62917C62.1765 5.94487 62.6897 5.17504 62.9035 4.91843C62.7752 4.70458 62.0482 3.37875 60.0808 3.25045C57.9424 3.12214 56.8304 4.66181 56.6593 4.87566C57.3008 5.68826 57.8568 6.41533 58.6694 7.05686C58.2845 7.18517 57.8568 7.22794 57.3864 7.22794H49.2176V0.342173C48.8754 0.213867 48.6616 0.213867 48.576 0.213867C48.3194 0.213867 47.8917 0.299405 47.8917 0.812629V8.33992H57.3864C58.2845 8.33992 59.0971 8.12608 59.8242 7.78393C60.6368 8.16885 61.5349 8.33992 62.5186 8.33992H72.7831V0.342173C72.441 0.213867 72.2271 0.213867 72.1416 0.213867C71.885 0.213867 71.4573 0.299405 71.4573 0.855398Z" fill="#303151"/>
<path d="M40.3644 1.15479C39.9795 1.15479 39.6373 1.45417 39.6373 1.88185C39.6373 2.26677 39.9367 2.60892 40.3644 2.60892C40.7921 2.60892 41.1342 2.26677 41.1342 1.88185C41.0915 1.45417 40.7493 1.15479 40.3644 1.15479Z" fill="#303151"/>
<path d="M30.9125 1.15479C30.5276 1.15479 30.1854 1.45417 30.1854 1.88185C30.1854 2.26677 30.4848 2.60892 30.9125 2.60892C31.3402 2.60892 31.6823 2.26677 31.6823 1.88185C31.6823 1.45417 31.3402 1.15479 30.9125 1.15479Z" fill="#303151"/>
<path d="M28.9024 1.15479C28.5174 1.15479 28.1753 1.45417 28.1753 1.88185C28.1753 2.26677 28.4747 2.60892 28.9024 2.60892C29.33 2.60892 29.6722 2.26677 29.6722 1.88185C29.6722 1.45417 29.33 1.15479 28.9024 1.15479Z" fill="#303151"/>
<path d="M44.4703 3.29321C43.0161 3.29321 41.6903 4.10582 41.6903 5.94487C41.6903 7.86946 43.23 8.42546 44.5986 8.42546H45.8389V8.55376C45.8389 8.89591 45.7106 9.3236 45.4112 9.62298C44.7269 10.3073 43.3583 9.96513 43.3155 9.96513C43.0589 9.87959 42.7595 9.79406 42.5029 9.66575C42.118 10.2645 42.4174 10.6922 42.8878 10.906C43.7432 11.2054 45.1546 11.291 45.9244 10.8205C46.8226 10.3073 47.1647 9.23806 47.1647 8.08331V6.41533C47.1647 4.53351 46.3093 3.29321 44.4703 3.29321ZM45.8389 7.2707H44.5986C44.2992 7.2707 43.0589 7.2707 43.0589 5.85934C43.0589 4.96119 43.6149 4.36243 44.4275 4.36243C45.3684 4.36243 45.8816 5.04673 45.8816 6.41533L45.8389 7.2707Z" fill="#303151"/>
<path d="M31.2975 18.2195C31.1692 18.305 30.8698 18.5616 30.271 18.5616C30.0572 18.5616 29.7578 18.5189 29.544 18.3478C29.2446 18.1339 29.2446 17.749 29.2446 17.5352V14.9263H31.4686C31.5969 14.6269 31.6396 14.4131 31.6396 14.3275C31.6396 13.8143 31.2975 13.7288 30.9553 13.7288H29.2874V12.1891C28.9452 12.0608 28.7314 12.0608 28.6458 12.0608C28.3892 12.0608 27.9615 12.1463 27.9615 12.6596V13.686H27.2345C26.8496 13.686 26.5502 13.7715 26.5502 14.2848C26.5502 14.3703 26.5502 14.5841 26.7212 14.8835H27.9188V17.749C27.9188 18.3478 28.1754 19.6736 29.9717 19.6736C30.2283 19.6736 30.656 19.6736 31.1692 19.4598C31.2975 19.417 31.5113 19.3315 31.8535 19.0749C31.8107 18.7755 31.5541 18.4333 31.2975 18.2195Z" fill="#303151"/>
<path d="M74.7505 14.8835C74.6222 14.5841 74.2372 13.9426 73.168 13.686C72.2271 13.4722 70.4308 13.4722 70.0887 14.1137C69.9604 14.3703 70.0031 14.6697 70.1314 14.8408C70.217 14.9691 70.2598 15.0118 70.3025 15.0546C70.3881 14.9691 70.5591 14.8835 70.8157 14.798C71.2862 14.6269 72.056 14.6269 72.612 14.7125C73.3391 14.8408 73.5529 15.3112 73.6385 15.6106C72.612 15.4823 71.2434 15.3112 70.3025 15.91C69.4044 16.466 69.105 17.6635 69.6182 18.5616C70.1314 19.4598 71.2434 19.6736 72.2699 19.7164C73.6385 19.7592 74.9215 19.5453 74.9643 19.5453V16.0383C75.0071 15.6106 74.9215 15.2257 74.7505 14.8835ZM72.5693 18.6899C72.1416 18.6899 71.7139 18.6899 71.329 18.5189C70.9868 18.3906 70.6874 18.0912 70.6019 17.749C70.5164 17.2786 70.8585 16.8509 71.1579 16.6798C71.5428 16.466 72.0133 16.5087 72.441 16.5515C72.8259 16.5943 73.2963 16.637 73.724 16.6798V18.6044C73.3819 18.6472 72.6548 18.6899 72.5693 18.6899Z" fill="#303151"/>
<path d="M38.611 15.4823L40.0651 15.91L39.3808 13.8571C39.2525 13.7715 39.0386 13.7288 38.782 13.7288C38.4399 13.7288 38.1405 13.8998 38.1405 14.2848L38.611 15.4823Z" fill="#303151"/>
<path d="M60.8079 14.3275V19.5453H62.1337V13.8571C61.7915 13.7288 61.5777 13.7288 61.4922 13.7288C61.2355 13.7288 60.8079 13.8143 60.8079 14.3275Z" fill="#303151"/>
<path d="M52.2114 14.3275V17.0647C52.2114 18.0912 51.7409 18.6899 50.7145 18.6899C50.4151 18.6899 49.2176 18.6899 49.2176 17.0647V13.8571C48.8754 13.7288 48.6616 13.7288 48.576 13.7288C48.3194 13.7288 47.8917 13.8143 47.8917 14.3275V17.4069C47.8917 19.0748 49.2603 19.8875 50.7145 19.8875C52.4252 19.8875 53.5372 18.9038 53.5372 17.4069V13.8571C53.195 13.7288 52.9812 13.7288 52.8957 13.7288C52.6391 13.7288 52.2114 13.8143 52.2114 14.3275Z" fill="#303151"/>
<path d="M67.3943 14.3275V16.8081C67.3943 17.4496 67.1377 18.4333 65.8546 18.4333C64.486 18.4333 64.3577 17.4069 64.3577 16.9364V13.8571C64.0155 13.7288 63.8017 13.7288 63.7162 13.7288C63.4596 13.7288 63.0319 13.8143 63.0319 14.3275V17.193C63.0319 19.0749 64.5288 19.5453 65.598 19.5453C66.154 19.5453 67.0093 19.3742 67.3943 18.8182C67.3943 20.4434 67.1804 21.4271 65.4697 21.4271C64.5288 21.4271 63.8445 21.2133 63.5879 21.085C63.2457 21.812 63.4596 22.1542 63.93 22.2825C64.5288 22.4536 65.7691 22.5391 66.5389 22.4108C68.1641 22.1542 68.6773 21.0422 68.6773 18.9038V13.8571C68.3352 13.7288 68.1213 13.7288 68.0358 13.7288C67.822 13.7288 67.3943 13.8143 67.3943 14.3275Z" fill="#303151"/>
<path d="M57.1726 13.5577C55.6757 13.5577 54.3499 14.3276 54.3499 16.0383V19.0749C54.3499 19.6309 54.7775 19.6737 55.0342 19.6737C55.0769 19.6737 55.3335 19.6737 55.6757 19.5454V16.3805C55.6757 14.798 56.8732 14.7553 57.1726 14.7553C58.199 14.7553 58.6695 15.354 58.6695 16.3805V19.0749C58.6695 19.6309 59.0972 19.6737 59.3538 19.6737C59.3966 19.6737 59.6532 19.6737 59.9953 19.5454V16.0383C59.9953 14.5414 58.8833 13.5577 57.1726 13.5577Z" fill="#303151"/>
<path d="M47.3357 13.8999C47.1646 13.8143 46.9508 13.7288 46.7369 13.7288C46.1809 13.686 46.0526 14.1137 45.9671 14.3276L44.7268 17.8346L43.4437 14.071C43.3582 13.8571 43.3154 13.8144 43.1016 13.7716C42.7594 13.7288 42.4173 13.686 42.1607 13.8999C42.0751 13.9854 41.9896 14.1565 41.9468 14.2848L40.7493 17.6208L40.3644 16.5943C40.3216 16.466 40.2788 16.4232 40.065 16.3377C39.4662 16.1666 38.4398 15.8672 37.7127 15.6962C37.67 15.3968 37.6272 15.0974 37.4989 14.8408C37.3706 14.5414 36.9857 13.8999 35.9164 13.6433C34.9755 13.4294 33.1792 13.4294 32.8371 14.071C32.7088 14.3276 32.7515 14.627 32.8799 14.798C32.9654 14.9263 33.0082 14.9691 33.0509 15.0119C33.1365 14.9263 33.3075 14.8408 33.5642 14.7553C34.0346 14.5842 34.8044 14.5842 35.3604 14.6697C36.0875 14.798 36.3014 15.2685 36.3869 15.5679C35.3604 15.4396 33.9918 15.2685 33.0509 15.8672C32.1528 16.4232 31.8534 17.6208 32.3666 18.5189C32.8799 19.4171 33.9918 19.6309 35.0183 19.6737C36.3869 19.7164 37.67 19.5026 37.7127 19.5026V16.8509C38.3543 16.9792 39.1241 17.1931 39.1241 17.2358C39.2096 17.3214 39.509 18.0485 39.6801 18.6472L39.9795 19.5454C40.4499 19.5454 40.8776 19.5454 41.3481 19.5454L42.6311 15.5679L43.9142 19.5454H45.2828L47.3357 13.8999ZM35.2749 18.69C34.8472 18.69 34.4195 18.69 34.0346 18.5189C33.6925 18.3906 33.3931 18.0912 33.3075 17.7491C33.222 17.2786 33.5642 16.8509 33.8635 16.6799C34.2485 16.466 34.7189 16.5088 35.1466 16.5515C35.5315 16.5943 36.002 16.6371 36.4297 16.6799V18.6044C36.1303 18.6472 35.3604 18.69 35.2749 18.69Z" fill="#303151"/>
<path d="M61.4494 11.1626C61.2356 11.1626 61.0645 11.2481 60.8934 11.3764C60.7223 11.5475 60.6796 11.7186 60.6796 11.9324C60.6796 12.1463 60.7651 12.3174 60.8934 12.4884C61.0645 12.6595 61.2356 12.7023 61.4494 12.7023C61.6632 12.7023 61.8343 12.6167 62.0054 12.4884C62.1765 12.3174 62.2192 12.1463 62.2192 11.9324C62.2192 11.7186 62.1337 11.5475 62.0054 11.3764C61.8771 11.2481 61.6632 11.1626 61.4494 11.1626Z" fill="#303151"/>
</svg>
