<svg width="40" height="37" viewBox="0 0 40 37" fill="none" xmlns="http://www.w3.org/2000/svg">
<path d="M20.3862 14.0196L20.6505 14.1905L20.9541 14.0854C22.2645 13.6443 23.6338 13.4042 25.0161 13.3732H25.1351V18.0287C25.1352 18.1196 25.1551 18.2095 25.1931 18.2921C25.231 18.3747 25.2859 18.4482 25.3547 18.5076C25.4236 18.567 25.5049 18.6108 25.5922 18.6362C25.6795 18.6615 25.7709 18.6678 25.8608 18.6545C26.013 18.6296 26.1512 18.551 26.2503 18.433C26.3494 18.3149 26.4032 18.1652 26.4014 18.011V13.3466H26.5204C27.9013 13.3881 29.2688 13.628 30.5814 14.0589L30.885 14.164L31.1493 13.9931C33.4576 12.6447 36.1172 12.0199 38.7844 12.1992C38.8805 12.2041 38.9765 12.1871 39.065 12.1496C39.1536 12.1122 39.2324 12.0552 39.2958 11.9829C39.3592 11.9106 39.4054 11.8249 39.431 11.7322C39.4566 11.6395 39.4608 11.5423 39.4435 11.4477C38.4808 6.17225 32.731 2.57178 27.8122 1.85955C27.4099 1.80323 27.0045 1.76815 26.5986 1.75444H26.4153V0.633538C26.4153 0.542531 26.3957 0.452577 26.3578 0.369832C26.3199 0.287087 26.2645 0.213506 26.1956 0.154035C26.1267 0.094563 26.0456 0.050589 25.9582 0.0251798C25.8708 -0.000229377 25.7791 -0.00649103 25.6891 0.00677196C25.537 0.0316717 25.3987 0.110266 25.2996 0.228326C25.2005 0.346385 25.1472 0.496056 25.149 0.650207V1.75444H24.9768C24.5622 1.76706 24.1489 1.80214 23.7382 1.85955C18.8056 2.5983 13.0557 6.19878 12.093 11.4605C12.0757 11.555 12.0799 11.6521 12.1054 11.7447C12.131 11.8373 12.1769 11.923 12.2402 11.9952C12.3035 12.0675 12.3825 12.1245 12.4709 12.1621C12.5594 12.1996 12.6551 12.2167 12.7511 12.212C15.4199 12.0363 18.08 12.6657 20.3872 14.0186M23.908 3.15139C24.2794 3.09771 24.6539 3.06687 25.029 3.05905C25.53 3.03266 26.0318 3.03266 26.5328 3.05905C26.8992 3.06797 27.2649 3.0988 27.6275 3.15139C31.5688 3.71627 36.0829 6.27048 37.697 10.0694C37.7368 10.164 37.7529 10.2668 37.7445 10.3691C37.736 10.4714 37.7033 10.5701 37.6485 10.6569C37.5938 10.7437 37.5185 10.8161 37.4298 10.8677C37.3411 10.9193 37.2412 10.9488 37.1386 10.9536C34.8852 11.0361 32.6852 11.6619 30.7258 12.7778C29.3838 12.3589 27.9905 12.1275 26.5851 12.0902L26.1755 12.0764H25.3845L24.9633 12.0902C23.5546 12.1394 22.1582 12.3706 20.8088 12.7778C18.8493 11.6619 16.6489 11.036 14.3954 10.9536C14.2929 10.9488 14.193 10.9193 14.1043 10.8677C14.0156 10.8161 13.9408 10.7437 13.886 10.6569C13.8312 10.5701 13.798 10.4714 13.7896 10.3691C13.7811 10.2668 13.7978 10.164 13.8376 10.0694C15.4516 6.27048 19.9667 3.71627 23.908 3.15139Z" fill="#FAA62E"/>
<path d="M35.81 21.9968L25.9458 26.1366C25.8484 26.176 25.7596 26.2342 25.6848 26.3081C25.6101 26.3819 25.5508 26.4698 25.5102 26.5667C25.4697 26.6635 25.449 26.7674 25.4488 26.8725C25.4487 26.9775 25.4695 27.0815 25.5098 27.1785C25.5501 27.2755 25.6089 27.3635 25.6834 27.4375C25.7579 27.5115 25.8466 27.57 25.9439 27.6096C26.0411 27.6491 26.1454 27.669 26.2504 27.6681C26.3554 27.6672 26.4589 27.6456 26.5555 27.6043L36.4197 23.4645C36.6226 23.3778 36.8487 23.3596 37.0629 23.4128C37.2771 23.466 37.4676 23.5877 37.6064 23.7593C37.6962 23.8685 37.7618 23.9956 37.7988 24.1321C37.8357 24.2686 37.8433 24.4114 37.8208 24.551C37.7986 24.6924 37.7456 24.8272 37.6659 24.9459C37.5861 25.0647 37.4813 25.1646 37.3589 25.2387C33.0541 28.0425 23.2747 33.589 22.812 33.8484C22.7963 33.8651 22.7793 33.8651 22.7626 33.8818C21.4849 34.6005 19.9833 34.811 18.5572 34.4712C18.459 34.4545 16.1816 34.1765 10.7893 33.5144L8.01812 33.1676V22.4085C8.46413 22.3751 8.85996 22.3593 9.02402 22.3593H9.12235C12.8388 22.2839 16.5489 22.6998 20.1565 23.5962C20.6349 23.6944 21.1134 23.7926 21.6085 23.8909C21.8582 23.9385 22.0836 24.0715 22.246 24.2671C22.4084 24.4626 22.4973 24.7085 22.4983 24.9627C22.499 25.0071 22.4933 25.0514 22.4815 25.0943C22.4463 25.3361 22.3369 25.5609 22.1683 25.7378C21.9614 25.9404 21.6827 26.053 21.3931 26.0511H13.889C13.679 26.0511 13.4772 26.1346 13.3287 26.283C13.1802 26.4315 13.097 26.633 13.097 26.843C13.1001 27.052 13.1842 27.2517 13.3321 27.3995C13.4799 27.5473 13.6799 27.6317 13.889 27.6347H21.4267C22.0809 27.6372 22.7134 27.4005 23.2054 26.9692C23.6973 26.5379 24.0145 25.9417 24.0976 25.2927C24.1178 25.1729 24.1291 25.0517 24.1312 24.9302C24.1315 24.3059 23.9144 23.701 23.5172 23.2195C23.1199 22.7379 22.5673 22.4098 21.9544 22.2915L20.5201 21.9968C16.7769 21.0738 12.9284 20.6467 9.07391 20.7266H8.9914C8.80966 20.7266 8.44743 20.76 8.01812 20.7757C7.97382 20.6081 7.87578 20.4596 7.73895 20.3531C7.60212 20.2467 7.43407 20.1881 7.2607 20.1863H1.32223C1.11223 20.1863 0.910453 20.2697 0.76196 20.4182C0.613468 20.5667 0.530273 20.7681 0.530273 20.9781V34.4034C0.530273 34.5074 0.550921 34.6104 0.590713 34.7065C0.630505 34.8025 0.688434 34.8898 0.76196 34.9633C0.835486 35.0369 0.923004 35.0952 1.01907 35.135C1.11514 35.1748 1.21825 35.1953 1.32223 35.1953H7.2607C7.41218 35.1918 7.55982 35.1469 7.68762 35.0655C7.81542 34.9841 7.9183 34.8693 7.98551 34.7335L10.6382 35.0636C13.8044 35.4565 18.1424 35.9871 18.3232 36.0038C18.8838 36.1054 19.4519 36.1606 20.0217 36.1688C21.2728 36.1847 22.5045 35.8598 23.5848 35.2287C23.6015 35.2287 23.6017 35.2119 23.6174 35.2119C23.7157 35.1628 33.8433 29.4394 38.2631 26.5532C38.5697 26.3539 38.8309 26.0925 39.0301 25.7859C39.2293 25.4792 39.3621 25.1342 39.4196 24.7731C39.4771 24.412 39.4581 24.0428 39.364 23.6895C39.2698 23.3361 39.1023 23.0065 38.8728 22.7218C38.5053 22.2903 38.0098 21.9872 37.4582 21.8567C36.9066 21.7261 36.3276 21.7748 35.8057 21.9958M6.44716 33.6735H2.09308V21.8485H6.44716V33.6735Z" fill="#146394"/>
<path d="M35.809 21.9968L35.6018 21.5007L25.7386 25.6405L25.9468 26.1366L25.7501 25.6365C25.4981 25.7374 25.2838 25.9142 25.1371 26.1425C24.997 26.3598 24.9229 26.6129 24.9231 26.8714C24.9215 27.0469 24.955 27.2209 25.0215 27.3832L25.5174 27.176L25.0176 27.3725C25.1185 27.6244 25.2949 27.8386 25.5232 27.9854C25.7054 28.1033 25.9139 28.1751 26.13 28.1948C26.3461 28.2145 26.5636 28.1814 26.7641 28.0985L36.6274 23.9586C36.723 23.9173 36.8295 23.9086 36.9305 23.9338C37.0316 23.9591 37.1212 24.0168 37.1862 24.0981L37.605 23.7592L37.1814 24.0923C37.2511 24.1751 37.2906 24.2788 37.2941 24.387C37.294 24.41 37.2922 24.433 37.2884 24.4557C37.2781 24.5257 37.2533 24.5927 37.215 24.6522C37.1806 24.7042 37.1347 24.7479 37.0812 24.7799L37.0735 24.7848L37.0644 24.7907C35.9975 25.4853 34.5828 26.3557 33.0561 27.2712C30.7662 28.6466 28.2249 30.1202 26.213 31.2843C25.207 31.8639 24.3328 32.3649 23.6894 32.7314L22.5439 33.3837L22.482 33.419L22.4307 33.4701L22.7617 33.8012L22.5142 33.4082C22.4839 33.4269 22.4559 33.449 22.4307 33.4741L22.7617 33.8051L22.5142 33.4122L22.7362 33.7678L22.5458 33.3945L22.5142 33.4122L22.7362 33.7678L22.5458 33.3945L22.6173 33.536L22.5468 33.3955C22.5468 33.3955 22.5279 33.4043 22.4954 33.425C22.4544 33.4498 22.4167 33.4795 22.3827 33.5134L22.7626 33.8945L22.4868 33.4328C22.1248 33.6504 21.7337 33.8157 21.3255 33.924C20.8953 34.0351 20.4526 34.0896 20.0083 34.0861C19.5529 34.0827 19.0987 34.0396 18.6508 33.9574H18.621L18.4297 33.9328C17.7616 33.8484 15.4313 33.5615 10.8593 33.0025L8.55922 32.7147V22.4202H8.02101L8.06035 22.9576C8.27844 22.9419 8.48484 22.9291 8.64988 22.9212C8.81492 22.9134 8.95727 22.9094 9.02211 22.9094H9.15498C9.62915 22.88 10.1016 22.8655 10.5724 22.8662C13.7655 22.9734 16.94 23.399 20.0486 24.1365C20.527 24.2347 21.0064 24.3329 21.5035 24.4312C21.632 24.4567 21.7477 24.5262 21.8306 24.6277C21.9135 24.7261 21.9586 24.8507 21.9582 24.9793V24.9872H22.0877L21.9592 24.9695V24.9842H22.0892L21.9601 24.9665L22.0349 24.9764L21.9611 24.9636L22.0359 24.9734L21.962 24.9607V24.9695L21.9524 25.0049V25.0413C21.9447 25.105 21.924 25.1665 21.8915 25.222C21.8565 25.2821 21.8153 25.3384 21.7687 25.39L22.1736 25.7446L21.7932 25.3634C21.6875 25.4645 21.5466 25.5202 21.4003 25.5187H13.8957C13.543 25.5189 13.2049 25.6591 12.9555 25.9085C12.7061 26.1579 12.5658 26.4961 12.5655 26.8488C12.5655 27.0269 12.6018 27.2031 12.6725 27.3665C12.7745 27.6016 12.9414 27.8029 13.1531 27.9471C13.3718 28.0971 13.6305 28.1776 13.8957 28.178H21.4339C22.294 28.1776 23.1188 27.8364 23.7277 27.229C24.2248 26.7244 24.5428 26.0709 24.6334 25.3683L24.099 25.3055L24.6315 25.3821C24.6549 25.2369 24.6677 25.0901 24.6698 24.943C24.6704 24.1937 24.4098 23.4677 23.9331 22.8897C23.4563 22.3117 22.7931 21.9178 22.0575 21.7758L21.9592 22.3043L22.0685 21.7768L20.6338 21.482C17.3424 20.7077 13.9822 20.2632 10.6027 20.1548C10.0866 20.1548 9.5682 20.1708 9.04753 20.2029L9.08207 20.7403V20.202H8.99957C8.87775 20.202 8.74114 20.2118 8.57217 20.2216C8.4032 20.2315 8.21149 20.2442 8.00518 20.2521L8.02581 20.7904L8.54387 20.6421C8.4664 20.3661 8.30444 20.1212 8.08097 19.9416C7.84992 19.7574 7.56294 19.6573 7.26743 19.6577H1.32992C0.977137 19.6577 0.638711 19.7979 0.389258 20.0473C0.139806 20.2968 -0.000244141 20.6351 -0.000244141 20.9879V34.4132C-0.000244141 34.5879 0.0341223 34.7609 0.100969 34.9222C0.167816 35.0836 0.265742 35.2303 0.389258 35.3538C0.512775 35.4773 0.659591 35.5753 0.820973 35.6421C0.982355 35.709 1.15524 35.7434 1.32992 35.7434H7.26743C7.5257 35.7424 7.77829 35.6659 7.99367 35.5233C8.19882 35.3891 8.36463 35.203 8.47479 34.984L7.99367 34.7433L7.927 35.2778L10.5792 35.6078C12.1628 35.8043 14.0394 36.0371 15.5434 36.2208L17.4353 36.4507L18.0162 36.5205L18.1889 36.5411L18.2872 36.5509L18.3352 36.0145L18.2469 36.545C18.8368 36.6514 19.4343 36.7089 20.0337 36.7169C21.379 36.7319 22.7031 36.3815 23.8649 35.7031L23.593 35.2384V35.7768C23.6438 35.7769 23.6942 35.77 23.7431 35.7562C23.8175 35.7352 23.8867 35.699 23.9465 35.65C23.9617 35.6378 23.976 35.6247 23.9897 35.6108L23.6539 35.2748L23.9662 35.6334L23.9897 35.6108L23.6539 35.2748L23.9662 35.6334L23.6265 35.2414L23.8309 35.7168C23.8802 35.6954 23.9256 35.6666 23.9662 35.6314L23.6265 35.2384L23.8309 35.7139L23.6256 35.2375V35.7562C23.6961 35.7559 23.7659 35.7415 23.8309 35.7139L23.6256 35.2375V35.7562H23.7532L23.8669 35.6992L23.8865 35.6894L23.9446 35.6569C24.1528 35.54 24.9017 35.1176 25.9784 34.5026C27.5915 33.5812 29.9361 32.2313 32.2791 30.8501C34.6221 29.4689 36.9596 28.0582 38.5667 27.009C38.9359 26.7685 39.2503 26.4534 39.4901 26.0838C39.73 25.7143 39.8895 25.2986 39.9588 24.8635C40.028 24.4284 40.0054 23.9836 39.8921 23.5579C39.7788 23.1322 39.5779 22.7349 39.3016 22.3917L39.2954 22.3839L39.2877 22.375C38.9859 22.0239 38.612 21.7419 38.1916 21.548C37.7713 21.3541 37.3143 21.2528 36.8514 21.2512C36.4226 21.2514 35.9982 21.3383 35.6037 21.5066L35.811 22.0027L36.0211 22.4939C36.2825 22.3821 36.5642 22.3243 36.8485 22.3239C37.1573 22.3258 37.462 22.3939 37.7422 22.5238C38.0223 22.6536 38.2712 22.8421 38.4722 23.0765L38.879 22.7238L38.4583 23.0597C38.7548 23.4289 38.9169 23.888 38.9174 24.3614C38.9173 24.4696 38.9092 24.5776 38.8929 24.6846C38.8472 24.9718 38.7414 25.2462 38.5831 25.49C38.4247 25.7338 38.2171 25.9417 37.9734 26.1002C36.879 26.8154 35.419 27.7114 33.8471 28.6545C31.4894 30.0662 28.8872 31.58 26.8615 32.7441C25.8487 33.3267 24.9803 33.8248 24.3624 34.1735L23.6333 34.5861L23.4366 34.6981L23.3838 34.7276L23.3709 34.7345L23.5488 35.0606L23.3829 34.7286L23.3709 34.7345L23.5488 35.0606L23.3838 34.7276L23.6246 35.2099V34.6716C23.5738 34.6717 23.5229 34.6786 23.474 34.6922C23.3996 34.7131 23.3303 34.7492 23.2706 34.7983C23.2555 34.8106 23.2411 34.8238 23.2274 34.8376L23.5637 35.1736L23.2509 34.815L23.2274 34.8366L23.5637 35.1736L23.2509 34.815L23.591 35.207L23.3867 34.7325C23.3374 34.754 23.2915 34.7828 23.2509 34.818L23.591 35.211L23.3867 34.7364L23.592 35.2129V34.6942C23.5214 34.6945 23.4516 34.7088 23.3867 34.7364L23.592 35.2129V34.6942H23.4467L23.321 34.7679C22.3235 35.3513 21.1853 35.6509 20.0299 35.6343C19.4898 35.6262 18.9511 35.5736 18.4196 35.4772H18.3999H18.3793L18.2958 35.4673C17.9579 35.4281 16.7957 35.2886 15.3486 35.1117C13.9016 34.9349 12.1793 34.7188 10.7077 34.539L7.6742 34.1618L7.50535 34.5026C7.48003 34.5514 7.4426 34.5927 7.39647 34.6225C7.35659 34.6502 7.30926 34.6656 7.26072 34.6667H1.3232C1.25621 34.6667 1.1918 34.6402 1.14428 34.593C1.12015 34.5698 1.101 34.5419 1.08816 34.5109C1.07531 34.48 1.06935 34.4467 1.06993 34.4132V20.9879C1.06999 20.9546 1.0763 20.9217 1.08912 20.891C1.10193 20.8604 1.12067 20.8325 1.14428 20.8091C1.16754 20.785 1.19538 20.766 1.22631 20.7531C1.25723 20.7403 1.29068 20.7339 1.32416 20.7344H7.26168C7.31359 20.7337 7.3641 20.7515 7.40414 20.7846C7.45224 20.824 7.48672 20.8776 7.50248 20.9378L7.61856 21.3445L8.04068 21.3278C8.2627 21.319 8.46517 21.3062 8.63021 21.2964C8.79525 21.2865 8.93101 21.2787 8.99093 21.2787H9.10654C9.60297 21.2472 10.0989 21.2319 10.594 21.2325C13.9022 21.3417 17.1915 21.7793 20.4131 22.5391L21.8484 22.8338H21.8541C22.3445 22.9282 22.7867 23.1905 23.1046 23.5756C23.4225 23.9607 23.5961 24.4446 23.5958 24.944C23.5934 25.0401 23.5843 25.136 23.5685 25.2309V25.2436C23.5051 25.7126 23.2901 26.1479 22.9564 26.4834L23.3493 26.8567L22.9684 26.4755C22.5616 26.8815 22.0105 27.1097 21.4358 27.1101H13.8976C13.8661 27.1099 13.8352 27.1033 13.8065 27.0905C13.7587 27.0695 13.7177 27.0354 13.6885 26.9922C13.6603 26.9526 13.6449 26.9053 13.6443 26.8567C13.6448 26.7896 13.6718 26.7254 13.7192 26.6779C13.7425 26.6538 13.7703 26.6348 13.8012 26.622C13.8321 26.6092 13.8651 26.6028 13.8986 26.6032H21.4032C21.8353 26.6051 22.2505 26.436 22.5583 26.1327L22.5703 26.1199L22.5832 26.1062C22.6797 25.9983 22.7642 25.8803 22.8355 25.7544C22.938 25.5728 23.0027 25.3723 23.026 25.165L22.4906 25.1051L23.0135 25.2358C23.0263 25.1847 23.0353 25.1329 23.0408 25.0805C23.0408 25.0314 23.0408 24.9892 23.0408 24.9734C23.0406 24.5923 22.9066 24.2234 22.6619 23.9312C22.4193 23.6419 22.0842 23.4449 21.7136 23.3732C21.2224 23.2749 20.7438 23.1766 20.2654 23.0784C17.0868 22.3258 13.8411 21.893 10.5763 21.7865C10.0844 21.7865 9.58989 21.8016 9.09215 21.8318L9.12524 22.3691V21.8308H9.02691C8.92867 21.8308 8.78557 21.8308 8.60383 21.8436C8.42209 21.8563 8.2106 21.8652 7.98072 21.8819L7.48281 21.9192V33.6578L10.7245 34.0635L16.5934 34.7826L17.9931 34.9555L18.3481 35.0007L18.4464 35.0125H18.4719H18.4767L18.5208 34.7237L18.4728 35.0115L18.517 34.7227L18.469 35.0105C18.9785 35.1039 19.4951 35.1526 20.0131 35.1559C20.5508 35.16 21.0869 35.0939 21.6076 34.9594C22.1124 34.825 22.5958 34.6204 23.0437 34.3514L23.1008 34.3169L23.1478 34.2698L22.8159 33.9387L23.0643 34.3317C23.0941 34.3127 23.1217 34.2906 23.1469 34.2659L22.8149 33.9348L23.0634 34.3277L22.8413 33.9731L23.0313 34.3464L23.0634 34.3277L22.8413 33.9731L23.0313 34.3464L22.9641 34.2148L23.0303 34.3474L22.9631 34.2158L23.0289 34.3484C23.0289 34.3484 23.0487 34.3386 23.0821 34.3199C23.1228 34.295 23.1607 34.2653 23.1943 34.2315L22.814 33.8513L23.0811 34.3189C23.1941 34.2541 23.8954 33.8572 24.9476 33.256C26.5194 32.3552 28.8881 30.9965 31.2655 29.5927C33.6429 28.1888 36.0299 26.7536 37.6577 25.6936L37.3632 25.2426L37.639 25.7044C37.8296 25.5903 37.9927 25.4353 38.1158 25.2505C38.2381 25.0657 38.3195 24.8571 38.3552 24.6384C38.3698 24.5547 38.377 24.4699 38.3768 24.385C38.3737 24.0345 38.253 23.6954 38.0333 23.4223C37.8212 23.1592 37.5289 22.9725 37.2011 22.8906C36.8732 22.8087 36.5277 22.836 36.2168 22.9684L26.3555 27.1082C26.3243 27.121 26.2908 27.1277 26.2571 27.1278C26.206 27.1277 26.1559 27.1131 26.1127 27.0856C26.072 27.0599 26.0406 27.0221 26.0226 26.9775V26.9696C26.0095 26.9386 26.0028 26.9052 26.0029 26.8714C26.0031 26.82 26.0177 26.7696 26.0451 26.726C26.0714 26.6857 26.1093 26.6545 26.154 26.6366L36.0211 22.4939L35.809 21.9968ZM6.45101 33.6735V33.1351H2.63561V22.3859H5.91281V33.6735H6.45101H6.9897V21.3091H1.55873V34.2118H6.9897V33.6735H6.45101Z" fill="#146394"/>
</svg>
