<svg width="75" height="23" viewBox="0 0 75 23" fill="none" xmlns="http://www.w3.org/2000/svg">
<path d="M18.4241 4.31964C18.5524 4.19133 18.5524 3.93472 18.4241 3.80642C16.4995 1.4969 13.634 0 10.3835 0C7.13311 0 4.26761 1.4969 2.34302 3.80642C5.85005 0.641531 12.522 4.44795 12.522 4.44795C13.4629 4.96117 14.3183 5.51716 15.473 5.51716C16.9699 5.51716 17.8681 4.83286 18.253 4.49072C18.2957 4.44795 18.3813 4.40518 18.4241 4.31964Z" fill="#6C48F6"/>
<path d="M12.5221 4.49093C12.4793 4.49093 5.85014 0.684513 2.34311 3.8494C2.2148 3.9777 2.2148 4.19155 2.30034 4.31985C2.34311 4.36262 3.19848 5.73122 5.29415 5.73122C6.3206 5.73122 7.17597 5.218 7.94581 4.74754C8.71564 4.27709 9.44271 3.8494 10.3409 3.8494C11.1962 3.80663 11.8378 4.10601 12.5221 4.49093Z" fill="#A8ACD4"/>
<path d="M11.6239 20.3581C11.6666 20.5291 11.8805 20.6574 12.0516 20.6147C15.0026 20.1442 17.7398 18.3479 19.365 15.568C20.9902 12.7452 21.1613 9.49481 20.0921 6.71484C21.0758 11.3339 14.4466 15.183 14.4466 15.183C13.5485 15.739 12.6076 16.2095 12.0516 17.1932C11.2817 18.4762 11.4528 19.631 11.5383 20.1014C11.5383 20.187 11.5811 20.2725 11.6239 20.3581Z" fill="#6C48F6"/>
<path d="M14.4465 15.1828C14.4893 15.1828 21.0757 11.3336 20.092 6.71462C20.0492 6.54355 19.8782 6.45801 19.7071 6.45801C19.6215 6.45801 18.0391 6.54355 17.0127 8.33983C16.4994 9.23797 16.4994 10.2217 16.5422 11.1626C16.5422 12.0607 16.585 12.9161 16.1145 13.6859C15.6868 14.3702 15.0881 14.7979 14.4465 15.1828Z" fill="#A8ACD4"/>
<path d="M1.14552 6.458C0.97445 6.41523 0.760606 6.54353 0.675069 6.71461C-0.394149 9.53734 -0.223074 12.7878 1.40214 15.5677C3.02735 18.3905 5.76455 20.144 8.71559 20.6144C4.22487 19.1603 4.22487 11.4619 4.22487 11.4619C4.1821 10.4355 4.26764 9.36627 3.71165 8.38259C2.94181 7.09953 1.91536 6.62907 1.44491 6.50077C1.3166 6.50077 1.23106 6.458 1.14552 6.458Z" fill="#6C48F6"/>
<path d="M4.18213 11.5049C4.18213 11.5477 4.2249 19.2033 8.67284 20.6574C8.84392 20.7002 9.01499 20.6146 9.10053 20.4435C9.1433 20.4008 9.87037 18.9466 8.80115 17.1504C8.28793 16.2522 7.43255 15.7818 6.61995 15.3113C5.85011 14.8836 5.08027 14.4559 4.65258 13.6861C4.26767 13.0018 4.2249 12.2747 4.18213 11.5049Z" fill="#A8ACD4"/>
<path d="M66.1112 1.15479C65.7263 1.15479 65.3842 1.45417 65.3842 1.88185C65.3842 2.26677 65.6835 2.60892 66.1112 2.60892C66.5389 2.60892 66.8811 2.26677 66.8811 1.88185C66.8811 1.45417 66.5389 1.15479 66.1112 1.15479Z" fill="#303151"/>
<path d="M68.0785 1.15479C67.6936 1.15479 67.3514 1.45417 67.3514 1.88185C67.3514 2.26677 67.6508 2.60892 68.0785 2.60892C68.5062 2.60892 68.8483 2.26677 68.8483 1.88185C68.8483 1.45417 68.5062 1.15479 68.0785 1.15479Z" fill="#303151"/>
<path d="M35.0611 9.15234C34.6761 9.15234 34.334 9.45173 34.334 9.87941C34.334 10.2643 34.6334 10.6065 35.0611 10.6065C35.4887 10.6065 35.7881 10.2643 35.7881 9.87941C35.8309 9.45173 35.4887 9.15234 35.0611 9.15234Z" fill="#303151"/>
<path d="M37.0712 9.15234C36.6863 9.15234 36.3441 9.45173 36.3441 9.87941C36.3441 10.2643 36.6435 10.6065 37.0712 10.6065C37.4989 10.6065 37.841 10.2643 37.841 9.87941C37.7983 9.45173 37.4561 9.15234 37.0712 9.15234Z" fill="#303151"/>
<path d="M74.3656 0.213867C74.109 0.213867 73.6813 0.299405 73.6813 0.812629V8.33992H75.0071V0.342173C74.665 0.213867 74.4511 0.213867 74.3656 0.213867Z" fill="#303151"/>
<path d="M39.7229 3.97747V7.27066H38.3543C37.2423 7.27066 36.7719 7.14235 36.7719 5.77375V3.50701C36.4297 3.37871 36.2159 3.37871 36.1304 3.37871C35.8737 3.37871 35.4461 3.46424 35.4461 3.97747V5.77375C35.4461 6.8002 35.275 7.27066 34.1202 7.27066H32.9655C32.0246 7.27066 31.8963 6.6719 31.8963 5.9876V3.33594H30.0572C27.9615 3.33594 26.5502 4.27685 26.5502 5.94483C26.5502 7.74111 27.9615 8.38265 29.2018 8.38265C30.0572 8.38265 30.7415 8.12603 31.212 7.57004C31.6396 8.29711 32.4095 8.38265 33.0938 8.38265H34.5479C35.1895 8.38265 35.7882 8.12603 36.0448 7.61281C36.3014 8.12603 36.7719 8.38265 37.4562 8.38265H41.006V3.46424C40.6638 3.33594 40.45 3.33594 40.3645 3.33594C40.1506 3.33594 39.7229 3.42147 39.7229 3.97747ZM30.5277 5.77375C30.5277 7.3562 29.2018 7.27066 29.1591 7.27066C28.0043 7.27066 27.8332 6.37252 27.8332 5.9876C27.8332 4.57623 29.3729 4.49069 30.0144 4.49069H30.4849L30.5277 5.77375Z" fill="#303151"/>
<path d="M71.4573 0.855398V7.2707H67.7792V3.46429C67.437 3.33598 67.2232 3.33598 67.1376 3.33598C66.881 3.33598 66.4533 3.42152 66.4533 3.93475V7.22794H62.5186C60.038 7.22794 58.8405 5.81657 58.1562 4.91843C58.7977 4.36243 59.5676 4.31966 59.9953 4.36243C60.594 4.4052 61.15 4.61904 61.4922 4.96119C61.2783 5.26058 60.8079 5.7738 60.2519 6.20149C60.594 6.37256 60.979 6.54364 61.4494 6.62917C62.1765 5.94487 62.6897 5.17504 62.9035 4.91843C62.7752 4.70458 62.0482 3.37875 60.0808 3.25045C57.9424 3.12214 56.8304 4.66181 56.6593 4.87566C57.3008 5.68826 57.8568 6.41533 58.6694 7.05686C58.2845 7.18517 57.8568 7.22794 57.3864 7.22794H49.2176V0.342173C48.8754 0.213867 48.6616 0.213867 48.576 0.213867C48.3194 0.213867 47.8917 0.299405 47.8917 0.812629V8.33992H57.3864C58.2845 8.33992 59.0971 8.12608 59.8242 7.78393C60.6368 8.16885 61.5349 8.33992 62.5186 8.33992H72.7831V0.342173C72.441 0.213867 72.2271 0.213867 72.1416 0.213867C71.885 0.213867 71.4573 0.299405 71.4573 0.855398Z" fill="#303151"/>
<path d="M40.3644 1.15479C39.9795 1.15479 39.6373 1.45417 39.6373 1.88185C39.6373 2.26677 39.9367 2.60892 40.3644 2.60892C40.7921 2.60892 41.1342 2.26677 41.1342 1.88185C41.0915 1.45417 40.7493 1.15479 40.3644 1.15479Z" fill="#303151"/>
<path d="M30.9125 1.15479C30.5276 1.15479 30.1854 1.45417 30.1854 1.88185C30.1854 2.26677 30.4848 2.60892 30.9125 2.60892C31.3402 2.60892 31.6823 2.26677 31.6823 1.88185C31.6823 1.45417 31.3402 1.15479 30.9125 1.15479Z" fill="#303151"/>
<path d="M28.9024 1.15479C28.5174 1.15479 28.1753 1.45417 28.1753 1.88185C28.1753 2.26677 28.4747 2.60892 28.9024 2.60892C29.33 2.60892 29.6722 2.26677 29.6722 1.88185C29.6722 1.45417 29.33 1.15479 28.9024 1.15479Z" fill="#303151"/>
<path d="M44.4703 3.29297C43.0161 3.29297 41.6903 4.10557 41.6903 5.94463C41.6903 7.86922 43.23 8.42521 44.5986 8.42521H45.8389V8.55352C45.8389 8.89567 45.7106 9.32336 45.4112 9.62274C44.7269 10.307 43.3583 9.96489 43.3155 9.96489C43.0589 9.87935 42.7595 9.79381 42.5029 9.66551C42.118 10.2643 42.4174 10.692 42.8878 10.9058C43.7432 11.2052 45.1546 11.2907 45.9244 10.8203C46.8226 10.307 47.1647 9.23782 47.1647 8.08306V6.41508C47.1647 4.53326 46.3093 3.29297 44.4703 3.29297ZM45.8389 7.27046H44.5986C44.2992 7.27046 43.0589 7.27046 43.0589 5.85909C43.0589 4.96095 43.6149 4.36219 44.4275 4.36219C45.3684 4.36219 45.8816 5.04649 45.8816 6.41508L45.8389 7.27046Z" fill="#303151"/>
<path d="M31.2975 18.2192C31.1692 18.3048 30.8698 18.5614 30.271 18.5614C30.0572 18.5614 29.7578 18.5186 29.544 18.3475C29.2446 18.1337 29.2446 17.7488 29.2446 17.5349V14.9261H31.4686C31.5969 14.6267 31.6396 14.4128 31.6396 14.3273C31.6396 13.8141 31.2975 13.7285 30.9553 13.7285H29.2874V12.1889C28.9452 12.0605 28.7314 12.0605 28.6458 12.0605C28.3892 12.0605 27.9615 12.1461 27.9615 12.6593V13.6858H27.2345C26.8496 13.6858 26.5502 13.7713 26.5502 14.2845C26.5502 14.3701 26.5502 14.5839 26.7212 14.8833H27.9188V17.7488C27.9188 18.3475 28.1754 19.6734 29.9717 19.6734C30.2283 19.6734 30.656 19.6734 31.1692 19.4595C31.2975 19.4168 31.5113 19.3312 31.8535 19.0746C31.8107 18.7752 31.5541 18.4331 31.2975 18.2192Z" fill="#303151"/>
<path d="M74.7505 14.8835C74.6222 14.5841 74.2372 13.9426 73.168 13.686C72.2271 13.4722 70.4308 13.4722 70.0887 14.1137C69.9604 14.3703 70.0031 14.6697 70.1314 14.8408C70.217 14.9691 70.2598 15.0118 70.3025 15.0546C70.3881 14.9691 70.5591 14.8835 70.8157 14.798C71.2862 14.6269 72.056 14.6269 72.612 14.7125C73.3391 14.8408 73.5529 15.3112 73.6385 15.6106C72.612 15.4823 71.2434 15.3112 70.3025 15.91C69.4044 16.466 69.105 17.6635 69.6182 18.5616C70.1314 19.4598 71.2434 19.6736 72.2699 19.7164C73.6385 19.7592 74.9215 19.5453 74.9643 19.5453V16.0383C75.0071 15.6106 74.9215 15.2257 74.7505 14.8835ZM72.5693 18.6899C72.1416 18.6899 71.7139 18.6899 71.329 18.5189C70.9868 18.3906 70.6874 18.0912 70.6019 17.749C70.5164 17.2786 70.8585 16.8509 71.1579 16.6798C71.5428 16.466 72.0133 16.5087 72.441 16.5515C72.8259 16.5943 73.2963 16.637 73.724 16.6798V18.6044C73.3819 18.6472 72.6548 18.6899 72.5693 18.6899Z" fill="#303151"/>
<path d="M38.611 15.482L40.0651 15.9097L39.3808 13.8568C39.2525 13.7713 39.0386 13.7285 38.782 13.7285C38.4399 13.7285 38.1405 13.8996 38.1405 14.2845L38.611 15.482Z" fill="#303151"/>
<path d="M60.8079 14.3273V19.5451H62.1337V13.8568C61.7915 13.7285 61.5777 13.7285 61.4922 13.7285C61.2355 13.7285 60.8079 13.8141 60.8079 14.3273Z" fill="#303151"/>
<path d="M52.2114 14.3273V17.0645C52.2114 18.0909 51.7409 18.6897 50.7145 18.6897C50.4151 18.6897 49.2176 18.6897 49.2176 17.0645V13.8568C48.8754 13.7285 48.6616 13.7285 48.576 13.7285C48.3194 13.7285 47.8917 13.8141 47.8917 14.3273V17.4066C47.8917 19.0746 49.2603 19.8872 50.7145 19.8872C52.4252 19.8872 53.5372 18.9035 53.5372 17.4066V13.8568C53.195 13.7285 52.9812 13.7285 52.8957 13.7285C52.6391 13.7285 52.2114 13.8141 52.2114 14.3273Z" fill="#303151"/>
<path d="M67.3943 14.3273V16.8079C67.3943 17.4494 67.1377 18.4331 65.8546 18.4331C64.486 18.4331 64.3577 17.4066 64.3577 16.9362V13.8568C64.0155 13.7285 63.8017 13.7285 63.7162 13.7285C63.4596 13.7285 63.0319 13.8141 63.0319 14.3273V17.1928C63.0319 19.0746 64.5288 19.5451 65.598 19.5451C66.154 19.5451 67.0093 19.374 67.3943 18.818C67.3943 20.4432 67.1804 21.4269 65.4697 21.4269C64.5288 21.4269 63.8445 21.213 63.5879 21.0847C63.2457 21.8118 63.4596 22.154 63.93 22.2823C64.5288 22.4533 65.7691 22.5389 66.5389 22.4106C68.1641 22.154 68.6773 21.042 68.6773 18.9035V13.8568C68.3352 13.7285 68.1213 13.7285 68.0358 13.7285C67.822 13.7285 67.3943 13.8141 67.3943 14.3273Z" fill="#303151"/>
<path d="M57.1726 13.5576C55.6757 13.5576 54.3499 14.3275 54.3499 16.0382V19.0748C54.3499 19.6308 54.7775 19.6735 55.0342 19.6735C55.0769 19.6735 55.3335 19.6735 55.6757 19.5452V16.3804C55.6757 14.7979 56.8732 14.7551 57.1726 14.7551C58.199 14.7551 58.6695 15.3539 58.6695 16.3804V19.0748C58.6695 19.6308 59.0972 19.6735 59.3538 19.6735C59.3966 19.6735 59.6532 19.6735 59.9953 19.5452V16.0382C59.9953 14.5413 58.8833 13.5576 57.1726 13.5576Z" fill="#303151"/>
<path d="M47.3357 13.8996C47.1646 13.8141 46.9508 13.7286 46.7369 13.7286C46.1809 13.6858 46.0526 14.1135 45.9671 14.3273L44.7268 17.8344L43.4437 14.0707C43.3582 13.8569 43.3154 13.8141 43.1016 13.7713C42.7594 13.7286 42.4173 13.6858 42.1607 13.8996C42.0751 13.9852 41.9896 14.1563 41.9468 14.2846L40.7493 17.6205L40.3644 16.5941C40.3216 16.4658 40.2788 16.423 40.065 16.3375C39.4662 16.1664 38.4398 15.867 37.7127 15.6959C37.67 15.3965 37.6272 15.0972 37.4989 14.8406C37.3706 14.5412 36.9857 13.8996 35.9164 13.643C34.9755 13.4292 33.1792 13.4292 32.8371 14.0707C32.7088 14.3273 32.7515 14.6267 32.8799 14.7978C32.9654 14.9261 33.0082 14.9689 33.0509 15.0116C33.1365 14.9261 33.3075 14.8406 33.5642 14.755C34.0346 14.5839 34.8044 14.5839 35.3604 14.6695C36.0875 14.7978 36.3014 15.2682 36.3869 15.5676C35.3604 15.4393 33.9918 15.2682 33.0509 15.867C32.1528 16.423 31.8534 17.6205 32.3666 18.5187C32.8799 19.4168 33.9918 19.6307 35.0183 19.6734C36.3869 19.7162 37.67 19.5023 37.7127 19.5023V16.8507C38.3543 16.979 39.1241 17.1928 39.1241 17.2356C39.2096 17.3211 39.509 18.0482 39.6801 18.647L39.9795 19.5451C40.4499 19.5451 40.8776 19.5451 41.3481 19.5451L42.6311 15.5676L43.9142 19.5451H45.2828L47.3357 13.8996ZM35.2749 18.6897C34.8472 18.6897 34.4195 18.6897 34.0346 18.5187C33.6925 18.3904 33.3931 18.091 33.3075 17.7488C33.222 17.2784 33.5642 16.8507 33.8635 16.6796C34.2485 16.4658 34.7189 16.5085 35.1466 16.5513C35.5315 16.5941 36.002 16.6368 36.4297 16.6796V18.6042C36.1303 18.647 35.3604 18.6897 35.2749 18.6897Z" fill="#303151"/>
<path d="M61.4494 11.1626C61.2356 11.1626 61.0645 11.2481 60.8934 11.3764C60.7223 11.5475 60.6796 11.7186 60.6796 11.9324C60.6796 12.1463 60.7651 12.3174 60.8934 12.4884C61.0645 12.6595 61.2356 12.7023 61.4494 12.7023C61.6632 12.7023 61.8343 12.6167 62.0054 12.4884C62.1765 12.3174 62.2192 12.1463 62.2192 11.9324C62.2192 11.7186 62.1337 11.5475 62.0054 11.3764C61.8771 11.2481 61.6632 11.1626 61.4494 11.1626Z" fill="#303151"/>
</svg>
