<svg width="15" height="14" viewBox="0 0 15 14" fill="none" xmlns="http://www.w3.org/2000/svg">
<path fill-rule="evenodd" clip-rule="evenodd" d="M6.20075 0.0422341C6.15478 0.0524492 6.06795 0.0728793 6.01688 0.0830944C5.66956 0.144385 5.5623 0.169922 5.30693 0.25675C4.93919 0.384438 4.3365 0.67046 4.24967 0.772611C4.23435 0.793041 4.17817 0.828793 4.12709 0.864546L4.03515 0.920729L4.14241 0.946267C4.45397 1.01266 4.79618 0.946266 4.85236 0.808363C4.86257 0.777718 5.17413 0.568309 5.3529 0.471266C5.55209 0.358901 5.78704 0.261858 6.17521 0.129062C6.47144 0.021804 6.50209 -0.0497013 6.20075 0.0422341ZM7.67682 0.0371266C7.68704 0.0524492 7.75343 0.0779868 7.82494 0.0882019C7.89644 0.0984169 8.0037 0.129062 8.06499 0.1546C8.29994 0.251643 8.33058 0.266965 8.36634 0.272073C8.58596 0.318041 9.20397 0.695998 9.46956 0.951374C9.54618 1.02799 10.297 1.07906 10.297 1.01266C10.297 0.976912 10.0314 0.777718 9.93946 0.75218C9.92413 0.747073 9.84241 0.706213 9.77091 0.660245C9.43381 0.461051 8.68811 0.19546 8.22333 0.108632C8.12628 0.0933094 7.97817 0.0626643 7.88623 0.0422341C7.68704 0.00137392 7.65639 0.00137393 7.67682 0.0371266ZM6.3029 0.307826C5.95048 0.430406 5.06687 0.900299 5.06687 0.971804C5.06687 0.982019 5.25075 0.997342 5.47548 0.997342H5.88408L5.99134 0.823686C6.05263 0.726643 6.19053 0.563202 6.308 0.455944C6.53274 0.246535 6.52763 0.226105 6.3029 0.307826ZM6.63999 0.420191C6.46634 0.537664 6.15478 0.813471 6.19564 0.813471C6.20075 0.813471 6.18032 0.854331 6.14456 0.895191L6.07817 0.976912L6.33865 0.997342C6.48166 1.00756 6.67064 1.02288 6.76257 1.02288L6.92601 1.02799V0.655137C6.92091 0.220998 6.93112 0.226105 6.63999 0.420191ZM7.14053 0.639815C7.14053 1.06374 7.10989 1.0382 7.60532 1.01266L8.0037 0.987127L7.90666 0.849223C7.7994 0.695998 7.56956 0.491697 7.36526 0.364008C7.14053 0.231213 7.14053 0.23632 7.14053 0.639815ZM7.9373 0.491697C8.05989 0.604062 8.19779 0.772611 8.25908 0.864546L8.36123 1.03309L8.55021 1.02799C8.65236 1.02288 8.84134 1.01777 8.96903 1.00245L9.19886 0.982019L8.97924 0.844116C8.6779 0.65003 8.43273 0.527449 8.10075 0.394653C7.70747 0.241428 7.68704 0.25675 7.9373 0.491697ZM3.46822 1.43659C3.19752 1.7175 3.00854 1.95756 2.82467 2.24869C2.75827 2.35084 2.67655 2.47852 2.65101 2.51938L2.59483 2.60111L2.79913 2.62664C3.05962 2.65729 3.30478 2.76455 3.39671 2.88713C3.48354 2.99949 3.50908 3.0046 3.53462 2.91266C3.60101 2.70326 3.97897 1.9882 4.1986 1.65621C4.49483 1.21186 4.49483 1.23229 4.05558 1.20164L3.71338 1.17611L3.46822 1.43659ZM9.70962 1.2374C9.70962 1.24761 9.73515 1.28336 9.7658 1.3089C9.79644 1.33444 9.87817 1.42127 9.94456 1.50299C10.011 1.58471 10.0876 1.67154 10.108 1.69197C10.1284 1.7175 10.1489 1.74815 10.1489 1.76347C10.1489 1.77879 10.1591 1.79922 10.1744 1.80433C10.2459 1.83498 10.7771 2.74922 10.7516 2.79008C10.7464 2.8003 10.7618 2.84116 10.7924 2.87691L10.8435 2.94842L10.9354 2.8718C10.9814 2.83094 11.0682 2.77987 11.1193 2.75944C11.1704 2.73901 11.2572 2.70326 11.3134 2.68283C11.3696 2.65729 11.4257 2.63686 11.4411 2.63686C11.5432 2.63686 11.6964 2.53981 11.6607 2.49895C11.6403 2.47342 11.63 2.45299 11.6454 2.45299C11.7424 2.45299 11.0427 1.64089 10.6647 1.31401L10.5473 1.21186H10.1335C9.89859 1.21697 9.70962 1.22718 9.70962 1.2374ZM4.61231 1.39062C4.54591 1.46723 4.43865 1.58981 4.38247 1.66132C4.32118 1.72772 4.25478 1.80944 4.23435 1.82987C4.21392 1.85541 4.19349 1.87584 4.19349 1.88094C4.19349 1.88605 4.39268 1.88605 4.63784 1.87584C4.95451 1.86562 5.12306 1.87584 5.24053 1.90648L5.40397 1.95245L5.54187 1.67154C5.61849 1.51831 5.6951 1.35998 5.71042 1.31912L5.74107 1.2425H5.23542H4.72978L4.61231 1.39062ZM5.94537 1.32422C5.93515 1.36508 5.91472 1.40084 5.8994 1.40084C5.88408 1.40084 5.87897 1.41105 5.88919 1.43148C5.8994 1.4468 5.89429 1.46213 5.87897 1.46213C5.85854 1.46213 5.84833 1.48766 5.84833 1.51831C5.84833 1.54895 5.80747 1.65621 5.75639 1.75836C5.66446 1.94734 5.66956 1.97799 5.78193 2.02906C5.82279 2.04949 5.99644 2.29465 6.12413 2.50917L6.25693 2.7339H6.59403H6.93112L6.92091 1.99842L6.91069 1.26293L6.4408 1.25272L5.97091 1.2425L5.94537 1.32422ZM7.1865 2.00863V2.76455H7.95263C8.37655 2.76455 8.71876 2.75433 8.71876 2.73901C8.71876 2.57557 8.49913 1.87073 8.35101 1.55406C8.30505 1.45702 8.2744 1.38041 8.28462 1.38041C8.28972 1.3753 8.2744 1.34976 8.23865 1.31401C8.18247 1.25272 8.14671 1.24761 7.68193 1.24761H7.1865V2.00863ZM8.43784 1.27315C8.43784 1.28847 8.44806 1.31401 8.46849 1.32422C8.49402 1.33955 8.72897 1.7839 8.74429 1.84519C8.7494 1.85541 8.76983 1.9218 8.80048 1.98309C8.92306 2.26912 8.95881 2.38659 8.98435 2.61132L9.00478 2.79519H9.70962C10.4093 2.79519 10.5013 2.78498 10.4247 2.69304C10.4093 2.67261 10.3276 2.52449 10.2408 2.36105C10.1029 2.09546 9.92924 1.80944 9.84241 1.72261C9.82709 1.70218 9.7658 1.63578 9.71472 1.56938C9.66365 1.50299 9.58193 1.40594 9.53085 1.34976L9.44403 1.24761H8.93838C8.65236 1.24761 8.43784 1.25783 8.43784 1.27315ZM4.00451 2.29976C3.95854 2.37637 3.88704 2.50917 3.84107 2.60111L3.75935 2.76455H4.03515C4.1986 2.76455 4.31096 2.75433 4.31096 2.7339C4.31096 2.71858 4.30075 2.70326 4.28032 2.70326C4.23946 2.70326 4.11177 2.42234 4.09134 2.28444L4.08112 2.15675L4.00451 2.29976ZM6.35397 2.9382C6.28757 3.0046 6.33865 3.19358 6.45612 3.29062C6.9158 3.68901 6.95155 3.6839 6.95155 3.25487V2.91777H6.66553C6.5072 2.91777 6.36419 2.92799 6.35397 2.9382ZM7.15075 2.95863C7.14053 2.98417 7.14053 3.1425 7.14564 3.32127L7.15585 3.64304L7.26311 3.67369C7.33462 3.69412 7.44187 3.77073 7.57467 3.90352C7.68704 4.01589 7.83005 4.13336 7.90155 4.16912C7.96795 4.20487 8.03435 4.24062 8.03946 4.25084C8.0701 4.28659 8.14671 4.2968 8.38166 4.2917C8.67279 4.28659 8.8158 4.33766 8.90263 4.50621C9.02521 4.72584 9.04053 4.7003 9.0201 4.31213C9.00989 4.11804 8.99456 3.92395 8.98946 3.88309C8.98435 3.84223 8.96902 3.73498 8.9537 3.65326C8.92306 3.40809 8.87709 3.20379 8.82091 3.06078L8.77494 2.92799H7.97306C7.33462 2.91777 7.16607 2.92799 7.15075 2.95863ZM9.05585 3.02503C9.05585 3.08632 9.06607 3.16804 9.0865 3.21912C9.10182 3.26508 9.12225 3.36723 9.13247 3.43363C9.14268 3.50003 9.16311 3.65326 9.17843 3.77584C9.19376 3.89331 9.20908 4.01078 9.20908 4.03121C9.20908 4.06186 9.23972 4.05164 9.32144 4.021C9.4236 3.97503 9.43381 3.97503 9.51553 4.021C9.5615 4.05164 9.64833 4.08229 9.70962 4.0874C9.7658 4.09761 9.87306 4.11804 9.93946 4.13336C10.062 4.16401 10.2204 4.15379 10.5166 4.11293C10.6545 4.0925 10.6647 4.08229 10.7567 3.90352L10.8588 3.70944L10.7771 3.55111C10.7362 3.46428 10.6903 3.3417 10.68 3.2753C10.6698 3.2089 10.6392 3.10164 10.6136 3.03524L10.5677 2.91777H9.81177H9.05585V3.02503ZM3.66231 3.01992C3.63677 3.06078 3.61123 3.13229 3.60101 3.18336C3.56015 3.39788 3.53972 3.46938 3.47843 3.60218C3.41204 3.73498 3.41204 3.74008 3.46822 3.88309C3.57037 4.14869 3.5908 4.33256 3.53972 4.47046C3.51419 4.53686 3.49886 4.60326 3.50908 4.60836C3.54994 4.64922 4.97494 4.62879 4.99026 4.58793C4.99537 4.5675 5.00558 4.33766 5.01069 4.07718L5.02091 3.60729H4.883C4.6787 3.60729 4.57655 3.49492 4.51526 3.2089C4.46419 2.95863 4.45908 2.95863 4.0658 2.95863C3.7287 2.94842 3.70317 2.95352 3.66231 3.01992ZM5.18435 4.25594C5.18435 4.41428 5.17924 4.5675 5.17413 4.58793C5.16903 4.62879 5.20478 4.6339 5.42951 4.62369L5.6951 4.61347L5.63381 4.54707C5.60317 4.51132 5.53166 4.4296 5.47548 4.37342C5.41929 4.31723 5.34268 4.19976 5.30693 4.11804C5.20478 3.90863 5.18435 3.93417 5.18435 4.25594ZM3.39161 4.84842C3.39161 4.85352 3.41204 4.90971 3.44268 4.96078C3.52951 5.13444 3.52951 5.32342 3.44268 5.5839L3.36607 5.82395L3.44268 6.09465C3.48354 6.24277 3.52951 6.40621 3.54994 6.45729L3.58058 6.53901H4.31607C4.71956 6.53901 5.06177 6.5339 5.07198 6.52369C5.08731 6.50836 5.07709 6.42664 5.00558 5.96697C4.98515 5.82906 4.96472 5.52261 4.96472 5.27745L4.95962 4.83309H4.17306C3.74403 4.8382 3.39161 4.84331 3.39161 4.84842ZM5.14349 4.95568C5.16392 5.08336 5.22521 5.73713 5.23542 5.95675C5.24053 6.03336 5.25075 6.12019 5.26096 6.15594C5.27118 6.1917 5.2865 6.29385 5.29671 6.38578C5.31714 6.61562 5.27628 6.60541 6.14967 6.59519L6.93623 6.58498L6.92601 6.16616C6.92091 5.93632 6.9158 5.62476 6.91069 5.48175C6.90048 5.0374 6.67575 4.90971 6.54806 5.28256C6.43058 5.61965 6.11903 5.43068 6.11903 5.02718V4.84331H5.6236H5.12817L5.14349 4.95568ZM9.44913 4.88928C9.44403 4.89949 9.44403 4.98121 9.45935 5.06804C9.51042 5.37449 9.44913 5.99761 9.32144 6.4675L9.27548 6.63094L9.97521 6.62584L10.6749 6.61562L10.7158 6.41643C10.7362 6.30406 10.7618 6.17127 10.772 6.12019C10.7924 6.00783 10.7107 5.80352 10.583 5.67073C10.4298 5.50729 10.3429 5.30299 10.3276 5.08336L10.3123 4.87395H9.88327C9.65854 4.86885 9.45935 4.87906 9.44913 4.88928ZM7.17118 6.42154C7.17118 6.60541 7.17628 6.60541 7.2529 6.61562C7.29886 6.62073 7.37548 6.62073 7.42144 6.62584C7.88623 6.65648 8.84644 6.6718 8.82601 6.64116C8.7494 6.51858 8.4787 6.48793 8.11607 6.56455C8.01392 6.58498 7.75343 6.5339 7.62064 6.4624C7.56956 6.43686 7.51849 6.41132 7.51338 6.41132C7.4623 6.40111 7.36526 6.35003 7.29376 6.29895C7.17118 6.20702 7.17118 6.21213 7.17118 6.42154ZM3.35585 6.7382C3.25881 6.86078 3.1158 6.90675 2.73274 6.9374L2.46204 6.95783L2.63569 7.21831C2.73274 7.36643 2.87575 7.56051 2.95236 7.65756C3.02897 7.7546 3.13112 7.87718 3.17198 7.93336C3.34564 8.1581 3.29967 8.14277 3.84618 8.15809C4.12198 8.16831 4.35182 8.16831 4.35182 8.1632C4.35182 8.1581 4.33139 8.13256 4.31096 8.11213C4.24456 8.04573 4.04026 7.74949 4.04026 7.71374C4.04026 7.69842 4.03005 7.6831 4.01983 7.6831C3.98919 7.6831 3.80532 7.36643 3.57037 6.88632L3.44268 6.63094L3.35585 6.7382ZM3.70317 6.77396C3.70317 6.81992 3.84107 7.0753 3.95854 7.23363C3.98919 7.2796 4.00451 7.31535 3.99429 7.31535C3.98408 7.31535 3.98408 7.32557 3.9994 7.33578C4.01983 7.346 4.08112 7.42772 4.1373 7.51455C4.1986 7.59627 4.24967 7.67799 4.25989 7.6831C4.2701 7.69331 4.35693 7.80057 4.45908 7.92315L4.63784 8.14788H5.11795H5.59295L5.57252 8.08148C5.5623 8.04062 5.54188 7.98444 5.52655 7.94869C5.4244 7.70353 5.24564 7.15191 5.19967 6.91186C5.15881 6.72288 5.17924 6.72799 4.408 6.72799C3.81042 6.72799 3.70317 6.7331 3.70317 6.77396ZM5.40397 6.76885C5.40397 6.93229 5.65935 7.73417 5.8279 8.07638L5.87386 8.17852H6.39483C6.68085 8.17852 6.92091 8.16831 6.93112 8.15809C6.93623 8.14788 6.95155 7.821 6.95666 7.43793L6.96687 6.74331L6.18542 6.7331C5.53166 6.72799 5.40397 6.73309 5.40397 6.76885ZM7.258 7.4175C7.26311 7.79546 7.27333 8.12234 7.27843 8.14277C7.28865 8.17342 7.41123 8.18363 7.80962 8.17342L8.33058 8.1632L8.38166 8.05084C8.4787 7.85675 8.74429 7.11105 8.78515 6.90164C8.79537 6.85568 8.81069 6.79949 8.82601 6.76885C8.84134 6.72288 8.76472 6.72288 8.04456 6.72288H7.24268L7.258 7.4175ZM9.12225 6.8046C9.12225 6.9374 8.98946 7.38686 8.80048 7.8874C8.75451 8.00998 8.71876 8.11213 8.71876 8.12745C8.71876 8.14277 8.93838 8.14788 9.20397 8.14788H9.68919L9.79644 7.99976C9.85263 7.91804 9.91902 7.83632 9.93946 7.81589C10.1233 7.6218 10.5983 6.86078 10.6034 6.75863C10.6034 6.72799 10.4349 6.71777 9.86284 6.71777H9.11714V6.8046M10.7975 6.92207C10.7771 6.99358 10.7618 7.05487 10.7618 7.05487C10.7822 7.05487 10.3736 7.77503 10.3276 7.81589C10.297 7.84143 10.108 8.14277 10.108 8.16831C10.108 8.17853 10.3174 8.18874 10.5728 8.18874H11.0376L11.1602 8.05594C11.4666 7.72396 11.7067 7.35621 11.7526 7.15191L11.7731 7.04976L11.5228 7.02933C11.2061 7.00379 10.9559 6.93229 10.9048 6.85568C10.8537 6.76374 10.8384 6.77395 10.7975 6.92207ZM3.63677 8.41347C3.63677 8.4339 3.7951 8.58713 3.81553 8.58713C3.82575 8.58713 3.87171 8.61777 3.91768 8.65863C3.9994 8.73525 4.42333 9.02127 4.66338 9.15917C5.24053 9.49627 5.94026 9.73632 6.54295 9.7874C6.76257 9.80783 6.79322 9.80783 6.74214 9.77207C6.7115 9.75164 6.67064 9.73121 6.6451 9.73121C6.62467 9.73121 6.56849 9.71589 6.51741 9.69546C6.46634 9.67503 6.40505 9.6546 6.36929 9.64949C6.15989 9.60863 5.36822 9.19492 5.25075 9.06723C5.23542 9.0468 5.15881 8.98551 5.0822 8.92933C4.92386 8.80675 4.70935 8.59223 4.63784 8.47987C4.60209 8.40326 3.63677 8.34707 3.63677 8.41347ZM4.81661 8.42369C4.81661 8.47987 5.3529 8.89869 5.64403 9.07234C5.87897 9.21025 6.5123 9.44519 6.54806 9.40944C6.55827 9.39922 6.53784 9.37879 6.5072 9.35836C6.308 9.246 5.93005 8.78121 5.80747 8.50541L5.76661 8.40326H5.29671C5.02601 8.39815 4.81661 8.41347 4.81661 8.42369ZM6.02709 8.42369C6.02709 8.45944 6.12413 8.65353 6.16499 8.69949C6.18542 8.71992 6.22118 8.76589 6.24161 8.80675C6.308 8.9089 6.49698 9.12342 6.5736 9.18471C6.61446 9.21535 6.66042 9.26132 6.68085 9.28175C6.74214 9.33793 6.94134 9.45541 6.9822 9.45541C7.00774 9.45541 7.01284 9.40944 7.00263 9.29197C6.99241 9.20003 6.97709 8.9753 6.96687 8.79143C6.95666 8.60756 6.94134 8.43901 6.93623 8.42879C6.91069 8.39304 6.02709 8.39304 6.02709 8.42369ZM7.31929 8.49519C7.31419 8.54627 7.31419 8.59734 7.30908 8.61267C7.30397 8.62799 7.29376 8.76078 7.27843 8.91401C7.26311 9.06723 7.24779 9.26132 7.23757 9.33793C7.22736 9.43498 7.23247 9.48605 7.2529 9.48605C7.3244 9.48605 7.74833 9.13363 7.88623 8.96508C7.96284 8.86804 8.03946 8.771 8.05478 8.75568C8.0701 8.73525 8.07521 8.71482 8.06499 8.69949C8.05478 8.68928 8.05989 8.67906 8.07521 8.67906C8.10585 8.67906 8.23865 8.46455 8.23865 8.41858C8.23865 8.40836 8.02924 8.39815 7.77386 8.39815H7.30908L7.31929 8.49519ZM8.42252 8.57691C8.28972 8.88336 8.05989 9.16428 7.82494 9.3124C7.75343 9.35836 7.69214 9.40433 7.69214 9.41455C7.69214 9.46052 8.2744 9.28175 8.4736 9.16938C8.55021 9.12852 8.64725 9.07234 8.68811 9.04681C8.8822 8.93444 9.46446 8.44922 9.43381 8.41858C9.4236 8.40836 9.20908 8.40326 8.9537 8.40326H8.49402L8.42252 8.57691ZM9.66365 8.60245C9.5615 8.70971 9.38273 8.87826 9.26015 8.97019C9.13757 9.06723 9.00989 9.16938 8.96903 9.20514C8.85666 9.30218 8.22333 9.60353 8.09053 9.62396C8.02413 9.63417 7.96795 9.6546 7.95773 9.66992C7.94752 9.68525 7.91687 9.69546 7.89134 9.70057C7.86069 9.70057 7.79429 9.721 7.74322 9.74654C7.65639 9.7874 7.66661 9.7925 7.90155 9.77718C8.4787 9.74143 9.13247 9.5218 9.77601 9.15406C10.0314 9.00594 10.6188 8.59223 10.7362 8.47987L10.8128 8.40326L10.3327 8.40836L9.85263 8.41347L9.66365 8.60245Z" fill="#D1AD4D"/>
<path fill-rule="evenodd" clip-rule="evenodd" d="M1.17493 2.61139C0.13299 2.65736 -0.173461 2.95359 0.127883 3.61247C0.209603 3.79634 0.214711 3.83209 0.148313 3.95467C0.0819152 4.08747 0.0614851 4.34284 0.102345 4.62376C0.13299 4.83316 0.127883 4.87913 0.0717001 5.04257C-0.0100203 5.27241 -0.0100203 5.44607 0.0768076 5.70655C0.138098 5.90064 0.143205 5.91596 0.0972378 6.2173C0.00530227 6.85064 -0.0202354 7.18263 0.0155173 7.31031C0.117668 7.64741 0.378152 7.93854 0.715249 8.09177C1.7674 8.57698 1.8389 8.67402 1.93595 9.813C1.9717 10.2267 2.01256 10.5536 2.04831 10.6506C2.11471 10.8549 2.2424 11.1103 2.30369 11.1818C2.33433 11.2125 2.39562 11.2942 2.44159 11.3555C2.56928 11.524 3.57036 12.5149 3.78998 12.6885C4.44885 13.2095 6.03729 13.7407 6.30799 13.5313C6.37439 13.4802 6.38971 11.0133 6.32842 10.5842C6.27224 10.2165 6.09858 10.0633 5.56229 9.90494C5.06175 9.75682 4.58165 9.60359 4.551 9.57806C4.52036 9.55763 4.41821 9.49634 4.13218 9.33289C4.05557 9.29203 3.98407 9.24607 3.97385 9.23585C3.96364 9.22564 3.88192 9.15924 3.78998 9.09795C3.39159 8.81193 3.02896 8.44419 2.66122 7.96919C2.57439 7.85682 2.48756 7.74956 2.46713 7.72402C2.44159 7.70359 2.42627 7.67295 2.42627 7.66273C2.42627 7.65252 2.39052 7.60144 2.34455 7.55037C2.16068 7.33585 2.1096 7.21327 2.15046 7.07537L2.19132 6.95279L2.45692 6.93236C3.37627 6.87107 3.60611 6.66166 3.37116 6.09983C3.30987 5.95682 3.30987 5.76784 3.37116 5.54311C3.43756 5.29284 3.43245 5.08343 3.36095 4.96085L3.29966 4.8587L3.38649 4.70037C3.57036 4.36327 3.57036 4.13343 3.3967 3.76058C3.35073 3.66354 3.35073 3.64822 3.41713 3.54096C3.65208 3.12214 3.35584 2.72376 2.76847 2.65225C2.68165 2.64203 2.60503 2.6216 2.59482 2.60628C2.5795 2.57564 1.93595 2.58074 1.17493 2.61139ZM11.3542 2.73908C11.3134 2.7544 11.2521 2.76462 11.2214 2.7544C11.1908 2.74929 11.1652 2.7544 11.1652 2.76462C11.1652 2.77483 11.1448 2.79526 11.1193 2.79526C11.0937 2.79526 11.0069 2.85655 10.9252 2.93316L10.7771 3.07107V3.31112C10.7771 3.50521 10.7873 3.5665 10.8435 3.64311C10.9099 3.74015 10.9099 3.75037 10.7975 4.00064C10.7056 4.19472 10.7311 4.51139 10.8486 4.74634L10.9507 4.94553L10.8843 5.063C10.8077 5.20091 10.8026 5.30816 10.8639 5.538C10.9558 5.89042 10.9558 5.95682 10.869 6.23773C10.7924 6.47779 10.7771 6.79956 10.8486 6.73316C10.8588 6.72295 10.8945 6.75359 10.9252 6.79445C11.0273 6.92725 11.3134 6.99365 11.7628 6.99365C12.2225 6.99876 12.2174 7.32053 11.7475 7.83639C11.7169 7.86704 11.6913 7.9079 11.6913 7.91811C11.6913 7.92833 11.676 7.95897 11.6505 7.98451C11.63 8.00494 11.5177 8.14284 11.4053 8.27564C11.0784 8.66892 10.6085 9.08773 10.2306 9.32779C10.1591 9.37376 10.0927 9.41972 10.0825 9.42994C10.0365 9.48612 9.56659 9.72107 9.39804 9.77214C9.32143 9.79257 9.2346 9.82322 9.19885 9.83854C9.16821 9.84876 8.98433 9.89983 8.79536 9.95091C8.05987 10.1348 7.96283 10.242 7.91686 10.9264C7.86068 11.7232 7.876 13.516 7.93729 13.5772C7.99858 13.6385 8.32036 13.6436 8.5553 13.5875C9.79132 13.2708 10.251 13.0103 11.1601 12.1114C12.1561 11.1256 12.2634 10.9367 12.3144 10.0684C12.3808 9.03666 12.4166 8.91919 12.769 8.60252C12.8814 8.50037 13.0704 8.38289 13.2747 8.28585C13.7752 8.0458 13.7752 8.04069 13.9335 7.88747C14.2859 7.55037 14.3319 7.1622 14.1378 6.13048C14.1072 5.98236 14.1429 5.78827 14.2093 5.72698C14.2604 5.68101 14.2298 5.2673 14.1685 5.08854C14.1174 4.94042 14.1123 4.88935 14.1378 4.81273C14.1889 4.66972 14.1787 4.16919 14.1276 4.07725C14.0612 3.96488 14.0714 3.83209 14.1634 3.64311C14.3728 3.19876 14.2042 2.8872 13.6782 2.73397C13.4636 2.69311 11.4921 2.67779 11.3542 2.73908ZM2.92681 2.92806C3.15665 3.08128 3.18218 3.30091 2.97788 3.42349C2.83487 3.51542 0.60799 3.5716 0.449657 3.48988C0.255571 3.38773 0.265786 3.0915 0.470087 2.9587C0.648851 2.84123 2.76337 2.81569 2.92681 2.92806ZM13.7497 3.0251C13.9693 3.11704 14.0255 3.41838 13.8467 3.55117C13.7343 3.63289 11.5534 3.638 11.3593 3.55628C11.0784 3.43881 11.0784 3.14768 11.3542 3.00467C11.4921 2.92806 13.576 2.95359 13.7497 3.0251ZM2.91659 3.96488C3.1924 4.113 3.17708 4.42456 2.90127 4.49607C2.62546 4.56757 0.500732 4.57268 0.413904 4.50117C0.255571 4.37349 0.276001 4.12322 0.459872 3.99553C0.638636 3.86273 2.68165 3.8372 2.91659 3.96488ZM13.7497 4.0466C13.9437 4.12833 14.0152 4.40924 13.8825 4.57779L13.8161 4.66462L12.6362 4.64419C11.344 4.62376 11.3032 4.61865 11.201 4.47053C11.104 4.32752 11.1142 4.26112 11.2521 4.12322L11.3747 4.00574H12.5085C13.4177 4.00064 13.6679 4.01085 13.7497 4.0466ZM2.80933 4.96085C2.98299 5.00682 3.126 5.18558 3.10046 5.32349C3.06471 5.54822 3.09025 5.54822 2.04831 5.54822C1.53756 5.54822 0.996162 5.56354 0.848044 5.58397C0.434335 5.63505 0.296431 5.56865 0.296431 5.31838C0.296431 5.10386 0.449657 4.98128 0.756109 4.96085C1.17493 4.93021 2.68675 4.93021 2.80933 4.96085ZM13.4534 5.04257C13.7803 5.063 13.9284 5.16005 13.9693 5.37967C14.0152 5.62483 13.8671 5.70655 13.4585 5.66569C13.2951 5.65037 12.7588 5.64526 12.2634 5.65548C11.2572 5.67591 11.2419 5.6708 11.1806 5.48182C11.1142 5.28773 11.2368 5.11919 11.487 5.05789C11.6096 5.02725 13.0704 5.01704 13.4534 5.04257ZM2.91659 6.03343C3.12089 6.15091 3.16175 6.26838 3.06471 6.46757C2.9881 6.63101 2.91149 6.64123 1.93084 6.63101C1.45073 6.62591 0.909335 6.63612 0.720356 6.64634L0.388367 6.67187L0.342399 6.55951C0.281109 6.41139 0.286216 6.29392 0.352614 6.16623C0.46498 5.95682 0.490517 5.9466 1.701 5.9466H2.7838L2.91659 6.03343ZM13.8007 6.12537C14.1225 6.36542 13.9642 6.81488 13.5811 6.7587C13.4841 6.74849 12.9529 6.73316 12.3859 6.73316C11.4002 6.72806 11.3542 6.72806 11.2827 6.66677C11.0529 6.4829 11.1499 6.13048 11.4513 6.07429C11.7118 6.01811 13.719 6.06408 13.8007 6.12537Z" fill="#0D0D0D"/>
</svg>
