<svg width="180" height="40" viewBox="0 0 180 40" fill="none" xmlns="http://www.w3.org/2000/svg">
<path d="M65.2813 18.5858C65.2813 20.3774 63.8237 21.8046 62.0624 21.8046C60.3012 21.8046 58.8436 20.347 58.8436 18.5858V11.2068H56.0803V18.5858C56.0803 21.8957 58.7525 24.5679 62.0624 24.5679C65.3724 24.5679 68.0446 21.8957 68.0446 18.5858V11.2068H65.2813V18.5858Z" fill="#2E289E"/>
<path d="M85.1712 10.9638C81.5273 10.9638 78.4299 13.879 78.4299 17.7355C78.4299 21.592 81.5273 24.5071 85.1712 24.5071C88.8152 24.5071 88.1471 23.9302 89.1492 22.9585V24.2338H91.9125V17.6748C91.9125 13.9701 88.8759 10.9335 85.1712 10.9335V10.9638ZM85.1712 21.7438C83.0456 21.7438 81.1933 20.0433 81.1933 17.7355C81.1933 15.4277 83.0456 13.7272 85.1712 13.7272C87.2968 13.7272 89.1492 15.4277 89.1492 17.7355C89.1492 20.0433 87.2968 21.7438 85.1712 21.7438Z" fill="#2E289E"/>
<path d="M113.624 10.9638C109.98 10.9638 106.883 13.879 106.883 17.7355C106.883 21.592 109.98 24.5071 113.624 24.5071C117.268 24.5071 116.6 23.9302 117.602 22.9585V24.2338H120.365V17.6748C120.365 13.9701 117.329 10.9335 113.624 10.9335V10.9638ZM113.624 21.7438C111.498 21.7438 109.646 20.0433 109.646 17.7355C109.646 15.4277 111.498 13.7272 113.624 13.7272C115.75 13.7272 117.602 15.4277 117.602 17.7355C117.602 20.0433 115.75 21.7438 113.624 21.7438Z" fill="#2E289E"/>
<path d="M173.202 10.9638C169.559 10.9638 166.461 13.879 166.461 17.7355C166.461 21.592 169.559 24.5071 173.202 24.5071C176.846 24.5071 176.178 23.9302 177.18 22.9585V24.2338H179.944V17.6748C179.944 13.9701 176.907 10.9335 173.202 10.9335V10.9638ZM173.202 21.7438C171.077 21.7438 169.224 20.0433 169.224 17.7355C169.224 15.4277 171.077 13.7272 173.202 13.7272C175.328 13.7272 177.18 15.4277 177.18 17.7355C177.18 20.0433 175.328 21.7438 173.202 21.7438Z" fill="#2E289E"/>
<path d="M164.336 5.22461H161.572V24.2642H164.336V5.22461Z" fill="#2E289E"/>
<path d="M138.008 10.9031C136.186 10.9031 134.547 11.723 133.453 13.0287C132.36 11.723 130.72 10.9031 128.898 10.9031C125.619 10.9031 122.977 13.5753 122.977 16.8245V24.2338H125.74V16.8245C125.74 15.0632 127.168 13.636 128.929 13.636C130.69 13.636 132.117 15.0632 132.117 16.8245V24.2338H134.881V16.8245C134.881 15.0632 136.308 13.636 138.069 13.636C139.83 13.636 141.257 15.0632 141.257 16.8245V24.2338H144.021V16.8245C144.021 13.5449 141.349 10.9031 138.099 10.9031H138.008Z" fill="#2E289E"/>
<path d="M73.298 18.2821V13.8183H77.2456V11.2372H73.298V7.16809H70.5347V18.2821C70.5347 21.592 73.2069 24.2642 76.5168 24.2642H77.4278V21.5009H76.5168C74.7252 21.5009 73.298 20.0433 73.298 18.2821Z" fill="#2E289E"/>
<path d="M159.447 18.6161V17.7355C159.447 14.0005 156.41 10.9639 152.675 10.9639C148.94 10.9639 145.903 14.0005 145.903 17.7355C145.903 21.4705 148.94 24.5072 152.675 24.5072C156.41 24.5072 158.202 22.5637 159.113 19.8611H156.076C155.378 20.9847 154.102 21.7438 152.675 21.7438C151.248 21.7438 149.152 20.4077 148.758 18.6161H159.447ZM148.97 16.1868C149.578 14.7293 151.005 13.7272 152.675 13.7272C154.345 13.7272 155.772 14.7596 156.38 16.1868H148.97Z" fill="#2E289E"/>
<path d="M43.9339 14.1523L37.3445 5.22461H34.7026V24.2338H37.4356V9.99209L43.9339 18.7983L50.4323 9.99209V24.2338H53.1652V5.22461H50.493L43.9339 14.1523Z" fill="#2E289E"/>
<path d="M106.458 11.2067H103.087L97.2265 17.6747V5.22461H94.4631V24.2338H97.2265V21.0454L99.5039 18.5553L103.452 24.2338H106.579L101.387 16.7941L106.458 11.2067Z" fill="#2E289E"/>
<path d="M0.419299 9.05075C3.27372 13.1805 11.6244 29.4568 17.5762 29.4568C23.5279 29.4568 29.4797 10.2654 29.4797 5.64974C29.4797 -5.28207 -4.10525 1.76287 0.419299 9.05075ZM10.4705 23.6569C8.2234 20.6202 4.42763 4.86022 7.19095 2.58276C10.6831 -0.210925 20.4002 4.49583 25.6232 7.19841C31.1802 10.0832 15.2076 30.7625 10.4705 23.6569Z" fill="#0C72E8"/>
<path d="M14.0233 2.97747L13.5982 2.76491C8.16268 0.639279 6.52291 19.6788 10.8045 19.2537C13.5982 18.9804 23.0117 17.8872 24.1353 14.7595C24.6515 12.3606 16.4526 4.16175 14.0537 2.97747H14.0233ZM17.9102 16.703C13.3249 16.2475 8.73964 16.0956 8.83074 14.1218C9.10403 11.2674 13.5071 5.61932 15.8757 5.95335C18.9123 6.37848 20.1269 12.7554 20.1877 15.7312C20.1877 16.8244 18.973 16.8852 17.9102 16.703Z" fill="#2E289E"/>
<path d="M35.8869 28.6976H34.7026V39.6294H35.8869V28.6976Z" fill="#0C72E8"/>
<path d="M41.8994 31.8557C40.7455 31.8557 39.8345 32.3719 39.2879 33.1311V32.0075H38.134V39.6598H39.3183V35.4389C39.3183 34.0724 40.29 32.9489 41.7476 32.9489C43.2052 32.9489 44.0554 33.951 44.0554 35.4389V39.6902H45.2397V35.4389C45.2397 33.1311 43.934 31.8861 41.9298 31.8861L41.8994 31.8557Z" fill="#0C72E8"/>
<path d="M50.6448 35.5604C49.6124 35.0745 48.2459 34.8012 48.2459 33.8902C48.2459 32.9793 48.6407 32.8274 49.3998 32.8274C50.159 32.8274 50.5841 33.2526 50.6145 33.951H51.7684C51.7684 32.7667 51.0092 31.8557 49.3695 31.8557C47.7297 31.8557 47.0313 32.8274 47.0313 33.9206C47.0313 35.0138 47.5475 35.4693 48.3977 35.864C49.4605 36.3499 50.7663 36.5321 50.7663 37.5342C50.7663 38.5363 50.3108 38.7792 49.4302 38.7792C48.5496 38.7792 48.003 38.3541 48.003 37.4127H46.7883C46.7883 38.9614 47.8815 39.842 49.3998 39.842C50.9181 39.842 51.9506 38.8399 51.9506 37.5342C51.9506 36.2284 51.4647 35.9855 50.6145 35.5907L50.6448 35.5604Z" fill="#0C72E8"/>
<path d="M59.2689 36.2284C59.2689 37.6556 58.2668 38.7185 56.9611 38.7185C55.6553 38.7185 54.7443 37.6556 54.7443 36.2284V31.9772H53.5601V36.2284C53.5601 38.3844 54.6229 39.7813 56.87 39.7813C59.1171 39.7813 58.783 39.2954 59.2993 38.5363V39.6294H60.4532V31.9772H59.2689V36.1981V36.2284Z" fill="#0C72E8"/>
<path d="M63.6718 33.1007V32.0076H62.4875V39.6598H63.6718V35.6819C63.6718 34.0117 64.1577 33.1007 65.7975 33.1007H66.7388V32.0076H65.7975C64.8865 32.0076 64.1273 32.3416 63.6718 33.1007Z" fill="#0C72E8"/>
<path d="M74.118 33.2526C73.4499 32.3112 72.2353 31.8557 71.2939 31.8557C69.0165 31.8557 67.3767 33.6473 67.3767 35.8337C67.3767 38.02 69.0165 39.8116 71.2939 39.8116C73.5714 39.8116 73.4499 39.3561 74.118 38.4148V39.6598H75.3023V32.0075H74.118V33.2526ZM71.3547 38.7185C69.806 38.7185 68.561 37.4431 68.561 35.8033C68.561 34.1635 69.806 32.8882 71.3547 32.8882C72.9033 32.8882 74.2091 34.1635 74.2091 35.8033C74.2091 37.4431 72.9337 38.7185 71.3547 38.7185Z" fill="#0C72E8"/>
<path d="M81.0718 31.8557C79.9179 31.8557 79.0069 32.3719 78.4603 33.1311V32.0075H77.3064V39.6598H78.4907V35.4389C78.4907 34.0724 79.4928 32.9489 80.92 32.9489C82.3472 32.9489 83.2278 33.951 83.2278 35.4389V39.6902H84.4121V35.4389C84.4121 33.1311 83.1063 31.8861 81.1022 31.8861L81.0718 31.8557Z" fill="#0C72E8"/>
<path d="M103.148 35.7122C103.148 33.374 101.417 31.8557 99.2306 31.8557C97.0442 31.8557 95.283 33.6473 95.283 35.8944C95.283 38.1415 96.9531 39.8116 99.2306 39.8116C101.508 39.8116 102.51 38.7792 103.057 37.0787H101.781C101.417 38.2022 100.415 38.7488 99.2306 38.7488C98.0463 38.7488 96.528 37.6556 96.4065 36.1677H103.148V35.6818V35.7122ZM96.4976 35.1049C96.8013 33.8599 97.8033 32.9185 99.2306 32.9185C100.658 32.9185 101.721 33.7688 101.933 35.1049H96.4976Z" fill="#0C72E8"/>
<path d="M89.9691 38.7184C88.4508 38.7184 87.2058 37.4734 87.2058 35.8033C87.2058 34.1331 88.4508 32.8881 89.9691 32.8881C91.4874 32.8881 92.4287 33.7687 92.6717 35.0441H93.8863C93.5827 33.1918 92.0947 31.8253 89.9691 31.8253C87.8435 31.8253 86.0215 33.4955 86.0215 35.8033C86.0215 38.1111 87.8435 39.7812 89.9691 39.7812C92.0947 39.7812 93.5523 38.5059 93.8863 36.5321H92.6717C92.3984 37.8378 91.2748 38.6881 89.9691 38.6881V38.7184Z" fill="#0C72E8"/>
</svg>
