<svg width="180" height="36" viewBox="0 0 180 36" fill="none" xmlns="http://www.w3.org/2000/svg">
<g clip-path="url(#clip0_1_122)">
<path d="M42.0225 1.56673L42.0971 29.3766C41.5647 28.3841 40.857 27.4962 40.0081 26.756C37.8621 25.055 35.1704 24.1931 32.4355 24.3313C29.6911 24.211 26.9956 25.0852 24.8442 26.7933C23.5202 27.9443 22.523 29.424 21.9532 31.0832C21.4178 29.4329 20.4521 27.9553 19.1554 26.8026C17.0118 25.1038 14.3238 24.242 11.5921 24.3779C8.84775 24.2576 6.15219 25.1319 4.00081 26.8399C3.09688 27.6273 2.34737 28.5761 1.79057 29.6377L1.71597 1.65999L42.0225 1.56673ZM0 0.270432L0.093259 35.9047H1.79057C1.79057 35.3731 1.72529 30.5143 5.03599 27.6979C6.89011 26.2394 9.20769 25.4977 11.5641 25.6089C13.9182 25.4682 16.2418 26.1985 18.0922 27.6606C20.8434 30.0201 21.1884 34.5524 21.2257 35.8581H22.7086C22.7645 34.5431 23.1749 30.0107 25.9447 27.6513C27.7984 26.192 30.1162 25.4503 32.4728 25.5623C34.8269 25.4216 37.1505 26.1519 39.0009 27.614C42.3955 30.5237 42.1344 35.7555 42.1344 35.8114H43.8317L43.7291 0.167847L0 0.270432ZM32.3702 26.9425C30.3985 26.8555 28.4635 27.4961 26.9332 28.7424C23.9396 31.335 24.2473 35.8114 24.2473 35.8487H25.6929C25.6929 35.6809 25.497 31.6987 27.987 29.5538C29.226 28.561 30.7842 28.0537 32.3702 28.1269C33.9678 28.0506 35.5397 28.5503 36.8 29.5351C39.3926 31.7174 39.2527 35.7741 39.2527 35.8114H40.7076C40.7076 35.3545 40.7635 31.1485 37.8445 28.7144C36.2958 27.4779 34.3497 26.848 32.3702 26.9425ZM32.2956 29.4232C30.982 29.3641 29.6941 29.8001 28.6865 30.6449C26.6814 32.4168 26.8866 35.5037 26.9239 35.8394H28.3321C28.3321 35.8394 28.071 32.8924 29.731 31.4283C30.4508 30.8293 31.3697 30.5231 32.3049 30.5703C33.2414 30.5236 34.1619 30.826 34.8882 31.4189C36.4549 32.7805 36.371 35.5037 36.371 35.8208H37.7885C37.7885 35.4757 37.9844 32.3888 35.9234 30.6262C34.9075 29.7915 33.6183 29.3629 32.3049 29.4232M11.4336 26.9891C9.45461 26.9116 7.51415 27.5507 5.96858 28.789C2.96564 31.3443 3.17081 35.7182 3.17081 35.9047H4.62565C4.62565 35.4944 4.62565 31.6987 7.05038 29.619C8.29865 28.6225 9.86584 28.1123 11.4615 28.1829C13.0471 28.0995 14.6087 28.5968 15.854 29.5817C18.3627 31.7174 18.1948 35.6995 18.1948 35.8674H19.5844C19.5844 35.6902 19.8455 31.335 16.8612 28.7704C15.3195 27.5411 13.3848 26.9117 11.4149 26.9985" fill="#004987"/>
<path d="M11.5174 29.4698C10.2034 29.4188 8.91724 29.8575 7.90829 30.7008C5.81928 32.566 6.09906 35.7648 6.10839 35.8953H7.5166C7.5166 35.7834 7.32075 32.9204 8.94346 31.4842C9.6647 30.8886 10.5834 30.5857 11.5174 30.6355C12.4511 30.5766 13.3719 30.8768 14.0914 31.4749C15.6581 32.8364 15.5462 35.5689 15.5182 35.8767H16.9358C16.9358 35.7461 17.2062 32.51 15.1359 30.6915C14.1227 29.851 12.8324 29.4188 11.5174 29.4791M65.2253 35.6342C65.4515 35.5721 65.6516 35.4388 65.7961 35.254C65.9406 35.0693 66.0216 34.8429 66.0273 34.6084V23.1562C66.0295 22.9802 66.0514 22.805 66.0926 22.6339L65.8128 23.1562L58.436 35.9699L50.9753 23.5572L50.7515 22.9417V23.5572V34.6457C50.7515 35.1493 51.0872 35.4664 51.6095 35.6622H48.2335C48.455 35.5934 48.65 35.458 48.7919 35.2745C48.9337 35.0909 49.0155 34.8681 49.0262 34.6363V21.207C49.0262 20.7687 48.5319 20.3677 48.0376 20.1812H53.4467L59.6204 30.6169L65.533 20.1532H70.6903C70.4602 20.2081 70.2555 20.3395 70.1098 20.5259C69.9641 20.7122 69.886 20.9425 69.8882 21.1791V34.6084C69.8939 34.8429 69.975 35.0693 70.1194 35.254C70.2639 35.4388 70.4641 35.5721 70.6903 35.6342H65.2253ZM86.4977 35.5876H73.2828C73.7958 35.3544 74.2154 35.1026 74.2154 34.5617V21.1324C74.2154 20.6009 73.7864 20.2838 73.2828 20.1066H85.6397L85.7423 22.1117C85.4208 21.8143 85.0406 21.5877 84.6262 21.4464C84.2117 21.305 83.7723 21.2521 83.3362 21.291H78.1137V26.5228H82.7766C82.9956 26.5052 83.2079 26.4392 83.3982 26.3295C83.5885 26.2198 83.7521 26.0693 83.8771 25.8887V28.2574C83.7594 28.0684 83.598 27.9104 83.4065 27.7968C83.2149 27.6832 82.9989 27.6173 82.7766 27.6046H78.1137V34.3006C78.7292 34.3659 80.6037 34.4312 82.1145 34.4032C84.7817 34.3286 86.0127 34.4032 87.1411 32.9484L86.4977 35.5876ZM96.0567 35.5596H88.1577C88.3803 35.4912 88.5765 35.3562 88.7199 35.1728C88.8634 34.9893 88.947 34.7663 88.9597 34.5338V21.1045C88.9555 20.8696 88.875 20.6424 88.7303 20.4574C88.5856 20.2723 88.3846 20.1393 88.1577 20.0786H96.3365C106.446 20.0786 108.46 25.3571 108.46 27.5393C108.46 31.5028 104.357 35.5223 96.0567 35.541M95.6557 21.1977C94.9096 21.1977 93.2869 21.1977 92.8579 21.2537V34.3659H95.3199C102.268 34.3659 104.189 30.8873 104.18 27.5673C104.18 24.8348 102.016 21.1977 95.6557 21.207M130.469 29.7402V33.1069C130.475 33.2898 130.522 33.4691 130.608 33.6308C130.693 33.7925 130.815 33.9323 130.964 34.0395C127.942 35.1084 124.767 35.6785 121.563 35.7275C115.445 35.7275 110.027 32.6779 110.008 27.8284C110.008 23.8463 114.018 19.7802 121.889 19.7615C124.351 19.7811 126.794 20.1936 129.126 20.9832L129.35 24.6017C127.765 21.4588 123.867 20.9832 122.421 20.9832C117.199 20.9832 114.196 23.8463 114.205 27.5114C114.205 30.6262 116.313 34.4685 122.673 34.4498C124.014 34.4758 125.346 34.2184 126.58 33.6944V29.7496C126.574 29.5119 126.491 29.2825 126.346 29.0946C126.2 28.9068 125.998 28.7704 125.769 28.7051H131.271C131.048 28.7761 130.851 28.9146 130.709 29.1016C130.567 29.2886 130.487 29.515 130.479 29.7496M149.289 20.9832L149.214 30.3091C149.214 34.1887 146.118 35.6995 141.94 35.7088C138.34 35.7088 133.761 34.5431 133.752 30.5143V21.0392C133.752 20.5169 133.258 20.1999 132.773 20.0227H138.667C138.172 20.2092 137.734 20.5263 137.734 21.0485V30.5889C137.734 32.1836 138.48 34.4312 142.481 34.4219C146.137 34.4219 147.452 32.6406 147.442 30.3837L147.349 20.9832C147.34 20.7455 147.255 20.517 147.105 20.3321C146.955 20.1472 146.75 20.0157 146.519 19.9574H150.091C149.865 20.0195 149.665 20.1528 149.52 20.3375C149.376 20.5223 149.295 20.7487 149.289 20.9832ZM165.218 35.3917H152.283C152.518 35.3341 152.728 35.2023 152.883 35.0159C153.037 34.8295 153.128 34.5983 153.141 34.3566V20.9273C153.132 20.6847 153.042 20.4521 152.885 20.2674C152.727 20.0828 152.511 19.957 152.273 19.9108H157.869C157.64 19.9675 157.438 20.0996 157.294 20.2858C157.15 20.472 157.073 20.7013 157.076 20.9366V34.0954L160.489 34.2074C163.903 34.1327 164.975 34.0768 165.926 32.7525L165.218 35.3917ZM177.323 21.1138C176.39 21.1138 171.391 21.0392 171.391 21.0392V26.271H176.185C176.412 26.2607 176.633 26.197 176.831 26.0852C177.028 25.9734 177.197 25.8166 177.323 25.6275V28.0429C177.203 27.8477 177.036 27.6857 176.837 27.5716C176.638 27.4576 176.414 27.3952 176.185 27.3901H171.41V34.3566C171.41 34.8975 171.718 35.1493 172.343 35.3731H166.626C167.204 35.1399 167.558 34.8881 167.558 34.3472V20.9179C167.558 20.3864 167.185 20.0693 166.626 19.8921H179.682L179.841 22.093C179.468 21.5521 178.824 21.1604 177.379 21.1604M72.2197 13.8862C72.2585 13.0296 72.4879 12.1925 72.8912 11.4359C73.2946 10.6792 73.8617 10.0221 74.5512 9.51237C75.8625 8.62049 77.424 8.16969 79.009 8.22539V13.8676L72.2197 13.8862ZM118.327 13.7743H109.719C108.961 13.6434 108.271 13.2578 107.762 12.6812C107.254 12.1046 106.957 11.3716 106.921 10.6035C106.963 10.0339 107.193 9.49426 107.574 9.06905C107.956 8.64383 108.467 8.35698 109.029 8.25337C110.974 8.09491 112.926 8.03577 114.876 8.07618H118.262L118.868 5.65145C117.805 6.47213 118.392 6.32291 114.951 6.38819H111.025C109.828 6.38092 108.631 6.45258 107.444 6.60269C106.147 6.82651 103.415 7.87101 103.163 10.1838C103.133 10.9004 103.297 11.6117 103.637 12.2434C103.976 12.875 104.479 13.4038 105.093 13.7743H95.0588V0.895237C95.0588 0.391638 95.3946 0.15849 95.9914 -0.0373535H90.228C90.8155 0.177142 91.1606 0.41029 91.1606 0.895237V13.7743H82.5248V7.30213C82.5248 6.78921 82.8605 6.55606 83.4574 6.36954H80.6596C76.3044 6.36954 74.719 6.9664 73.1989 7.90831C72.2053 8.56841 71.3728 9.44325 70.7626 10.4682C70.1525 11.4932 69.7803 12.6422 69.6737 13.8303H55.7875C54.9787 13.9021 54.1641 13.7971 53.4 13.5225C53.1745 13.4067 52.9809 13.2373 52.8362 13.0291C52.6915 12.821 52.6001 12.5805 52.57 12.3288V7.53528C52.57 7.02235 52.9058 6.78921 53.5026 6.60269H47.7392C48.3267 6.80786 48.6718 7.04101 48.6718 7.53528V11.6387C48.697 12.2316 48.8632 12.81 49.1568 13.3258C49.4504 13.8416 49.8628 14.2799 50.3598 14.6043C51.1613 15.1314 52.0808 15.4518 53.0363 15.5369C53.7451 15.6302 55.5357 15.6395 55.5357 15.6395L116.434 15.4996H123.13L123.811 12.4967C122.878 13.7277 121.768 13.7277 118.327 13.793M79.3913 4.19661C79.3913 4.93335 78.5893 5.53021 77.6007 5.53021C76.6122 5.53021 75.8008 4.94268 75.8008 4.20593C75.8008 3.46919 76.6029 2.88165 77.5914 2.88165C78.58 2.88165 79.3913 3.46919 79.3913 4.19661Z" fill="#004987"/>
<path d="M115.315 4.08476C115.315 4.81218 114.513 5.40904 113.515 5.41836C112.517 5.42769 111.724 4.82151 111.715 4.09409C111.706 3.36667 112.517 2.76981 113.515 2.76048C114.513 2.75116 115.305 3.35734 115.315 4.08476ZM157.776 15.3878C158.764 15.3878 159.566 15.9846 159.575 16.712C159.585 17.4394 158.773 18.0363 157.785 18.0456C156.796 18.055 155.985 17.4488 155.976 16.7214C155.966 15.9939 156.778 15.3878 157.776 15.3878ZM153.402 15.3878C154.4 15.3878 155.202 15.9846 155.202 16.712C155.202 17.4394 154.409 18.0363 153.411 18.0456C152.413 18.055 151.611 17.4581 151.611 16.7214C151.611 15.9846 152.413 15.3971 153.402 15.3878ZM175.728 13.6438H168.584V10.3797C168.584 7.51669 171.046 7.10635 172.137 7.10635C173.229 7.10635 175.719 7.48871 175.728 10.3051V13.6438ZM179.16 14.5764V10.846C179.16 7.33017 175.513 5.74477 172.137 5.7541C168.761 5.76342 165.143 7.36748 165.152 10.9393V13.6811H157.319V7.15298C157.319 6.64006 157.664 6.41624 158.251 6.22039H152.488C153.085 6.43489 153.42 6.65871 153.42 7.15298V13.6811H146.473C145.776 12.2456 144.962 10.87 144.038 9.56839C141.968 6.52815 138.247 6.3323 136.96 6.34163H135.347C131.906 6.34163 132.372 6.40691 131.421 5.61421L132.045 7.89905H136.289C137.029 7.8176 137.778 7.93342 138.459 8.23478C139.141 8.53614 139.73 9.01232 140.168 9.61502C141.16 10.8521 141.965 12.2284 142.556 13.6998H130.022C128.082 13.6158 127.224 13.3734 126.506 12.4221L127.196 15.4251H127.252H136.886H151.397C151.979 14.9628 152.7 14.7112 153.444 14.7112C154.187 14.7112 154.909 14.9628 155.491 15.4251H155.742C156.326 14.963 157.05 14.7131 157.794 14.7163C158.536 14.7034 159.259 14.9509 159.837 15.4157H176.716H179.99C179.552 15.2199 179.244 14.9867 179.16 14.6417" fill="#004987"/>
</g>
<defs>
<clipPath id="clip0_1_122">
<rect width="179.99" height="35.97" fill="white"/>
</clipPath>
</defs>
</svg>
