<svg width="80" height="16" viewBox="0 0 80 16" fill="none" xmlns="http://www.w3.org/2000/svg">
<path d="M25.3714 4.45714C23.2 4.57143 21.4857 6.28571 21.6 8.45714C21.7143 10.6286 23.4286 12.3429 25.6 12.2286C27.7714 12.1143 29.4857 10.4 29.3714 8.22857C29.3714 7.2 28.9143 6.28571 28.2286 5.6C27.4286 4.8 26.4 4.45714 25.3714 4.45714ZM25.3714 10.7429C24.1143 10.7429 23.0857 9.71429 23.0857 8.45714V8.34286C23.0857 7.08571 24 6.05714 25.2571 6.05714C26.5143 6.05714 27.4286 6.97143 27.5429 8.11429V8.34286C27.6571 9.6 26.7429 10.6286 25.3714 10.7429C25.4857 10.7429 25.4857 10.7429 25.3714 10.7429ZM16.8 4.45714C14.6286 4.57143 12.9143 6.28571 13.0286 8.45714C13.1429 10.6286 14.8571 12.3429 17.0286 12.2286C19.2 12.1143 20.9143 10.4 20.8 8.22857C20.8 7.2 20.3429 6.28571 19.6571 5.6C18.8571 4.8 17.8286 4.45714 16.8 4.45714ZM16.8 10.7429C15.5429 10.7429 14.5143 9.71429 14.5143 8.45714V8.34286C14.5143 7.08571 15.5429 6.05714 16.8 6.05714C17.9429 6.05714 18.9714 6.97143 19.0857 8.11429V8.34286C19.0857 9.6 18.1714 10.6286 16.8 10.7429C16.9143 10.7429 16.9143 10.7429 16.8 10.7429ZM6.28571 5.6V7.31429H10.2857C10.1714 8.11429 9.94286 8.8 9.37143 9.37143C8.57143 10.1714 7.42857 10.6286 6.28571 10.6286C3.88571 10.5143 1.94286 8.57143 1.94286 6.05714C2.05714 3.65714 3.88571 1.82857 6.28571 1.71429C7.42857 1.71429 8.57143 2.17143 9.37143 2.85714L10.5143 1.71429C9.37143 0.571429 7.88571 0 6.28571 0C2.85714 0 0.114286 2.74286 0 6.05714C0.114286 9.48571 2.85714 12.1143 6.28571 12.1143C9.25714 12.3429 11.8857 9.94286 12.1143 6.97143C12.1143 6.85714 12.1143 6.62857 12.1143 6.51429C12.1143 6.17143 12.1143 5.82857 12 5.48571L6.28571 5.6ZM48.6857 6.97143C48.2286 5.48571 46.8571 4.45714 45.2571 4.45714C43.2 4.45714 41.4857 6.17143 41.4857 8.22857C41.4857 8.34286 41.4857 8.34286 41.4857 8.45714C41.4857 10.6286 43.2 12.3429 45.2571 12.3429H45.3714C46.7429 12.3429 48 11.6571 48.6857 10.6286L47.3143 9.71429C46.8571 10.4 46.1714 10.7429 45.3714 10.7429C44.5714 10.7429 43.7714 10.2857 43.4286 9.48571L48.8 7.42857L48.6857 6.97143ZM43.2 8.22857C43.0857 7.08572 44 6.05714 45.1429 5.94286H45.2571C45.8286 5.94286 46.4 6.17143 46.7429 6.74286L43.2 8.22857ZM38.9714 12H40.6857V0.457142H38.9714V12ZM36.1143 5.25714C35.5429 4.68571 34.7429 4.34286 33.9429 4.34286C31.7714 4.45714 30.0571 6.28571 30.1714 8.45714C30.2857 10.5143 31.8857 12.1143 33.9429 12.2286C34.7429 12.2286 35.5429 11.8857 36 11.3143H36.1143V12C36.2286 13.1429 35.5429 14.1714 34.4 14.2857C34.2857 14.2857 34.1714 14.2857 33.9429 14.2857C33.0286 14.2857 32.2286 13.7143 32 12.9143L30.5143 13.4857C31.0857 14.8571 32.4571 15.7714 34.0571 15.7714C36.1143 15.7714 37.8286 14.6286 37.8286 11.6571V4.57143H36.1143V5.25714ZM34.0571 10.7429C32.8 10.7429 31.7714 9.71429 31.8857 8.45714V8.34286C31.7714 7.08571 32.8 6.05714 34.0571 5.94286C35.3143 5.94286 36.2286 6.97143 36.2286 8.22857V8.34286C36.2286 9.6 35.4286 10.6286 34.0571 10.7429ZM56.8 0.457142H52.6857V12H54.4V7.65714H56.8C58.8571 7.77143 60.5714 6.17143 60.6857 4.11429C60.6857 4.11429 60.6857 4.11429 60.6857 4C60.6857 2.05714 58.9714 0.457142 56.8 0.457142ZM56.9143 6.05714H54.4V2.05714H56.9143C58.0571 2.05714 58.9714 2.85714 58.9714 4C58.8571 5.14286 57.9429 6.05714 56.9143 6.05714ZM67.6572 4.45714C66.4 4.34286 65.1429 5.02857 64.5714 6.28571L66.0571 6.97143C66.4 6.4 66.9714 6.05714 67.6572 6.05714C68.5714 5.94286 69.3714 6.62857 69.4857 7.54286V7.65714C68.9143 7.31429 68.3429 7.2 67.6572 7.2C65.9429 7.2 64.3429 8.11429 64.3429 9.82857C64.4571 11.3143 65.7143 12.4571 67.2 12.3429C67.2 12.3429 67.2 12.3429 67.3143 12.3429C68.2286 12.4571 69.0286 12 69.4857 11.2H69.6V12H71.3143V7.65714C71.2 5.6 69.7143 4.45714 67.6572 4.45714ZM67.4286 10.7429C66.8571 10.7429 66.0571 10.5143 66.0571 9.71429C66.0571 8.8 67.0857 8.45714 67.8857 8.45714C68.4571 8.45714 69.0286 8.57143 69.4857 8.91429C69.3714 9.94286 68.4572 10.7429 67.4286 10.7429ZM77.3714 4.68571L75.3143 9.71429H75.2L73.1429 4.68571H71.3143L74.4 11.6571L72.5714 15.5429H74.4L79.2 4.68571H77.3714ZM61.6 12H63.3143V0.457142H61.6V12Z" fill="white"/>
</svg>
