<svg width="6" height="6" viewBox="0 0 6 6" fill="none" xmlns="http://www.w3.org/2000/svg">
<path d="M5.71429 3.08571C5.71429 3.77143 5.48572 4.45714 5.02857 4.91429C4.45714 5.48571 3.77143 5.71429 2.97143 5.71429C1.37143 5.71429 0.114286 4.45714 0 2.85714C0 2.05714 0.342861 1.37143 0.914289 0.8C1.48572 0.228572 2.17143 0 2.97143 0C3.31429 0 3.77143 0.114285 4.11429 0.228571C4.45715 0.342857 4.8 0.571429 5.02857 0.8L4.57143 1.25714C4.11429 0.914286 3.54286 0.685714 2.97143 0.685714C2.4 0.685714 1.82858 0.914286 1.48572 1.25714C1.02857 1.71429 0.800001 2.28571 0.800001 2.85714C0.800001 3.42857 1.02857 4 1.48572 4.45714C2.4 5.25714 3.77143 5.25714 4.57143 4.45714C4.91429 4.11429 5.02857 3.77143 5.02857 3.31429H2.97143V2.62857H5.71429C5.71429 2.74286 5.71429 2.97143 5.71429 3.08571Z" fill="white"/>
</svg>
