<svg width="133" height="133" viewBox="0 0 133 133" fill="none" xmlns="http://www.w3.org/2000/svg">
<path d="M132.788 38.0118C133.051 33.7126 130.507 29.8522 126.559 28.1851L58.5613 0.722992C54.6131 -0.856299 50.0507 0.196567 47.243 3.44289L20.9215 33.5372C19.9564 34.6778 19.1668 35.9938 18.5526 37.3099L0.741691 81.6178C-1.36403 86.7066 1.18038 92.5851 6.26921 94.6031C11.358 96.7088 17.2365 94.1644 19.2545 89.0756L20.4828 86.0047L94.6218 115.924L93.3935 118.994C91.2877 124.083 93.8321 129.962 98.921 131.98C104.01 134.085 109.888 131.541 111.906 126.452L129.805 82.232C130.331 80.8282 130.682 79.3366 130.77 77.8451L132.788 38.0118ZM31.0992 68.7203C26.0104 66.6145 23.4659 60.8238 25.5717 55.735C27.6774 50.6462 33.4681 48.1018 38.5569 50.2075C43.6458 52.3132 46.1902 58.1039 44.0845 63.1928C42.0665 68.3693 36.2757 70.826 31.0992 68.7203ZM99.0965 96.1824C94.0076 94.0767 91.4632 88.2859 93.5689 83.1971C95.6747 78.1083 101.465 75.5639 106.554 77.6696C111.643 79.7753 114.187 85.566 112.082 90.6549C110.064 95.8314 104.185 98.2881 99.0965 96.1824ZM34.3455 34.1513L51.7177 13.7083C53.5602 11.6026 56.6311 10.8129 59.2632 11.8658L118.311 35.7306C120.943 36.7835 122.61 39.4157 122.523 42.311L120.856 69.0712L34.3455 34.1513Z" stroke="white" stroke-width="4.38692"/>
</svg>
