<svg width="6" height="6" viewBox="0 0 6 6" fill="none" xmlns="http://www.w3.org/2000/svg">
<path d="M4.91429 4.91429C4.34286 5.48571 3.65714 5.82857 2.85714 5.71429C2.05714 5.71429 1.37143 5.48571 0.800001 4.91429C0.228572 4.34286 0 3.65714 0 2.85714C0 1.25714 1.37143 0 2.97143 0C3.77143 0 4.45714 0.342857 5.02857 0.8C5.6 1.37143 5.82857 2.05714 5.82857 2.85714C5.71428 3.65714 5.48571 4.34286 4.91429 4.91429ZM1.37143 4.45714C1.82857 4.91429 2.28571 5.14286 2.85714 5.02857C3.42857 5.02857 4 4.8 4.34286 4.45714C4.8 4 5.02857 3.42857 4.91429 2.85714C4.91429 2.28571 4.68571 1.71429 4.34286 1.25714C3.88571 0.914286 3.42857 0.685714 2.85714 0.685714C2.28571 0.685714 1.71429 0.914286 1.37143 1.25714C0.914287 1.71429 0.685715 2.28571 0.800001 2.85714C0.685715 3.42857 0.914287 4 1.37143 4.45714Z" fill="white"/>
</svg>
