<svg width="70" height="62" viewBox="0 0 70 62" fill="none" xmlns="http://www.w3.org/2000/svg">
<path d="M33.9086 43.1212L34.5228 44.876C37.3304 52.5092 45.6656 56.3697 53.2988 53.6498C60.9321 50.9299 64.7926 42.5071 62.0727 34.8738L60.2302 29.7849C54.8781 29.8727 50.4035 25.4858 50.4035 20.1337C50.4035 14.7817 54.7027 10.3071 60.0547 10.3071C65.4067 10.3071 69.8814 14.6062 69.8814 19.9583C69.8814 22.9414 68.5653 25.749 66.2841 27.5915L68.1266 32.6804C72.1626 43.6477 66.4596 55.7555 55.4923 59.7915C44.525 63.8275 32.4171 58.1245 28.3811 47.1572L27.767 45.4024C18.3789 47.1572 9.16641 41.8051 5.92009 32.8558L0.392579 17.5893C-0.835759 14.2553 0.919004 10.4825 4.25306 9.25419L7.32391 8.1136C8.99094 7.49943 10.8334 8.46454 11.4476 10.1316C12.0618 11.7986 11.1844 13.6411 9.51737 14.2553L6.44652 15.3959L11.974 30.6623C14.4307 37.4182 21.8885 40.9277 28.6443 38.4711C35.4002 36.0144 38.9097 28.5566 36.453 21.8008L30.9255 6.53426L27.8547 7.67491C26.1877 8.28908 24.3451 7.32391 23.731 5.65688C23.1168 3.98985 23.9942 2.14739 25.6612 1.53322L28.7321 0.392576C32.0661 -0.835762 35.8389 0.919028 37.0672 4.25309L42.5947 19.5196C45.8411 28.4689 42.156 38.3833 33.9086 43.1212ZM61.1953 23.1168C62.8623 22.5027 63.7397 20.6602 63.1255 18.9054C62.5114 17.2384 60.6689 16.361 58.9141 16.9752C57.1593 17.5893 56.3697 19.4318 56.9839 21.1866C57.6858 22.8536 59.5283 23.731 61.1953 23.1168Z" stroke="white" stroke-width="1.75477"/>
</svg>
