<svg width="200" height="200" viewBox="0 0 200 200" fill="none" xmlns="http://www.w3.org/2000/svg">
<path d="M199.347 57.0062C199.673 50.5879 195.866 44.7136 189.991 42.3204L87.952 1.0913C81.9689 -1.30194 75.2243 0.329821 70.9818 5.11631L31.4933 50.2616C30.0791 52.0021 28.8825 53.8514 28.0122 55.9183L1.14259 122.276C-2.01214 129.891 1.57773 138.703 9.30138 141.858C16.9162 145.012 25.7277 141.422 28.8825 133.699C28.8825 133.59 28.9912 133.59 28.9912 133.481L30.8406 128.803L142.126 173.731L140.277 178.409C137.122 186.024 140.712 194.835 148.436 197.99C156.051 201.145 164.862 197.555 168.017 189.831C168.017 189.722 168.126 189.722 168.126 189.614L194.995 123.255C195.866 121.189 196.301 119.013 196.409 116.728L199.347 57.0062ZM46.8318 103.13C39.1081 99.9758 35.4095 91.2731 38.5642 83.5494C41.7189 75.8258 50.4216 72.1271 58.1453 75.2818C65.8689 78.4366 69.5676 87.1393 66.4129 94.8629C63.2581 102.478 54.5554 106.285 46.8318 103.13ZM148.762 144.36C141.039 141.205 137.34 132.502 140.495 124.778C143.649 117.055 152.352 113.356 160.076 116.511C167.799 119.666 171.498 128.368 168.343 136.092C165.189 143.707 156.486 147.405 148.762 144.36ZM51.6183 51.1318L77.7264 20.4548C80.5547 17.1913 85.1237 16.1035 89.0399 17.7352L177.699 53.5251C181.615 55.1568 184.117 59.073 184.008 63.4244L181.506 103.566L51.6183 51.1318Z" stroke="white" stroke-width="5.43919"/>
</svg>
