<svg width="109" height="95" viewBox="0 0 109 95" fill="none" xmlns="http://www.w3.org/2000/svg">
<path d="M52.7437 67.2108L53.7228 69.9304C58.0742 81.7879 71.1282 87.771 82.8769 83.5284C94.7343 79.177 100.717 66.123 96.4748 54.3743L93.5377 46.4331C85.1613 46.5419 78.3079 39.7973 78.1992 31.421C78.0904 23.0446 84.835 16.1912 93.2113 16.0825C101.588 15.9737 108.441 22.7183 108.55 31.0946C108.55 35.6635 106.592 40.0149 103.002 42.952L105.939 50.8933C112.14 67.9723 103.328 86.7919 86.2492 92.9926C69.1701 99.1933 50.3505 90.3818 44.1498 73.3027L43.2796 70.5831C28.7025 73.3027 14.3431 65.0352 9.33902 51.1108L0.63632 27.396C-1.32179 22.1743 1.39781 16.4088 6.61943 14.4507L11.4059 12.7102C14.0167 11.7311 16.9539 13.1453 17.9329 15.7561C18.912 18.3669 17.4978 21.3041 14.887 22.2831L10.1005 24.0237L18.6944 47.7385C22.6106 58.1818 34.1417 63.621 44.6937 59.8135C55.137 56.0061 60.5762 44.3662 56.7687 33.923L48.1748 10.2081L43.3883 11.9487C40.7775 12.9277 37.8404 11.5135 36.8613 8.90272C35.8823 6.29191 37.2965 3.35475 39.9073 2.3757L44.6937 0.635157C49.9154 -1.32295 55.7897 1.39664 57.639 6.72705L66.2329 30.4419C71.3458 44.3662 65.5802 59.8135 52.7437 67.2108ZM95.1694 35.9899C97.7802 35.0108 99.1944 32.1825 98.2154 29.4629C97.2363 26.7433 94.4079 25.4379 91.6883 26.4169C89.0775 27.396 87.6633 30.2243 88.6424 32.9439C89.6214 35.6635 92.5586 36.9689 95.1694 35.9899Z" stroke="white" stroke-width="3.26351"/>
</svg>
