<svg width="120" height="105" viewBox="0 0 120 105" fill="none" xmlns="http://www.w3.org/2000/svg">
<path d="M57.9684 73.8491L59.109 76.9199C63.8469 89.9052 78.1483 96.5733 91.1336 91.9232C104.119 87.1853 110.787 72.884 106.137 59.8987L102.978 51.2126C93.7657 51.3003 86.2202 43.9303 86.1325 34.7178C86.0447 25.5052 93.4148 17.9597 102.627 17.872C111.84 17.7842 119.385 24.9788 119.473 34.1913C119.561 39.1924 117.28 44.018 113.419 47.2644L116.578 55.9505C123.421 74.7265 113.77 95.4327 94.994 102.276C76.218 109.12 55.5118 99.4687 48.6682 80.6927L47.5276 77.6218C31.5592 80.5172 15.7663 71.4802 10.151 56.2137L0.675255 30.1554C-1.43047 24.3646 1.55264 18.0475 7.34337 15.9417L12.6077 14.0115C15.503 12.9586 18.6616 14.4502 19.7145 17.3456C20.7674 20.2409 19.2758 23.3995 16.3804 24.4524L11.1161 26.3826L20.5919 52.5287C24.7156 64.0224 37.4377 70.0763 49.0191 65.9526C60.6006 61.8289 66.6545 49.1069 62.5308 37.5254C62.5308 37.4377 62.4431 37.3499 62.4431 37.2622L52.8796 11.1161L47.6153 13.0464C44.7199 14.0992 41.5614 12.6077 40.5085 9.71231C39.4556 6.81694 40.9472 3.65836 43.8426 2.6055L49.1069 0.675255C54.8976 -1.43047 61.2148 1.55264 63.3205 7.34337L72.884 33.4017C78.4115 48.7559 72.0943 65.7772 57.9684 73.8491ZM104.645 39.6311C107.541 38.5783 109.032 35.4197 107.979 32.5243C106.926 29.6289 103.768 28.1374 100.873 29.1902C97.9772 30.2431 96.4856 33.4017 97.5385 36.2971C98.5913 39.1924 101.75 40.684 104.645 39.6311Z" stroke="white" stroke-width="4.38692"/>
</svg>
