<svg width="16" height="16" viewBox="0 0 16 16" fill="none" xmlns="http://www.w3.org/2000/svg">
<g clip-path="url(#clip0_1_4396)">
<path d="M11.648 9.58803C11.45 9.48869 10.476 9.01003 10.2946 8.94336C10.1126 8.87736 9.98063 8.84469 9.84796 9.04336C9.71663 9.24136 9.33663 9.68736 9.2213 9.81936C9.10596 9.95203 8.98996 9.96803 8.79196 9.86936C8.59396 9.76936 7.9553 9.56069 7.19863 8.88603C6.60996 8.36069 6.21196 7.71203 6.09663 7.51336C5.9813 7.31536 6.08463 7.20803 6.1833 7.10936C6.27263 7.02069 6.38196 6.87803 6.48063 6.76269C6.57996 6.64669 6.61263 6.56403 6.6793 6.43136C6.7453 6.29936 6.71263 6.18403 6.66263 6.08469C6.61263 5.98536 6.21663 5.01003 6.05196 4.61336C5.89063 4.22736 5.7273 4.28003 5.60596 4.27336C5.49063 4.26803 5.35863 4.26669 5.22596 4.26669C5.09396 4.26669 4.8793 4.31603 4.69796 4.51469C4.51663 4.71269 4.00463 5.19203 4.00463 6.16736C4.00463 7.14203 4.71463 8.08403 4.8133 8.21669C4.91263 8.34869 6.21063 10.35 8.19796 11.208C8.67063 11.412 9.0393 11.534 9.3273 11.6247C9.80196 11.776 10.234 11.7547 10.5746 11.7034C10.9553 11.6467 11.7466 11.224 11.912 10.7614C12.0773 10.2987 12.0773 9.90203 12.0273 9.81936C11.978 9.73669 11.8466 9.68736 11.648 9.58803ZM8.0333 14.5234H8.03063C6.85048 14.5235 5.69202 14.2062 4.67663 13.6047L4.43596 13.462L1.94196 14.1167L2.6073 11.6847L2.45063 11.4354C1.79092 10.3849 1.44192 9.16915 1.44396 7.92869C1.44463 4.29536 4.4013 1.33936 8.03596 1.33936C9.79596 1.33936 11.4506 2.02603 12.6946 3.27136C13.3084 3.88244 13.7949 4.60918 14.126 5.40952C14.457 6.20987 14.6261 7.06792 14.6233 7.93403C14.6213 11.5674 11.6653 14.5234 8.0333 14.5234ZM13.642 2.32536C12.9074 1.58598 12.0335 0.999719 11.0707 0.600561C10.1079 0.201403 9.07552 -0.0027175 8.0333 2.73184e-05C3.6633 2.73184e-05 0.106631 3.55669 0.104631 7.92803C0.104631 9.32536 0.469297 10.6894 1.1633 11.8914L0.0379639 16L4.2413 14.8974C5.40369 15.5306 6.70626 15.8625 8.02996 15.8627H8.0333C12.4026 15.8627 15.96 12.306 15.962 7.93403C15.9652 6.89221 15.7618 5.86009 15.3636 4.89738C14.9654 3.93467 14.3802 3.06047 13.642 2.32536Z" fill="white"/>
</g>
<defs>
<clipPath id="clip0_1_4396">
<rect width="16" height="16" fill="white"/>
</clipPath>
</defs>
</svg>
