<svg width="32" height="32" viewBox="0 0 32 32" fill="none" xmlns="http://www.w3.org/2000/svg">
<path d="M23.6267 13.0667C23.5733 13.1067 21.56 14.2533 21.56 16.7067C21.56 19.5467 24.0533 20.5467 24.1333 20.5733C24.12 20.6267 23.7333 21.9467 22.8 23.2933C22 24.4667 21.16 25.64 19.8667 25.64C18.5733 25.64 18.24 24.8933 16.76 24.8933C15.3067 24.8933 14.8 25.6667 13.5867 25.6667C12.3733 25.6667 11.52 24.5733 10.5733 23.24C9.35999 21.5467 8.53333 18.8 8.53333 16.1733C8.53333 11.9467 11.28 9.70668 13.9733 9.70668C15.2533 9.70668 16.32 10.5467 17.12 10.5467C17.8933 10.5467 19.0933 9.65334 20.5467 9.65334C21.0933 9.65334 23.08 9.70668 24.3867 11.56L23.6267 11.7333V13.0667ZM19.2533 6.84001C19.8533 6.13334 20.28 5.14668 20.28 4.16001C20.28 4.02668 20.2667 3.88001 20.2533 3.76001C19.28 3.80001 18.1067 4.41334 17.4133 5.21334C16.8533 5.84001 16.3333 6.84001 16.3333 7.84001C16.3333 7.98668 16.36 8.14668 16.3733 8.18668C16.44 8.20001 16.56 8.21334 16.6667 8.21334C17.5467 8.21334 18.6533 7.62668 19.2533 6.84001Z" fill="#9CA3AF"/>
</svg>
