<svg width="28" height="28" viewBox="0 0 28 28" fill="none" xmlns="http://www.w3.org/2000/svg">
<g clip-path="url(#clip0_1_482)">
<path d="M6.2125 5.37031L4.66484 10.5328C4.85625 10.5109 5.05312 10.5 5.25 10.5H22.75C22.9469 10.5 23.1437 10.5109 23.3352 10.5328L21.7875 5.37031C21.4539 4.26016 20.4312 3.5 19.2719 3.5H8.72813C7.56875 3.5 6.54609 4.26016 6.2125 5.37031ZM4.06328 12.4578C2.7125 12.9445 1.75 14.2352 1.75 15.75V21H26.25V15.75C26.25 14.2352 25.2875 12.9445 23.9367 12.4578L23.9094 12.4633L23.9039 12.4469C23.543 12.3211 23.1492 12.25 22.7445 12.25H5.25C4.84531 12.25 4.45703 12.3211 4.09063 12.4469L4.08516 12.4633L4.05781 12.4578H4.06328ZM2.64141 11.1945L2.66328 11.1234L4.53906 4.86719C5.09687 3.01875 6.79766 1.75 8.72813 1.75H19.2719C21.2023 1.75 22.9086 3.01875 23.4609 4.86719L25.3367 11.1234L25.3586 11.1945C26.9391 12.0969 28 13.7977 28 15.75V21V21.875V22.75V25.375C28 25.8562 27.6062 26.25 27.125 26.25C26.6437 26.25 26.25 25.8562 26.25 25.375V22.75H1.75V25.375C1.75 25.8562 1.35625 26.25 0.875 26.25C0.39375 26.25 0 25.8562 0 25.375V22.75V21.875V21V15.75C0 13.7977 1.06094 12.0969 2.64141 11.1945ZM5.6875 14.875C6.0356 14.875 6.36944 15.0133 6.61558 15.2594C6.86172 15.5056 7 15.8394 7 16.1875C7 16.5356 6.86172 16.8694 6.61558 17.1156C6.36944 17.3617 6.0356 17.5 5.6875 17.5C5.3394 17.5 5.00556 17.3617 4.75942 17.1156C4.51328 16.8694 4.375 16.5356 4.375 16.1875C4.375 15.8394 4.51328 15.5056 4.75942 15.2594C5.00556 15.0133 5.3394 14.875 5.6875 14.875ZM21 16.1875C21 15.8394 21.1383 15.5056 21.3844 15.2594C21.6306 15.0133 21.9644 14.875 22.3125 14.875C22.6606 14.875 22.9944 15.0133 23.2406 15.2594C23.4867 15.5056 23.625 15.8394 23.625 16.1875C23.625 16.5356 23.4867 16.8694 23.2406 17.1156C22.9944 17.3617 22.6606 17.5 22.3125 17.5C21.9644 17.5 21.6306 17.3617 21.3844 17.1156C21.1383 16.8694 21 16.5356 21 16.1875Z" fill="#E6738F"/>
</g>
<defs>
<clipPath id="clip0_1_482">
<rect width="28" height="28" fill="white"/>
</clipPath>
</defs>
</svg>
