<svg width="28" height="25" viewBox="0 0 28 25" fill="none" xmlns="http://www.w3.org/2000/svg">
<g clip-path="url(#clip0_1_464)">
<path d="M27.3535 10.7528C27.7229 11.2146 28 11.7882 28 12.4444C28 13.7521 26.95 14.734 25.9681 15.3222C24.9424 15.9396 23.6687 16.3333 22.6674 16.3333H17.7868L13.5674 23.7125C13.1542 24.4417 12.3764 24.8889 11.5403 24.8889H8.80833C7.77292 24.8889 7.02917 23.9021 7.31111 22.9056L9.19236 16.3333H6.61111L4.74444 18.8222C4.45278 19.216 3.99097 19.4444 3.5 19.4444H1.45833C0.651389 19.4444 0 18.7931 0 17.9861C0 17.85 0.0194444 17.7139 0.0583333 17.5875L1.52639 12.4444L0.0583333 7.30625C0.0194444 7.175 0 7.03889 0 6.90278C0 6.09583 0.651389 5.44444 1.45833 5.44444H3.5C3.99097 5.44444 4.45278 5.67292 4.74444 6.06667L6.61111 8.55555H9.19236L7.31111 1.98333C7.02917 0.986805 7.77778 0 8.80833 0H11.5403C12.3764 0 13.1493 0.447222 13.5674 1.17639L17.7868 8.55555H22.6674C23.6736 8.55555 24.9472 8.96389 25.9729 9.58611C26.4931 9.90208 26.984 10.291 27.3535 10.7528ZM25.166 10.9132C24.325 10.4028 23.3236 10.1062 22.6722 10.1062H17.3347C17.0576 10.1062 16.8 9.95556 16.659 9.7125L12.216 1.94931C12.0799 1.70625 11.8174 1.55556 11.5403 1.55556H8.80833L10.9715 9.11944C11.0396 9.35278 10.991 9.60556 10.8451 9.8C10.6993 9.99444 10.466 10.1111 10.2229 10.1111H6.22222C5.97917 10.1111 5.74583 9.99444 5.6 9.8L3.5 7H1.58472L3.08194 12.2306C3.12083 12.3715 3.12083 12.5174 3.08194 12.6583L1.58472 17.8889H3.5L5.6 15.0889C5.74583 14.8944 5.97917 14.7778 6.22222 14.7778H10.2229C10.466 14.7778 10.6993 14.8944 10.8451 15.0889C10.991 15.2833 11.0396 15.5361 10.9715 15.7694L8.80833 23.3333H11.5403C11.8174 23.3333 12.075 23.1826 12.216 22.9396L16.659 15.1667C16.8 14.9236 17.0576 14.7729 17.3347 14.7729H22.6674C23.3285 14.7729 24.3299 14.4861 25.166 13.9854C26.0458 13.4604 26.4444 12.8868 26.4444 12.4444C26.4444 12.2451 26.3618 12.0069 26.1382 11.725C25.9146 11.4431 25.5792 11.166 25.166 10.9132Z" fill="#6B6B6B"/>
</g>
<defs>
<clipPath id="clip0_1_464">
<rect width="28" height="24.8889" fill="white"/>
</clipPath>
</defs>
</svg>
