<svg width="28" height="28" viewBox="0 0 28 28" fill="none" xmlns="http://www.w3.org/2000/svg">
<g clip-path="url(#clip0_1_476)">
<path d="M13.3437 7.14219C13.5078 7.32813 13.7484 7.4375 14 7.4375C14.2516 7.4375 14.4867 7.32813 14.6562 7.14219L15.3125 6.40391L15.5422 6.14688C16.9641 4.55 19.1133 3.80625 21.2187 4.18906C24.1336 4.71953 26.25 7.25703 26.25 10.2211V10.4125C26.25 11.7141 25.8508 12.9664 25.1289 14.0219C25.0687 14.0109 25.0031 14 24.9375 14H20.3328C19.9992 14 19.6984 13.8141 19.5508 13.5188L18.282 10.9867C18.1344 10.6914 17.8336 10.5055 17.5 10.5055C17.1664 10.5055 16.8656 10.6914 16.718 10.9867L14.0437 16.3406L10.8609 9.26406C10.7187 8.94688 10.4016 8.74453 10.0516 8.75C9.70156 8.75547 9.38984 8.96875 9.25859 9.28594L7.51953 13.4586C7.38281 13.7867 7.06562 13.9945 6.71016 13.9945H3.0625C2.99687 13.9945 2.93125 14 2.87109 14.0164C2.14922 12.9664 1.75 11.7141 1.75 10.4125V10.2211C1.75 7.25703 3.86641 4.71953 6.78125 4.18906C8.88672 3.80625 11.0359 4.55 12.4578 6.14688L12.6875 6.40391L13.3437 7.14219ZM23.4937 15.75H25.9984L26.0039 15.7445C27.2836 14.2734 28 12.3813 28 10.4125V10.2211C28 6.41485 25.2766 3.15 21.5305 2.46641C19.2937 2.06172 17.0133 2.64141 15.2578 4.01953C15.1594 4.0961 15.0609 4.17813 14.9625 4.26563C14.7055 4.48985 14.4648 4.725 14.2352 4.98203L14 5.24453L13.7703 4.9875C13.4531 4.63203 13.1141 4.30938 12.7477 4.025C10.9922 2.64688 8.71172 2.06172 6.46953 2.46641C2.72344 3.15 0 6.41485 0 10.2211V10.4125C0 12.3813 0.716406 14.2734 2.00156 15.7445L2.00703 15.75H4.50625H6.70469C7.76562 15.75 8.72266 15.1102 9.12734 14.1367L10.0898 11.8289L13.1961 18.7359C13.3328 19.0422 13.6391 19.2445 13.9781 19.25C14.3172 19.2555 14.6289 19.0695 14.7766 18.7688L17.5 13.3328L17.9812 14.3008C18.4242 15.1922 19.3375 15.75 20.3273 15.75H23.4883H23.4937ZM3.81719 17.5L12.6437 25.7195C13.0102 26.0641 13.4969 26.25 14 26.25C14.4375 26.25 14.8641 26.1023 15.2086 25.8398C15.2578 25.8016 15.307 25.7633 15.3508 25.7195L24.1828 17.5H21.6125L14.1641 24.4344C14.1203 24.4727 14.0602 24.5 14 24.5C13.9398 24.5 13.8797 24.4781 13.8359 24.4344L6.3875 17.5H3.81719Z" fill="#6B6B6B"/>
</g>
<defs>
<clipPath id="clip0_1_476">
<rect width="28" height="28" fill="white"/>
</clipPath>
</defs>
</svg>
