<svg width="28" height="25" viewBox="0 0 28 25" fill="none" xmlns="http://www.w3.org/2000/svg">
<g clip-path="url(#clip0_1_452)">
<path d="M13.4847 0.19445C13.7764 -0.063189 14.2188 -0.063189 14.5153 0.19445L27.7375 11.8611C28.0583 12.1431 28.0924 12.6389 27.8056 12.9597C27.5188 13.2806 27.0278 13.3146 26.707 13.0278L24.8889 11.4236V21C24.8889 23.1486 23.1486 24.8889 21 24.8889H7.00001C4.8514 24.8889 3.11113 23.1486 3.11113 21V11.4236L1.29307 13.0278C0.972237 13.3097 0.476404 13.2806 0.194459 12.9597C-0.0874852 12.6389 -0.0583185 12.1431 0.262515 11.8611L13.4847 0.19445ZM4.66668 10.0479V21C4.66668 22.2882 5.71182 23.3333 7.00001 23.3333H21C22.2882 23.3333 23.3333 22.2882 23.3333 21V10.0479L14 1.8132L4.66668 10.0479ZM14 12.4444C14.4126 12.4444 14.8082 12.2806 15.1 11.9888C15.3917 11.6971 15.5556 11.3015 15.5556 10.8889C15.5556 10.4763 15.3917 10.0807 15.1 9.78895C14.8082 9.49723 14.4126 9.33334 14 9.33334C13.5875 9.33334 13.1918 9.49723 12.9001 9.78895C12.6083 10.0807 12.4445 10.4763 12.4445 10.8889C12.4445 11.3015 12.6083 11.6971 12.9001 11.9888C13.1918 12.2806 13.5875 12.4444 14 12.4444ZM14 7.77778C14.8251 7.77778 15.6165 8.10556 16.1999 8.68901C16.7833 9.27245 17.1111 10.0638 17.1111 10.8889C17.1111 11.714 16.7833 12.5053 16.1999 13.0888C15.6165 13.6722 14.8251 14 14 14C13.1749 14 12.3836 13.6722 11.8001 13.0888C11.2167 12.5053 10.8889 11.714 10.8889 10.8889C10.8889 10.0638 11.2167 9.27245 11.8001 8.68901C12.3836 8.10556 13.1749 7.77778 14 7.77778ZM10.1111 19.0556V19.4444C10.1111 19.8722 9.76112 20.2222 9.33335 20.2222C8.90557 20.2222 8.55557 19.8722 8.55557 19.4444V19.0556C8.55557 17.1208 10.1208 15.5556 12.0556 15.5556H15.9445C17.8792 15.5556 19.4445 17.1208 19.4445 19.0556V19.4444C19.4445 19.8722 19.0945 20.2222 18.6667 20.2222C18.2389 20.2222 17.8889 19.8722 17.8889 19.4444V19.0556C17.8889 17.9813 17.0188 17.1111 15.9445 17.1111H12.0556C10.9813 17.1111 10.1111 17.9813 10.1111 19.0556Z" fill="#6B6B6B"/>
</g>
<defs>
<clipPath id="clip0_1_452">
<rect width="28" height="24.8889" fill="white"/>
</clipPath>
</defs>
</svg>
