<svg width="28" height="25" viewBox="0 0 28 25" fill="none" xmlns="http://www.w3.org/2000/svg">
<g clip-path="url(#clip0_1_470)">
<path d="M6.17372 0.505567C6.32441 0.909039 6.12025 1.35626 5.71677 1.50696L3.61678 2.29446C3.31053 2.40626 3.11122 2.69793 3.11122 3.02362V9.33334C3.11122 12.7701 5.89664 15.5556 9.33344 15.5556C12.7702 15.5556 15.5557 12.7701 15.5557 9.33334V3.02362C15.5557 2.69793 15.3564 2.41112 15.0501 2.29446L12.9501 1.50696C12.5466 1.35626 12.3425 0.909039 12.4932 0.505567C12.6439 0.102095 13.0911 -0.102072 13.4946 0.0486225L15.5946 0.836122C16.5036 1.1764 17.1064 2.04654 17.1064 3.01876V9.33334C17.1064 13.3681 14.039 16.6833 10.1064 17.0722V17.1111C10.1064 20.5479 12.8918 23.3333 16.3286 23.3333C19.7654 23.3333 22.5508 20.5479 22.5508 17.1111V12.3472C21.2091 12.0021 20.2175 10.782 20.2175 9.33334C20.2175 7.61737 21.6126 6.22223 23.3286 6.22223C25.0446 6.22223 26.4397 7.61737 26.4397 9.33334C26.4397 10.782 25.448 12.0021 24.1064 12.3472V17.1111C24.1064 21.4083 20.6258 24.8889 16.3286 24.8889C12.0314 24.8889 8.5508 21.4083 8.5508 17.1111V17.0722C4.62302 16.6833 1.55566 13.3681 1.55566 9.33334V3.02362C1.55566 2.0514 2.15844 1.18126 3.06747 0.840984L5.17233 0.0486225C5.5758 -0.102072 6.02302 0.102095 6.17372 0.505567ZM23.3334 10.8889C23.746 10.8889 24.1417 10.725 24.4334 10.4333C24.7251 10.1416 24.889 9.7459 24.889 9.33334C24.889 8.92079 24.7251 8.52512 24.4334 8.2334C24.1417 7.94168 23.746 7.77779 23.3334 7.77779C22.9209 7.77779 22.5252 7.94168 22.2335 8.2334C21.9418 8.52512 21.7779 8.92079 21.7779 9.33334C21.7779 9.7459 21.9418 10.1416 22.2335 10.4333C22.5252 10.725 22.9209 10.8889 23.3334 10.8889Z" fill="#6B6B6B"/>
</g>
<defs>
<clipPath id="clip0_1_470">
<rect width="28" height="24.8889" fill="white"/>
</clipPath>
</defs>
</svg>
