<svg width="12" height="12" viewBox="0 0 12 12" fill="none" xmlns="http://www.w3.org/2000/svg">
<path d="M11.1297 5.56517C11.1302 4.8512 10.9246 4.15226 10.5377 3.55225C10.1507 2.95224 9.59879 2.47666 8.94819 2.18258C9.16335 2.66323 9.27472 3.18385 9.27503 3.71046C9.27583 4.3616 9.10467 5.0014 8.77886 5.56517C9.10467 6.12894 9.27583 6.76875 9.27503 7.41989C9.27472 7.94649 9.16335 8.46712 8.94819 8.94776C9.59879 8.65368 10.1507 8.1781 10.5377 7.57809C10.9246 6.97808 11.1302 6.27914 11.1297 5.56517ZM2.35234 5.56517C2.05793 5.05507 1.88936 4.48214 1.8606 3.89388C1.83183 3.30561 1.94371 2.71897 2.18695 2.18258C1.53534 2.47586 0.982315 2.95111 0.594351 3.55118C0.206386 4.15125 0 4.85061 0 5.56517C0 6.27974 0.206386 6.97909 0.594351 7.57916C0.982315 8.17924 1.53534 8.65448 2.18695 8.94776C1.94371 8.41137 1.83183 7.82473 1.8606 7.23647C1.88936 6.64821 2.05793 6.07527 2.35234 5.56517ZM5.5656 8.77844C5.05597 9.0719 4.48399 9.24027 3.89665 9.2697C3.30931 9.29914 2.72336 9.1888 2.18695 8.94776C2.48074 9.59824 2.95595 10.1502 3.55559 10.5373C4.15522 10.9244 4.85382 11.1303 5.56757 11.1303C6.28132 11.1303 6.97991 10.9244 7.57955 10.5373C8.17918 10.1502 8.6544 9.59824 8.94819 8.94776C8.4111 9.18883 7.82452 9.29917 7.23654 9.26974C6.64856 9.24031 6.07593 9.07194 5.5656 8.77844ZM5.5656 2.35191C6.07593 2.05841 6.64856 1.89004 7.23654 1.8606C7.82452 1.83117 8.4111 1.94151 8.94819 2.18258C8.6544 1.5321 8.17918 0.980188 7.57955 0.593053C6.97991 0.205918 6.28132 0 5.56757 0C4.85382 0 4.15522 0.205918 3.55559 0.593053C2.95595 0.980188 2.48074 1.5321 2.18695 2.18258C2.72336 1.94154 3.30931 1.83121 3.89665 1.86064C4.48399 1.89008 5.05597 2.05844 5.5656 2.35191Z" fill="#6B87BA"/>
</svg>
