<svg width="6" height="4" viewBox="0 0 6 4" fill="none" xmlns="http://www.w3.org/2000/svg">
<path d="M3.37167 0.0447748C3.40743 0.0447748 3.45339 0.039667 3.45339 0.039667C3.46361 0.678108 3.45339 1.46977 3.46361 2.11332C3.46872 2.32273 3.48915 2.47596 3.53512 2.56279C3.61684 2.72112 3.75474 2.81305 3.94882 2.83348C4.02033 2.8437 4.09694 2.84881 4.17866 2.85391C4.25017 2.85902 4.32678 2.85391 4.4085 2.8437C4.74049 2.79773 4.91925 2.60875 4.94479 2.27166C4.96522 1.97031 4.95501 0.63214 4.95501 0.192893C4.95501 0.11628 5.06737 0.0498827 5.14399 0.0498827H5.16953C5.16953 0.0498827 5.16441 0.851764 5.17974 1.25015C5.18484 1.4187 5.18485 1.57193 5.18485 1.69961C5.18485 1.84773 5.17974 2.00096 5.17974 2.14908C5.17463 2.36359 5.10312 2.52192 5.05205 2.61897C4.9499 2.81816 4.77624 2.94074 4.52597 2.98671C4.3421 3.02246 4.15313 3.03268 3.96415 3.01225C3.74452 2.99182 3.56065 2.88967 3.40743 2.70069C3.39211 2.68026 3.36146 2.68026 3.34103 2.69558L3.33592 2.70069C3.1827 2.88456 2.99882 2.98671 2.7792 3.00714C2.61065 3.02246 2.44721 3.01736 2.27866 3.00203C2.06925 2.9765 1.90071 2.87945 1.77302 2.7109C1.7577 2.69047 1.72705 2.68537 1.70662 2.70069C1.70151 2.70069 1.70151 2.7058 1.69641 2.7058C1.59936 2.81816 1.487 2.89988 1.35931 2.95096C1.27759 2.9816 1.14479 3.00714 0.960921 3.01225C0.680007 3.02757 0.491029 3.02246 0.399094 3.00203C0.245868 2.96628 0.133501 2.88456 0.0722105 2.76198C0.0364578 2.69047 0.0160302 2.56789 0.0109227 2.39424C-0.00439989 1.61789 -0.00440114 0.846657 0.016029 0.0703124C0.016029 0.0549899 0.0262453 0.0396671 0.0364603 0.0294521C0.0824281 0.00391444 0.128395 -0.00630061 0.17947 0.00391444C0.194793 0.00391444 0.205008 0.0192373 0.205008 0.0345599C0.210116 0.856872 0.210114 1.68429 0.210114 2.5066C0.210114 2.61386 0.245869 2.70069 0.317374 2.76709C0.373557 2.81305 0.455277 2.83859 0.562535 2.8437C0.669793 2.84881 0.817911 2.8437 1.012 2.83859C1.23673 2.83348 1.40528 2.75176 1.51764 2.60365C1.56361 2.54236 1.58915 2.45553 1.59426 2.33805C1.63001 1.623 1.64022 1.19908 1.6249 1.06117C1.61468 0.969237 1.71684 0.92327 1.81388 0.918162C1.83431 0.918162 1.84963 0.933484 1.84963 0.948807C1.86496 1.11736 1.87006 1.27569 1.86495 1.41359C1.85985 1.66897 1.85985 1.92945 1.87517 2.18483C1.88539 2.38402 1.87006 2.52703 1.93135 2.61386C2.02329 2.74155 2.1663 2.81816 2.36549 2.83348C2.44721 2.83859 2.51872 2.8437 2.58001 2.8437C2.65662 2.8437 2.72813 2.83859 2.78942 2.82838C2.95796 2.80795 3.08055 2.72623 3.15716 2.59343C3.27974 2.41467 3.24399 0.698538 3.22866 0.187786C3.23377 0.11628 3.29506 0.0498823 3.37167 0.0447748Z" fill="#181818" stroke="#181818" stroke-width="0.0383065" stroke-miterlimit="10"/>
</svg>
