<svg width="8" height="4" viewBox="0 0 8 4" fill="none" xmlns="http://www.w3.org/2000/svg">
<path d="M3.81779 0.594214C3.84333 0.492064 3.85354 0.405236 3.83822 0.328623C3.81779 0.206043 3.83822 0.103892 3.90462 0.0170638C3.97612 -0.0186889 4.01699 0.00174108 4.02209 0.078354C4.03742 0.29287 4.03742 0.466526 4.02209 0.599322C4.01188 0.696365 4.01188 0.880236 4.02209 1.15604C4.03231 1.4012 4.06295 1.56975 4.11403 1.66169C4.21107 1.83024 4.41537 1.88131 4.66564 1.88131C4.86483 1.88131 4.99763 1.8711 5.07424 1.85577C5.29387 1.80981 5.39602 1.70766 5.44709 1.48292C5.48284 1.32459 5.49817 1.17136 5.49306 1.03346C5.48285 0.76787 5.53392 0.548247 5.63607 0.374591C5.74333 0.195827 5.92209 0.0987841 6.16725 0.078354C6.63204 0.0426013 6.91295 0.246902 7.00489 0.691257C7.06107 0.946634 7.06107 1.21222 7.01 1.48292C6.97424 1.6719 6.88742 1.82513 6.75462 1.92728C6.63204 2.02432 6.47881 2.0805 6.30005 2.09072C6.03957 2.10093 5.81994 1.99878 5.63607 1.77405C5.62075 1.75362 5.5901 1.75362 5.56967 1.76895L5.56456 1.77405C5.41134 1.95792 5.21215 2.0754 4.98231 2.10093C4.81376 2.11626 4.65032 2.11626 4.48177 2.10093C4.26725 2.0754 4.10381 1.96303 3.9608 1.78427C3.95059 1.76895 3.92505 1.76895 3.90973 1.77916C3.90973 1.77916 3.90973 1.77916 3.90462 1.78427C3.73607 1.96303 3.55731 2.06518 3.35811 2.08561C3.15381 2.11115 2.85247 2.11115 2.45408 2.09072C2.43876 2.09072 2.42343 2.10093 2.42343 2.11626C2.40811 2.16733 2.38258 2.26948 2.35193 2.42271C2.32129 2.56572 2.24978 2.6883 2.14252 2.78024C2.05569 2.85685 1.93822 2.91303 1.7901 2.95389C1.56537 3.01518 1.32021 3.03561 1.04951 3.01007C0.538759 2.96411 0.216983 2.6883 0.09951 2.18776C0.0739724 2.0805 0.0433291 1.85067 0.00246886 1.50335C-0.0128537 1.36034 0.0433297 1.28884 0.16591 1.27862C0.181233 1.27862 0.191448 1.28884 0.191448 1.29905C0.191448 1.39099 0.196553 1.48803 0.201661 1.57997C0.201661 1.57997 0.201662 1.65147 0.20677 1.77916C0.211877 1.93749 0.242523 2.08561 0.293599 2.23373C0.349781 2.39206 0.4315 2.51464 0.543866 2.61169C0.671554 2.71895 0.814566 2.79045 0.983115 2.81599C1.11591 2.83642 1.27424 2.84663 1.453 2.83642C1.62155 2.83131 1.77478 2.79045 1.91779 2.72405C1.96887 2.69852 2.01994 2.65766 2.06591 2.59636C2.10166 2.5504 2.13231 2.49421 2.15274 2.42782C2.1987 2.26948 2.21913 2.10093 2.21403 1.91196C2.20381 1.56464 2.20892 1.11518 2.22935 0.573784C2.22935 0.558461 2.23446 0.538032 2.24467 0.527816C2.3315 0.400128 2.37747 0.420559 2.38258 0.584C2.41322 1.24287 2.42344 1.64126 2.40811 1.78427C2.3979 1.89663 2.43365 1.94771 2.52559 1.9426C2.57155 1.93749 2.59709 1.93749 2.59709 1.93749C2.735 1.93749 2.87801 1.93749 3.01591 1.93239C3.24575 1.92728 3.38876 1.91706 3.43473 1.90174C3.54709 1.8711 3.63903 1.80981 3.71053 1.71787C3.76161 1.64637 3.79736 1.54932 3.80758 1.42163C3.81779 1.14072 3.82801 0.870021 3.81779 0.594214ZM5.80462 0.502279C5.69736 0.721902 5.6565 0.951741 5.67693 1.18669C5.68715 1.3297 5.70758 1.44206 5.73311 1.52889C5.76887 1.65658 5.84037 1.75362 5.94252 1.82002C6.14682 1.95792 6.36134 1.95282 6.58607 1.8047C6.65757 1.78427 6.70354 1.7383 6.72397 1.66169C6.87209 1.28884 6.8772 0.915988 6.73419 0.538031C6.68822 0.384806 6.57585 0.29287 6.39198 0.257117C6.11618 0.206042 5.92209 0.287763 5.80462 0.502279Z" fill="#181818" stroke="#181818" stroke-width="0.0383065" stroke-miterlimit="10"/>
</svg>
