<svg width="6" height="4" viewBox="0 0 6 4" fill="none" xmlns="http://www.w3.org/2000/svg">
<path d="M5.28424 0.920713C5.27913 0.910498 5.26892 0.900284 5.25359 0.905391L4.90117 1.01265C4.88585 1.01776 4.87564 1.03308 4.87564 1.05351C4.87564 1.39571 4.87564 1.73792 4.87564 2.08012C4.87564 2.21803 4.85521 2.33039 4.80924 2.42233C4.76838 2.50405 4.70709 2.56023 4.62537 2.59598C4.57429 2.61641 4.49257 2.62663 4.38531 2.63173C4.13505 2.63684 3.86435 2.63174 3.57322 2.62663C3.57322 2.62663 3.57322 2.62663 3.56811 2.62663C3.53746 2.62663 3.51703 2.60109 3.51703 2.57044C3.53236 2.36104 3.52214 2.16184 3.4966 1.97286C3.46085 1.73281 3.40467 1.54383 3.33316 1.40593C3.21569 1.1863 3.03182 1.03819 2.77134 0.956467C2.613 0.890069 2.43935 0.869638 2.2708 0.884961L2.19929 0.890069C1.91327 0.946251 1.64768 1.08415 1.39741 1.29867L1.3923 1.30378C1.36677 1.32932 1.36677 1.37018 1.3923 1.39061L1.62725 1.60512C1.63746 1.61534 1.65278 1.61023 1.663 1.60001C1.78558 1.457 1.93881 1.35996 2.11757 1.29867C2.25037 1.27313 2.38827 1.26803 2.52107 1.28335H2.52617C2.76112 1.32421 2.91435 1.44679 2.98074 1.64598C3.07779 1.9269 3.11354 2.24356 3.09311 2.59598C3.09311 2.62152 3.07268 2.64195 3.04714 2.64195C2.22483 2.64706 1.42806 2.64195 0.646607 2.63173C0.564887 2.63173 0.503591 2.6062 0.462731 2.56023C0.432086 2.52448 0.416768 2.46829 0.416768 2.38657C0.406553 1.61023 0.396337 0.818563 0.396337 0.0217891V0.0166813C0.391229 0.0064662 0.381014 -0.00374901 0.370799 0.00135852L0.0439163 0.098402C0.0183786 0.10351 0.00305355 0.129047 0.00305355 0.159692C-0.00205397 0.936036 -0.00205023 1.69706 0.0132723 2.44276C0.0132723 2.56534 0.0388112 2.66238 0.084779 2.73389C0.146069 2.83093 0.227786 2.90243 0.329937 2.9484C0.411657 2.98415 0.554668 3.00458 0.764076 3.00969C1.93881 3.02501 3.10843 3.02501 4.28316 3.00969C4.52833 3.00458 4.70198 2.97905 4.81435 2.93308C5.00333 2.85136 5.13612 2.71856 5.21784 2.53469C5.26892 2.41722 5.29446 2.21292 5.29446 1.932C5.29446 1.60512 5.29446 1.27313 5.29446 0.936036C5.28424 0.925821 5.28424 0.925821 5.28424 0.920713Z" fill="#181818"/>
</svg>
