<svg width="3" height="4" viewBox="0 0 3 4" fill="none" xmlns="http://www.w3.org/2000/svg">
<path d="M2.51812 1.97086C2.32679 2.89562 1.94413 3.17198 1.16287 3.071C0.80976 3.0108 0.493238 2.81734 0.278632 2.53054C0.0640257 2.24374 -0.0322832 1.88549 0.00958492 1.52974C-0.0144608 1.17065 0.0973104 0.815622 0.32274 0.535066C0.548169 0.254509 0.870796 0.0689038 1.22665 0.015056C1.8963 -0.0752937 2.33742 0.232963 2.58721 1.15772C1.88035 0.5359 1.22133 -0.224105 0.57294 0.886664C0.411891 1.13276 0.343275 1.42798 0.379276 1.71988C0.415277 2.01178 0.553567 2.28147 0.769585 2.48107C1.55084 3.2517 1.99728 2.42261 2.51812 1.97086Z" fill="#63BA58"/>
</svg>
