<svg width="59" height="7" viewBox="0 0 59 7" fill="none" xmlns="http://www.w3.org/2000/svg">
<path d="M42.1475 0C42.2431 0.148811 42.4132 0.302937 42.4185 0.457063L42.477 3.84252C42.477 4.60783 42.1634 4.97454 41.414 4.9586C40.5743 4.9586 39.7452 4.78853 38.9055 4.69818C38.8153 4.69022 38.7246 4.69022 38.6345 4.69818L34.1117 4.96391C33.8131 4.92274 33.5238 4.83108 33.256 4.69286C32.9584 5.83021 32.31 6.55832 31.5181 6.56895C31.3693 6.56895 31.2258 6.39888 30.9866 6.23944C33.458 5.62293 32.581 3.71496 32.9318 2.15776C33.0381 2.30126 33.2241 2.44476 33.2401 2.59888C33.4154 4.47497 33.4048 4.48028 35.3128 4.47496L38.4112 4.44308L38.5122 4.09762L36.6574 2.75301C36.7478 2.60951 36.8487 2.27468 37.0773 2.12056C37.8851 1.5572 39.9844 1.67944 40.7657 2.65203L39.2669 4.45902H41.43C41.9136 4.45902 41.9296 4.09231 41.9296 3.72559C41.9296 2.52447 41.9296 1.32513 41.9296 0.127551L42.1475 0ZM38.9906 3.97538L39.7027 3.32699C39.8528 3.14454 39.9913 2.95284 40.1173 2.75301C39.7327 2.43791 39.2584 2.25233 38.7621 2.22274C38.2659 2.19316 37.7729 2.32108 37.3536 2.58825L38.9906 3.97538ZM3.98803 3.02937C3.98803 3.26853 4.01992 3.51301 4.05712 3.75217C4.12621 4.21986 4.35475 4.5228 4.88621 4.48028H5.02971C6.62412 4.48028 6.59754 4.48028 6.62412 2.91776C6.62412 2.6414 6.37964 2.10462 7.07055 2.2428C7.33097 4.52811 7.33097 4.52811 9.19642 4.45902C9.13814 4.0703 9.11148 3.6775 9.1167 3.28448C9.11877 3.1335 9.15073 2.98444 9.21075 2.84589C9.27077 2.70735 9.35765 2.58207 9.46637 2.47731C9.57509 2.37254 9.7035 2.29035 9.84417 2.23551C9.98484 2.18066 10.135 2.15424 10.2859 2.15776C10.584 2.14022 10.8781 2.23287 11.1123 2.41809C11.3466 2.6033 11.5045 2.86814 11.5561 3.16224C11.6353 3.36832 11.6626 3.59067 11.6358 3.80979C11.6091 4.02891 11.529 4.23812 11.4025 4.41909C11.2761 4.60005 11.1073 4.74726 10.9107 4.84781C10.7142 4.94835 10.496 4.99917 10.2753 4.9958C9.51775 5.04091 8.75818 5.04091 8.00062 4.9958C7.64294 4.91278 7.29798 4.7823 6.97489 4.60783C6.13517 5.27748 5.13069 5.04364 4.09433 4.84168C3.95434 5.18054 3.78727 5.50756 3.59475 5.81958C3.40962 6.11143 3.14705 6.34612 2.83633 6.49746C2.52561 6.6488 2.17896 6.71084 1.83503 6.67667C1.49111 6.6425 1.16344 6.51345 0.888579 6.30393C0.613714 6.09441 0.402461 5.81265 0.278382 5.49007C0.0778456 4.73992 -0.0152036 3.96511 0.00201867 3.18881C0.00201867 3.10909 0.23055 3.01343 0.437823 2.86462L0.560061 4.68755C0.564776 4.88415 0.608834 5.07782 0.689632 5.25711C0.77043 5.4364 0.886332 5.59769 1.03049 5.73144C1.17466 5.8652 1.34416 5.96872 1.52899 6.03589C1.71382 6.10305 1.91023 6.13252 2.10663 6.12252C2.48923 6.0957 2.84755 5.92523 3.10974 5.6453C3.37193 5.36538 3.5186 4.99668 3.52034 4.61315V3.36419C3.52034 3.20475 3.6851 3.06126 3.77545 2.91245L3.98803 3.02937ZM11.4286 3.52895C10.9556 3.10378 10.6739 2.65203 10.3285 2.58825C9.79698 2.4979 9.61628 3.00811 9.6216 3.47581C9.62691 3.9435 9.72789 4.57063 10.3657 4.48559C10.7058 4.44307 10.9768 3.97007 11.4392 3.52895H11.4286ZM12.9061 0.0318868C13.011 0.194601 13.0866 0.374492 13.1293 0.563355V3.65119C13.1293 4.50154 13.1612 4.48559 14.3198 4.51217C14.9841 4.51217 15.3827 4.33678 15.2977 3.60336C15.2658 3.18881 15.2977 2.76895 15.2977 2.07804C15.5581 2.33846 15.7919 2.4607 15.8292 2.60951C15.8929 2.99217 15.8292 3.39608 15.8664 3.78405C15.9514 4.68224 16.6476 4.46434 17.211 4.49622C17.7743 4.52811 18.0241 4.27301 18.0135 3.72028L17.971 0.568671C17.971 0.382657 18.1464 0.196643 18.2367 0.0372026L18.5237 0.127551V3.49706C18.5237 3.83189 18.7629 4.3793 18.9914 4.43776C19.522 4.52409 20.0647 4.50058 20.5858 4.36867C20.6815 4.36867 20.7506 3.94349 20.7506 3.70965C20.7417 2.49408 20.7967 1.27889 20.9153 0.0690895C21.0269 0.207271 21.2236 0.340138 21.2289 0.483634L21.298 3.93286C21.3182 4.07392 21.306 4.21775 21.2621 4.35335C21.2183 4.48895 21.1441 4.61275 21.0452 4.7153C20.9462 4.81784 20.8251 4.89642 20.6912 4.94504C20.5572 4.99365 20.4139 5.01101 20.2722 4.9958C19.6292 4.9958 18.9117 5.22433 18.4865 4.49091C18.1277 4.84341 17.6449 5.04092 17.1419 5.04092C16.6389 5.04092 16.156 4.84341 15.7973 4.49091C15.0532 5.24559 14.1178 5.04895 13.2409 4.91608C13.0071 4.87888 12.6829 4.38461 12.6669 4.11357V0.154126L12.9061 0.0318868ZM23.9022 3.6193C24.1254 5.55385 24.5984 6.21818 25.6719 6.09595C26.5382 5.99497 27.0272 5.23496 26.9422 4.0551H25.6719C25.5285 2.99217 25.9589 2.25874 26.804 2.14182C27.649 2.02489 28.2071 2.5351 28.3984 3.56084C28.4568 3.86909 28.6216 4.37399 28.8023 4.40587C29.3539 4.48021 29.914 4.46405 30.4605 4.35804C30.5508 4.35804 30.6359 3.98601 30.6518 3.77874V2.60419C30.6518 2.44475 30.8378 2.30126 30.9335 2.15245L31.1514 2.2428V4.06573C31.1579 4.17654 31.1419 4.28751 31.1044 4.39198C31.0669 4.49645 31.0086 4.59226 30.9332 4.67367C30.8577 4.75508 30.7666 4.82039 30.6653 4.8657C30.564 4.91101 30.4545 4.93538 30.3436 4.93734C30.0991 4.96569 29.8546 4.98163 29.6101 4.98517C28.223 4.98517 28.1486 4.92671 27.8935 3.5821C27.7925 3.05063 27.5746 2.62014 26.9581 2.6414C26.4266 2.6414 26.1556 2.93902 26.1237 3.53426H27.3461C27.7394 5.05958 27.0963 6.32979 25.8367 6.5849C25.3157 6.67861 24.7788 6.56404 24.3415 6.26585C23.9041 5.96766 23.6013 5.50968 23.4982 4.99049C23.3707 3.97538 23.4345 3.67776 23.9022 3.6193ZM55.0303 4.48028H57.0392C58.0012 4.48028 58.0596 4.43245 58.049 3.41734L57.9959 0.70685V0.127551L58.1978 0.00531177C58.3094 0.148808 58.5167 0.292308 58.522 0.435804L58.5486 4.03384C58.5603 4.1515 58.5464 4.27031 58.5078 4.38207C58.4692 4.49383 58.4068 4.59591 58.325 4.68126C58.2432 4.76662 58.1438 4.83324 58.0338 4.87653C57.9238 4.91982 57.8057 4.93875 57.6876 4.93203H52.3357C52.4686 4.46434 52.4686 4.46433 53.2286 4.46433H54.4085C54.5945 3.4758 53.877 2.93902 53.2711 2.27468C54.3075 2.34909 54.5466 2.68923 55.0303 4.48028ZM49.1894 1.74853C49.0489 1.77464 48.9048 1.77464 48.7643 1.74853C48.2966 1.58378 47.9671 1.69007 47.8926 2.20028C47.8635 2.3084 47.8607 2.42193 47.8844 2.53137C47.9081 2.64082 47.9577 2.74299 48.029 2.82936C48.1002 2.91573 48.1912 2.98377 48.2941 3.02782C48.3971 3.07186 48.5091 3.09061 48.6208 3.08252C48.8562 3.12632 49.0861 3.19583 49.3064 3.28979L49.2426 3.5821H47.797C47.6592 3.56742 47.52 3.58266 47.3887 3.62678C47.2574 3.6709 47.1371 3.74286 47.0362 3.83773C46.9353 3.9326 46.856 4.04815 46.8039 4.17648C46.7517 4.3048 46.7279 4.44288 46.734 4.58126C46.7234 4.72085 46.7424 4.86112 46.79 4.99278C46.8376 5.12444 46.9127 5.24449 47.0101 5.34498C47.1076 5.44547 47.2253 5.52411 47.3555 5.57569C47.4856 5.62727 47.6252 5.65062 47.7651 5.64419H48.4985C48.6048 5.64419 48.6898 5.79832 48.7855 5.88335C48.7005 5.9737 48.6314 6.12783 48.5304 6.15441C48.0794 6.29137 47.5935 6.25505 47.1678 6.05254C46.7422 5.85004 46.4074 5.49594 46.2292 5.05958C45.9581 4.22517 46.4205 3.46517 47.494 3.02937C47.2868 2.39692 47.1273 1.74322 47.8554 1.31273C48.3497 1.09483 48.8068 1.21706 49.1894 1.74853Z" fill="#266835"/>
</svg>
