<svg width="2" height="3" viewBox="0 0 2 3" fill="none" xmlns="http://www.w3.org/2000/svg">
<path d="M1.36371 1.86729C1.36371 1.85707 1.35349 1.84686 1.34328 1.84686C1.33817 1.84686 1.33817 1.84686 1.33306 1.85197C1.19516 1.9439 1.04704 2.00008 0.888709 2.02051C0.720161 2.04094 0.572043 2.02051 0.429032 1.95922C0.224731 1.86729 0.0919349 1.69363 0.0408596 1.45358C0.0102144 1.31568 0 1.16756 0 1.00412C0.00510753 0.799815 0.0204298 0.651697 0.0459674 0.554654C0.0868276 0.401428 0.163441 0.27374 0.280914 0.171589C0.383065 0.0847612 0.51586 0.0285786 0.6793 0.00814845C1.07258 -0.0378193 1.34839 0.110299 1.4965 0.462718C1.54758 0.580191 1.57312 0.733417 1.57823 0.922395C1.58333 1.15223 1.57823 1.38207 1.57312 1.61702C1.5629 1.98476 1.54758 2.20949 1.52715 2.28611C1.47097 2.52616 1.32796 2.72024 1.10833 2.85815C0.995967 2.92965 0.858064 2.96541 0.69973 2.9603C0.572042 2.9603 0.490322 2.95519 0.449462 2.94498C0.357526 2.92965 0.286022 2.87858 0.229839 2.80197C0.163441 2.71003 0.178764 2.68449 0.286022 2.73046C0.423925 2.78664 0.566936 2.81218 0.720162 2.80197C0.965323 2.78664 1.13898 2.67428 1.25134 2.45976C1.34328 2.26057 1.38414 2.06648 1.36371 1.86729ZM0.444354 1.73449C0.669085 1.88261 0.878494 1.89793 1.06236 1.78557C1.19516 1.70896 1.28199 1.57616 1.33306 1.3974C1.38925 1.18799 1.39435 0.958148 1.35349 0.707879C1.32796 0.549546 1.26667 0.421858 1.17473 0.324815C1.0828 0.232879 0.960215 0.176697 0.812096 0.166482C0.653763 0.156267 0.520968 0.202234 0.41371 0.3146C0.337097 0.39632 0.275806 0.513794 0.240053 0.672127C0.178762 0.937718 0.188978 1.20331 0.270698 1.47401C0.306451 1.59659 0.362633 1.68342 0.444354 1.73449Z" fill="#181818" stroke="#181818" stroke-width="0.0383065" stroke-miterlimit="10"/>
</svg>
