<svg width="45" height="9" viewBox="0 0 45 9" fill="none" xmlns="http://www.w3.org/2000/svg">
<path d="M42.478 3.38259H43.3561V2.61865H42.478V3.38259ZM43.998 3.38259H44.8958V2.61865H44.0176L43.998 3.38259ZM43.998 5.29637C43.998 5.97762 43.679 6.11938 43.4112 6.11938H41.017C41.1339 5.79216 41.1339 5.43457 41.017 5.10736C41.017 5.10736 40.6666 3.89845 40.3949 2.97306C40.0877 1.91378 40.0759 1.28767 41.1037 1.00415L42.2141 0.681244L42.5331 1.0829L43.1513 0.901762L42.856 0.484352L42.5331 0L41.0722 0.425285C39.0245 1.02383 39.2686 2.09098 39.627 3.32352L39.9459 4.41824L40.2255 5.37513C40.2756 5.49353 40.2994 5.62137 40.2953 5.74984C40.2912 5.87832 40.2594 6.00439 40.2019 6.11938H38.4062C38.1385 6.11938 37.8195 5.97762 37.8195 5.29637V0.779689H36.9296V5.27275C36.9188 5.61934 37.0257 5.95938 37.2328 6.23751C37.3422 6.38279 37.4855 6.49898 37.6503 6.57588C37.8151 6.65278 37.9963 6.68804 38.1779 6.67855H43.6278C43.8094 6.68804 43.9906 6.65278 44.1553 6.57588C44.3201 6.49898 44.4635 6.38279 44.5729 6.23751C44.78 5.95938 44.8868 5.61934 44.8761 5.27275V3.94964H44.0019L43.998 5.29637ZM20.816 5.29637C20.816 5.97762 20.497 6.11938 20.2293 6.11938H19.9221V3.2172H19.0518V6.71005C19.0941 7.06335 19.0439 7.42156 18.9061 7.74964C18.8212 7.90555 18.6806 8.02368 18.5124 8.08041V8.35606C19.5086 8.33243 19.9339 7.82839 19.9339 6.67855H20.4537C20.6353 6.68804 20.8165 6.65278 20.9812 6.57588C21.146 6.49898 21.2894 6.38279 21.3988 6.23751C21.6059 5.95938 21.7128 5.61934 21.702 5.27275V0.779689H20.8199L20.816 5.29637ZM22.5329 6.67855H23.4031V0.771813H22.5368L22.5329 6.67855ZM13.6413 2.95731C13.1296 2.95103 12.6232 3.06146 12.1607 3.28021V4.76477H13.0349V3.65036C13.2365 3.55515 13.4578 3.50926 13.6807 3.51648C14.5785 3.51648 15.5275 4.35523 15.5275 5.87917C15.524 5.95328 15.5148 6.027 15.4999 6.09969H11.4715V5.89492C11.4715 4.1544 10.2902 2.93762 8.61268 2.93762C8.10228 2.93138 7.59721 3.04183 7.13599 3.26052V4.74508H8.00625V3.65036C8.21273 3.55297 8.43971 3.50704 8.66781 3.51648C9.56169 3.51648 10.5107 4.35523 10.5107 5.87917V6.09969H6.26573V2.61865H5.47817C3.34387 2.61865 3.28086 3.70943 3.28086 4.98135V6.12332C3.28086 6.75337 3.05641 6.87544 2.71382 6.87544H2.03651C1.59548 6.87544 0.878792 6.80456 0.878792 5.23337C0.878792 3.90238 1.46553 3.31565 2.62719 3.32746V2.81948C1.7333 2.81948 1.16625 2.98881 0.658274 3.49285C0.432022 3.72567 0.256983 4.00324 0.144406 4.30774C0.0318291 4.61224 -0.0157949 4.93693 0.00459479 5.26093C0.00459479 6.89119 0.729154 7.44249 1.70967 7.44249H2.93827C3.72584 7.44249 4.15506 6.94632 4.15506 6.0485V4.86715C4.15506 3.76456 4.31651 3.16207 5.39154 3.16207V6.66674H16.3938C16.4525 6.39335 16.4867 6.1153 16.4962 5.83585C16.4647 4.13865 15.3149 2.94549 13.6413 2.94549M0.95361 8.63565H1.83174V7.87171H0.95361V8.63565ZM2.47361 8.63565H3.34781V7.87171H2.47361V8.63565ZM13.6728 8.09223H14.547V7.32829H13.6728V8.09223ZM17.331 6.67855H18.2092V0.771813H17.331V6.67855ZM34.6181 1.28373H33.7517V2.04767H34.622L34.6181 1.28373ZM34.6929 3.17389V4.8829H34.3306C34.2062 4.89914 34.0798 4.88866 33.9598 4.85217C33.8398 4.81568 33.7289 4.754 33.6346 4.67127C33.5403 4.58853 33.4648 4.48664 33.413 4.37238C33.3612 4.25813 33.3344 4.13415 33.3343 4.0087C33.3343 3.46135 33.6494 3.17389 34.2873 3.17389H34.6929ZM32.4798 3.96145C32.4798 4.82383 33.0784 5.38301 34.0983 5.38301H34.7165V5.46176C34.7165 5.89098 34.5196 6.1115 34.1416 6.1115H30.4007V0.779689H29.5383V6.13513C29.5383 6.76518 29.3178 6.88725 28.9752 6.88725H28.2821C27.845 6.88725 27.1283 6.81637 27.1283 5.24518C27.1283 3.9142 27.7111 3.32746 28.8767 3.33927V2.81948C27.9789 2.81948 27.4158 2.98881 26.9078 3.49285C26.683 3.72634 26.5094 4.00422 26.3982 4.30869C26.287 4.61315 26.2406 4.9375 26.262 5.26093C26.262 6.89119 26.9866 7.44249 27.971 7.44249H29.1996C29.4491 7.46238 29.6977 7.3946 29.9026 7.25083C30.1075 7.10706 30.2558 6.89631 30.3219 6.65492H34.3503C34.5284 6.66418 34.7061 6.62994 34.868 6.55516C35.0299 6.48038 35.1712 6.3673 35.2796 6.2257C35.4808 5.95247 35.5848 5.61978 35.575 5.28062V2.61865H34.2164C33.0351 2.61865 32.4838 3.06363 32.4838 3.96933" fill="#000F9F"/>
</svg>
