<svg width="56" height="4" viewBox="0 0 56 4" fill="none" xmlns="http://www.w3.org/2000/svg">
<path d="M55.3192 1.14591H54.0591V3.42197H55.3192V3.09907H54.4056V2.33513H55.2956V2.01223H54.4096V1.4885H55.3192V1.14591ZM53.0313 1.10653C52.8573 1.10157 52.6844 1.13663 52.526 1.20899C52.3676 1.28136 52.228 1.3891 52.1178 1.52394C51.9289 1.74249 51.8266 2.02266 51.8303 2.3115C51.8273 2.46645 51.8566 2.62032 51.9163 2.76335C51.9759 2.90638 52.0647 3.03546 52.1768 3.14238C52.2857 3.25249 52.4159 3.33929 52.5594 3.39751C52.7029 3.45573 52.8568 3.48415 53.0117 3.48103C53.2292 3.48125 53.4428 3.42275 53.6299 3.31171V2.91793L53.4724 3.04C53.4241 3.06924 53.3742 3.09554 53.3227 3.11876C53.226 3.16094 53.1211 3.18112 53.0156 3.17782C52.9049 3.18123 52.7947 3.16124 52.6922 3.11917C52.5898 3.0771 52.4973 3.0139 52.421 2.93368C52.3416 2.85422 52.279 2.75956 52.2371 2.65536C52.1951 2.55116 52.1746 2.43956 52.1768 2.32725C52.1749 2.21381 52.1955 2.1011 52.2374 1.99566C52.2793 1.89022 52.3417 1.79413 52.421 1.71295C52.4962 1.63181 52.5877 1.56743 52.6895 1.524C52.7912 1.48058 52.901 1.45909 53.0117 1.46093C53.2396 1.4668 53.4578 1.55491 53.6259 1.70901V1.31523C53.4459 1.20839 53.2407 1.15131 53.0313 1.14984M49.7196 3.4771V1.90197L51.3853 3.63461V1.21679H51.0427V2.79192L49.377 1.05534V3.48891L49.7196 3.4771ZM47.6405 2.60684L47.9909 1.81927L48.3335 2.60684H47.6405ZM48.7115 3.48103H49.1053L48.0106 1.05927L46.8726 3.45741H47.2388L47.4948 2.90611H48.4674L48.7115 3.48103ZM45.6558 1.51212H45.7779C46.0968 1.51212 46.2543 1.63026 46.2543 1.86259C46.2543 2.09492 46.0929 2.25637 45.7661 2.25637H45.6558V1.51212ZM46.4434 2.27212C46.5316 2.15973 46.5801 2.02123 46.5812 1.87834C46.585 1.78386 46.5668 1.6898 46.5278 1.60365C46.4888 1.5175 46.4302 1.44165 46.3567 1.38218C46.1674 1.24976 45.9369 1.18967 45.707 1.21285H45.3132V3.45741H45.6597V2.52414H45.7227L46.3764 3.45741H46.7978L46.089 2.4887C46.2345 2.45904 46.3645 2.37796 46.4552 2.26031M43.0805 1.18528V2.65016C43.0764 2.75922 43.0941 2.86801 43.1327 2.97012C43.1712 3.07223 43.2298 3.16561 43.3049 3.24477C43.3843 3.32867 43.4802 3.39511 43.5867 3.43986C43.6931 3.48461 43.8077 3.50668 43.9232 3.50466C44.0391 3.50627 44.1542 3.48403 44.2612 3.43933C44.3683 3.39462 44.465 3.3284 44.5453 3.24477C44.6956 3.08391 44.7763 2.8702 44.7698 2.65016V1.1656H44.4233V2.53596C44.4357 2.68528 44.4027 2.83488 44.3288 2.96518C44.2845 3.02822 44.2254 3.07948 44.1568 3.11448C44.0882 3.14948 44.012 3.16717 43.935 3.16601C43.8582 3.16796 43.7822 3.15102 43.7135 3.11669C43.6448 3.08236 43.5857 3.03168 43.5412 2.96912C43.4681 2.83847 43.4352 2.68915 43.4467 2.5399V1.16953L43.0805 1.18528ZM41.9936 1.14197C41.8149 1.13642 41.6406 1.19827 41.5053 1.31523C41.4432 1.36808 41.3934 1.43389 41.3593 1.50804C41.3253 1.58219 41.308 1.66288 41.3084 1.74445C41.3149 1.87822 41.3638 2.00645 41.4481 2.11053C41.5323 2.21462 41.6476 2.28915 41.777 2.32332L41.9976 2.41388C42.049 2.43439 42.0979 2.46082 42.1433 2.49264C42.1815 2.51632 42.216 2.54552 42.2456 2.57927C42.2727 2.60858 42.2929 2.64356 42.3047 2.68166C42.3111 2.7221 42.3111 2.76329 42.3047 2.80373C42.3066 2.85389 42.2981 2.90389 42.2798 2.95063C42.2615 2.99737 42.2338 3.03985 42.1984 3.07544C42.1264 3.14487 42.0306 3.18429 41.9306 3.1857C41.8704 3.18861 41.8104 3.17644 41.7561 3.15031C41.7018 3.12419 41.6548 3.08492 41.6195 3.03606C41.5694 2.95254 41.5409 2.85776 41.5368 2.76041L41.1903 2.83523C41.2096 3.02289 41.293 3.19815 41.4266 3.3314C41.5618 3.45142 41.7381 3.51486 41.9188 3.5086C42.0156 3.5108 42.1119 3.49345 42.2019 3.45759C42.2919 3.42173 42.3737 3.3681 42.4425 3.2999C42.5113 3.23152 42.5653 3.14976 42.6012 3.05967C42.6371 2.96959 42.6541 2.8731 42.6512 2.77617C42.6549 2.63381 42.6089 2.49461 42.5213 2.38238C42.4143 2.26093 42.279 2.16763 42.1275 2.11067L41.8991 2.01617C41.7337 1.94922 41.651 1.85865 41.651 1.74839C41.6504 1.70993 41.6586 1.67183 41.675 1.63701C41.6914 1.6022 41.7155 1.5716 41.7455 1.54756C41.8124 1.49093 41.8982 1.46142 41.9857 1.46487C42.0519 1.46265 42.1174 1.47902 42.1748 1.51212C42.2373 1.55821 42.2873 1.6191 42.3205 1.68933L42.6 1.52394C42.5455 1.4068 42.4588 1.30759 42.3501 1.23787C42.2413 1.16814 42.1149 1.13079 41.9857 1.13015M40.2216 1.13015C40.043 1.12538 39.869 1.18713 39.7333 1.30342C39.6707 1.35591 39.6206 1.42165 39.5866 1.49588C39.5525 1.57011 39.5354 1.65098 39.5364 1.73264C39.5429 1.8664 39.5918 1.99463 39.676 2.09872C39.7603 2.20281 39.8755 2.27734 40.005 2.3115L40.2255 2.40207C40.2782 2.42262 40.3284 2.44904 40.3752 2.48083C40.4134 2.50451 40.4479 2.5337 40.4776 2.56746C40.502 2.59797 40.5207 2.63266 40.5327 2.66984C40.5475 2.7074 40.5542 2.74765 40.5524 2.78798C40.5545 2.83876 40.5462 2.88945 40.5279 2.93687C40.5096 2.98429 40.4818 3.02744 40.4461 3.06363C40.4115 3.09823 40.3704 3.12549 40.325 3.14376C40.2797 3.16204 40.2311 3.17094 40.1822 3.16995C40.1223 3.17403 40.0623 3.16279 40.0078 3.13731C39.9534 3.11182 39.9064 3.07291 39.8711 3.02425C39.821 2.94072 39.7925 2.84595 39.7884 2.7486L39.438 2.82342C39.4591 3.01056 39.5423 3.18524 39.6742 3.31958C39.8099 3.43891 39.9859 3.50225 40.1665 3.49679C40.2632 3.4981 40.3592 3.48035 40.4491 3.44454C40.539 3.40873 40.6209 3.35557 40.6902 3.28808C40.7597 3.22028 40.8143 3.13862 40.8502 3.0484C40.8862 2.95817 40.9028 2.8614 40.8989 2.76435C40.9025 2.622 40.8566 2.4828 40.769 2.37057C40.6631 2.24786 40.5275 2.15431 40.3752 2.09886L40.1507 2.00435C39.9853 1.93347 39.8987 1.84684 39.8987 1.73658C39.8978 1.69807 39.9058 1.65986 39.9222 1.62501C39.9386 1.59015 39.9629 1.55959 39.9932 1.53575C40.0589 1.47971 40.1432 1.45022 40.2295 1.45306C40.297 1.45031 40.3638 1.46669 40.4224 1.50031C40.4863 1.54603 40.5377 1.60693 40.5721 1.67751L40.8517 1.51212C40.7965 1.39468 40.7091 1.29532 40.5996 1.22561C40.4902 1.1559 40.3632 1.1187 40.2334 1.11834M37.2052 2.20518L37.6975 1.09471L38.1818 2.20124L37.2052 2.20518ZM38.737 3.45741H39.2765L37.7014 0L36.0987 3.46528H36.6264L36.9886 2.67772H38.3866L38.737 3.45741ZM34.5669 1.18528H33.3068V3.45741H34.5669V3.13451H33.6612V2.37057H34.5511V2.04767H33.6612V1.49637H34.5748L34.5669 1.18528ZM31.0032 1.18528L32.0073 3.63461L33.0272 1.18528H32.6334L31.9955 2.76041L31.3615 1.18528H31.0032ZM30.377 3.45741H30.7196V1.18922H30.377V3.45741ZM30.066 1.4885V1.1656H28.6759V1.4885H29.1996V3.45741H29.5422V1.4885H30.066ZM27.3095 2.5714L27.6599 1.78383L27.9986 2.5714H27.3095ZM28.3845 3.45741H28.7783L27.6875 1.03959L26.5652 3.46135H26.9354L27.1874 2.90611H28.1482L28.3845 3.45741ZM25.3287 1.4885H25.4508C25.7659 1.4885 25.9234 1.60663 25.9234 1.83896C25.9234 2.07129 25.7619 2.23275 25.4351 2.23275H25.3287V1.4885ZM26.1163 2.2485C26.2046 2.1361 26.253 1.99761 26.2541 1.85471C26.2577 1.75971 26.2393 1.66516 26.2004 1.57843C26.1614 1.49169 26.103 1.4151 26.0297 1.35461C25.838 1.2241 25.6069 1.16424 25.376 1.18528H24.9822V3.46528H25.3248V2.53202H25.3918L26.0454 3.46528H26.4628L25.758 2.49658C25.9029 2.46793 26.0329 2.38831 26.1242 2.27212M24.5491 1.19316H23.2929V3.47316H24.5491V3.15026H23.6197V2.38632H24.5057V2.06342H23.6197V1.52787H24.5333L24.5491 1.19316ZM22.0052 1.51606H22.1194C22.4423 1.51606 22.6077 1.63026 22.6077 1.86653C22.6077 2.1028 22.4502 2.22881 22.1352 2.22881H22.0052V1.51606ZM22.1667 2.54777C22.3715 2.55875 22.5732 2.49431 22.7337 2.36663C22.8021 2.30394 22.8558 2.22702 22.8912 2.14129C22.9266 2.05556 22.9427 1.96311 22.9385 1.87047C22.9412 1.78047 22.9252 1.69089 22.8913 1.60747C22.8573 1.52406 22.8064 1.44866 22.7416 1.38611C22.6688 1.31449 22.5796 1.26177 22.4817 1.23254C22.3404 1.20506 22.1964 1.19318 22.0525 1.1971H21.6587V3.4771H22.0052V2.55171L22.1667 2.54777ZM19.4378 1.7287C19.5157 1.64814 19.6095 1.58453 19.7131 1.54185C19.8168 1.49916 19.9282 1.47832 20.0403 1.48062C20.1519 1.47716 20.263 1.49749 20.3662 1.54026C20.4694 1.58303 20.5623 1.64727 20.6388 1.7287C20.7185 1.80876 20.7812 1.90409 20.8232 2.00897C20.8651 2.11385 20.8855 2.22613 20.8829 2.33907C20.8848 2.45191 20.8641 2.564 20.8222 2.66879C20.7803 2.77358 20.718 2.86898 20.6388 2.94943C20.4812 3.10431 20.2691 3.19109 20.0481 3.19109C19.8272 3.19109 19.615 3.10431 19.4575 2.94943C19.2998 2.78455 19.2118 2.56522 19.2118 2.3371C19.2118 2.10897 19.2998 1.88964 19.4575 1.72477M19.2566 3.21326C19.4729 3.40785 19.7533 3.51582 20.0442 3.51648C20.2019 3.51843 20.3584 3.48877 20.5045 3.42926C20.6506 3.36974 20.7833 3.28157 20.8948 3.16995C21.0093 3.06385 21.0999 2.93446 21.1603 2.79047C21.2208 2.64648 21.2497 2.49122 21.2452 2.33513C21.2474 2.09918 21.1789 1.86798 21.0485 1.67132C20.9181 1.47466 20.7318 1.32156 20.5136 1.23174C20.2954 1.14192 20.0553 1.1195 19.8243 1.16737C19.5932 1.21523 19.3818 1.3312 19.2172 1.50031C19.1033 1.61306 19.0135 1.74781 18.9534 1.89636C18.8932 2.04491 18.8638 2.20415 18.8672 2.3644C18.8705 2.52464 18.9064 2.68254 18.9726 2.82847C19.0389 2.9744 19.1342 3.10533 19.2527 3.21326M16.7285 1.74445C16.8045 1.66393 16.896 1.5997 16.9975 1.5557C17.0991 1.51169 17.2085 1.48883 17.3192 1.4885C17.4309 1.48503 17.542 1.50536 17.6452 1.54813C17.7484 1.59091 17.8413 1.65514 17.9178 1.73658C18.0743 1.90126 18.1615 2.11976 18.1615 2.34694C18.1615 2.57413 18.0743 2.79263 17.9178 2.9573C17.8391 3.03798 17.7446 3.10162 17.6403 3.1443C17.536 3.18697 17.424 3.20776 17.3113 3.20539C17.0861 3.20125 16.8716 3.10831 16.7145 2.9468C16.5574 2.7853 16.4705 2.56829 16.4726 2.343C16.4704 2.2307 16.4909 2.1191 16.5328 2.0149C16.5748 1.9107 16.6373 1.81604 16.7167 1.73658M16.5159 3.22508C16.7321 3.41967 17.0126 3.52763 17.3035 3.52829C17.4614 3.53184 17.6184 3.50292 17.7647 3.44331C17.911 3.3837 18.0435 3.29468 18.154 3.18176C18.2678 3.07503 18.3578 2.94553 18.4182 2.80169C18.4786 2.65785 18.508 2.5029 18.5045 2.34694C18.5067 2.11099 18.4382 1.87979 18.3078 1.68313C18.1774 1.48648 17.9911 1.33337 17.7729 1.24355C17.5547 1.15373 17.3146 1.13131 17.0836 1.17918C16.8525 1.22705 16.6411 1.34301 16.4765 1.51212C16.3647 1.61869 16.2759 1.74705 16.2156 1.88929C16.1553 2.03152 16.1249 2.18459 16.1261 2.33907C16.1207 2.50687 16.1534 2.67372 16.2215 2.82714C16.2897 2.98056 16.3917 3.1166 16.5198 3.22508M14.9053 0.173264C14.6799 0.171705 14.4564 0.21476 14.2477 0.299948C14.039 0.385137 13.8492 0.510775 13.6892 0.669627C13.5293 0.828479 13.4023 1.01741 13.3157 1.22553C13.2291 1.43365 13.1845 1.65685 13.1845 1.88228C13.1817 2.10234 13.2239 2.32066 13.3086 2.52381C13.3932 2.72696 13.5185 2.91066 13.6767 3.06363C13.8315 3.21897 14.0157 3.34184 14.2185 3.42501C14.4214 3.50819 14.6388 3.54999 14.8581 3.54798C15.1695 3.54807 15.4753 3.46515 15.7441 3.30777V2.71316C15.6721 2.77615 15.5958 2.83404 15.5157 2.88642C15.45 2.93115 15.3801 2.9694 15.307 3.00062C15.1679 3.06071 15.0175 3.09026 14.866 3.08725C14.7083 3.08999 14.5519 3.06029 14.4062 3C14.2606 2.93971 14.1289 2.85012 14.0193 2.73679C13.9062 2.623 13.8169 2.48775 13.7567 2.33899C13.6965 2.19022 13.6666 2.03093 13.6689 1.87047C13.6637 1.54344 13.7883 1.22769 14.0154 0.99233C14.1225 0.87632 14.2529 0.784382 14.3982 0.722605C14.5435 0.660828 14.7002 0.630622 14.8581 0.633988C15.1862 0.639303 15.5011 0.763884 15.7441 0.984456V0.417408C15.488 0.264447 15.1957 0.182864 14.8975 0.18114M10.0342 1.5515H10.1878C10.428 1.53487 10.6656 1.60939 10.8533 1.76021C10.9592 1.85506 11.0384 1.97594 11.0832 2.11088C11.1279 2.24581 11.1365 2.39009 11.1083 2.52941C11.08 2.66872 11.0158 2.79822 10.922 2.90506C10.8283 3.0119 10.7082 3.09235 10.5737 3.13844C10.4457 3.17437 10.3129 3.19031 10.1799 3.1857H10.0342V1.5515ZM10.1642 3.52041C10.3449 3.52762 10.5256 3.50636 10.6997 3.45741C10.923 3.38008 11.1161 3.23402 11.2512 3.04018C11.3863 2.84634 11.4566 2.61468 11.4519 2.37844C11.4578 2.22064 11.4292 2.06344 11.3679 1.91787C11.3067 1.77229 11.2144 1.64188 11.0975 1.53575C10.9856 1.43025 10.8508 1.35208 10.7037 1.30736C10.527 1.2577 10.3437 1.23513 10.1603 1.24041H9.69953V3.51648L10.1642 3.52041ZM9.24668 1.23254H7.99051V3.5086H9.24668V3.1857H8.33704V2.42176H9.22305V2.09886H8.3331V1.54756H9.24668V1.23254ZM7.67155 1.55938V1.23648H6.29331V1.55938H6.81704V3.52829H7.15963V1.55938H7.67155ZM5.63176 3.52829H5.97828V1.23648H5.63176V3.52829ZM3.42657 3.52829V1.95316L5.09227 3.6858V1.24041H4.74575V2.81554L3.08792 1.09471V3.53223L3.42657 3.52829ZM0.000667842 0.279585V2.37451C-0.00474 2.53527 0.0227408 2.69545 0.081427 2.84522C0.140113 2.99499 0.228769 3.1312 0.341957 3.24549C0.455146 3.35978 0.590484 3.44976 0.739675 3.5099C0.888867 3.57004 1.04877 3.59908 1.20958 3.59523C1.37605 3.59545 1.54069 3.56048 1.6927 3.49262C1.84472 3.42476 1.98067 3.32553 2.09165 3.20145C2.19832 3.08774 2.28141 2.95403 2.33616 2.80805C2.3909 2.66207 2.41621 2.50669 2.41062 2.35088V0.267771H1.93414V2.23668C1.95077 2.45063 1.90276 2.66465 1.79632 2.85098C1.73079 2.94215 1.6435 3.01548 1.5424 3.06431C1.4413 3.11314 1.3296 3.13592 1.21746 3.13057C1.10607 3.13456 0.995398 3.11115 0.895161 3.0624C0.794924 3.01366 0.708179 2.94106 0.642534 2.85098C0.537087 2.6657 0.489113 2.45324 0.504709 2.24062V0.271709L0.000667842 0.279585Z" fill="#00609C"/>
</svg>
