<svg width="56" height="21" viewBox="0 0 56 21" fill="none" xmlns="http://www.w3.org/2000/svg">
<path d="M3.36617 2.6257C3.62666 2.62725 3.88172 2.55128 4.09891 2.40744C4.31609 2.26361 4.48558 2.05841 4.5858 1.81797C4.68603 1.57753 4.71245 1.3127 4.66173 1.05719C4.611 0.801685 4.4854 0.567044 4.30093 0.383125C4.11645 0.199206 3.88143 0.0743236 3.62577 0.0243679C3.37011 -0.0255877 3.10537 0.00164161 2.86523 0.102592C2.62509 0.203541 2.42041 0.373648 2.27723 0.591267C2.13405 0.808886 2.05885 1.06418 2.06119 1.32466C2.06828 1.66818 2.20816 1.99559 2.45148 2.23818C2.6948 2.48076 3.02264 2.61965 3.36617 2.6257ZM6.15747 2.6257C6.41813 2.62803 6.67357 2.55273 6.89128 2.40937C7.10898 2.26602 7.27908 2.0611 7.37991 1.82073C7.48074 1.58036 7.50773 1.31542 7.45745 1.05965C7.40717 0.803884 7.2819 0.568874 7.09758 0.384558C6.91327 0.200242 6.67825 0.0749645 6.42249 0.0246853C6.16672 -0.025594 5.90178 0.00140076 5.66141 0.102231C5.42103 0.203061 5.21612 0.373162 5.07276 0.590863C4.92941 0.808565 4.8541 1.06401 4.85644 1.32466C4.86349 1.66751 5.00283 1.99435 5.24531 2.23683C5.48779 2.47931 5.81463 2.61865 6.15747 2.6257ZM21.6871 18.0764C21.4279 18.0772 21.1748 18.1547 20.9596 18.2991C20.7444 18.4435 20.5767 18.6483 20.4777 18.8878C20.3787 19.1273 20.3528 19.3908 20.4033 19.6449C20.4538 19.8991 20.5783 20.1327 20.7613 20.3162C20.9443 20.4998 21.1775 20.625 21.4315 20.6763C21.6856 20.7275 21.9491 20.7024 22.1889 20.6041C22.4287 20.5058 22.634 20.3388 22.7791 20.124C22.9241 19.9092 23.0023 19.6563 23.0039 19.3972C23.0008 19.0485 22.8612 18.715 22.615 18.4681C22.3689 18.2211 22.0357 18.0806 21.6871 18.0764ZM14.1726 18.0528C13.9135 18.0536 13.6603 18.131 13.4451 18.2754C13.2299 18.4198 13.0623 18.6247 12.9633 18.8642C12.8643 19.1037 12.8384 19.3671 12.8889 19.6213C12.9393 19.8755 13.0639 20.1091 13.2469 20.2926C13.4298 20.4761 13.663 20.6014 13.9171 20.6526C14.1711 20.7038 14.4346 20.6787 14.6744 20.5804C14.9142 20.4822 15.1196 20.3151 15.2646 20.1003C15.4096 19.8856 15.4879 19.6327 15.4894 19.3735C15.4874 19.0246 15.3481 18.6904 15.1017 18.4433C14.8553 18.1962 14.5216 18.0559 14.1726 18.0528ZM16.9521 18.0528C16.6933 18.0551 16.441 18.1339 16.2268 18.2792C16.0126 18.4246 15.8462 18.6299 15.7484 18.8696C15.6506 19.1092 15.6258 19.3724 15.6772 19.6261C15.7285 19.8797 15.8537 20.1126 16.037 20.2953C16.2203 20.478 16.4535 20.6025 16.7073 20.6531C16.9611 20.7037 17.2243 20.6782 17.4636 20.5797C17.7029 20.4812 17.9078 20.3141 18.0525 20.0995C18.1972 19.8849 18.2752 19.6323 18.2768 19.3735C18.2747 19.0232 18.1344 18.6879 17.8863 18.4405C17.6382 18.1932 17.3024 18.0538 16.9521 18.0528ZM17.7209 15.8055H23.8121C24.2004 15.7909 24.5764 15.665 24.8951 15.4427C25.2139 15.2204 25.462 14.9112 25.6099 14.5518C25.7148 14.3463 25.8031 14.1327 25.874 13.9131L25.9174 13.7712C26.1829 12.9566 26.316 12.1047 26.3116 11.248C26.3148 10.4017 26.1817 9.56034 25.9174 8.75632L25.3024 7.52231L24.8174 6.73381C24.6162 6.4467 24.4975 6.10987 24.4744 5.76C24.4663 5.72176 24.4487 5.68619 24.4232 5.65656C24.3977 5.62693 24.3652 5.6042 24.3286 5.59047C24.3014 5.57779 24.2718 5.57122 24.2418 5.57122C24.2119 5.57122 24.1822 5.57779 24.1551 5.59047C22.2824 6.99007 22.3455 7.70761 23.5558 9.43443C23.9937 10.3759 24.2441 11.3936 24.2931 12.4307V12.4505V12.4899V12.5884H18.742C18.3413 12.5853 17.9535 12.4463 17.642 12.1942C17.4825 12.0786 17.3525 11.9269 17.2628 11.7515C17.173 11.5761 17.126 11.3819 17.1256 11.1849C17.1417 10.6347 17.1891 10.0858 17.2675 9.54088C17.3445 8.99724 17.3906 8.44966 17.4055 7.90079C17.4055 7.87319 17.4291 7.8456 17.441 7.81011C17.4506 7.78216 17.4528 7.75217 17.4472 7.72312C17.4417 7.69408 17.4287 7.66698 17.4094 7.64453C17.396 7.62581 17.3782 7.61065 17.3576 7.60034C17.337 7.59004 17.3142 7.58491 17.2912 7.58539C15.5249 7.79829 15.3199 8.29899 15.4461 9.90359C15.4444 9.92064 15.4444 9.9378 15.4461 9.95485C15.4106 11.3584 15.3199 12.21 15.1622 12.5569L15.1425 12.6082H11.7519C10.234 12.6082 9.68997 12.3677 9.16562 11.8985C9.11042 11.8512 8.99609 11.7526 8.4126 8.59862L8.37711 8.40938L8.23124 7.64847L8.0696 6.76535L7.93555 6.03598L7.87247 5.68509L7.79756 5.2593C7.64856 4.61352 7.59673 3.94912 7.64381 3.28804C7.65142 3.25533 7.65071 3.22124 7.64176 3.18887C7.63281 3.1565 7.61589 3.12689 7.59255 3.10274C7.57626 3.0856 7.55671 3.07188 7.53505 3.0624C7.51338 3.05293 7.49004 3.04787 7.46639 3.04755H7.43485C6.9707 3.1361 6.52184 3.29147 6.10228 3.50882C5.8822 3.62719 5.69828 3.80293 5.57004 4.01741C5.25464 4.56542 5.40051 5.40517 5.66072 6.61553V6.67467L5.60946 6.70621L4.66326 7.26999C2.66834 8.38572 1.50924 9.07566 1.2648 9.3201C0.639606 9.93863 0.209242 10.7267 0.026853 11.5871C-0.0241941 11.9166 -0.00228047 12.2534 0.091047 12.5736C0.184375 12.8937 0.346841 13.1895 0.566978 13.44C0.99146 14.012 1.59296 14.4278 2.27803 14.6228C3.10192 14.8491 3.9433 15.006 4.79336 15.092C5.16396 15.092 5.52667 14.7253 5.86573 13.9959C6.28758 13.1207 6.59904 12.6397 6.81982 12.5293L6.91444 12.482L6.94204 12.5806L7.5965 14.6977C7.71962 15.0288 7.94311 15.3132 8.23575 15.5111C8.52838 15.7091 8.87554 15.8106 9.2287 15.8016H13.7547C13.9272 15.7856 14.0926 15.7252 14.2349 15.6264C14.3772 15.5277 14.4915 15.3938 14.5669 15.2378C14.6805 15.0637 14.7819 14.8819 14.8704 14.6938L15.0124 14.4257C15.0873 14.2995 15.1543 14.1694 15.2213 14.0314C15.2884 13.8934 15.3278 13.8264 15.3751 13.7476L15.4737 13.582L15.5328 13.7594C15.9507 15.1274 16.6643 15.7937 17.7209 15.7937M6.57538 11.1652C6.55328 11.1877 6.52396 11.2016 6.49259 11.2046C5.3859 11.2321 4.28107 11.0993 3.21241 10.8104C3.19491 10.8042 3.17924 10.7938 3.16684 10.78C3.15443 10.7662 3.1457 10.7496 3.14145 10.7315C3.13593 10.7089 3.13592 10.6853 3.14141 10.6626C3.1469 10.64 3.15772 10.619 3.17299 10.6014C3.33463 10.424 3.8511 9.98244 4.39911 9.52117C5.01414 8.99287 5.65283 8.45274 5.84996 8.23196C5.85969 8.22033 5.87171 8.21082 5.88528 8.20404C5.89884 8.19726 5.91366 8.19334 5.92881 8.19254C5.95372 8.19243 5.97798 8.20046 5.9979 8.2154C6.01783 8.23035 6.03233 8.25139 6.0392 8.27533C6.39403 9.85234 6.58721 10.7946 6.61086 11.0666C6.61153 11.1039 6.59896 11.1402 6.57538 11.1691M55.51 12.0877L55.2695 10.4082L55.1236 9.46203L54.7885 6.38292L54.4376 2.59021C54.3666 1.40746 54.3785 0.713574 54.481 0.42577C54.4943 0.388739 54.4977 0.348855 54.4908 0.310109C54.4838 0.271363 54.4669 0.235113 54.4415 0.204988C54.4238 0.180811 54.4007 0.1611 54.374 0.147413C54.3473 0.133727 54.3178 0.126443 54.2878 0.126138L54.1025 0.149793C52.4703 0.374517 51.9183 0.835792 51.8198 1.87662C51.7921 2.54608 51.8278 3.21666 51.9262 3.87942L52.1667 5.55893L52.4072 7.62876L52.4663 8.08609L52.5255 8.4488L52.6477 9.58031L52.9946 13.377C53.0438 13.9989 53.0438 14.6238 52.9946 15.2457C52.9728 15.3759 52.9635 15.508 52.967 15.64C52.967 15.7661 53.0183 15.8489 53.1484 15.841C53.2154 15.841 53.2785 15.841 53.3416 15.8174H53.452C55.0093 15.5848 55.5297 15.1156 55.6204 14.0748C55.6445 13.4158 55.6089 12.756 55.5139 12.1035M50.7987 8.70507L50.704 7.82588L50.6646 7.45134V7.38038V7.32913L50.57 6.43417L50.2191 2.63752C50.1481 1.45477 50.16 0.764827 50.2625 0.47308C50.2737 0.435766 50.2759 0.396339 50.2691 0.357986C50.2622 0.319633 50.2465 0.283428 50.223 0.252299C50.2047 0.228755 50.1814 0.209502 50.1549 0.195882C50.1283 0.182263 50.0991 0.174607 50.0693 0.173448C47.7353 0.453367 47.4396 1.11571 47.6328 3.23679V3.31564L47.6998 3.92673L47.9403 5.60624L48.0823 6.55245L48.2281 7.62482L48.2912 8.08609C48.5002 9.39895 48.6855 10.972 48.8234 12.2376V12.2809L48.7919 12.3125C48.4643 12.5241 48.0773 12.625 47.688 12.6003H44.1082L44.1318 12.4978C44.2758 12.1106 44.4778 11.7477 44.7311 11.4215C45.0091 11.0848 45.1806 10.6731 45.2239 10.2387C45.1967 9.87992 45.0787 9.53396 44.8809 9.23336C44.5401 8.61896 44.0351 8.11143 43.4224 7.7675C42.8098 7.42357 42.1135 7.25677 41.4115 7.28576C40.4365 7.2557 39.475 7.51943 38.6517 8.04272C38.3614 8.24592 38.1247 8.51649 37.9618 8.83123C37.5281 9.74195 37.5675 10.3806 37.6622 10.6763C37.7019 10.7525 37.7577 10.8192 37.8258 10.8716C37.8939 10.924 37.9726 10.961 38.0564 10.9799C38.4737 11.0426 38.8751 11.1844 39.2392 11.3978C39.6842 11.6493 40.0522 12.0173 40.3037 12.4623L40.3707 12.5884H36.235C35.5905 12.5148 34.9859 12.2388 34.5081 11.7999L34.378 11.6698V11.6462C33.8327 10.9476 33.3298 10.2169 32.872 9.45809L32.7892 9.35558C32.1939 8.4488 32.2767 8.34235 32.2254 8.06638C32.2186 8.03029 32.2027 7.99652 32.1793 7.96825C32.1558 7.93997 32.1256 7.91812 32.0914 7.90473C32.0667 7.89313 32.0398 7.88712 32.0125 7.88712C31.9853 7.88712 31.9584 7.89313 31.9337 7.90473C30.1911 9.20577 30.2226 9.82869 31.3581 11.453L31.6932 11.934C31.9757 12.4003 32.182 12.9087 32.3043 13.44C32.3727 13.8309 32.4135 14.2262 32.4265 14.6228V14.6583V14.6859C31.2437 17.0514 28.9807 18.5338 26.5127 18.5338H26.2919C25.3599 18.49 24.4488 18.2423 23.6228 17.8083C23.2917 17.6388 23.3153 18.1671 23.5361 18.4155C24.0827 19.0774 24.7685 19.6106 25.5446 19.9773C26.3208 20.3439 27.1683 20.5348 28.0266 20.5366C28.3064 20.5364 28.5858 20.5153 28.8625 20.4735C29.3558 20.4046 29.8382 20.2721 30.2975 20.0792C30.6679 19.9265 31.023 19.739 31.3581 19.5194C32.8078 18.5539 33.8518 17.0889 34.2913 15.4034C34.3347 15.2575 34.4727 15.4034 34.4727 15.4034C34.8624 15.6561 35.3216 15.7802 35.7855 15.7582H37.0195H37.8711H39.3614H39.4876C39.7446 15.7486 39.997 15.6863 40.2289 15.575C40.4609 15.4638 40.6675 15.3061 40.8359 15.1117C41.0841 14.8172 41.2801 14.4826 41.4155 14.1221L41.4785 13.9565L41.5653 14.1103C41.6875 14.4367 41.859 14.7426 42.0738 15.017C42.2433 15.2626 42.4676 15.4652 42.7291 15.6089C42.9905 15.7526 43.2818 15.8335 43.5799 15.845H46.4974H46.5841H48.4765C48.8921 15.8385 49.3 15.7315 49.6652 15.533C50.0305 15.3346 50.3423 15.0507 50.5739 14.7056C50.6779 14.4978 50.7675 14.283 50.842 14.063C50.9672 13.6794 51.0466 13.2824 51.0786 12.8802C51.1693 12.0917 50.8933 9.40683 50.8302 8.83123L50.7987 8.70507Z" fill="#004987"/>
</svg>
