<svg width="4" height="3" viewBox="0 0 4 3" fill="none" xmlns="http://www.w3.org/2000/svg">
<path d="M2.0447 2.10332C1.97319 2.088 1.90169 2.07268 1.83018 2.06246C1.59524 2.02671 1.47776 1.90924 1.47266 1.71004C1.47266 1.60278 1.5033 1.59257 1.56459 1.6794C1.65142 1.80198 1.774 1.87859 1.92212 1.91434C2.04981 1.93988 2.25411 1.93988 2.53502 1.91434C2.75465 1.89391 2.90276 1.79176 2.97938 1.613C3.01513 1.53128 3.03556 1.36784 3.04067 1.13289C3.05088 0.800901 3.05088 0.47402 3.04577 0.142031C3.04577 0.0245577 3.09685 -0.0214104 3.199 0.00923479C3.21432 0.0143423 3.22454 0.0245577 3.22454 0.0398803C3.22965 0.407622 3.22965 0.775364 3.22965 1.14311C3.22965 1.37294 3.20411 1.5466 3.15303 1.65386C3.02024 1.94499 2.75464 2.09311 2.35115 2.09311C2.30518 2.09311 2.26432 2.12886 2.25922 2.17993C2.24389 2.47617 2.11621 2.7009 1.88637 2.84391C1.73825 2.93585 1.5697 2.98692 1.38072 3.00225C1.21217 3.01757 1.03852 3.00735 0.864861 2.98182C0.507334 2.93074 0.262173 2.74687 0.119162 2.44042C0.0272265 2.24633 -0.00852631 2.00628 0.00168874 1.72536C0.0119038 1.4802 0.0578714 1.24015 0.139592 1.0052C0.149807 0.974557 0.165129 0.949019 0.185559 0.923482C0.303032 0.800901 0.32857 0.841762 0.26728 1.04606C0.211097 1.22483 0.180452 1.4087 0.175344 1.59257C0.165129 1.78665 0.170237 1.93988 0.190667 2.05735C0.216205 2.22079 0.277496 2.36381 0.379646 2.49149C0.502227 2.64472 0.66056 2.74687 0.859753 2.79284C1.04362 2.8337 1.24282 2.8337 1.45223 2.78773C1.82508 2.70601 2.02938 2.49149 2.07024 2.13907C2.07024 2.11864 2.06002 2.10332 2.0447 2.10332Z" fill="#181818" stroke="#181818" stroke-width="0.0383065" stroke-miterlimit="10"/>
</svg>
