<svg width="1" height="1" viewBox="0 0 1 1" fill="none" xmlns="http://www.w3.org/2000/svg">
<path d="M0.0585599 0.531821C-0.00273041 0.531821 -0.0180567 0.506283 0.0228035 0.455208C0.0534486 0.414348 0.104524 0.383704 0.176029 0.368381C0.191352 0.363273 0.201567 0.353058 0.201567 0.337736C0.191352 0.102789 0.29861 -0.00957661 0.533556 0.000638439C0.630599 0.00574597 0.666356 0.0466067 0.645926 0.12322C0.640818 0.138542 0.625492 0.14365 0.610169 0.138542C0.431406 0.0925746 0.339473 0.158972 0.34458 0.337736C0.34458 0.353058 0.354795 0.368381 0.370118 0.373489C0.441623 0.399026 0.518236 0.404134 0.599957 0.399026C0.676569 0.388811 0.717431 0.409241 0.722538 0.460316C0.727646 0.501176 0.696997 0.536929 0.661244 0.542037C0.656137 0.542037 0.656139 0.542037 0.651032 0.542037L0.0585599 0.531821Z" fill="#181818"/>
</svg>
