<svg width="60" height="5" viewBox="0 0 60 5" fill="none" xmlns="http://www.w3.org/2000/svg">
<path d="M23.087 1.29597L22.7894 0.886742C22.6539 0.648848 22.4318 0.472407 22.1694 0.394191C21.9071 0.315975 21.6246 0.342014 21.381 0.466877C21.2521 0.53835 21.1406 0.637296 21.0542 0.756697C20.9679 0.876098 20.9089 1.01303 20.8814 1.15779C20.8814 1.33849 21.1631 1.63611 21.4129 1.73177C21.8327 1.91779 22.3057 1.97093 22.7415 2.11974C23.1773 2.26856 23.6025 2.65121 23.4484 3.18268C23.3798 3.39167 23.2702 3.58487 23.126 3.75097C22.9819 3.91706 22.806 4.05271 22.6087 4.14996C21.4182 4.59108 20.4403 4.01709 20.318 2.70436C20.5413 2.93821 20.6901 3.03387 20.7485 3.16674C20.8392 3.3436 20.9668 3.49892 21.1227 3.62216C21.2787 3.74541 21.4593 3.83371 21.6523 3.88109C21.8453 3.92846 22.0463 3.9338 22.2415 3.89674C22.4368 3.85969 22.6218 3.78111 22.7841 3.66632C23.2518 3.28366 23.1401 2.69905 22.5183 2.48115C22.0674 2.38322 21.6236 2.25539 21.1897 2.09849C20.8867 1.93905 20.4934 1.56702 20.4987 1.30129C20.5125 1.09443 20.5698 0.892819 20.6669 0.709645C20.764 0.526471 20.8986 0.36587 21.0621 0.238349C21.2547 0.100896 21.4815 0.0194571 21.7176 0.00307472C21.9536 -0.0133077 22.1895 0.0360038 22.3992 0.145535C22.6089 0.255067 22.7842 0.420544 22.9056 0.623611C23.027 0.826677 23.0898 1.05939 23.087 1.29597ZM9.04559 3.79919L8.83832 4.15527L8.72671 4.12338V0.116114H8.93399L8.99245 1.48198C9.32326 1.30814 9.68386 1.19816 10.0554 1.15779C10.4339 1.21398 10.7803 1.40224 11.0333 1.68926C11.257 2.01355 11.3683 2.40223 11.35 2.79578C11.3318 3.18934 11.1851 3.56607 10.9323 3.86828C10.4646 4.33066 9.73119 4.33066 9.04559 3.79919ZM10.927 2.73625C10.927 1.98156 10.5815 1.50324 10.0022 1.4873C9.8559 1.4916 9.71202 1.5261 9.57964 1.58862C9.44725 1.65113 9.3292 1.74032 9.2329 1.8506C9.1366 1.96087 9.06412 2.08985 9.02 2.22945C8.97587 2.36905 8.96107 2.51626 8.9765 2.66184C8.9765 3.37933 9.34322 3.87359 9.93315 3.89485C10.5231 3.91611 10.911 3.49625 10.927 2.73625ZM34.2478 1.53513L34.3063 0.126737H34.5083V4.20842L34.1947 3.86296C33.4241 4.33597 32.7225 4.33066 32.2867 3.82576C32.047 3.49799 31.9178 3.10245 31.9178 2.69639C31.9178 2.29033 32.047 1.89479 32.2867 1.56702C32.7438 1.04087 33.3815 1.02492 34.2478 1.53513ZM32.3186 2.68842C32.3186 3.46436 32.6587 3.89485 33.2646 3.88954C33.8705 3.88422 34.2478 3.43778 34.2532 2.69904C34.2748 2.55442 34.2663 2.4069 34.2283 2.2657C34.1903 2.1245 34.1235 1.99267 34.0322 1.87844C33.941 1.7642 33.8271 1.67003 33.6977 1.60182C33.5684 1.5336 33.4264 1.49281 33.2806 1.48198C32.6959 1.47135 32.3186 1.93905 32.3239 2.68842H32.3186ZM3.34825 4.33066C3.17728 4.03646 3.02635 3.73105 2.8965 3.41653C2.85959 3.25192 2.76329 3.1067 2.62601 3.00864C2.48874 2.91059 2.32013 2.86659 2.15245 2.88506C1.3393 2.84254 0.643077 2.88506 0.488951 3.88954C0.488951 4.01709 0.276364 4.11275 0.164755 4.22436L0 4.10213L1.52531 0.33933C1.52531 0.270239 2.05678 0.275554 2.10462 0.33933L3.51832 4.0224C3.52895 4.05429 3.4758 4.10212 3.34825 4.33066ZM1.79636 0.578489L1.04168 2.52367H2.52979L1.79636 0.578489ZM30.3894 3.07108C30.3894 3.9108 30.0386 4.21905 29.252 4.21373C28.3698 4.21373 27.9287 3.68226 27.9446 2.61933C27.9446 1.68926 28.4761 1.08338 29.2839 1.11527C30.0918 1.14716 30.501 1.71583 30.485 2.77346H28.1519C28.4442 3.21989 28.5718 3.60254 28.8322 3.76198C29.555 4.22967 29.9376 3.57066 30.3894 3.07108ZM30.1874 2.41205C30.028 1.88059 29.826 1.47667 29.252 1.4873C28.678 1.49792 28.4336 1.82744 28.3804 2.41205H30.1874ZM59.9922 2.79471H57.8663C57.8663 3.44842 58.1001 3.93205 58.722 3.85765C59.1514 3.73089 59.5559 3.53135 59.9178 3.26772C59.8274 4.0224 59.3863 4.33066 58.5413 4.23499C58.3603 4.20118 58.1878 4.13195 58.0337 4.03129C57.8796 3.93063 57.7468 3.80052 57.6431 3.64842C57.5394 3.49632 57.4668 3.32523 57.4294 3.14498C57.392 2.96473 57.3906 2.77887 57.4252 2.59807C57.4996 1.68926 58.0895 1.09933 58.8655 1.16842C59.6414 1.23751 60.04 1.80618 59.9922 2.79471ZM59.6361 2.428C59.5457 1.79023 59.2587 1.47136 58.7113 1.49262C58.1639 1.51387 57.9354 1.8859 57.861 2.428H59.6361ZM25.9994 4.14996V2.52367C25.9994 1.96031 25.9994 1.49261 25.2766 1.4873C24.5538 1.48198 24.3997 1.9231 24.3785 2.5024L24.3306 4.16058H24.0808V0.132057H24.2934L24.421 1.47135C24.6322 1.36164 24.8527 1.27093 25.08 1.20031C25.6115 1.0887 26.1801 1.17373 26.2652 1.73177C26.337 2.53764 26.3477 3.34779 26.2971 4.15527L25.9994 4.14996ZM51.1113 4.1659L50.548 3.93737C50.1756 4.05264 49.7955 4.14144 49.4106 4.2031C49.3072 4.22315 49.2007 4.22052 49.0984 4.19539C48.9961 4.17026 48.9004 4.12323 48.8181 4.05754C48.7357 3.99185 48.6686 3.90908 48.6213 3.81493C48.5741 3.72077 48.5478 3.61749 48.5443 3.5122C48.5239 3.40281 48.5263 3.29038 48.5514 3.18197C48.5765 3.07355 48.6237 2.97149 48.69 2.88217C48.7564 2.79286 48.8405 2.71821 48.9371 2.66292C49.0336 2.60763 49.1406 2.57288 49.2512 2.56086C49.5329 2.48646 49.8464 2.5024 50.1175 2.40142C50.2769 2.34296 50.4895 2.13038 50.4842 1.99751C50.4789 1.86464 50.2344 1.52981 50.1441 1.54576C49.6569 1.65604 49.1761 1.79265 48.7038 1.95499C48.7038 1.46072 49.1024 1.24282 49.6179 1.15779C50.3354 1.03555 50.8243 1.32255 50.9041 1.91779C50.9466 2.23136 50.9041 2.55555 50.9041 2.86912L51.1113 4.1659ZM50.4842 2.65653C50.0806 2.70609 49.6822 2.79146 49.2937 2.91164C49.1964 2.96393 49.1142 3.0402 49.0546 3.1332C48.9951 3.22621 48.9603 3.33288 48.9536 3.4431C48.9956 3.54759 49.0619 3.6406 49.1469 3.71451C49.2319 3.78843 49.3332 3.84113 49.4425 3.86828C50.1122 4.01709 50.4948 3.59192 50.4842 2.65653ZM8.11553 4.16058L7.58406 3.95331C7.1928 4.09868 6.77906 4.17424 6.36168 4.17653C6.19298 4.12427 6.03741 4.03653 5.90541 3.9192C5.77342 3.80187 5.66804 3.65765 5.59636 3.49625C5.42629 3.08702 5.68671 2.73625 6.12783 2.60869C6.43077 2.52366 6.76028 2.51835 7.05259 2.41205C7.23501 2.30724 7.3985 2.1725 7.53622 2.01345C7.36615 1.83807 7.19077 1.51387 7.03664 1.5245C6.70212 1.58991 6.38184 1.71407 6.09063 1.89122C5.98965 1.93905 5.92587 2.06128 5.74518 2.25261C5.69203 1.39163 6.17566 1.18968 6.71776 1.15248C7.25986 1.11527 7.81259 1.24814 7.92951 1.9231C7.98266 2.23136 7.92951 2.56086 7.92951 2.87443L8.11553 4.16058ZM7.47245 2.66716C7.06932 2.71421 6.67101 2.79601 6.28196 2.91164C6.18434 2.96404 6.10152 3.04021 6.04114 3.13311C5.98076 3.226 5.94477 3.33262 5.9365 3.4431C5.98 3.54669 6.0467 3.6389 6.13148 3.71262C6.21626 3.78634 6.31683 3.83959 6.42546 3.86828C7.14294 4.02241 7.51497 3.58128 7.47245 2.66716ZM12.9891 1.91779C12.9891 1.43947 13.2867 1.1631 13.967 1.14184C14.5569 1.14184 15.0299 1.29066 15.1309 1.97625C15.1734 2.31639 15.1309 2.66184 15.1628 3.00198C15.1947 3.34212 15.285 3.71416 15.3701 4.17653L14.7642 3.94269C14.3956 4.05734 14.019 4.14438 13.6375 4.2031C13.5341 4.22396 13.4274 4.22212 13.3248 4.1977C13.2222 4.17328 13.1262 4.12687 13.0433 4.06167C12.9604 3.99647 12.8927 3.91404 12.8448 3.82009C12.7969 3.72613 12.7699 3.62289 12.7659 3.51751C12.7455 3.40782 12.7478 3.29511 12.7729 3.18638C12.7979 3.07765 12.845 2.97523 12.9113 2.8855C12.9776 2.79577 13.0617 2.72064 13.1583 2.66479C13.2548 2.60894 13.3619 2.57357 13.4727 2.56086C13.7544 2.49177 14.0573 2.49178 14.3337 2.40674C14.4878 2.35891 14.7323 2.16226 14.711 2.08786C14.6579 1.8859 14.4666 1.55639 14.3709 1.55639C13.9024 1.64436 13.4407 1.76513 12.9891 1.91779ZM14.6898 2.65653C14.2898 2.70717 13.8951 2.79252 13.5099 2.91164C13.4129 2.9648 13.3306 3.04116 13.2703 3.1339C13.2101 3.22664 13.1737 3.33288 13.1645 3.4431C13.2032 3.54798 13.2663 3.64216 13.3485 3.71792C13.4308 3.79368 13.5298 3.84885 13.6375 3.8789C14.3284 4.02772 14.7376 3.57597 14.6898 2.65653ZM51.6162 1.34912C51.9163 1.32579 52.2145 1.28319 52.5091 1.22156C53.402 0.966456 53.9706 1.3438 53.9919 2.2845V3.97988C53.9919 4.03835 53.9334 4.09681 53.8006 4.35191C53.7271 4.12788 53.6702 3.89873 53.6305 3.66632C53.6574 3.20346 53.6414 2.73909 53.5827 2.27919C53.542 2.11918 53.4666 1.97007 53.3619 1.84241C53.2572 1.71476 53.1257 1.61167 52.9768 1.54045C52.869 1.50818 52.7552 1.50152 52.6444 1.52101C52.5335 1.54049 52.4288 1.58557 52.3385 1.65267C52.2482 1.71976 52.1748 1.80701 52.1241 1.90748C52.0735 2.00794 52.047 2.11884 52.0467 2.23136C51.9829 2.76283 52.0148 3.29429 51.9936 3.82576C51.9882 3.88971 51.9699 3.9519 51.9398 4.00855C51.9096 4.0652 51.8682 4.11512 51.8182 4.15527C51.478 3.21989 51.6747 2.25261 51.6162 1.34912ZM44.1225 1.21625C44.1787 1.3655 44.2179 1.5206 44.2394 1.67862V3.14548C44.2394 3.53877 44.367 3.86827 44.8559 3.89485C45.3449 3.92142 45.6531 3.76198 45.7435 3.31555C45.8073 2.85926 45.8445 2.39965 45.8551 1.93905L45.9029 1.21625H46.1315V4.33066L45.9295 4.01177C45.3502 4.06492 44.7656 4.28282 44.3829 4.09681C44.0003 3.91079 43.9365 3.31555 43.8515 2.87443C43.81 2.34377 43.81 1.81068 43.8515 1.28002L44.1225 1.21625ZM38.1594 4.13933V1.35975C38.446 1.33873 38.7304 1.29429 39.0098 1.22688C39.8283 0.945203 40.4341 1.3066 40.4766 2.17289V4.15527H40.2162C40.1763 3.98017 40.1479 3.80263 40.1312 3.6238V2.37486C40.1312 1.96031 40.009 1.48198 39.4031 1.4873C39.2859 1.4804 39.1685 1.49833 39.0587 1.53989C38.9489 1.58144 38.8491 1.64571 38.7659 1.72847C38.6826 1.81124 38.6177 1.91065 38.5755 2.0202C38.5333 2.12975 38.5147 2.24698 38.5208 2.36422V3.60786C38.5015 3.79897 38.4714 3.98884 38.4305 4.17653L38.1594 4.13933ZM41.1197 3.32087C41.4867 3.54436 41.8793 3.72281 42.289 3.85234C42.4803 3.88954 42.7354 3.59723 42.9639 3.45374C42.8161 3.23724 42.637 3.04381 42.4325 2.87975C42.1827 2.74157 41.8372 2.77345 41.6034 2.62464C41.3695 2.47583 41.1091 2.18884 41.125 1.98157C41.194 1.74826 41.341 1.54567 41.5413 1.40764C41.7417 1.26961 41.9833 1.20449 42.2259 1.22315C42.4685 1.24181 42.6973 1.34313 42.8742 1.51017C43.0511 1.67722 43.1653 1.89989 43.1978 2.14101C43.088 2.04892 42.9726 1.96372 42.8523 1.8859C42.5574 1.72826 42.2454 1.60521 41.9222 1.51919C41.8106 1.51919 41.529 1.73177 41.5343 1.83807C41.5437 1.93809 41.576 2.03463 41.6285 2.1203C41.681 2.20596 41.7524 2.2785 41.8372 2.33234C42.1189 2.47052 42.4962 2.428 42.7407 2.59807C42.9852 2.76814 43.3785 3.12954 43.3413 3.37933C43.2871 3.5542 43.1939 3.71446 43.0687 3.84797C42.9435 3.98149 42.7895 4.08476 42.6185 4.14996C41.6884 4.43695 41.0719 4.01178 41.1197 3.32087Z" fill="#63BA58"/>
</svg>
