<svg width="9" height="3" viewBox="0 0 9 3" fill="none" xmlns="http://www.w3.org/2000/svg">
<path d="M5.60934 0.513502L5.61445 0.881244C5.61445 1.20302 5.61956 1.51969 5.61445 1.84146C5.61445 2.10705 5.61956 2.26538 5.63999 2.31646C5.69617 2.50544 5.8494 2.60248 6.09966 2.60759C6.29375 2.6127 6.51338 2.6127 6.74832 2.6127C6.77386 2.6127 6.79429 2.59227 6.79429 2.56673C6.79429 2.56162 6.79429 2.55651 6.79429 2.55141C6.72789 2.342 6.71768 2.11216 6.76875 1.867C6.80961 1.6627 6.91176 1.51968 7.0701 1.43796C7.21821 1.36646 7.37144 1.35114 7.54509 1.3971C7.76983 1.45839 7.90773 1.61673 7.95881 1.87721C8.00477 2.10705 7.97924 2.342 7.88219 2.58205C7.87709 2.59227 7.88219 2.60248 7.89241 2.60759H7.89751H8.27547C8.2908 2.60759 8.30101 2.46968 8.31122 2.4135C8.35208 2.16323 8.32655 1.91807 8.27547 1.68313C8.23461 1.50436 8.17332 1.36646 8.08649 1.26942C7.97413 1.14683 7.82601 1.08044 7.64214 1.07533C7.29993 1.06001 6.96284 1.0549 6.62063 1.06511C6.57977 1.06511 6.57467 1.0549 6.60531 1.02425C6.68703 0.942534 6.77386 0.871029 6.86579 0.799523C6.93219 0.748448 7.00881 0.717803 7.09053 0.707588C7.39698 0.666727 7.70343 0.692266 8.00477 0.768879C8.21929 0.825061 8.38273 0.932319 8.5002 1.09065C8.58703 1.20813 8.65343 1.38178 8.69429 1.61162C8.73004 1.79549 8.74536 1.97936 8.74536 2.16834C8.74536 2.43393 8.74536 2.69442 8.74026 2.9549C8.74026 2.97533 8.72493 2.98554 8.7045 2.98554H6.1201C5.91579 2.98554 5.71149 2.92425 5.5123 2.80678C5.44079 2.76592 5.3744 2.76592 5.30289 2.817C5.20074 2.8885 5.08327 2.93958 4.95047 2.96001C4.89429 2.97022 4.77171 2.98044 4.57762 2.98554C4.4244 2.99065 4.27628 2.99065 4.12305 2.98044C3.93918 2.97022 3.75531 2.89361 3.57144 2.76081C3.55101 2.74549 3.52547 2.74549 3.50504 2.76081C3.35692 2.87318 3.17816 2.93958 2.97386 2.96001C2.70827 2.98554 2.43757 2.99065 2.17198 2.97533C1.97278 2.96512 1.78381 2.87318 1.61015 2.69952C1.59483 2.6842 1.56929 2.6842 1.54886 2.69952C1.38031 2.87318 1.17601 2.96511 0.946172 2.97022C0.379236 2.98044 0.0676747 2.70974 0.0114919 2.14791C-0.00383065 1.98447 -0.00383065 1.81592 0.0114919 1.64737C0.0523522 1.1877 0.302621 0.927212 0.752083 0.855706C0.925739 0.830169 1.26795 0.830168 1.78891 0.850599C1.80424 0.850599 1.81445 0.860814 1.81445 0.876136C1.83999 1.33581 1.8502 1.67802 1.83488 1.90275C1.82466 2.06108 1.83999 2.2092 1.88085 2.342C1.91149 2.43393 1.96257 2.49522 2.03407 2.53608C2.11579 2.57694 2.20773 2.59737 2.32009 2.59737C2.50907 2.59737 2.70316 2.59737 2.89214 2.59227C3.04026 2.59227 3.15262 2.54119 3.22413 2.44415C3.2752 2.37775 3.30074 2.27049 3.30585 2.12237C3.31606 1.8006 3.31606 1.4635 3.31096 1.11108C3.31096 1.02936 3.34671 0.978287 3.41821 0.957857L3.66337 0.896567C3.69913 0.886352 3.73999 0.911889 3.7502 0.957857C3.7502 0.962964 3.7502 0.973179 3.7502 0.978287C3.74509 1.3971 3.7451 1.78017 3.75531 2.1377C3.76042 2.2756 3.78085 2.37775 3.82171 2.43904C3.883 2.53608 3.98515 2.59227 4.11794 2.60248C4.21499 2.6127 4.32225 2.6127 4.44993 2.60759C4.65423 2.60248 4.7666 2.59737 4.78192 2.59737C5.05773 2.56162 5.19563 2.38286 5.19053 2.05087C5.18542 1.55544 5.19563 0.942534 5.21096 0.217266C5.21096 0.212158 5.21096 0.16619 5.21096 0.12533C5.21096 0.0793621 5.24671 0.0385022 5.29268 0.0282872C5.39483 0.0129646 5.55316 -0.00746551 5.59913 0.00274955C5.61956 0.0231797 5.60934 0.508395 5.60934 0.513502ZM0.609073 2.52076C0.752084 2.6127 0.900203 2.63313 1.05343 2.58716C1.14536 2.56162 1.21176 2.51565 1.26284 2.45436C1.3088 2.39307 1.33945 2.31135 1.35477 2.2092C1.39053 1.91296 1.40074 1.60141 1.3701 1.26431C1.3701 1.24899 1.35477 1.23877 1.33945 1.23877C1.18112 1.22856 1.02789 1.23366 0.889987 1.24388C0.762299 1.25409 0.670365 1.27963 0.614183 1.32049C0.532462 1.37667 0.481386 1.4635 0.450741 1.58098C0.384343 1.85678 0.404772 2.13259 0.506923 2.40329C0.53246 2.44925 0.568213 2.49011 0.609073 2.52076ZM7.18757 2.53608C7.35612 2.65356 7.4838 2.62802 7.57063 2.44925C7.65746 2.27049 7.66768 2.08662 7.60128 1.88743C7.57574 1.82103 7.5451 1.76995 7.49913 1.7342C7.43784 1.69334 7.37655 1.67802 7.30504 1.69334C7.22843 1.71377 7.17225 1.76995 7.13649 1.86189C7.06499 2.04065 7.05988 2.23985 7.13139 2.45436C7.1416 2.49012 7.16203 2.51565 7.18757 2.53608Z" fill="#1B5F39"/>
</svg>
