<svg width="15" height="15" viewBox="0 0 15 15" fill="none" xmlns="http://www.w3.org/2000/svg">
<path d="M8.15901 2.15005H7.54865C7.44857 2.14479 7.35114 2.11602 7.26425 2.06608C7.17736 2.01613 7.10347 1.94642 7.04855 1.86259L6.15466 0.287461C6.06015 0.129948 6.13497 0 6.32005 0H9.82077C10.1201 0.0168231 10.4113 0.104045 10.6707 0.254576C10.93 0.405107 11.1501 0.6147 11.3132 0.866321L14.5265 6.43047C14.6606 6.69817 14.7304 6.99345 14.7304 7.29285C14.7304 7.59225 14.6606 7.88753 14.5265 8.15523L11.3132 13.7154C11.1499 13.9665 10.9296 14.1755 10.6703 14.3254C10.4109 14.4753 10.1199 14.5617 9.82077 14.5778H3.01621C2.77821 14.5255 2.55478 14.421 2.36206 14.2719C2.16935 14.1228 2.01214 13.9327 1.90181 13.7154L1.55134 13.109L0.653518 11.5575L0.322742 10.9826L0.0392186 10.4943C-0.0513514 10.3368 0.0195288 10.2068 0.204606 10.2068H1.99632C2.0964 10.2121 2.19383 10.2409 2.28071 10.2908C2.3676 10.3408 2.4415 10.4105 2.49642 10.4943L2.77994 10.9826L3.11072 11.5575V11.593C3.22106 11.8102 3.37825 12.0003 3.57097 12.1494C3.76369 12.2986 3.98712 12.403 4.22513 12.4553H8.55673C8.85583 12.4393 9.1469 12.3528 9.40625 12.2029C9.66559 12.0531 9.88588 11.8441 10.0492 11.593L12.0181 8.15917C12.1522 7.89147 12.222 7.59619 12.222 7.29679C12.222 6.99738 12.1522 6.7021 12.0181 6.4344L10.0492 2.99668C9.88518 2.74623 9.66473 2.53773 9.40553 2.38796C9.14633 2.23818 8.85561 2.1513 8.55673 2.1343H8.12357L8.15901 2.15005Z" fill="#000F9F"/>
</svg>
