<svg width="7" height="7" viewBox="0 0 7 7" fill="none" xmlns="http://www.w3.org/2000/svg">
<path d="M6.20794 3.09513C6.2069 2.27389 5.87993 1.48664 5.29885 0.906303C4.71778 0.325967 3.93011 -6.62966e-07 3.10887 0C3.00443 0 2.90428 0.0414877 2.83043 0.115336C2.75658 0.189185 2.71509 0.289345 2.71509 0.393782V5.39482C2.21454 5.3117 1.75478 5.06755 1.4056 4.69941C1.05641 4.33127 0.836868 3.85926 0.780298 3.35502C0.723727 2.85079 0.833214 2.34186 1.09214 1.9055C1.35107 1.46914 1.7453 1.12917 2.21499 0.937202C2.30898 0.897323 2.38381 0.822493 2.42369 0.728498C2.44756 0.658797 2.45139 0.583799 2.43475 0.512029C2.41811 0.440259 2.38168 0.374595 2.32959 0.3225C2.27749 0.270405 2.21183 0.23397 2.14006 0.217334C2.06829 0.200699 1.99329 0.204531 1.92359 0.228394C1.29013 0.488069 0.760493 0.95019 0.417361 1.54261C0.0742281 2.13502 -0.0630798 2.82438 0.0268709 3.50306C0.116822 4.18174 0.428969 4.81153 0.914579 5.29411C1.40019 5.77668 2.03192 6.08488 2.71115 6.17057V6.78487C2.96512 6.81113 3.22112 6.81113 3.47509 6.78487V6.17057C4.22544 6.07823 4.91605 5.71446 5.41661 5.14789C5.91716 4.58132 6.19304 3.85114 6.19219 3.09513M3.47509 0.795441C4.01969 0.885891 4.51451 1.16668 4.87146 1.5878C5.22842 2.00893 5.42434 2.54307 5.42434 3.09513C5.42434 3.64719 5.22842 4.18133 4.87146 4.60246C4.51451 5.02358 4.01969 5.30437 3.47509 5.39482V0.795441Z" fill="white"/>
</svg>
