<svg width="15" height="60" viewBox="0 0 15 60" fill="none" xmlns="http://www.w3.org/2000/svg">
<path d="M2.9783 28.3592C2.51328 28.1636 2.06224 27.9363 1.62837 27.6789C1.11401 27.3187 0.698433 26.8349 0.419834 26.2722C0.141235 25.7094 0.00854641 25.0856 0.0339617 24.4582C0.0339617 17.7617 0.0339617 11.0634 0.0339617 4.36336C0.0226191 4.00603 0.0827769 3.65005 0.210904 3.3163C0.339032 2.98254 0.532546 2.67775 0.780086 2.41982C1.02763 2.16188 1.3242 1.956 1.6524 1.81425C1.98061 1.67251 2.33382 1.59777 2.6913 1.59441H5.99704C8.81913 1.68476 11.5828 1.47748 14.0807 0C15.4147 1.68476 15.1436 4.48559 13.5492 6.00028C12.0611 7.40867 10.2275 7.91888 8.23452 8.12615C7.70305 8.1793 7.17158 8.20056 6.5976 8.23776V24.8515H14.4899C14.4899 26.3874 14.6015 27.8808 14.458 29.353C14.3757 29.946 14.084 30.4899 13.6356 30.8866C13.1873 31.2833 12.6118 31.5066 12.0133 31.5161C10.7696 31.5958 9.51536 31.5639 8.29298 31.5745H6.84739C6.82139 31.7205 6.80364 31.8677 6.79424 32.0157L6.83676 45.8338C6.90585 48.9164 7.60739 51.8607 9.4941 54.4117C10.6861 55.9755 12.1719 57.2916 13.8681 58.2862C14.2561 58.5253 14.6281 58.7804 15.0054 59.0302L14.9576 59.28C14.5525 59.3337 14.1436 59.3532 13.7352 59.3385C11.8126 59.061 9.97664 58.3564 8.36207 57.2764C3.26529 54.1513 0.607947 49.4797 0.182772 43.6442C-0.0989061 39.7379 0.0233315 35.7997 0.0445903 31.8775C0.049905 30.1608 1.03312 29.0713 2.9783 28.3592Z" fill="#266835"/>
</svg>
