<svg width="12" height="4" viewBox="0 0 12 4" fill="none" xmlns="http://www.w3.org/2000/svg">
<path d="M11.1037 0.0204298V0.0153227C11.0986 0.00510768 11.0884 0 11.0782 0L10.6849 0.12258C10.6849 0.12258 10.6849 0.694624 10.6849 0.985753C10.6849 0.99086 10.6849 0.995968 10.6849 0.995968C10.6849 0.995968 10.69 1.67527 10.69 2.01747C10.69 2.17581 10.6696 2.29839 10.6338 2.38521C10.5674 2.52823 10.4397 2.60484 10.2559 2.60995C9.99028 2.61505 9.7298 2.62016 9.46421 2.62016H9.4591C9.42846 2.62016 9.40803 2.58952 9.40803 2.55887C9.43356 2.21667 9.39781 1.9 9.29566 1.59866C9.24969 1.46075 9.19351 1.34839 9.12711 1.26156C9.04539 1.14919 8.94324 1.06747 8.83087 1.01129C8.7134 0.955108 8.5806 0.914247 8.41716 0.888709C8.26905 0.868279 8.12603 0.86828 7.99834 0.898925C7.74297 0.960215 7.49781 1.0879 7.27308 1.27688L7.26797 1.28199C7.24243 1.30753 7.24243 1.34328 7.26797 1.36882L7.48759 1.57823C7.49781 1.58844 7.51824 1.58844 7.52845 1.57823C7.56421 1.55269 7.6306 1.49651 7.72765 1.41478C7.8962 1.27177 8.12093 1.2207 8.38652 1.25645C8.56018 1.28199 8.69808 1.3586 8.79512 1.4914C8.86663 1.58844 8.91259 1.72634 8.94324 1.90511C8.97388 2.11452 8.9841 2.33925 8.97389 2.5793C8.97389 2.59973 8.95345 2.62016 8.93302 2.62016C8.19243 2.62527 7.45184 2.62527 6.70614 2.61505C6.37415 2.60995 6.2056 2.43629 6.2056 2.09409C6.2056 1.45054 6.2056 0.735484 6.2056 0.0919356C6.2056 0.0868281 5.77657 0.219623 5.77657 0.240054L5.77146 1.06237C5.77657 1.43522 5.76636 1.80806 5.74082 2.18091C5.7306 2.31882 5.69996 2.41586 5.64888 2.47715C5.56716 2.56909 5.44458 2.59462 5.28625 2.59973C5.08705 2.60995 5.04109 2.61505 4.89808 2.61505C4.7091 2.62016 4.56609 2.59973 4.46394 2.49758C4.39754 2.43118 4.35668 2.31371 4.34135 2.15538C4.32092 1.94597 4.31582 1.73656 4.32604 1.52204C4.33625 1.34839 4.33625 1.17984 4.33114 1.00618C4.33114 0.995968 4.33114 0.975538 4.33625 0.944892C4.34136 0.893817 4.31582 0.878495 4.26474 0.90914L3.93786 0.995968C3.91743 1.00108 3.90722 1.02151 3.90722 1.04704C3.90722 1.33306 3.90722 1.61398 3.90722 1.88978C3.90722 2.0379 3.897 2.1707 3.87657 2.27796C3.85614 2.38522 3.81528 2.46694 3.74888 2.5129C3.67738 2.56909 3.58544 2.59973 3.47308 2.60484C3.2841 2.61505 3.11555 2.60995 2.96232 2.58952C2.8142 2.56909 2.69163 2.52823 2.59458 2.46694C2.47711 2.39032 2.39028 2.28817 2.3341 2.16559C2.27281 2.0379 2.16044 1.74677 1.98679 1.29731C1.89485 1.04704 1.69566 0.873387 1.40453 0.781452L1.3126 0.755914C1.21044 0.730376 1.10319 0.730376 1.03168 0.730376C0.995929 0.730376 0.955065 0.735484 0.919312 0.745699L0.740548 0.791667C0.515817 0.873387 0.321735 0.99086 0.163402 1.16452C0.153187 1.17473 0.148075 1.19516 0.153183 1.20538C0.173613 1.26156 0.214476 1.30753 0.270658 1.33306C0.285981 1.33817 0.372805 1.40968 0.413665 1.36882C0.474956 1.30753 0.55668 1.25645 0.653723 1.20027C0.750766 1.14919 0.83759 1.11344 0.924418 1.09812C1.19512 1.04194 1.42496 1.13387 1.61393 1.3586C1.6599 1.41479 1.69055 1.48629 1.70077 1.57823V1.58333C1.70077 1.59866 1.69055 1.60887 1.67523 1.60887C1.53733 1.60887 1.39942 1.60887 1.26152 1.60376C1.05211 1.59866 0.852914 1.63952 0.663936 1.72634C0.291086 1.89489 0.0765724 2.18602 0.0152821 2.59462C-0.0357932 2.93683 0.0408185 3.23306 0.250227 3.47823C0.510711 3.78468 0.858025 3.92769 1.28706 3.89704C1.53222 3.88172 1.73652 3.82554 1.88974 3.7336C1.90506 3.72339 1.91528 3.70806 1.91528 3.69274L1.92039 3.33522C1.92039 3.30457 1.91017 3.29946 1.88464 3.31989C1.75184 3.41694 1.60883 3.47823 1.4556 3.50887C1.3177 3.53441 1.19001 3.53952 1.07254 3.52419C0.939742 3.50376 0.817163 3.45269 0.709904 3.37097C0.546464 3.24328 0.454531 3.07473 0.444316 2.86532C0.423885 2.49247 0.551571 2.23199 0.837593 2.07876C0.944851 2.02258 1.09297 1.99194 1.27684 1.98683C1.44539 1.98172 1.62926 1.98172 1.81824 1.98683C1.84888 1.98683 1.87953 2.01237 1.88464 2.04301C2.00211 2.5793 2.30345 2.88575 2.78867 2.96237C2.92657 2.9828 3.0849 2.99812 3.26877 2.99812C3.43221 2.99812 3.59055 2.9828 3.74888 2.94704C3.81528 2.93172 3.87657 2.90618 3.93786 2.87043C3.99404 2.83978 4.05533 2.80403 4.11152 2.76317C4.13195 2.75296 4.15238 2.75296 4.1677 2.76828C4.31071 2.89597 4.47926 2.96747 4.67334 2.9828C4.81635 2.99301 4.96447 2.99812 5.10748 2.99301C5.33222 2.9879 5.47523 2.97769 5.54162 2.96237C5.69485 2.93172 5.83276 2.86532 5.96044 2.75806C5.97066 2.74785 5.99109 2.74785 6.00641 2.75806C6.23114 2.9164 6.47119 2.99301 6.71635 2.99812C7.8298 3.00323 8.94324 2.99812 10.0567 2.9828C10.3121 2.97769 10.4959 2.95726 10.5981 2.9164C10.7922 2.84489 10.9301 2.7121 11.022 2.52312C11.0731 2.41586 11.0986 2.25753 11.1037 2.04301C11.1139 1.36882 11.1139 0.704838 11.1037 0.0204298Z" fill="#181818"/>
</svg>
