<svg width="7" height="4" viewBox="0 0 7 4" fill="none" xmlns="http://www.w3.org/2000/svg">
<path d="M4.32097 2.68812C4.31586 2.67791 4.30565 2.67791 4.29543 2.68302C4.29543 2.68302 4.29543 2.68302 4.29032 2.68812C4.19328 2.81071 4.07581 2.89753 3.9379 2.95372C3.84597 2.98947 3.70296 3.0099 3.51398 3.01501C2.18091 3.04054 1.14919 3.03544 0.423926 3.0099C0.2707 3.00479 0.153226 2.9435 0.0817207 2.82092C0.035753 2.74942 0.0153232 2.63194 0.0102157 2.47361C0.00510815 2.00882 0 1.27845 0 0.292695C0 0.195652 0.00510846 0.119039 0.0153235 0.0577487C0.020431 0.0424261 0.0306464 0.0271037 0.045969 0.0219962C0.137904 -0.0239716 0.178765 0.00156639 0.173657 0.103717C0.16855 0.165007 0.168549 0.20076 0.168549 0.20076C0.173657 0.961781 0.173656 1.72791 0.183871 2.48893C0.183871 2.6013 0.219624 2.69323 0.286022 2.76474C0.33199 2.81071 0.398387 2.83624 0.485215 2.84646C0.801882 2.86689 1.13898 2.872 1.50161 2.86178C1.52715 2.86178 1.54758 2.83624 1.54758 2.81071C1.54247 2.50936 1.54247 2.22334 1.55269 1.95264C1.5578 1.68705 1.58844 1.49296 1.64973 1.36528C1.79785 1.0435 2.07876 0.890276 2.49758 0.900491C2.61506 0.915813 2.74785 0.992426 2.82446 1.06393C2.83468 1.07415 2.83978 1.08947 2.83468 1.10479C2.81935 1.16097 2.7836 1.19162 2.73253 1.19162C2.70699 1.19162 2.66613 1.1763 2.62527 1.14565C2.46694 1.03839 2.29839 1.02818 2.11962 1.12011C1.99194 1.1814 1.9 1.27334 1.84382 1.39081C1.80296 1.46743 1.78253 1.59001 1.77742 1.75345C1.76721 2.09565 1.7672 2.44807 1.77231 2.82092C1.77231 2.84646 1.79274 2.872 1.82339 2.872C2.41586 2.8771 2.9879 2.8771 3.53441 2.86178C3.70296 2.85667 3.82554 2.83624 3.90215 2.79538C3.98387 2.74942 4.05027 2.68813 4.10135 2.60641C4.1371 2.54511 4.16263 2.46339 4.17285 2.35614C4.21371 1.93221 4.22903 1.51339 4.21371 1.08436C4.2086 0.977104 4.25457 0.936243 4.34651 0.951566C4.36183 0.956673 4.42312 0.966889 4.42312 0.982211C4.42312 1.42146 4.43333 1.8556 4.45376 2.28974C4.45887 2.43275 4.48952 2.54001 4.53548 2.61151C4.58145 2.67791 4.58656 2.73409 4.65807 2.77495C4.71425 2.81071 4.78575 2.83114 4.87769 2.84646C5.07688 2.8771 5.25565 2.8771 5.41909 2.85157C5.63871 2.81581 5.78172 2.68302 5.84301 2.45829C5.87876 2.3306 5.89409 2.10587 5.89409 1.78409C5.88898 1.23248 5.88387 0.685975 5.88387 0.139469C5.88387 0.0373189 6.13925 0.047534 6.13925 0.0628566C6.11371 1.2427 6.1086 1.94753 6.12903 2.16716C6.1086 2.67791 5.9043 2.89243 5.49059 3.0099C5.35269 3.05076 5.1535 3.05587 4.8879 3.02522C4.63764 2.98947 4.45376 2.88221 4.32097 2.68812Z" fill="#181818" stroke="#181818" stroke-width="0.0383065" stroke-miterlimit="10"/>
</svg>
