<svg width="1" height="1" viewBox="0 0 1 1" fill="none" xmlns="http://www.w3.org/2000/svg">
<path d="M0.495431 0.000666198C0.551614 0.0313114 0.587366 0.0772789 0.597581 0.138569L0.383065 0.153892C0.362634 0.153892 0.347314 0.164107 0.337099 0.174322C0.296238 0.22029 0.280915 0.271365 0.29113 0.337763C0.296237 0.353086 0.306454 0.3633 0.321777 0.368408C0.434142 0.383731 0.520969 0.388838 0.582259 0.373516C0.674195 0.353086 0.699732 0.393946 0.658872 0.485881C0.653765 0.501204 0.638442 0.511419 0.623119 0.511419L0.0255376 0.506311C0.0102151 0.506311 0 0.496096 0 0.480773C0 0.414376 0.0357527 0.368408 0.102151 0.353085C0.117473 0.347978 0.127688 0.337763 0.127688 0.322441C0.148118 0.0977094 0.2707 -0.00954886 0.495431 0.000666198Z" fill="#181818" stroke="#181818" stroke-width="0.0383065" stroke-miterlimit="10"/>
</svg>
