<svg width="15" height="15" viewBox="0 0 15 15" fill="none" xmlns="http://www.w3.org/2000/svg">
<path d="M13.2291 1.50819L14.127 3.06363L14.4577 3.63855L14.7413 4.12684C14.8318 4.28435 14.7413 4.4143 14.5759 4.4143H12.7802C12.6808 4.40843 12.5842 4.37938 12.498 4.32946C12.4119 4.27954 12.3386 4.21015 12.284 4.12684L12.0202 3.63855L11.6894 3.06363L11.6698 3.03606C11.3941 2.56352 10.8467 2.12642 10.5081 2.12642H6.17649C5.87714 2.14374 5.58598 2.23073 5.32619 2.38045C5.0664 2.53017 4.84517 2.73848 4.68011 2.98881L2.7112 6.42259C2.5753 6.68975 2.50446 6.98524 2.50446 7.28497C2.50446 7.58471 2.5753 7.8802 2.7112 8.14736L4.68011 11.5851C4.84517 11.8354 5.0664 12.0437 5.32619 12.1934C5.58598 12.3432 5.87714 12.4301 6.17649 12.4475H6.6569H7.22395C7.32335 12.4533 7.41999 12.4824 7.50615 12.5323C7.59231 12.5822 7.66558 12.6516 7.72011 12.7349L8.62187 14.2864C8.71244 14.4439 8.64156 14.5739 8.45648 14.5739H7.22789H5.43617L4.93213 14.5975C4.63237 14.5801 4.34087 14.4926 4.08101 14.3422C3.82115 14.1917 3.60015 13.9825 3.43576 13.7312L0.206745 8.14736C0.0708402 7.8802 0 7.58471 0 7.28497C0 6.98524 0.0708402 6.68975 0.206745 6.42259L3.41607 0.862383C3.58044 0.611411 3.80151 0.402597 4.06145 0.252795C4.32138 0.102993 4.61288 0.0163981 4.91244 0H11.717C11.955 0.0522915 12.1784 0.156776 12.3712 0.305911C12.5639 0.455046 12.7211 0.64511 12.8314 0.862383L13.2291 1.50819Z" fill="#4191CE"/>
</svg>
