<svg width="15" height="32" viewBox="0 0 15 32" fill="none" xmlns="http://www.w3.org/2000/svg">
<path d="M0.826429 0C3.25524 1.40308 5.87538 1.7007 8.58587 1.59441C9.64881 1.54657 10.7117 1.59441 11.7747 1.59441C13.8208 1.59441 14.905 2.65734 14.9635 4.71413V6.84L14.8997 30.7561V31.6011C14.6606 31.6011 14.4692 31.6489 14.2832 31.6489H3.68573C1.45888 31.6489 0.364053 30.5169 0.358738 28.2794V25.6221C0.358738 25.4095 0.358738 25.1916 0.395941 24.9206H8.32545V8.29622C7.39538 8.19524 6.46531 8.14741 5.5565 7.98797C4.11991 7.77361 2.76918 7.17084 1.65021 6.24475C0.765962 5.48933 0.192554 4.4334 0.0404558 3.28039C-0.111643 2.12739 0.168328 0.958884 0.826429 0Z" fill="#83C443"/>
</svg>
