<svg width="2" height="3" viewBox="0 0 2 3" fill="none" xmlns="http://www.w3.org/2000/svg">
<path d="M1.00618 0C1.18494 0.0408602 1.32285 0.0919356 1.425 0.143011C1.65995 0.270699 1.78253 0.480108 1.79274 0.766129C1.80806 1.20538 1.80806 1.64462 1.78763 2.08387C1.78763 2.09919 1.77742 2.10941 1.7621 2.10941C1.17984 2.12984 0.597577 2.12984 0.0153188 2.10941C0.00510379 2.10941 0 2.09919 0 2.09409V2.08898C0.0510753 1.97151 0.122578 1.87446 0.214514 1.78253C0.224729 1.77231 0.240054 1.7672 0.255376 1.7621L1.34839 1.73656C1.36371 1.73656 1.37393 1.72634 1.37393 1.71102C1.37903 1.41989 1.37903 1.12366 1.37903 0.832527C1.37903 0.658871 1.31263 0.531183 1.18494 0.439248C1.05726 0.35242 0.898923 0.326882 0.72016 0.377957C0.546504 0.423925 0.393277 0.526076 0.265589 0.684409C0.255374 0.694624 0.25027 0.694624 0.25027 0.679301C0.245163 0.597581 0.245159 0.520968 0.240051 0.439248C0.234944 0.316667 0.28602 0.229839 0.388171 0.173656C0.505644 0.107259 0.628222 0.0561833 0.75591 0.0204306L0.78656 0.0153227C0.852958 1.5526e-07 0.919351 3.11663e-07 0.985749 0.00510784L1.00618 0Z" fill="#181818"/>
</svg>
