<svg width="1" height="4" viewBox="0 0 1 4" fill="none" xmlns="http://www.w3.org/2000/svg">
<path d="M0.250269 0.124533C0.250269 0.0632427 0.250268 0.02749 0.245161 0.0223825C0.229838 -0.00826264 0.12258 -0.00826311 0.0408596 0.0274896C0.0204295 0.0377046 0.00510628 0.0581347 0.00510628 0.0785649L0.0102141 0.645501C0.0102141 1.38098 0.0102151 2.11136 0 2.84684C0 2.90303 0.0051069 2.93878 0.015322 2.95921C0.0357521 2.99496 0.137903 3.01029 0.194085 3.01029C0.224731 3.01029 0.250269 2.98475 0.250269 2.9541V0.594425C0.245161 0.436092 0.250269 0.277759 0.250269 0.124533ZM0.229839 1.29926C0.234946 1.30437 0.234945 1.30437 0.234945 1.30437C0.229837 1.30437 0.229839 1.29926 0.229839 1.29926ZM0.234945 1.31459V1.30948C0.234945 1.31459 0.234945 1.31459 0.234945 1.31459Z" fill="#181818" stroke="#181818" stroke-width="0.0383065" stroke-miterlimit="10"/>
</svg>
