<svg width="4" height="6" viewBox="0 0 4 6" fill="none" xmlns="http://www.w3.org/2000/svg">
<path d="M2.7181 0.893886C2.36345 0.701071 2.07935 0.400422 1.9069 0.0354405C1.90025 0.0246916 1.89098 0.0158038 1.87997 0.00960632C1.86895 0.00340885 1.85654 0.000103718 1.8439 0C1.83194 0.000743279 1.82032 0.00435051 1.81004 0.0105181C1.79977 0.0166857 1.79112 0.0252332 1.78483 0.0354405C1.6141 0.401294 1.33137 0.703327 0.977578 0.897824C0.682124 1.05641 0.43519 1.29212 0.263049 1.57988C0.0909074 1.86765 0 2.1967 0 2.53202C0 2.86734 0.0909074 3.19639 0.263049 3.48416C0.43519 3.77192 0.682124 4.00764 0.977578 4.16622C1.33335 4.35881 1.61878 4.6594 1.79271 5.02466C1.79805 5.03567 1.80648 5.04488 1.81697 5.05117C1.82746 5.05746 1.83955 5.06057 1.85178 5.0601C1.86374 5.05936 1.87535 5.05575 1.88563 5.04959C1.89591 5.04342 1.90456 5.03487 1.91084 5.02466C2.08306 4.65853 2.36711 4.35655 2.72203 4.16228C3.01859 4.00462 3.26666 3.76924 3.43965 3.48136C3.61264 3.19347 3.70403 2.86394 3.70403 2.52808C3.70403 2.19222 3.61264 1.86269 3.43965 1.57481C3.26666 1.28693 3.01859 1.05154 2.72203 0.893886" fill="#4C9C2E"/>
</svg>
