<svg width="1" height="3" viewBox="0 0 1 3" fill="none" xmlns="http://www.w3.org/2000/svg">
<path d="M0.414189 2.98407C0.342683 2.9994 0.266069 3.0045 0.189456 2.9994C0.184349 2.9994 0.153706 2.99939 0.102631 3.0045C0.0311253 3.00961 -0.00462744 2.96875 0.000480085 2.89724C0.00558761 2.85128 0.00558636 2.82574 0.00558636 2.82574C0.00558636 1.93192 0.00558636 1.0381 0.00558636 0.144287C0.00558636 0.118749 0.0362328 0.0932124 0.077093 0.0778898L0.383545 0.00127692C0.403975 -0.00383061 0.434617 0.00638398 0.444832 0.0319216C0.444832 0.0319216 0.444832 0.210686 0.444832 0.282191C0.424402 0.981922 0.398866 2.77977 0.414189 2.98407Z" fill="#181818"/>
</svg>
