<svg width="3" height="4" viewBox="0 0 3 4" fill="none" xmlns="http://www.w3.org/2000/svg">
<path d="M1.09301 2.67767C1.19516 2.68278 1.2922 2.67767 1.39435 2.65724C1.52204 2.63681 1.61398 2.57552 1.67016 2.47848C1.70081 2.4223 1.72124 2.32015 1.72124 2.18224C1.73145 1.56423 1.73656 0.946221 1.73145 0.32821C1.73145 0.32821 1.73145 0.302672 1.72634 0.251597C1.72124 0.149447 1.76721 0.0881564 1.86936 0.0626188C1.95108 0.0421887 2.0328 0.0217588 2.11452 0.00132864C2.12984 -0.00377888 2.15027 0.00643586 2.15538 0.0217584C2.15538 0.026866 2.15538 0.0268658 2.15538 0.0319733C2.15538 0.747027 2.15538 1.46719 2.15538 2.18224C2.15538 2.55509 2.00726 2.81558 1.72124 2.95859C1.61909 3.00966 1.47097 3.04031 1.28199 3.04541C0.883604 3.06074 0.474999 3.06584 0.0663972 3.06074C0.0306445 3.06074 0.00510753 3.0352 0 3.00455C0 2.99434 1.87036e-06 2.98412 0.0051094 2.97902L0.153226 2.71342C0.158333 2.70321 0.173655 2.693 0.194085 2.693L0.612903 2.66746C0.628226 2.66746 0.638441 2.65213 0.638441 2.64192L0.64355 0.363963C0.64355 0.343532 0.65887 0.32821 0.6793 0.317995L0.950002 0.231167C1.02151 0.20563 1.06236 0.231167 1.06236 0.302672L1.07769 2.65213C1.06747 2.66746 1.07769 2.67767 1.09301 2.67767Z" fill="#1B5F39"/>
</svg>
