<?xml version="1.0" encoding="utf-8"?>
<!-- Generator: Adobe Illustrator 26.0.1, SVG Export Plug-In . SVG Version: 6.00 Build 0)  -->
<svg version="1.1" id="Layer_1" xmlns="http://www.w3.org/2000/svg" xmlns:xlink="http://www.w3.org/1999/xlink" x="0px" y="0px"
	 viewBox="0 0 966.1 360" style="enable-background:new 0 0 966.1 360;" xml:space="preserve">
<style type="text/css">
	.st0{fill:#2189C5;}
	.st1{clip-path:url(#SVGID_00000039100856107677318220000000655108976052268466_);}
	.st2{fill:#1E4380;}
	.st3{fill:#1E4281;}
</style>
<g id="surface1">
	<path class="st0" d="M685.18,226.13l-31.3-54.21l31.3-54.21h62.59l12.73,22.05c0.43,0.75,1.23,1.21,2.09,1.21h24.14
		c1.86,0,3.01-2.01,2.09-3.62l-19.9-34.47C765.03,96.18,757.81,92,750.05,92h-67.14c-7.75,0-14.98,4.18-18.86,10.89l-33.57,58.15
		c-3.88,6.72-3.88,15.06,0,21.78l33.57,58.15c3.88,6.72,11.11,10.89,18.86,10.89h36.93c1.86,0,3.02-2,2.09-3.61l-12.07-20.9
		c-0.43-0.74-1.23-1.2-2.09-1.2"/>
	<g>
		<defs>
			<rect id="SVGID_1_" x="705.1" y="92" width="161.9" height="160"/>
		</defs>
		<clipPath id="SVGID_00000067917560676922522010000015494850707907720337_">
			<use xlink:href="#SVGID_1_"  style="overflow:visible;"/>
		</clipPath>
		<g style="clip-path:url(#SVGID_00000067917560676922522010000015494850707907720337_);">
			<path class="st2" d="M809.39,117.72l31.3,54.21l-31.3,54.21H746.8l-12.73-22.05c-0.43-0.74-1.23-1.2-2.08-1.2h-24.14
				c-1.85,0-3.01,2.01-2.08,3.61l19.9,34.47c3.88,6.72,11.11,10.89,18.86,10.89h67.14c7.75,0,14.98-4.17,18.86-10.89l33.57-58.14
				c3.88-6.72,3.88-15.06,0-21.78l-33.57-58.14C826.64,96.17,819.42,92,811.66,92h-36.93c-1.86,0-3.02,2.01-2.09,3.61l12.07,20.9
				c0.43,0.75,1.23,1.2,2.09,1.2"/>
		</g>
	</g>
	<path class="st3" d="M424.05,195.37v56.51h8.23v-22.03l15.54,22.77l8.11-3.06l-14.36-19.39l10.91-13.76l-7.32-3.69l-12.88,16.96
		v-34.31"/>
	<path class="st3" d="M371.16,251.88h-9.17v-49.04h-18.86v-7.47h46.53v7.47h-18.5"/>
	<path class="st3" d="M511.05,251.88h-8.65v-32.44h-5.82v-7.28h5.82v-0.73c0-5.78,1.33-9.86,4-12.34c2.6-2.43,6.05-3.72,10.22-3.72
		c1.52,0,6.61,0.7,6.61,0.7v6.98c0,0-4.39-0.52-5.5-0.52c-1.88,0-3.55,0.48-4.86,1.4c-0.84,0.52-1.81,2.11-1.81,6.3v1.93h11.63v7.28
		h-11.63v31.51"/>
	<path class="st3" d="M152.4,251.89h8.36v-56.52h-8.36V251.89z"/>
	<path class="st3" d="M119.88,198.18L99.1,251.89h7.91l5.38-15.07h20.05l4.88,15.07h9.71l-19.14-53.71H119.88z M122.81,207.69
		l7.88,23.82h-16.41"/>
	<path class="st3" d="M317.37,251.89h8.36v-37.96h-8.36V251.89z"/>
	<path class="st3" d="M317.37,207.62h8.36v-7.39h-8.36V207.62z"/>
	<path class="st3" d="M257.69,207.62h8.36v-7.39h-8.36V207.62z"/>
	<path class="st3" d="M274.49,195.37v56.51h8.36v-22.75c0-6.42,3.68-10.6,9.32-10.6c5.3,0,8.38,3.48,8.38,9.92v23.43h8.36v-24.66
		c0-9.48-4.3-14.26-12.71-14.26c-4.79,0-9.21,1.95-12.26,5.4l-1.18,1.33v-24.31"/>
	<path class="st3" d="M562.21,251.88v-37.84h-8.36v22.89c0,6.35-3.7,10.54-9.36,10.54c-5.29,0-8.38-3.51-8.38-9.82v-23.61h-8.36
		v24.71c0,9.51,4.3,14.25,12.71,14.25c4.85,0,9.21-1.9,12.23-5.37l1.21-1.32v5.56"/>
	<path class="st3" d="M179.56,198.18v53.7h8.36v-22.64h7.02c0,0,10.48,22.64,10.93,23.56c0.81-0.19,8.14-1.58,9.6-1.86
		c-0.85-1.66-12.24-23.37-12.24-23.37l0.58-0.35c5.66-3.55,8.51-8.52,8.51-15.36c0-8.61-6.05-13.69-16.11-13.69H179.56z
		 M187.92,203.5h6.91c5.63,0,9.03,3.65,9.03,9.32c0,5.08-3.18,11.09-10.24,11.09h-5.7"/>
	<path class="st3" d="M257.69,213.92v38.31c0,4.32-0.67,8.07-1.45,10.01c-0.67,1.51-2.15,2.61-3.82,3.09V268
		c9.57-0.13,13.62-4.97,13.62-16.12v-37.96"/>
	<path class="st3" d="M235.43,212.95c-5.21,0-9.39,1.57-13.39,4.84c0.49,0.73,1.95,2.94,2.49,3.82c2.97-2.6,5.97-3.76,9.63-3.76
		c3.82,0,6.48,2.88,7.02,6.73l0.06,0.6l-8.9,2.74c-9.09,2.77-13.35,7.13-13.35,13.68c0,6.54,4.2,11.26,10.07,11.26
		c7.93,0,12.45-7.51,12.45-7.51v6.54h8.57v-24.94C250.08,217.68,245.17,212.95,235.43,212.95 M237.91,244.56
		c-1.52,1.77-3.45,2.66-5.28,2.66c-2.9,0-5.14-2.84-5.14-6.41c0-4.9,2.6-8.16,7.79-9.82l5.47-1.92l0.92-0.32l0.05,0.96
		C242.27,238.33,239.58,242.71,237.91,244.56"/>
	<path class="st3" d="M400.27,212.95c-5.23,0-9.41,1.57-13.41,4.84c0.51,0.73,1.93,2.94,2.48,3.82c2.97-2.6,5.99-3.76,9.69-3.76
		c3.76,0,6.44,2.88,6.99,6.73l0.03,0.6l-8.9,2.74c-9.02,2.77-13.32,7.13-13.32,13.68c0,6.54,4.21,11.26,10.05,11.26
		c7.93,0,12.48-7.51,12.48-7.51v6.54h8.53v-24.94C414.89,217.68,409.99,212.95,400.27,212.95 M402.72,244.56
		c-1.57,1.77-3.39,2.66-5.27,2.66c-2.91,0-5.14-2.84-5.14-6.41c0-4.9,2.6-8.16,7.74-9.82l5.46-1.92l0.96-0.32l0.06,0.96
		C407.09,238.33,404.42,242.71,402.72,244.56"/>
	<path class="st3" d="M476.25,212.95c-5.27,0-9.48,1.57-13.44,4.84c0.49,0.73,1.88,2.94,2.42,3.82c3.03-2.6,6.05-3.76,9.69-3.76
		c3.88,0,6.48,2.88,7.03,6.73l0.09,0.6l-8.88,2.74c-9.11,2.77-13.37,7.13-13.37,13.68c0,6.54,4.27,11.26,10.02,11.26
		c7.96,0,12.44-7.51,12.44-7.51v6.54h8.59v-24.94C490.84,217.68,485.9,212.95,476.25,212.95 M478.67,244.56
		c-1.51,1.77-3.39,2.66-5.3,2.66c-2.84,0-5.18-2.84-5.18-6.41c0-4.9,2.59-8.16,7.81-9.82l5.57-1.92l0.85-0.32l0.06,0.96
		C483.03,238.33,480.37,242.71,478.67,244.56"/>
	<path class="st3" d="M569.11,251.89h8.41v-56.52h-8.41V251.89z"/>
	<path class="st3" d="M114.07,178.44h10.3v-9.09h-10.3V178.44z"/>
	<path class="st3" d="M128.46,178.44h10.31v-9.09h-10.31V178.44z"/>
	<path class="st3" d="M240.24,172h10.31v-8.99h-10.31V172z"/>
	<path class="st3" d="M448.21,100.96h10.3v-8.88h-10.3V100.96z"/>
	<path class="st3" d="M239.87,111.63c-2.4,0-4.75,0.25-7.05,0.63v7.48c0,0,2.76-1.55,7.55-1.55c10.55,0,21.73,9.87,21.73,27.96
		c0,0.16-0.03,1.69-0.31,2.57h-36.41v-2.4c0-20.39-13.8-34.69-33.55-34.69c-2.54,0-5.02,0.27-7.43,0.69v7.3l0.29,0.12
		c0,0,2.74-1.55,7.61-1.55c10.55,0,21.72,9.87,21.72,27.96l-0.05,2.57h-40.92v-37.09h-9.24c-25.09,0-25.91,12.86-25.91,28.03v9.34
		c0,7.39-2.59,8.83-6.55,8.83h-8.06c-5.11,0-13.54-0.75-13.54-19.29c0-15.7,6.87-20.86,20.54-20.77v-6.14
		c-10.52,0.05-17.16,2.05-23.29,7.92c-5.3,5.12-7.52,10.51-7.52,19.13c0,19.21,8.46,25.71,20,25.71h14.49
		c9.17,0,14.3-5.74,14.3-16.36v-9.8c0-12.87,1.86-20.12,14.51-20.12v37.22h109.51c1.05-4.37,1.25-9.68,1.25-9.68
		C273.02,125.63,259.41,111.63,239.87,111.63"/>
	<path class="st3" d="M567.62,107.18h10.34v-9.06h-10.34V107.18z"/>
	<path class="st3" d="M553.24,107.18h10.33v-9.06h-10.33V107.18z"/>
	<path class="st3" d="M283.38,155.34h10.31v-63.3h-10.31V155.34z"/>
	<path class="st3" d="M459.33,134.36h-7.99c-4.46,0-8.08-3.62-8.08-8.08s3.62-8.08,8.08-8.08h7.99V134.36z M461.08,111.69h-11.9
		c-7.9,0-14.3,6.41-14.3,14.3c0,7.9,6.41,14.3,14.3,14.3h10.39v1c0,4.92-2.3,7.61-6.75,7.61h-31.37V92.08h-10.3v56.98
		c0,7.39-2.56,8.83-6.58,8.83h-8.03c-5.12,0-13.55-0.75-13.55-19.29c0-15.7,6.88-20.86,20.48-20.77v-6.15
		c-10.45,0.06-17.11,0.38-23.23,6.25c-5.31,5.11-7.62,12.17-7.62,20.79c0,19.22,8.49,25.71,20.11,25.71h14.48
		c6.75,0,11.24-3.18,13.17-9.05h34.92c4.71,0,8.27-1.62,10.88-5.06c2.32-2.99,3.47-6.68,3.47-11.05V111.7h-8.58"/>
	<path class="st3" d="M324.33,139.18c0,7.98-3.77,9.54-6.93,9.54h-3.62v-37.09h-10.21v44.14c0,5.81,0,8.87-1.78,12.23
		c-0.87,1.71-2.68,3.25-4.74,3.95v3.12c11.71-0.2,16.73-6.18,16.73-19.73h6.11c4.85,0,8.49-1.69,11.18-5.11
		c2.37-3.07,3.55-6.88,3.55-11.4v-46.8h-10.3"/>
	<path class="st3" d="M344.44,155.34h10.3v-63.3h-10.3V155.34z"/>
	<path class="st3" d="M567.66,111.2v27.95c0,7.98-3.81,9.54-6.93,9.54h-11.87v-2.56c0-18.88-11.84-32.5-29.27-34.43l29.78-19.66
		H538.2l-30.32,20.1v7.31l0.29,0.12c0,0,2.74-1.55,7.61-1.55c10.55,0,21.72,9.87,21.72,27.96l-0.05,2.72h-34.73
		c-3.12,0-6.87-1.56-6.87-9.54V92h-10.23v46.8c0,4.52,1.18,8.33,3.55,11.4c2.68,3.42,6.3,5.11,11.14,5.11h62.92
		c4.86,0,8.49-1.69,11.11-5.11c2.38-3.07,3.62-6.88,3.62-11.4v-27.6"/>
</g>
</svg>
