<?xml version="1.0" encoding="utf-8"?>
<!-- Generator: Adobe Illustrator 22.0.1, SVG Export Plug-In . SVG Version: 6.00 Build 0)  -->
<svg version="1.1" id="Layer_1" xmlns="http://www.w3.org/2000/svg" xmlns:xlink="http://www.w3.org/1999/xlink" x="0px" y="0px"
	 viewBox="0 0 1000 1000" style="enable-background:new 0 0 1000 1000;" xml:space="preserve">
<style type="text/css">
	.st0{display:none;fill:#808184;}
	.st1{display:none;fill:#EC1C24;}
	.st2{fill:#005D48;}
	.st3{fill:#847770;}
</style>
<g>
	<polygon class="st0" points="513.8,396 515.7,396 515.7,398.6 513.8,398.6 513.8,396 513.8,396 	"/>
	<polygon class="st0" points="509.6,396 511.5,396 511.5,398.6 509.6,398.6 509.6,396 509.6,396 	"/>
	<polygon class="st0" points="518,396 519.9,396 519.9,398.6 518,398.6 518,396 518,396 	"/>
	<polygon class="st0" points="522.2,396 524.1,396 524.1,398.6 522.2,398.6 522.2,396 522.2,396 	"/>
	<polygon class="st0" points="513.8,400.3 515.7,400.3 515.7,402.8 513.8,402.8 513.8,400.3 513.8,400.3 	"/>
	<polygon class="st0" points="509.6,400.3 511.5,400.3 511.5,402.8 509.6,402.8 509.6,400.3 509.6,400.3 	"/>
	<polygon class="st0" points="518,400.3 519.9,400.3 519.9,402.8 518,402.8 518,400.3 518,400.3 	"/>
	<polygon class="st0" points="522.2,400.3 524.1,400.3 524.1,402.8 522.2,402.8 522.2,400.3 522.2,400.3 	"/>
	<polygon class="st0" points="513.8,391.7 515.7,391.7 515.7,394.3 513.8,394.3 513.8,391.7 513.8,391.7 	"/>
	<polygon class="st1" points="509.6,387.5 511.5,387.5 511.5,394.3 509.6,394.3 509.6,387.5 509.6,387.5 	"/>
	<polygon class="st0" points="518,391.7 519.9,391.7 519.9,394.3 518,394.3 518,391.7 518,391.7 	"/>
	<polygon class="st0" points="513.8,387.5 515.7,387.5 515.7,390.1 513.8,390.1 513.8,387.5 513.8,387.5 	"/>
	<polygon class="st0" points="518,387.5 519.9,387.5 519.9,390.1 518,390.1 518,387.5 518,387.5 	"/>
	<polygon class="st1" points="513.8,382.2 515.7,382.2 515.7,385.8 513.8,385.8 513.8,382.2 513.8,382.2 	"/>
	<polygon class="st0" points="513.8,404.5 515.7,404.5 515.7,408.2 513.8,408.2 513.8,404.5 513.8,404.5 	"/>
	<polygon class="st0" points="509.6,404.5 511.5,404.5 511.5,408.7 509.6,408.7 509.6,404.5 509.6,404.5 	"/>
	<polygon class="st0" points="518,404.5 519.9,404.5 519.9,407.7 518,407.7 518,404.5 518,404.5 	"/>
	<polygon class="st1" points="505.4,396 507.3,396 507.3,409.5 505.4,409.5 505.4,396 505.4,396 	"/>
	<g>
		<polygon class="st0" points="522.2,404.5 524.1,404.5 524.1,407.2 522.2,407.2 522.2,404.5 522.2,404.5 		"/>
	</g>
	<path class="st1" d="M524.5,411.3c-0.3,0.3-0.6,0-0.9,0.2c0,0,0-0.2-0.1-0.1c-0.3,0.3-0.7,0.1-1.1-0.1l0-0.1
		c-0.1,0-0.2,0.1-0.2,0.1l0-0.1c0,0.1-0.1,0-0.2,0.1l-0.1-0.2l0,0.1c-0.1,0.3-0.3,0-0.4,0.1l0-0.1c-0.2,0.2-0.5,0.1-0.8,0.2l0-0.2
		c0,0.1-0.1,0.2-0.2,0.2c0-0.1-0.1,0.1-0.2,0l0,0c-0.1,0.1-0.1-0.1-0.1,0.1l0-0.1c0,0.2-0.1-0.1-0.1,0v0l-0.1,0l0,0
		c-0.1,0-0.2-0.1-0.2,0.1c0-0.1,0.1,0,0-0.2c-0.4,0.1-0.7,0.1-1.1,0.1l-0.1-0.1l-0.2,0.1l0-0.1c-0.1-0.1-0.1,0.2-0.1,0.1l0-0.1
		c-0.1,0.1-0.1,0.1-0.2,0.1l0-0.1c-0.1,0.1-0.1,0-0.2,0.1l0-0.1c-0.1-0.1,0,0.2-0.1,0.1l0-0.1c-0.1,0.2-0.2,0.1-0.3,0.2l0,0l-0.3,0
		c0,0,0-0.2-0.1-0.2c0,0.2-0.2,0.1-0.1,0.3c-0.1,0-0.2-0.1-0.3,0c0-0.1,0-0.2,0-0.2l-0.1-0.1c0-0.1,0.1,0,0-0.1l-0.2,0.1
		c-0.1,0.1-0.1,0.3-0.2,0.3l0-0.2l-0.1,0.3c0,0,0-0.1-0.1-0.1l0,0.1c0,0-0.1,0-0.2-0.1l0-0.1l-0.1,0.1l0,0c0,0-0.1,0.1-0.1,0.2
		c0,0,0-0.1,0-0.1l-0.2,0.1l0-0.1l-0.3,0.2c0,0.1,0-0.1,0-0.1c-0.1-0.1-0.3,0.2-0.4,0l0,0.1c-0.1,0-0.1-0.1-0.1-0.1c0-0.1,0,0-0.1,0
		c0,0,0,0,0,0c-0.1,0.1-0.3,0.2-0.4,0.1c0,0-0.1,0.2-0.1,0.2l0-0.1c0-0.1-0.1,0-0.1-0.1c-0.1,0.1,0.2-0.1,0.2,0c0-0.1-0.1,0.2-0.1,0
		c-0.1,0-0.1,0.1-0.2,0c0,0,0-0.1,0-0.1l-0.1,0.1l0,0c0,0.1-0.1,0,0,0.1c0-0.1-0.1,0.1-0.1-0.1v-0.1l-0.1,0.2l0-0.1
		c0,0.2-0.1,0-0.1,0.2c-0.1-0.1-0.2,0-0.2-0.1c-0.1,0.1-0.1,0.1-0.2,0.1l0-0.1c0-0.1-0.1,0-0.1,0c0,0-0.1-0.1-0.2-0.2l0,0.2
		c-0.1-0.2-0.2,0.1-0.2,0c0,0,0.1-0.1,0-0.2c-0.1-0.2-0.1,0.2-0.2,0.1l0,0.2c-0.1-0.1-0.1,0.1-0.1-0.1c0,0.1-0.1,0-0.1,0.1
		c-0.2-0.1-0.3,0.1-0.5-0.2l-0.1,0.1c0,0.1,0-0.1,0.1,0l0,0.1c0,0-0.1,0-0.1-0.2c-0.1-0.1-0.1,0.3-0.2,0.2l-0.1-0.1l-0.1,0.1
		c-0.1,0-0.1-0.1-0.1-0.3l-0.1,0.1l-0.1-0.1c0.1,0.1,0,0.1,0,0.1l0,0l-0.1,0l0.1,0.1l-0.1,0.1c0-0.1-0.1-0.1-0.1-0.1l0,0.1
		c0-0.1-0.1,0,0-0.1l0.1,0c0,0,0-0.1-0.1-0.1c0,0.1,0,0.2,0,0.2l0-0.1l-0.1,0l0,0.1l0,0c0,0.1-0.1,0.1-0.1,0.2l-0.1-0.1l0,0
		c-0.1,0-0.1,0-0.1,0.1v0l-0.1,0.1c-0.1-0.1-0.1-0.4-0.1-0.2c-0.1,0-0.1,0.2,0,0.3c-0.1,0-0.2,0.1-0.3,0l0,0.1c-0.2,0-0.3,0.2-0.5,0
		l0-0.2c0,0.1-0.1-0.1,0,0.1l0.1,0.2c-0.1,0.1-0.2,0.1-0.3,0l0,0.1c0-0.1-0.1-0.1-0.1-0.1l0,0.1l-0.1-0.1c0,0,0,0.2-0.1,0.1l0-0.1
		c0,0.1-0.1,0.2-0.2,0.2l-0.1-0.1l0,0.1l-0.2-0.2c-0.1,0.3-0.3,0.4-0.5,0.4l0-0.1c-0.1,0,0,0.1,0,0.1l-0.1-0.2
		c-0.1,0-0.1,0.1-0.1,0.2c0,0.1,0-0.1,0,0c0,0-0.1,0-0.1,0.1l-0.1-0.2l0,0.1c-0.1-0.1,0-0.3-0.1-0.5l0,0c-0.1-0.1,0.1-0.2,0-0.2
		c0,0.1,0,0.3,0,0.3c-0.1,0.1,0,0.3-0.1,0.3c0-0.1,0.1,0,0-0.1c-0.1-0.1-0.1,0.1-0.1,0.1l0,0.2l-0.1-0.1c0,0.1,0,0.2,0,0.2
		c0,0.2-0.1,0-0.1,0.1c-0.1-0.1,0-0.3-0.1-0.3c0,0.1,0,0.2,0,0.3l-0.1-0.2c-0.1-0.1,0,0.2-0.1,0l0,0.1l-0.1-0.1c0,0-0.1,0.2-0.1,0
		c0,0-0.1,0,0,0.1c0.1,0.1,0-0.1,0.1,0c-0.1-0.1-0.1,0-0.1,0.1l0-0.1l0,0.1l0-0.1l0,0.1c-0.1,0.1-0.1-0.2-0.1-0.1l0-0.1l-0.1,0
		l0,0.3c0,0.1-0.1-0.1-0.1,0l0-0.1c0,0-0.1-0.1-0.2-0.1c0,0,0,0.2,0,0.2l-0.1-0.1l0,0.2l-0.2-0.2l0-0.2l0,0c0-0.1-0.1-0.1-0.1-0.2
		l-0.1,0.1c0.2,0.2,0,0.3,0.1,0.5c-0.1,0.1-0.3-0.4-0.2-0.1c0,0,0.1,0.2,0.1,0.1c-0.1,0,0,0.2-0.1,0.2c0-0.1-0.1-0.2-0.1-0.3
		c0,0.1,0.1,0,0.1,0c-0.1-0.1-0.1-0.2-0.1-0.2c0,0-0.1,0.1,0,0.2c0,0.1,0.1,0,0.1,0.1c-0.1,0.1-0.1-0.1-0.1,0.1c0,0,0.1,0.1,0.1,0.1
		l0,0.1l0-0.1c-0.1,0,0,0.1-0.1,0.2l-0.1-0.1c0-0.1,0.1,0,0-0.2l-0.1,0.1l0-0.1c0,0-0.2-0.2-0.2-0.1l0.1,0.1l-0.1,0.2
		c-0.1-0.1-0.1,0-0.1-0.1c0.1,0.1,0.2,0,0.2-0.1c-0.1-0.1,0.1,0,0-0.2c-0.1,0-0.2-0.1-0.2-0.2l0,0.1l0.1,0.2c-0.1,0-0.1,0.1-0.1,0.2
		l-0.1-0.2l-0.3,0.1c0.1,0.1-0.1,0.1,0.1,0.2c0.1,0,0.2,0.1,0.2,0.2l-0.1-0.1c0,0.1-0.1-0.1-0.1,0.1c0-0.1-0.1-0.2-0.2-0.3
		c0,0.1-0.1-0.1-0.1,0l-0.1,0.3c-0.2,0-0.2,0.2-0.2,0.2c-0.1,0-0.2-0.2-0.2-0.1c0,0,0.2,0.1,0,0.1l0,0c0,0-0.2,0-0.1,0.2l-0.1-0.1
		l0,0.1l-0.1-0.1c-0.1,0-0.1,0.1-0.1,0.2l0.1,0c0,0.1-0.1,0.1-0.1,0.2l-0.1,0l0,0.1c-0.1,0-0.2,0-0.1,0l-0.2-0.2l0.2,0.1
		c0.1,0,0.1-0.1,0-0.1l0,0.1c-0.1,0-0.1-0.1-0.2-0.2l0,0.1v-0.2l0.1,0.1c-0.1-0.1-0.1-0.2,0-0.2c0.2,0.1,0-0.2,0.2-0.2l0.1,0.3
		l0.1,0c0-0.1-0.1-0.2-0.1-0.3l0.1,0.1c0-0.1-0.1-0.2,0-0.2l0.4-0.2l0.1,0.1c-0.1-0.2,0.1-0.2,0.2-0.3c0.2,0,0.2-0.2,0.4-0.1
		l0.6-0.4l0,0.1c0-0.1,0.1,0.1,0.1,0c-0.1-0.1,0-0.2,0-0.2c0.1,0,0.2-0.1,0.3-0.3l0,0.1c0-0.2,0.2-0.1,0.3-0.1l0.1,0.1
		c0-0.2,0.1-0.2,0.1-0.3l0.3,0c0.2-0.3,0.5-0.2,0.8-0.5l0,0.1c0.2-0.3,0.6-0.2,0.8-0.4l0,0.2c0.1,0,0.2-0.1,0.1-0.2
		c0.1,0,0.2-0.1,0.2,0c0.1,0,0.1-0.1,0.1-0.1l0.4,0l0,0l0,0.1c0-0.1,0.2,0,0.1-0.2c0.2,0.1,0.3-0.2,0.5,0l0-0.1
		c0.1,0,0.3,0.1,0.4-0.1l0,0.1l0-0.1c0.2-0.2,0.5,0,0.7,0c0.3-0.2,0.7-0.1,1.1-0.2l0,0c0.1-0.2,0.3,0.1,0.4-0.1l0.1,0.1
		c0.1-0.1,0.3,0.1,0.4-0.1l0,0c0.1,0.1,0.2-0.1,0.4,0l0,0.1c0.1,0.1,0.1-0.2,0.2,0l0-0.1c0.3,0,0.6-0.1,1-0.2c0.2,0.1,0,0.4,0.2,0.2
		l0,0c0.1-0.1,0.1,0.2,0.2,0.1c0-0.1,0-0.1,0-0.2c0.1,0.1,0.2,0.2,0.3,0.1l0,0.1c0.1-0.2,0.3-0.1,0.4-0.3l2.1-0.3
		c0.7,0,1.4-0.1,2.1,0c0.2,0.2,0.2,0.2,0.4,0.1l0,0.1c0-0.1,0.1,0,0.1-0.1l0.8,0l0,0.1l0.1-0.1l0,0l0-0.1c0.7-0.1,1.3,0.2,2,0.2
		c0.2,0.1,0.4,0,0.5,0c0.5,0.2,0.9,0.4,1.5,0.3C524.8,410.8,524.7,411.2,524.5,411.3L524.5,411.3L524.5,411.3z"/>
	<path class="st1" d="M505.9,414C506,414,506,413.9,505.9,414C506,413.9,506,414.1,505.9,414L505.9,414L505.9,414z"/>
	<polygon class="st1" points="506.2,413.8 506.3,413.7 506.3,413.8 506.2,413.8 506.2,413.8 	"/>
	<polygon class="st1" points="512.6,412.1 512.6,412.2 512.6,412.1 512.6,412.1 512.6,412.1 	"/>
	<path class="st1" d="M515.6,411.9C515.6,411.8,515.6,411.9,515.6,411.9L515.6,411.9L515.6,411.9L515.6,411.9z"/>
	<polygon class="st1" points="517.1,411.5 517.1,411.5 517.1,411.4 517.1,411.5 517.1,411.5 	"/>
	<path class="st1" d="M418.5,386.8c0.1,0.1,0.2,0.2,0.4,0.2c0.1,0.1,0.3,0.1,0.4,0.1c0.2,0,0.3,0,0.4-0.1c0.1-0.1,0.3-0.1,0.4-0.2
		c0.1-0.1,0.2-0.2,0.2-0.4c0.1-0.1,0.1-0.3,0.1-0.4c0-0.3-0.1-0.6-0.3-0.8c-0.2-0.2-0.5-0.3-0.8-0.3c-0.3,0-0.6,0.1-0.8,0.3
		c-0.2,0.2-0.3,0.5-0.3,0.8c0,0.2,0,0.3,0.1,0.4C418.4,386.5,418.4,386.6,418.5,386.8L418.5,386.8z"/>
	<path class="st1" d="M421.4,386.8c0.1,0.1,0.2,0.2,0.4,0.2c0.1,0.1,0.3,0.1,0.4,0.1c0.2,0,0.3,0,0.4-0.1c0.1-0.1,0.3-0.1,0.4-0.2
		c0.1-0.1,0.2-0.2,0.2-0.4c0.1-0.1,0.1-0.3,0.1-0.4c0-0.3-0.1-0.6-0.3-0.8c-0.2-0.2-0.5-0.3-0.8-0.3c-0.3,0-0.6,0.1-0.8,0.3
		c-0.2,0.2-0.3,0.5-0.3,0.8c0,0.2,0,0.3,0.1,0.4C421.3,386.5,421.3,386.6,421.4,386.8L421.4,386.8z"/>
	<path class="st1" d="M387.8,397.9c-0.1-0.1-0.2-0.2-0.3-0.2c-0.1-0.1-0.3-0.1-0.4-0.1c-0.3,0-0.6,0.1-0.8,0.3
		c-0.2,0.2-0.3,0.5-0.3,0.8c0,0.1,0,0.3,0.1,0.4c0.1,0.1,0.1,0.2,0.2,0.3c0.1,0.1,0.2,0.2,0.3,0.2c0.1,0.1,0.3,0.1,0.4,0.1
		c0.2,0,0.3,0,0.4-0.1c0.1-0.1,0.2-0.1,0.3-0.2c0.1-0.1,0.2-0.2,0.2-0.3c0.1-0.1,0.1-0.3,0.1-0.4c0-0.2,0-0.3-0.1-0.4
		C388,398.1,387.9,398,387.8,397.9L387.8,397.9z"/>
	<path class="st1" d="M390.9,397.9c-0.1-0.1-0.2-0.2-0.3-0.2c-0.1-0.1-0.3-0.1-0.4-0.1c-0.3,0-0.6,0.1-0.8,0.3
		c-0.2,0.2-0.3,0.5-0.3,0.8c0,0.1,0,0.3,0.1,0.4c0.1,0.1,0.1,0.2,0.2,0.3c0.1,0.1,0.2,0.2,0.3,0.2c0.1,0.1,0.3,0.1,0.4,0.1
		c0.2,0,0.3,0,0.4-0.1c0.1-0.1,0.2-0.1,0.3-0.2c0.1-0.1,0.2-0.2,0.2-0.3c0.1-0.1,0.1-0.3,0.1-0.4c0-0.2,0-0.3-0.1-0.4
		C391,398.1,391,398,390.9,397.9L390.9,397.9z"/>
	<path class="st1" d="M414.4,391.7c-0.2,0.3-0.4,0.6-0.7,0.9c-0.3,0.3-0.6,0.5-1,0.7c-0.4,0.2-0.8,0.4-1.3,0.5
		c-0.2-0.3-0.4-0.6-0.6-0.9c-0.3-0.3-0.6-0.6-0.9-1c-0.3-0.3-0.7-0.6-1-0.9c-0.3-0.3-0.7-0.6-1-0.8c0.5-0.1,1-0.1,1.6-0.2
		c0.6,0,1.2-0.1,1.8-0.1c0.4,0,0.8,0,1.1,0c0.4,0,0.7,0.1,1,0.1c0.3,0.1,0.6,0.1,0.8,0.2c0.2,0.1,0.3,0.1,0.4,0.2
		C414.6,391,414.5,391.3,414.4,391.7L414.4,391.7z M400.8,394.3c-0.2,0.3-0.4,0.6-0.7,0.8c-0.3,0.2-0.6,0.4-1,0.6
		c-0.4,0.1-0.8,0.2-1.2,0.2c-0.4,0-0.8-0.1-1.2-0.2c-0.4-0.1-0.7-0.3-1-0.6c-0.3-0.2-0.5-0.5-0.6-0.8c-0.2-0.3-0.2-0.7-0.2-1
		c0-0.4,0.1-0.7,0.2-1c0.2-0.3,0.4-0.6,0.7-0.8c0.3-0.2,0.6-0.4,1-0.6c0.4-0.1,0.8-0.2,1.2-0.2c0.4,0,0.8,0.1,1.2,0.2
		c0.4,0.1,0.7,0.3,1,0.6c0.3,0.2,0.5,0.5,0.7,0.8c0.2,0.3,0.2,0.7,0.2,1C401.1,393.6,401,394,400.8,394.3L400.8,394.3z M430.8,383.4
		v10.5h-1.9h-0.2h-0.6v-10.5h-2.3v10.5h-2h-0.1h-1.5v-5.3h-2.3v5.3H418h-0.1h-2.2c0.6-0.5,0.6-0.7,0.9-1.3c0.3-0.6,0.5-1.4,0.5-2.2
		c0-0.5-0.2-0.9-0.5-1.2c-0.3-0.3-0.7-0.6-1.2-0.8c-0.5-0.2-1.1-0.3-1.8-0.4c-0.7-0.1-1.4-0.1-2.1-0.1c-0.6,0-1.1,0-1.7,0.1
		c-0.6,0-1.1,0.1-1.7,0.2c-0.5,0.1-1,0.2-1.5,0.3c-0.4,0.1-0.8,0.2-1.1,0.3v2c0.1,0.1,0.3,0.2,0.5,0.4c0.2,0.2,0.4,0.3,0.7,0.5
		c0.2,0.2,0.5,0.4,0.7,0.6c0.3,0.2,0.5,0.4,0.8,0.7c0.2,0.2,0.1,0,0.3,0.3c0.2,0.2,0.4,0.4,0.6,0.6h-4.6h-0.2h-1.2
		c0-0.2,0-0.3,0.1-0.5c0-0.2,0-0.4,0-0.5c0-0.7-0.1-0.9-0.4-1.4c-0.3-0.6-0.6-1.1-1.1-1.5c-0.5-0.4-1-0.8-1.6-1
		c-0.6-0.2-1.3-0.4-2-0.4c-0.7,0-1.4,0.1-2,0.4c-0.6,0.2-1.2,0.6-1.6,1c-0.5,0.4-0.8,0.9-1.1,1.5c-0.3,0.6-0.4,1.2-0.4,1.8
		c0,0.3,0,0.2,0,0.6h-1.1h-0.2h-1.9v-5.3h-2.3v5.3H386h-0.2h-1.4c0.1-0.5,0.1-0.6,0.1-1.1c0-0.4,0-0.3,0-0.7l0-3.1h-2.3l0,3.2
		c0,0.5,0,0.9-0.1,1.3c0,0.4-0.1,0.8-0.3,1.3c-0.1,0.5-0.3,0.9-0.6,1.3c-0.2,0.4-0.5,0.7-0.8,1c-0.3,0.3-0.7,0.5-1.1,0.7
		c-0.4,0.2-0.9,0.2-1.4,0.2c-0.2,0-0.5,0-0.7-0.1c-0.2,0-0.5-0.1-0.8-0.2l-0.1,1.8c0.4,0.1,0.7,0.2,1.1,0.3c0.4,0.1,0.7,0.1,1,0.1
		c0.7,0,1.4-0.1,2.1-0.4c0.6-0.3,1.2-0.6,1.7-1.1c0.3-0.3,0.6-0.7,0.9-1c0.3-0.4,0.5-0.8,0.7-1.2h1.9h0.2h5.7h0.2h2.1
		c0.5,0.6,1.1,1,1.8,1.3c0.7,0.3,1.4,0.5,2.3,0.5c0.8,0,1.6-0.2,2.3-0.5c0.7-0.3,1.3-0.8,1.8-1.3h2.2h0.2h13.4h0.1h5.8h0.1h4.9h0.2
		h3.2c0.3,0,0.5-0.1,0.7-0.3c0.2-0.2,0.3-0.4,0.3-0.7v-11.8H430.8L430.8,383.4z"/>
	<path class="st1" d="M454.4,397.9c-0.1-0.1-0.2-0.2-0.4-0.2c-0.1-0.1-0.3-0.1-0.4-0.1c-0.3,0-0.6,0.1-0.8,0.3
		c-0.2,0.2-0.3,0.5-0.3,0.8c0,0.2,0,0.3,0.1,0.4c0.1,0.1,0.1,0.3,0.2,0.4c0.1,0.1,0.2,0.2,0.4,0.2c0.1,0.1,0.3,0.1,0.4,0.1
		c0.2,0,0.3,0,0.4-0.1c0.1-0.1,0.3-0.1,0.4-0.2c0.1-0.1,0.2-0.2,0.2-0.4c0.1-0.1,0.1-0.3,0.1-0.4c0-0.2,0-0.3-0.1-0.4
		C454.6,398.1,454.5,398,454.4,397.9L454.4,397.9z"/>
	<path class="st1" d="M457.5,397.9c-0.1-0.1-0.2-0.2-0.4-0.2c-0.1-0.1-0.3-0.1-0.4-0.1c-0.3,0-0.6,0.1-0.8,0.3
		c-0.2,0.2-0.3,0.5-0.3,0.8c0,0.2,0,0.3,0.1,0.4c0.1,0.1,0.1,0.3,0.2,0.4c0.1,0.1,0.2,0.2,0.4,0.2c0.1,0.1,0.3,0.1,0.4,0.1
		c0.2,0,0.3,0,0.4-0.1c0.1-0.1,0.3-0.1,0.4-0.2c0.1-0.1,0.2-0.2,0.2-0.4c0.1-0.1,0.1-0.3,0.1-0.4c0-0.2,0-0.3-0.1-0.4
		C457.7,398.1,457.6,398,457.5,397.9L457.5,397.9z"/>
	<path class="st1" d="M441.3,393.9c0.3-2.6,1.6-3.6,3.8-3.7c0.5,0,0.9,0.1,1.3,0.3c0.4,0.2,0.8,0.4,1.2,0.8c0.3,0.3,0.6,0.8,0.9,1.3
		c0.2,0.5,0.4,0.7,0.5,1.4L441.3,393.9L441.3,393.9z M491.5,383.4v10.5h-1.9h-0.2h-1.3c-0.1-0.6-0.2-1.1-0.4-1.6
		c-0.2-0.5-0.5-0.9-0.8-1.3c-0.3-0.4-0.7-0.8-1.2-1.1c-0.5-0.3-0.9-0.6-1.5-0.8c-0.5-0.2-1.1-0.4-1.7-0.5c-0.6-0.1-1.2-0.2-1.8-0.3
		c-0.6,0-1.3,0-1.9,0c-0.6,0.1-1.2,0.2-1.8,0.3l0.1,2.3c0.6-0.2,1.1-0.3,1.7-0.4c0.6-0.1,1.2-0.1,1.8,0c0.6,0,1.2,0.1,1.8,0.3
		c0.6,0.1,1.2,0.4,1.7,0.7c0.5,0.3,0.9,0.7,1.3,1.1c0.4,0.4,0.5,0.4,0.6,1.2h-11.1h-0.2h-1c0-0.3-0.1-0.6-0.2-1
		c-0.1-0.4-0.2-0.8-0.4-1.2c-0.2-0.4-0.4-0.8-0.8-1.2c-0.3-0.4-0.7-0.7-1.2-1c-0.5-0.3-1.1-0.5-1.8-0.7c-0.7-0.2-1.5-0.3-2.5-0.3
		h-4.1c0.5-0.7,0.5-0.7,1.1-1.2c0.6-0.5,1.3-0.7,2-1c0.5-0.1,1-0.3,1.4-0.3c0.5-0.1,1-0.1,1.4-0.2c0.5,0,0.9-0.1,1.3-0.1
		c0.4,0,0.8,0,1.1,0v-2.3c-0.4,0-0.8,0-1.2,0c-0.4,0-0.9,0-1.4,0.1c-0.5,0-1,0.1-1.6,0.2c-0.5,0.1-1.1,0.2-1.6,0.4
		c-0.5,0.2-1.1,0.4-1.6,0.7c-0.5,0.3-1,0.6-1.5,1c-0.5,0.4-0.9,0.8-1.3,1.3c-0.4,0.5-0.8,1-1,1.7c-0.1,0.5-0.1,0.8-0.1,1
		c0,0.2,0.1,0.4,0.2,0.5c0.1,0.2,0.3,0.3,0.5,0.4c0.2,0.1,0.4,0.1,0.7,0.1v0h5.6c0.7,0,1.2,0.1,1.7,0.2c0.5,0.1,0.7,0.3,1.1,0.5
		c0.4,0.2,0.7,0.4,0.9,0.6c0.2,0.2,0.4,0.5,0.6,0.7c0.1,0.3,0.3,0.5,0.3,0.8c0.1,0.3,0,0.1,0.1,0.3h-13.2h-0.2h-1.9v-5.3h-2.1v5.3
		h-1.7h-0.2h-1.2c-0.1-1-0.3-1.5-0.7-2.3c-0.4-0.8-0.8-1.4-1.4-1.9c-0.5-0.5-1.2-0.9-1.8-1.2c-0.7-0.3-1.4-0.4-2-0.4
		c-0.7,0-1.4,0.1-2.1,0.4c-0.7,0.3-1.3,0.7-1.9,1.2c-0.6,0.6-1,1.2-1.4,2.1c-0.4,0.8-0.6,1.6-0.6,2.7c-0.4,0.2-0.7,0.4-0.9,0.6
		c-0.3,0.2-0.7,0.7-0.9,1c-0.2,0.3-0.3,0.6-0.4,0.9c-0.1,0.3-0.1,0.7-0.1,1.1c0,0.6,0.1,1.3,0.4,2c0.3,0.7,0.6,1.3,1.2,1.9l1.6-1.2
		c-0.4-0.4-0.6-0.9-0.8-1.4c-0.2-0.5-0.3-0.9-0.3-1.4c0-0.3,0-0.5,0.1-0.7c0.1-0.2,0.2-0.4,0.4-0.6c0.2-0.2,0.4-0.3,0.7-0.4
		c0.3-0.1,0.6-0.2,1.1-0.2h11.1h0.2h5.7h0.2h16.4h0.2h14.5h0.2h3.2c0.3,0,0.5-0.1,0.7-0.3c0.2-0.2,0.3-0.4,0.3-0.7v-11.8H491.5
		L491.5,383.4z"/>
	<polygon class="st1" points="498.3,383.4 498.3,396.2 496,396.2 496,383.4 498.3,383.4 498.3,383.4 	"/>
	<polygon class="st0" points="380.2,409 376.4,409 376.4,404 380.2,404 380.2,405 378,405 378,405.9 380.1,405.9 380.1,406.9 
		378,406.9 378,408 380.2,408 380.2,409 	"/>
	<polygon class="st0" points="385.1,409 381.2,409 381.2,404 382.8,404 382.8,407.8 385.1,407.8 385.1,409 	"/>
	<polygon class="st0" points="393.5,409 392,409 392,407.1 389.7,407.1 389.7,409 388.2,409 388.2,404 389.7,404 389.7,405.8 
		392,405.8 392,404 393.5,404 393.5,409 	"/>
	<path class="st0" d="M397.9,407.1l-0.7-1.8l-0.7,1.8H397.9L397.9,407.1z M400.3,409h-1.6l-0.4-1h-2.2l-0.4,1h-1.6l2.2-5h1.7
		L400.3,409L400.3,409z"/>
	<polygon class="st0" points="406.2,409 404.4,409 402.4,406.7 402.4,409 400.9,409 400.9,404 402.4,404 402.4,406.2 404.3,404 
		405.9,404 404,406.4 406.2,409 	"/>
	<polygon class="st0" points="410.7,409 406.9,409 406.9,404 410.6,404 410.6,405 408.4,405 408.4,405.9 410.5,405.9 410.5,406.9 
		408.4,406.9 408.4,408 410.7,408 410.7,409 	"/>
	<polygon class="st0" points="415.5,409 411.7,409 411.7,404 415.4,404 415.4,405 413.2,405 413.2,405.9 415.3,405.9 415.3,406.9 
		413.2,406.9 413.2,408 415.5,408 415.5,409 	"/>
	<polygon class="st0" points="422.3,409 420.8,409 420.8,406.1 419.5,407.8 419.3,407.8 418,406.1 418,409 416.5,409 416.5,404 
		417.9,404 419.4,405.9 421,404 422.3,404 422.3,409 	"/>
	<polygon class="st0" points="425.8,404 428.5,404 428.5,404.6 426.5,404.6 426.5,406 428.5,406 428.5,406.7 426.5,406.7 426.5,409 
		425.8,409 425.8,404 	"/>
	<path class="st0" d="M431.7,404.6c-0.6,0-1.1,0.2-1.4,0.5c-0.4,0.4-0.6,0.8-0.6,1.4c0,0.5,0.2,1,0.6,1.4c0.4,0.4,0.8,0.5,1.4,0.5
		c0.6,0,1-0.2,1.4-0.6c0.4-0.4,0.6-0.8,0.6-1.4c0-0.5-0.2-1-0.6-1.4C432.8,404.8,432.3,404.6,431.7,404.6L431.7,404.6z M431.7,403.9
		c0.8,0,1.4,0.2,2,0.7c0.5,0.5,0.8,1.1,0.8,1.9s-0.3,1.4-0.8,1.9c-0.5,0.5-1.2,0.7-2,0.7c-0.8,0-1.4-0.2-1.9-0.7
		c-0.5-0.5-0.8-1.1-0.8-1.8c0-0.8,0.3-1.4,0.8-1.9C430.3,404.1,430.9,403.9,431.7,403.9L431.7,403.9z"/>
	<path class="st0" d="M436.3,404.6h-0.2v1.6h0.3c0.4,0,0.6,0,0.8-0.1c0.1-0.1,0.2-0.2,0.3-0.3c0.1-0.1,0.1-0.3,0.1-0.4
		c0-0.2,0-0.3-0.1-0.4c-0.1-0.1-0.2-0.2-0.4-0.3C436.9,404.6,436.7,404.6,436.3,404.6L436.3,404.6z M435.4,409V404h1.3
		c0.5,0,0.9,0.1,1.2,0.4c0.3,0.3,0.5,0.6,0.5,1c0,0.3-0.1,0.6-0.2,0.8c-0.1,0.2-0.4,0.4-0.6,0.5c0.2,0.1,0.3,0.3,0.5,0.4
		c0.2,0.2,0.4,0.5,0.7,1c0.2,0.3,0.3,0.5,0.4,0.6l0.3,0.4h-0.9l-0.2-0.3c0,0,0,0,0-0.1l-0.1-0.2l-0.2-0.4l-0.2-0.4
		c-0.1-0.2-0.3-0.4-0.4-0.5c-0.1-0.1-0.2-0.2-0.3-0.3c-0.1-0.1-0.3-0.1-0.5-0.1h-0.2v2.2H435.4L435.4,409z"/>
	<path class="st0" d="M446.3,407.9v0.8c-0.5,0.3-1.1,0.4-1.8,0.4c-0.6,0-1-0.1-1.4-0.3c-0.4-0.2-0.7-0.5-0.9-0.9
		c-0.2-0.4-0.3-0.8-0.3-1.3c0-0.7,0.3-1.4,0.8-1.9c0.5-0.5,1.2-0.8,1.9-0.8c0.5,0,1.1,0.1,1.8,0.4v0.8c-0.6-0.3-1.2-0.5-1.7-0.5
		c-0.6,0-1.1,0.2-1.4,0.5c-0.4,0.4-0.6,0.8-0.6,1.4c0,0.6,0.2,1,0.6,1.4c0.4,0.4,0.9,0.5,1.4,0.5
		C445.1,408.4,445.7,408.2,446.3,407.9L446.3,407.9z"/>
	<path class="st0" d="M449.7,404.6c-0.6,0-1.1,0.2-1.4,0.5c-0.4,0.4-0.6,0.8-0.6,1.4c0,0.5,0.2,1,0.6,1.4c0.4,0.4,0.8,0.5,1.4,0.5
		c0.6,0,1-0.2,1.4-0.6c0.4-0.4,0.6-0.8,0.6-1.4c0-0.5-0.2-1-0.6-1.4C450.7,404.8,450.2,404.6,449.7,404.6L449.7,404.6z M449.7,403.9
		c0.8,0,1.4,0.2,2,0.7c0.5,0.5,0.8,1.1,0.8,1.9s-0.3,1.4-0.8,1.9c-0.5,0.5-1.2,0.7-2,0.7c-0.8,0-1.4-0.2-1.9-0.7
		c-0.5-0.5-0.8-1.1-0.8-1.8c0-0.8,0.3-1.4,0.8-1.9C448.2,404.1,448.9,403.9,449.7,403.9L449.7,403.9z"/>
	<polygon class="st0" points="457.3,404 458,404 458,409 457.4,409 454,405.1 454,409 453.3,409 453.3,404 453.9,404 457.3,407.9 
		457.3,404 	"/>
	<path class="st0" d="M460.3,406.9l-0.6-0.3c-0.3-0.2-0.6-0.4-0.7-0.6c-0.1-0.2-0.2-0.4-0.2-0.7c0-0.4,0.1-0.7,0.4-1
		c0.3-0.2,0.6-0.4,1.1-0.4c0.4,0,0.8,0.1,1.2,0.4v0.8c-0.4-0.4-0.8-0.5-1.2-0.5c-0.2,0-0.4,0.1-0.6,0.2c-0.2,0.1-0.2,0.2-0.2,0.4
		c0,0.2,0.1,0.3,0.2,0.4c0.1,0.1,0.3,0.3,0.5,0.4l0.6,0.3c0.6,0.4,0.9,0.8,0.9,1.4c0,0.4-0.1,0.7-0.4,1c-0.3,0.3-0.6,0.4-1.1,0.4
		c-0.5,0-1-0.2-1.4-0.5v-0.9c0.4,0.5,0.8,0.7,1.4,0.7c0.2,0,0.4-0.1,0.6-0.2c0.2-0.1,0.2-0.3,0.2-0.5
		C461,407.5,460.8,407.2,460.3,406.9L460.3,406.9z"/>
	<polygon class="st0" points="462.1,404 466.3,404 466.3,404.6 464.5,404.6 464.5,409 463.8,409 463.8,404.6 462.1,404.6 462.1,404 
			"/>
	<path class="st0" d="M467.9,404.6h-0.2v1.6h0.3c0.4,0,0.6,0,0.8-0.1c0.1-0.1,0.2-0.2,0.3-0.3c0.1-0.1,0.1-0.3,0.1-0.4
		c0-0.2,0-0.3-0.1-0.4c-0.1-0.1-0.2-0.2-0.4-0.3S468.3,404.6,467.9,404.6L467.9,404.6z M467,409V404h1.3c0.5,0,0.9,0.1,1.2,0.4
		c0.3,0.3,0.5,0.6,0.5,1c0,0.3-0.1,0.6-0.2,0.8c-0.1,0.2-0.4,0.4-0.6,0.5c0.2,0.1,0.3,0.3,0.5,0.4c0.2,0.2,0.4,0.5,0.7,1
		c0.2,0.3,0.3,0.5,0.4,0.6l0.3,0.4H470l-0.2-0.3c0,0,0,0,0-0.1l-0.1-0.2l-0.2-0.4l-0.2-0.4c-0.1-0.2-0.3-0.4-0.4-0.5
		c-0.1-0.1-0.2-0.2-0.3-0.3c-0.1-0.1-0.3-0.1-0.5-0.1h-0.2v2.2H467L467,409z"/>
	<path class="st0" d="M474.8,404h0.7v2.9c0,0.4,0,0.7-0.1,0.9c-0.1,0.2-0.1,0.4-0.2,0.5c-0.1,0.1-0.2,0.2-0.3,0.4
		c-0.4,0.3-0.9,0.5-1.6,0.5c-0.7,0-1.2-0.2-1.6-0.5c-0.1-0.1-0.2-0.2-0.3-0.4c-0.1-0.1-0.2-0.3-0.2-0.5c-0.1-0.2-0.1-0.5-0.1-0.9
		V404h0.7v2.9c0,0.5,0.1,0.8,0.2,1c0.1,0.2,0.3,0.3,0.5,0.4c0.2,0.1,0.5,0.2,0.8,0.2c0.4,0,0.8-0.1,1.1-0.3c0.1-0.1,0.2-0.3,0.3-0.4
		c0.1-0.2,0.1-0.4,0.1-0.8V404L474.8,404z"/>
	<path class="st0" d="M480.9,407.9v0.8c-0.5,0.3-1.1,0.4-1.8,0.4c-0.6,0-1-0.1-1.4-0.3c-0.4-0.2-0.7-0.5-0.9-0.9
		c-0.2-0.4-0.3-0.8-0.3-1.3c0-0.7,0.3-1.4,0.8-1.9c0.5-0.5,1.2-0.8,1.9-0.8c0.5,0,1.1,0.1,1.8,0.4v0.8c-0.6-0.3-1.2-0.5-1.7-0.5
		c-0.6,0-1.1,0.2-1.4,0.5c-0.4,0.4-0.6,0.8-0.6,1.4c0,0.6,0.2,1,0.6,1.4c0.4,0.4,0.9,0.5,1.4,0.5
		C479.7,408.4,480.3,408.2,480.9,407.9L480.9,407.9z"/>
	<polygon class="st0" points="481.3,404 485.6,404 485.6,404.6 483.8,404.6 483.8,409 483.1,409 483.1,404.6 481.3,404.6 481.3,404 
			"/>
	<polygon class="st0" points="486.3,404 487,404 487,409 486.3,409 486.3,404 	"/>
	<path class="st0" d="M490.6,404.6c-0.6,0-1.1,0.2-1.4,0.5c-0.4,0.4-0.6,0.8-0.6,1.4c0,0.5,0.2,1,0.6,1.4c0.4,0.4,0.8,0.5,1.4,0.5
		c0.6,0,1-0.2,1.4-0.6c0.4-0.4,0.6-0.8,0.6-1.4c0-0.5-0.2-1-0.6-1.4C491.7,404.8,491.2,404.6,490.6,404.6L490.6,404.6z M490.6,403.9
		c0.8,0,1.4,0.2,2,0.7c0.5,0.5,0.8,1.1,0.8,1.9s-0.3,1.4-0.8,1.9c-0.5,0.5-1.2,0.7-2,0.7c-0.8,0-1.4-0.2-1.9-0.7
		c-0.5-0.5-0.8-1.1-0.8-1.8c0-0.8,0.3-1.4,0.8-1.9C489.2,404.1,489.8,403.9,490.6,403.9L490.6,403.9z"/>
	<polygon class="st0" points="498.3,404 499,404 499,409 498.3,409 494.9,405.1 494.9,409 494.3,409 494.3,404 494.8,404 
		498.3,407.9 498.3,404 	"/>
</g>
<g>
	<g>
		<g>
			<path class="st2" d="M875.3,335c8.6-4.5,14.8-10.1,18.9-17c4-6.9,6-15.1,6-24.7c0-9.1-1.8-17.2-5.5-24.2c-3.7-7-8.6-12.9-15-17.6
				c-6.3-4.7-13.8-8.3-22.3-10.7c-8.6-2.4-17.8-3.6-27.8-3.6c-10.2,0-19.5,1.1-28.1,3.2c-8.6,2.1-15.9,5.5-22.2,10
				c-6.2,4.6-11.1,10.4-14.7,17.5c-3.6,7.1-5.3,15.6-5.3,25.4c0,6.6,1.1,12.3,3.2,17.2c2.1,4.9,4.6,9.1,7.5,12.6
				c2.9,3.5,5.8,6.2,8.7,8.1c2.9,2,5.2,3.2,6.8,3.7l1.5,0.5H535.1c0-5.6,0-11.4,0-17.3v-18.3c0.1-8.3,0-17.7,0-28.2v-90.3h-37.7v7.2
				c2.7,0.4,5.7,0.8,9.1,1.5c3.4,0.6,6.1,2.4,8,5.2v122.7h0.1v30.3c0,5.5-0.6,11.1-1.9,16.8c-1.3,5.7-3.4,10.9-6.4,15.7
				c-3,4.7-7,8.6-12,11.5c-5,2.9-11.2,4.4-18.7,4.4c-11.2,0-19.4-3.7-23.9-11.2c-4.5-7.5-6.8-17.5-6.8-30v-56.5h-38v8
				c0.9,0.2,2.4,0.3,4.4,0.3c2.5,0,4.9,0.2,7.3,0.7c2.4,0.4,4.4,1.7,6,3.9v47.9c0,7.3,0.9,14,2.8,20.2c1.9,6.2,4.8,11.5,8.7,16.1
				c3.9,4.5,8.9,8.1,14.8,10.7c6,2.6,13.8,3.9,22,3.9c7,0,12.7-0.8,17.4-2.3c4.6-1.5,8.5-3.5,11.6-5.9c3.1-2.4,5.6-5.1,7.5-8.2
				c1.9-3,3.5-6.1,4.9-9.1h0.5V409H552v-6.7c-1.4-0.2-2.9-0.2-4.4-0.1c-1.5,0.1-3,0.1-4.5,0c-1.5-0.1-3-0.4-4.3-0.9
				c-1.3-0.5-2.7-1.5-3.8-2.9c-0.2-6.4,0-12.4,0-17.9v-24.5h350.5c2.9,2,4.6,4.5,5.2,7.7c0.6,3.2,1.1,6.2,1.5,8.8h6.7v-36.9h-24.5
				L875.3,335z M867,326.8c-5.5,3.1-11.6,5.3-18.2,6.7c-6.6,1.3-13,2-19.3,2c-6.1,0-12.4-0.6-19-1.9c-6.6-1.2-12.7-3.4-18.2-6.5
				c-5.5-3.1-10.1-7.2-13.6-12.3c-3.6-5.1-5.3-11.4-5.3-18.9c0-7.8,1.7-14.3,5.1-19.4c3.4-5.1,7.8-9.1,13.2-12.2
				c5.4-3,11.5-5.1,18.2-6.3c6.7-1.2,13.2-1.7,19.7-1.7c6.4,0,13,0.6,19.7,1.7c6.7,1.2,12.8,3.2,18.2,6.3c5.4,3,9.9,7.1,13.4,12.2
				c3.5,5.1,5.2,11.5,5.2,19.4c0,7.3-1.8,13.5-5.3,18.6C877.1,319.6,872.6,323.7,867,326.8"/>
			<path class="st2" d="M444.9,181.4v94.1h-20.4v-80.2c-2-2.8-4.6-4.6-8-5.2c-3.4-0.6-6.4-1.1-9.1-1.5v-7.2H444.9z"/>
			<path class="st2" d="M341.4,243.8c15,0,26.3,3.5,34,10.4c7.7,6.9,11.5,19.3,11.5,36.1c0,6.8-0.8,12.7-2.4,17.8
				c-1.6,5.1-3.7,9.5-6.3,13.1c-2.6,3.7-5.4,6.7-8.6,9.1c-3.1,2.4-6.2,3.9-9.2,5.2h25.1V373h-7.8c-0.4-2.7-0.8-5.7-1.5-9.1
				c-0.6-3.4-2.4-6.1-5.2-8H100.8v-20.4h220.3c5.5,0,11.4-0.6,17.5-1.9c6.1-1.2,11.7-3.4,16.7-6.5c5-3.1,9.1-7.2,12.4-12.3
				c3.3-5.1,4.9-11.5,4.9-19.1c0-11.4-3.7-19.6-11.2-24.5c-7.5-4.9-17.7-7.3-30.5-7.3H100.8v-37.1h6.7c0.4,2.7,0.8,5.7,1.5,9.1
				c0.6,3.4,2.4,6,5.2,8H341.4z"/>
			<path class="st2" d="M126.6,193.6c0,7.2-5.8,13-13,13c-7.2,0-13-5.8-13-13c0-7.2,5.8-13,13-13
				C120.8,180.6,126.6,186.4,126.6,193.6"/>
			<path class="st3" d="M99.4,767.2c0-1.4,0.5-2.6,1.6-3.5c1-1,2.3-1.5,3.7-1.5c1.5,0,2.7,0.5,3.7,1.4c1,1,1.5,2.2,1.5,3.6
				c0,1.5-0.5,2.7-1.5,3.6c-1,1-2.2,1.5-3.7,1.5c-1.4,0-2.7-0.5-3.7-1.5C99.9,769.8,99.4,768.6,99.4,767.2 M100.6,782.5h8.2v35.4
				h-8.2V782.5z"/>
			<path class="st3" d="M175.8,817.9v-35.4h7.8v5.8c1.6-2.4,3.6-4.2,5.8-5.3c2.2-1.1,5-1.7,8.2-1.7c2.7,0,5,0.4,6.9,1.2
				c1.9,0.8,3.4,2.1,4.5,3.7c0.6,1,1.1,2.1,1.4,3.4c0.3,1.3,0.4,3.5,0.4,6.8v21.4h-8.4v-18.1c0-4.6-0.6-7.7-1.7-9.3
				c-1.2-1.5-3.2-2.3-6.2-2.3c-1.9,0-3.7,0.3-5.2,1c-1.5,0.7-2.7,1.7-3.6,2.9c-0.6,0.9-1,1.9-1.3,3.3c-0.2,1.3-0.4,3.5-0.4,6.4v16.1
				H175.8z"/>
			<path class="st3" d="M276.6,811.4l6.8-3.7c0.5,1.8,1.5,3.1,2.8,4.1c1.4,0.9,3.1,1.4,5.3,1.4c1.8,0,3.3-0.4,4.4-1.3
				c1.1-0.8,1.6-2,1.6-3.4c0-1.9-1.9-3.6-5.6-4.9c-1.3-0.4-2.2-0.8-2.9-1.1c-3.8-1.6-6.5-3.1-8.1-4.8c-1.5-1.6-2.3-3.6-2.3-5.9
				c0-3.2,1.3-5.7,3.8-7.7c2.5-2,5.9-2.9,10-2.9c2.8,0,5.2,0.5,7.2,1.5c2,1,3.4,2.4,4.4,4.3l-5.9,4c-0.4-1.1-1.2-2-2.2-2.7
				c-1.1-0.7-2.3-1-3.7-1c-1.6,0-2.8,0.4-3.8,1.1c-0.9,0.7-1.4,1.7-1.4,2.9c0,1.8,2.1,3.5,6.4,5c1.3,0.5,2.4,0.9,3.1,1.2
				c3.3,1.3,5.7,2.7,7.1,4.4c1.4,1.6,2.1,3.7,2.1,6.1c0,3.5-1.3,6.3-3.9,8.3c-2.6,2-6.2,3-10.8,3c-3.5,0-6.5-0.7-8.8-1.9
				C279.7,816.1,277.9,814.1,276.6,811.4"/>
			<path class="st3" d="M379.8,782.5v19.9c0,3.4,0.7,5.9,2.2,7.4c1.5,1.5,3.8,2.2,7.1,2.2c3.3,0,5.6-0.7,7.1-2.2
				c1.5-1.5,2.2-4,2.2-7.4v-19.9h8.3V800c0,6.8-1.4,11.6-4.2,14.7c-2.8,3.1-7.2,4.6-13.3,4.6c-6.2,0-10.7-1.5-13.4-4.6
				c-2.8-3-4.2-7.9-4.2-14.7v-17.5H379.8z"/>
			<path class="st3" d="M480.8,788.2c0.9-2.3,2.1-4.1,3.5-5.2c1.5-1.1,3.3-1.7,5.4-1.7c1.2,0,2.3,0.1,3.5,0.4
				c1.1,0.3,2.2,0.7,3.3,1.2l-3,6.8c-0.7-0.5-1.5-0.9-2.3-1.1c-0.8-0.2-1.7-0.3-2.8-0.3c-2.7,0-4.7,1.1-5.9,3.2
				c-1.2,2.1-1.8,5.7-1.8,10.8v15.5h-8.3v-35.4h8.3V788.2z"/>
			<path class="st3" d="M599.1,817.9h-8.2v-4.7c-1.5,2-3.2,3.6-5.2,4.6c-2,1-4.2,1.5-6.8,1.5c-5.1,0-9.1-1.7-12.1-5.1
				c-2.9-3.4-4.4-8.1-4.4-14c0-5.6,1.5-10.2,4.5-13.6c3-3.5,6.9-5.2,11.7-5.2c3,0,5.5,0.6,7.6,1.8c2.1,1.2,3.6,3,4.6,5.2v-5.9h8.2
				V817.9z M591.1,800.1c0-3.6-0.9-6.5-2.6-8.5c-1.7-2-4.2-3-7.3-3c-3.1,0-5.6,1.1-7.4,3.1c-1.8,2.1-2.7,5-2.7,8.7
				c0,3.7,0.9,6.6,2.6,8.6c1.7,2,4.2,3,7.3,3c3,0,5.4-1.1,7.3-3.3C590.2,806.6,591.1,803.7,591.1,800.1"/>
			<path class="st3" d="M665.1,817.9v-35.4h7.8v5.8c1.6-2.4,3.6-4.2,5.8-5.3c2.2-1.1,5-1.7,8.2-1.7c2.7,0,5,0.4,6.9,1.2
				c1.9,0.8,3.4,2.1,4.5,3.7c0.6,1,1.1,2.1,1.4,3.4c0.3,1.3,0.4,3.5,0.4,6.8v21.4h-8.4v-18.1c0-4.6-0.6-7.7-1.7-9.3
				c-1.2-1.5-3.2-2.3-6.2-2.3c-1.9,0-3.6,0.3-5.2,1c-1.5,0.7-2.7,1.7-3.6,2.9c-0.6,0.9-1,1.9-1.3,3.3c-0.2,1.3-0.4,3.5-0.4,6.4v16.1
				H665.1z"/>
			<path class="st3" d="M795.6,792.6c-1.3-1.4-2.8-2.4-4.5-3.1c-1.7-0.7-3.5-1.1-5.5-1.1c-3.4,0-6.1,1.1-8.1,3.2
				c-2,2.1-3.1,4.9-3.1,8.4c0,3.6,1,6.5,3.1,8.6c2,2.1,4.9,3.1,8.5,3.1c2,0,3.8-0.4,5.4-1.1c1.6-0.8,2.9-1.8,4.2-3.3v9.4
				c-1.5,0.8-3.2,1.5-4.9,1.9c-1.8,0.4-3.6,0.6-5.6,0.6c-5.7,0-10.3-1.8-13.9-5.3c-3.6-3.5-5.4-8.1-5.4-13.7
				c0-5.7,1.9-10.3,5.6-13.7c3.7-3.5,8.6-5.2,14.5-5.2c1.9,0,3.6,0.2,5.2,0.5c1.6,0.4,3,0.9,4.4,1.6V792.6z"/>
			<path class="st3" d="M899,801.4h-28.8c0.2,3.3,1.2,5.8,3,7.7c1.8,1.8,4.2,2.7,7.2,2.7c2.6,0,4.9-0.5,6.6-1.6
				c1.8-1.1,3.3-2.8,4.6-5.2l7,3.7c-2,3.6-4.5,6.2-7.5,8c-3,1.8-6.5,2.6-10.5,2.6c-5.8,0-10.4-1.7-13.8-5.2c-3.4-3.4-5.1-8-5.1-13.8
				c0-5.5,1.8-10.1,5.3-13.6c3.5-3.6,8.1-5.3,13.7-5.3c5.8,0,10.3,1.6,13.6,4.9c3.2,3.2,4.9,7.8,4.9,13.7V801.4z M890.3,795.9
				c-0.3-2.5-1.3-4.4-3-5.7c-1.6-1.3-3.9-2-6.7-2c-2.7,0-4.9,0.6-6.5,1.9c-1.6,1.3-2.8,3.2-3.4,5.8H890.3z"/>
			<path class="st3" d="M439.6,461.2c-11.5,0-19.6,6.1-19.6,14.6c0,0.6,0.1,1.1,0.2,1.7l0.1,0.3h-9.8h-2.2h-15h-1.1h-16H375h-16
				h-1.1h-16h-1.1h-16h-1.1h-15.8h-1.4h-14.9c1.5-1.2,2.2-3.6,2.2-7.4v-14.3H284v14.6c0,2.2-0.4,3.9-1,4.8c-1,1.5-3,2.2-5.9,2.2h-7
				h-2.3h-14.9h-1.1h-16h-1.1h-16h-1.1h-16h-1.1h-16H183h-14.9h-2.2H155c0.3-1.3,0.5-2.6,0.5-3.9v-17.7h-9.8v16.9
				c0,4.1-1.4,7.7-4.2,10.7c-3.4,3.4-7.8,5.1-13.3,5.1c-5.6,0-10-1.7-13.3-5.1c-2.9-3-4.3-6.5-4.3-10.7v-16.9h-9.8V474
				c0,6.2,2.8,11.3,8.2,15.5c5.3,4.1,11.7,6.2,19.3,6.2c4.9,0,9.4-1,13.7-2.9c4.1-1.8,7.3-4.4,9.7-7.6h14.3h2.2H183h1.1h16h1.1h16
				h1.1h16h1.1h16h1.1h14.9h2.3h36.3h1.4h15.8h1.1h16h1.1h16h1.1h16h1.1h16h1.1h15h2.2h13.4c3.7,3.8,9,5.7,15.7,5.7
				c11.5,0,19.4-6.2,19.4-14.7C459,467.8,451.1,461.2,439.6,461.2 M439.9,484.2c-5.8,0-9.9-3.6-9.9-8.4c0-4.8,3.9-8.2,9.4-8.2
				c5.7,0,9.7,3.6,9.7,8.5C449.1,481,445.2,484.2,439.9,484.2"/>
			<path class="st3" d="M480.1,437.9h-7c-1-0.4-1.6-1.3-1.6-2.3c0-1.2,1.1-2.4,2.9-2.4c1.3,0,2.2,0.4,2.4,1.4l3.1-1.2
				c-1.2-1.8-3-2.8-5.5-2.8c-3.7,0-6.8,2.2-6.8,5.2c0,0.3,0.3,1,0.8,2.2h-3.5v2.9h15V437.9z"/>
			<path class="st3" d="M889.2,444.1v27.1c0,2.3-0.3,3.8-0.7,4.6c-1,1.4-3,2.1-6.2,2.1h-6h-2.2h-14.9h-1.1h-16h-1.1h-16h-1.1h-16
				h-1.1h-16h-1.1h-15.8h-1.4h-14.9c1.4-1.2,2.1-3.6,2.1-7.4v-26.4h-9.6v26.8c0,2.2-0.4,3.9-1,4.8c-1,1.5-2.9,2.2-5.8,2.2H736h-2.1
				h-15.1h-1.1h-16h-1.1h-16h-1.1h-16h-1.1h-16H649h-15.4h-1.7h-14.9c1.4-1.2,2.1-3.6,2.1-7.4v-14.3h-9.6v14.6c0,2.2-0.3,3.9-1,4.8
				c-1,1.5-3,2.2-5.8,2.2h-6.9h-2.1h-15.1h-1.1h-16h-1.1h-16H543h-16h-1.1h-16h-1.1h-15h-2.2h-3.6c-3.6,0-6.2-0.4-7.5-1.1
				c-1.8-1-2.8-3-2.8-6.1v-26.6h-9.6v29.5c0,3.5,1.1,6.2,3.5,8.3c2.5,2.2,6.1,3.3,10.7,3.3h9.2h2.2h15h1.1h16h1.1h16h1.1h16h1.1h16
				h1.1h15.1h2.1h36.2h1.7H649h1.1h16h1.1h16h1.1h16h1.1h16h1.1h15.1h2.1h36.2h1.4h15.8h1.1h16h1.1h16h1.1h16h1.1h16h1.1h14.9h2.2h8
				c9.7,0,14.6-3.8,14.6-11.5v-29.5H889.2z"/>
			<path class="st3" d="M128.2,451.7c1.5,0,2.7-0.5,3.7-1.5c1-1,1.5-2.2,1.5-3.6c0-1.4-0.5-2.6-1.5-3.6c-1-1-2.2-1.4-3.7-1.4
				c-1.4,0-2.7,0.5-3.7,1.5c-1,1-1.5,2.2-1.5,3.5c0,1.4,0.5,2.6,1.5,3.6C125.6,451.2,126.8,451.7,128.2,451.7"/>
			<path class="st3" d="M272,490.3c-1.4,0-2.7,0.5-3.7,1.5c-1,1-1.5,2.2-1.5,3.5c0,1.4,0.5,2.6,1.5,3.6c1,1,2.3,1.5,3.7,1.5
				c1.5,0,2.7-0.5,3.7-1.5c1-1,1.5-2.2,1.5-3.6c0-1.4-0.5-2.6-1.5-3.6C274.7,490.8,273.5,490.3,272,490.3"/>
			<path class="st3" d="M288.5,490.3c-1.4,0-2.7,0.5-3.7,1.5c-1,1-1.5,2.2-1.5,3.5c0,1.4,0.5,2.6,1.5,3.6c1,1,2.3,1.5,3.7,1.5
				c1.5,0,2.7-0.5,3.7-1.5c1-1,1.5-2.2,1.5-3.6c0-1.4-0.5-2.6-1.5-3.6C291.2,490.8,290,490.3,288.5,490.3"/>
			<path class="st3" d="M598.1,451.7c1.5,0,2.7-0.5,3.7-1.5c1-1,1.5-2.2,1.5-3.6c0-1.4-0.5-2.6-1.5-3.6c-1-1-2.2-1.4-3.7-1.4
				c-1.4,0-2.7,0.5-3.7,1.5c-1,1-1.5,2.2-1.5,3.5c0,1.4,0.5,2.6,1.5,3.6C595.4,451.2,596.7,451.7,598.1,451.7"/>
			<path class="st3" d="M614.6,451.7c1.5,0,2.7-0.5,3.7-1.5c1-1,1.5-2.2,1.5-3.6c0-1.4-0.5-2.6-1.5-3.6c-1-1-2.2-1.4-3.7-1.4
				c-1.4,0-2.7,0.5-3.7,1.5c-1,1-1.5,2.2-1.5,3.5c0,1.4,0.5,2.6,1.5,3.6C611.9,451.2,613.1,451.7,614.6,451.7"/>
			<path class="st2" d="M510.9,742.2c-2.5,0.4-5,0.7-7.6,0.7c-2,0-3.6,0.1-4.6,0.3v8.3H556v-8.3c-0.9-0.2-2.5-0.3-4.6-0.3
				c-2.6,0-5.1-0.2-7.6-0.7c-2.5-0.5-4.6-1.8-6.3-4V610.7v-85.8h-38.9v8.3c0.9,0.2,2.5,0.3,4.6,0.3c2.6,0,5.1,0.2,7.6,0.7
				c2.5,0.5,4.6,1.8,6.2,4v93.9h0v106.1C515.4,740.4,513.4,741.7,510.9,742.2"/>
			<path class="st2" d="M759.7,603.7v-12.2h-25.2v-66.6h-38.8v8.3c0.9,0.2,2.5,0.3,4.6,0.3c2.6,0,5.1,0.2,7.6,0.7
				c2.5,0.5,4.6,1.8,6.2,4v53.3h-22.5v12.2H714v16.8h0l0,113.3c0,0,1.8,27.9,43.7,17.8v-7.3c0,0-22.6,9.2-23.4-10.8V620.9v-17.2
				H759.7z"/>
			<path class="st2" d="M340.4,751.5l-0.3-8.3c-0.9-0.2-2.4-0.3-4.4-0.3c-2.6,0-5.1-0.2-7.6-0.7c-2.5-0.5-4.6-1.8-6.2-4v-94
				c0-7.5-1-14.5-2.9-20.8c-1.9-6.4-4.9-11.9-9-16.6c-4.1-4.7-9.2-8.4-15.3-11c-6.2-2.7-13.5-4-22-4c-7.2,0-13.2,0.8-18,2.3
				c-4.8,1.6-8.8,3.6-12,6.1c-3.2,2.5-5.8,5.3-7.7,8.4c-1.9,3.1-3.6,6.3-5.1,9.4l-2.3,6.2c-0.1-0.3-0.1-0.5-0.2-0.8
				c-1.9-6.4-4.9-11.9-9-16.6c-4.1-4.7-9.2-8.4-15.3-11c-6.2-2.7-13.5-4-22-4c-7.2,0-13.2,0.8-18,2.3c-4.8,1.6-8.8,3.6-12,6.1
				c-3.2,2.5-5.8,5.3-7.7,8.4c-1.5,2.4-2.8,4.8-4,7.1v-24h-38.6v8.3c0.9,0.2,2.3,0.3,4.4,0.3c2.6,0,5.1,0.2,7.6,0.7
				c2.5,0.5,4.6,1.8,6.2,4v146.5h20.5V649.1c0.6-12.1,3.6-20.2,6.2-25c0.3-0.5,0.6-1.1,1-1.6c3.1-4.9,7.3-8.8,12.5-11.9
				c5.2-3,11.6-4.6,19.3-4.6c11.6,0,19.8,3.9,24.5,11.6c4.7,7.8,7,18.1,7,31v102.8h39l-0.3-8.3c-0.9-0.2-2.4-0.3-4.4-0.3
				c-2.6,0-5.1-0.2-7.6-0.7c-2.5-0.5-4.6-1.8-6.2-4v-79.9l0.1,0.1c-0.8-22.3,6.5-34.9,12-41.2c2.4-2.5,5.1-4.6,8.2-6.5
				c5.2-3,11.6-4.6,19.3-4.6c11.6,0,19.8,3.9,24.5,11.6c4.7,7.8,7.1,18.1,7.1,31v102.8H340.4z"/>
			<path class="st2" d="M893.6,742.9c-2.6,0-5.1-0.2-7.6-0.7c-2.5-0.5-4.6-1.8-6.2-4v-94c0-7.5-1-14.5-2.9-20.8
				c-1.9-6.4-4.9-11.9-9-16.6c-4.1-4.7-9.2-8.4-15.3-11c-6.2-2.7-13.5-4-22-4c-7.2,0-13.2,0.8-18,2.3c-4.8,1.6-8.8,3.6-12,6.1
				c-3.2,2.5-5.8,5.3-7.7,8.4c-1.2,2-2.3,4-3.3,5.9v-89.6h-38.8v8.3c0.9,0.2,2.5,0.3,4.6,0.3c2.6,0,5.1,0.2,7.6,0.7
				c2.5,0.5,4.6,1.8,6.2,4v213.2h20.5V650.6c0.9-17.1,6.3-27,8-29.7c1.5-2.2,3.1-4.1,4.6-5.5c1.9-1.7,4-3.3,6.4-4.6
				c5.2-3,11.6-4.6,19.3-4.6c11.6,0,19.8,3.9,24.5,11.6c4.7,7.8,7.1,18.1,7.1,31v102.8h39.5v-8.3C897.9,743,895.6,742.9,893.6,742.9
				"/>
			<path class="st2" d="M482.7,742.9c-2.6,0-5.1-0.2-7.6-0.7c-2.3-0.4-4.5-1.7-6.1-3.7v-68.3v-29.8c0.6-49.7-45.9-48.4-45.9-48.4
				c-40.2-0.5-62.8,23.5-62.8,23.5l8.3,10.4c13.2-13.6,30.4-17.9,30.4-17.9c30-8.7,42.6,6.8,47.6,17.6c1.1,2.6,2.6,7.1,3,13.2v6.1
				c0,0.5,0,0.5,0,1.1l0,0.6V658c-0.3-0.7-0.7-1.3-1-1.9c-0.4-0.7-0.9-1.5-1.6-2.4c-0.1-0.1-0.1-0.2-0.2-0.3c-0.4-0.6-0.9-1.3-1.5-2
				c-2-2.5-4.7-4.9-8.2-7.3c-3.5-2.4-7.7-4.5-12.6-6.3c-4.9-1.8-10.7-2.7-17.2-2.7c-9.8,0-18.3,1.5-25.4,4.5
				c-7.1,3-13,7.1-17.5,12.3c-4.5,5.2-7.9,11.4-10,18.5c-2.1,7.2-3.2,15-3.2,23.5c0,8.3,1.2,16.1,3.6,23.2c2.4,7.1,6,13.4,10.7,18.7
				c4.7,5.3,10.6,9.4,17.6,12.5c7,3.1,15.1,4.6,24.2,4.6c9.6,0,17.9-1.7,24.7-5c6.9-3.4,12.5-8.6,17-15.8l0.5-0.9v20.1h37.6v-8.3
				C486.4,743,484.8,742.9,482.7,742.9 M447.7,710.1c-1.3,5.5-3.6,10.6-6.7,15.2c-3.1,4.6-7.2,8.4-12.3,11.4
				c-5.1,3-11.3,4.5-18.6,4.5c-7.8,0-14.3-1.5-19.4-4.4c-5.1-2.9-9.1-6.6-12.2-11.2c-3-4.5-5.1-9.6-6.3-15.2
				c-1.1-5.6-1.7-11-1.7-16.4c0-5.4,0.6-10.8,1.7-16.4c1.2-5.6,3.2-10.7,6.3-15.2c3-4.5,7.1-8.2,12.2-11.1
				c5.1-2.8,11.5-4.2,19.4-4.2c7.5,0,13.8,1.5,18.8,4.5c5.1,3,9.2,6.8,12.3,11.4c3.1,4.6,5.3,9.7,6.5,15.2
				c1.3,5.5,1.9,10.8,1.9,15.9C449.7,699.2,449,704.6,447.7,710.1"/>
			<path class="st2" d="M698.1,742.9c-2.6,0-5.1-0.2-7.6-0.7c-2.3-0.4-4.5-1.7-6.1-3.7v-68.3v-29.8c0.6-49.7-45.9-48.4-45.9-48.4
				c-40.2-0.5-62.8,23.5-62.8,23.5L584,626c13.2-13.6,30.4-17.9,30.4-17.9c30-8.7,42.6,6.8,47.6,17.6c1.1,2.6,2.6,7.1,3,13.2v6.1
				c0,0.5,0,0.5,0,1.1l0,0.6V658c-0.3-0.7-0.7-1.3-1-1.9c-0.4-0.7-0.9-1.5-1.6-2.4c-0.1-0.1-0.2-0.2-0.2-0.3c-0.4-0.6-0.9-1.3-1.5-2
				c-2-2.5-4.7-4.9-8.1-7.3c-3.5-2.4-7.7-4.5-12.6-6.3c-4.9-1.8-10.6-2.7-17.2-2.7c-9.8,0-18.3,1.5-25.4,4.5
				c-7.1,3-13,7.1-17.5,12.3c-4.5,5.2-7.9,11.4-10,18.5c-2.1,7.2-3.2,15-3.2,23.5c0,8.3,1.2,16.1,3.6,23.2c2.4,7.1,6,13.4,10.7,18.7
				c4.7,5.3,10.6,9.4,17.6,12.5c7,3.1,15.1,4.6,24.2,4.6c9.6,0,17.9-1.7,24.7-5c6.9-3.4,12.5-8.6,17-15.8l0.5-0.9v20.1h37.6v-8.3
				C701.8,743,700.2,742.9,698.1,742.9 M663.1,710.1c-1.3,5.5-3.6,10.6-6.7,15.2c-3.1,4.6-7.2,8.4-12.3,11.4
				c-5.1,3-11.3,4.5-18.6,4.5c-7.8,0-14.3-1.5-19.4-4.4c-5.1-2.9-9.1-6.6-12.2-11.2c-3-4.5-5.1-9.6-6.3-15.2
				c-1.2-5.6-1.7-11-1.7-16.4c0-5.4,0.6-10.8,1.7-16.4c1.2-5.6,3.2-10.7,6.3-15.2c3-4.5,7.1-8.2,12.2-11.1
				c5.1-2.8,11.5-4.2,19.4-4.2c7.5,0,13.8,1.5,18.9,4.5c5.1,3,9.2,6.8,12.3,11.4c3.1,4.6,5.3,9.7,6.5,15.2
				c1.3,5.5,1.9,10.8,1.9,15.9C665.1,699.2,664.4,704.6,663.1,710.1"/>
		</g>
	</g>
</g>
</svg>
